ISO-10303-21;
HEADER;
/* Generated by software containing ST-Developer
 * from STEP Tools, Inc. (www.steptools.com) 
 */

FILE_DESCRIPTION(
/* description */ (''),
/* implementation_level */ '2;1');

FILE_NAME(
/* name */ 'antenna-structure.step',
/* time_stamp */ '2026-07-21T09:24:53-04:00',
/* author */ (''),
/* organization */ (''),
/* preprocessor_version */ 'ST-DEVELOPER v20.1',
/* originating_system */ 'Autodesk Translation Framework v15.8.0.0',
/* authorisation */ '');

FILE_SCHEMA (('AUTOMOTIVE_DESIGN { 1 0 10303 214 3 1 1 }'));
ENDSEC;

DATA;
#10=MECHANICAL_DESIGN_GEOMETRIC_PRESENTATION_REPRESENTATION('',(#13),#521);
#11=SHAPE_REPRESENTATION_RELATIONSHIP('SRR','None',#528,#12);
#12=ADVANCED_BREP_SHAPE_REPRESENTATION('',(#14),#520);
#13=STYLED_ITEM('',(#537),#14);
#14=MANIFOLD_SOLID_BREP('Body1',#137);
#15=B_SPLINE_CURVE_WITH_KNOTS('',3,(#359,#360,#361,#362,#363,#364,#365,
#366,#367,#368,#369,#370),.UNSPECIFIED.,.F.,.F.,(4,1,1,1,1,1,1,1,1,4),(0.,
0.142857142857143,0.285714285714286,0.428571428571429,0.464285714285714,
0.571428571428571,0.642857142857143,0.714285714285714,0.857142857142857,
1.),.UNSPECIFIED.);
#16=B_SPLINE_CURVE_WITH_KNOTS('',3,(#503,#504,#505,#506,#507,#508,#509,
#510,#511,#512,#513,#514,#515),.UNSPECIFIED.,.F.,.F.,(4,1,1,1,1,1,1,1,1,
1,4),(0.,0.142857142857143,0.285714285714286,0.357142857142857,0.428571428571429,
0.5,0.571428571428571,0.642857142857143,0.714285714285714,0.857142857142857,
1.),.UNSPECIFIED.);
#17=B_SPLINE_SURFACE_WITH_KNOTS('',3,3,((#238,#239,#240,#241,#242,#243,
#244,#245,#246,#247,#248,#249),(#250,#251,#252,#253,#254,#255,#256,#257,
#258,#259,#260,#261),(#262,#263,#264,#265,#266,#267,#268,#269,#270,#271,
#272,#273),(#274,#275,#276,#277,#278,#279,#280,#281,#282,#283,#284,#285),
(#286,#287,#288,#289,#290,#291,#292,#293,#294,#295,#296,#297),(#298,#299,
#300,#301,#302,#303,#304,#305,#306,#307,#308,#309),(#310,#311,#312,#313,
#314,#315,#316,#317,#318,#319,#320,#321),(#322,#323,#324,#325,#326,#327,
#328,#329,#330,#331,#332,#333),(#334,#335,#336,#337,#338,#339,#340,#341,
#342,#343,#344,#345),(#346,#347,#348,#349,#350,#351,#352,#353,#354,#355,
#356,#357)),.UNSPECIFIED.,.T.,.F.,.F.,(4,1,1,1,1,1,1,4),(4,1,1,1,1,1,1,
1,1,4),(-3.14159265358979,-2.24399475256414,-1.34639685153848,-0.448798950512828,
0.448798950512828,1.34639685153848,2.24399475256414,3.14159265358979),(0.,
0.142857142857143,0.285714285714286,0.428571428571429,0.464285714285714,
0.571428571428571,0.642857142857143,0.714285714285714,0.857142857142857,
1.),.UNSPECIFIED.);
#18=B_SPLINE_SURFACE_WITH_KNOTS('',3,3,((#372,#373,#374,#375,#376,#377,
#378,#379,#380,#381,#382,#383,#384),(#385,#386,#387,#388,#389,#390,#391,
#392,#393,#394,#395,#396,#397),(#398,#399,#400,#401,#402,#403,#404,#405,
#406,#407,#408,#409,#410),(#411,#412,#413,#414,#415,#416,#417,#418,#419,
#420,#421,#422,#423),(#424,#425,#426,#427,#428,#429,#430,#431,#432,#433,
#434,#435,#436),(#437,#438,#439,#440,#441,#442,#443,#444,#445,#446,#447,
#448,#449),(#450,#451,#452,#453,#454,#455,#456,#457,#458,#459,#460,#461,
#462),(#463,#464,#465,#466,#467,#468,#469,#470,#471,#472,#473,#474,#475),
(#476,#477,#478,#479,#480,#481,#482,#483,#484,#485,#486,#487,#488),(#489,
#490,#491,#492,#493,#494,#495,#496,#497,#498,#499,#500,#501)),
 .UNSPECIFIED.,.T.,.F.,.F.,(4,1,1,1,1,1,1,4),(4,1,1,1,1,1,1,1,1,1,4),(-3.14159265358979,
-2.24399475256414,-1.34639685153848,-0.448798950512828,0.448798950512828,
1.34639685153848,2.24399475256414,3.14159265358979),(0.,0.142857142857143,
0.285714285714286,0.357142857142857,0.428571428571429,0.5,0.571428571428571,
0.642857142857143,0.714285714285714,0.857142857142857,1.),.UNSPECIFIED.);
#19=FACE_BOUND('',#38,.T.);
#20=FACE_BOUND('',#40,.T.);
#21=FACE_BOUND('',#44,.T.);
#22=FACE_BOUND('',#48,.T.);
#23=PLANE('',#154);
#24=PLANE('',#156);
#25=PLANE('',#165);
#26=PLANE('',#168);
#27=FACE_OUTER_BOUND('',#36,.T.);
#28=FACE_OUTER_BOUND('',#37,.T.);
#29=FACE_OUTER_BOUND('',#39,.T.);
#30=FACE_OUTER_BOUND('',#41,.T.);
#31=FACE_OUTER_BOUND('',#42,.T.);
#32=FACE_OUTER_BOUND('',#43,.T.);
#33=FACE_OUTER_BOUND('',#45,.T.);
#34=FACE_OUTER_BOUND('',#46,.T.);
#35=FACE_OUTER_BOUND('',#47,.T.);
#36=EDGE_LOOP('',(#93,#94,#95,#96));
#37=EDGE_LOOP('',(#97));
#38=EDGE_LOOP('',(#98));
#39=EDGE_LOOP('',(#99));
#40=EDGE_LOOP('',(#100));
#41=EDGE_LOOP('',(#101,#102,#103,#104,#105,#106));
#42=EDGE_LOOP('',(#107,#108,#109,#110));
#43=EDGE_LOOP('',(#111));
#44=EDGE_LOOP('',(#112));
#45=EDGE_LOOP('',(#113,#114,#115,#116,#117,#118));
#46=EDGE_LOOP('',(#119,#120,#121,#122));
#47=EDGE_LOOP('',(#123));
#48=EDGE_LOOP('',(#124));
#49=LINE('',#215,#52);
#50=LINE('',#227,#53);
#51=LINE('',#236,#54);
#52=VECTOR('',#175,3.25);
#53=VECTOR('',#190,1.5);
#54=VECTOR('',#201,2.);
#55=CIRCLE('',#152,3.25);
#56=CIRCLE('',#153,3.25);
#57=CIRCLE('',#155,2.);
#58=CIRCLE('',#157,2.);
#59=CIRCLE('',#159,1.5);
#60=CIRCLE('',#160,1.5);
#61=CIRCLE('',#161,1.5);
#62=CIRCLE('',#162,1.5);
#63=CIRCLE('',#164,2.);
#64=CIRCLE('',#166,1.5);
#65=CIRCLE('',#167,2.);
#66=VERTEX_POINT('',#212);
#67=VERTEX_POINT('',#214);
#68=VERTEX_POINT('',#218);
#69=VERTEX_POINT('',#221);
#70=VERTEX_POINT('',#224);
#71=VERTEX_POINT('',#226);
#72=VERTEX_POINT('',#228);
#73=VERTEX_POINT('',#230);
#74=VERTEX_POINT('',#234);
#75=VERTEX_POINT('',#358);
#76=VERTEX_POINT('',#502);
#77=EDGE_CURVE('',#66,#66,#55,.T.);
#78=EDGE_CURVE('',#66,#67,#49,.T.);
#79=EDGE_CURVE('',#67,#67,#56,.T.);
#80=EDGE_CURVE('',#68,#68,#57,.T.);
#81=EDGE_CURVE('',#69,#69,#58,.T.);
#82=EDGE_CURVE('',#70,#70,#59,.T.);
#83=EDGE_CURVE('',#70,#71,#50,.T.);
#84=EDGE_CURVE('',#72,#71,#60,.T.);
#85=EDGE_CURVE('',#73,#72,#61,.T.);
#86=EDGE_CURVE('',#71,#73,#62,.T.);
#87=EDGE_CURVE('',#74,#74,#63,.T.);
#88=EDGE_CURVE('',#74,#69,#51,.T.);
#89=EDGE_CURVE('',#71,#75,#15,.T.);
#90=EDGE_CURVE('',#75,#75,#64,.T.);
#91=EDGE_CURVE('',#68,#76,#16,.T.);
#92=EDGE_CURVE('',#76,#76,#65,.T.);
#93=ORIENTED_EDGE('',*,*,#77,.F.);
#94=ORIENTED_EDGE('',*,*,#78,.T.);
#95=ORIENTED_EDGE('',*,*,#79,.F.);
#96=ORIENTED_EDGE('',*,*,#78,.F.);
#97=ORIENTED_EDGE('',*,*,#79,.T.);
#98=ORIENTED_EDGE('',*,*,#80,.F.);
#99=ORIENTED_EDGE('',*,*,#77,.T.);
#100=ORIENTED_EDGE('',*,*,#81,.F.);
#101=ORIENTED_EDGE('',*,*,#82,.F.);
#102=ORIENTED_EDGE('',*,*,#83,.T.);
#103=ORIENTED_EDGE('',*,*,#84,.F.);
#104=ORIENTED_EDGE('',*,*,#85,.F.);
#105=ORIENTED_EDGE('',*,*,#86,.F.);
#106=ORIENTED_EDGE('',*,*,#83,.F.);
#107=ORIENTED_EDGE('',*,*,#87,.F.);
#108=ORIENTED_EDGE('',*,*,#88,.T.);
#109=ORIENTED_EDGE('',*,*,#81,.T.);
#110=ORIENTED_EDGE('',*,*,#88,.F.);
#111=ORIENTED_EDGE('',*,*,#87,.T.);
#112=ORIENTED_EDGE('',*,*,#82,.T.);
#113=ORIENTED_EDGE('',*,*,#86,.T.);
#114=ORIENTED_EDGE('',*,*,#85,.T.);
#115=ORIENTED_EDGE('',*,*,#84,.T.);
#116=ORIENTED_EDGE('',*,*,#89,.T.);
#117=ORIENTED_EDGE('',*,*,#90,.F.);
#118=ORIENTED_EDGE('',*,*,#89,.F.);
#119=ORIENTED_EDGE('',*,*,#80,.T.);
#120=ORIENTED_EDGE('',*,*,#91,.T.);
#121=ORIENTED_EDGE('',*,*,#92,.F.);
#122=ORIENTED_EDGE('',*,*,#91,.F.);
#123=ORIENTED_EDGE('',*,*,#92,.T.);
#124=ORIENTED_EDGE('',*,*,#90,.T.);
#125=CYLINDRICAL_SURFACE('',#151,3.25);
#126=CYLINDRICAL_SURFACE('',#158,1.5);
#127=CYLINDRICAL_SURFACE('',#163,2.);
#128=ADVANCED_FACE('',(#27),#125,.T.);
#129=ADVANCED_FACE('',(#28,#19),#23,.T.);
#130=ADVANCED_FACE('',(#29,#20),#24,.F.);
#131=ADVANCED_FACE('',(#30),#126,.F.);
#132=ADVANCED_FACE('',(#31),#127,.T.);
#133=ADVANCED_FACE('',(#32,#21),#25,.F.);
#134=ADVANCED_FACE('',(#33),#17,.T.);
#135=ADVANCED_FACE('',(#34),#18,.T.);
#136=ADVANCED_FACE('',(#35,#22),#26,.T.);
#137=CLOSED_SHELL('',(#128,#129,#130,#131,#132,#133,#134,#135,#136));
#138=DERIVED_UNIT_ELEMENT(#140,1.);
#139=DERIVED_UNIT_ELEMENT(#523,-3.);
#140=(
MASS_UNIT()
NAMED_UNIT(*)
SI_UNIT(.KILO.,.GRAM.)
);
#141=DERIVED_UNIT((#138,#139));
#142=MEASURE_REPRESENTATION_ITEM('density measure',
POSITIVE_RATIO_MEASURE(7850.),#141);
#143=PROPERTY_DEFINITION_REPRESENTATION(#148,#145);
#144=PROPERTY_DEFINITION_REPRESENTATION(#149,#146);
#145=REPRESENTATION('material name',(#147),#520);
#146=REPRESENTATION('density',(#142),#520);
#147=DESCRIPTIVE_REPRESENTATION_ITEM('Steel','Steel');
#148=PROPERTY_DEFINITION('material property','material name',#530);
#149=PROPERTY_DEFINITION('material property','density of part',#530);
#150=AXIS2_PLACEMENT_3D('',#210,#169,#170);
#151=AXIS2_PLACEMENT_3D('',#211,#171,#172);
#152=AXIS2_PLACEMENT_3D('',#213,#173,#174);
#153=AXIS2_PLACEMENT_3D('',#216,#176,#177);
#154=AXIS2_PLACEMENT_3D('',#217,#178,#179);
#155=AXIS2_PLACEMENT_3D('',#219,#180,#181);
#156=AXIS2_PLACEMENT_3D('',#220,#182,#183);
#157=AXIS2_PLACEMENT_3D('',#222,#184,#185);
#158=AXIS2_PLACEMENT_3D('',#223,#186,#187);
#159=AXIS2_PLACEMENT_3D('',#225,#188,#189);
#160=AXIS2_PLACEMENT_3D('',#229,#191,#192);
#161=AXIS2_PLACEMENT_3D('',#231,#193,#194);
#162=AXIS2_PLACEMENT_3D('',#232,#195,#196);
#163=AXIS2_PLACEMENT_3D('',#233,#197,#198);
#164=AXIS2_PLACEMENT_3D('',#235,#199,#200);
#165=AXIS2_PLACEMENT_3D('',#237,#202,#203);
#166=AXIS2_PLACEMENT_3D('',#371,#204,#205);
#167=AXIS2_PLACEMENT_3D('',#516,#206,#207);
#168=AXIS2_PLACEMENT_3D('',#517,#208,#209);
#169=DIRECTION('axis',(0.,0.,1.));
#170=DIRECTION('refdir',(1.,0.,0.));
#171=DIRECTION('center_axis',(0.,0.,-1.));
#172=DIRECTION('ref_axis',(1.,0.,0.));
#173=DIRECTION('center_axis',(0.,0.,-1.));
#174=DIRECTION('ref_axis',(1.,0.,0.));
#175=DIRECTION('',(0.,0.,1.));
#176=DIRECTION('center_axis',(0.,0.,1.));
#177=DIRECTION('ref_axis',(1.,0.,0.));
#178=DIRECTION('center_axis',(0.,0.,1.));
#179=DIRECTION('ref_axis',(1.,0.,0.));
#180=DIRECTION('center_axis',(0.,0.,1.));
#181=DIRECTION('ref_axis',(1.,0.,0.));
#182=DIRECTION('center_axis',(0.,0.,1.));
#183=DIRECTION('ref_axis',(1.,0.,0.));
#184=DIRECTION('center_axis',(0.,0.,-1.));
#185=DIRECTION('ref_axis',(1.,0.,0.));
#186=DIRECTION('center_axis',(0.,0.,-1.));
#187=DIRECTION('ref_axis',(1.,0.,0.));
#188=DIRECTION('center_axis',(0.,0.,1.));
#189=DIRECTION('ref_axis',(1.,0.,0.));
#190=DIRECTION('',(0.,0.,1.));
#191=DIRECTION('center_axis',(0.,0.,-1.));
#192=DIRECTION('ref_axis',(1.,0.,0.));
#193=DIRECTION('center_axis',(0.,0.,-1.));
#194=DIRECTION('ref_axis',(1.,0.,0.));
#195=DIRECTION('center_axis',(0.,0.,-1.));
#196=DIRECTION('ref_axis',(1.,0.,0.));
#197=DIRECTION('center_axis',(0.,0.,-1.));
#198=DIRECTION('ref_axis',(1.,0.,0.));
#199=DIRECTION('center_axis',(0.,0.,-1.));
#200=DIRECTION('ref_axis',(1.,0.,0.));
#201=DIRECTION('',(0.,0.,1.));
#202=DIRECTION('center_axis',(0.,0.,1.));
#203=DIRECTION('ref_axis',(1.,0.,0.));
#204=DIRECTION('center_axis',(0.876195693910601,0.,-0.481955502066862));
#205=DIRECTION('ref_axis',(0.481955502066862,0.,0.876195693910601));
#206=DIRECTION('center_axis',(-0.876195693910601,0.,0.481955502066862));
#207=DIRECTION('ref_axis',(0.481955502066862,0.,0.876195693910601));
#208=DIRECTION('center_axis',(-0.876195693910601,0.,0.481955502066862));
#209=DIRECTION('ref_axis',(0.481955502066862,0.,0.876195693910601));
#210=CARTESIAN_POINT('',(0.,0.,0.));
#211=CARTESIAN_POINT('Origin',(0.,0.,0.));
#212=CARTESIAN_POINT('',(-3.25,-3.9801020972289E-16,-1.));
#213=CARTESIAN_POINT('Origin',(0.,0.,-1.));
#214=CARTESIAN_POINT('',(-3.25,-3.9801020972289E-16,0.));
#215=CARTESIAN_POINT('',(-3.25,3.9801020972289E-16,0.));
#216=CARTESIAN_POINT('Origin',(0.,0.,0.));
#217=CARTESIAN_POINT('Origin',(0.,0.,0.));
#218=CARTESIAN_POINT('',(-2.,-2.44929359829471E-16,0.));
#219=CARTESIAN_POINT('Origin',(0.,0.,0.));
#220=CARTESIAN_POINT('Origin',(0.,0.,-1.));
#221=CARTESIAN_POINT('',(-2.,-2.44929359829471E-16,-1.));
#222=CARTESIAN_POINT('Origin',(0.,0.,-1.));
#223=CARTESIAN_POINT('Origin',(0.,0.,0.));
#224=CARTESIAN_POINT('',(-1.5,-1.83697019872103E-16,-4.));
#225=CARTESIAN_POINT('Origin',(0.,0.,-4.));
#226=CARTESIAN_POINT('',(-1.5,-1.83697019872103E-16,0.));
#227=CARTESIAN_POINT('',(-1.5,1.83697019872103E-16,0.));
#228=CARTESIAN_POINT('',(9.18485099360515E-17,-1.5,0.));
#229=CARTESIAN_POINT('Origin',(0.,0.,0.));
#230=CARTESIAN_POINT('',(4.24915417323599E-16,1.5,0.));
#231=CARTESIAN_POINT('Origin',(0.,0.,0.));
#232=CARTESIAN_POINT('Origin',(0.,0.,0.));
#233=CARTESIAN_POINT('Origin',(0.,0.,0.));
#234=CARTESIAN_POINT('',(-2.,-2.44929359829471E-16,-4.));
#235=CARTESIAN_POINT('Origin',(0.,0.,-4.));
#236=CARTESIAN_POINT('',(-2.,2.44929359829471E-16,0.));
#237=CARTESIAN_POINT('Origin',(0.,0.,-4.));
#238=CARTESIAN_POINT('Ctrl Pts',(-1.5,1.83697019872103E-16,6.93889390390723E-17));
#239=CARTESIAN_POINT('Ctrl Pts',(-2.13084104808189,1.83697019872103E-16,
2.00463814412437));
#240=CARTESIAN_POINT('Ctrl Pts',(-3.36708727351262,1.83697019872103E-16,
5.5307883247926));
#241=CARTESIAN_POINT('Ctrl Pts',(-5.2037963918412,1.83697019872103E-16,
9.28394260689448));
#242=CARTESIAN_POINT('Ctrl Pts',(-6.62113958131807,1.83697019872103E-16,
10.7741500843569));
#243=CARTESIAN_POINT('Ctrl Pts',(-8.24875073677952,1.83697019872103E-16,
11.8081771097344));
#244=CARTESIAN_POINT('Ctrl Pts',(-9.87284478265,1.83697019872103E-16,12.5500395970437));
#245=CARTESIAN_POINT('Ctrl Pts',(-12.5560424193395,1.83697019872103E-16,
13.4447891977373));
#246=CARTESIAN_POINT('Ctrl Pts',(-16.3290999595326,1.83697019872103E-16,
14.5051398731177));
#247=CARTESIAN_POINT('Ctrl Pts',(-22.3626122853326,1.83697019872103E-16,
15.9465576353323));
#248=CARTESIAN_POINT('Ctrl Pts',(-28.4758854791699,1.83697019872103E-16,
17.2486056529872));
#249=CARTESIAN_POINT('Ctrl Pts',(-31.8388283716784,1.83697019872103E-16,
17.9352550630884));
#250=CARTESIAN_POINT('Ctrl Pts',(-1.5,0.448798950512828,6.93889390390723E-17));
#251=CARTESIAN_POINT('Ctrl Pts',(-2.13084104808189,0.448798950512828,2.00455914879974));
#252=CARTESIAN_POINT('Ctrl Pts',(-3.36724848633215,0.448798950512828,5.53119812230161));
#253=CARTESIAN_POINT('Ctrl Pts',(-5.20408829325106,0.448798950512828,9.28423543371303));
#254=CARTESIAN_POINT('Ctrl Pts',(-6.62160251838006,0.448798950512828,10.7744984939559));
#255=CARTESIAN_POINT('Ctrl Pts',(-8.24856951066009,0.448798950512828,11.807685792796));
#256=CARTESIAN_POINT('Ctrl Pts',(-9.87270741310405,0.448798950512828,12.549755505219));
#257=CARTESIAN_POINT('Ctrl Pts',(-12.5558675749146,0.448798950512828,13.4445472157126));
#258=CARTESIAN_POINT('Ctrl Pts',(-16.328848671288,0.448798950512828,14.5048831790503));
#259=CARTESIAN_POINT('Ctrl Pts',(-22.3624648754549,0.448798950512828,15.9464226981294));
#260=CARTESIAN_POINT('Ctrl Pts',(-28.4759044158225,0.448798950512828,17.2486160691808));
#261=CARTESIAN_POINT('Ctrl Pts',(-31.8388283716784,0.448798950512828,17.9352550630884));
#262=CARTESIAN_POINT('Ctrl Pts',(-1.07053561975101,1.34330839405355,2.82679885393839E-17));
#263=CARTESIAN_POINT('Ctrl Pts',(-1.7013766678329,1.34330839405355,2.01297269378199));
#264=CARTESIAN_POINT('Ctrl Pts',(-2.93944671388687,1.34330839405355,5.55958406972417));
#265=CARTESIAN_POINT('Ctrl Pts',(-4.77734201197214,1.34330839405355,9.36937307246722));
#266=CARTESIAN_POINT('Ctrl Pts',(-6.2381729826466,1.34330839405355,10.9810378080647));
#267=CARTESIAN_POINT('Ctrl Pts',(-7.93582002394243,1.34330839405355,12.1062101223124));
#268=CARTESIAN_POINT('Ctrl Pts',(-9.60280725730999,1.34330839405355,12.8848206075175));
#269=CARTESIAN_POINT('Ctrl Pts',(-12.3133170544173,1.34330839405355,13.7993689261811));
#270=CARTESIAN_POINT('Ctrl Pts',(-16.1053599521466,1.34330839405355,14.8718900484202));
#271=CARTESIAN_POINT('Ctrl Pts',(-22.1489492171393,1.34330839405355,16.3191203481805));
#272=CARTESIAN_POINT('Ctrl Pts',(-28.2669048111714,1.34330839405355,17.6238015136451));
#273=CARTESIAN_POINT('Ctrl Pts',(-31.6318456506757,1.34330839405355,18.3115499037506));
#274=CARTESIAN_POINT('Ctrl Pts',(0.381407815916651,1.6727798606053,-7.78078717778929E-18));
#275=CARTESIAN_POINT('Ctrl Pts',(-0.249433232165242,1.6727798606053,2.04104957273186));
#276=CARTESIAN_POINT('Ctrl Pts',(-1.49387493596832,1.6727798606053,5.65746014555275));
#277=CARTESIAN_POINT('Ctrl Pts',(-3.33594720393555,1.6727798606053,9.65857195810044));
#278=CARTESIAN_POINT('Ctrl Pts',(-4.94402087543014,1.6727798606053,11.6809331941616));
#279=CARTESIAN_POINT('Ctrl Pts',(-6.87762522460449,1.6727798606053,13.1131805317156));
#280=CARTESIAN_POINT('Ctrl Pts',(-8.68968271387769,1.6727798606053,14.0162938602621));
#281=CARTESIAN_POINT('Ctrl Pts',(-11.4924823127794,1.6727798606053,14.9978318724135));
#282=CARTESIAN_POINT('Ctrl Pts',(-15.3486138498312,1.6727798606053,16.1114803655859));
#283=CARTESIAN_POINT('Ctrl Pts',(-21.4264039777412,1.6727798606053,17.5785171429367));
#284=CARTESIAN_POINT('Ctrl Pts',(-27.5604021321319,1.6727798606053,18.892285928718));
#285=CARTESIAN_POINT('Ctrl Pts',(-30.9320735231658,1.6727798606053,19.5837364898843));
#286=CARTESIAN_POINT('Ctrl Pts',(1.54898143534172,0.745528760918541,-6.07300699569241E-17));
#287=CARTESIAN_POINT('Ctrl Pts',(0.918140387259826,0.745528760918541,2.06361573666245));
#288=CARTESIAN_POINT('Ctrl Pts',(-0.331448991806345,0.745528760918542,5.73622758531529));
#289=CARTESIAN_POINT('Ctrl Pts',(-2.17689955482451,0.745528760918541,9.89117338603497));
#290=CARTESIAN_POINT('Ctrl Pts',(-3.90340315980851,0.745528760918542,12.2438025720255));
#291=CARTESIAN_POINT('Ctrl Pts',(-6.02665584812187,0.745528760918541,13.9228581954278));
#292=CARTESIAN_POINT('Ctrl Pts',(-7.95537742641852,0.745528760918542,14.9261206791448));
#293=CARTESIAN_POINT('Ctrl Pts',(-10.8323858798397,0.745528760918541,15.9615343966996));
#294=CARTESIAN_POINT('Ctrl Pts',(-14.7400426507234,0.745528760918541,17.1082530912156));
#295=CARTESIAN_POINT('Ctrl Pts',(-20.8453506681938,0.745528760918542,18.5912352340419));
#296=CARTESIAN_POINT('Ctrl Pts',(-26.9922740718195,0.745528760918541,19.9123333691362));
#297=CARTESIAN_POINT('Ctrl Pts',(-30.3693549932158,0.745528760918541,20.6067594675482));
#298=CARTESIAN_POINT('Ctrl Pts',(1.54539099175163,-0.744041305393062,-3.39314667144049E-17));
#299=CARTESIAN_POINT('Ctrl Pts',(0.914549943669741,-0.744041305393062,2.06360691452483));
#300=CARTESIAN_POINT('Ctrl Pts',(-0.334899991313252,-0.744041305393062,
5.73567114165177));
#301=CARTESIAN_POINT('Ctrl Pts',(-2.18023995660707,-0.744041305393062,9.89023357292174));
#302=CARTESIAN_POINT('Ctrl Pts',(-3.9062482276301,-0.744041305393062,12.2418045216002));
#303=CARTESIAN_POINT('Ctrl Pts',(-6.02941165175285,-0.744041305393062,13.9207450599063));
#304=CARTESIAN_POINT('Ctrl Pts',(-7.95774084430046,-0.744041305393062,14.9235406762272));
#305=CARTESIAN_POINT('Ctrl Pts',(-10.8345498305402,-0.744041305393062,15.9587564300185));
#306=CARTESIAN_POINT('Ctrl Pts',(-14.7421067698736,-0.744041305393062,17.1053847101409));
#307=CARTESIAN_POINT('Ctrl Pts',(-20.8472505146335,-0.744041305393062,18.588224458479));
#308=CARTESIAN_POINT('Ctrl Pts',(-26.9940066206935,-0.744041305393062,19.9091886011959));
#309=CARTESIAN_POINT('Ctrl Pts',(-30.3710854272589,-0.744041305393062,20.6036135363354));
#310=CARTESIAN_POINT('Ctrl Pts',(0.382928764341714,-1.67653168813714,-6.03376191589205E-18));
#311=CARTESIAN_POINT('Ctrl Pts',(-0.247912283740178,-1.67653168813714,2.04104569165188));
#312=CARTESIAN_POINT('Ctrl Pts',(-1.49242860467244,-1.67653168813714,5.65773538119544));
#313=CARTESIAN_POINT('Ctrl Pts',(-3.33456032643282,-1.67653168813714,9.65899831240937));
#314=CARTESIAN_POINT('Ctrl Pts',(-4.94286032093257,-1.67653168813714,11.6818131889055));
#315=CARTESIAN_POINT('Ctrl Pts',(-6.87644036089658,-1.67653168813714,13.1140282953201));
#316=CARTESIAN_POINT('Ctrl Pts',(-8.68866829824672,-1.67653168813714,14.0173593782194));
#317=CARTESIAN_POINT('Ctrl Pts',(-11.4915487794369,-1.67653168813714,14.9989853108602));
#318=CARTESIAN_POINT('Ctrl Pts',(-15.3477152339861,-1.67653168813714,16.1126706856752));
#319=CARTESIAN_POINT('Ctrl Pts',(-21.4255849674092,-1.67653168813714,17.5797795248853));
#320=CARTESIAN_POINT('Ctrl Pts',(-27.5596700330373,-1.67653168813714,18.8936190889316));
#321=CARTESIAN_POINT('Ctrl Pts',(-30.931340493704,-1.67653168813714,19.585069138345));
#322=CARTESIAN_POINT('Ctrl Pts',(-1.07066644547994,-1.34052156558407,3.23386693034854E-17));
#323=CARTESIAN_POINT('Ctrl Pts',(-1.70150749356183,-1.34052156558407,2.01298776224271));
#324=CARTESIAN_POINT('Ctrl Pts',(-2.93954105108856,-1.34052156558407,5.55948395748499));
#325=CARTESIAN_POINT('Ctrl Pts',(-4.77740685847524,-1.34052156558407,9.3692817796143));
#326=CARTESIAN_POINT('Ctrl Pts',(-6.23818645930012,-1.34052156558407,10.9808971273326));
#327=CARTESIAN_POINT('Ctrl Pts',(-7.93595574430136,-1.34052156558407,12.10622884421));
#328=CARTESIAN_POINT('Ctrl Pts',(-9.602920136066,-1.34052156558407,12.8847819463558));
#329=CARTESIAN_POINT('Ctrl Pts',(-12.3134299660243,-1.34052156558407,13.7993148479176));
#330=CARTESIAN_POINT('Ctrl Pts',(-16.105484119,-1.34052156558407,14.8718355419176));
#331=CARTESIAN_POINT('Ctrl Pts',(-22.1490471607109,-1.34052156558407,16.3190369324781));
#332=CARTESIAN_POINT('Ctrl Pts',(-28.2669642511602,-1.34052156558407,17.6236848978024));
#333=CARTESIAN_POINT('Ctrl Pts',(-31.6319087028556,-1.34052156558407,18.3114352748102));
#334=CARTESIAN_POINT('Ctrl Pts',(-1.5,-0.448798950512828,6.93889390390723E-17));
#335=CARTESIAN_POINT('Ctrl Pts',(-2.13084104808189,-0.448798950512828,2.00454884844116));
#336=CARTESIAN_POINT('Ctrl Pts',(-3.36726950719456,-0.448798950512828,5.53125155661952));
#337=CARTESIAN_POINT('Ctrl Pts',(-5.20412635486049,-0.448798950512828,9.28427361598836));
#338=CARTESIAN_POINT('Ctrl Pts',(-6.6216628816707,-0.448798950512828,10.7745439237812));
#339=CARTESIAN_POINT('Ctrl Pts',(-8.24854588022343,-0.448798950512828,11.8076217289964));
#340=CARTESIAN_POINT('Ctrl Pts',(-9.87268950121384,-0.448798950512828,12.549718461917));
#341=CARTESIAN_POINT('Ctrl Pts',(-12.5558447765999,-0.448798950512828,13.4445156631917));
#342=CARTESIAN_POINT('Ctrl Pts',(-16.3288159053105,-0.448798950512828,14.5048497081968));
#343=CARTESIAN_POINT('Ctrl Pts',(-22.3624456543857,-0.448798950512828,15.9464051033973));
#344=CARTESIAN_POINT('Ctrl Pts',(-28.4759068850105,-0.448798950512828,17.2486174273691));
#345=CARTESIAN_POINT('Ctrl Pts',(-31.8388283716784,-0.448798950512828,17.9352550630884));
#346=CARTESIAN_POINT('Ctrl Pts',(-1.5,-1.83697019872103E-16,6.93889390390723E-17));
#347=CARTESIAN_POINT('Ctrl Pts',(-2.13084104808189,-1.83697019872103E-16,
2.00463814412437));
#348=CARTESIAN_POINT('Ctrl Pts',(-3.36708727351262,-1.83697019872103E-16,
5.5307883247926));
#349=CARTESIAN_POINT('Ctrl Pts',(-5.2037963918412,-1.83697019872103E-16,
9.28394260689448));
#350=CARTESIAN_POINT('Ctrl Pts',(-6.62113958131807,-1.83697019872103E-16,
10.7741500843569));
#351=CARTESIAN_POINT('Ctrl Pts',(-8.24875073677952,-1.83697019872103E-16,
11.8081771097344));
#352=CARTESIAN_POINT('Ctrl Pts',(-9.87284478265,-1.83697019872103E-16,12.5500395970437));
#353=CARTESIAN_POINT('Ctrl Pts',(-12.5560424193395,-1.83697019872103E-16,
13.4447891977373));
#354=CARTESIAN_POINT('Ctrl Pts',(-16.3290999595326,-1.83697019872103E-16,
14.5051398731177));
#355=CARTESIAN_POINT('Ctrl Pts',(-22.3626122853326,-1.83697019872103E-16,
15.9465576353323));
#356=CARTESIAN_POINT('Ctrl Pts',(-28.4758854791699,-1.83697019872103E-16,
17.2486056529872));
#357=CARTESIAN_POINT('Ctrl Pts',(-31.8388283716784,-1.83697019872103E-16,
17.9352550630884));
#358=CARTESIAN_POINT('',(-31.8388283716784,-1.83697019872103E-16,17.9352550630884));
#359=CARTESIAN_POINT('Ctrl Pts',(-1.5,-1.83697019872103E-16,6.93889390390723E-17));
#360=CARTESIAN_POINT('Ctrl Pts',(-2.13084104808189,-1.83697019872103E-16,
2.00463814412437));
#361=CARTESIAN_POINT('Ctrl Pts',(-3.36708727351262,-1.83697019872103E-16,
5.5307883247926));
#362=CARTESIAN_POINT('Ctrl Pts',(-5.2037963918412,-1.83697019872103E-16,
9.28394260689448));
#363=CARTESIAN_POINT('Ctrl Pts',(-6.62113958131807,-1.83697019872103E-16,
10.7741500843569));
#364=CARTESIAN_POINT('Ctrl Pts',(-8.24875073677952,-1.83697019872103E-16,
11.8081771097344));
#365=CARTESIAN_POINT('Ctrl Pts',(-9.87284478265,-1.83697019872103E-16,12.5500395970437));
#366=CARTESIAN_POINT('Ctrl Pts',(-12.5560424193395,-1.83697019872103E-16,
13.4447891977373));
#367=CARTESIAN_POINT('Ctrl Pts',(-16.3290999595326,-1.83697019872103E-16,
14.5051398731177));
#368=CARTESIAN_POINT('Ctrl Pts',(-22.3626122853326,-1.83697019872103E-16,
15.9465576353323));
#369=CARTESIAN_POINT('Ctrl Pts',(-28.4758854791699,-1.83697019872103E-16,
17.2486056529872));
#370=CARTESIAN_POINT('Ctrl Pts',(-31.8388283716784,-1.83697019872103E-16,
17.9352550630884));
#371=CARTESIAN_POINT('Origin',(-31.1158951185781,0.,19.2495486039543));
#372=CARTESIAN_POINT('Ctrl Pts',(-2.,-2.44929359829471E-16,1.38777878078145E-16));
#373=CARTESIAN_POINT('Ctrl Pts',(-2.63084104808189,-2.44929359829471E-16,
1.99496182166522));
#374=CARTESIAN_POINT('Ctrl Pts',(-3.87167154785009,-2.44929359829471E-16,
5.50456501273524));
#375=CARTESIAN_POINT('Ctrl Pts',(-5.38223346169271,-2.44929359829471E-16,
8.55643812336655));
#376=CARTESIAN_POINT('Ctrl Pts',(-6.62451700931665,-2.44929359829471E-16,
10.0984987994364));
#377=CARTESIAN_POINT('Ctrl Pts',(-7.61200730448962,-2.44929359829471E-16,
10.8914323941718));
#378=CARTESIAN_POINT('Ctrl Pts',(-8.84731900559858,-2.44929359829471E-16,
11.5740125975594));
#379=CARTESIAN_POINT('Ctrl Pts',(-10.5704870694764,-2.44929359829471E-16,
12.2872478643655));
#380=CARTESIAN_POINT('Ctrl Pts',(-12.8383235950331,-2.44929359829471E-16,
13.03194929438));
#381=CARTESIAN_POINT('Ctrl Pts',(-16.5911850659713,-2.44929359829471E-16,
14.0790537310273));
#382=CARTESIAN_POINT('Ctrl Pts',(-22.6109849064025,-2.44929359829471E-16,
15.5126577697854));
#383=CARTESIAN_POINT('Ctrl Pts',(-28.7191828251641,-2.44929359829471E-16,
16.8117837099901));
#384=CARTESIAN_POINT('Ctrl Pts',(-32.0798061227119,-2.44929359829471E-16,
17.4971572161331));
#385=CARTESIAN_POINT('Ctrl Pts',(-2.,-0.598398600683771,1.38777878078145E-16));
#386=CARTESIAN_POINT('Ctrl Pts',(-2.63084104808189,-0.598398600683771,1.99486975271777));
#387=CARTESIAN_POINT('Ctrl Pts',(-3.87185099433182,-0.598398600683771,5.50507234120455));
#388=CARTESIAN_POINT('Ctrl Pts',(-5.38263535448461,-0.598398600683771,8.55701791197062));
#389=CARTESIAN_POINT('Ctrl Pts',(-6.62493067793145,-0.598398600683771,10.0988685876204));
#390=CARTESIAN_POINT('Ctrl Pts',(-7.61217810973604,-0.598398600683771,10.8912457191885));
#391=CARTESIAN_POINT('Ctrl Pts',(-8.84715779769309,-0.598398600683771,11.5735543469935));
#392=CARTESIAN_POINT('Ctrl Pts',(-10.5702102225051,-0.598398600683771,12.2867686785304));
#393=CARTESIAN_POINT('Ctrl Pts',(-12.8380809431041,-0.598398600683771,13.0316243905068));
#394=CARTESIAN_POINT('Ctrl Pts',(-16.5908560268819,-0.598398600683771,14.0787031977013));
#395=CARTESIAN_POINT('Ctrl Pts',(-22.610808967195,-0.598398600683771,15.5124974816491));
#396=CARTESIAN_POINT('Ctrl Pts',(-28.719204895808,-0.598398600683771,16.81179585005));
#397=CARTESIAN_POINT('Ctrl Pts',(-32.0798061227119,-0.598398600683771,17.4971572161331));
#398=CARTESIAN_POINT('Ctrl Pts',(-1.42866716442042,-1.78921548340447,5.2245759188688E-17));
#399=CARTESIAN_POINT('Ctrl Pts',(-2.05950821250231,-1.78921548340447,2.00606512641696));
#400=CARTESIAN_POINT('Ctrl Pts',(-3.30101868474974,-1.78921548340447,5.54096337611507));
#401=CARTESIAN_POINT('Ctrl Pts',(-4.81733100525465,-1.78921548340447,8.66045526077589));
#402=CARTESIAN_POINT('Ctrl Pts',(-6.09239752688315,-1.78921548340447,10.3162101331842));
#403=CARTESIAN_POINT('Ctrl Pts',(-7.13665369637917,-1.78921548340447,11.2163785500811));
#404=CARTESIAN_POINT('Ctrl Pts',(-8.44208167466432,-1.78921548340447,11.9799041024277));
#405=CARTESIAN_POINT('Ctrl Pts',(-10.2159117497621,-1.78921548340447,12.7361522640023));
#406=CARTESIAN_POINT('Ctrl Pts',(-12.5155207221109,-1.78921548340447,13.5037420621046));
#407=CARTESIAN_POINT('Ctrl Pts',(-16.2933952424022,-1.78921548340447,14.5669056239024));
#408=CARTESIAN_POINT('Ctrl Pts',(-22.3268322486905,-1.78921548340447,16.0083494319455));
#409=CARTESIAN_POINT('Ctrl Pts',(-28.4411641523149,-1.78921548340447,17.3109190168193));
#410=CARTESIAN_POINT('Ctrl Pts',(-31.8044491190928,-1.78921548340447,17.9977565864577));
#411=CARTESIAN_POINT('Ctrl Pts',(0.510247522636168,-2.23165395642169,-2.93161483249204E-17));
#412=CARTESIAN_POINT('Ctrl Pts',(-0.120593525445724,-2.23165395642169,2.0435153141406));
#413=CARTESIAN_POINT('Ctrl Pts',(-1.36486135392341,-2.23165395642169,5.66575892280735));
#414=CARTESIAN_POINT('Ctrl Pts',(-2.90124617967175,-2.23165395642169,9.01490817295592));
#415=CARTESIAN_POINT('Ctrl Pts',(-4.28759678701644,-2.23165395642169,11.0559772124691));
#416=CARTESIAN_POINT('Ctrl Pts',(-5.52388886076337,-2.23165395642169,12.3186704621686));
#417=CARTESIAN_POINT('Ctrl Pts',(-7.06643615522406,-2.23165395642169,13.3562170961318));
#418=CARTESIAN_POINT('Ctrl Pts',(-9.0119065097351,-2.23165395642169,14.2583843259212));
#419=CARTESIAN_POINT('Ctrl Pts',(-11.4194263629176,-2.23165395642169,15.1040363590357));
#420=CARTESIAN_POINT('Ctrl Pts',(-15.2819703842502,-2.23165395642169,16.2216350441483));
#421=CARTESIAN_POINT('Ctrl Pts',(-21.3620711421313,-2.23165395642169,17.6901612560925));
#422=CARTESIAN_POINT('Ctrl Pts',(-27.497716042391,-2.23165395642169,19.0048495963453));
#423=CARTESIAN_POINT('Ctrl Pts',(-30.8699785176276,-2.23165395642169,19.6966252861167));
#424=CARTESIAN_POINT('Ctrl Pts',(2.0624953861929,-0.993385155794162,-9.22923761053679E-17));
#425=CARTESIAN_POINT('Ctrl Pts',(1.43165433811101,-0.993385155794162,2.07359012924409));
#426=CARTESIAN_POINT('Ctrl Pts',(0.185360507403836,-0.993385155794163,5.76515414796381));
#427=CARTESIAN_POINT('Ctrl Pts',(-1.36686892233821,-0.993385155794163,9.29808821289489));
#428=CARTESIAN_POINT('Ctrl Pts',(-2.84229894904627,-0.993385155794163,11.6478427562274));
#429=CARTESIAN_POINT('Ctrl Pts',(-4.23257589144777,-0.993385155794163,13.2013272934924));
#430=CARTESIAN_POINT('Ctrl Pts',(-5.96529089092327,-0.993385155794163,14.4585231678111));
#431=CARTESIAN_POINT('Ctrl Pts',(-8.04828921477535,-0.993385155794163,15.4775308201474));
#432=CARTESIAN_POINT('Ctrl Pts',(-10.5421653096408,-0.993385155794163,16.3855215551888));
#433=CARTESIAN_POINT('Ctrl Pts',(-14.4725810321277,-0.993385155794163,17.5467255923662));
#434=CARTESIAN_POINT('Ctrl Pts',(-20.5898848264343,-0.993385155794163,19.0367409266314));
#435=CARTESIAN_POINT('Ctrl Pts',(-26.7423921498903,-0.993385155794162,20.360956874641));
#436=CARTESIAN_POINT('Ctrl Pts',(-30.1218641192149,-0.993385155794162,21.056698180047));
#437=CARTESIAN_POINT('Ctrl Pts',(2.06279881893203,0.993167480665449,-9.41934711733918E-17));
#438=CARTESIAN_POINT('Ctrl Pts',(1.43195777085014,0.993167480665449,2.0735917419118));
#439=CARTESIAN_POINT('Ctrl Pts',(0.185655228806138,0.993167480665449,5.76519708657917));
#440=CARTESIAN_POINT('Ctrl Pts',(-1.36658760607793,0.993167480665449,9.29817043538574));
#441=CARTESIAN_POINT('Ctrl Pts',(-2.84203559166714,0.993167480665449,11.6479755893058));
#442=CARTESIAN_POINT('Ctrl Pts',(-4.23233138102084,0.993167480665449,13.2014911846137));
#443=CARTESIAN_POINT('Ctrl Pts',(-5.9650681693795,0.993167480665449,14.4587174114443));
#444=CARTESIAN_POINT('Ctrl Pts',(-8.0480880185895,0.993167480665449,15.4777469335851));
#445=CARTESIAN_POINT('Ctrl Pts',(-10.5419825788853,0.993167480665449,16.3857570037757));
#446=CARTESIAN_POINT('Ctrl Pts',(-14.4724075658447,0.993167480665449,17.546968377276));
#447=CARTESIAN_POINT('Ctrl Pts',(-20.5897257270155,0.993167480665448,19.0369967279171));
#448=CARTESIAN_POINT('Ctrl Pts',(-26.7422455222256,0.993167480665449,20.3612225284567));
#449=CARTESIAN_POINT('Ctrl Pts',(-30.1217178781368,0.993167480665449,21.0569640465065));
#450=CARTESIAN_POINT('Ctrl Pts',(0.509712376552941,2.23269027393891,-2.57861129145199E-17));
#451=CARTESIAN_POINT('Ctrl Pts',(-0.121128671528953,2.23269027393891,2.0435124282356));
#452=CARTESIAN_POINT('Ctrl Pts',(-1.36538121769841,2.23269027393891,5.66568342455217));
#453=CARTESIAN_POINT('Ctrl Pts',(-2.90174250245063,2.23269027393891,9.01476342494097));
#454=CARTESIAN_POINT('Ctrl Pts',(-4.28806144213473,2.23269027393891,11.0557431103983));
#455=CARTESIAN_POINT('Ctrl Pts',(-5.52432016654167,2.23269027393891,12.3183813326192));
#456=CARTESIAN_POINT('Ctrl Pts',(-7.06682888273907,2.23269027393891,13.3558743125615));
#457=CARTESIAN_POINT('Ctrl Pts',(-9.01226122184467,2.23269027393891,14.2580029624001));
#458=CARTESIAN_POINT('Ctrl Pts',(-11.4197485241601,2.23269027393891,15.1036209652187));
#459=CARTESIAN_POINT('Ctrl Pts',(-15.2822761671354,2.23269027393891,16.2212067000803));
#460=CARTESIAN_POINT('Ctrl Pts',(-21.3623516564501,2.23269027393891,17.6897100420734));
#461=CARTESIAN_POINT('Ctrl Pts',(-27.4979746507954,2.23269027393891,19.0043810841823));
#462=CARTESIAN_POINT('Ctrl Pts',(-30.8702364342268,2.23269027393891,19.6961563934229));
#463=CARTESIAN_POINT('Ctrl Pts',(-1.4279208326704,1.78867732162089,4.93723777267571E-17));
#464=CARTESIAN_POINT('Ctrl Pts',(-2.05876188075229,1.78867732162089,2.00607494548641));
#465=CARTESIAN_POINT('Ctrl Pts',(-3.30028237285459,1.78867732162089,5.54103674002236));
#466=CARTESIAN_POINT('Ctrl Pts',(-4.81661352487922,1.78867732162089,8.66062064237322));
#467=CARTESIAN_POINT('Ctrl Pts',(-6.09172347013133,1.78867732162089,10.316513347019));
#468=CARTESIAN_POINT('Ctrl Pts',(-7.13604143411322,1.78867732162089,11.2167935276065));
#469=CARTESIAN_POINT('Ctrl Pts',(-8.44154410988599,1.78867732162089,11.980410998976));
#470=CARTESIAN_POINT('Ctrl Pts',(-10.2154344801408,1.78867732162089,12.7367142829235));
#471=CARTESIAN_POINT('Ctrl Pts',(-12.5150866969232,1.78867732162089,13.504341831132));
#472=CARTESIAN_POINT('Ctrl Pts',(-16.2929894957079,1.78867732162089,14.5675250667334));
#473=CARTESIAN_POINT('Ctrl Pts',(-22.3264521071091,1.78867732162089,16.0089887969905));
#474=CARTESIAN_POINT('Ctrl Pts',(-28.4408020998076,1.78867732162089,17.3115716547586));
#475=CARTESIAN_POINT('Ctrl Pts',(-31.8040894203995,1.78867732162089,17.9984105191233));
#476=CARTESIAN_POINT('Ctrl Pts',(-2.,0.598398600683771,1.38777878078145E-16));
#477=CARTESIAN_POINT('Ctrl Pts',(-2.63084104808189,0.598398600683771,1.99486474618636));
#478=CARTESIAN_POINT('Ctrl Pts',(-3.87186075228465,0.598398600683771,5.50509992874609));
#479=CARTESIAN_POINT('Ctrl Pts',(-5.3826572086378,0.598398600683771,8.55704943975422));
#480=CARTESIAN_POINT('Ctrl Pts',(-6.62495317243114,0.598398600683771,10.098888695987));
#481=CARTESIAN_POINT('Ctrl Pts',(-7.61218739779519,0.598398600683771,10.8912355681637));
#482=CARTESIAN_POINT('Ctrl Pts',(-8.84714903151879,0.598398600683771,11.5735294282135));
#483=CARTESIAN_POINT('Ctrl Pts',(-10.5701951681019,0.598398600683771,12.2867426213309));
#484=CARTESIAN_POINT('Ctrl Pts',(-12.8380677481612,0.598398600683771,13.0316067228621));
#485=CARTESIAN_POINT('Ctrl Pts',(-16.5908381343722,0.598398600683771,14.0786841363766));
#486=CARTESIAN_POINT('Ctrl Pts',(-22.610799399961,0.598398600683771,15.5124887654901));
#487=CARTESIAN_POINT('Ctrl Pts',(-28.7192060959669,0.598398600683771,16.811796510203));
#488=CARTESIAN_POINT('Ctrl Pts',(-32.0798061227119,0.598398600683771,17.4971572161331));
#489=CARTESIAN_POINT('Ctrl Pts',(-2.,2.44929359829471E-16,1.38777878078145E-16));
#490=CARTESIAN_POINT('Ctrl Pts',(-2.63084104808189,2.44929359829471E-16,
1.99496182166522));
#491=CARTESIAN_POINT('Ctrl Pts',(-3.87167154785009,2.44929359829471E-16,
5.50456501273524));
#492=CARTESIAN_POINT('Ctrl Pts',(-5.38223346169271,2.44929359829471E-16,
8.55643812336655));
#493=CARTESIAN_POINT('Ctrl Pts',(-6.62451700931665,2.44929359829471E-16,
10.0984987994364));
#494=CARTESIAN_POINT('Ctrl Pts',(-7.61200730448962,2.44929359829471E-16,
10.8914323941718));
#495=CARTESIAN_POINT('Ctrl Pts',(-8.84731900559858,2.44929359829471E-16,
11.5740125975594));
#496=CARTESIAN_POINT('Ctrl Pts',(-10.5704870694764,2.44929359829471E-16,
12.2872478643655));
#497=CARTESIAN_POINT('Ctrl Pts',(-12.8383235950331,2.44929359829471E-16,
13.03194929438));
#498=CARTESIAN_POINT('Ctrl Pts',(-16.5911850659713,2.44929359829471E-16,
14.0790537310273));
#499=CARTESIAN_POINT('Ctrl Pts',(-22.6109849064025,2.44929359829471E-16,
15.5126577697854));
#500=CARTESIAN_POINT('Ctrl Pts',(-28.7191828251641,2.44929359829471E-16,
16.8117837099901));
#501=CARTESIAN_POINT('Ctrl Pts',(-32.0798061227119,2.44929359829471E-16,
17.4971572161331));
#502=CARTESIAN_POINT('',(-32.0798061227119,-2.44929359829471E-16,17.4971572161331));
#503=CARTESIAN_POINT('Ctrl Pts',(-2.,2.44929359829471E-16,1.38777878078145E-16));
#504=CARTESIAN_POINT('Ctrl Pts',(-2.63084104808189,2.44929359829471E-16,
1.99496182166522));
#505=CARTESIAN_POINT('Ctrl Pts',(-3.87167154785009,2.44929359829471E-16,
5.50456501273524));
#506=CARTESIAN_POINT('Ctrl Pts',(-5.38223346169271,2.44929359829471E-16,
8.55643812336655));
#507=CARTESIAN_POINT('Ctrl Pts',(-6.62451700931665,2.44929359829471E-16,
10.0984987994364));
#508=CARTESIAN_POINT('Ctrl Pts',(-7.61200730448962,2.44929359829471E-16,
10.8914323941718));
#509=CARTESIAN_POINT('Ctrl Pts',(-8.84731900559858,2.44929359829471E-16,
11.5740125975594));
#510=CARTESIAN_POINT('Ctrl Pts',(-10.5704870694764,2.44929359829471E-16,
12.2872478643655));
#511=CARTESIAN_POINT('Ctrl Pts',(-12.8383235950331,2.44929359829471E-16,
13.03194929438));
#512=CARTESIAN_POINT('Ctrl Pts',(-16.5911850659713,2.44929359829471E-16,
14.0790537310273));
#513=CARTESIAN_POINT('Ctrl Pts',(-22.6109849064025,2.44929359829471E-16,
15.5126577697854));
#514=CARTESIAN_POINT('Ctrl Pts',(-28.7191828251641,2.44929359829471E-16,
16.8117837099901));
#515=CARTESIAN_POINT('Ctrl Pts',(-32.0798061227119,2.44929359829471E-16,
17.4971572161331));
#516=CARTESIAN_POINT('Origin',(-31.1158951185781,0.,19.2495486039543));
#517=CARTESIAN_POINT('Origin',(-31.1158951185781,0.,19.2495486039543));
#518=UNCERTAINTY_MEASURE_WITH_UNIT(LENGTH_MEASURE(0.01),#522,
'DISTANCE_ACCURACY_VALUE',
'Maximum model space distance between geometric entities at asserted c
onnectivities');
#519=UNCERTAINTY_MEASURE_WITH_UNIT(LENGTH_MEASURE(0.01),#522,
'DISTANCE_ACCURACY_VALUE',
'Maximum model space distance between geometric entities at asserted c
onnectivities');
#520=(
GEOMETRIC_REPRESENTATION_CONTEXT(3)
GLOBAL_UNCERTAINTY_ASSIGNED_CONTEXT((#518))
GLOBAL_UNIT_ASSIGNED_CONTEXT((#522,#524,#525))
REPRESENTATION_CONTEXT('','3D')
);
#521=(
GEOMETRIC_REPRESENTATION_CONTEXT(3)
GLOBAL_UNCERTAINTY_ASSIGNED_CONTEXT((#519))
GLOBAL_UNIT_ASSIGNED_CONTEXT((#522,#524,#525))
REPRESENTATION_CONTEXT('','3D')
);
#522=(
LENGTH_UNIT()
NAMED_UNIT(*)
SI_UNIT(.MILLI.,.METRE.)
);
#523=(
LENGTH_UNIT()
NAMED_UNIT(*)
SI_UNIT($,.METRE.)
);
#524=(
NAMED_UNIT(*)
PLANE_ANGLE_UNIT()
SI_UNIT($,.RADIAN.)
);
#525=(
NAMED_UNIT(*)
SI_UNIT($,.STERADIAN.)
SOLID_ANGLE_UNIT()
);
#526=SHAPE_DEFINITION_REPRESENTATION(#527,#528);
#527=PRODUCT_DEFINITION_SHAPE('',$,#530);
#528=SHAPE_REPRESENTATION('',(#150),#520);
#529=PRODUCT_DEFINITION_CONTEXT('part definition',#534,'design');
#530=PRODUCT_DEFINITION('RoverAntennaStructure','RoverAntennaStructure',
#531,#529);
#531=PRODUCT_DEFINITION_FORMATION('',$,#536);
#532=PRODUCT_RELATED_PRODUCT_CATEGORY('RoverAntennaStructure',
'RoverAntennaStructure',(#536));
#533=APPLICATION_PROTOCOL_DEFINITION('international standard',
'automotive_design',2009,#534);
#534=APPLICATION_CONTEXT(
'Core Data for Automotive Mechanical Design Process');
#535=PRODUCT_CONTEXT('part definition',#534,'mechanical');
#536=PRODUCT('RoverAntennaStructure','RoverAntennaStructure',$,(#535));
#537=PRESENTATION_STYLE_ASSIGNMENT((#538));
#538=SURFACE_STYLE_USAGE(.BOTH.,#539);
#539=SURFACE_SIDE_STYLE('',(#540));
#540=SURFACE_STYLE_FILL_AREA(#541);
#541=FILL_AREA_STYLE('Steel - Satin',(#542));
#542=FILL_AREA_STYLE_COLOUR('Steel - Satin',#543);
#543=COLOUR_RGB('Steel - Satin',0.627450980392157,0.627450980392157,0.627450980392157);
ENDSEC;
END-ISO-10303-21;
