ISO-10303-21;
HEADER;
/* Generated by software containing ST-Developer
 * from STEP Tools, Inc. (www.steptools.com) 
 */

FILE_DESCRIPTION(
/* description */ (''),
/* implementation_level */ '2;1');

FILE_NAME(
/* name */ 'counterweight-clamp.step',
/* time_stamp */ '2026-07-29T22:58:22-04:00',
/* author */ (''),
/* organization */ (''),
/* preprocessor_version */ 'ST-DEVELOPER v20.1',
/* originating_system */ 'Autodesk Translation Framework v15.8.0.0',
/* authorisation */ '');

FILE_SCHEMA (('AUTOMOTIVE_DESIGN { 1 0 10303 214 3 1 1 }'));
ENDSEC;

DATA;
#10=MECHANICAL_DESIGN_GEOMETRIC_PRESENTATION_REPRESENTATION('',(#13),#605);
#11=SHAPE_REPRESENTATION_RELATIONSHIP('SRR','None',#612,#12);
#12=ADVANCED_BREP_SHAPE_REPRESENTATION('',(#14),#604);
#13=STYLED_ITEM('',(#621),#14);
#14=MANIFOLD_SOLID_BREP('Body1',#365);
#15=CYLINDRICAL_SURFACE('',#387,1.75);
#16=CYLINDRICAL_SURFACE('',#389,1.75);
#17=CYLINDRICAL_SURFACE('',#392,12.);
#18=CYLINDRICAL_SURFACE('',#398,14.);
#19=FACE_BOUND('',#58,.T.);
#20=FACE_BOUND('',#63,.T.);
#21=FACE_BOUND('',#66,.T.);
#22=FACE_BOUND('',#69,.T.);
#23=FACE_BOUND('',#72,.T.);
#24=CIRCLE('',#386,1.75);
#25=CIRCLE('',#388,1.75);
#26=CIRCLE('',#390,1.75);
#27=CIRCLE('',#391,1.75);
#28=CIRCLE('',#393,12.);
#29=CIRCLE('',#394,12.);
#30=CIRCLE('',#399,14.);
#31=CIRCLE('',#400,14.);
#32=FACE_OUTER_BOUND('',#51,.T.);
#33=FACE_OUTER_BOUND('',#52,.T.);
#34=FACE_OUTER_BOUND('',#53,.T.);
#35=FACE_OUTER_BOUND('',#54,.T.);
#36=FACE_OUTER_BOUND('',#55,.T.);
#37=FACE_OUTER_BOUND('',#56,.T.);
#38=FACE_OUTER_BOUND('',#57,.T.);
#39=FACE_OUTER_BOUND('',#59,.T.);
#40=FACE_OUTER_BOUND('',#60,.T.);
#41=FACE_OUTER_BOUND('',#61,.T.);
#42=FACE_OUTER_BOUND('',#62,.T.);
#43=FACE_OUTER_BOUND('',#64,.T.);
#44=FACE_OUTER_BOUND('',#65,.T.);
#45=FACE_OUTER_BOUND('',#67,.T.);
#46=FACE_OUTER_BOUND('',#68,.T.);
#47=FACE_OUTER_BOUND('',#70,.T.);
#48=FACE_OUTER_BOUND('',#71,.T.);
#49=FACE_OUTER_BOUND('',#73,.T.);
#50=FACE_OUTER_BOUND('',#74,.T.);
#51=EDGE_LOOP('',(#235,#236,#237,#238));
#52=EDGE_LOOP('',(#239,#240,#241,#242));
#53=EDGE_LOOP('',(#243,#244,#245,#246));
#54=EDGE_LOOP('',(#247,#248,#249,#250));
#55=EDGE_LOOP('',(#251,#252,#253,#254));
#56=EDGE_LOOP('',(#255,#256,#257,#258));
#57=EDGE_LOOP('',(#259,#260,#261,#262,#263,#264));
#58=EDGE_LOOP('',(#265));
#59=EDGE_LOOP('',(#266,#267,#268,#269));
#60=EDGE_LOOP('',(#270,#271,#272,#273));
#61=EDGE_LOOP('',(#274,#275,#276,#277));
#62=EDGE_LOOP('',(#278,#279,#280,#281));
#63=EDGE_LOOP('',(#282));
#64=EDGE_LOOP('',(#283,#284,#285,#286));
#65=EDGE_LOOP('',(#287,#288,#289,#290));
#66=EDGE_LOOP('',(#291));
#67=EDGE_LOOP('',(#292,#293,#294,#295));
#68=EDGE_LOOP('',(#296,#297,#298,#299));
#69=EDGE_LOOP('',(#300,#301,#302,#303,#304,#305));
#70=EDGE_LOOP('',(#306,#307,#308,#309));
#71=EDGE_LOOP('',(#310,#311,#312,#313));
#72=EDGE_LOOP('',(#314));
#73=EDGE_LOOP('',(#315,#316,#317,#318,#319,#320,#321,#322));
#74=EDGE_LOOP('',(#323,#324,#325,#326,#327,#328,#329,#330));
#75=LINE('',#506,#115);
#76=LINE('',#508,#116);
#77=LINE('',#510,#117);
#78=LINE('',#511,#118);
#79=LINE('',#514,#119);
#80=LINE('',#516,#120);
#81=LINE('',#517,#121);
#82=LINE('',#520,#122);
#83=LINE('',#522,#123);
#84=LINE('',#523,#124);
#85=LINE('',#526,#125);
#86=LINE('',#528,#126);
#87=LINE('',#529,#127);
#88=LINE('',#532,#128);
#89=LINE('',#534,#129);
#90=LINE('',#535,#130);
#91=LINE('',#537,#131);
#92=LINE('',#538,#132);
#93=LINE('',#544,#133);
#94=LINE('',#550,#134);
#95=LINE('',#557,#135);
#96=LINE('',#560,#136);
#97=LINE('',#563,#137);
#98=LINE('',#565,#138);
#99=LINE('',#566,#139);
#100=LINE('',#569,#140);
#101=LINE('',#571,#141);
#102=LINE('',#572,#142);
#103=LINE('',#575,#143);
#104=LINE('',#577,#144);
#105=LINE('',#578,#145);
#106=LINE('',#584,#146);
#107=LINE('',#587,#147);
#108=LINE('',#589,#148);
#109=LINE('',#590,#149);
#110=LINE('',#593,#150);
#111=LINE('',#595,#151);
#112=LINE('',#596,#152);
#113=LINE('',#598,#153);
#114=LINE('',#599,#154);
#115=VECTOR('',#410,10.);
#116=VECTOR('',#411,10.);
#117=VECTOR('',#412,10.);
#118=VECTOR('',#413,10.);
#119=VECTOR('',#416,10.);
#120=VECTOR('',#417,10.);
#121=VECTOR('',#418,10.);
#122=VECTOR('',#421,10.);
#123=VECTOR('',#422,10.);
#124=VECTOR('',#423,10.);
#125=VECTOR('',#426,10.);
#126=VECTOR('',#427,10.);
#127=VECTOR('',#428,10.);
#128=VECTOR('',#431,10.);
#129=VECTOR('',#432,10.);
#130=VECTOR('',#433,10.);
#131=VECTOR('',#436,10.);
#132=VECTOR('',#437,10.);
#133=VECTOR('',#444,1.75);
#134=VECTOR('',#451,1.75);
#135=VECTOR('',#458,10.);
#136=VECTOR('',#461,10.);
#137=VECTOR('',#464,10.);
#138=VECTOR('',#465,10.);
#139=VECTOR('',#466,10.);
#140=VECTOR('',#469,10.);
#141=VECTOR('',#470,10.);
#142=VECTOR('',#471,10.);
#143=VECTOR('',#474,10.);
#144=VECTOR('',#475,10.);
#145=VECTOR('',#476,10.);
#146=VECTOR('',#483,10.);
#147=VECTOR('',#486,10.);
#148=VECTOR('',#487,10.);
#149=VECTOR('',#488,10.);
#150=VECTOR('',#491,10.);
#151=VECTOR('',#492,10.);
#152=VECTOR('',#493,10.);
#153=VECTOR('',#496,10.);
#154=VECTOR('',#497,10.);
#155=VERTEX_POINT('',#504);
#156=VERTEX_POINT('',#505);
#157=VERTEX_POINT('',#507);
#158=VERTEX_POINT('',#509);
#159=VERTEX_POINT('',#513);
#160=VERTEX_POINT('',#515);
#161=VERTEX_POINT('',#519);
#162=VERTEX_POINT('',#521);
#163=VERTEX_POINT('',#525);
#164=VERTEX_POINT('',#527);
#165=VERTEX_POINT('',#531);
#166=VERTEX_POINT('',#533);
#167=VERTEX_POINT('',#540);
#168=VERTEX_POINT('',#543);
#169=VERTEX_POINT('',#547);
#170=VERTEX_POINT('',#549);
#171=VERTEX_POINT('',#553);
#172=VERTEX_POINT('',#554);
#173=VERTEX_POINT('',#556);
#174=VERTEX_POINT('',#558);
#175=VERTEX_POINT('',#562);
#176=VERTEX_POINT('',#564);
#177=VERTEX_POINT('',#568);
#178=VERTEX_POINT('',#570);
#179=VERTEX_POINT('',#574);
#180=VERTEX_POINT('',#576);
#181=VERTEX_POINT('',#580);
#182=VERTEX_POINT('',#582);
#183=VERTEX_POINT('',#586);
#184=VERTEX_POINT('',#588);
#185=VERTEX_POINT('',#592);
#186=VERTEX_POINT('',#594);
#187=EDGE_CURVE('',#155,#156,#75,.T.);
#188=EDGE_CURVE('',#155,#157,#76,.T.);
#189=EDGE_CURVE('',#157,#158,#77,.T.);
#190=EDGE_CURVE('',#156,#158,#78,.T.);
#191=EDGE_CURVE('',#159,#155,#79,.T.);
#192=EDGE_CURVE('',#159,#160,#80,.T.);
#193=EDGE_CURVE('',#160,#157,#81,.T.);
#194=EDGE_CURVE('',#161,#159,#82,.T.);
#195=EDGE_CURVE('',#161,#162,#83,.T.);
#196=EDGE_CURVE('',#162,#160,#84,.T.);
#197=EDGE_CURVE('',#163,#161,#85,.T.);
#198=EDGE_CURVE('',#163,#164,#86,.T.);
#199=EDGE_CURVE('',#164,#162,#87,.T.);
#200=EDGE_CURVE('',#165,#163,#88,.T.);
#201=EDGE_CURVE('',#165,#166,#89,.T.);
#202=EDGE_CURVE('',#166,#164,#90,.T.);
#203=EDGE_CURVE('',#156,#165,#91,.T.);
#204=EDGE_CURVE('',#158,#166,#92,.T.);
#205=EDGE_CURVE('',#167,#167,#24,.T.);
#206=EDGE_CURVE('',#167,#168,#93,.T.);
#207=EDGE_CURVE('',#168,#168,#25,.T.);
#208=EDGE_CURVE('',#169,#169,#26,.T.);
#209=EDGE_CURVE('',#169,#170,#94,.T.);
#210=EDGE_CURVE('',#170,#170,#27,.T.);
#211=EDGE_CURVE('',#171,#172,#28,.T.);
#212=EDGE_CURVE('',#171,#173,#95,.T.);
#213=EDGE_CURVE('',#174,#173,#29,.T.);
#214=EDGE_CURVE('',#172,#174,#96,.T.);
#215=EDGE_CURVE('',#172,#175,#97,.T.);
#216=EDGE_CURVE('',#176,#174,#98,.T.);
#217=EDGE_CURVE('',#175,#176,#99,.T.);
#218=EDGE_CURVE('',#175,#177,#100,.T.);
#219=EDGE_CURVE('',#178,#176,#101,.T.);
#220=EDGE_CURVE('',#177,#178,#102,.T.);
#221=EDGE_CURVE('',#179,#177,#103,.T.);
#222=EDGE_CURVE('',#180,#178,#104,.T.);
#223=EDGE_CURVE('',#179,#180,#105,.T.);
#224=EDGE_CURVE('',#181,#179,#30,.T.);
#225=EDGE_CURVE('',#182,#180,#31,.T.);
#226=EDGE_CURVE('',#181,#182,#106,.T.);
#227=EDGE_CURVE('',#181,#183,#107,.T.);
#228=EDGE_CURVE('',#184,#182,#108,.T.);
#229=EDGE_CURVE('',#183,#184,#109,.T.);
#230=EDGE_CURVE('',#183,#185,#110,.T.);
#231=EDGE_CURVE('',#186,#184,#111,.T.);
#232=EDGE_CURVE('',#185,#186,#112,.T.);
#233=EDGE_CURVE('',#171,#185,#113,.T.);
#234=EDGE_CURVE('',#173,#186,#114,.T.);
#235=ORIENTED_EDGE('',*,*,#187,.F.);
#236=ORIENTED_EDGE('',*,*,#188,.T.);
#237=ORIENTED_EDGE('',*,*,#189,.T.);
#238=ORIENTED_EDGE('',*,*,#190,.F.);
#239=ORIENTED_EDGE('',*,*,#191,.F.);
#240=ORIENTED_EDGE('',*,*,#192,.T.);
#241=ORIENTED_EDGE('',*,*,#193,.T.);
#242=ORIENTED_EDGE('',*,*,#188,.F.);
#243=ORIENTED_EDGE('',*,*,#194,.F.);
#244=ORIENTED_EDGE('',*,*,#195,.T.);
#245=ORIENTED_EDGE('',*,*,#196,.T.);
#246=ORIENTED_EDGE('',*,*,#192,.F.);
#247=ORIENTED_EDGE('',*,*,#197,.F.);
#248=ORIENTED_EDGE('',*,*,#198,.T.);
#249=ORIENTED_EDGE('',*,*,#199,.T.);
#250=ORIENTED_EDGE('',*,*,#195,.F.);
#251=ORIENTED_EDGE('',*,*,#200,.F.);
#252=ORIENTED_EDGE('',*,*,#201,.T.);
#253=ORIENTED_EDGE('',*,*,#202,.T.);
#254=ORIENTED_EDGE('',*,*,#198,.F.);
#255=ORIENTED_EDGE('',*,*,#203,.F.);
#256=ORIENTED_EDGE('',*,*,#190,.T.);
#257=ORIENTED_EDGE('',*,*,#204,.T.);
#258=ORIENTED_EDGE('',*,*,#201,.F.);
#259=ORIENTED_EDGE('',*,*,#204,.F.);
#260=ORIENTED_EDGE('',*,*,#189,.F.);
#261=ORIENTED_EDGE('',*,*,#193,.F.);
#262=ORIENTED_EDGE('',*,*,#196,.F.);
#263=ORIENTED_EDGE('',*,*,#199,.F.);
#264=ORIENTED_EDGE('',*,*,#202,.F.);
#265=ORIENTED_EDGE('',*,*,#205,.F.);
#266=ORIENTED_EDGE('',*,*,#205,.T.);
#267=ORIENTED_EDGE('',*,*,#206,.T.);
#268=ORIENTED_EDGE('',*,*,#207,.F.);
#269=ORIENTED_EDGE('',*,*,#206,.F.);
#270=ORIENTED_EDGE('',*,*,#208,.F.);
#271=ORIENTED_EDGE('',*,*,#209,.T.);
#272=ORIENTED_EDGE('',*,*,#210,.F.);
#273=ORIENTED_EDGE('',*,*,#209,.F.);
#274=ORIENTED_EDGE('',*,*,#211,.F.);
#275=ORIENTED_EDGE('',*,*,#212,.T.);
#276=ORIENTED_EDGE('',*,*,#213,.F.);
#277=ORIENTED_EDGE('',*,*,#214,.F.);
#278=ORIENTED_EDGE('',*,*,#215,.F.);
#279=ORIENTED_EDGE('',*,*,#214,.T.);
#280=ORIENTED_EDGE('',*,*,#216,.F.);
#281=ORIENTED_EDGE('',*,*,#217,.F.);
#282=ORIENTED_EDGE('',*,*,#208,.T.);
#283=ORIENTED_EDGE('',*,*,#218,.F.);
#284=ORIENTED_EDGE('',*,*,#217,.T.);
#285=ORIENTED_EDGE('',*,*,#219,.F.);
#286=ORIENTED_EDGE('',*,*,#220,.F.);
#287=ORIENTED_EDGE('',*,*,#221,.T.);
#288=ORIENTED_EDGE('',*,*,#220,.T.);
#289=ORIENTED_EDGE('',*,*,#222,.F.);
#290=ORIENTED_EDGE('',*,*,#223,.F.);
#291=ORIENTED_EDGE('',*,*,#210,.T.);
#292=ORIENTED_EDGE('',*,*,#224,.T.);
#293=ORIENTED_EDGE('',*,*,#223,.T.);
#294=ORIENTED_EDGE('',*,*,#225,.F.);
#295=ORIENTED_EDGE('',*,*,#226,.F.);
#296=ORIENTED_EDGE('',*,*,#227,.F.);
#297=ORIENTED_EDGE('',*,*,#226,.T.);
#298=ORIENTED_EDGE('',*,*,#228,.F.);
#299=ORIENTED_EDGE('',*,*,#229,.F.);
#300=ORIENTED_EDGE('',*,*,#187,.T.);
#301=ORIENTED_EDGE('',*,*,#203,.T.);
#302=ORIENTED_EDGE('',*,*,#200,.T.);
#303=ORIENTED_EDGE('',*,*,#197,.T.);
#304=ORIENTED_EDGE('',*,*,#194,.T.);
#305=ORIENTED_EDGE('',*,*,#191,.T.);
#306=ORIENTED_EDGE('',*,*,#230,.F.);
#307=ORIENTED_EDGE('',*,*,#229,.T.);
#308=ORIENTED_EDGE('',*,*,#231,.F.);
#309=ORIENTED_EDGE('',*,*,#232,.F.);
#310=ORIENTED_EDGE('',*,*,#233,.T.);
#311=ORIENTED_EDGE('',*,*,#232,.T.);
#312=ORIENTED_EDGE('',*,*,#234,.F.);
#313=ORIENTED_EDGE('',*,*,#212,.F.);
#314=ORIENTED_EDGE('',*,*,#207,.T.);
#315=ORIENTED_EDGE('',*,*,#234,.T.);
#316=ORIENTED_EDGE('',*,*,#231,.T.);
#317=ORIENTED_EDGE('',*,*,#228,.T.);
#318=ORIENTED_EDGE('',*,*,#225,.T.);
#319=ORIENTED_EDGE('',*,*,#222,.T.);
#320=ORIENTED_EDGE('',*,*,#219,.T.);
#321=ORIENTED_EDGE('',*,*,#216,.T.);
#322=ORIENTED_EDGE('',*,*,#213,.T.);
#323=ORIENTED_EDGE('',*,*,#233,.F.);
#324=ORIENTED_EDGE('',*,*,#211,.T.);
#325=ORIENTED_EDGE('',*,*,#215,.T.);
#326=ORIENTED_EDGE('',*,*,#218,.T.);
#327=ORIENTED_EDGE('',*,*,#221,.F.);
#328=ORIENTED_EDGE('',*,*,#224,.F.);
#329=ORIENTED_EDGE('',*,*,#227,.T.);
#330=ORIENTED_EDGE('',*,*,#230,.T.);
#331=PLANE('',#379);
#332=PLANE('',#380);
#333=PLANE('',#381);
#334=PLANE('',#382);
#335=PLANE('',#383);
#336=PLANE('',#384);
#337=PLANE('',#385);
#338=PLANE('',#395);
#339=PLANE('',#396);
#340=PLANE('',#397);
#341=PLANE('',#401);
#342=PLANE('',#402);
#343=PLANE('',#403);
#344=PLANE('',#404);
#345=PLANE('',#405);
#346=ADVANCED_FACE('',(#32),#331,.F.);
#347=ADVANCED_FACE('',(#33),#332,.F.);
#348=ADVANCED_FACE('',(#34),#333,.F.);
#349=ADVANCED_FACE('',(#35),#334,.F.);
#350=ADVANCED_FACE('',(#36),#335,.F.);
#351=ADVANCED_FACE('',(#37),#336,.F.);
#352=ADVANCED_FACE('',(#38,#19),#337,.T.);
#353=ADVANCED_FACE('',(#39),#15,.F.);
#354=ADVANCED_FACE('',(#40),#16,.F.);
#355=ADVANCED_FACE('',(#41),#17,.F.);
#356=ADVANCED_FACE('',(#42,#20),#338,.T.);
#357=ADVANCED_FACE('',(#43),#339,.T.);
#358=ADVANCED_FACE('',(#44,#21),#340,.T.);
#359=ADVANCED_FACE('',(#45),#18,.T.);
#360=ADVANCED_FACE('',(#46,#22),#341,.T.);
#361=ADVANCED_FACE('',(#47),#342,.T.);
#362=ADVANCED_FACE('',(#48,#23),#343,.T.);
#363=ADVANCED_FACE('',(#49),#344,.T.);
#364=ADVANCED_FACE('',(#50),#345,.F.);
#365=CLOSED_SHELL('',(#346,#347,#348,#349,#350,#351,#352,#353,#354,#355,
#356,#357,#358,#359,#360,#361,#362,#363,#364));
#366=DERIVED_UNIT_ELEMENT(#368,1.);
#367=DERIVED_UNIT_ELEMENT(#607,-3.);
#368=(
MASS_UNIT()
NAMED_UNIT(*)
SI_UNIT(.KILO.,.GRAM.)
);
#369=DERIVED_UNIT((#366,#367));
#370=MEASURE_REPRESENTATION_ITEM('density measure',
POSITIVE_RATIO_MEASURE(7850.),#369);
#371=PROPERTY_DEFINITION_REPRESENTATION(#376,#373);
#372=PROPERTY_DEFINITION_REPRESENTATION(#377,#374);
#373=REPRESENTATION('material name',(#375),#604);
#374=REPRESENTATION('density',(#370),#604);
#375=DESCRIPTIVE_REPRESENTATION_ITEM('Steel','Steel');
#376=PROPERTY_DEFINITION('material property','material name',#614);
#377=PROPERTY_DEFINITION('material property','density of part',#614);
#378=AXIS2_PLACEMENT_3D('',#502,#406,#407);
#379=AXIS2_PLACEMENT_3D('',#503,#408,#409);
#380=AXIS2_PLACEMENT_3D('',#512,#414,#415);
#381=AXIS2_PLACEMENT_3D('',#518,#419,#420);
#382=AXIS2_PLACEMENT_3D('',#524,#424,#425);
#383=AXIS2_PLACEMENT_3D('',#530,#429,#430);
#384=AXIS2_PLACEMENT_3D('',#536,#434,#435);
#385=AXIS2_PLACEMENT_3D('',#539,#438,#439);
#386=AXIS2_PLACEMENT_3D('',#541,#440,#441);
#387=AXIS2_PLACEMENT_3D('',#542,#442,#443);
#388=AXIS2_PLACEMENT_3D('',#545,#445,#446);
#389=AXIS2_PLACEMENT_3D('',#546,#447,#448);
#390=AXIS2_PLACEMENT_3D('',#548,#449,#450);
#391=AXIS2_PLACEMENT_3D('',#551,#452,#453);
#392=AXIS2_PLACEMENT_3D('',#552,#454,#455);
#393=AXIS2_PLACEMENT_3D('',#555,#456,#457);
#394=AXIS2_PLACEMENT_3D('',#559,#459,#460);
#395=AXIS2_PLACEMENT_3D('',#561,#462,#463);
#396=AXIS2_PLACEMENT_3D('',#567,#467,#468);
#397=AXIS2_PLACEMENT_3D('',#573,#472,#473);
#398=AXIS2_PLACEMENT_3D('',#579,#477,#478);
#399=AXIS2_PLACEMENT_3D('',#581,#479,#480);
#400=AXIS2_PLACEMENT_3D('',#583,#481,#482);
#401=AXIS2_PLACEMENT_3D('',#585,#484,#485);
#402=AXIS2_PLACEMENT_3D('',#591,#489,#490);
#403=AXIS2_PLACEMENT_3D('',#597,#494,#495);
#404=AXIS2_PLACEMENT_3D('',#600,#498,#499);
#405=AXIS2_PLACEMENT_3D('',#601,#500,#501);
#406=DIRECTION('axis',(0.,0.,1.));
#407=DIRECTION('refdir',(1.,0.,0.));
#408=DIRECTION('center_axis',(0.,-0.866025403784439,-0.499999999999999));
#409=DIRECTION('ref_axis',(0.,0.499999999999999,-0.866025403784439));
#410=DIRECTION('',(0.,0.499999999999999,-0.866025403784439));
#411=DIRECTION('',(1.,0.,0.));
#412=DIRECTION('',(0.,0.499999999999999,-0.866025403784439));
#413=DIRECTION('',(1.,0.,0.));
#414=DIRECTION('center_axis',(0.,-0.866025403784438,0.500000000000001));
#415=DIRECTION('ref_axis',(0.,-0.500000000000001,-0.866025403784438));
#416=DIRECTION('',(0.,-0.500000000000001,-0.866025403784438));
#417=DIRECTION('',(1.,0.,0.));
#418=DIRECTION('',(0.,-0.500000000000001,-0.866025403784438));
#419=DIRECTION('center_axis',(0.,9.61481343191783E-16,1.));
#420=DIRECTION('ref_axis',(0.,-1.,9.61481343191783E-16));
#421=DIRECTION('',(0.,-1.,9.61481343191783E-16));
#422=DIRECTION('',(1.,0.,0.));
#423=DIRECTION('',(0.,-1.,9.61481343191783E-16));
#424=DIRECTION('center_axis',(0.,0.866025403784439,0.499999999999999));
#425=DIRECTION('ref_axis',(0.,-0.499999999999999,0.866025403784439));
#426=DIRECTION('',(0.,-0.499999999999999,0.866025403784439));
#427=DIRECTION('',(1.,0.,0.));
#428=DIRECTION('',(0.,-0.499999999999999,0.866025403784439));
#429=DIRECTION('center_axis',(0.,0.866025403784438,-0.500000000000001));
#430=DIRECTION('ref_axis',(0.,0.500000000000001,0.866025403784438));
#431=DIRECTION('',(0.,0.500000000000001,0.866025403784438));
#432=DIRECTION('',(1.,0.,0.));
#433=DIRECTION('',(0.,0.500000000000001,0.866025403784438));
#434=DIRECTION('center_axis',(0.,-1.20185167898973E-15,-1.));
#435=DIRECTION('ref_axis',(0.,1.,-1.20185167898973E-15));
#436=DIRECTION('',(0.,1.,-1.20185167898973E-15));
#437=DIRECTION('',(0.,1.,-1.20185167898973E-15));
#438=DIRECTION('center_axis',(-1.,0.,0.));
#439=DIRECTION('ref_axis',(0.,-1.,0.));
#440=DIRECTION('center_axis',(-1.,0.,0.));
#441=DIRECTION('ref_axis',(0.,-1.,0.));
#442=DIRECTION('center_axis',(1.,0.,0.));
#443=DIRECTION('ref_axis',(0.,-1.,0.));
#444=DIRECTION('',(1.,0.,0.));
#445=DIRECTION('center_axis',(-1.,0.,0.));
#446=DIRECTION('ref_axis',(0.,-1.,0.));
#447=DIRECTION('center_axis',(1.,0.,0.));
#448=DIRECTION('ref_axis',(0.,-1.,0.));
#449=DIRECTION('center_axis',(1.,0.,0.));
#450=DIRECTION('ref_axis',(0.,-1.,0.));
#451=DIRECTION('',(1.,0.,0.));
#452=DIRECTION('center_axis',(-1.,-1.01636688375907E-16,0.));
#453=DIRECTION('ref_axis',(0.,-1.,0.));
#454=DIRECTION('center_axis',(0.,0.,1.));
#455=DIRECTION('ref_axis',(-1.61907524424502E-16,-1.,0.));
#456=DIRECTION('center_axis',(0.,0.,1.));
#457=DIRECTION('ref_axis',(-0.166666666666667,0.986013297183269,0.));
#458=DIRECTION('',(0.,0.,1.));
#459=DIRECTION('center_axis',(0.,0.,-1.));
#460=DIRECTION('ref_axis',(-0.166666666666667,0.986013297183269,0.));
#461=DIRECTION('',(0.,0.,1.));
#462=DIRECTION('center_axis',(-1.,0.,0.));
#463=DIRECTION('ref_axis',(0.,-1.,0.));
#464=DIRECTION('',(0.,1.,0.));
#465=DIRECTION('',(0.,-1.,0.));
#466=DIRECTION('',(0.,0.,1.));
#467=DIRECTION('center_axis',(0.,1.,0.));
#468=DIRECTION('ref_axis',(-1.,0.,0.));
#469=DIRECTION('',(1.,0.,0.));
#470=DIRECTION('',(-1.,0.,0.));
#471=DIRECTION('',(0.,0.,1.));
#472=DIRECTION('center_axis',(1.,1.01636688375907E-16,0.));
#473=DIRECTION('ref_axis',(-1.01636688375907E-16,1.,0.));
#474=DIRECTION('',(-1.01636688375907E-16,1.,0.));
#475=DIRECTION('',(-1.01636688375907E-16,1.,0.));
#476=DIRECTION('',(0.,0.,1.));
#477=DIRECTION('center_axis',(0.,0.,1.));
#478=DIRECTION('ref_axis',(-1.78428700386186E-16,-1.,0.));
#479=DIRECTION('center_axis',(0.,0.,1.));
#480=DIRECTION('ref_axis',(-0.142857142857143,0.989743318610787,0.));
#481=DIRECTION('center_axis',(0.,0.,1.));
#482=DIRECTION('ref_axis',(-0.142857142857143,0.989743318610787,0.));
#483=DIRECTION('',(0.,0.,1.));
#484=DIRECTION('center_axis',(-1.,0.,0.));
#485=DIRECTION('ref_axis',(0.,-1.,0.));
#486=DIRECTION('',(0.,1.,0.));
#487=DIRECTION('',(0.,-1.,0.));
#488=DIRECTION('',(0.,0.,1.));
#489=DIRECTION('center_axis',(0.,1.,0.));
#490=DIRECTION('ref_axis',(-1.,0.,0.));
#491=DIRECTION('',(1.,0.,0.));
#492=DIRECTION('',(-1.,0.,0.));
#493=DIRECTION('',(0.,0.,1.));
#494=DIRECTION('center_axis',(1.,0.,0.));
#495=DIRECTION('ref_axis',(0.,1.,0.));
#496=DIRECTION('',(0.,1.,0.));
#497=DIRECTION('',(0.,1.,0.));
#498=DIRECTION('center_axis',(0.,0.,1.));
#499=DIRECTION('ref_axis',(1.,0.,0.));
#500=DIRECTION('center_axis',(0.,0.,1.));
#501=DIRECTION('ref_axis',(1.,0.,0.));
#502=CARTESIAN_POINT('',(0.,0.,0.));
#503=CARTESIAN_POINT('Origin',(-4.9999999999999,15.1450271216521,3.5));
#504=CARTESIAN_POINT('',(-4.9999999999999,15.1450271216521,3.5));
#505=CARTESIAN_POINT('',(-4.9999999999999,16.2997276600314,1.5));
#506=CARTESIAN_POINT('',(-5.,16.7386909055319,0.73969335613777));
#507=CARTESIAN_POINT('',(-3.4999999999999,15.1450271216521,3.5));
#508=CARTESIAN_POINT('',(-4.9999999999999,15.1450271216521,3.5));
#509=CARTESIAN_POINT('',(-3.4999999999999,16.2997276600314,1.5));
#510=CARTESIAN_POINT('',(-3.4999999999999,16.2997276600314,1.5));
#511=CARTESIAN_POINT('',(-4.9999999999999,16.2997276600314,1.5));
#512=CARTESIAN_POINT('Origin',(-4.9999999999999,16.2997276600314,5.5));
#513=CARTESIAN_POINT('',(-4.9999999999999,16.2997276600314,5.5));
#514=CARTESIAN_POINT('',(-5.,15.8004967180988,4.63530664386224));
#515=CARTESIAN_POINT('',(-3.4999999999999,16.2997276600314,5.5));
#516=CARTESIAN_POINT('',(-4.9999999999999,16.2997276600314,5.5));
#517=CARTESIAN_POINT('',(-3.4999999999999,15.1450271216521,3.5));
#518=CARTESIAN_POINT('Origin',(-4.9999999999999,18.6091287367899,5.5));
#519=CARTESIAN_POINT('',(-4.9999999999999,18.6091287367899,5.5));
#520=CARTESIAN_POINT('',(-5.,20.2206441514946,5.5));
#521=CARTESIAN_POINT('',(-3.4999999999999,18.6091287367899,5.5));
#522=CARTESIAN_POINT('',(-4.9999999999999,18.6091287367899,5.5));
#523=CARTESIAN_POINT('',(-3.4999999999999,16.2997276600314,5.5));
#524=CARTESIAN_POINT('Origin',(-4.9999999999999,19.7638292751691,3.5));
#525=CARTESIAN_POINT('',(-4.9999999999999,19.7638292751691,3.5));
#526=CARTESIAN_POINT('',(-5.,20.7801427898593,1.73969335613776));
#527=CARTESIAN_POINT('',(-3.4999999999999,19.7638292751691,3.5));
#528=CARTESIAN_POINT('',(-4.9999999999999,19.7638292751691,3.5));
#529=CARTESIAN_POINT('',(-3.4999999999999,18.6091287367899,5.5));
#530=CARTESIAN_POINT('Origin',(-4.9999999999999,18.6091287367899,1.5));
#531=CARTESIAN_POINT('',(-4.9999999999999,18.6091287367899,1.5));
#532=CARTESIAN_POINT('',(-5.,18.6872480640469,1.63530664386223));
#533=CARTESIAN_POINT('',(-3.4999999999999,18.6091287367899,1.5));
#534=CARTESIAN_POINT('',(-4.9999999999999,18.6091287367899,1.5));
#535=CARTESIAN_POINT('',(-3.4999999999999,19.7638292751691,3.5));
#536=CARTESIAN_POINT('Origin',(-4.9999999999999,16.2997276600314,1.5));
#537=CARTESIAN_POINT('',(-5.,19.0659436131153,1.5));
#538=CARTESIAN_POINT('',(-3.4999999999999,18.6091287367899,1.5));
#539=CARTESIAN_POINT('Origin',(-3.4999999999999,17.4544281984106,3.5));
#540=CARTESIAN_POINT('',(-3.4999999999999,19.2044281984106,3.5));
#541=CARTESIAN_POINT('Origin',(-3.4999999999999,17.4544281984106,3.5));
#542=CARTESIAN_POINT('Origin',(-4.9999999999999,17.4544281984106,3.5));
#543=CARTESIAN_POINT('',(-2.,19.2044281984106,3.5));
#544=CARTESIAN_POINT('',(-4.9999999999999,19.2044281984106,3.5));
#545=CARTESIAN_POINT('Origin',(-2.,17.4544281984106,3.5));
#546=CARTESIAN_POINT('Origin',(-4.9999999999999,17.4544281984106,3.5));
#547=CARTESIAN_POINT('',(2.,19.2044281984106,3.5));
#548=CARTESIAN_POINT('Origin',(2.,17.4544281984106,3.5));
#549=CARTESIAN_POINT('',(5.0000000000001,19.2044281984106,3.5));
#550=CARTESIAN_POINT('',(-4.9999999999999,19.2044281984106,3.5));
#551=CARTESIAN_POINT('Origin',(5.,17.4544281984106,3.5));
#552=CARTESIAN_POINT('Origin',(0.,0.,0.));
#553=CARTESIAN_POINT('',(-2.,11.8321595661992,0.));
#554=CARTESIAN_POINT('',(2.,11.8321595661992,0.));
#555=CARTESIAN_POINT('Origin',(0.,0.,0.));
#556=CARTESIAN_POINT('',(-2.,11.8321595661992,7.));
#557=CARTESIAN_POINT('',(-2.,11.8321595661992,0.));
#558=CARTESIAN_POINT('',(2.,11.8321595661992,7.));
#559=CARTESIAN_POINT('Origin',(0.,0.,7.));
#560=CARTESIAN_POINT('',(2.,11.8321595661992,0.));
#561=CARTESIAN_POINT('Origin',(2.,21.8321595661992,0.));
#562=CARTESIAN_POINT('',(2.,21.8321595661992,0.));
#563=CARTESIAN_POINT('',(2.,11.8321595661992,0.));
#564=CARTESIAN_POINT('',(2.,21.8321595661992,7.));
#565=CARTESIAN_POINT('',(2.,11.8321595661992,7.));
#566=CARTESIAN_POINT('',(2.,21.8321595661992,0.));
#567=CARTESIAN_POINT('Origin',(5.,21.8321595661992,0.));
#568=CARTESIAN_POINT('',(5.,21.8321595661992,0.));
#569=CARTESIAN_POINT('',(2.,21.8321595661992,0.));
#570=CARTESIAN_POINT('',(5.,21.8321595661992,7.));
#571=CARTESIAN_POINT('',(2.,21.8321595661992,7.));
#572=CARTESIAN_POINT('',(5.,21.8321595661992,0.));
#573=CARTESIAN_POINT('Origin',(5.,13.076696830622,0.));
#574=CARTESIAN_POINT('',(5.,13.076696830622,0.));
#575=CARTESIAN_POINT('',(5.,10.9087121146357,0.));
#576=CARTESIAN_POINT('',(5.,13.076696830622,7.));
#577=CARTESIAN_POINT('',(5.,10.9087121146357,7.));
#578=CARTESIAN_POINT('',(5.,13.076696830622,0.));
#579=CARTESIAN_POINT('Origin',(0.,0.,0.));
#580=CARTESIAN_POINT('',(-5.,13.076696830622,0.));
#581=CARTESIAN_POINT('Origin',(0.,0.,0.));
#582=CARTESIAN_POINT('',(-5.,13.076696830622,7.));
#583=CARTESIAN_POINT('Origin',(0.,0.,7.));
#584=CARTESIAN_POINT('',(-5.,13.076696830622,0.));
#585=CARTESIAN_POINT('Origin',(-5.,21.8321595661992,0.));
#586=CARTESIAN_POINT('',(-5.,21.8321595661992,0.));
#587=CARTESIAN_POINT('',(-5.,10.9087121146357,0.));
#588=CARTESIAN_POINT('',(-5.,21.8321595661992,7.));
#589=CARTESIAN_POINT('',(-5.,10.9087121146357,7.));
#590=CARTESIAN_POINT('',(-5.,21.8321595661992,0.));
#591=CARTESIAN_POINT('Origin',(-2.,21.8321595661992,0.));
#592=CARTESIAN_POINT('',(-2.,21.8321595661992,0.));
#593=CARTESIAN_POINT('',(-5.,21.8321595661992,0.));
#594=CARTESIAN_POINT('',(-2.,21.8321595661992,7.));
#595=CARTESIAN_POINT('',(-5.,21.8321595661992,7.));
#596=CARTESIAN_POINT('',(-2.,21.8321595661992,0.));
#597=CARTESIAN_POINT('Origin',(-2.,11.8321595661992,0.));
#598=CARTESIAN_POINT('',(-2.,11.8321595661992,0.));
#599=CARTESIAN_POINT('',(-2.,11.8321595661992,7.));
#600=CARTESIAN_POINT('Origin',(0.,3.91607978309962,7.));
#601=CARTESIAN_POINT('Origin',(0.,3.91607978309962,0.));
#602=UNCERTAINTY_MEASURE_WITH_UNIT(LENGTH_MEASURE(0.01),#606,
'DISTANCE_ACCURACY_VALUE',
'Maximum model space distance between geometric entities at asserted c
onnectivities');
#603=UNCERTAINTY_MEASURE_WITH_UNIT(LENGTH_MEASURE(0.01),#606,
'DISTANCE_ACCURACY_VALUE',
'Maximum model space distance between geometric entities at asserted c
onnectivities');
#604=(
GEOMETRIC_REPRESENTATION_CONTEXT(3)
GLOBAL_UNCERTAINTY_ASSIGNED_CONTEXT((#602))
GLOBAL_UNIT_ASSIGNED_CONTEXT((#606,#608,#609))
REPRESENTATION_CONTEXT('','3D')
);
#605=(
GEOMETRIC_REPRESENTATION_CONTEXT(3)
GLOBAL_UNCERTAINTY_ASSIGNED_CONTEXT((#603))
GLOBAL_UNIT_ASSIGNED_CONTEXT((#606,#608,#609))
REPRESENTATION_CONTEXT('','3D')
);
#606=(
LENGTH_UNIT()
NAMED_UNIT(*)
SI_UNIT(.MILLI.,.METRE.)
);
#607=(
LENGTH_UNIT()
NAMED_UNIT(*)
SI_UNIT($,.METRE.)
);
#608=(
NAMED_UNIT(*)
PLANE_ANGLE_UNIT()
SI_UNIT($,.RADIAN.)
);
#609=(
NAMED_UNIT(*)
SI_UNIT($,.STERADIAN.)
SOLID_ANGLE_UNIT()
);
#610=SHAPE_DEFINITION_REPRESENTATION(#611,#612);
#611=PRODUCT_DEFINITION_SHAPE('',$,#614);
#612=SHAPE_REPRESENTATION('',(#378),#604);
#613=PRODUCT_DEFINITION_CONTEXT('part definition',#618,'design');
#614=PRODUCT_DEFINITION('2026-07-23-06-53-54-407',
'Rover Counterweight Clamp',#615,#613);
#615=PRODUCT_DEFINITION_FORMATION('',$,#620);
#616=PRODUCT_RELATED_PRODUCT_CATEGORY('Rover Counterweight Clamp',
'Rover Counterweight Clamp',(#620));
#617=APPLICATION_PROTOCOL_DEFINITION('international standard',
'automotive_design',2009,#618);
#618=APPLICATION_CONTEXT(
'Core Data for Automotive Mechanical Design Process');
#619=PRODUCT_CONTEXT('part definition',#618,'mechanical');
#620=PRODUCT('2026-07-23-06-53-54-407','Rover Counterweight Clamp',$,(#619));
#621=PRESENTATION_STYLE_ASSIGNMENT((#622));
#622=SURFACE_STYLE_USAGE(.BOTH.,#623);
#623=SURFACE_SIDE_STYLE('',(#624));
#624=SURFACE_STYLE_FILL_AREA(#625);
#625=FILL_AREA_STYLE('Steel - Satin',(#626));
#626=FILL_AREA_STYLE_COLOUR('Steel - Satin',#627);
#627=COLOUR_RGB('Steel - Satin',0.627450980392157,0.627450980392157,0.627450980392157);
ENDSEC;
END-ISO-10303-21;
