ISO-10303-21;
HEADER;
/* Generated by software containing ST-Developer
 * from STEP Tools, Inc. (www.steptools.com) 
 */

FILE_DESCRIPTION(
/* description */ (''),
/* implementation_level */ '2;1');

FILE_NAME(
/* name */ 'counterweight-holder.step',
/* time_stamp */ '2026-07-29T22:52:26-04:00',
/* author */ (''),
/* organization */ (''),
/* preprocessor_version */ 'ST-DEVELOPER v20.1',
/* originating_system */ 'Autodesk Translation Framework v15.8.0.0',
/* authorisation */ '');

FILE_SCHEMA (('AUTOMOTIVE_DESIGN { 1 0 10303 214 3 1 1 }'));
ENDSEC;

DATA;
#10=MECHANICAL_DESIGN_GEOMETRIC_PRESENTATION_REPRESENTATION('',(#13),#446);
#11=SHAPE_REPRESENTATION_RELATIONSHIP('SRR','None',#453,#12);
#12=ADVANCED_BREP_SHAPE_REPRESENTATION('',(#14),#445);
#13=STYLED_ITEM('',(#462),#14);
#14=MANIFOLD_SOLID_BREP('Body1',#255);
#15=FACE_BOUND('',#89,.T.);
#16=FACE_BOUND('',#90,.T.);
#17=FACE_BOUND('',#91,.T.);
#18=FACE_BOUND('',#92,.T.);
#19=FACE_BOUND('',#93,.T.);
#20=FACE_BOUND('',#103,.T.);
#21=FACE_BOUND('',#104,.T.);
#22=FACE_BOUND('',#105,.T.);
#23=FACE_BOUND('',#106,.T.);
#24=PLANE('',#276);
#25=PLANE('',#280);
#26=PLANE('',#293);
#27=PLANE('',#294);
#28=PLANE('',#295);
#29=PLANE('',#296);
#30=PLANE('',#297);
#31=LINE('',#384,#48);
#32=LINE('',#396,#49);
#33=LINE('',#398,#50);
#34=LINE('',#400,#51);
#35=LINE('',#401,#52);
#36=LINE('',#413,#53);
#37=LINE('',#417,#54);
#38=LINE('',#421,#55);
#39=LINE('',#425,#56);
#40=LINE('',#428,#57);
#41=LINE('',#430,#58);
#42=LINE('',#431,#59);
#43=LINE('',#434,#60);
#44=LINE('',#435,#61);
#45=LINE('',#438,#62);
#46=LINE('',#439,#63);
#47=LINE('',#441,#64);
#48=VECTOR('',#310,11.75);
#49=VECTOR('',#325,10.);
#50=VECTOR('',#326,10.);
#51=VECTOR('',#327,10.);
#52=VECTOR('',#328,10.);
#53=VECTOR('',#341,1.75);
#54=VECTOR('',#346,1.75);
#55=VECTOR('',#351,1.75);
#56=VECTOR('',#356,1.75);
#57=VECTOR('',#359,10.);
#58=VECTOR('',#360,10.);
#59=VECTOR('',#361,10.);
#60=VECTOR('',#364,10.);
#61=VECTOR('',#365,10.);
#62=VECTOR('',#368,10.);
#63=VECTOR('',#369,10.);
#64=VECTOR('',#372,10.);
#65=CYLINDRICAL_SURFACE('',#273,11.75);
#66=CYLINDRICAL_SURFACE('',#285,1.75);
#67=CYLINDRICAL_SURFACE('',#287,1.75);
#68=CYLINDRICAL_SURFACE('',#289,1.75);
#69=CYLINDRICAL_SURFACE('',#291,1.75);
#70=FACE_OUTER_BOUND('',#84,.T.);
#71=FACE_OUTER_BOUND('',#85,.T.);
#72=FACE_OUTER_BOUND('',#86,.T.);
#73=FACE_OUTER_BOUND('',#87,.T.);
#74=FACE_OUTER_BOUND('',#88,.T.);
#75=FACE_OUTER_BOUND('',#94,.T.);
#76=FACE_OUTER_BOUND('',#95,.T.);
#77=FACE_OUTER_BOUND('',#96,.T.);
#78=FACE_OUTER_BOUND('',#97,.T.);
#79=FACE_OUTER_BOUND('',#98,.T.);
#80=FACE_OUTER_BOUND('',#99,.T.);
#81=FACE_OUTER_BOUND('',#100,.T.);
#82=FACE_OUTER_BOUND('',#101,.T.);
#83=FACE_OUTER_BOUND('',#102,.T.);
#84=EDGE_LOOP('',(#175,#176,#177,#178));
#85=EDGE_LOOP('',(#179,#180,#181,#182,#183));
#86=EDGE_LOOP('',(#184));
#87=EDGE_LOOP('',(#185,#186,#187,#188,#189));
#88=EDGE_LOOP('',(#190,#191,#192,#193));
#89=EDGE_LOOP('',(#194));
#90=EDGE_LOOP('',(#195));
#91=EDGE_LOOP('',(#196));
#92=EDGE_LOOP('',(#197));
#93=EDGE_LOOP('',(#198));
#94=EDGE_LOOP('',(#199,#200,#201,#202));
#95=EDGE_LOOP('',(#203,#204,#205,#206));
#96=EDGE_LOOP('',(#207,#208,#209,#210));
#97=EDGE_LOOP('',(#211,#212,#213,#214));
#98=EDGE_LOOP('',(#215,#216,#217,#218));
#99=EDGE_LOOP('',(#219,#220,#221,#222));
#100=EDGE_LOOP('',(#223,#224,#225,#226));
#101=EDGE_LOOP('',(#227,#228,#229,#230));
#102=EDGE_LOOP('',(#231,#232,#233,#234));
#103=EDGE_LOOP('',(#235));
#104=EDGE_LOOP('',(#236));
#105=EDGE_LOOP('',(#237));
#106=EDGE_LOOP('',(#238));
#107=CIRCLE('',#270,9.75);
#108=CIRCLE('',#271,2.);
#109=CIRCLE('',#272,11.75);
#110=CIRCLE('',#274,11.75);
#111=CIRCLE('',#275,11.75);
#112=CIRCLE('',#278,8.);
#113=CIRCLE('',#279,19.75);
#114=CIRCLE('',#281,1.75);
#115=CIRCLE('',#282,1.75);
#116=CIRCLE('',#283,1.75);
#117=CIRCLE('',#284,1.75);
#118=CIRCLE('',#286,1.75);
#119=CIRCLE('',#288,1.75);
#120=CIRCLE('',#290,1.75);
#121=CIRCLE('',#292,1.75);
#122=VERTEX_POINT('',#377);
#123=VERTEX_POINT('',#379);
#124=VERTEX_POINT('',#383);
#125=VERTEX_POINT('',#385);
#126=VERTEX_POINT('',#390);
#127=VERTEX_POINT('',#394);
#128=VERTEX_POINT('',#395);
#129=VERTEX_POINT('',#397);
#130=VERTEX_POINT('',#399);
#131=VERTEX_POINT('',#402);
#132=VERTEX_POINT('',#404);
#133=VERTEX_POINT('',#406);
#134=VERTEX_POINT('',#408);
#135=VERTEX_POINT('',#411);
#136=VERTEX_POINT('',#415);
#137=VERTEX_POINT('',#419);
#138=VERTEX_POINT('',#423);
#139=VERTEX_POINT('',#427);
#140=VERTEX_POINT('',#429);
#141=VERTEX_POINT('',#433);
#142=VERTEX_POINT('',#437);
#143=EDGE_CURVE('',#122,#122,#107,.T.);
#144=EDGE_CURVE('',#122,#123,#108,.T.);
#145=EDGE_CURVE('',#123,#123,#109,.T.);
#146=EDGE_CURVE('',#123,#124,#31,.T.);
#147=EDGE_CURVE('',#125,#124,#110,.T.);
#148=EDGE_CURVE('',#124,#125,#111,.T.);
#149=EDGE_CURVE('',#125,#126,#112,.T.);
#150=EDGE_CURVE('',#126,#126,#113,.T.);
#151=EDGE_CURVE('',#127,#128,#32,.T.);
#152=EDGE_CURVE('',#129,#127,#33,.T.);
#153=EDGE_CURVE('',#130,#129,#34,.T.);
#154=EDGE_CURVE('',#128,#130,#35,.T.);
#155=EDGE_CURVE('',#131,#131,#114,.T.);
#156=EDGE_CURVE('',#132,#132,#115,.T.);
#157=EDGE_CURVE('',#133,#133,#116,.T.);
#158=EDGE_CURVE('',#134,#134,#117,.T.);
#159=EDGE_CURVE('',#135,#135,#118,.T.);
#160=EDGE_CURVE('',#135,#131,#36,.T.);
#161=EDGE_CURVE('',#136,#136,#119,.T.);
#162=EDGE_CURVE('',#136,#132,#37,.T.);
#163=EDGE_CURVE('',#137,#137,#120,.T.);
#164=EDGE_CURVE('',#137,#133,#38,.T.);
#165=EDGE_CURVE('',#138,#138,#121,.T.);
#166=EDGE_CURVE('',#138,#134,#39,.T.);
#167=EDGE_CURVE('',#127,#139,#40,.T.);
#168=EDGE_CURVE('',#140,#139,#41,.T.);
#169=EDGE_CURVE('',#129,#140,#42,.T.);
#170=EDGE_CURVE('',#141,#140,#43,.T.);
#171=EDGE_CURVE('',#130,#141,#44,.T.);
#172=EDGE_CURVE('',#142,#141,#45,.T.);
#173=EDGE_CURVE('',#128,#142,#46,.T.);
#174=EDGE_CURVE('',#139,#142,#47,.T.);
#175=ORIENTED_EDGE('',*,*,#143,.T.);
#176=ORIENTED_EDGE('',*,*,#144,.T.);
#177=ORIENTED_EDGE('',*,*,#145,.T.);
#178=ORIENTED_EDGE('',*,*,#144,.F.);
#179=ORIENTED_EDGE('',*,*,#145,.F.);
#180=ORIENTED_EDGE('',*,*,#146,.T.);
#181=ORIENTED_EDGE('',*,*,#147,.F.);
#182=ORIENTED_EDGE('',*,*,#148,.F.);
#183=ORIENTED_EDGE('',*,*,#146,.F.);
#184=ORIENTED_EDGE('',*,*,#143,.F.);
#185=ORIENTED_EDGE('',*,*,#148,.T.);
#186=ORIENTED_EDGE('',*,*,#149,.T.);
#187=ORIENTED_EDGE('',*,*,#150,.T.);
#188=ORIENTED_EDGE('',*,*,#149,.F.);
#189=ORIENTED_EDGE('',*,*,#147,.T.);
#190=ORIENTED_EDGE('',*,*,#151,.F.);
#191=ORIENTED_EDGE('',*,*,#152,.F.);
#192=ORIENTED_EDGE('',*,*,#153,.F.);
#193=ORIENTED_EDGE('',*,*,#154,.F.);
#194=ORIENTED_EDGE('',*,*,#155,.T.);
#195=ORIENTED_EDGE('',*,*,#156,.T.);
#196=ORIENTED_EDGE('',*,*,#157,.T.);
#197=ORIENTED_EDGE('',*,*,#158,.T.);
#198=ORIENTED_EDGE('',*,*,#150,.F.);
#199=ORIENTED_EDGE('',*,*,#159,.F.);
#200=ORIENTED_EDGE('',*,*,#160,.T.);
#201=ORIENTED_EDGE('',*,*,#155,.F.);
#202=ORIENTED_EDGE('',*,*,#160,.F.);
#203=ORIENTED_EDGE('',*,*,#161,.F.);
#204=ORIENTED_EDGE('',*,*,#162,.T.);
#205=ORIENTED_EDGE('',*,*,#156,.F.);
#206=ORIENTED_EDGE('',*,*,#162,.F.);
#207=ORIENTED_EDGE('',*,*,#163,.F.);
#208=ORIENTED_EDGE('',*,*,#164,.T.);
#209=ORIENTED_EDGE('',*,*,#157,.F.);
#210=ORIENTED_EDGE('',*,*,#164,.F.);
#211=ORIENTED_EDGE('',*,*,#165,.F.);
#212=ORIENTED_EDGE('',*,*,#166,.T.);
#213=ORIENTED_EDGE('',*,*,#158,.F.);
#214=ORIENTED_EDGE('',*,*,#166,.F.);
#215=ORIENTED_EDGE('',*,*,#152,.T.);
#216=ORIENTED_EDGE('',*,*,#167,.T.);
#217=ORIENTED_EDGE('',*,*,#168,.F.);
#218=ORIENTED_EDGE('',*,*,#169,.F.);
#219=ORIENTED_EDGE('',*,*,#153,.T.);
#220=ORIENTED_EDGE('',*,*,#169,.T.);
#221=ORIENTED_EDGE('',*,*,#170,.F.);
#222=ORIENTED_EDGE('',*,*,#171,.F.);
#223=ORIENTED_EDGE('',*,*,#154,.T.);
#224=ORIENTED_EDGE('',*,*,#171,.T.);
#225=ORIENTED_EDGE('',*,*,#172,.F.);
#226=ORIENTED_EDGE('',*,*,#173,.F.);
#227=ORIENTED_EDGE('',*,*,#151,.T.);
#228=ORIENTED_EDGE('',*,*,#173,.T.);
#229=ORIENTED_EDGE('',*,*,#174,.F.);
#230=ORIENTED_EDGE('',*,*,#167,.F.);
#231=ORIENTED_EDGE('',*,*,#174,.T.);
#232=ORIENTED_EDGE('',*,*,#172,.T.);
#233=ORIENTED_EDGE('',*,*,#170,.T.);
#234=ORIENTED_EDGE('',*,*,#168,.T.);
#235=ORIENTED_EDGE('',*,*,#165,.T.);
#236=ORIENTED_EDGE('',*,*,#163,.T.);
#237=ORIENTED_EDGE('',*,*,#161,.T.);
#238=ORIENTED_EDGE('',*,*,#159,.T.);
#239=TOROIDAL_SURFACE('',#269,9.75,2.);
#240=TOROIDAL_SURFACE('',#277,19.75,8.);
#241=ADVANCED_FACE('',(#70),#239,.T.);
#242=ADVANCED_FACE('',(#71),#65,.T.);
#243=ADVANCED_FACE('',(#72),#24,.T.);
#244=ADVANCED_FACE('',(#73),#240,.F.);
#245=ADVANCED_FACE('',(#74,#15,#16,#17,#18,#19),#25,.T.);
#246=ADVANCED_FACE('',(#75),#66,.F.);
#247=ADVANCED_FACE('',(#76),#67,.F.);
#248=ADVANCED_FACE('',(#77),#68,.F.);
#249=ADVANCED_FACE('',(#78),#69,.F.);
#250=ADVANCED_FACE('',(#79),#26,.T.);
#251=ADVANCED_FACE('',(#80),#27,.T.);
#252=ADVANCED_FACE('',(#81),#28,.T.);
#253=ADVANCED_FACE('',(#82),#29,.T.);
#254=ADVANCED_FACE('',(#83,#20,#21,#22,#23),#30,.F.);
#255=CLOSED_SHELL('',(#241,#242,#243,#244,#245,#246,#247,#248,#249,#250,
#251,#252,#253,#254));
#256=DERIVED_UNIT_ELEMENT(#258,1.);
#257=DERIVED_UNIT_ELEMENT(#448,-3.);
#258=(
MASS_UNIT()
NAMED_UNIT(*)
SI_UNIT(.KILO.,.GRAM.)
);
#259=DERIVED_UNIT((#256,#257));
#260=MEASURE_REPRESENTATION_ITEM('density measure',
POSITIVE_RATIO_MEASURE(7850.),#259);
#261=PROPERTY_DEFINITION_REPRESENTATION(#266,#263);
#262=PROPERTY_DEFINITION_REPRESENTATION(#267,#264);
#263=REPRESENTATION('material name',(#265),#445);
#264=REPRESENTATION('density',(#260),#445);
#265=DESCRIPTIVE_REPRESENTATION_ITEM('Steel','Steel');
#266=PROPERTY_DEFINITION('material property','material name',#455);
#267=PROPERTY_DEFINITION('material property','density of part',#455);
#268=AXIS2_PLACEMENT_3D('',#375,#298,#299);
#269=AXIS2_PLACEMENT_3D('',#376,#300,#301);
#270=AXIS2_PLACEMENT_3D('',#378,#302,#303);
#271=AXIS2_PLACEMENT_3D('',#380,#304,#305);
#272=AXIS2_PLACEMENT_3D('',#381,#306,#307);
#273=AXIS2_PLACEMENT_3D('',#382,#308,#309);
#274=AXIS2_PLACEMENT_3D('',#386,#311,#312);
#275=AXIS2_PLACEMENT_3D('',#387,#313,#314);
#276=AXIS2_PLACEMENT_3D('',#388,#315,#316);
#277=AXIS2_PLACEMENT_3D('',#389,#317,#318);
#278=AXIS2_PLACEMENT_3D('',#391,#319,#320);
#279=AXIS2_PLACEMENT_3D('',#392,#321,#322);
#280=AXIS2_PLACEMENT_3D('',#393,#323,#324);
#281=AXIS2_PLACEMENT_3D('',#403,#329,#330);
#282=AXIS2_PLACEMENT_3D('',#405,#331,#332);
#283=AXIS2_PLACEMENT_3D('',#407,#333,#334);
#284=AXIS2_PLACEMENT_3D('',#409,#335,#336);
#285=AXIS2_PLACEMENT_3D('',#410,#337,#338);
#286=AXIS2_PLACEMENT_3D('',#412,#339,#340);
#287=AXIS2_PLACEMENT_3D('',#414,#342,#343);
#288=AXIS2_PLACEMENT_3D('',#416,#344,#345);
#289=AXIS2_PLACEMENT_3D('',#418,#347,#348);
#290=AXIS2_PLACEMENT_3D('',#420,#349,#350);
#291=AXIS2_PLACEMENT_3D('',#422,#352,#353);
#292=AXIS2_PLACEMENT_3D('',#424,#354,#355);
#293=AXIS2_PLACEMENT_3D('',#426,#357,#358);
#294=AXIS2_PLACEMENT_3D('',#432,#362,#363);
#295=AXIS2_PLACEMENT_3D('',#436,#366,#367);
#296=AXIS2_PLACEMENT_3D('',#440,#370,#371);
#297=AXIS2_PLACEMENT_3D('',#442,#373,#374);
#298=DIRECTION('axis',(0.,0.,1.));
#299=DIRECTION('refdir',(1.,0.,0.));
#300=DIRECTION('center_axis',(0.,0.,1.));
#301=DIRECTION('ref_axis',(1.,0.,0.));
#302=DIRECTION('center_axis',(0.,0.,-1.));
#303=DIRECTION('ref_axis',(1.,0.,0.));
#304=DIRECTION('center_axis',(1.22464679914735E-16,-1.,0.));
#305=DIRECTION('ref_axis',(-1.,-1.22464679914735E-16,0.));
#306=DIRECTION('center_axis',(0.,0.,1.));
#307=DIRECTION('ref_axis',(1.,0.,0.));
#308=DIRECTION('center_axis',(0.,0.,1.));
#309=DIRECTION('ref_axis',(1.,0.,0.));
#310=DIRECTION('',(0.,0.,-1.));
#311=DIRECTION('center_axis',(0.,0.,-1.));
#312=DIRECTION('ref_axis',(1.,0.,0.));
#313=DIRECTION('center_axis',(0.,0.,-1.));
#314=DIRECTION('ref_axis',(1.,0.,0.));
#315=DIRECTION('center_axis',(0.,0.,1.));
#316=DIRECTION('ref_axis',(1.,0.,0.));
#317=DIRECTION('center_axis',(0.,0.,-1.));
#318=DIRECTION('ref_axis',(-1.,0.,0.));
#319=DIRECTION('center_axis',(-1.22464679914735E-16,-1.,0.));
#320=DIRECTION('ref_axis',(1.,-1.22464679914735E-16,0.));
#321=DIRECTION('center_axis',(0.,0.,1.));
#322=DIRECTION('ref_axis',(1.,0.,0.));
#323=DIRECTION('center_axis',(0.,0.,1.));
#324=DIRECTION('ref_axis',(1.,0.,0.));
#325=DIRECTION('',(1.,0.,0.));
#326=DIRECTION('',(-1.11105867816149E-16,1.,0.));
#327=DIRECTION('',(-1.,0.,0.));
#328=DIRECTION('',(0.,-1.,0.));
#329=DIRECTION('center_axis',(0.,0.,-1.));
#330=DIRECTION('ref_axis',(1.,0.,0.));
#331=DIRECTION('center_axis',(0.,0.,-1.));
#332=DIRECTION('ref_axis',(1.,0.,0.));
#333=DIRECTION('center_axis',(0.,0.,-1.));
#334=DIRECTION('ref_axis',(1.,0.,0.));
#335=DIRECTION('center_axis',(0.,0.,-1.));
#336=DIRECTION('ref_axis',(1.,0.,0.));
#337=DIRECTION('center_axis',(0.,0.,-1.));
#338=DIRECTION('ref_axis',(1.,0.,0.));
#339=DIRECTION('center_axis',(0.,0.,1.));
#340=DIRECTION('ref_axis',(1.,0.,0.));
#341=DIRECTION('',(0.,0.,1.));
#342=DIRECTION('center_axis',(0.,0.,-1.));
#343=DIRECTION('ref_axis',(1.,0.,0.));
#344=DIRECTION('center_axis',(0.,0.,1.));
#345=DIRECTION('ref_axis',(1.,0.,0.));
#346=DIRECTION('',(0.,0.,1.));
#347=DIRECTION('center_axis',(0.,0.,-1.));
#348=DIRECTION('ref_axis',(1.,0.,0.));
#349=DIRECTION('center_axis',(0.,0.,1.));
#350=DIRECTION('ref_axis',(1.,0.,0.));
#351=DIRECTION('',(0.,0.,1.));
#352=DIRECTION('center_axis',(0.,0.,-1.));
#353=DIRECTION('ref_axis',(1.,0.,0.));
#354=DIRECTION('center_axis',(0.,0.,1.));
#355=DIRECTION('ref_axis',(1.,0.,0.));
#356=DIRECTION('',(0.,0.,1.));
#357=DIRECTION('center_axis',(-1.,-1.11105867816149E-16,0.));
#358=DIRECTION('ref_axis',(-1.11105867816149E-16,1.,0.));
#359=DIRECTION('',(0.,0.,-1.));
#360=DIRECTION('',(-1.11105867816149E-16,1.,0.));
#361=DIRECTION('',(0.,0.,-1.));
#362=DIRECTION('center_axis',(0.,-1.,0.));
#363=DIRECTION('ref_axis',(-1.,0.,0.));
#364=DIRECTION('',(-1.,0.,0.));
#365=DIRECTION('',(0.,0.,-1.));
#366=DIRECTION('center_axis',(1.,0.,0.));
#367=DIRECTION('ref_axis',(0.,-1.,0.));
#368=DIRECTION('',(0.,-1.,0.));
#369=DIRECTION('',(0.,0.,-1.));
#370=DIRECTION('center_axis',(0.,1.,0.));
#371=DIRECTION('ref_axis',(1.,0.,0.));
#372=DIRECTION('',(1.,0.,0.));
#373=DIRECTION('center_axis',(0.,0.,1.));
#374=DIRECTION('ref_axis',(1.,0.,0.));
#375=CARTESIAN_POINT('',(0.,0.,0.));
#376=CARTESIAN_POINT('Origin',(0.,0.,48.));
#377=CARTESIAN_POINT('',(-9.75,1.19403062916867E-15,50.));
#378=CARTESIAN_POINT('Origin',(0.,0.,50.));
#379=CARTESIAN_POINT('',(-11.75,-1.43895998899814E-15,48.));
#380=CARTESIAN_POINT('Origin',(-9.75,-1.19403062916867E-15,48.));
#381=CARTESIAN_POINT('Origin',(0.,0.,48.));
#382=CARTESIAN_POINT('Origin',(0.,0.,0.));
#383=CARTESIAN_POINT('',(-11.75,1.43895998899814E-15,8.));
#384=CARTESIAN_POINT('',(-11.75,-1.43895998899814E-15,0.));
#385=CARTESIAN_POINT('',(11.75,-1.43895998899814E-15,8.));
#386=CARTESIAN_POINT('Origin',(0.,0.,8.));
#387=CARTESIAN_POINT('Origin',(0.,0.,8.));
#388=CARTESIAN_POINT('Origin',(0.,0.,50.));
#389=CARTESIAN_POINT('Origin',(0.,0.,8.));
#390=CARTESIAN_POINT('',(19.75,-2.41867742831602E-15,0.));
#391=CARTESIAN_POINT('Origin',(19.75,-2.41867742831602E-15,8.));
#392=CARTESIAN_POINT('Origin',(0.,0.,0.));
#393=CARTESIAN_POINT('Origin',(-4.44089209850063E-15,-2.22044604925031E-15,
0.));
#394=CARTESIAN_POINT('',(-21.8810306921978,19.9849575264969,0.));
#395=CARTESIAN_POINT('',(21.8810306921978,19.9849575264969,0.));
#396=CARTESIAN_POINT('',(-21.8810306921978,19.9849575264969,0.));
#397=CARTESIAN_POINT('',(-21.8810306921978,-19.9849575264969,0.));
#398=CARTESIAN_POINT('',(-21.8810306921978,-19.9849575264969,0.));
#399=CARTESIAN_POINT('',(21.8810306921978,-19.9849575264969,0.));
#400=CARTESIAN_POINT('',(21.8810306921978,-19.9849575264969,0.));
#401=CARTESIAN_POINT('',(21.8810306921978,19.9849575264969,0.));
#402=CARTESIAN_POINT('',(-18.3634186466603,15.17380377067,0.));
#403=CARTESIAN_POINT('Origin',(-16.6134186466603,15.17380377067,0.));
#404=CARTESIAN_POINT('',(-18.3634186466603,-15.17380377067,0.));
#405=CARTESIAN_POINT('Origin',(-16.6134186466603,-15.17380377067,0.));
#406=CARTESIAN_POINT('',(14.8634186466603,-15.17380377067,0.));
#407=CARTESIAN_POINT('Origin',(16.6134186466603,-15.17380377067,0.));
#408=CARTESIAN_POINT('',(14.8634186466603,15.17380377067,0.));
#409=CARTESIAN_POINT('Origin',(16.6134186466603,15.17380377067,0.));
#410=CARTESIAN_POINT('Origin',(-16.6134186466603,15.17380377067,0.));
#411=CARTESIAN_POINT('',(-18.3634186466603,15.17380377067,-3.));
#412=CARTESIAN_POINT('Origin',(-16.6134186466603,15.17380377067,-3.));
#413=CARTESIAN_POINT('',(-18.3634186466603,15.17380377067,0.));
#414=CARTESIAN_POINT('Origin',(-16.6134186466603,-15.17380377067,0.));
#415=CARTESIAN_POINT('',(-18.3634186466603,-15.17380377067,-3.));
#416=CARTESIAN_POINT('Origin',(-16.6134186466603,-15.17380377067,-3.));
#417=CARTESIAN_POINT('',(-18.3634186466603,-15.17380377067,0.));
#418=CARTESIAN_POINT('Origin',(16.6134186466603,-15.17380377067,0.));
#419=CARTESIAN_POINT('',(14.8634186466603,-15.17380377067,-3.));
#420=CARTESIAN_POINT('Origin',(16.6134186466603,-15.17380377067,-3.));
#421=CARTESIAN_POINT('',(14.8634186466603,-15.17380377067,0.));
#422=CARTESIAN_POINT('Origin',(16.6134186466603,15.17380377067,0.));
#423=CARTESIAN_POINT('',(14.8634186466603,15.17380377067,-3.));
#424=CARTESIAN_POINT('Origin',(16.6134186466603,15.17380377067,-3.));
#425=CARTESIAN_POINT('',(14.8634186466603,15.17380377067,0.));
#426=CARTESIAN_POINT('Origin',(-21.8810306921978,-19.9849575264969,0.));
#427=CARTESIAN_POINT('',(-21.8810306921978,19.9849575264969,-3.));
#428=CARTESIAN_POINT('',(-21.8810306921978,19.9849575264969,0.));
#429=CARTESIAN_POINT('',(-21.8810306921978,-19.9849575264969,-3.));
#430=CARTESIAN_POINT('',(-21.8810306921978,-19.9849575264969,-3.));
#431=CARTESIAN_POINT('',(-21.8810306921978,-19.9849575264969,0.));
#432=CARTESIAN_POINT('Origin',(21.8810306921978,-19.9849575264969,0.));
#433=CARTESIAN_POINT('',(21.8810306921978,-19.9849575264969,-3.));
#434=CARTESIAN_POINT('',(21.8810306921978,-19.9849575264969,-3.));
#435=CARTESIAN_POINT('',(21.8810306921978,-19.9849575264969,0.));
#436=CARTESIAN_POINT('Origin',(21.8810306921978,19.9849575264969,0.));
#437=CARTESIAN_POINT('',(21.8810306921978,19.9849575264969,-3.));
#438=CARTESIAN_POINT('',(21.8810306921978,19.9849575264969,-3.));
#439=CARTESIAN_POINT('',(21.8810306921978,19.9849575264969,0.));
#440=CARTESIAN_POINT('Origin',(-21.8810306921978,19.9849575264969,0.));
#441=CARTESIAN_POINT('',(-21.8810306921978,19.9849575264969,-3.));
#442=CARTESIAN_POINT('Origin',(-4.44089209850063E-15,-2.22044604925031E-15,
-3.));
#443=UNCERTAINTY_MEASURE_WITH_UNIT(LENGTH_MEASURE(0.01),#447,
'DISTANCE_ACCURACY_VALUE',
'Maximum model space distance between geometric entities at asserted c
onnectivities');
#444=UNCERTAINTY_MEASURE_WITH_UNIT(LENGTH_MEASURE(0.01),#447,
'DISTANCE_ACCURACY_VALUE',
'Maximum model space distance between geometric entities at asserted c
onnectivities');
#445=(
GEOMETRIC_REPRESENTATION_CONTEXT(3)
GLOBAL_UNCERTAINTY_ASSIGNED_CONTEXT((#443))
GLOBAL_UNIT_ASSIGNED_CONTEXT((#447,#449,#450))
REPRESENTATION_CONTEXT('','3D')
);
#446=(
GEOMETRIC_REPRESENTATION_CONTEXT(3)
GLOBAL_UNCERTAINTY_ASSIGNED_CONTEXT((#444))
GLOBAL_UNIT_ASSIGNED_CONTEXT((#447,#449,#450))
REPRESENTATION_CONTEXT('','3D')
);
#447=(
LENGTH_UNIT()
NAMED_UNIT(*)
SI_UNIT(.MILLI.,.METRE.)
);
#448=(
LENGTH_UNIT()
NAMED_UNIT(*)
SI_UNIT($,.METRE.)
);
#449=(
NAMED_UNIT(*)
PLANE_ANGLE_UNIT()
SI_UNIT($,.RADIAN.)
);
#450=(
NAMED_UNIT(*)
SI_UNIT($,.STERADIAN.)
SOLID_ANGLE_UNIT()
);
#451=SHAPE_DEFINITION_REPRESENTATION(#452,#453);
#452=PRODUCT_DEFINITION_SHAPE('',$,#455);
#453=SHAPE_REPRESENTATION('',(#268),#445);
#454=PRODUCT_DEFINITION_CONTEXT('part definition',#459,'design');
#455=PRODUCT_DEFINITION('2026-07-22-07-25-28-399',
'Rover Counterweight Holder',#456,#454);
#456=PRODUCT_DEFINITION_FORMATION('',$,#461);
#457=PRODUCT_RELATED_PRODUCT_CATEGORY('Rover Counterweight Holder',
'Rover Counterweight Holder',(#461));
#458=APPLICATION_PROTOCOL_DEFINITION('international standard',
'automotive_design',2009,#459);
#459=APPLICATION_CONTEXT(
'Core Data for Automotive Mechanical Design Process');
#460=PRODUCT_CONTEXT('part definition',#459,'mechanical');
#461=PRODUCT('2026-07-22-07-25-28-399','Rover Counterweight Holder',$,(#460));
#462=PRESENTATION_STYLE_ASSIGNMENT((#463));
#463=SURFACE_STYLE_USAGE(.BOTH.,#464);
#464=SURFACE_SIDE_STYLE('',(#465));
#465=SURFACE_STYLE_FILL_AREA(#466);
#466=FILL_AREA_STYLE('Steel - Satin',(#467));
#467=FILL_AREA_STYLE_COLOUR('Steel - Satin',#468);
#468=COLOUR_RGB('Steel - Satin',0.627450980392157,0.627450980392157,0.627450980392157);
ENDSEC;
END-ISO-10303-21;
