ISO-10303-21;
HEADER;
/* Generated by software containing ST-Developer
 * from STEP Tools, Inc. (www.steptools.com) 
 */

FILE_DESCRIPTION(
/* description */ (''),
/* implementation_level */ '2;1');

FILE_NAME(
/* name */ 'elbow-wrist-link.step',
/* time_stamp */ '2026-07-29T23:18:49-04:00',
/* author */ (''),
/* organization */ (''),
/* preprocessor_version */ 'ST-DEVELOPER v20.1',
/* originating_system */ 'Autodesk Translation Framework v15.8.0.0',
/* authorisation */ '');

FILE_SCHEMA (('AUTOMOTIVE_DESIGN { 1 0 10303 214 3 1 1 }'));
ENDSEC;

DATA;
#10=MECHANICAL_DESIGN_GEOMETRIC_PRESENTATION_REPRESENTATION('',(#13),#1893);
#11=SHAPE_REPRESENTATION_RELATIONSHIP('SRR','None',#1900,#12);
#12=ADVANCED_BREP_SHAPE_REPRESENTATION('',(#14),#1892);
#13=STYLED_ITEM('',(#1909),#14);
#14=MANIFOLD_SOLID_BREP('Body1',#1201);
#15=FACE_BOUND('',#160,.T.);
#16=FACE_BOUND('',#161,.T.);
#17=FACE_BOUND('',#162,.T.);
#18=FACE_BOUND('',#163,.T.);
#19=FACE_BOUND('',#165,.T.);
#20=FACE_BOUND('',#166,.T.);
#21=FACE_BOUND('',#167,.T.);
#22=FACE_BOUND('',#168,.T.);
#23=FACE_BOUND('',#173,.T.);
#24=FACE_BOUND('',#174,.T.);
#25=FACE_BOUND('',#175,.T.);
#26=FACE_BOUND('',#176,.T.);
#27=FACE_BOUND('',#192,.T.);
#28=FACE_BOUND('',#193,.T.);
#29=FACE_BOUND('',#194,.T.);
#30=FACE_BOUND('',#195,.T.);
#31=FACE_BOUND('',#212,.T.);
#32=FACE_BOUND('',#213,.T.);
#33=FACE_BOUND('',#214,.T.);
#34=FACE_BOUND('',#215,.T.);
#35=FACE_BOUND('',#217,.T.);
#36=FACE_BOUND('',#218,.T.);
#37=FACE_BOUND('',#220,.T.);
#38=FACE_BOUND('',#221,.T.);
#39=FACE_BOUND('',#222,.T.);
#40=FACE_BOUND('',#223,.T.);
#41=FACE_BOUND('',#224,.T.);
#42=FACE_BOUND('',#226,.T.);
#43=FACE_BOUND('',#227,.T.);
#44=FACE_BOUND('',#229,.T.);
#45=FACE_BOUND('',#230,.T.);
#46=FACE_BOUND('',#231,.T.);
#47=FACE_BOUND('',#232,.T.);
#48=FACE_BOUND('',#233,.T.);
#49=FACE_BOUND('',#235,.T.);
#50=FACE_BOUND('',#236,.T.);
#51=FACE_BOUND('',#237,.T.);
#52=FACE_BOUND('',#238,.T.);
#53=PLANE('',#1239);
#54=PLANE('',#1240);
#55=PLANE('',#1241);
#56=PLANE('',#1242);
#57=PLANE('',#1243);
#58=PLANE('',#1244);
#59=PLANE('',#1245);
#60=PLANE('',#1246);
#61=PLANE('',#1247);
#62=PLANE('',#1248);
#63=PLANE('',#1249);
#64=PLANE('',#1250);
#65=PLANE('',#1251);
#66=PLANE('',#1252);
#67=PLANE('',#1253);
#68=PLANE('',#1254);
#69=PLANE('',#1255);
#70=PLANE('',#1256);
#71=PLANE('',#1257);
#72=PLANE('',#1258);
#73=PLANE('',#1259);
#74=PLANE('',#1260);
#75=PLANE('',#1261);
#76=PLANE('',#1262);
#77=PLANE('',#1263);
#78=PLANE('',#1264);
#79=PLANE('',#1265);
#80=PLANE('',#1266);
#81=PLANE('',#1267);
#82=PLANE('',#1268);
#83=PLANE('',#1269);
#84=PLANE('',#1270);
#85=PLANE('',#1271);
#86=PLANE('',#1272);
#87=PLANE('',#1273);
#88=PLANE('',#1274);
#89=PLANE('',#1275);
#90=PLANE('',#1276);
#91=PLANE('',#1277);
#92=PLANE('',#1278);
#93=PLANE('',#1279);
#94=PLANE('',#1280);
#95=PLANE('',#1281);
#96=PLANE('',#1282);
#97=FACE_OUTER_BOUND('',#149,.T.);
#98=FACE_OUTER_BOUND('',#150,.T.);
#99=FACE_OUTER_BOUND('',#151,.T.);
#100=FACE_OUTER_BOUND('',#152,.T.);
#101=FACE_OUTER_BOUND('',#153,.T.);
#102=FACE_OUTER_BOUND('',#154,.T.);
#103=FACE_OUTER_BOUND('',#155,.T.);
#104=FACE_OUTER_BOUND('',#156,.T.);
#105=FACE_OUTER_BOUND('',#157,.T.);
#106=FACE_OUTER_BOUND('',#158,.T.);
#107=FACE_OUTER_BOUND('',#159,.T.);
#108=FACE_OUTER_BOUND('',#164,.T.);
#109=FACE_OUTER_BOUND('',#169,.T.);
#110=FACE_OUTER_BOUND('',#170,.T.);
#111=FACE_OUTER_BOUND('',#171,.T.);
#112=FACE_OUTER_BOUND('',#172,.T.);
#113=FACE_OUTER_BOUND('',#177,.T.);
#114=FACE_OUTER_BOUND('',#178,.T.);
#115=FACE_OUTER_BOUND('',#179,.T.);
#116=FACE_OUTER_BOUND('',#180,.T.);
#117=FACE_OUTER_BOUND('',#181,.T.);
#118=FACE_OUTER_BOUND('',#182,.T.);
#119=FACE_OUTER_BOUND('',#183,.T.);
#120=FACE_OUTER_BOUND('',#184,.T.);
#121=FACE_OUTER_BOUND('',#185,.T.);
#122=FACE_OUTER_BOUND('',#186,.T.);
#123=FACE_OUTER_BOUND('',#187,.T.);
#124=FACE_OUTER_BOUND('',#188,.T.);
#125=FACE_OUTER_BOUND('',#189,.T.);
#126=FACE_OUTER_BOUND('',#190,.T.);
#127=FACE_OUTER_BOUND('',#191,.T.);
#128=FACE_OUTER_BOUND('',#196,.T.);
#129=FACE_OUTER_BOUND('',#197,.T.);
#130=FACE_OUTER_BOUND('',#198,.T.);
#131=FACE_OUTER_BOUND('',#199,.T.);
#132=FACE_OUTER_BOUND('',#200,.T.);
#133=FACE_OUTER_BOUND('',#201,.T.);
#134=FACE_OUTER_BOUND('',#202,.T.);
#135=FACE_OUTER_BOUND('',#203,.T.);
#136=FACE_OUTER_BOUND('',#204,.T.);
#137=FACE_OUTER_BOUND('',#205,.T.);
#138=FACE_OUTER_BOUND('',#206,.T.);
#139=FACE_OUTER_BOUND('',#207,.T.);
#140=FACE_OUTER_BOUND('',#208,.T.);
#141=FACE_OUTER_BOUND('',#209,.T.);
#142=FACE_OUTER_BOUND('',#210,.T.);
#143=FACE_OUTER_BOUND('',#211,.T.);
#144=FACE_OUTER_BOUND('',#216,.T.);
#145=FACE_OUTER_BOUND('',#219,.T.);
#146=FACE_OUTER_BOUND('',#225,.T.);
#147=FACE_OUTER_BOUND('',#228,.T.);
#148=FACE_OUTER_BOUND('',#234,.T.);
#149=EDGE_LOOP('',(#817,#818,#819,#820));
#150=EDGE_LOOP('',(#821,#822,#823,#824));
#151=EDGE_LOOP('',(#825,#826,#827,#828));
#152=EDGE_LOOP('',(#829,#830,#831,#832));
#153=EDGE_LOOP('',(#833,#834,#835,#836));
#154=EDGE_LOOP('',(#837,#838,#839,#840));
#155=EDGE_LOOP('',(#841,#842,#843,#844));
#156=EDGE_LOOP('',(#845,#846,#847,#848));
#157=EDGE_LOOP('',(#849,#850,#851,#852));
#158=EDGE_LOOP('',(#853,#854,#855,#856));
#159=EDGE_LOOP('',(#857,#858,#859,#860,#861,#862,#863,#864));
#160=EDGE_LOOP('',(#865));
#161=EDGE_LOOP('',(#866));
#162=EDGE_LOOP('',(#867));
#163=EDGE_LOOP('',(#868));
#164=EDGE_LOOP('',(#869,#870,#871,#872,#873,#874,#875,#876));
#165=EDGE_LOOP('',(#877));
#166=EDGE_LOOP('',(#878));
#167=EDGE_LOOP('',(#879));
#168=EDGE_LOOP('',(#880));
#169=EDGE_LOOP('',(#881,#882,#883,#884));
#170=EDGE_LOOP('',(#885,#886,#887,#888));
#171=EDGE_LOOP('',(#889,#890,#891,#892,#893,#894));
#172=EDGE_LOOP('',(#895,#896,#897,#898));
#173=EDGE_LOOP('',(#899));
#174=EDGE_LOOP('',(#900));
#175=EDGE_LOOP('',(#901));
#176=EDGE_LOOP('',(#902));
#177=EDGE_LOOP('',(#903,#904,#905,#906));
#178=EDGE_LOOP('',(#907,#908,#909,#910));
#179=EDGE_LOOP('',(#911,#912,#913,#914));
#180=EDGE_LOOP('',(#915,#916,#917,#918));
#181=EDGE_LOOP('',(#919,#920,#921,#922));
#182=EDGE_LOOP('',(#923,#924,#925,#926));
#183=EDGE_LOOP('',(#927,#928,#929,#930));
#184=EDGE_LOOP('',(#931,#932,#933,#934));
#185=EDGE_LOOP('',(#935,#936,#937,#938));
#186=EDGE_LOOP('',(#939,#940,#941,#942));
#187=EDGE_LOOP('',(#943,#944,#945,#946));
#188=EDGE_LOOP('',(#947,#948,#949,#950));
#189=EDGE_LOOP('',(#951,#952,#953,#954));
#190=EDGE_LOOP('',(#955,#956,#957,#958));
#191=EDGE_LOOP('',(#959,#960,#961,#962,#963,#964,#965,#966,#967,#968,#969));
#192=EDGE_LOOP('',(#970,#971,#972));
#193=EDGE_LOOP('',(#973,#974,#975));
#194=EDGE_LOOP('',(#976,#977,#978));
#195=EDGE_LOOP('',(#979,#980,#981));
#196=EDGE_LOOP('',(#982,#983,#984,#985));
#197=EDGE_LOOP('',(#986,#987,#988,#989));
#198=EDGE_LOOP('',(#990,#991,#992,#993));
#199=EDGE_LOOP('',(#994,#995,#996,#997));
#200=EDGE_LOOP('',(#998,#999,#1000,#1001,#1002,#1003,#1004,#1005,#1006,
#1007,#1008,#1009,#1010,#1011));
#201=EDGE_LOOP('',(#1012,#1013,#1014,#1015));
#202=EDGE_LOOP('',(#1016,#1017,#1018,#1019));
#203=EDGE_LOOP('',(#1020,#1021,#1022,#1023));
#204=EDGE_LOOP('',(#1024,#1025,#1026,#1027));
#205=EDGE_LOOP('',(#1028,#1029,#1030,#1031));
#206=EDGE_LOOP('',(#1032,#1033,#1034,#1035));
#207=EDGE_LOOP('',(#1036,#1037,#1038,#1039));
#208=EDGE_LOOP('',(#1040,#1041,#1042,#1043));
#209=EDGE_LOOP('',(#1044,#1045,#1046,#1047));
#210=EDGE_LOOP('',(#1048,#1049,#1050,#1051));
#211=EDGE_LOOP('',(#1052,#1053,#1054,#1055,#1056,#1057,#1058,#1059,#1060,
#1061,#1062));
#212=EDGE_LOOP('',(#1063,#1064,#1065));
#213=EDGE_LOOP('',(#1066,#1067,#1068));
#214=EDGE_LOOP('',(#1069,#1070,#1071));
#215=EDGE_LOOP('',(#1072,#1073,#1074));
#216=EDGE_LOOP('',(#1075,#1076,#1077,#1078));
#217=EDGE_LOOP('',(#1079,#1080,#1081));
#218=EDGE_LOOP('',(#1082,#1083,#1084));
#219=EDGE_LOOP('',(#1085,#1086,#1087,#1088));
#220=EDGE_LOOP('',(#1089,#1090,#1091));
#221=EDGE_LOOP('',(#1092,#1093,#1094));
#222=EDGE_LOOP('',(#1095,#1096,#1097));
#223=EDGE_LOOP('',(#1098,#1099,#1100));
#224=EDGE_LOOP('',(#1101,#1102,#1103));
#225=EDGE_LOOP('',(#1104,#1105,#1106,#1107));
#226=EDGE_LOOP('',(#1108,#1109,#1110));
#227=EDGE_LOOP('',(#1111,#1112,#1113));
#228=EDGE_LOOP('',(#1114,#1115,#1116,#1117));
#229=EDGE_LOOP('',(#1118,#1119,#1120));
#230=EDGE_LOOP('',(#1121,#1122,#1123));
#231=EDGE_LOOP('',(#1124,#1125,#1126));
#232=EDGE_LOOP('',(#1127,#1128,#1129));
#233=EDGE_LOOP('',(#1130,#1131,#1132));
#234=EDGE_LOOP('',(#1133,#1134,#1135,#1136));
#235=EDGE_LOOP('',(#1137));
#236=EDGE_LOOP('',(#1138));
#237=EDGE_LOOP('',(#1139));
#238=EDGE_LOOP('',(#1140));
#239=LINE('',#1572,#385);
#240=LINE('',#1578,#386);
#241=LINE('',#1584,#387);
#242=LINE('',#1590,#388);
#243=LINE('',#1596,#389);
#244=LINE('',#1602,#390);
#245=LINE('',#1608,#391);
#246=LINE('',#1614,#392);
#247=LINE('',#1619,#393);
#248=LINE('',#1621,#394);
#249=LINE('',#1623,#395);
#250=LINE('',#1624,#396);
#251=LINE('',#1628,#397);
#252=LINE('',#1630,#398);
#253=LINE('',#1632,#399);
#254=LINE('',#1633,#400);
#255=LINE('',#1636,#401);
#256=LINE('',#1638,#402);
#257=LINE('',#1640,#403);
#258=LINE('',#1642,#404);
#259=LINE('',#1644,#405);
#260=LINE('',#1646,#406);
#261=LINE('',#1647,#407);
#262=LINE('',#1650,#408);
#263=LINE('',#1652,#409);
#264=LINE('',#1654,#410);
#265=LINE('',#1656,#411);
#266=LINE('',#1658,#412);
#267=LINE('',#1660,#413);
#268=LINE('',#1661,#414);
#269=LINE('',#1664,#415);
#270=LINE('',#1666,#416);
#271=LINE('',#1667,#417);
#272=LINE('',#1670,#418);
#273=LINE('',#1672,#419);
#274=LINE('',#1673,#420);
#275=LINE('',#1675,#421);
#276=LINE('',#1676,#422);
#277=LINE('',#1680,#423);
#278=LINE('',#1682,#424);
#279=LINE('',#1684,#425);
#280=LINE('',#1685,#426);
#281=LINE('',#1689,#427);
#282=LINE('',#1691,#428);
#283=LINE('',#1693,#429);
#284=LINE('',#1694,#430);
#285=LINE('',#1697,#431);
#286=LINE('',#1699,#432);
#287=LINE('',#1700,#433);
#288=LINE('',#1702,#434);
#289=LINE('',#1703,#435);
#290=LINE('',#1707,#436);
#291=LINE('',#1709,#437);
#292=LINE('',#1711,#438);
#293=LINE('',#1712,#439);
#294=LINE('',#1715,#440);
#295=LINE('',#1717,#441);
#296=LINE('',#1718,#442);
#297=LINE('',#1720,#443);
#298=LINE('',#1721,#444);
#299=LINE('',#1725,#445);
#300=LINE('',#1727,#446);
#301=LINE('',#1729,#447);
#302=LINE('',#1730,#448);
#303=LINE('',#1733,#449);
#304=LINE('',#1735,#450);
#305=LINE('',#1736,#451);
#306=LINE('',#1738,#452);
#307=LINE('',#1739,#453);
#308=LINE('',#1743,#454);
#309=LINE('',#1745,#455);
#310=LINE('',#1747,#456);
#311=LINE('',#1748,#457);
#312=LINE('',#1751,#458);
#313=LINE('',#1753,#459);
#314=LINE('',#1754,#460);
#315=LINE('',#1756,#461);
#316=LINE('',#1757,#462);
#317=LINE('',#1761,#463);
#318=LINE('',#1763,#464);
#319=LINE('',#1765,#465);
#320=LINE('',#1766,#466);
#321=LINE('',#1769,#467);
#322=LINE('',#1771,#468);
#323=LINE('',#1772,#469);
#324=LINE('',#1774,#470);
#325=LINE('',#1775,#471);
#326=LINE('',#1776,#472);
#327=LINE('',#1777,#473);
#328=LINE('',#1781,#474);
#329=LINE('',#1783,#475);
#330=LINE('',#1785,#476);
#331=LINE('',#1786,#477);
#332=LINE('',#1789,#478);
#333=LINE('',#1791,#479);
#334=LINE('',#1792,#480);
#335=LINE('',#1794,#481);
#336=LINE('',#1795,#482);
#337=LINE('',#1799,#483);
#338=LINE('',#1801,#484);
#339=LINE('',#1803,#485);
#340=LINE('',#1804,#486);
#341=LINE('',#1807,#487);
#342=LINE('',#1808,#488);
#343=LINE('',#1809,#489);
#344=LINE('',#1811,#490);
#345=LINE('',#1812,#491);
#346=LINE('',#1814,#492);
#347=LINE('',#1815,#493);
#348=LINE('',#1819,#494);
#349=LINE('',#1821,#495);
#350=LINE('',#1823,#496);
#351=LINE('',#1824,#497);
#352=LINE('',#1827,#498);
#353=LINE('',#1829,#499);
#354=LINE('',#1830,#500);
#355=LINE('',#1832,#501);
#356=LINE('',#1833,#502);
#357=LINE('',#1837,#503);
#358=LINE('',#1839,#504);
#359=LINE('',#1841,#505);
#360=LINE('',#1842,#506);
#361=LINE('',#1845,#507);
#362=LINE('',#1847,#508);
#363=LINE('',#1848,#509);
#364=LINE('',#1850,#510);
#365=LINE('',#1851,#511);
#366=LINE('',#1855,#512);
#367=LINE('',#1857,#513);
#368=LINE('',#1859,#514);
#369=LINE('',#1860,#515);
#370=LINE('',#1863,#516);
#371=LINE('',#1865,#517);
#372=LINE('',#1866,#518);
#373=LINE('',#1868,#519);
#374=LINE('',#1869,#520);
#375=LINE('',#1871,#521);
#376=LINE('',#1872,#522);
#377=LINE('',#1875,#523);
#378=LINE('',#1877,#524);
#379=LINE('',#1878,#525);
#380=LINE('',#1881,#526);
#381=LINE('',#1882,#527);
#382=LINE('',#1885,#528);
#383=LINE('',#1886,#529);
#384=LINE('',#1888,#530);
#385=VECTOR('',#1289,1.75);
#386=VECTOR('',#1296,1.75);
#387=VECTOR('',#1303,1.75);
#388=VECTOR('',#1310,1.75);
#389=VECTOR('',#1317,1.75);
#390=VECTOR('',#1324,1.75);
#391=VECTOR('',#1331,1.75);
#392=VECTOR('',#1338,1.75);
#393=VECTOR('',#1343,10.);
#394=VECTOR('',#1344,10.);
#395=VECTOR('',#1345,10.);
#396=VECTOR('',#1346,10.);
#397=VECTOR('',#1349,10.);
#398=VECTOR('',#1350,10.);
#399=VECTOR('',#1351,10.);
#400=VECTOR('',#1352,10.);
#401=VECTOR('',#1355,10.);
#402=VECTOR('',#1356,10.);
#403=VECTOR('',#1357,10.);
#404=VECTOR('',#1358,10.);
#405=VECTOR('',#1359,10.);
#406=VECTOR('',#1360,10.);
#407=VECTOR('',#1361,10.);
#408=VECTOR('',#1364,10.);
#409=VECTOR('',#1365,10.);
#410=VECTOR('',#1366,10.);
#411=VECTOR('',#1367,10.);
#412=VECTOR('',#1368,10.);
#413=VECTOR('',#1369,10.);
#414=VECTOR('',#1370,10.);
#415=VECTOR('',#1373,10.);
#416=VECTOR('',#1374,10.);
#417=VECTOR('',#1375,10.);
#418=VECTOR('',#1378,10.);
#419=VECTOR('',#1379,10.);
#420=VECTOR('',#1380,10.);
#421=VECTOR('',#1383,10.);
#422=VECTOR('',#1384,10.);
#423=VECTOR('',#1387,10.);
#424=VECTOR('',#1388,10.);
#425=VECTOR('',#1389,10.);
#426=VECTOR('',#1390,10.);
#427=VECTOR('',#1393,10.);
#428=VECTOR('',#1394,10.);
#429=VECTOR('',#1395,10.);
#430=VECTOR('',#1396,10.);
#431=VECTOR('',#1399,10.);
#432=VECTOR('',#1400,10.);
#433=VECTOR('',#1401,10.);
#434=VECTOR('',#1404,10.);
#435=VECTOR('',#1405,10.);
#436=VECTOR('',#1408,10.);
#437=VECTOR('',#1409,10.);
#438=VECTOR('',#1410,10.);
#439=VECTOR('',#1411,10.);
#440=VECTOR('',#1414,10.);
#441=VECTOR('',#1415,10.);
#442=VECTOR('',#1416,10.);
#443=VECTOR('',#1419,10.);
#444=VECTOR('',#1420,10.);
#445=VECTOR('',#1423,10.);
#446=VECTOR('',#1424,10.);
#447=VECTOR('',#1425,10.);
#448=VECTOR('',#1426,10.);
#449=VECTOR('',#1429,10.);
#450=VECTOR('',#1430,10.);
#451=VECTOR('',#1431,10.);
#452=VECTOR('',#1434,10.);
#453=VECTOR('',#1435,10.);
#454=VECTOR('',#1438,10.);
#455=VECTOR('',#1439,10.);
#456=VECTOR('',#1440,10.);
#457=VECTOR('',#1441,10.);
#458=VECTOR('',#1444,10.);
#459=VECTOR('',#1445,10.);
#460=VECTOR('',#1446,10.);
#461=VECTOR('',#1449,10.);
#462=VECTOR('',#1450,10.);
#463=VECTOR('',#1453,10.);
#464=VECTOR('',#1454,10.);
#465=VECTOR('',#1455,10.);
#466=VECTOR('',#1456,10.);
#467=VECTOR('',#1459,10.);
#468=VECTOR('',#1460,10.);
#469=VECTOR('',#1461,10.);
#470=VECTOR('',#1464,10.);
#471=VECTOR('',#1465,10.);
#472=VECTOR('',#1466,10.);
#473=VECTOR('',#1467,10.);
#474=VECTOR('',#1470,10.);
#475=VECTOR('',#1471,10.);
#476=VECTOR('',#1472,10.);
#477=VECTOR('',#1473,10.);
#478=VECTOR('',#1476,10.);
#479=VECTOR('',#1477,10.);
#480=VECTOR('',#1478,10.);
#481=VECTOR('',#1481,10.);
#482=VECTOR('',#1482,10.);
#483=VECTOR('',#1485,10.);
#484=VECTOR('',#1486,10.);
#485=VECTOR('',#1487,10.);
#486=VECTOR('',#1488,10.);
#487=VECTOR('',#1491,10.);
#488=VECTOR('',#1492,10.);
#489=VECTOR('',#1493,10.);
#490=VECTOR('',#1494,10.);
#491=VECTOR('',#1495,10.);
#492=VECTOR('',#1498,10.);
#493=VECTOR('',#1499,10.);
#494=VECTOR('',#1502,10.);
#495=VECTOR('',#1503,10.);
#496=VECTOR('',#1504,10.);
#497=VECTOR('',#1505,10.);
#498=VECTOR('',#1508,10.);
#499=VECTOR('',#1509,10.);
#500=VECTOR('',#1510,10.);
#501=VECTOR('',#1513,10.);
#502=VECTOR('',#1514,10.);
#503=VECTOR('',#1517,10.);
#504=VECTOR('',#1518,10.);
#505=VECTOR('',#1519,10.);
#506=VECTOR('',#1520,10.);
#507=VECTOR('',#1523,10.);
#508=VECTOR('',#1524,10.);
#509=VECTOR('',#1525,10.);
#510=VECTOR('',#1528,10.);
#511=VECTOR('',#1529,10.);
#512=VECTOR('',#1532,10.);
#513=VECTOR('',#1533,10.);
#514=VECTOR('',#1534,10.);
#515=VECTOR('',#1535,10.);
#516=VECTOR('',#1538,10.);
#517=VECTOR('',#1539,10.);
#518=VECTOR('',#1540,10.);
#519=VECTOR('',#1543,10.);
#520=VECTOR('',#1544,10.);
#521=VECTOR('',#1547,10.);
#522=VECTOR('',#1548,10.);
#523=VECTOR('',#1551,10.);
#524=VECTOR('',#1552,10.);
#525=VECTOR('',#1553,10.);
#526=VECTOR('',#1556,10.);
#527=VECTOR('',#1557,10.);
#528=VECTOR('',#1560,10.);
#529=VECTOR('',#1561,10.);
#530=VECTOR('',#1564,10.);
#531=CIRCLE('',#1216,1.75);
#532=CIRCLE('',#1217,1.75);
#533=CIRCLE('',#1219,1.75);
#534=CIRCLE('',#1220,1.75);
#535=CIRCLE('',#1222,1.75);
#536=CIRCLE('',#1223,1.75);
#537=CIRCLE('',#1225,1.75);
#538=CIRCLE('',#1226,1.75);
#539=CIRCLE('',#1228,1.75);
#540=CIRCLE('',#1229,1.75);
#541=CIRCLE('',#1231,1.75);
#542=CIRCLE('',#1232,1.75);
#543=CIRCLE('',#1234,1.75);
#544=CIRCLE('',#1235,1.75);
#545=CIRCLE('',#1237,1.75);
#546=CIRCLE('',#1238,1.75);
#547=VERTEX_POINT('',#1569);
#548=VERTEX_POINT('',#1571);
#549=VERTEX_POINT('',#1575);
#550=VERTEX_POINT('',#1577);
#551=VERTEX_POINT('',#1581);
#552=VERTEX_POINT('',#1583);
#553=VERTEX_POINT('',#1587);
#554=VERTEX_POINT('',#1589);
#555=VERTEX_POINT('',#1593);
#556=VERTEX_POINT('',#1595);
#557=VERTEX_POINT('',#1599);
#558=VERTEX_POINT('',#1601);
#559=VERTEX_POINT('',#1605);
#560=VERTEX_POINT('',#1607);
#561=VERTEX_POINT('',#1611);
#562=VERTEX_POINT('',#1613);
#563=VERTEX_POINT('',#1617);
#564=VERTEX_POINT('',#1618);
#565=VERTEX_POINT('',#1620);
#566=VERTEX_POINT('',#1622);
#567=VERTEX_POINT('',#1626);
#568=VERTEX_POINT('',#1627);
#569=VERTEX_POINT('',#1629);
#570=VERTEX_POINT('',#1631);
#571=VERTEX_POINT('',#1635);
#572=VERTEX_POINT('',#1637);
#573=VERTEX_POINT('',#1639);
#574=VERTEX_POINT('',#1641);
#575=VERTEX_POINT('',#1643);
#576=VERTEX_POINT('',#1645);
#577=VERTEX_POINT('',#1649);
#578=VERTEX_POINT('',#1651);
#579=VERTEX_POINT('',#1653);
#580=VERTEX_POINT('',#1655);
#581=VERTEX_POINT('',#1657);
#582=VERTEX_POINT('',#1659);
#583=VERTEX_POINT('',#1663);
#584=VERTEX_POINT('',#1665);
#585=VERTEX_POINT('',#1669);
#586=VERTEX_POINT('',#1671);
#587=VERTEX_POINT('',#1678);
#588=VERTEX_POINT('',#1679);
#589=VERTEX_POINT('',#1681);
#590=VERTEX_POINT('',#1683);
#591=VERTEX_POINT('',#1687);
#592=VERTEX_POINT('',#1688);
#593=VERTEX_POINT('',#1690);
#594=VERTEX_POINT('',#1692);
#595=VERTEX_POINT('',#1696);
#596=VERTEX_POINT('',#1698);
#597=VERTEX_POINT('',#1705);
#598=VERTEX_POINT('',#1706);
#599=VERTEX_POINT('',#1708);
#600=VERTEX_POINT('',#1710);
#601=VERTEX_POINT('',#1714);
#602=VERTEX_POINT('',#1716);
#603=VERTEX_POINT('',#1723);
#604=VERTEX_POINT('',#1724);
#605=VERTEX_POINT('',#1726);
#606=VERTEX_POINT('',#1728);
#607=VERTEX_POINT('',#1732);
#608=VERTEX_POINT('',#1734);
#609=VERTEX_POINT('',#1741);
#610=VERTEX_POINT('',#1742);
#611=VERTEX_POINT('',#1744);
#612=VERTEX_POINT('',#1746);
#613=VERTEX_POINT('',#1750);
#614=VERTEX_POINT('',#1752);
#615=VERTEX_POINT('',#1759);
#616=VERTEX_POINT('',#1760);
#617=VERTEX_POINT('',#1762);
#618=VERTEX_POINT('',#1764);
#619=VERTEX_POINT('',#1768);
#620=VERTEX_POINT('',#1770);
#621=VERTEX_POINT('',#1779);
#622=VERTEX_POINT('',#1780);
#623=VERTEX_POINT('',#1782);
#624=VERTEX_POINT('',#1784);
#625=VERTEX_POINT('',#1788);
#626=VERTEX_POINT('',#1790);
#627=VERTEX_POINT('',#1797);
#628=VERTEX_POINT('',#1798);
#629=VERTEX_POINT('',#1800);
#630=VERTEX_POINT('',#1802);
#631=VERTEX_POINT('',#1806);
#632=VERTEX_POINT('',#1810);
#633=VERTEX_POINT('',#1817);
#634=VERTEX_POINT('',#1818);
#635=VERTEX_POINT('',#1820);
#636=VERTEX_POINT('',#1822);
#637=VERTEX_POINT('',#1826);
#638=VERTEX_POINT('',#1828);
#639=VERTEX_POINT('',#1835);
#640=VERTEX_POINT('',#1836);
#641=VERTEX_POINT('',#1838);
#642=VERTEX_POINT('',#1840);
#643=VERTEX_POINT('',#1844);
#644=VERTEX_POINT('',#1846);
#645=VERTEX_POINT('',#1853);
#646=VERTEX_POINT('',#1854);
#647=VERTEX_POINT('',#1856);
#648=VERTEX_POINT('',#1858);
#649=VERTEX_POINT('',#1862);
#650=VERTEX_POINT('',#1864);
#651=VERTEX_POINT('',#1874);
#652=VERTEX_POINT('',#1876);
#653=VERTEX_POINT('',#1880);
#654=VERTEX_POINT('',#1884);
#655=EDGE_CURVE('',#547,#547,#531,.T.);
#656=EDGE_CURVE('',#547,#548,#239,.T.);
#657=EDGE_CURVE('',#548,#548,#532,.T.);
#658=EDGE_CURVE('',#549,#549,#533,.T.);
#659=EDGE_CURVE('',#549,#550,#240,.T.);
#660=EDGE_CURVE('',#550,#550,#534,.T.);
#661=EDGE_CURVE('',#551,#551,#535,.T.);
#662=EDGE_CURVE('',#551,#552,#241,.T.);
#663=EDGE_CURVE('',#552,#552,#536,.T.);
#664=EDGE_CURVE('',#553,#553,#537,.T.);
#665=EDGE_CURVE('',#553,#554,#242,.T.);
#666=EDGE_CURVE('',#554,#554,#538,.T.);
#667=EDGE_CURVE('',#555,#555,#539,.T.);
#668=EDGE_CURVE('',#555,#556,#243,.T.);
#669=EDGE_CURVE('',#556,#556,#540,.T.);
#670=EDGE_CURVE('',#557,#557,#541,.T.);
#671=EDGE_CURVE('',#557,#558,#244,.T.);
#672=EDGE_CURVE('',#558,#558,#542,.T.);
#673=EDGE_CURVE('',#559,#559,#543,.T.);
#674=EDGE_CURVE('',#559,#560,#245,.T.);
#675=EDGE_CURVE('',#560,#560,#544,.T.);
#676=EDGE_CURVE('',#561,#561,#545,.T.);
#677=EDGE_CURVE('',#561,#562,#246,.T.);
#678=EDGE_CURVE('',#562,#562,#546,.T.);
#679=EDGE_CURVE('',#563,#564,#247,.T.);
#680=EDGE_CURVE('',#565,#564,#248,.T.);
#681=EDGE_CURVE('',#566,#565,#249,.T.);
#682=EDGE_CURVE('',#563,#566,#250,.T.);
#683=EDGE_CURVE('',#567,#568,#251,.T.);
#684=EDGE_CURVE('',#569,#567,#252,.T.);
#685=EDGE_CURVE('',#570,#569,#253,.T.);
#686=EDGE_CURVE('',#568,#570,#254,.T.);
#687=EDGE_CURVE('',#570,#571,#255,.T.);
#688=EDGE_CURVE('',#571,#572,#256,.T.);
#689=EDGE_CURVE('',#572,#573,#257,.T.);
#690=EDGE_CURVE('',#573,#574,#258,.T.);
#691=EDGE_CURVE('',#574,#575,#259,.T.);
#692=EDGE_CURVE('',#575,#576,#260,.T.);
#693=EDGE_CURVE('',#576,#568,#261,.T.);
#694=EDGE_CURVE('',#566,#577,#262,.T.);
#695=EDGE_CURVE('',#577,#578,#263,.T.);
#696=EDGE_CURVE('',#579,#578,#264,.T.);
#697=EDGE_CURVE('',#579,#580,#265,.T.);
#698=EDGE_CURVE('',#580,#581,#266,.T.);
#699=EDGE_CURVE('',#582,#581,#267,.T.);
#700=EDGE_CURVE('',#563,#582,#268,.T.);
#701=EDGE_CURVE('',#579,#583,#269,.T.);
#702=EDGE_CURVE('',#584,#583,#270,.T.);
#703=EDGE_CURVE('',#580,#584,#271,.T.);
#704=EDGE_CURVE('',#585,#573,#272,.T.);
#705=EDGE_CURVE('',#586,#585,#273,.T.);
#706=EDGE_CURVE('',#574,#586,#274,.T.);
#707=EDGE_CURVE('',#581,#586,#275,.T.);
#708=EDGE_CURVE('',#575,#584,#276,.T.);
#709=EDGE_CURVE('',#587,#588,#277,.T.);
#710=EDGE_CURVE('',#588,#589,#278,.T.);
#711=EDGE_CURVE('',#589,#590,#279,.T.);
#712=EDGE_CURVE('',#590,#587,#280,.T.);
#713=EDGE_CURVE('',#591,#592,#281,.T.);
#714=EDGE_CURVE('',#592,#593,#282,.T.);
#715=EDGE_CURVE('',#593,#594,#283,.T.);
#716=EDGE_CURVE('',#591,#594,#284,.T.);
#717=EDGE_CURVE('',#592,#595,#285,.T.);
#718=EDGE_CURVE('',#595,#596,#286,.T.);
#719=EDGE_CURVE('',#596,#593,#287,.T.);
#720=EDGE_CURVE('',#595,#591,#288,.T.);
#721=EDGE_CURVE('',#594,#596,#289,.T.);
#722=EDGE_CURVE('',#597,#598,#290,.T.);
#723=EDGE_CURVE('',#598,#599,#291,.T.);
#724=EDGE_CURVE('',#599,#600,#292,.T.);
#725=EDGE_CURVE('',#597,#600,#293,.T.);
#726=EDGE_CURVE('',#598,#601,#294,.T.);
#727=EDGE_CURVE('',#601,#602,#295,.T.);
#728=EDGE_CURVE('',#602,#599,#296,.T.);
#729=EDGE_CURVE('',#601,#597,#297,.T.);
#730=EDGE_CURVE('',#600,#602,#298,.T.);
#731=EDGE_CURVE('',#603,#604,#299,.T.);
#732=EDGE_CURVE('',#604,#605,#300,.T.);
#733=EDGE_CURVE('',#605,#606,#301,.T.);
#734=EDGE_CURVE('',#603,#606,#302,.T.);
#735=EDGE_CURVE('',#604,#607,#303,.T.);
#736=EDGE_CURVE('',#607,#608,#304,.T.);
#737=EDGE_CURVE('',#608,#605,#305,.T.);
#738=EDGE_CURVE('',#607,#603,#306,.T.);
#739=EDGE_CURVE('',#606,#608,#307,.T.);
#740=EDGE_CURVE('',#609,#610,#308,.T.);
#741=EDGE_CURVE('',#610,#611,#309,.T.);
#742=EDGE_CURVE('',#611,#612,#310,.T.);
#743=EDGE_CURVE('',#609,#612,#311,.T.);
#744=EDGE_CURVE('',#610,#613,#312,.T.);
#745=EDGE_CURVE('',#613,#614,#313,.T.);
#746=EDGE_CURVE('',#614,#611,#314,.T.);
#747=EDGE_CURVE('',#613,#609,#315,.T.);
#748=EDGE_CURVE('',#612,#614,#316,.T.);
#749=EDGE_CURVE('',#615,#616,#317,.T.);
#750=EDGE_CURVE('',#616,#617,#318,.T.);
#751=EDGE_CURVE('',#617,#618,#319,.T.);
#752=EDGE_CURVE('',#615,#618,#320,.T.);
#753=EDGE_CURVE('',#616,#619,#321,.T.);
#754=EDGE_CURVE('',#619,#620,#322,.T.);
#755=EDGE_CURVE('',#620,#617,#323,.T.);
#756=EDGE_CURVE('',#576,#567,#324,.T.);
#757=EDGE_CURVE('',#578,#583,#325,.T.);
#758=EDGE_CURVE('',#577,#618,#326,.T.);
#759=EDGE_CURVE('',#569,#620,#327,.T.);
#760=EDGE_CURVE('',#621,#622,#328,.T.);
#761=EDGE_CURVE('',#621,#623,#329,.T.);
#762=EDGE_CURVE('',#624,#623,#330,.T.);
#763=EDGE_CURVE('',#622,#624,#331,.T.);
#764=EDGE_CURVE('',#622,#625,#332,.T.);
#765=EDGE_CURVE('',#626,#624,#333,.T.);
#766=EDGE_CURVE('',#625,#626,#334,.T.);
#767=EDGE_CURVE('',#625,#621,#335,.T.);
#768=EDGE_CURVE('',#623,#626,#336,.T.);
#769=EDGE_CURVE('',#627,#628,#337,.T.);
#770=EDGE_CURVE('',#627,#629,#338,.T.);
#771=EDGE_CURVE('',#630,#629,#339,.T.);
#772=EDGE_CURVE('',#628,#630,#340,.T.);
#773=EDGE_CURVE('',#628,#631,#341,.T.);
#774=EDGE_CURVE('',#571,#630,#342,.T.);
#775=EDGE_CURVE('',#619,#615,#343,.T.);
#776=EDGE_CURVE('',#632,#565,#344,.T.);
#777=EDGE_CURVE('',#631,#632,#345,.T.);
#778=EDGE_CURVE('',#631,#627,#346,.T.);
#779=EDGE_CURVE('',#629,#632,#347,.T.);
#780=EDGE_CURVE('',#633,#634,#348,.T.);
#781=EDGE_CURVE('',#633,#635,#349,.T.);
#782=EDGE_CURVE('',#636,#635,#350,.T.);
#783=EDGE_CURVE('',#634,#636,#351,.T.);
#784=EDGE_CURVE('',#634,#637,#352,.T.);
#785=EDGE_CURVE('',#638,#636,#353,.T.);
#786=EDGE_CURVE('',#637,#638,#354,.T.);
#787=EDGE_CURVE('',#637,#633,#355,.T.);
#788=EDGE_CURVE('',#635,#638,#356,.T.);
#789=EDGE_CURVE('',#639,#640,#357,.T.);
#790=EDGE_CURVE('',#639,#641,#358,.T.);
#791=EDGE_CURVE('',#642,#641,#359,.T.);
#792=EDGE_CURVE('',#640,#642,#360,.T.);
#793=EDGE_CURVE('',#640,#643,#361,.T.);
#794=EDGE_CURVE('',#644,#642,#362,.T.);
#795=EDGE_CURVE('',#643,#644,#363,.T.);
#796=EDGE_CURVE('',#643,#639,#364,.T.);
#797=EDGE_CURVE('',#641,#644,#365,.T.);
#798=EDGE_CURVE('',#645,#646,#366,.T.);
#799=EDGE_CURVE('',#645,#647,#367,.T.);
#800=EDGE_CURVE('',#648,#647,#368,.T.);
#801=EDGE_CURVE('',#646,#648,#369,.T.);
#802=EDGE_CURVE('',#646,#649,#370,.T.);
#803=EDGE_CURVE('',#650,#648,#371,.T.);
#804=EDGE_CURVE('',#649,#650,#372,.T.);
#805=EDGE_CURVE('',#649,#645,#373,.T.);
#806=EDGE_CURVE('',#647,#650,#374,.T.);
#807=EDGE_CURVE('',#564,#582,#375,.T.);
#808=EDGE_CURVE('',#585,#572,#376,.T.);
#809=EDGE_CURVE('',#651,#589,#377,.T.);
#810=EDGE_CURVE('',#652,#588,#378,.T.);
#811=EDGE_CURVE('',#651,#652,#379,.T.);
#812=EDGE_CURVE('',#653,#651,#380,.T.);
#813=EDGE_CURVE('',#653,#590,#381,.T.);
#814=EDGE_CURVE('',#654,#653,#382,.T.);
#815=EDGE_CURVE('',#587,#654,#383,.T.);
#816=EDGE_CURVE('',#652,#654,#384,.T.);
#817=ORIENTED_EDGE('',*,*,#655,.F.);
#818=ORIENTED_EDGE('',*,*,#656,.T.);
#819=ORIENTED_EDGE('',*,*,#657,.F.);
#820=ORIENTED_EDGE('',*,*,#656,.F.);
#821=ORIENTED_EDGE('',*,*,#658,.F.);
#822=ORIENTED_EDGE('',*,*,#659,.T.);
#823=ORIENTED_EDGE('',*,*,#660,.F.);
#824=ORIENTED_EDGE('',*,*,#659,.F.);
#825=ORIENTED_EDGE('',*,*,#661,.F.);
#826=ORIENTED_EDGE('',*,*,#662,.T.);
#827=ORIENTED_EDGE('',*,*,#663,.F.);
#828=ORIENTED_EDGE('',*,*,#662,.F.);
#829=ORIENTED_EDGE('',*,*,#664,.F.);
#830=ORIENTED_EDGE('',*,*,#665,.T.);
#831=ORIENTED_EDGE('',*,*,#666,.F.);
#832=ORIENTED_EDGE('',*,*,#665,.F.);
#833=ORIENTED_EDGE('',*,*,#667,.F.);
#834=ORIENTED_EDGE('',*,*,#668,.T.);
#835=ORIENTED_EDGE('',*,*,#669,.F.);
#836=ORIENTED_EDGE('',*,*,#668,.F.);
#837=ORIENTED_EDGE('',*,*,#670,.F.);
#838=ORIENTED_EDGE('',*,*,#671,.T.);
#839=ORIENTED_EDGE('',*,*,#672,.F.);
#840=ORIENTED_EDGE('',*,*,#671,.F.);
#841=ORIENTED_EDGE('',*,*,#673,.F.);
#842=ORIENTED_EDGE('',*,*,#674,.T.);
#843=ORIENTED_EDGE('',*,*,#675,.F.);
#844=ORIENTED_EDGE('',*,*,#674,.F.);
#845=ORIENTED_EDGE('',*,*,#676,.F.);
#846=ORIENTED_EDGE('',*,*,#677,.T.);
#847=ORIENTED_EDGE('',*,*,#678,.F.);
#848=ORIENTED_EDGE('',*,*,#677,.F.);
#849=ORIENTED_EDGE('',*,*,#679,.T.);
#850=ORIENTED_EDGE('',*,*,#680,.F.);
#851=ORIENTED_EDGE('',*,*,#681,.F.);
#852=ORIENTED_EDGE('',*,*,#682,.F.);
#853=ORIENTED_EDGE('',*,*,#683,.F.);
#854=ORIENTED_EDGE('',*,*,#684,.F.);
#855=ORIENTED_EDGE('',*,*,#685,.F.);
#856=ORIENTED_EDGE('',*,*,#686,.F.);
#857=ORIENTED_EDGE('',*,*,#686,.T.);
#858=ORIENTED_EDGE('',*,*,#687,.T.);
#859=ORIENTED_EDGE('',*,*,#688,.T.);
#860=ORIENTED_EDGE('',*,*,#689,.T.);
#861=ORIENTED_EDGE('',*,*,#690,.T.);
#862=ORIENTED_EDGE('',*,*,#691,.T.);
#863=ORIENTED_EDGE('',*,*,#692,.T.);
#864=ORIENTED_EDGE('',*,*,#693,.T.);
#865=ORIENTED_EDGE('',*,*,#669,.T.);
#866=ORIENTED_EDGE('',*,*,#672,.T.);
#867=ORIENTED_EDGE('',*,*,#675,.T.);
#868=ORIENTED_EDGE('',*,*,#678,.T.);
#869=ORIENTED_EDGE('',*,*,#682,.T.);
#870=ORIENTED_EDGE('',*,*,#694,.T.);
#871=ORIENTED_EDGE('',*,*,#695,.T.);
#872=ORIENTED_EDGE('',*,*,#696,.F.);
#873=ORIENTED_EDGE('',*,*,#697,.T.);
#874=ORIENTED_EDGE('',*,*,#698,.T.);
#875=ORIENTED_EDGE('',*,*,#699,.F.);
#876=ORIENTED_EDGE('',*,*,#700,.F.);
#877=ORIENTED_EDGE('',*,*,#657,.T.);
#878=ORIENTED_EDGE('',*,*,#660,.T.);
#879=ORIENTED_EDGE('',*,*,#663,.T.);
#880=ORIENTED_EDGE('',*,*,#666,.T.);
#881=ORIENTED_EDGE('',*,*,#701,.T.);
#882=ORIENTED_EDGE('',*,*,#702,.F.);
#883=ORIENTED_EDGE('',*,*,#703,.F.);
#884=ORIENTED_EDGE('',*,*,#697,.F.);
#885=ORIENTED_EDGE('',*,*,#704,.F.);
#886=ORIENTED_EDGE('',*,*,#705,.F.);
#887=ORIENTED_EDGE('',*,*,#706,.F.);
#888=ORIENTED_EDGE('',*,*,#690,.F.);
#889=ORIENTED_EDGE('',*,*,#706,.T.);
#890=ORIENTED_EDGE('',*,*,#707,.F.);
#891=ORIENTED_EDGE('',*,*,#698,.F.);
#892=ORIENTED_EDGE('',*,*,#703,.T.);
#893=ORIENTED_EDGE('',*,*,#708,.F.);
#894=ORIENTED_EDGE('',*,*,#691,.F.);
#895=ORIENTED_EDGE('',*,*,#709,.T.);
#896=ORIENTED_EDGE('',*,*,#710,.T.);
#897=ORIENTED_EDGE('',*,*,#711,.T.);
#898=ORIENTED_EDGE('',*,*,#712,.T.);
#899=ORIENTED_EDGE('',*,*,#655,.T.);
#900=ORIENTED_EDGE('',*,*,#658,.T.);
#901=ORIENTED_EDGE('',*,*,#661,.T.);
#902=ORIENTED_EDGE('',*,*,#664,.T.);
#903=ORIENTED_EDGE('',*,*,#713,.T.);
#904=ORIENTED_EDGE('',*,*,#714,.T.);
#905=ORIENTED_EDGE('',*,*,#715,.T.);
#906=ORIENTED_EDGE('',*,*,#716,.F.);
#907=ORIENTED_EDGE('',*,*,#717,.T.);
#908=ORIENTED_EDGE('',*,*,#718,.T.);
#909=ORIENTED_EDGE('',*,*,#719,.T.);
#910=ORIENTED_EDGE('',*,*,#714,.F.);
#911=ORIENTED_EDGE('',*,*,#720,.T.);
#912=ORIENTED_EDGE('',*,*,#716,.T.);
#913=ORIENTED_EDGE('',*,*,#721,.T.);
#914=ORIENTED_EDGE('',*,*,#718,.F.);
#915=ORIENTED_EDGE('',*,*,#722,.T.);
#916=ORIENTED_EDGE('',*,*,#723,.T.);
#917=ORIENTED_EDGE('',*,*,#724,.T.);
#918=ORIENTED_EDGE('',*,*,#725,.F.);
#919=ORIENTED_EDGE('',*,*,#726,.T.);
#920=ORIENTED_EDGE('',*,*,#727,.T.);
#921=ORIENTED_EDGE('',*,*,#728,.T.);
#922=ORIENTED_EDGE('',*,*,#723,.F.);
#923=ORIENTED_EDGE('',*,*,#729,.T.);
#924=ORIENTED_EDGE('',*,*,#725,.T.);
#925=ORIENTED_EDGE('',*,*,#730,.T.);
#926=ORIENTED_EDGE('',*,*,#727,.F.);
#927=ORIENTED_EDGE('',*,*,#731,.T.);
#928=ORIENTED_EDGE('',*,*,#732,.T.);
#929=ORIENTED_EDGE('',*,*,#733,.T.);
#930=ORIENTED_EDGE('',*,*,#734,.F.);
#931=ORIENTED_EDGE('',*,*,#735,.T.);
#932=ORIENTED_EDGE('',*,*,#736,.T.);
#933=ORIENTED_EDGE('',*,*,#737,.T.);
#934=ORIENTED_EDGE('',*,*,#732,.F.);
#935=ORIENTED_EDGE('',*,*,#738,.T.);
#936=ORIENTED_EDGE('',*,*,#734,.T.);
#937=ORIENTED_EDGE('',*,*,#739,.T.);
#938=ORIENTED_EDGE('',*,*,#736,.F.);
#939=ORIENTED_EDGE('',*,*,#740,.T.);
#940=ORIENTED_EDGE('',*,*,#741,.T.);
#941=ORIENTED_EDGE('',*,*,#742,.T.);
#942=ORIENTED_EDGE('',*,*,#743,.F.);
#943=ORIENTED_EDGE('',*,*,#744,.T.);
#944=ORIENTED_EDGE('',*,*,#745,.T.);
#945=ORIENTED_EDGE('',*,*,#746,.T.);
#946=ORIENTED_EDGE('',*,*,#741,.F.);
#947=ORIENTED_EDGE('',*,*,#747,.T.);
#948=ORIENTED_EDGE('',*,*,#743,.T.);
#949=ORIENTED_EDGE('',*,*,#748,.T.);
#950=ORIENTED_EDGE('',*,*,#745,.F.);
#951=ORIENTED_EDGE('',*,*,#749,.T.);
#952=ORIENTED_EDGE('',*,*,#750,.T.);
#953=ORIENTED_EDGE('',*,*,#751,.T.);
#954=ORIENTED_EDGE('',*,*,#752,.F.);
#955=ORIENTED_EDGE('',*,*,#753,.T.);
#956=ORIENTED_EDGE('',*,*,#754,.T.);
#957=ORIENTED_EDGE('',*,*,#755,.T.);
#958=ORIENTED_EDGE('',*,*,#750,.F.);
#959=ORIENTED_EDGE('',*,*,#684,.T.);
#960=ORIENTED_EDGE('',*,*,#756,.F.);
#961=ORIENTED_EDGE('',*,*,#692,.F.);
#962=ORIENTED_EDGE('',*,*,#708,.T.);
#963=ORIENTED_EDGE('',*,*,#702,.T.);
#964=ORIENTED_EDGE('',*,*,#757,.F.);
#965=ORIENTED_EDGE('',*,*,#695,.F.);
#966=ORIENTED_EDGE('',*,*,#758,.T.);
#967=ORIENTED_EDGE('',*,*,#751,.F.);
#968=ORIENTED_EDGE('',*,*,#755,.F.);
#969=ORIENTED_EDGE('',*,*,#759,.F.);
#970=ORIENTED_EDGE('',*,*,#748,.F.);
#971=ORIENTED_EDGE('',*,*,#742,.F.);
#972=ORIENTED_EDGE('',*,*,#746,.F.);
#973=ORIENTED_EDGE('',*,*,#739,.F.);
#974=ORIENTED_EDGE('',*,*,#733,.F.);
#975=ORIENTED_EDGE('',*,*,#737,.F.);
#976=ORIENTED_EDGE('',*,*,#730,.F.);
#977=ORIENTED_EDGE('',*,*,#724,.F.);
#978=ORIENTED_EDGE('',*,*,#728,.F.);
#979=ORIENTED_EDGE('',*,*,#721,.F.);
#980=ORIENTED_EDGE('',*,*,#715,.F.);
#981=ORIENTED_EDGE('',*,*,#719,.F.);
#982=ORIENTED_EDGE('',*,*,#760,.F.);
#983=ORIENTED_EDGE('',*,*,#761,.T.);
#984=ORIENTED_EDGE('',*,*,#762,.F.);
#985=ORIENTED_EDGE('',*,*,#763,.F.);
#986=ORIENTED_EDGE('',*,*,#764,.F.);
#987=ORIENTED_EDGE('',*,*,#763,.T.);
#988=ORIENTED_EDGE('',*,*,#765,.F.);
#989=ORIENTED_EDGE('',*,*,#766,.F.);
#990=ORIENTED_EDGE('',*,*,#767,.F.);
#991=ORIENTED_EDGE('',*,*,#766,.T.);
#992=ORIENTED_EDGE('',*,*,#768,.F.);
#993=ORIENTED_EDGE('',*,*,#761,.F.);
#994=ORIENTED_EDGE('',*,*,#769,.F.);
#995=ORIENTED_EDGE('',*,*,#770,.T.);
#996=ORIENTED_EDGE('',*,*,#771,.F.);
#997=ORIENTED_EDGE('',*,*,#772,.F.);
#998=ORIENTED_EDGE('',*,*,#773,.F.);
#999=ORIENTED_EDGE('',*,*,#772,.T.);
#1000=ORIENTED_EDGE('',*,*,#774,.F.);
#1001=ORIENTED_EDGE('',*,*,#687,.F.);
#1002=ORIENTED_EDGE('',*,*,#685,.T.);
#1003=ORIENTED_EDGE('',*,*,#759,.T.);
#1004=ORIENTED_EDGE('',*,*,#754,.F.);
#1005=ORIENTED_EDGE('',*,*,#775,.T.);
#1006=ORIENTED_EDGE('',*,*,#752,.T.);
#1007=ORIENTED_EDGE('',*,*,#758,.F.);
#1008=ORIENTED_EDGE('',*,*,#694,.F.);
#1009=ORIENTED_EDGE('',*,*,#681,.T.);
#1010=ORIENTED_EDGE('',*,*,#776,.F.);
#1011=ORIENTED_EDGE('',*,*,#777,.F.);
#1012=ORIENTED_EDGE('',*,*,#778,.F.);
#1013=ORIENTED_EDGE('',*,*,#777,.T.);
#1014=ORIENTED_EDGE('',*,*,#779,.F.);
#1015=ORIENTED_EDGE('',*,*,#770,.F.);
#1016=ORIENTED_EDGE('',*,*,#780,.F.);
#1017=ORIENTED_EDGE('',*,*,#781,.T.);
#1018=ORIENTED_EDGE('',*,*,#782,.F.);
#1019=ORIENTED_EDGE('',*,*,#783,.F.);
#1020=ORIENTED_EDGE('',*,*,#784,.F.);
#1021=ORIENTED_EDGE('',*,*,#783,.T.);
#1022=ORIENTED_EDGE('',*,*,#785,.F.);
#1023=ORIENTED_EDGE('',*,*,#786,.F.);
#1024=ORIENTED_EDGE('',*,*,#787,.F.);
#1025=ORIENTED_EDGE('',*,*,#786,.T.);
#1026=ORIENTED_EDGE('',*,*,#788,.F.);
#1027=ORIENTED_EDGE('',*,*,#781,.F.);
#1028=ORIENTED_EDGE('',*,*,#789,.F.);
#1029=ORIENTED_EDGE('',*,*,#790,.T.);
#1030=ORIENTED_EDGE('',*,*,#791,.F.);
#1031=ORIENTED_EDGE('',*,*,#792,.F.);
#1032=ORIENTED_EDGE('',*,*,#793,.F.);
#1033=ORIENTED_EDGE('',*,*,#792,.T.);
#1034=ORIENTED_EDGE('',*,*,#794,.F.);
#1035=ORIENTED_EDGE('',*,*,#795,.F.);
#1036=ORIENTED_EDGE('',*,*,#796,.F.);
#1037=ORIENTED_EDGE('',*,*,#795,.T.);
#1038=ORIENTED_EDGE('',*,*,#797,.F.);
#1039=ORIENTED_EDGE('',*,*,#790,.F.);
#1040=ORIENTED_EDGE('',*,*,#798,.F.);
#1041=ORIENTED_EDGE('',*,*,#799,.T.);
#1042=ORIENTED_EDGE('',*,*,#800,.F.);
#1043=ORIENTED_EDGE('',*,*,#801,.F.);
#1044=ORIENTED_EDGE('',*,*,#802,.F.);
#1045=ORIENTED_EDGE('',*,*,#801,.T.);
#1046=ORIENTED_EDGE('',*,*,#803,.F.);
#1047=ORIENTED_EDGE('',*,*,#804,.F.);
#1048=ORIENTED_EDGE('',*,*,#805,.F.);
#1049=ORIENTED_EDGE('',*,*,#804,.T.);
#1050=ORIENTED_EDGE('',*,*,#806,.F.);
#1051=ORIENTED_EDGE('',*,*,#799,.F.);
#1052=ORIENTED_EDGE('',*,*,#680,.T.);
#1053=ORIENTED_EDGE('',*,*,#807,.T.);
#1054=ORIENTED_EDGE('',*,*,#699,.T.);
#1055=ORIENTED_EDGE('',*,*,#707,.T.);
#1056=ORIENTED_EDGE('',*,*,#705,.T.);
#1057=ORIENTED_EDGE('',*,*,#808,.T.);
#1058=ORIENTED_EDGE('',*,*,#688,.F.);
#1059=ORIENTED_EDGE('',*,*,#774,.T.);
#1060=ORIENTED_EDGE('',*,*,#771,.T.);
#1061=ORIENTED_EDGE('',*,*,#779,.T.);
#1062=ORIENTED_EDGE('',*,*,#776,.T.);
#1063=ORIENTED_EDGE('',*,*,#806,.T.);
#1064=ORIENTED_EDGE('',*,*,#803,.T.);
#1065=ORIENTED_EDGE('',*,*,#800,.T.);
#1066=ORIENTED_EDGE('',*,*,#797,.T.);
#1067=ORIENTED_EDGE('',*,*,#794,.T.);
#1068=ORIENTED_EDGE('',*,*,#791,.T.);
#1069=ORIENTED_EDGE('',*,*,#788,.T.);
#1070=ORIENTED_EDGE('',*,*,#785,.T.);
#1071=ORIENTED_EDGE('',*,*,#782,.T.);
#1072=ORIENTED_EDGE('',*,*,#768,.T.);
#1073=ORIENTED_EDGE('',*,*,#765,.T.);
#1074=ORIENTED_EDGE('',*,*,#762,.T.);
#1075=ORIENTED_EDGE('',*,*,#809,.T.);
#1076=ORIENTED_EDGE('',*,*,#710,.F.);
#1077=ORIENTED_EDGE('',*,*,#810,.F.);
#1078=ORIENTED_EDGE('',*,*,#811,.F.);
#1079=ORIENTED_EDGE('',*,*,#693,.F.);
#1080=ORIENTED_EDGE('',*,*,#756,.T.);
#1081=ORIENTED_EDGE('',*,*,#683,.T.);
#1082=ORIENTED_EDGE('',*,*,#679,.F.);
#1083=ORIENTED_EDGE('',*,*,#700,.T.);
#1084=ORIENTED_EDGE('',*,*,#807,.F.);
#1085=ORIENTED_EDGE('',*,*,#809,.F.);
#1086=ORIENTED_EDGE('',*,*,#812,.F.);
#1087=ORIENTED_EDGE('',*,*,#813,.T.);
#1088=ORIENTED_EDGE('',*,*,#711,.F.);
#1089=ORIENTED_EDGE('',*,*,#767,.T.);
#1090=ORIENTED_EDGE('',*,*,#760,.T.);
#1091=ORIENTED_EDGE('',*,*,#764,.T.);
#1092=ORIENTED_EDGE('',*,*,#778,.T.);
#1093=ORIENTED_EDGE('',*,*,#769,.T.);
#1094=ORIENTED_EDGE('',*,*,#773,.T.);
#1095=ORIENTED_EDGE('',*,*,#787,.T.);
#1096=ORIENTED_EDGE('',*,*,#780,.T.);
#1097=ORIENTED_EDGE('',*,*,#784,.T.);
#1098=ORIENTED_EDGE('',*,*,#796,.T.);
#1099=ORIENTED_EDGE('',*,*,#789,.T.);
#1100=ORIENTED_EDGE('',*,*,#793,.T.);
#1101=ORIENTED_EDGE('',*,*,#805,.T.);
#1102=ORIENTED_EDGE('',*,*,#798,.T.);
#1103=ORIENTED_EDGE('',*,*,#802,.T.);
#1104=ORIENTED_EDGE('',*,*,#813,.F.);
#1105=ORIENTED_EDGE('',*,*,#814,.F.);
#1106=ORIENTED_EDGE('',*,*,#815,.F.);
#1107=ORIENTED_EDGE('',*,*,#712,.F.);
#1108=ORIENTED_EDGE('',*,*,#689,.F.);
#1109=ORIENTED_EDGE('',*,*,#808,.F.);
#1110=ORIENTED_EDGE('',*,*,#704,.T.);
#1111=ORIENTED_EDGE('',*,*,#701,.F.);
#1112=ORIENTED_EDGE('',*,*,#696,.T.);
#1113=ORIENTED_EDGE('',*,*,#757,.T.);
#1114=ORIENTED_EDGE('',*,*,#815,.T.);
#1115=ORIENTED_EDGE('',*,*,#816,.F.);
#1116=ORIENTED_EDGE('',*,*,#810,.T.);
#1117=ORIENTED_EDGE('',*,*,#709,.F.);
#1118=ORIENTED_EDGE('',*,*,#720,.F.);
#1119=ORIENTED_EDGE('',*,*,#717,.F.);
#1120=ORIENTED_EDGE('',*,*,#713,.F.);
#1121=ORIENTED_EDGE('',*,*,#729,.F.);
#1122=ORIENTED_EDGE('',*,*,#726,.F.);
#1123=ORIENTED_EDGE('',*,*,#722,.F.);
#1124=ORIENTED_EDGE('',*,*,#738,.F.);
#1125=ORIENTED_EDGE('',*,*,#735,.F.);
#1126=ORIENTED_EDGE('',*,*,#731,.F.);
#1127=ORIENTED_EDGE('',*,*,#747,.F.);
#1128=ORIENTED_EDGE('',*,*,#744,.F.);
#1129=ORIENTED_EDGE('',*,*,#740,.F.);
#1130=ORIENTED_EDGE('',*,*,#775,.F.);
#1131=ORIENTED_EDGE('',*,*,#753,.F.);
#1132=ORIENTED_EDGE('',*,*,#749,.F.);
#1133=ORIENTED_EDGE('',*,*,#816,.T.);
#1134=ORIENTED_EDGE('',*,*,#814,.T.);
#1135=ORIENTED_EDGE('',*,*,#812,.T.);
#1136=ORIENTED_EDGE('',*,*,#811,.T.);
#1137=ORIENTED_EDGE('',*,*,#667,.T.);
#1138=ORIENTED_EDGE('',*,*,#670,.T.);
#1139=ORIENTED_EDGE('',*,*,#673,.T.);
#1140=ORIENTED_EDGE('',*,*,#676,.T.);
#1141=CYLINDRICAL_SURFACE('',#1215,1.75);
#1142=CYLINDRICAL_SURFACE('',#1218,1.75);
#1143=CYLINDRICAL_SURFACE('',#1221,1.75);
#1144=CYLINDRICAL_SURFACE('',#1224,1.75);
#1145=CYLINDRICAL_SURFACE('',#1227,1.75);
#1146=CYLINDRICAL_SURFACE('',#1230,1.75);
#1147=CYLINDRICAL_SURFACE('',#1233,1.75);
#1148=CYLINDRICAL_SURFACE('',#1236,1.75);
#1149=ADVANCED_FACE('',(#97),#1141,.F.);
#1150=ADVANCED_FACE('',(#98),#1142,.F.);
#1151=ADVANCED_FACE('',(#99),#1143,.F.);
#1152=ADVANCED_FACE('',(#100),#1144,.F.);
#1153=ADVANCED_FACE('',(#101),#1145,.F.);
#1154=ADVANCED_FACE('',(#102),#1146,.F.);
#1155=ADVANCED_FACE('',(#103),#1147,.F.);
#1156=ADVANCED_FACE('',(#104),#1148,.F.);
#1157=ADVANCED_FACE('',(#105),#53,.T.);
#1158=ADVANCED_FACE('',(#106),#54,.T.);
#1159=ADVANCED_FACE('',(#107,#15,#16,#17,#18),#55,.T.);
#1160=ADVANCED_FACE('',(#108,#19,#20,#21,#22),#56,.F.);
#1161=ADVANCED_FACE('',(#109),#57,.T.);
#1162=ADVANCED_FACE('',(#110),#58,.T.);
#1163=ADVANCED_FACE('',(#111),#59,.T.);
#1164=ADVANCED_FACE('',(#112,#23,#24,#25,#26),#60,.T.);
#1165=ADVANCED_FACE('',(#113),#61,.F.);
#1166=ADVANCED_FACE('',(#114),#62,.F.);
#1167=ADVANCED_FACE('',(#115),#63,.F.);
#1168=ADVANCED_FACE('',(#116),#64,.F.);
#1169=ADVANCED_FACE('',(#117),#65,.F.);
#1170=ADVANCED_FACE('',(#118),#66,.F.);
#1171=ADVANCED_FACE('',(#119),#67,.F.);
#1172=ADVANCED_FACE('',(#120),#68,.F.);
#1173=ADVANCED_FACE('',(#121),#69,.F.);
#1174=ADVANCED_FACE('',(#122),#70,.F.);
#1175=ADVANCED_FACE('',(#123),#71,.F.);
#1176=ADVANCED_FACE('',(#124),#72,.F.);
#1177=ADVANCED_FACE('',(#125),#73,.F.);
#1178=ADVANCED_FACE('',(#126),#74,.F.);
#1179=ADVANCED_FACE('',(#127,#27,#28,#29,#30),#75,.F.);
#1180=ADVANCED_FACE('',(#128),#76,.T.);
#1181=ADVANCED_FACE('',(#129),#77,.T.);
#1182=ADVANCED_FACE('',(#130),#78,.T.);
#1183=ADVANCED_FACE('',(#131),#79,.T.);
#1184=ADVANCED_FACE('',(#132),#80,.T.);
#1185=ADVANCED_FACE('',(#133),#81,.T.);
#1186=ADVANCED_FACE('',(#134),#82,.T.);
#1187=ADVANCED_FACE('',(#135),#83,.T.);
#1188=ADVANCED_FACE('',(#136),#84,.T.);
#1189=ADVANCED_FACE('',(#137),#85,.T.);
#1190=ADVANCED_FACE('',(#138),#86,.T.);
#1191=ADVANCED_FACE('',(#139),#87,.T.);
#1192=ADVANCED_FACE('',(#140),#88,.T.);
#1193=ADVANCED_FACE('',(#141),#89,.T.);
#1194=ADVANCED_FACE('',(#142),#90,.T.);
#1195=ADVANCED_FACE('',(#143,#31,#32,#33,#34),#91,.T.);
#1196=ADVANCED_FACE('',(#144,#35,#36),#92,.T.);
#1197=ADVANCED_FACE('',(#145,#37,#38,#39,#40,#41),#93,.T.);
#1198=ADVANCED_FACE('',(#146,#42,#43),#94,.T.);
#1199=ADVANCED_FACE('',(#147,#44,#45,#46,#47,#48),#95,.T.);
#1200=ADVANCED_FACE('',(#148,#49,#50,#51,#52),#96,.T.);
#1201=CLOSED_SHELL('',(#1149,#1150,#1151,#1152,#1153,#1154,#1155,#1156,
#1157,#1158,#1159,#1160,#1161,#1162,#1163,#1164,#1165,#1166,#1167,#1168,
#1169,#1170,#1171,#1172,#1173,#1174,#1175,#1176,#1177,#1178,#1179,#1180,
#1181,#1182,#1183,#1184,#1185,#1186,#1187,#1188,#1189,#1190,#1191,#1192,
#1193,#1194,#1195,#1196,#1197,#1198,#1199,#1200));
#1202=DERIVED_UNIT_ELEMENT(#1204,1.);
#1203=DERIVED_UNIT_ELEMENT(#1895,-3.);
#1204=(
MASS_UNIT()
NAMED_UNIT(*)
SI_UNIT(.KILO.,.GRAM.)
);
#1205=DERIVED_UNIT((#1202,#1203));
#1206=MEASURE_REPRESENTATION_ITEM('density measure',
POSITIVE_RATIO_MEASURE(7850.),#1205);
#1207=PROPERTY_DEFINITION_REPRESENTATION(#1212,#1209);
#1208=PROPERTY_DEFINITION_REPRESENTATION(#1213,#1210);
#1209=REPRESENTATION('material name',(#1211),#1892);
#1210=REPRESENTATION('density',(#1206),#1892);
#1211=DESCRIPTIVE_REPRESENTATION_ITEM('Steel','Steel');
#1212=PROPERTY_DEFINITION('material property','material name',#1902);
#1213=PROPERTY_DEFINITION('material property','density of part',#1902);
#1214=AXIS2_PLACEMENT_3D('',#1567,#1283,#1284);
#1215=AXIS2_PLACEMENT_3D('',#1568,#1285,#1286);
#1216=AXIS2_PLACEMENT_3D('',#1570,#1287,#1288);
#1217=AXIS2_PLACEMENT_3D('',#1573,#1290,#1291);
#1218=AXIS2_PLACEMENT_3D('',#1574,#1292,#1293);
#1219=AXIS2_PLACEMENT_3D('',#1576,#1294,#1295);
#1220=AXIS2_PLACEMENT_3D('',#1579,#1297,#1298);
#1221=AXIS2_PLACEMENT_3D('',#1580,#1299,#1300);
#1222=AXIS2_PLACEMENT_3D('',#1582,#1301,#1302);
#1223=AXIS2_PLACEMENT_3D('',#1585,#1304,#1305);
#1224=AXIS2_PLACEMENT_3D('',#1586,#1306,#1307);
#1225=AXIS2_PLACEMENT_3D('',#1588,#1308,#1309);
#1226=AXIS2_PLACEMENT_3D('',#1591,#1311,#1312);
#1227=AXIS2_PLACEMENT_3D('',#1592,#1313,#1314);
#1228=AXIS2_PLACEMENT_3D('',#1594,#1315,#1316);
#1229=AXIS2_PLACEMENT_3D('',#1597,#1318,#1319);
#1230=AXIS2_PLACEMENT_3D('',#1598,#1320,#1321);
#1231=AXIS2_PLACEMENT_3D('',#1600,#1322,#1323);
#1232=AXIS2_PLACEMENT_3D('',#1603,#1325,#1326);
#1233=AXIS2_PLACEMENT_3D('',#1604,#1327,#1328);
#1234=AXIS2_PLACEMENT_3D('',#1606,#1329,#1330);
#1235=AXIS2_PLACEMENT_3D('',#1609,#1332,#1333);
#1236=AXIS2_PLACEMENT_3D('',#1610,#1334,#1335);
#1237=AXIS2_PLACEMENT_3D('',#1612,#1336,#1337);
#1238=AXIS2_PLACEMENT_3D('',#1615,#1339,#1340);
#1239=AXIS2_PLACEMENT_3D('',#1616,#1341,#1342);
#1240=AXIS2_PLACEMENT_3D('',#1625,#1347,#1348);
#1241=AXIS2_PLACEMENT_3D('',#1634,#1353,#1354);
#1242=AXIS2_PLACEMENT_3D('',#1648,#1362,#1363);
#1243=AXIS2_PLACEMENT_3D('',#1662,#1371,#1372);
#1244=AXIS2_PLACEMENT_3D('',#1668,#1376,#1377);
#1245=AXIS2_PLACEMENT_3D('',#1674,#1381,#1382);
#1246=AXIS2_PLACEMENT_3D('',#1677,#1385,#1386);
#1247=AXIS2_PLACEMENT_3D('',#1686,#1391,#1392);
#1248=AXIS2_PLACEMENT_3D('',#1695,#1397,#1398);
#1249=AXIS2_PLACEMENT_3D('',#1701,#1402,#1403);
#1250=AXIS2_PLACEMENT_3D('',#1704,#1406,#1407);
#1251=AXIS2_PLACEMENT_3D('',#1713,#1412,#1413);
#1252=AXIS2_PLACEMENT_3D('',#1719,#1417,#1418);
#1253=AXIS2_PLACEMENT_3D('',#1722,#1421,#1422);
#1254=AXIS2_PLACEMENT_3D('',#1731,#1427,#1428);
#1255=AXIS2_PLACEMENT_3D('',#1737,#1432,#1433);
#1256=AXIS2_PLACEMENT_3D('',#1740,#1436,#1437);
#1257=AXIS2_PLACEMENT_3D('',#1749,#1442,#1443);
#1258=AXIS2_PLACEMENT_3D('',#1755,#1447,#1448);
#1259=AXIS2_PLACEMENT_3D('',#1758,#1451,#1452);
#1260=AXIS2_PLACEMENT_3D('',#1767,#1457,#1458);
#1261=AXIS2_PLACEMENT_3D('',#1773,#1462,#1463);
#1262=AXIS2_PLACEMENT_3D('',#1778,#1468,#1469);
#1263=AXIS2_PLACEMENT_3D('',#1787,#1474,#1475);
#1264=AXIS2_PLACEMENT_3D('',#1793,#1479,#1480);
#1265=AXIS2_PLACEMENT_3D('',#1796,#1483,#1484);
#1266=AXIS2_PLACEMENT_3D('',#1805,#1489,#1490);
#1267=AXIS2_PLACEMENT_3D('',#1813,#1496,#1497);
#1268=AXIS2_PLACEMENT_3D('',#1816,#1500,#1501);
#1269=AXIS2_PLACEMENT_3D('',#1825,#1506,#1507);
#1270=AXIS2_PLACEMENT_3D('',#1831,#1511,#1512);
#1271=AXIS2_PLACEMENT_3D('',#1834,#1515,#1516);
#1272=AXIS2_PLACEMENT_3D('',#1843,#1521,#1522);
#1273=AXIS2_PLACEMENT_3D('',#1849,#1526,#1527);
#1274=AXIS2_PLACEMENT_3D('',#1852,#1530,#1531);
#1275=AXIS2_PLACEMENT_3D('',#1861,#1536,#1537);
#1276=AXIS2_PLACEMENT_3D('',#1867,#1541,#1542);
#1277=AXIS2_PLACEMENT_3D('',#1870,#1545,#1546);
#1278=AXIS2_PLACEMENT_3D('',#1873,#1549,#1550);
#1279=AXIS2_PLACEMENT_3D('',#1879,#1554,#1555);
#1280=AXIS2_PLACEMENT_3D('',#1883,#1558,#1559);
#1281=AXIS2_PLACEMENT_3D('',#1887,#1562,#1563);
#1282=AXIS2_PLACEMENT_3D('',#1889,#1565,#1566);
#1283=DIRECTION('axis',(0.,0.,1.));
#1284=DIRECTION('refdir',(1.,0.,0.));
#1285=DIRECTION('center_axis',(0.,0.,-1.));
#1286=DIRECTION('ref_axis',(-1.,0.,0.));
#1287=DIRECTION('center_axis',(0.,0.,-1.));
#1288=DIRECTION('ref_axis',(-1.,0.,0.));
#1289=DIRECTION('',(0.,0.,-1.));
#1290=DIRECTION('center_axis',(0.,0.,1.));
#1291=DIRECTION('ref_axis',(-1.,0.,0.));
#1292=DIRECTION('center_axis',(0.,0.,-1.));
#1293=DIRECTION('ref_axis',(-1.,0.,0.));
#1294=DIRECTION('center_axis',(0.,0.,-1.));
#1295=DIRECTION('ref_axis',(-1.,0.,0.));
#1296=DIRECTION('',(0.,0.,-1.));
#1297=DIRECTION('center_axis',(0.,0.,1.));
#1298=DIRECTION('ref_axis',(-1.,0.,0.));
#1299=DIRECTION('center_axis',(0.,0.,-1.));
#1300=DIRECTION('ref_axis',(-1.,0.,0.));
#1301=DIRECTION('center_axis',(0.,0.,-1.));
#1302=DIRECTION('ref_axis',(-1.,0.,0.));
#1303=DIRECTION('',(0.,0.,-1.));
#1304=DIRECTION('center_axis',(0.,0.,1.));
#1305=DIRECTION('ref_axis',(-1.,0.,0.));
#1306=DIRECTION('center_axis',(0.,0.,-1.));
#1307=DIRECTION('ref_axis',(-1.,0.,0.));
#1308=DIRECTION('center_axis',(0.,0.,-1.));
#1309=DIRECTION('ref_axis',(-1.,0.,0.));
#1310=DIRECTION('',(0.,0.,-1.));
#1311=DIRECTION('center_axis',(0.,0.,1.));
#1312=DIRECTION('ref_axis',(-1.,0.,0.));
#1313=DIRECTION('center_axis',(0.,0.,1.));
#1314=DIRECTION('ref_axis',(1.,0.,0.));
#1315=DIRECTION('center_axis',(0.,0.,1.));
#1316=DIRECTION('ref_axis',(1.,0.,0.));
#1317=DIRECTION('',(0.,0.,1.));
#1318=DIRECTION('center_axis',(0.,0.,-1.));
#1319=DIRECTION('ref_axis',(1.,0.,0.));
#1320=DIRECTION('center_axis',(0.,0.,1.));
#1321=DIRECTION('ref_axis',(1.,0.,0.));
#1322=DIRECTION('center_axis',(0.,0.,1.));
#1323=DIRECTION('ref_axis',(1.,0.,0.));
#1324=DIRECTION('',(0.,0.,1.));
#1325=DIRECTION('center_axis',(0.,0.,-1.));
#1326=DIRECTION('ref_axis',(1.,0.,0.));
#1327=DIRECTION('center_axis',(0.,0.,1.));
#1328=DIRECTION('ref_axis',(1.,0.,0.));
#1329=DIRECTION('center_axis',(0.,0.,1.));
#1330=DIRECTION('ref_axis',(1.,0.,0.));
#1331=DIRECTION('',(0.,0.,1.));
#1332=DIRECTION('center_axis',(0.,0.,-1.));
#1333=DIRECTION('ref_axis',(1.,0.,0.));
#1334=DIRECTION('center_axis',(0.,0.,1.));
#1335=DIRECTION('ref_axis',(1.,0.,0.));
#1336=DIRECTION('center_axis',(0.,0.,1.));
#1337=DIRECTION('ref_axis',(1.,0.,0.));
#1338=DIRECTION('',(0.,0.,1.));
#1339=DIRECTION('center_axis',(0.,0.,-1.));
#1340=DIRECTION('ref_axis',(1.,0.,0.));
#1341=DIRECTION('center_axis',(0.929203121657371,0.,0.369569423386454));
#1342=DIRECTION('ref_axis',(0.369569423386454,0.,-0.929203121657371));
#1343=DIRECTION('',(0.369569423386454,0.,-0.929203121657371));
#1344=DIRECTION('',(0.,-1.,0.));
#1345=DIRECTION('',(0.369569423386454,0.,-0.929203121657371));
#1346=DIRECTION('',(0.,1.,0.));
#1347=DIRECTION('center_axis',(-0.929203121657371,0.,-0.369569423386454));
#1348=DIRECTION('ref_axis',(-0.369569423386454,0.,0.929203121657371));
#1349=DIRECTION('',(0.369569423386454,0.,-0.929203121657371));
#1350=DIRECTION('',(0.,-1.,0.));
#1351=DIRECTION('',(-0.369569423386454,0.,0.929203121657371));
#1352=DIRECTION('',(0.,1.,0.));
#1353=DIRECTION('center_axis',(0.,0.,1.));
#1354=DIRECTION('ref_axis',(1.,0.,0.));
#1355=DIRECTION('',(1.,0.,0.));
#1356=DIRECTION('',(0.,1.,0.));
#1357=DIRECTION('',(-1.,0.,0.));
#1358=DIRECTION('',(0.,-1.,0.));
#1359=DIRECTION('',(-1.,0.,0.));
#1360=DIRECTION('',(0.,-1.,0.));
#1361=DIRECTION('',(1.,0.,0.));
#1362=DIRECTION('center_axis',(0.,0.,1.));
#1363=DIRECTION('ref_axis',(-1.,0.,0.));
#1364=DIRECTION('',(-1.,0.,0.));
#1365=DIRECTION('',(0.,1.,0.));
#1366=DIRECTION('',(-1.,0.,0.));
#1367=DIRECTION('',(0.,-1.,0.));
#1368=DIRECTION('',(1.,0.,0.));
#1369=DIRECTION('',(0.,1.,0.));
#1370=DIRECTION('',(1.,0.,0.));
#1371=DIRECTION('center_axis',(-0.929203121657371,0.,0.369569423386454));
#1372=DIRECTION('ref_axis',(-0.369569423386454,0.,-0.929203121657371));
#1373=DIRECTION('',(-0.369569423386454,0.,-0.929203121657371));
#1374=DIRECTION('',(0.,1.,0.));
#1375=DIRECTION('',(-0.369569423386454,0.,-0.929203121657371));
#1376=DIRECTION('center_axis',(0.929203121657371,0.,-0.369569423386454));
#1377=DIRECTION('ref_axis',(0.369569423386454,0.,0.929203121657371));
#1378=DIRECTION('',(-0.369569423386454,0.,-0.929203121657371));
#1379=DIRECTION('',(0.,1.,0.));
#1380=DIRECTION('',(0.369569423386454,0.,0.929203121657371));
#1381=DIRECTION('center_axis',(0.,-1.,0.));
#1382=DIRECTION('ref_axis',(0.,0.,-1.));
#1383=DIRECTION('',(0.,0.,-1.));
#1384=DIRECTION('',(0.,0.,1.));
#1385=DIRECTION('center_axis',(0.,0.,1.));
#1386=DIRECTION('ref_axis',(1.,0.,0.));
#1387=DIRECTION('',(0.,-1.,0.));
#1388=DIRECTION('',(1.,0.,0.));
#1389=DIRECTION('',(0.,1.,0.));
#1390=DIRECTION('',(-1.,0.,0.));
#1391=DIRECTION('center_axis',(0.,-1.,-3.41257077241339E-17));
#1392=DIRECTION('ref_axis',(0.,3.41257077241339E-17,-1.));
#1393=DIRECTION('',(0.,-3.41257077241339E-17,1.));
#1394=DIRECTION('',(1.,0.,0.));
#1395=DIRECTION('',(0.,3.41257077241339E-17,-1.));
#1396=DIRECTION('',(1.,0.,0.));
#1397=DIRECTION('center_axis',(0.,0.502334169177647,0.864673569895948));
#1398=DIRECTION('ref_axis',(0.,-0.864673569895948,0.502334169177647));
#1399=DIRECTION('',(0.,0.864673569895948,-0.502334169177647));
#1400=DIRECTION('',(1.,0.,0.));
#1401=DIRECTION('',(0.,-0.864673569895948,0.502334169177647));
#1402=DIRECTION('center_axis',(0.,0.502334169177646,-0.864673569895948));
#1403=DIRECTION('ref_axis',(0.,0.864673569895949,0.502334169177646));
#1404=DIRECTION('',(0.,-0.864673569895949,-0.502334169177646));
#1405=DIRECTION('',(0.,0.864673569895949,0.502334169177646));
#1406=DIRECTION('center_axis',(0.,-3.43640460003025E-16,-1.));
#1407=DIRECTION('ref_axis',(0.,1.,-3.43640460003025E-16));
#1408=DIRECTION('',(0.,-1.,3.43640460003025E-16));
#1409=DIRECTION('',(1.,0.,0.));
#1410=DIRECTION('',(0.,1.,-3.43640460003025E-16));
#1411=DIRECTION('',(1.,0.,0.));
#1412=DIRECTION('center_axis',(0.,-1.,-3.41257077241339E-17));
#1413=DIRECTION('ref_axis',(0.,3.41257077241339E-17,-1.));
#1414=DIRECTION('',(0.,-3.41257077241339E-17,1.));
#1415=DIRECTION('',(1.,0.,0.));
#1416=DIRECTION('',(0.,3.41257077241339E-17,-1.));
#1417=DIRECTION('center_axis',(0.,0.502334169177647,0.864673569895948));
#1418=DIRECTION('ref_axis',(0.,-0.864673569895948,0.502334169177647));
#1419=DIRECTION('',(0.,0.864673569895948,-0.502334169177647));
#1420=DIRECTION('',(0.,-0.864673569895948,0.502334169177647));
#1421=DIRECTION('center_axis',(0.,-0.502334169177646,0.864673569895949));
#1422=DIRECTION('ref_axis',(0.,-0.864673569895949,-0.502334169177646));
#1423=DIRECTION('',(0.,0.864673569895949,0.502334169177646));
#1424=DIRECTION('',(1.,0.,0.));
#1425=DIRECTION('',(0.,-0.864673569895949,-0.502334169177646));
#1426=DIRECTION('',(1.,0.,0.));
#1427=DIRECTION('center_axis',(0.,1.,0.));
#1428=DIRECTION('ref_axis',(0.,0.,1.));
#1429=DIRECTION('',(0.,0.,-1.));
#1430=DIRECTION('',(1.,0.,0.));
#1431=DIRECTION('',(0.,0.,1.));
#1432=DIRECTION('center_axis',(0.,-0.502334169177647,-0.864673569895948));
#1433=DIRECTION('ref_axis',(0.,0.864673569895948,-0.502334169177647));
#1434=DIRECTION('',(0.,-0.864673569895948,0.502334169177647));
#1435=DIRECTION('',(0.,0.864673569895948,-0.502334169177647));
#1436=DIRECTION('center_axis',(0.,-0.502334169177646,0.864673569895949));
#1437=DIRECTION('ref_axis',(0.,-0.864673569895949,-0.502334169177646));
#1438=DIRECTION('',(0.,0.864673569895949,0.502334169177646));
#1439=DIRECTION('',(1.,0.,0.));
#1440=DIRECTION('',(0.,-0.864673569895949,-0.502334169177646));
#1441=DIRECTION('',(1.,0.,0.));
#1442=DIRECTION('center_axis',(0.,1.,0.));
#1443=DIRECTION('ref_axis',(0.,0.,1.));
#1444=DIRECTION('',(0.,0.,-1.));
#1445=DIRECTION('',(1.,0.,0.));
#1446=DIRECTION('',(0.,0.,1.));
#1447=DIRECTION('center_axis',(0.,-0.502334169177647,-0.864673569895948));
#1448=DIRECTION('ref_axis',(0.,0.864673569895948,-0.502334169177647));
#1449=DIRECTION('',(0.,-0.864673569895948,0.502334169177647));
#1450=DIRECTION('',(0.,0.864673569895948,-0.502334169177647));
#1451=DIRECTION('center_axis',(0.,0.,1.));
#1452=DIRECTION('ref_axis',(0.,-1.,0.));
#1453=DIRECTION('',(0.,1.,0.));
#1454=DIRECTION('',(1.,0.,0.));
#1455=DIRECTION('',(0.,-1.,0.));
#1456=DIRECTION('',(1.,0.,0.));
#1457=DIRECTION('center_axis',(0.,0.502334169177646,-0.864673569895949));
#1458=DIRECTION('ref_axis',(0.,0.864673569895949,0.502334169177646));
#1459=DIRECTION('',(0.,-0.864673569895949,-0.502334169177646));
#1460=DIRECTION('',(1.,0.,0.));
#1461=DIRECTION('',(0.,0.864673569895949,0.502334169177646));
#1462=DIRECTION('center_axis',(-1.,0.,0.));
#1463=DIRECTION('ref_axis',(0.,0.,1.));
#1464=DIRECTION('',(0.,-1.7752838336433E-33,1.));
#1465=DIRECTION('',(0.,0.,-1.));
#1466=DIRECTION('',(0.,0.,-1.));
#1467=DIRECTION('',(0.,3.41257077241339E-17,-1.));
#1468=DIRECTION('center_axis',(0.,1.,3.41257077241339E-17));
#1469=DIRECTION('ref_axis',(0.,3.41257077241339E-17,-1.));
#1470=DIRECTION('',(0.,-3.41257077241339E-17,1.));
#1471=DIRECTION('',(-1.,0.,0.));
#1472=DIRECTION('',(0.,3.41257077241339E-17,-1.));
#1473=DIRECTION('',(-1.,0.,0.));
#1474=DIRECTION('center_axis',(0.,-0.502334169177647,-0.864673569895948));
#1475=DIRECTION('ref_axis',(0.,-0.864673569895948,0.502334169177647));
#1476=DIRECTION('',(0.,0.864673569895948,-0.502334169177647));
#1477=DIRECTION('',(0.,-0.864673569895948,0.502334169177647));
#1478=DIRECTION('',(-1.,0.,0.));
#1479=DIRECTION('center_axis',(0.,-0.502334169177646,0.864673569895948));
#1480=DIRECTION('ref_axis',(0.,0.864673569895949,0.502334169177646));
#1481=DIRECTION('',(0.,-0.864673569895949,-0.502334169177646));
#1482=DIRECTION('',(0.,0.864673569895949,0.502334169177646));
#1483=DIRECTION('center_axis',(0.,3.43640460003025E-16,1.));
#1484=DIRECTION('ref_axis',(0.,1.,-3.43640460003025E-16));
#1485=DIRECTION('',(0.,-1.,3.43640460003025E-16));
#1486=DIRECTION('',(-1.,0.,0.));
#1487=DIRECTION('',(0.,1.,-3.43640460003025E-16));
#1488=DIRECTION('',(-1.,0.,0.));
#1489=DIRECTION('center_axis',(0.,1.,3.41257077241339E-17));
#1490=DIRECTION('ref_axis',(0.,3.41257077241339E-17,-1.));
#1491=DIRECTION('',(0.,-3.41257077241339E-17,1.));
#1492=DIRECTION('',(0.,0.,1.));
#1493=DIRECTION('',(0.,-3.41257077241339E-17,1.));
#1494=DIRECTION('',(0.,3.41257077241339E-17,-1.));
#1495=DIRECTION('',(-1.,0.,0.));
#1496=DIRECTION('center_axis',(0.,-0.502334169177647,-0.864673569895948));
#1497=DIRECTION('ref_axis',(0.,-0.864673569895948,0.502334169177647));
#1498=DIRECTION('',(0.,0.864673569895948,-0.502334169177647));
#1499=DIRECTION('',(0.,-0.864673569895948,0.502334169177647));
#1500=DIRECTION('center_axis',(0.,0.502334169177646,-0.864673569895949));
#1501=DIRECTION('ref_axis',(0.,-0.864673569895949,-0.502334169177646));
#1502=DIRECTION('',(0.,0.864673569895949,0.502334169177646));
#1503=DIRECTION('',(-1.,0.,0.));
#1504=DIRECTION('',(0.,-0.864673569895949,-0.502334169177646));
#1505=DIRECTION('',(-1.,0.,0.));
#1506=DIRECTION('center_axis',(0.,-1.,0.));
#1507=DIRECTION('ref_axis',(0.,0.,1.));
#1508=DIRECTION('',(0.,0.,-1.));
#1509=DIRECTION('',(0.,0.,1.));
#1510=DIRECTION('',(-1.,0.,0.));
#1511=DIRECTION('center_axis',(0.,0.502334169177647,0.864673569895948));
#1512=DIRECTION('ref_axis',(0.,0.864673569895948,-0.502334169177647));
#1513=DIRECTION('',(0.,-0.864673569895948,0.502334169177647));
#1514=DIRECTION('',(0.,0.864673569895948,-0.502334169177647));
#1515=DIRECTION('center_axis',(0.,0.502334169177646,-0.864673569895949));
#1516=DIRECTION('ref_axis',(0.,-0.864673569895949,-0.502334169177646));
#1517=DIRECTION('',(0.,0.864673569895949,0.502334169177646));
#1518=DIRECTION('',(-1.,0.,0.));
#1519=DIRECTION('',(0.,-0.864673569895949,-0.502334169177646));
#1520=DIRECTION('',(-1.,0.,0.));
#1521=DIRECTION('center_axis',(0.,-1.,0.));
#1522=DIRECTION('ref_axis',(0.,0.,1.));
#1523=DIRECTION('',(0.,0.,-1.));
#1524=DIRECTION('',(0.,0.,1.));
#1525=DIRECTION('',(-1.,0.,0.));
#1526=DIRECTION('center_axis',(0.,0.502334169177647,0.864673569895948));
#1527=DIRECTION('ref_axis',(0.,0.864673569895948,-0.502334169177647));
#1528=DIRECTION('',(0.,-0.864673569895948,0.502334169177647));
#1529=DIRECTION('',(0.,0.864673569895948,-0.502334169177647));
#1530=DIRECTION('center_axis',(0.,0.,-1.));
#1531=DIRECTION('ref_axis',(0.,-1.,0.));
#1532=DIRECTION('',(0.,1.,0.));
#1533=DIRECTION('',(-1.,0.,0.));
#1534=DIRECTION('',(0.,-1.,0.));
#1535=DIRECTION('',(-1.,0.,0.));
#1536=DIRECTION('center_axis',(0.,-0.502334169177646,0.864673569895949));
#1537=DIRECTION('ref_axis',(0.,0.864673569895949,0.502334169177646));
#1538=DIRECTION('',(0.,-0.864673569895949,-0.502334169177646));
#1539=DIRECTION('',(0.,0.864673569895949,0.502334169177646));
#1540=DIRECTION('',(-1.,0.,0.));
#1541=DIRECTION('center_axis',(0.,1.,3.41257077241339E-17));
#1542=DIRECTION('ref_axis',(0.,3.41257077241339E-17,-1.));
#1543=DIRECTION('',(0.,-3.41257077241339E-17,1.));
#1544=DIRECTION('',(0.,3.41257077241339E-17,-1.));
#1545=DIRECTION('center_axis',(-1.,0.,0.));
#1546=DIRECTION('ref_axis',(0.,0.,1.));
#1547=DIRECTION('',(0.,-1.7752838336433E-33,1.));
#1548=DIRECTION('',(0.,0.,-1.));
#1549=DIRECTION('center_axis',(0.,-1.,0.));
#1550=DIRECTION('ref_axis',(-1.,0.,0.));
#1551=DIRECTION('',(0.,-1.7752838336433E-33,1.));
#1552=DIRECTION('',(0.,0.,1.));
#1553=DIRECTION('',(-1.,0.,0.));
#1554=DIRECTION('center_axis',(1.,0.,0.));
#1555=DIRECTION('ref_axis',(0.,-1.,0.));
#1556=DIRECTION('',(0.,-1.,0.));
#1557=DIRECTION('',(0.,0.,1.));
#1558=DIRECTION('center_axis',(0.,1.,0.));
#1559=DIRECTION('ref_axis',(1.,0.,0.));
#1560=DIRECTION('',(1.,0.,0.));
#1561=DIRECTION('',(0.,0.,-1.));
#1562=DIRECTION('center_axis',(-1.,0.,0.));
#1563=DIRECTION('ref_axis',(0.,1.,0.));
#1564=DIRECTION('',(0.,1.,0.));
#1565=DIRECTION('center_axis',(0.,0.,-1.));
#1566=DIRECTION('ref_axis',(-1.,0.,0.));
#1567=CARTESIAN_POINT('',(0.,0.,0.));
#1568=CARTESIAN_POINT('Origin',(18.5,4.50000000000001,54.8));
#1569=CARTESIAN_POINT('',(20.25,4.50000000000001,54.8));
#1570=CARTESIAN_POINT('Origin',(18.5,4.50000000000001,54.8));
#1571=CARTESIAN_POINT('',(20.25,4.50000000000001,52.8));
#1572=CARTESIAN_POINT('',(20.25,4.50000000000001,54.8));
#1573=CARTESIAN_POINT('Origin',(18.5,4.50000000000001,52.8));
#1574=CARTESIAN_POINT('Origin',(18.5,20.5,54.8));
#1575=CARTESIAN_POINT('',(20.25,20.5,54.8));
#1576=CARTESIAN_POINT('Origin',(18.5,20.5,54.8));
#1577=CARTESIAN_POINT('',(20.25,20.5,52.8));
#1578=CARTESIAN_POINT('',(20.25,20.5,54.8));
#1579=CARTESIAN_POINT('Origin',(18.5,20.5,52.8));
#1580=CARTESIAN_POINT('Origin',(6.49999999999999,4.50000000000001,54.8));
#1581=CARTESIAN_POINT('',(8.24999999999999,4.50000000000001,54.8));
#1582=CARTESIAN_POINT('Origin',(6.49999999999999,4.50000000000001,54.8));
#1583=CARTESIAN_POINT('',(8.24999999999999,4.50000000000001,52.8));
#1584=CARTESIAN_POINT('',(8.24999999999999,4.50000000000001,54.8));
#1585=CARTESIAN_POINT('Origin',(6.49999999999999,4.50000000000001,52.8));
#1586=CARTESIAN_POINT('Origin',(6.49999999999999,20.5,54.8));
#1587=CARTESIAN_POINT('',(8.24999999999999,20.5,54.8));
#1588=CARTESIAN_POINT('Origin',(6.49999999999999,20.5,54.8));
#1589=CARTESIAN_POINT('',(8.24999999999999,20.5,52.8));
#1590=CARTESIAN_POINT('',(8.24999999999999,20.5,54.8));
#1591=CARTESIAN_POINT('Origin',(6.49999999999999,20.5,52.8));
#1592=CARTESIAN_POINT('Origin',(6.5,4.5,-2.));
#1593=CARTESIAN_POINT('',(4.75,4.5,-2.));
#1594=CARTESIAN_POINT('Origin',(6.5,4.5,-2.));
#1595=CARTESIAN_POINT('',(4.75,4.5,0.));
#1596=CARTESIAN_POINT('',(4.75,4.5,-2.));
#1597=CARTESIAN_POINT('Origin',(6.5,4.5,0.));
#1598=CARTESIAN_POINT('Origin',(18.5,20.5,-2.));
#1599=CARTESIAN_POINT('',(16.75,20.5,-2.));
#1600=CARTESIAN_POINT('Origin',(18.5,20.5,-2.));
#1601=CARTESIAN_POINT('',(16.75,20.5,0.));
#1602=CARTESIAN_POINT('',(16.75,20.5,-2.));
#1603=CARTESIAN_POINT('Origin',(18.5,20.5,0.));
#1604=CARTESIAN_POINT('Origin',(18.5,4.5,-2.));
#1605=CARTESIAN_POINT('',(16.75,4.5,-2.));
#1606=CARTESIAN_POINT('Origin',(18.5,4.5,-2.));
#1607=CARTESIAN_POINT('',(16.75,4.5,0.));
#1608=CARTESIAN_POINT('',(16.75,4.5,-2.));
#1609=CARTESIAN_POINT('Origin',(18.5,4.5,0.));
#1610=CARTESIAN_POINT('Origin',(6.5,20.5,-2.));
#1611=CARTESIAN_POINT('',(4.75,20.5,-2.));
#1612=CARTESIAN_POINT('Origin',(6.5,20.5,-2.));
#1613=CARTESIAN_POINT('',(4.75,20.5,0.));
#1614=CARTESIAN_POINT('',(4.75,20.5,-2.));
#1615=CARTESIAN_POINT('Origin',(6.5,20.5,0.));
#1616=CARTESIAN_POINT('Origin',(3.07619096050426,0.,52.8));
#1617=CARTESIAN_POINT('',(3.07619096050425,0.,52.8));
#1618=CARTESIAN_POINT('',(23.,0.,2.70585155783927));
#1619=CARTESIAN_POINT('',(-10.4070305730862,0.,86.7006712844561));
#1620=CARTESIAN_POINT('',(23.,2.,2.70585155783927));
#1621=CARTESIAN_POINT('',(23.,6.25,2.70585155783925));
#1622=CARTESIAN_POINT('',(3.07619096050425,2.,52.8));
#1623=CARTESIAN_POINT('',(-10.4070305730862,2.,86.7006712844561));
#1624=CARTESIAN_POINT('',(3.07619096050425,6.25,52.8));
#1625=CARTESIAN_POINT('Origin',(21.9238090394957,0.,0.));
#1626=CARTESIAN_POINT('',(2.,0.,50.0941484421607));
#1627=CARTESIAN_POINT('',(21.9238090394957,0.,0.));
#1628=CARTESIAN_POINT('',(-12.3785642535388,0.,86.2459671367726));
#1629=CARTESIAN_POINT('',(2.,2.,50.0941484421607));
#1630=CARTESIAN_POINT('',(2.,6.25,50.0941484421607));
#1631=CARTESIAN_POINT('',(21.9238090394957,2.,0.));
#1632=CARTESIAN_POINT('',(-12.3785642535388,2.,86.2459671367726));
#1633=CARTESIAN_POINT('',(21.9238090394957,6.25,-2.77555756156289E-16));
#1634=CARTESIAN_POINT('Origin',(12.5,12.5,0.));
#1635=CARTESIAN_POINT('',(23.,2.,0.));
#1636=CARTESIAN_POINT('',(12.5,2.,0.));
#1637=CARTESIAN_POINT('',(23.,25.,0.));
#1638=CARTESIAN_POINT('',(23.,12.5,0.));
#1639=CARTESIAN_POINT('',(3.07619096050426,25.,1.77635683940025E-14));
#1640=CARTESIAN_POINT('',(25.,25.,0.));
#1641=CARTESIAN_POINT('',(3.07619096050426,23.,1.77635683940025E-14));
#1642=CARTESIAN_POINT('',(3.07619096050425,18.75,0.));
#1643=CARTESIAN_POINT('',(2.,23.,0.));
#1644=CARTESIAN_POINT('',(12.5,23.,0.));
#1645=CARTESIAN_POINT('',(2.,0.,0.));
#1646=CARTESIAN_POINT('',(2.,12.5,0.));
#1647=CARTESIAN_POINT('',(0.,0.,0.));
#1648=CARTESIAN_POINT('Origin',(12.5,12.5,52.8));
#1649=CARTESIAN_POINT('',(2.,2.,52.8));
#1650=CARTESIAN_POINT('',(12.5,2.,52.8));
#1651=CARTESIAN_POINT('',(2.,25.,52.8));
#1652=CARTESIAN_POINT('',(2.,-9.37349864163661E-32,52.8));
#1653=CARTESIAN_POINT('',(21.9238090394957,25.,52.8));
#1654=CARTESIAN_POINT('',(25.,25.,52.8));
#1655=CARTESIAN_POINT('',(21.9238090394957,23.,52.8));
#1656=CARTESIAN_POINT('',(21.9238090394957,18.75,52.8));
#1657=CARTESIAN_POINT('',(23.,23.,52.8));
#1658=CARTESIAN_POINT('',(12.5,23.,52.8));
#1659=CARTESIAN_POINT('',(23.,0.,52.8));
#1660=CARTESIAN_POINT('',(23.,-9.37349864163661E-32,52.8));
#1661=CARTESIAN_POINT('',(0.,0.,52.8));
#1662=CARTESIAN_POINT('Origin',(21.9238090394957,25.,52.8));
#1663=CARTESIAN_POINT('',(2.,25.,2.70585155783928));
#1664=CARTESIAN_POINT('',(35.4070305730862,25.,86.7006712844561));
#1665=CARTESIAN_POINT('',(2.,23.,2.70585155783928));
#1666=CARTESIAN_POINT('',(2.,18.75,2.70585155783928));
#1667=CARTESIAN_POINT('',(35.4070305730862,23.,86.7006712844561));
#1668=CARTESIAN_POINT('Origin',(3.07619096050426,25.,1.77635683940025E-14));
#1669=CARTESIAN_POINT('',(23.,25.,50.0941484421608));
#1670=CARTESIAN_POINT('',(37.3785642535388,25.,86.2459671367726));
#1671=CARTESIAN_POINT('',(23.,23.,50.0941484421608));
#1672=CARTESIAN_POINT('',(23.,18.75,50.0941484421608));
#1673=CARTESIAN_POINT('',(37.3785642535388,23.,86.2459671367726));
#1674=CARTESIAN_POINT('Origin',(12.5,23.,26.4));
#1675=CARTESIAN_POINT('',(23.,23.,26.4));
#1676=CARTESIAN_POINT('',(2.,23.,26.4));
#1677=CARTESIAN_POINT('Origin',(12.5,12.5,54.8));
#1678=CARTESIAN_POINT('',(0.,25.,54.8));
#1679=CARTESIAN_POINT('',(0.,0.,54.8));
#1680=CARTESIAN_POINT('',(0.,25.,54.8));
#1681=CARTESIAN_POINT('',(25.,0.,54.8));
#1682=CARTESIAN_POINT('',(0.,0.,54.8));
#1683=CARTESIAN_POINT('',(25.,25.,54.8));
#1684=CARTESIAN_POINT('',(25.,0.,54.8));
#1685=CARTESIAN_POINT('',(25.,25.,54.8));
#1686=CARTESIAN_POINT('Origin',(0.,2.,37.4434941984865));
#1687=CARTESIAN_POINT('',(0.,2.,15.3565058015134));
#1688=CARTESIAN_POINT('',(0.,2.,37.4434941984865));
#1689=CARTESIAN_POINT('',(0.,2.,2.));
#1690=CARTESIAN_POINT('',(2.,2.,37.4434941984865));
#1691=CARTESIAN_POINT('',(0.,2.,37.4434941984865));
#1692=CARTESIAN_POINT('',(2.,2.,15.3565058015134));
#1693=CARTESIAN_POINT('',(2.,2.,2.));
#1694=CARTESIAN_POINT('',(0.,2.,15.3565058015134));
#1695=CARTESIAN_POINT('Origin',(0.,21.0092932924768,26.4));
#1696=CARTESIAN_POINT('',(0.,21.0092932924768,26.4));
#1697=CARTESIAN_POINT('',(0.,21.0092932924768,26.4));
#1698=CARTESIAN_POINT('',(2.,21.0092932924768,26.4));
#1699=CARTESIAN_POINT('',(0.,21.0092932924768,26.4));
#1700=CARTESIAN_POINT('',(2.,21.0092932924768,26.4));
#1701=CARTESIAN_POINT('Origin',(0.,2.,15.3565058015134));
#1702=CARTESIAN_POINT('',(0.,2.,15.3565058015134));
#1703=CARTESIAN_POINT('',(2.,2.,15.3565058015134));
#1704=CARTESIAN_POINT('Origin',(0.,2.,2.));
#1705=CARTESIAN_POINT('',(0.,21.0092932924769,1.99999999999999));
#1706=CARTESIAN_POINT('',(0.,2.,2.));
#1707=CARTESIAN_POINT('',(0.,23.,1.99999999999999));
#1708=CARTESIAN_POINT('',(2.,2.,2.));
#1709=CARTESIAN_POINT('',(0.,2.,2.));
#1710=CARTESIAN_POINT('',(2.,21.0092932924769,1.99999999999999));
#1711=CARTESIAN_POINT('',(2.,23.,1.99999999999999));
#1712=CARTESIAN_POINT('',(0.,21.0092932924769,1.99999999999999));
#1713=CARTESIAN_POINT('Origin',(0.,2.,13.0434941984866));
#1714=CARTESIAN_POINT('',(0.,2.,13.0434941984866));
#1715=CARTESIAN_POINT('',(0.,2.,2.));
#1716=CARTESIAN_POINT('',(2.,2.,13.0434941984866));
#1717=CARTESIAN_POINT('',(0.,2.,13.0434941984866));
#1718=CARTESIAN_POINT('',(2.,2.,2.));
#1719=CARTESIAN_POINT('Origin',(0.,21.0092932924769,1.99999999999999));
#1720=CARTESIAN_POINT('',(0.,22.2576971284548,1.27473681909852));
#1721=CARTESIAN_POINT('',(2.,22.2576971284548,1.27473681909852));
#1722=CARTESIAN_POINT('Origin',(0.,23.,49.6434941984866));
#1723=CARTESIAN_POINT('',(0.,3.99070670752316,38.6));
#1724=CARTESIAN_POINT('',(0.,23.,49.6434941984866));
#1725=CARTESIAN_POINT('',(0.,3.99070670752316,38.6));
#1726=CARTESIAN_POINT('',(2.,23.,49.6434941984866));
#1727=CARTESIAN_POINT('',(0.,23.,49.6434941984866));
#1728=CARTESIAN_POINT('',(2.,3.99070670752316,38.6));
#1729=CARTESIAN_POINT('',(2.,3.99070670752316,38.6));
#1730=CARTESIAN_POINT('',(0.,3.99070670752316,38.6));
#1731=CARTESIAN_POINT('Origin',(0.,23.,27.5565058015134));
#1732=CARTESIAN_POINT('',(0.,23.,27.5565058015134));
#1733=CARTESIAN_POINT('',(0.,23.,50.8));
#1734=CARTESIAN_POINT('',(2.,23.,27.5565058015134));
#1735=CARTESIAN_POINT('',(0.,23.,27.5565058015134));
#1736=CARTESIAN_POINT('',(2.,23.,50.8));
#1737=CARTESIAN_POINT('Origin',(0.,3.99070670752316,38.6));
#1738=CARTESIAN_POINT('',(0.,23.,27.5565058015134));
#1739=CARTESIAN_POINT('',(2.,23.,27.5565058015134));
#1740=CARTESIAN_POINT('Origin',(0.,23.,25.2434941984865));
#1741=CARTESIAN_POINT('',(0.,3.99070670752315,14.2));
#1742=CARTESIAN_POINT('',(0.,23.,25.2434941984865));
#1743=CARTESIAN_POINT('',(0.,3.99070670752315,14.2));
#1744=CARTESIAN_POINT('',(2.,23.,25.2434941984865));
#1745=CARTESIAN_POINT('',(0.,23.,25.2434941984865));
#1746=CARTESIAN_POINT('',(2.,3.99070670752315,14.2));
#1747=CARTESIAN_POINT('',(2.,3.99070670752315,14.2));
#1748=CARTESIAN_POINT('',(0.,3.99070670752315,14.2));
#1749=CARTESIAN_POINT('Origin',(0.,23.,3.15650580151344));
#1750=CARTESIAN_POINT('',(0.,23.,3.15650580151344));
#1751=CARTESIAN_POINT('',(0.,23.,50.8));
#1752=CARTESIAN_POINT('',(2.,23.,3.15650580151344));
#1753=CARTESIAN_POINT('',(0.,23.,3.15650580151344));
#1754=CARTESIAN_POINT('',(2.,23.,50.8));
#1755=CARTESIAN_POINT('Origin',(0.,3.99070670752315,14.2));
#1756=CARTESIAN_POINT('',(0.,23.7423028715452,2.72526318090147));
#1757=CARTESIAN_POINT('',(2.,23.7423028715452,2.72526318090147));
#1758=CARTESIAN_POINT('Origin',(0.,21.0092932924769,50.8));
#1759=CARTESIAN_POINT('',(0.,2.,50.8));
#1760=CARTESIAN_POINT('',(0.,21.0092932924769,50.8));
#1761=CARTESIAN_POINT('',(0.,2.,50.8));
#1762=CARTESIAN_POINT('',(2.,21.0092932924769,50.8));
#1763=CARTESIAN_POINT('',(0.,21.0092932924769,50.8));
#1764=CARTESIAN_POINT('',(2.,2.,50.8));
#1765=CARTESIAN_POINT('',(2.,2.,50.8));
#1766=CARTESIAN_POINT('',(0.,2.,50.8));
#1767=CARTESIAN_POINT('Origin',(0.,2.,39.7565058015134));
#1768=CARTESIAN_POINT('',(0.,2.,39.7565058015134));
#1769=CARTESIAN_POINT('',(0.,2.,39.7565058015134));
#1770=CARTESIAN_POINT('',(2.,2.,39.7565058015134));
#1771=CARTESIAN_POINT('',(0.,2.,39.7565058015134));
#1772=CARTESIAN_POINT('',(2.,2.,39.7565058015134));
#1773=CARTESIAN_POINT('Origin',(2.,12.5,26.4));
#1774=CARTESIAN_POINT('',(2.,0.,0.));
#1775=CARTESIAN_POINT('',(2.,25.,52.8));
#1776=CARTESIAN_POINT('',(2.,2.,26.4));
#1777=CARTESIAN_POINT('',(2.,2.,2.));
#1778=CARTESIAN_POINT('Origin',(25.,2.,37.4434941984865));
#1779=CARTESIAN_POINT('',(25.,2.,15.3565058015134));
#1780=CARTESIAN_POINT('',(25.,2.,37.4434941984865));
#1781=CARTESIAN_POINT('',(25.,2.,2.));
#1782=CARTESIAN_POINT('',(23.,2.,15.3565058015134));
#1783=CARTESIAN_POINT('',(25.,2.,15.3565058015134));
#1784=CARTESIAN_POINT('',(23.,2.,37.4434941984865));
#1785=CARTESIAN_POINT('',(23.,2.,2.));
#1786=CARTESIAN_POINT('',(25.,2.,37.4434941984865));
#1787=CARTESIAN_POINT('Origin',(25.,21.0092932924768,26.4));
#1788=CARTESIAN_POINT('',(25.,21.0092932924768,26.4));
#1789=CARTESIAN_POINT('',(25.,21.0092932924768,26.4));
#1790=CARTESIAN_POINT('',(23.,21.0092932924768,26.4));
#1791=CARTESIAN_POINT('',(23.,21.0092932924768,26.4));
#1792=CARTESIAN_POINT('',(25.,21.0092932924768,26.4));
#1793=CARTESIAN_POINT('Origin',(25.,2.,15.3565058015134));
#1794=CARTESIAN_POINT('',(25.,2.,15.3565058015134));
#1795=CARTESIAN_POINT('',(23.,2.,15.3565058015134));
#1796=CARTESIAN_POINT('Origin',(25.,2.,2.));
#1797=CARTESIAN_POINT('',(25.,21.0092932924769,1.99999999999999));
#1798=CARTESIAN_POINT('',(25.,2.,2.));
#1799=CARTESIAN_POINT('',(25.,23.,1.99999999999999));
#1800=CARTESIAN_POINT('',(23.,21.0092932924769,1.99999999999999));
#1801=CARTESIAN_POINT('',(25.,21.0092932924769,1.99999999999999));
#1802=CARTESIAN_POINT('',(23.,2.,2.));
#1803=CARTESIAN_POINT('',(23.,23.,1.99999999999999));
#1804=CARTESIAN_POINT('',(25.,2.,2.));
#1805=CARTESIAN_POINT('Origin',(25.,2.,13.0434941984866));
#1806=CARTESIAN_POINT('',(25.,2.,13.0434941984866));
#1807=CARTESIAN_POINT('',(25.,2.,2.));
#1808=CARTESIAN_POINT('',(23.,2.,26.4));
#1809=CARTESIAN_POINT('',(0.,2.,2.));
#1810=CARTESIAN_POINT('',(23.,2.,13.0434941984866));
#1811=CARTESIAN_POINT('',(23.,2.,2.));
#1812=CARTESIAN_POINT('',(25.,2.,13.0434941984866));
#1813=CARTESIAN_POINT('Origin',(25.,21.0092932924769,1.99999999999999));
#1814=CARTESIAN_POINT('',(25.,22.2576971284548,1.27473681909852));
#1815=CARTESIAN_POINT('',(23.,22.2576971284548,1.27473681909852));
#1816=CARTESIAN_POINT('Origin',(25.,23.,49.6434941984866));
#1817=CARTESIAN_POINT('',(25.,3.99070670752316,38.6));
#1818=CARTESIAN_POINT('',(25.,23.,49.6434941984866));
#1819=CARTESIAN_POINT('',(25.,3.99070670752316,38.6));
#1820=CARTESIAN_POINT('',(23.,3.99070670752316,38.6));
#1821=CARTESIAN_POINT('',(25.,3.99070670752316,38.6));
#1822=CARTESIAN_POINT('',(23.,23.,49.6434941984866));
#1823=CARTESIAN_POINT('',(23.,3.99070670752316,38.6));
#1824=CARTESIAN_POINT('',(25.,23.,49.6434941984866));
#1825=CARTESIAN_POINT('Origin',(25.,23.,27.5565058015134));
#1826=CARTESIAN_POINT('',(25.,23.,27.5565058015134));
#1827=CARTESIAN_POINT('',(25.,23.,50.8));
#1828=CARTESIAN_POINT('',(23.,23.,27.5565058015134));
#1829=CARTESIAN_POINT('',(23.,23.,50.8));
#1830=CARTESIAN_POINT('',(25.,23.,27.5565058015134));
#1831=CARTESIAN_POINT('Origin',(25.,3.99070670752316,38.6));
#1832=CARTESIAN_POINT('',(25.,23.,27.5565058015134));
#1833=CARTESIAN_POINT('',(23.,23.,27.5565058015134));
#1834=CARTESIAN_POINT('Origin',(25.,23.,25.2434941984865));
#1835=CARTESIAN_POINT('',(25.,3.99070670752315,14.2));
#1836=CARTESIAN_POINT('',(25.,23.,25.2434941984865));
#1837=CARTESIAN_POINT('',(25.,3.99070670752315,14.2));
#1838=CARTESIAN_POINT('',(23.,3.99070670752315,14.2));
#1839=CARTESIAN_POINT('',(25.,3.99070670752315,14.2));
#1840=CARTESIAN_POINT('',(23.,23.,25.2434941984865));
#1841=CARTESIAN_POINT('',(23.,3.99070670752315,14.2));
#1842=CARTESIAN_POINT('',(25.,23.,25.2434941984865));
#1843=CARTESIAN_POINT('Origin',(25.,23.,3.15650580151344));
#1844=CARTESIAN_POINT('',(25.,23.,3.15650580151344));
#1845=CARTESIAN_POINT('',(25.,23.,50.8));
#1846=CARTESIAN_POINT('',(23.,23.,3.15650580151344));
#1847=CARTESIAN_POINT('',(23.,23.,50.8));
#1848=CARTESIAN_POINT('',(25.,23.,3.15650580151344));
#1849=CARTESIAN_POINT('Origin',(25.,3.99070670752315,14.2));
#1850=CARTESIAN_POINT('',(25.,23.7423028715452,2.72526318090147));
#1851=CARTESIAN_POINT('',(23.,23.7423028715452,2.72526318090147));
#1852=CARTESIAN_POINT('Origin',(25.,21.0092932924769,50.8));
#1853=CARTESIAN_POINT('',(25.,2.,50.8));
#1854=CARTESIAN_POINT('',(25.,21.0092932924769,50.8));
#1855=CARTESIAN_POINT('',(25.,2.,50.8));
#1856=CARTESIAN_POINT('',(23.,2.,50.8));
#1857=CARTESIAN_POINT('',(25.,2.,50.8));
#1858=CARTESIAN_POINT('',(23.,21.0092932924769,50.8));
#1859=CARTESIAN_POINT('',(23.,2.,50.8));
#1860=CARTESIAN_POINT('',(25.,21.0092932924769,50.8));
#1861=CARTESIAN_POINT('Origin',(25.,2.,39.7565058015134));
#1862=CARTESIAN_POINT('',(25.,2.,39.7565058015134));
#1863=CARTESIAN_POINT('',(25.,2.,39.7565058015134));
#1864=CARTESIAN_POINT('',(23.,2.,39.7565058015134));
#1865=CARTESIAN_POINT('',(23.,2.,39.7565058015134));
#1866=CARTESIAN_POINT('',(25.,2.,39.7565058015134));
#1867=CARTESIAN_POINT('Origin',(25.,2.,50.8));
#1868=CARTESIAN_POINT('',(25.,2.,2.));
#1869=CARTESIAN_POINT('',(23.,2.,2.));
#1870=CARTESIAN_POINT('Origin',(23.,12.5,26.4));
#1871=CARTESIAN_POINT('',(23.,0.,0.));
#1872=CARTESIAN_POINT('',(23.,25.,52.8));
#1873=CARTESIAN_POINT('Origin',(25.,0.,0.));
#1874=CARTESIAN_POINT('',(25.,0.,-2.));
#1875=CARTESIAN_POINT('',(25.,0.,0.));
#1876=CARTESIAN_POINT('',(0.,0.,-2.));
#1877=CARTESIAN_POINT('',(0.,0.,52.8));
#1878=CARTESIAN_POINT('',(0.,0.,-2.));
#1879=CARTESIAN_POINT('Origin',(25.,25.,0.));
#1880=CARTESIAN_POINT('',(25.,25.,-2.));
#1881=CARTESIAN_POINT('',(25.,0.,-2.));
#1882=CARTESIAN_POINT('',(25.,25.,52.8));
#1883=CARTESIAN_POINT('Origin',(0.,25.,0.));
#1884=CARTESIAN_POINT('',(0.,25.,-2.));
#1885=CARTESIAN_POINT('',(25.,25.,-2.));
#1886=CARTESIAN_POINT('',(0.,25.,0.));
#1887=CARTESIAN_POINT('Origin',(0.,0.,0.));
#1888=CARTESIAN_POINT('',(0.,25.,-2.));
#1889=CARTESIAN_POINT('Origin',(12.5,12.5,-2.));
#1890=UNCERTAINTY_MEASURE_WITH_UNIT(LENGTH_MEASURE(0.01),#1894,
'DISTANCE_ACCURACY_VALUE',
'Maximum model space distance between geometric entities at asserted c
onnectivities');
#1891=UNCERTAINTY_MEASURE_WITH_UNIT(LENGTH_MEASURE(0.01),#1894,
'DISTANCE_ACCURACY_VALUE',
'Maximum model space distance between geometric entities at asserted c
onnectivities');
#1892=(
GEOMETRIC_REPRESENTATION_CONTEXT(3)
GLOBAL_UNCERTAINTY_ASSIGNED_CONTEXT((#1890))
GLOBAL_UNIT_ASSIGNED_CONTEXT((#1894,#1896,#1897))
REPRESENTATION_CONTEXT('','3D')
);
#1893=(
GEOMETRIC_REPRESENTATION_CONTEXT(3)
GLOBAL_UNCERTAINTY_ASSIGNED_CONTEXT((#1891))
GLOBAL_UNIT_ASSIGNED_CONTEXT((#1894,#1896,#1897))
REPRESENTATION_CONTEXT('','3D')
);
#1894=(
LENGTH_UNIT()
NAMED_UNIT(*)
SI_UNIT(.MILLI.,.METRE.)
);
#1895=(
LENGTH_UNIT()
NAMED_UNIT(*)
SI_UNIT($,.METRE.)
);
#1896=(
NAMED_UNIT(*)
PLANE_ANGLE_UNIT()
SI_UNIT($,.RADIAN.)
);
#1897=(
NAMED_UNIT(*)
SI_UNIT($,.STERADIAN.)
SOLID_ANGLE_UNIT()
);
#1898=SHAPE_DEFINITION_REPRESENTATION(#1899,#1900);
#1899=PRODUCT_DEFINITION_SHAPE('',$,#1902);
#1900=SHAPE_REPRESENTATION('',(#1214),#1892);
#1901=PRODUCT_DEFINITION_CONTEXT('part definition',#1906,'design');
#1902=PRODUCT_DEFINITION('2026-07-15-10-35-06-134',
'Elbow-Wrist Linkage',#1903,#1901);
#1903=PRODUCT_DEFINITION_FORMATION('',$,#1908);
#1904=PRODUCT_RELATED_PRODUCT_CATEGORY('Elbow-Wrist Linkage',
'Elbow-Wrist Linkage',(#1908));
#1905=APPLICATION_PROTOCOL_DEFINITION('international standard',
'automotive_design',2009,#1906);
#1906=APPLICATION_CONTEXT(
'Core Data for Automotive Mechanical Design Process');
#1907=PRODUCT_CONTEXT('part definition',#1906,'mechanical');
#1908=PRODUCT('2026-07-15-10-35-06-134','Elbow-Wrist Linkage',$,(#1907));
#1909=PRESENTATION_STYLE_ASSIGNMENT((#1910));
#1910=SURFACE_STYLE_USAGE(.BOTH.,#1911);
#1911=SURFACE_SIDE_STYLE('',(#1912));
#1912=SURFACE_STYLE_FILL_AREA(#1913);
#1913=FILL_AREA_STYLE('Steel - Satin',(#1914));
#1914=FILL_AREA_STYLE_COLOUR('Steel - Satin',#1915);
#1915=COLOUR_RGB('Steel - Satin',0.627450980392157,0.627450980392157,0.627450980392157);
ENDSEC;
END-ISO-10303-21;
