ISO-10303-21;
HEADER;
/* Generated by software containing ST-Developer
 * from STEP Tools, Inc. (www.steptools.com) 
 */

FILE_DESCRIPTION(
/* description */ (''),
/* implementation_level */ '2;1');

FILE_NAME(
/* name */ 'fork-end-effector.step',
/* time_stamp */ '2026-07-22T07:57:08-04:00',
/* author */ (''),
/* organization */ (''),
/* preprocessor_version */ 'ST-DEVELOPER v20.1',
/* originating_system */ 'Autodesk Translation Framework v15.8.0.0',
/* authorisation */ '');

FILE_SCHEMA (('AUTOMOTIVE_DESIGN { 1 0 10303 214 3 1 1 }'));
ENDSEC;

DATA;
#10=MECHANICAL_DESIGN_GEOMETRIC_PRESENTATION_REPRESENTATION('',(#13),#1435);
#11=SHAPE_REPRESENTATION_RELATIONSHIP('SRR','None',#1442,#12);
#12=ADVANCED_BREP_SHAPE_REPRESENTATION('',(#14),#1434);
#13=STYLED_ITEM('',(#1451),#14);
#14=MANIFOLD_SOLID_BREP('Body1',#879);
#15=CYLINDRICAL_SURFACE('',#916,3.);
#16=CYLINDRICAL_SURFACE('',#918,3.);
#17=CYLINDRICAL_SURFACE('',#933,1.75);
#18=CYLINDRICAL_SURFACE('',#935,1.75);
#19=CYLINDRICAL_SURFACE('',#937,3.);
#20=CYLINDRICAL_SURFACE('',#939,1.75);
#21=CYLINDRICAL_SURFACE('',#941,1.75);
#22=CYLINDRICAL_SURFACE('',#943,10.5);
#23=CYLINDRICAL_SURFACE('',#946,1.75);
#24=CYLINDRICAL_SURFACE('',#948,1.75);
#25=CYLINDRICAL_SURFACE('',#950,3.);
#26=CYLINDRICAL_SURFACE('',#952,1.75);
#27=CYLINDRICAL_SURFACE('',#954,1.75);
#28=CYLINDRICAL_SURFACE('',#958,10.5);
#29=FACE_BOUND('',#125,.T.);
#30=FACE_BOUND('',#126,.T.);
#31=FACE_BOUND('',#127,.T.);
#32=FACE_BOUND('',#128,.T.);
#33=FACE_BOUND('',#129,.T.);
#34=FACE_BOUND('',#136,.T.);
#35=FACE_BOUND('',#137,.T.);
#36=FACE_BOUND('',#138,.T.);
#37=FACE_BOUND('',#139,.T.);
#38=FACE_BOUND('',#140,.T.);
#39=FACE_BOUND('',#146,.T.);
#40=FACE_BOUND('',#147,.T.);
#41=FACE_BOUND('',#159,.T.);
#42=FACE_BOUND('',#160,.T.);
#43=FACE_BOUND('',#161,.T.);
#44=FACE_BOUND('',#162,.T.);
#45=FACE_BOUND('',#170,.T.);
#46=FACE_BOUND('',#171,.T.);
#47=FACE_BOUND('',#172,.T.);
#48=FACE_BOUND('',#173,.T.);
#49=FACE_BOUND('',#174,.T.);
#50=FACE_BOUND('',#184,.T.);
#51=FACE_BOUND('',#185,.T.);
#52=FACE_BOUND('',#186,.T.);
#53=FACE_BOUND('',#187,.T.);
#54=FACE_BOUND('',#188,.T.);
#55=CIRCLE('',#895,3.);
#56=CIRCLE('',#896,10.5);
#57=CIRCLE('',#897,1.75);
#58=CIRCLE('',#898,1.75);
#59=CIRCLE('',#899,3.);
#60=CIRCLE('',#900,1.75);
#61=CIRCLE('',#901,1.75);
#62=CIRCLE('',#904,3.);
#63=CIRCLE('',#909,10.5);
#64=CIRCLE('',#910,3.);
#65=CIRCLE('',#911,1.75);
#66=CIRCLE('',#912,1.75);
#67=CIRCLE('',#913,3.);
#68=CIRCLE('',#914,1.75);
#69=CIRCLE('',#915,1.75);
#70=CIRCLE('',#917,3.);
#71=CIRCLE('',#934,1.75);
#72=CIRCLE('',#936,1.75);
#73=CIRCLE('',#938,3.);
#74=CIRCLE('',#940,1.75);
#75=CIRCLE('',#942,1.75);
#76=CIRCLE('',#944,10.5);
#77=CIRCLE('',#947,1.75);
#78=CIRCLE('',#949,1.75);
#79=CIRCLE('',#951,3.);
#80=CIRCLE('',#953,1.75);
#81=CIRCLE('',#955,1.75);
#82=CIRCLE('',#959,10.5);
#83=FACE_OUTER_BOUND('',#123,.T.);
#84=FACE_OUTER_BOUND('',#124,.T.);
#85=FACE_OUTER_BOUND('',#130,.T.);
#86=FACE_OUTER_BOUND('',#131,.T.);
#87=FACE_OUTER_BOUND('',#132,.T.);
#88=FACE_OUTER_BOUND('',#133,.T.);
#89=FACE_OUTER_BOUND('',#134,.T.);
#90=FACE_OUTER_BOUND('',#135,.T.);
#91=FACE_OUTER_BOUND('',#141,.T.);
#92=FACE_OUTER_BOUND('',#142,.T.);
#93=FACE_OUTER_BOUND('',#143,.T.);
#94=FACE_OUTER_BOUND('',#144,.T.);
#95=FACE_OUTER_BOUND('',#145,.T.);
#96=FACE_OUTER_BOUND('',#148,.T.);
#97=FACE_OUTER_BOUND('',#149,.T.);
#98=FACE_OUTER_BOUND('',#150,.T.);
#99=FACE_OUTER_BOUND('',#151,.T.);
#100=FACE_OUTER_BOUND('',#152,.T.);
#101=FACE_OUTER_BOUND('',#153,.T.);
#102=FACE_OUTER_BOUND('',#154,.T.);
#103=FACE_OUTER_BOUND('',#155,.T.);
#104=FACE_OUTER_BOUND('',#156,.T.);
#105=FACE_OUTER_BOUND('',#157,.T.);
#106=FACE_OUTER_BOUND('',#158,.T.);
#107=FACE_OUTER_BOUND('',#163,.T.);
#108=FACE_OUTER_BOUND('',#164,.T.);
#109=FACE_OUTER_BOUND('',#165,.T.);
#110=FACE_OUTER_BOUND('',#166,.T.);
#111=FACE_OUTER_BOUND('',#167,.T.);
#112=FACE_OUTER_BOUND('',#168,.T.);
#113=FACE_OUTER_BOUND('',#169,.T.);
#114=FACE_OUTER_BOUND('',#175,.T.);
#115=FACE_OUTER_BOUND('',#176,.T.);
#116=FACE_OUTER_BOUND('',#177,.T.);
#117=FACE_OUTER_BOUND('',#178,.T.);
#118=FACE_OUTER_BOUND('',#179,.T.);
#119=FACE_OUTER_BOUND('',#180,.T.);
#120=FACE_OUTER_BOUND('',#181,.T.);
#121=FACE_OUTER_BOUND('',#182,.T.);
#122=FACE_OUTER_BOUND('',#183,.T.);
#123=EDGE_LOOP('',(#573,#574,#575,#576));
#124=EDGE_LOOP('',(#577,#578,#579,#580,#581,#582,#583,#584));
#125=EDGE_LOOP('',(#585));
#126=EDGE_LOOP('',(#586));
#127=EDGE_LOOP('',(#587));
#128=EDGE_LOOP('',(#588));
#129=EDGE_LOOP('',(#589));
#130=EDGE_LOOP('',(#590,#591,#592,#593));
#131=EDGE_LOOP('',(#594,#595,#596,#597,#598,#599,#600,#601,#602,#603));
#132=EDGE_LOOP('',(#604,#605,#606,#607));
#133=EDGE_LOOP('',(#608,#609,#610,#611));
#134=EDGE_LOOP('',(#612,#613,#614,#615));
#135=EDGE_LOOP('',(#616,#617,#618,#619,#620,#621,#622,#623));
#136=EDGE_LOOP('',(#624));
#137=EDGE_LOOP('',(#625));
#138=EDGE_LOOP('',(#626));
#139=EDGE_LOOP('',(#627));
#140=EDGE_LOOP('',(#628));
#141=EDGE_LOOP('',(#629,#630,#631,#632));
#142=EDGE_LOOP('',(#633,#634,#635,#636));
#143=EDGE_LOOP('',(#637,#638,#639,#640));
#144=EDGE_LOOP('',(#641,#642,#643,#644,#645,#646,#647,#648,#649,#650));
#145=EDGE_LOOP('',(#651,#652,#653,#654,#655,#656,#657,#658,#659,#660,#661,
#662,#663,#664));
#146=EDGE_LOOP('',(#665,#666,#667));
#147=EDGE_LOOP('',(#668,#669,#670));
#148=EDGE_LOOP('',(#671,#672,#673,#674));
#149=EDGE_LOOP('',(#675,#676,#677,#678));
#150=EDGE_LOOP('',(#679,#680,#681,#682));
#151=EDGE_LOOP('',(#683,#684,#685,#686));
#152=EDGE_LOOP('',(#687,#688,#689,#690));
#153=EDGE_LOOP('',(#691,#692,#693,#694));
#154=EDGE_LOOP('',(#695,#696,#697,#698));
#155=EDGE_LOOP('',(#699,#700,#701,#702));
#156=EDGE_LOOP('',(#703,#704,#705,#706));
#157=EDGE_LOOP('',(#707,#708,#709,#710));
#158=EDGE_LOOP('',(#711,#712,#713,#714));
#159=EDGE_LOOP('',(#715,#716,#717));
#160=EDGE_LOOP('',(#718,#719,#720));
#161=EDGE_LOOP('',(#721,#722,#723));
#162=EDGE_LOOP('',(#724,#725,#726));
#163=EDGE_LOOP('',(#727,#728,#729,#730));
#164=EDGE_LOOP('',(#731,#732,#733,#734));
#165=EDGE_LOOP('',(#735,#736,#737,#738));
#166=EDGE_LOOP('',(#739,#740,#741,#742));
#167=EDGE_LOOP('',(#743,#744,#745,#746));
#168=EDGE_LOOP('',(#747,#748,#749,#750));
#169=EDGE_LOOP('',(#751,#752,#753,#754));
#170=EDGE_LOOP('',(#755));
#171=EDGE_LOOP('',(#756));
#172=EDGE_LOOP('',(#757));
#173=EDGE_LOOP('',(#758));
#174=EDGE_LOOP('',(#759));
#175=EDGE_LOOP('',(#760,#761,#762,#763));
#176=EDGE_LOOP('',(#764,#765,#766,#767));
#177=EDGE_LOOP('',(#768,#769,#770,#771));
#178=EDGE_LOOP('',(#772,#773,#774,#775));
#179=EDGE_LOOP('',(#776,#777,#778,#779));
#180=EDGE_LOOP('',(#780,#781,#782,#783,#784,#785,#786,#787,#788,#789,#790,
#791));
#181=EDGE_LOOP('',(#792,#793,#794,#795,#796,#797,#798,#799));
#182=EDGE_LOOP('',(#800,#801,#802,#803));
#183=EDGE_LOOP('',(#804,#805,#806,#807));
#184=EDGE_LOOP('',(#808));
#185=EDGE_LOOP('',(#809));
#186=EDGE_LOOP('',(#810));
#187=EDGE_LOOP('',(#811));
#188=EDGE_LOOP('',(#812));
#189=LINE('',#1195,#281);
#190=LINE('',#1197,#282);
#191=LINE('',#1199,#283);
#192=LINE('',#1200,#284);
#193=LINE('',#1203,#285);
#194=LINE('',#1205,#286);
#195=LINE('',#1209,#287);
#196=LINE('',#1211,#288);
#197=LINE('',#1214,#289);
#198=LINE('',#1228,#290);
#199=LINE('',#1230,#291);
#200=LINE('',#1232,#292);
#201=LINE('',#1233,#293);
#202=LINE('',#1236,#294);
#203=LINE('',#1238,#295);
#204=LINE('',#1242,#296);
#205=LINE('',#1244,#297);
#206=LINE('',#1246,#298);
#207=LINE('',#1248,#299);
#208=LINE('',#1250,#300);
#209=LINE('',#1251,#301);
#210=LINE('',#1254,#302);
#211=LINE('',#1255,#303);
#212=LINE('',#1258,#304);
#213=LINE('',#1259,#305);
#214=LINE('',#1262,#306);
#215=LINE('',#1263,#307);
#216=LINE('',#1266,#308);
#217=LINE('',#1270,#309);
#218=LINE('',#1272,#310);
#219=LINE('',#1275,#311);
#220=LINE('',#1289,#312);
#221=LINE('',#1291,#313);
#222=LINE('',#1292,#314);
#223=LINE('',#1296,#315);
#224=LINE('',#1298,#316);
#225=LINE('',#1300,#317);
#226=LINE('',#1302,#318);
#227=LINE('',#1304,#319);
#228=LINE('',#1305,#320);
#229=LINE('',#1307,#321);
#230=LINE('',#1309,#322);
#231=LINE('',#1310,#323);
#232=LINE('',#1311,#324);
#233=LINE('',#1313,#325);
#234=LINE('',#1314,#326);
#235=LINE('',#1317,#327);
#236=LINE('',#1319,#328);
#237=LINE('',#1320,#329);
#238=LINE('',#1323,#330);
#239=LINE('',#1325,#331);
#240=LINE('',#1326,#332);
#241=LINE('',#1329,#333);
#242=LINE('',#1330,#334);
#243=LINE('',#1332,#335);
#244=LINE('',#1336,#336);
#245=LINE('',#1337,#337);
#246=LINE('',#1338,#338);
#247=LINE('',#1341,#339);
#248=LINE('',#1342,#340);
#249=LINE('',#1344,#341);
#250=LINE('',#1347,#342);
#251=LINE('',#1348,#343);
#252=LINE('',#1350,#344);
#253=LINE('',#1354,#345);
#254=LINE('',#1355,#346);
#255=LINE('',#1356,#347);
#256=LINE('',#1359,#348);
#257=LINE('',#1360,#349);
#258=LINE('',#1362,#350);
#259=LINE('',#1366,#351);
#260=LINE('',#1368,#352);
#261=LINE('',#1370,#353);
#262=LINE('',#1371,#354);
#263=LINE('',#1375,#355);
#264=LINE('',#1379,#356);
#265=LINE('',#1383,#357);
#266=LINE('',#1387,#358);
#267=LINE('',#1391,#359);
#268=LINE('',#1394,#360);
#269=LINE('',#1397,#361);
#270=LINE('',#1399,#362);
#271=LINE('',#1400,#363);
#272=LINE('',#1404,#364);
#273=LINE('',#1408,#365);
#274=LINE('',#1412,#366);
#275=LINE('',#1416,#367);
#276=LINE('',#1420,#368);
#277=LINE('',#1423,#369);
#278=LINE('',#1424,#370);
#279=LINE('',#1427,#371);
#280=LINE('',#1428,#372);
#281=VECTOR('',#965,10.);
#282=VECTOR('',#966,10.);
#283=VECTOR('',#967,10.);
#284=VECTOR('',#968,10.);
#285=VECTOR('',#971,10.);
#286=VECTOR('',#972,10.);
#287=VECTOR('',#975,10.);
#288=VECTOR('',#976,10.);
#289=VECTOR('',#979,10.);
#290=VECTOR('',#992,10.);
#291=VECTOR('',#993,10.);
#292=VECTOR('',#994,10.);
#293=VECTOR('',#995,10.);
#294=VECTOR('',#998,10.);
#295=VECTOR('',#999,10.);
#296=VECTOR('',#1002,10.);
#297=VECTOR('',#1003,10.);
#298=VECTOR('',#1004,10.);
#299=VECTOR('',#1005,10.);
#300=VECTOR('',#1006,10.);
#301=VECTOR('',#1007,10.);
#302=VECTOR('',#1010,10.);
#303=VECTOR('',#1011,10.);
#304=VECTOR('',#1014,10.);
#305=VECTOR('',#1015,10.);
#306=VECTOR('',#1018,10.);
#307=VECTOR('',#1019,10.);
#308=VECTOR('',#1022,10.);
#309=VECTOR('',#1025,10.);
#310=VECTOR('',#1026,10.);
#311=VECTOR('',#1029,10.);
#312=VECTOR('',#1044,10.);
#313=VECTOR('',#1047,10.);
#314=VECTOR('',#1048,10.);
#315=VECTOR('',#1053,10.);
#316=VECTOR('',#1054,10.);
#317=VECTOR('',#1055,10.);
#318=VECTOR('',#1056,10.);
#319=VECTOR('',#1057,10.);
#320=VECTOR('',#1058,10.);
#321=VECTOR('',#1061,10.);
#322=VECTOR('',#1062,10.);
#323=VECTOR('',#1063,10.);
#324=VECTOR('',#1064,10.);
#325=VECTOR('',#1065,10.);
#326=VECTOR('',#1066,10.);
#327=VECTOR('',#1067,10.);
#328=VECTOR('',#1068,10.);
#329=VECTOR('',#1069,10.);
#330=VECTOR('',#1070,10.);
#331=VECTOR('',#1071,10.);
#332=VECTOR('',#1072,10.);
#333=VECTOR('',#1075,10.);
#334=VECTOR('',#1076,10.);
#335=VECTOR('',#1079,10.);
#336=VECTOR('',#1082,10.);
#337=VECTOR('',#1083,10.);
#338=VECTOR('',#1084,10.);
#339=VECTOR('',#1087,10.);
#340=VECTOR('',#1088,10.);
#341=VECTOR('',#1091,10.);
#342=VECTOR('',#1094,10.);
#343=VECTOR('',#1095,10.);
#344=VECTOR('',#1098,10.);
#345=VECTOR('',#1101,10.);
#346=VECTOR('',#1102,10.);
#347=VECTOR('',#1103,10.);
#348=VECTOR('',#1106,10.);
#349=VECTOR('',#1107,10.);
#350=VECTOR('',#1110,10.);
#351=VECTOR('',#1113,10.);
#352=VECTOR('',#1114,10.);
#353=VECTOR('',#1115,10.);
#354=VECTOR('',#1116,10.);
#355=VECTOR('',#1121,1.75);
#356=VECTOR('',#1126,1.75);
#357=VECTOR('',#1131,3.);
#358=VECTOR('',#1136,1.75);
#359=VECTOR('',#1141,1.75);
#360=VECTOR('',#1144,10.);
#361=VECTOR('',#1147,10.);
#362=VECTOR('',#1150,10.);
#363=VECTOR('',#1151,10.);
#364=VECTOR('',#1156,1.75);
#365=VECTOR('',#1161,1.75);
#366=VECTOR('',#1166,3.);
#367=VECTOR('',#1171,1.75);
#368=VECTOR('',#1176,1.75);
#369=VECTOR('',#1179,10.);
#370=VECTOR('',#1180,10.);
#371=VECTOR('',#1183,10.);
#372=VECTOR('',#1184,10.);
#373=VERTEX_POINT('',#1193);
#374=VERTEX_POINT('',#1194);
#375=VERTEX_POINT('',#1196);
#376=VERTEX_POINT('',#1198);
#377=VERTEX_POINT('',#1202);
#378=VERTEX_POINT('',#1204);
#379=VERTEX_POINT('',#1206);
#380=VERTEX_POINT('',#1208);
#381=VERTEX_POINT('',#1210);
#382=VERTEX_POINT('',#1212);
#383=VERTEX_POINT('',#1215);
#384=VERTEX_POINT('',#1217);
#385=VERTEX_POINT('',#1219);
#386=VERTEX_POINT('',#1221);
#387=VERTEX_POINT('',#1223);
#388=VERTEX_POINT('',#1226);
#389=VERTEX_POINT('',#1227);
#390=VERTEX_POINT('',#1229);
#391=VERTEX_POINT('',#1231);
#392=VERTEX_POINT('',#1235);
#393=VERTEX_POINT('',#1237);
#394=VERTEX_POINT('',#1239);
#395=VERTEX_POINT('',#1241);
#396=VERTEX_POINT('',#1243);
#397=VERTEX_POINT('',#1245);
#398=VERTEX_POINT('',#1247);
#399=VERTEX_POINT('',#1249);
#400=VERTEX_POINT('',#1253);
#401=VERTEX_POINT('',#1257);
#402=VERTEX_POINT('',#1261);
#403=VERTEX_POINT('',#1265);
#404=VERTEX_POINT('',#1267);
#405=VERTEX_POINT('',#1269);
#406=VERTEX_POINT('',#1271);
#407=VERTEX_POINT('',#1273);
#408=VERTEX_POINT('',#1276);
#409=VERTEX_POINT('',#1278);
#410=VERTEX_POINT('',#1280);
#411=VERTEX_POINT('',#1282);
#412=VERTEX_POINT('',#1284);
#413=VERTEX_POINT('',#1287);
#414=VERTEX_POINT('',#1295);
#415=VERTEX_POINT('',#1297);
#416=VERTEX_POINT('',#1299);
#417=VERTEX_POINT('',#1301);
#418=VERTEX_POINT('',#1303);
#419=VERTEX_POINT('',#1308);
#420=VERTEX_POINT('',#1312);
#421=VERTEX_POINT('',#1315);
#422=VERTEX_POINT('',#1316);
#423=VERTEX_POINT('',#1318);
#424=VERTEX_POINT('',#1321);
#425=VERTEX_POINT('',#1322);
#426=VERTEX_POINT('',#1324);
#427=VERTEX_POINT('',#1328);
#428=VERTEX_POINT('',#1334);
#429=VERTEX_POINT('',#1335);
#430=VERTEX_POINT('',#1340);
#431=VERTEX_POINT('',#1346);
#432=VERTEX_POINT('',#1352);
#433=VERTEX_POINT('',#1353);
#434=VERTEX_POINT('',#1358);
#435=VERTEX_POINT('',#1364);
#436=VERTEX_POINT('',#1365);
#437=VERTEX_POINT('',#1367);
#438=VERTEX_POINT('',#1369);
#439=VERTEX_POINT('',#1373);
#440=VERTEX_POINT('',#1377);
#441=VERTEX_POINT('',#1381);
#442=VERTEX_POINT('',#1385);
#443=VERTEX_POINT('',#1389);
#444=VERTEX_POINT('',#1393);
#445=VERTEX_POINT('',#1395);
#446=VERTEX_POINT('',#1402);
#447=VERTEX_POINT('',#1406);
#448=VERTEX_POINT('',#1410);
#449=VERTEX_POINT('',#1414);
#450=VERTEX_POINT('',#1418);
#451=VERTEX_POINT('',#1422);
#452=VERTEX_POINT('',#1426);
#453=EDGE_CURVE('',#373,#374,#189,.T.);
#454=EDGE_CURVE('',#374,#375,#190,.T.);
#455=EDGE_CURVE('',#375,#376,#191,.T.);
#456=EDGE_CURVE('',#373,#376,#192,.T.);
#457=EDGE_CURVE('',#377,#373,#193,.T.);
#458=EDGE_CURVE('',#378,#377,#194,.T.);
#459=EDGE_CURVE('',#379,#378,#55,.T.);
#460=EDGE_CURVE('',#380,#379,#195,.T.);
#461=EDGE_CURVE('',#381,#380,#196,.T.);
#462=EDGE_CURVE('',#382,#381,#56,.T.);
#463=EDGE_CURVE('',#382,#374,#197,.T.);
#464=EDGE_CURVE('',#383,#383,#57,.T.);
#465=EDGE_CURVE('',#384,#384,#58,.T.);
#466=EDGE_CURVE('',#385,#385,#59,.T.);
#467=EDGE_CURVE('',#386,#386,#60,.T.);
#468=EDGE_CURVE('',#387,#387,#61,.T.);
#469=EDGE_CURVE('',#388,#389,#198,.T.);
#470=EDGE_CURVE('',#390,#389,#199,.T.);
#471=EDGE_CURVE('',#390,#391,#200,.T.);
#472=EDGE_CURVE('',#391,#388,#201,.T.);
#473=EDGE_CURVE('',#392,#390,#202,.T.);
#474=EDGE_CURVE('',#393,#392,#203,.T.);
#475=EDGE_CURVE('',#394,#393,#62,.T.);
#476=EDGE_CURVE('',#395,#394,#204,.T.);
#477=EDGE_CURVE('',#396,#395,#205,.T.);
#478=EDGE_CURVE('',#396,#397,#206,.T.);
#479=EDGE_CURVE('',#397,#398,#207,.T.);
#480=EDGE_CURVE('',#399,#398,#208,.T.);
#481=EDGE_CURVE('',#399,#391,#209,.T.);
#482=EDGE_CURVE('',#376,#400,#210,.T.);
#483=EDGE_CURVE('',#400,#377,#211,.T.);
#484=EDGE_CURVE('',#401,#400,#212,.T.);
#485=EDGE_CURVE('',#378,#401,#213,.T.);
#486=EDGE_CURVE('',#389,#402,#214,.T.);
#487=EDGE_CURVE('',#402,#392,#215,.T.);
#488=EDGE_CURVE('',#403,#388,#216,.T.);
#489=EDGE_CURVE('',#403,#404,#63,.T.);
#490=EDGE_CURVE('',#404,#405,#217,.T.);
#491=EDGE_CURVE('',#406,#405,#218,.T.);
#492=EDGE_CURVE('',#407,#406,#64,.T.);
#493=EDGE_CURVE('',#407,#402,#219,.T.);
#494=EDGE_CURVE('',#408,#408,#65,.T.);
#495=EDGE_CURVE('',#409,#409,#66,.T.);
#496=EDGE_CURVE('',#410,#410,#67,.T.);
#497=EDGE_CURVE('',#411,#411,#68,.T.);
#498=EDGE_CURVE('',#412,#412,#69,.T.);
#499=EDGE_CURVE('',#413,#401,#70,.F.);
#500=EDGE_CURVE('',#413,#379,#220,.T.);
#501=EDGE_CURVE('',#393,#407,#221,.T.);
#502=EDGE_CURVE('',#406,#394,#222,.T.);
#503=EDGE_CURVE('',#414,#375,#223,.T.);
#504=EDGE_CURVE('',#415,#414,#224,.T.);
#505=EDGE_CURVE('',#416,#415,#225,.T.);
#506=EDGE_CURVE('',#416,#417,#226,.T.);
#507=EDGE_CURVE('',#417,#418,#227,.T.);
#508=EDGE_CURVE('',#413,#418,#228,.T.);
#509=EDGE_CURVE('',#414,#399,#229,.T.);
#510=EDGE_CURVE('',#398,#419,#230,.T.);
#511=EDGE_CURVE('',#419,#395,#231,.T.);
#512=EDGE_CURVE('',#405,#380,#232,.T.);
#513=EDGE_CURVE('',#418,#420,#233,.T.);
#514=EDGE_CURVE('',#420,#415,#234,.T.);
#515=EDGE_CURVE('',#421,#422,#235,.T.);
#516=EDGE_CURVE('',#422,#423,#236,.T.);
#517=EDGE_CURVE('',#423,#421,#237,.T.);
#518=EDGE_CURVE('',#424,#425,#238,.T.);
#519=EDGE_CURVE('',#425,#426,#239,.T.);
#520=EDGE_CURVE('',#426,#424,#240,.T.);
#521=EDGE_CURVE('',#427,#396,#241,.T.);
#522=EDGE_CURVE('',#427,#419,#242,.T.);
#523=EDGE_CURVE('',#397,#427,#243,.T.);
#524=EDGE_CURVE('',#428,#429,#244,.T.);
#525=EDGE_CURVE('',#429,#421,#245,.T.);
#526=EDGE_CURVE('',#428,#423,#246,.T.);
#527=EDGE_CURVE('',#430,#428,#247,.T.);
#528=EDGE_CURVE('',#430,#422,#248,.T.);
#529=EDGE_CURVE('',#429,#430,#249,.T.);
#530=EDGE_CURVE('',#431,#416,#250,.T.);
#531=EDGE_CURVE('',#431,#420,#251,.T.);
#532=EDGE_CURVE('',#417,#431,#252,.T.);
#533=EDGE_CURVE('',#432,#433,#253,.T.);
#534=EDGE_CURVE('',#433,#424,#254,.T.);
#535=EDGE_CURVE('',#432,#426,#255,.T.);
#536=EDGE_CURVE('',#434,#432,#256,.T.);
#537=EDGE_CURVE('',#434,#425,#257,.T.);
#538=EDGE_CURVE('',#433,#434,#258,.T.);
#539=EDGE_CURVE('',#435,#436,#259,.T.);
#540=EDGE_CURVE('',#435,#437,#260,.T.);
#541=EDGE_CURVE('',#437,#438,#261,.T.);
#542=EDGE_CURVE('',#438,#436,#262,.T.);
#543=EDGE_CURVE('',#439,#439,#71,.T.);
#544=EDGE_CURVE('',#439,#408,#263,.T.);
#545=EDGE_CURVE('',#440,#440,#72,.T.);
#546=EDGE_CURVE('',#440,#409,#264,.T.);
#547=EDGE_CURVE('',#441,#441,#73,.T.);
#548=EDGE_CURVE('',#441,#410,#265,.T.);
#549=EDGE_CURVE('',#442,#442,#74,.T.);
#550=EDGE_CURVE('',#442,#411,#266,.T.);
#551=EDGE_CURVE('',#443,#443,#75,.T.);
#552=EDGE_CURVE('',#443,#412,#267,.T.);
#553=EDGE_CURVE('',#403,#444,#268,.T.);
#554=EDGE_CURVE('',#444,#445,#76,.T.);
#555=EDGE_CURVE('',#404,#445,#269,.T.);
#556=EDGE_CURVE('',#438,#444,#270,.T.);
#557=EDGE_CURVE('',#445,#437,#271,.T.);
#558=EDGE_CURVE('',#446,#446,#77,.T.);
#559=EDGE_CURVE('',#446,#387,#272,.T.);
#560=EDGE_CURVE('',#447,#447,#78,.T.);
#561=EDGE_CURVE('',#447,#386,#273,.T.);
#562=EDGE_CURVE('',#448,#448,#79,.T.);
#563=EDGE_CURVE('',#448,#385,#274,.T.);
#564=EDGE_CURVE('',#449,#449,#80,.T.);
#565=EDGE_CURVE('',#449,#384,#275,.T.);
#566=EDGE_CURVE('',#450,#450,#81,.T.);
#567=EDGE_CURVE('',#450,#383,#276,.T.);
#568=EDGE_CURVE('',#382,#451,#277,.T.);
#569=EDGE_CURVE('',#436,#451,#278,.T.);
#570=EDGE_CURVE('',#452,#435,#279,.T.);
#571=EDGE_CURVE('',#381,#452,#280,.T.);
#572=EDGE_CURVE('',#451,#452,#82,.T.);
#573=ORIENTED_EDGE('',*,*,#453,.T.);
#574=ORIENTED_EDGE('',*,*,#454,.T.);
#575=ORIENTED_EDGE('',*,*,#455,.T.);
#576=ORIENTED_EDGE('',*,*,#456,.F.);
#577=ORIENTED_EDGE('',*,*,#453,.F.);
#578=ORIENTED_EDGE('',*,*,#457,.F.);
#579=ORIENTED_EDGE('',*,*,#458,.F.);
#580=ORIENTED_EDGE('',*,*,#459,.F.);
#581=ORIENTED_EDGE('',*,*,#460,.F.);
#582=ORIENTED_EDGE('',*,*,#461,.F.);
#583=ORIENTED_EDGE('',*,*,#462,.F.);
#584=ORIENTED_EDGE('',*,*,#463,.T.);
#585=ORIENTED_EDGE('',*,*,#464,.F.);
#586=ORIENTED_EDGE('',*,*,#465,.F.);
#587=ORIENTED_EDGE('',*,*,#466,.F.);
#588=ORIENTED_EDGE('',*,*,#467,.F.);
#589=ORIENTED_EDGE('',*,*,#468,.F.);
#590=ORIENTED_EDGE('',*,*,#469,.T.);
#591=ORIENTED_EDGE('',*,*,#470,.F.);
#592=ORIENTED_EDGE('',*,*,#471,.T.);
#593=ORIENTED_EDGE('',*,*,#472,.T.);
#594=ORIENTED_EDGE('',*,*,#471,.F.);
#595=ORIENTED_EDGE('',*,*,#473,.F.);
#596=ORIENTED_EDGE('',*,*,#474,.F.);
#597=ORIENTED_EDGE('',*,*,#475,.F.);
#598=ORIENTED_EDGE('',*,*,#476,.F.);
#599=ORIENTED_EDGE('',*,*,#477,.F.);
#600=ORIENTED_EDGE('',*,*,#478,.T.);
#601=ORIENTED_EDGE('',*,*,#479,.T.);
#602=ORIENTED_EDGE('',*,*,#480,.F.);
#603=ORIENTED_EDGE('',*,*,#481,.T.);
#604=ORIENTED_EDGE('',*,*,#457,.T.);
#605=ORIENTED_EDGE('',*,*,#456,.T.);
#606=ORIENTED_EDGE('',*,*,#482,.T.);
#607=ORIENTED_EDGE('',*,*,#483,.T.);
#608=ORIENTED_EDGE('',*,*,#483,.F.);
#609=ORIENTED_EDGE('',*,*,#484,.F.);
#610=ORIENTED_EDGE('',*,*,#485,.F.);
#611=ORIENTED_EDGE('',*,*,#458,.T.);
#612=ORIENTED_EDGE('',*,*,#473,.T.);
#613=ORIENTED_EDGE('',*,*,#470,.T.);
#614=ORIENTED_EDGE('',*,*,#486,.T.);
#615=ORIENTED_EDGE('',*,*,#487,.T.);
#616=ORIENTED_EDGE('',*,*,#469,.F.);
#617=ORIENTED_EDGE('',*,*,#488,.F.);
#618=ORIENTED_EDGE('',*,*,#489,.T.);
#619=ORIENTED_EDGE('',*,*,#490,.T.);
#620=ORIENTED_EDGE('',*,*,#491,.F.);
#621=ORIENTED_EDGE('',*,*,#492,.F.);
#622=ORIENTED_EDGE('',*,*,#493,.T.);
#623=ORIENTED_EDGE('',*,*,#486,.F.);
#624=ORIENTED_EDGE('',*,*,#494,.T.);
#625=ORIENTED_EDGE('',*,*,#495,.T.);
#626=ORIENTED_EDGE('',*,*,#496,.T.);
#627=ORIENTED_EDGE('',*,*,#497,.T.);
#628=ORIENTED_EDGE('',*,*,#498,.T.);
#629=ORIENTED_EDGE('',*,*,#499,.F.);
#630=ORIENTED_EDGE('',*,*,#500,.T.);
#631=ORIENTED_EDGE('',*,*,#459,.T.);
#632=ORIENTED_EDGE('',*,*,#485,.T.);
#633=ORIENTED_EDGE('',*,*,#475,.T.);
#634=ORIENTED_EDGE('',*,*,#501,.T.);
#635=ORIENTED_EDGE('',*,*,#492,.T.);
#636=ORIENTED_EDGE('',*,*,#502,.T.);
#637=ORIENTED_EDGE('',*,*,#487,.F.);
#638=ORIENTED_EDGE('',*,*,#493,.F.);
#639=ORIENTED_EDGE('',*,*,#501,.F.);
#640=ORIENTED_EDGE('',*,*,#474,.T.);
#641=ORIENTED_EDGE('',*,*,#455,.F.);
#642=ORIENTED_EDGE('',*,*,#503,.F.);
#643=ORIENTED_EDGE('',*,*,#504,.F.);
#644=ORIENTED_EDGE('',*,*,#505,.F.);
#645=ORIENTED_EDGE('',*,*,#506,.T.);
#646=ORIENTED_EDGE('',*,*,#507,.T.);
#647=ORIENTED_EDGE('',*,*,#508,.F.);
#648=ORIENTED_EDGE('',*,*,#499,.T.);
#649=ORIENTED_EDGE('',*,*,#484,.T.);
#650=ORIENTED_EDGE('',*,*,#482,.F.);
#651=ORIENTED_EDGE('',*,*,#504,.T.);
#652=ORIENTED_EDGE('',*,*,#509,.T.);
#653=ORIENTED_EDGE('',*,*,#480,.T.);
#654=ORIENTED_EDGE('',*,*,#510,.T.);
#655=ORIENTED_EDGE('',*,*,#511,.T.);
#656=ORIENTED_EDGE('',*,*,#476,.T.);
#657=ORIENTED_EDGE('',*,*,#502,.F.);
#658=ORIENTED_EDGE('',*,*,#491,.T.);
#659=ORIENTED_EDGE('',*,*,#512,.T.);
#660=ORIENTED_EDGE('',*,*,#460,.T.);
#661=ORIENTED_EDGE('',*,*,#500,.F.);
#662=ORIENTED_EDGE('',*,*,#508,.T.);
#663=ORIENTED_EDGE('',*,*,#513,.T.);
#664=ORIENTED_EDGE('',*,*,#514,.T.);
#665=ORIENTED_EDGE('',*,*,#515,.T.);
#666=ORIENTED_EDGE('',*,*,#516,.T.);
#667=ORIENTED_EDGE('',*,*,#517,.T.);
#668=ORIENTED_EDGE('',*,*,#518,.T.);
#669=ORIENTED_EDGE('',*,*,#519,.T.);
#670=ORIENTED_EDGE('',*,*,#520,.T.);
#671=ORIENTED_EDGE('',*,*,#521,.T.);
#672=ORIENTED_EDGE('',*,*,#477,.T.);
#673=ORIENTED_EDGE('',*,*,#511,.F.);
#674=ORIENTED_EDGE('',*,*,#522,.F.);
#675=ORIENTED_EDGE('',*,*,#523,.T.);
#676=ORIENTED_EDGE('',*,*,#522,.T.);
#677=ORIENTED_EDGE('',*,*,#510,.F.);
#678=ORIENTED_EDGE('',*,*,#479,.F.);
#679=ORIENTED_EDGE('',*,*,#524,.T.);
#680=ORIENTED_EDGE('',*,*,#525,.T.);
#681=ORIENTED_EDGE('',*,*,#517,.F.);
#682=ORIENTED_EDGE('',*,*,#526,.F.);
#683=ORIENTED_EDGE('',*,*,#527,.T.);
#684=ORIENTED_EDGE('',*,*,#526,.T.);
#685=ORIENTED_EDGE('',*,*,#516,.F.);
#686=ORIENTED_EDGE('',*,*,#528,.F.);
#687=ORIENTED_EDGE('',*,*,#529,.T.);
#688=ORIENTED_EDGE('',*,*,#528,.T.);
#689=ORIENTED_EDGE('',*,*,#515,.F.);
#690=ORIENTED_EDGE('',*,*,#525,.F.);
#691=ORIENTED_EDGE('',*,*,#530,.T.);
#692=ORIENTED_EDGE('',*,*,#505,.T.);
#693=ORIENTED_EDGE('',*,*,#514,.F.);
#694=ORIENTED_EDGE('',*,*,#531,.F.);
#695=ORIENTED_EDGE('',*,*,#532,.T.);
#696=ORIENTED_EDGE('',*,*,#531,.T.);
#697=ORIENTED_EDGE('',*,*,#513,.F.);
#698=ORIENTED_EDGE('',*,*,#507,.F.);
#699=ORIENTED_EDGE('',*,*,#533,.T.);
#700=ORIENTED_EDGE('',*,*,#534,.T.);
#701=ORIENTED_EDGE('',*,*,#520,.F.);
#702=ORIENTED_EDGE('',*,*,#535,.F.);
#703=ORIENTED_EDGE('',*,*,#536,.T.);
#704=ORIENTED_EDGE('',*,*,#535,.T.);
#705=ORIENTED_EDGE('',*,*,#519,.F.);
#706=ORIENTED_EDGE('',*,*,#537,.F.);
#707=ORIENTED_EDGE('',*,*,#538,.T.);
#708=ORIENTED_EDGE('',*,*,#537,.T.);
#709=ORIENTED_EDGE('',*,*,#518,.F.);
#710=ORIENTED_EDGE('',*,*,#534,.F.);
#711=ORIENTED_EDGE('',*,*,#539,.F.);
#712=ORIENTED_EDGE('',*,*,#540,.T.);
#713=ORIENTED_EDGE('',*,*,#541,.T.);
#714=ORIENTED_EDGE('',*,*,#542,.T.);
#715=ORIENTED_EDGE('',*,*,#538,.F.);
#716=ORIENTED_EDGE('',*,*,#533,.F.);
#717=ORIENTED_EDGE('',*,*,#536,.F.);
#718=ORIENTED_EDGE('',*,*,#532,.F.);
#719=ORIENTED_EDGE('',*,*,#506,.F.);
#720=ORIENTED_EDGE('',*,*,#530,.F.);
#721=ORIENTED_EDGE('',*,*,#529,.F.);
#722=ORIENTED_EDGE('',*,*,#524,.F.);
#723=ORIENTED_EDGE('',*,*,#527,.F.);
#724=ORIENTED_EDGE('',*,*,#478,.F.);
#725=ORIENTED_EDGE('',*,*,#521,.F.);
#726=ORIENTED_EDGE('',*,*,#523,.F.);
#727=ORIENTED_EDGE('',*,*,#543,.T.);
#728=ORIENTED_EDGE('',*,*,#544,.T.);
#729=ORIENTED_EDGE('',*,*,#494,.F.);
#730=ORIENTED_EDGE('',*,*,#544,.F.);
#731=ORIENTED_EDGE('',*,*,#545,.T.);
#732=ORIENTED_EDGE('',*,*,#546,.T.);
#733=ORIENTED_EDGE('',*,*,#495,.F.);
#734=ORIENTED_EDGE('',*,*,#546,.F.);
#735=ORIENTED_EDGE('',*,*,#547,.T.);
#736=ORIENTED_EDGE('',*,*,#548,.T.);
#737=ORIENTED_EDGE('',*,*,#496,.F.);
#738=ORIENTED_EDGE('',*,*,#548,.F.);
#739=ORIENTED_EDGE('',*,*,#549,.T.);
#740=ORIENTED_EDGE('',*,*,#550,.T.);
#741=ORIENTED_EDGE('',*,*,#497,.F.);
#742=ORIENTED_EDGE('',*,*,#550,.F.);
#743=ORIENTED_EDGE('',*,*,#551,.T.);
#744=ORIENTED_EDGE('',*,*,#552,.T.);
#745=ORIENTED_EDGE('',*,*,#498,.F.);
#746=ORIENTED_EDGE('',*,*,#552,.F.);
#747=ORIENTED_EDGE('',*,*,#489,.F.);
#748=ORIENTED_EDGE('',*,*,#553,.T.);
#749=ORIENTED_EDGE('',*,*,#554,.T.);
#750=ORIENTED_EDGE('',*,*,#555,.F.);
#751=ORIENTED_EDGE('',*,*,#554,.F.);
#752=ORIENTED_EDGE('',*,*,#556,.F.);
#753=ORIENTED_EDGE('',*,*,#541,.F.);
#754=ORIENTED_EDGE('',*,*,#557,.F.);
#755=ORIENTED_EDGE('',*,*,#551,.F.);
#756=ORIENTED_EDGE('',*,*,#549,.F.);
#757=ORIENTED_EDGE('',*,*,#547,.F.);
#758=ORIENTED_EDGE('',*,*,#545,.F.);
#759=ORIENTED_EDGE('',*,*,#543,.F.);
#760=ORIENTED_EDGE('',*,*,#558,.F.);
#761=ORIENTED_EDGE('',*,*,#559,.T.);
#762=ORIENTED_EDGE('',*,*,#468,.T.);
#763=ORIENTED_EDGE('',*,*,#559,.F.);
#764=ORIENTED_EDGE('',*,*,#560,.F.);
#765=ORIENTED_EDGE('',*,*,#561,.T.);
#766=ORIENTED_EDGE('',*,*,#467,.T.);
#767=ORIENTED_EDGE('',*,*,#561,.F.);
#768=ORIENTED_EDGE('',*,*,#562,.F.);
#769=ORIENTED_EDGE('',*,*,#563,.T.);
#770=ORIENTED_EDGE('',*,*,#466,.T.);
#771=ORIENTED_EDGE('',*,*,#563,.F.);
#772=ORIENTED_EDGE('',*,*,#564,.F.);
#773=ORIENTED_EDGE('',*,*,#565,.T.);
#774=ORIENTED_EDGE('',*,*,#465,.T.);
#775=ORIENTED_EDGE('',*,*,#565,.F.);
#776=ORIENTED_EDGE('',*,*,#566,.F.);
#777=ORIENTED_EDGE('',*,*,#567,.T.);
#778=ORIENTED_EDGE('',*,*,#464,.T.);
#779=ORIENTED_EDGE('',*,*,#567,.F.);
#780=ORIENTED_EDGE('',*,*,#454,.F.);
#781=ORIENTED_EDGE('',*,*,#463,.F.);
#782=ORIENTED_EDGE('',*,*,#568,.T.);
#783=ORIENTED_EDGE('',*,*,#569,.F.);
#784=ORIENTED_EDGE('',*,*,#542,.F.);
#785=ORIENTED_EDGE('',*,*,#556,.T.);
#786=ORIENTED_EDGE('',*,*,#553,.F.);
#787=ORIENTED_EDGE('',*,*,#488,.T.);
#788=ORIENTED_EDGE('',*,*,#472,.F.);
#789=ORIENTED_EDGE('',*,*,#481,.F.);
#790=ORIENTED_EDGE('',*,*,#509,.F.);
#791=ORIENTED_EDGE('',*,*,#503,.T.);
#792=ORIENTED_EDGE('',*,*,#461,.T.);
#793=ORIENTED_EDGE('',*,*,#512,.F.);
#794=ORIENTED_EDGE('',*,*,#490,.F.);
#795=ORIENTED_EDGE('',*,*,#555,.T.);
#796=ORIENTED_EDGE('',*,*,#557,.T.);
#797=ORIENTED_EDGE('',*,*,#540,.F.);
#798=ORIENTED_EDGE('',*,*,#570,.F.);
#799=ORIENTED_EDGE('',*,*,#571,.F.);
#800=ORIENTED_EDGE('',*,*,#462,.T.);
#801=ORIENTED_EDGE('',*,*,#571,.T.);
#802=ORIENTED_EDGE('',*,*,#572,.F.);
#803=ORIENTED_EDGE('',*,*,#568,.F.);
#804=ORIENTED_EDGE('',*,*,#572,.T.);
#805=ORIENTED_EDGE('',*,*,#570,.T.);
#806=ORIENTED_EDGE('',*,*,#539,.T.);
#807=ORIENTED_EDGE('',*,*,#569,.T.);
#808=ORIENTED_EDGE('',*,*,#566,.T.);
#809=ORIENTED_EDGE('',*,*,#564,.T.);
#810=ORIENTED_EDGE('',*,*,#562,.T.);
#811=ORIENTED_EDGE('',*,*,#560,.T.);
#812=ORIENTED_EDGE('',*,*,#558,.T.);
#813=PLANE('',#893);
#814=PLANE('',#894);
#815=PLANE('',#902);
#816=PLANE('',#903);
#817=PLANE('',#905);
#818=PLANE('',#906);
#819=PLANE('',#907);
#820=PLANE('',#908);
#821=PLANE('',#919);
#822=PLANE('',#920);
#823=PLANE('',#921);
#824=PLANE('',#922);
#825=PLANE('',#923);
#826=PLANE('',#924);
#827=PLANE('',#925);
#828=PLANE('',#926);
#829=PLANE('',#927);
#830=PLANE('',#928);
#831=PLANE('',#929);
#832=PLANE('',#930);
#833=PLANE('',#931);
#834=PLANE('',#932);
#835=PLANE('',#945);
#836=PLANE('',#956);
#837=PLANE('',#957);
#838=PLANE('',#960);
#839=ADVANCED_FACE('',(#83),#813,.T.);
#840=ADVANCED_FACE('',(#84,#29,#30,#31,#32,#33),#814,.F.);
#841=ADVANCED_FACE('',(#85),#815,.T.);
#842=ADVANCED_FACE('',(#86),#816,.T.);
#843=ADVANCED_FACE('',(#87),#817,.T.);
#844=ADVANCED_FACE('',(#88),#818,.T.);
#845=ADVANCED_FACE('',(#89),#819,.T.);
#846=ADVANCED_FACE('',(#90,#34,#35,#36,#37,#38),#820,.T.);
#847=ADVANCED_FACE('',(#91),#15,.F.);
#848=ADVANCED_FACE('',(#92),#16,.F.);
#849=ADVANCED_FACE('',(#93),#821,.T.);
#850=ADVANCED_FACE('',(#94),#822,.T.);
#851=ADVANCED_FACE('',(#95,#39,#40),#823,.T.);
#852=ADVANCED_FACE('',(#96),#824,.T.);
#853=ADVANCED_FACE('',(#97),#825,.T.);
#854=ADVANCED_FACE('',(#98),#826,.T.);
#855=ADVANCED_FACE('',(#99),#827,.T.);
#856=ADVANCED_FACE('',(#100),#828,.T.);
#857=ADVANCED_FACE('',(#101),#829,.T.);
#858=ADVANCED_FACE('',(#102),#830,.T.);
#859=ADVANCED_FACE('',(#103),#831,.T.);
#860=ADVANCED_FACE('',(#104),#832,.T.);
#861=ADVANCED_FACE('',(#105),#833,.T.);
#862=ADVANCED_FACE('',(#106,#41,#42,#43,#44),#834,.F.);
#863=ADVANCED_FACE('',(#107),#17,.F.);
#864=ADVANCED_FACE('',(#108),#18,.F.);
#865=ADVANCED_FACE('',(#109),#19,.F.);
#866=ADVANCED_FACE('',(#110),#20,.F.);
#867=ADVANCED_FACE('',(#111),#21,.F.);
#868=ADVANCED_FACE('',(#112),#22,.T.);
#869=ADVANCED_FACE('',(#113,#45,#46,#47,#48,#49),#835,.F.);
#870=ADVANCED_FACE('',(#114),#23,.F.);
#871=ADVANCED_FACE('',(#115),#24,.F.);
#872=ADVANCED_FACE('',(#116),#25,.F.);
#873=ADVANCED_FACE('',(#117),#26,.F.);
#874=ADVANCED_FACE('',(#118),#27,.F.);
#875=ADVANCED_FACE('',(#119),#836,.T.);
#876=ADVANCED_FACE('',(#120),#837,.T.);
#877=ADVANCED_FACE('',(#121),#28,.T.);
#878=ADVANCED_FACE('',(#122,#50,#51,#52,#53,#54),#838,.T.);
#879=CLOSED_SHELL('',(#839,#840,#841,#842,#843,#844,#845,#846,#847,#848,
#849,#850,#851,#852,#853,#854,#855,#856,#857,#858,#859,#860,#861,#862,#863,
#864,#865,#866,#867,#868,#869,#870,#871,#872,#873,#874,#875,#876,#877,#878));
#880=DERIVED_UNIT_ELEMENT(#882,1.);
#881=DERIVED_UNIT_ELEMENT(#1437,-3.);
#882=(
MASS_UNIT()
NAMED_UNIT(*)
SI_UNIT(.KILO.,.GRAM.)
);
#883=DERIVED_UNIT((#880,#881));
#884=MEASURE_REPRESENTATION_ITEM('density measure',
POSITIVE_RATIO_MEASURE(7850.),#883);
#885=PROPERTY_DEFINITION_REPRESENTATION(#890,#887);
#886=PROPERTY_DEFINITION_REPRESENTATION(#891,#888);
#887=REPRESENTATION('material name',(#889),#1434);
#888=REPRESENTATION('density',(#884),#1434);
#889=DESCRIPTIVE_REPRESENTATION_ITEM('Steel','Steel');
#890=PROPERTY_DEFINITION('material property','material name',#1444);
#891=PROPERTY_DEFINITION('material property','density of part',#1444);
#892=AXIS2_PLACEMENT_3D('',#1191,#961,#962);
#893=AXIS2_PLACEMENT_3D('',#1192,#963,#964);
#894=AXIS2_PLACEMENT_3D('',#1201,#969,#970);
#895=AXIS2_PLACEMENT_3D('',#1207,#973,#974);
#896=AXIS2_PLACEMENT_3D('',#1213,#977,#978);
#897=AXIS2_PLACEMENT_3D('',#1216,#980,#981);
#898=AXIS2_PLACEMENT_3D('',#1218,#982,#983);
#899=AXIS2_PLACEMENT_3D('',#1220,#984,#985);
#900=AXIS2_PLACEMENT_3D('',#1222,#986,#987);
#901=AXIS2_PLACEMENT_3D('',#1224,#988,#989);
#902=AXIS2_PLACEMENT_3D('',#1225,#990,#991);
#903=AXIS2_PLACEMENT_3D('',#1234,#996,#997);
#904=AXIS2_PLACEMENT_3D('',#1240,#1000,#1001);
#905=AXIS2_PLACEMENT_3D('',#1252,#1008,#1009);
#906=AXIS2_PLACEMENT_3D('',#1256,#1012,#1013);
#907=AXIS2_PLACEMENT_3D('',#1260,#1016,#1017);
#908=AXIS2_PLACEMENT_3D('',#1264,#1020,#1021);
#909=AXIS2_PLACEMENT_3D('',#1268,#1023,#1024);
#910=AXIS2_PLACEMENT_3D('',#1274,#1027,#1028);
#911=AXIS2_PLACEMENT_3D('',#1277,#1030,#1031);
#912=AXIS2_PLACEMENT_3D('',#1279,#1032,#1033);
#913=AXIS2_PLACEMENT_3D('',#1281,#1034,#1035);
#914=AXIS2_PLACEMENT_3D('',#1283,#1036,#1037);
#915=AXIS2_PLACEMENT_3D('',#1285,#1038,#1039);
#916=AXIS2_PLACEMENT_3D('',#1286,#1040,#1041);
#917=AXIS2_PLACEMENT_3D('',#1288,#1042,#1043);
#918=AXIS2_PLACEMENT_3D('',#1290,#1045,#1046);
#919=AXIS2_PLACEMENT_3D('',#1293,#1049,#1050);
#920=AXIS2_PLACEMENT_3D('',#1294,#1051,#1052);
#921=AXIS2_PLACEMENT_3D('',#1306,#1059,#1060);
#922=AXIS2_PLACEMENT_3D('',#1327,#1073,#1074);
#923=AXIS2_PLACEMENT_3D('',#1331,#1077,#1078);
#924=AXIS2_PLACEMENT_3D('',#1333,#1080,#1081);
#925=AXIS2_PLACEMENT_3D('',#1339,#1085,#1086);
#926=AXIS2_PLACEMENT_3D('',#1343,#1089,#1090);
#927=AXIS2_PLACEMENT_3D('',#1345,#1092,#1093);
#928=AXIS2_PLACEMENT_3D('',#1349,#1096,#1097);
#929=AXIS2_PLACEMENT_3D('',#1351,#1099,#1100);
#930=AXIS2_PLACEMENT_3D('',#1357,#1104,#1105);
#931=AXIS2_PLACEMENT_3D('',#1361,#1108,#1109);
#932=AXIS2_PLACEMENT_3D('',#1363,#1111,#1112);
#933=AXIS2_PLACEMENT_3D('',#1372,#1117,#1118);
#934=AXIS2_PLACEMENT_3D('',#1374,#1119,#1120);
#935=AXIS2_PLACEMENT_3D('',#1376,#1122,#1123);
#936=AXIS2_PLACEMENT_3D('',#1378,#1124,#1125);
#937=AXIS2_PLACEMENT_3D('',#1380,#1127,#1128);
#938=AXIS2_PLACEMENT_3D('',#1382,#1129,#1130);
#939=AXIS2_PLACEMENT_3D('',#1384,#1132,#1133);
#940=AXIS2_PLACEMENT_3D('',#1386,#1134,#1135);
#941=AXIS2_PLACEMENT_3D('',#1388,#1137,#1138);
#942=AXIS2_PLACEMENT_3D('',#1390,#1139,#1140);
#943=AXIS2_PLACEMENT_3D('',#1392,#1142,#1143);
#944=AXIS2_PLACEMENT_3D('',#1396,#1145,#1146);
#945=AXIS2_PLACEMENT_3D('',#1398,#1148,#1149);
#946=AXIS2_PLACEMENT_3D('',#1401,#1152,#1153);
#947=AXIS2_PLACEMENT_3D('',#1403,#1154,#1155);
#948=AXIS2_PLACEMENT_3D('',#1405,#1157,#1158);
#949=AXIS2_PLACEMENT_3D('',#1407,#1159,#1160);
#950=AXIS2_PLACEMENT_3D('',#1409,#1162,#1163);
#951=AXIS2_PLACEMENT_3D('',#1411,#1164,#1165);
#952=AXIS2_PLACEMENT_3D('',#1413,#1167,#1168);
#953=AXIS2_PLACEMENT_3D('',#1415,#1169,#1170);
#954=AXIS2_PLACEMENT_3D('',#1417,#1172,#1173);
#955=AXIS2_PLACEMENT_3D('',#1419,#1174,#1175);
#956=AXIS2_PLACEMENT_3D('',#1421,#1177,#1178);
#957=AXIS2_PLACEMENT_3D('',#1425,#1181,#1182);
#958=AXIS2_PLACEMENT_3D('',#1429,#1185,#1186);
#959=AXIS2_PLACEMENT_3D('',#1430,#1187,#1188);
#960=AXIS2_PLACEMENT_3D('',#1431,#1189,#1190);
#961=DIRECTION('axis',(0.,0.,1.));
#962=DIRECTION('refdir',(1.,0.,0.));
#963=DIRECTION('center_axis',(-0.707106781186544,-0.707106781186551,0.));
#964=DIRECTION('ref_axis',(0.,0.,1.));
#965=DIRECTION('',(0.707106781186551,-0.707106781186544,0.));
#966=DIRECTION('',(0.,0.,1.));
#967=DIRECTION('',(-0.707106781186551,0.707106781186544,0.));
#968=DIRECTION('',(0.,0.,1.));
#969=DIRECTION('center_axis',(0.,0.,1.));
#970=DIRECTION('ref_axis',(1.,0.,0.));
#971=DIRECTION('',(-0.707106781186547,-0.707106781186548,0.));
#972=DIRECTION('',(-1.,0.,0.));
#973=DIRECTION('center_axis',(0.,0.,-1.));
#974=DIRECTION('ref_axis',(0.707106781186547,-0.707106781186548,0.));
#975=DIRECTION('',(0.,-1.,0.));
#976=DIRECTION('',(-1.,0.,0.));
#977=DIRECTION('center_axis',(0.,0.,1.));
#978=DIRECTION('ref_axis',(1.,0.,0.));
#979=DIRECTION('',(-1.,0.,0.));
#980=DIRECTION('center_axis',(0.,0.,-1.));
#981=DIRECTION('ref_axis',(1.,0.,0.));
#982=DIRECTION('center_axis',(0.,0.,-1.));
#983=DIRECTION('ref_axis',(1.,0.,0.));
#984=DIRECTION('center_axis',(0.,0.,-1.));
#985=DIRECTION('ref_axis',(1.,0.,0.));
#986=DIRECTION('center_axis',(0.,0.,-1.));
#987=DIRECTION('ref_axis',(1.,0.,0.));
#988=DIRECTION('center_axis',(0.,0.,-1.));
#989=DIRECTION('ref_axis',(1.,0.,0.));
#990=DIRECTION('center_axis',(-0.707106781186544,-0.707106781186551,0.));
#991=DIRECTION('ref_axis',(0.,0.,1.));
#992=DIRECTION('',(-0.707106781186551,0.707106781186544,0.));
#993=DIRECTION('',(0.,0.,1.));
#994=DIRECTION('',(0.707106781186551,-0.707106781186544,0.));
#995=DIRECTION('',(0.,0.,1.));
#996=DIRECTION('center_axis',(0.,0.,-1.));
#997=DIRECTION('ref_axis',(0.,-1.,0.));
#998=DIRECTION('',(-0.707106781186547,-0.707106781186548,0.));
#999=DIRECTION('',(-1.,0.,0.));
#1000=DIRECTION('center_axis',(0.,0.,-1.));
#1001=DIRECTION('ref_axis',(0.707106781186547,-0.707106781186548,0.));
#1002=DIRECTION('',(0.,-1.,0.));
#1003=DIRECTION('',(-1.,0.,0.));
#1004=DIRECTION('',(0.,-1.,0.));
#1005=DIRECTION('',(-1.,0.,0.));
#1006=DIRECTION('',(0.,1.,0.));
#1007=DIRECTION('',(-1.,0.,0.));
#1008=DIRECTION('center_axis',(-0.707106781186548,0.707106781186547,0.));
#1009=DIRECTION('ref_axis',(0.,0.,1.));
#1010=DIRECTION('',(0.707106781186547,0.707106781186548,0.));
#1011=DIRECTION('',(0.,0.,-1.));
#1012=DIRECTION('center_axis',(0.,1.,0.));
#1013=DIRECTION('ref_axis',(0.,0.,-1.));
#1014=DIRECTION('',(-1.,0.,0.));
#1015=DIRECTION('',(0.,0.,1.));
#1016=DIRECTION('center_axis',(-0.707106781186548,0.707106781186547,0.));
#1017=DIRECTION('ref_axis',(0.,0.,1.));
#1018=DIRECTION('',(0.707106781186547,0.707106781186548,0.));
#1019=DIRECTION('',(0.,0.,-1.));
#1020=DIRECTION('center_axis',(0.,0.,1.));
#1021=DIRECTION('ref_axis',(1.,0.,0.));
#1022=DIRECTION('',(-1.,0.,0.));
#1023=DIRECTION('center_axis',(0.,0.,1.));
#1024=DIRECTION('ref_axis',(1.,0.,0.));
#1025=DIRECTION('',(-1.,0.,0.));
#1026=DIRECTION('',(0.,1.,0.));
#1027=DIRECTION('center_axis',(0.,0.,1.));
#1028=DIRECTION('ref_axis',(0.707106781186547,-0.707106781186548,0.));
#1029=DIRECTION('',(-1.,0.,0.));
#1030=DIRECTION('center_axis',(0.,0.,-1.));
#1031=DIRECTION('ref_axis',(1.,0.,0.));
#1032=DIRECTION('center_axis',(0.,0.,-1.));
#1033=DIRECTION('ref_axis',(1.,0.,0.));
#1034=DIRECTION('center_axis',(0.,0.,-1.));
#1035=DIRECTION('ref_axis',(1.,0.,0.));
#1036=DIRECTION('center_axis',(0.,0.,-1.));
#1037=DIRECTION('ref_axis',(1.,0.,0.));
#1038=DIRECTION('center_axis',(0.,0.,-1.));
#1039=DIRECTION('ref_axis',(1.,0.,0.));
#1040=DIRECTION('center_axis',(0.,0.,1.));
#1041=DIRECTION('ref_axis',(0.707106781186547,-0.707106781186548,0.));
#1042=DIRECTION('center_axis',(0.,0.,1.));
#1043=DIRECTION('ref_axis',(0.707106781186547,-0.707106781186548,0.));
#1044=DIRECTION('',(0.,0.,-1.));
#1045=DIRECTION('center_axis',(0.,0.,1.));
#1046=DIRECTION('ref_axis',(0.707106781186547,-0.707106781186548,0.));
#1047=DIRECTION('',(0.,0.,1.));
#1048=DIRECTION('',(0.,0.,-1.));
#1049=DIRECTION('center_axis',(0.,1.,0.));
#1050=DIRECTION('ref_axis',(0.,0.,-1.));
#1051=DIRECTION('center_axis',(0.,0.,1.));
#1052=DIRECTION('ref_axis',(0.,1.,0.));
#1053=DIRECTION('',(-1.,0.,0.));
#1054=DIRECTION('',(0.,-1.,0.));
#1055=DIRECTION('',(-1.,0.,0.));
#1056=DIRECTION('',(0.,1.,-1.70803542250024E-16));
#1057=DIRECTION('',(-1.,0.,0.));
#1058=DIRECTION('',(0.,1.,-1.70803542250024E-16));
#1059=DIRECTION('center_axis',(-1.,0.,0.));
#1060=DIRECTION('ref_axis',(0.,0.,1.));
#1061=DIRECTION('',(0.,0.,1.));
#1062=DIRECTION('',(0.,0.386726676250675,-0.922194381828531));
#1063=DIRECTION('',(0.,0.386726676250675,0.922194381828531));
#1064=DIRECTION('',(0.,0.,-1.));
#1065=DIRECTION('',(0.,-0.386726676250674,0.922194381828531));
#1066=DIRECTION('',(0.,-0.386726676250674,-0.922194381828531));
#1067=DIRECTION('',(0.,-0.386726676250674,0.922194381828531));
#1068=DIRECTION('',(0.,7.16272919113004E-17,-1.));
#1069=DIRECTION('',(0.,0.386726676250675,0.922194381828531));
#1070=DIRECTION('',(0.,-0.386726676250674,-0.922194381828531));
#1071=DIRECTION('',(0.,0.386726676250675,-0.922194381828531));
#1072=DIRECTION('',(0.,-2.14881875733901E-16,1.));
#1073=DIRECTION('center_axis',(0.,-0.922194381828531,0.386726676250675));
#1074=DIRECTION('ref_axis',(0.,0.386726676250674,0.922194381828531));
#1075=DIRECTION('',(0.,0.386726676250675,0.922194381828531));
#1076=DIRECTION('',(-1.,0.,0.));
#1077=DIRECTION('center_axis',(0.,0.922194381828531,0.386726676250675));
#1078=DIRECTION('ref_axis',(0.,0.386726676250675,-0.922194381828531));
#1079=DIRECTION('',(0.,0.386726676250675,-0.922194381828531));
#1080=DIRECTION('center_axis',(0.,-0.922194381828531,0.386726676250675));
#1081=DIRECTION('ref_axis',(0.,0.386726676250674,0.922194381828531));
#1082=DIRECTION('',(0.,0.386726676250675,0.922194381828531));
#1083=DIRECTION('',(-1.,0.,0.));
#1084=DIRECTION('',(-1.,0.,0.));
#1085=DIRECTION('center_axis',(0.,1.,7.16272919113004E-17));
#1086=DIRECTION('ref_axis',(0.,7.16272919113004E-17,-1.));
#1087=DIRECTION('',(0.,7.16272919113004E-17,-1.));
#1088=DIRECTION('',(-1.,0.,0.));
#1089=DIRECTION('center_axis',(0.,-0.922194381828531,-0.386726676250674));
#1090=DIRECTION('ref_axis',(0.,-0.386726676250674,0.922194381828531));
#1091=DIRECTION('',(0.,-0.386726676250674,0.922194381828531));
#1092=DIRECTION('center_axis',(0.,0.922194381828531,-0.386726676250674));
#1093=DIRECTION('ref_axis',(0.,-0.386726676250674,-0.922194381828531));
#1094=DIRECTION('',(0.,-0.386726676250674,-0.922194381828531));
#1095=DIRECTION('',(-1.,0.,0.));
#1096=DIRECTION('center_axis',(0.,-0.922194381828531,-0.386726676250674));
#1097=DIRECTION('ref_axis',(0.,-0.386726676250674,0.922194381828531));
#1098=DIRECTION('',(0.,-0.386726676250674,0.922194381828531));
#1099=DIRECTION('center_axis',(0.,-1.,-2.14881875733901E-16));
#1100=DIRECTION('ref_axis',(0.,-2.14881875733901E-16,1.));
#1101=DIRECTION('',(0.,-2.14881875733901E-16,1.));
#1102=DIRECTION('',(-1.,0.,0.));
#1103=DIRECTION('',(-1.,0.,0.));
#1104=DIRECTION('center_axis',(0.,0.922194381828531,0.386726676250675));
#1105=DIRECTION('ref_axis',(0.,0.386726676250675,-0.922194381828531));
#1106=DIRECTION('',(0.,0.386726676250675,-0.922194381828531));
#1107=DIRECTION('',(-1.,0.,0.));
#1108=DIRECTION('center_axis',(0.,0.922194381828531,-0.386726676250674));
#1109=DIRECTION('ref_axis',(0.,-0.386726676250674,-0.922194381828531));
#1110=DIRECTION('',(0.,-0.386726676250674,-0.922194381828531));
#1111=DIRECTION('center_axis',(-1.,0.,0.));
#1112=DIRECTION('ref_axis',(0.,-1.,0.));
#1113=DIRECTION('',(-2.11471052309554E-16,-1.,0.));
#1114=DIRECTION('',(0.,0.,1.));
#1115=DIRECTION('',(-2.11471052309554E-16,-1.,0.));
#1116=DIRECTION('',(0.,0.,-1.));
#1117=DIRECTION('center_axis',(0.,0.,1.));
#1118=DIRECTION('ref_axis',(1.,0.,0.));
#1119=DIRECTION('center_axis',(0.,0.,-1.));
#1120=DIRECTION('ref_axis',(1.,0.,0.));
#1121=DIRECTION('',(0.,0.,1.));
#1122=DIRECTION('center_axis',(0.,0.,1.));
#1123=DIRECTION('ref_axis',(1.,0.,0.));
#1124=DIRECTION('center_axis',(0.,0.,-1.));
#1125=DIRECTION('ref_axis',(1.,0.,0.));
#1126=DIRECTION('',(0.,0.,1.));
#1127=DIRECTION('center_axis',(0.,0.,1.));
#1128=DIRECTION('ref_axis',(1.,0.,0.));
#1129=DIRECTION('center_axis',(0.,0.,-1.));
#1130=DIRECTION('ref_axis',(1.,0.,0.));
#1131=DIRECTION('',(0.,0.,1.));
#1132=DIRECTION('center_axis',(0.,0.,1.));
#1133=DIRECTION('ref_axis',(1.,0.,0.));
#1134=DIRECTION('center_axis',(0.,0.,-1.));
#1135=DIRECTION('ref_axis',(1.,0.,0.));
#1136=DIRECTION('',(0.,0.,1.));
#1137=DIRECTION('center_axis',(0.,0.,1.));
#1138=DIRECTION('ref_axis',(1.,0.,0.));
#1139=DIRECTION('center_axis',(0.,0.,-1.));
#1140=DIRECTION('ref_axis',(1.,0.,0.));
#1141=DIRECTION('',(0.,0.,1.));
#1142=DIRECTION('center_axis',(0.,0.,1.));
#1143=DIRECTION('ref_axis',(1.,0.,0.));
#1144=DIRECTION('',(0.,0.,-1.));
#1145=DIRECTION('center_axis',(0.,0.,1.));
#1146=DIRECTION('ref_axis',(1.,0.,0.));
#1147=DIRECTION('',(0.,0.,-1.));
#1148=DIRECTION('center_axis',(0.,0.,1.));
#1149=DIRECTION('ref_axis',(1.,0.,0.));
#1150=DIRECTION('',(1.,0.,0.));
#1151=DIRECTION('',(-1.,0.,0.));
#1152=DIRECTION('center_axis',(0.,0.,1.));
#1153=DIRECTION('ref_axis',(1.,0.,0.));
#1154=DIRECTION('center_axis',(0.,0.,-1.));
#1155=DIRECTION('ref_axis',(1.,0.,0.));
#1156=DIRECTION('',(0.,0.,-1.));
#1157=DIRECTION('center_axis',(0.,0.,1.));
#1158=DIRECTION('ref_axis',(1.,0.,0.));
#1159=DIRECTION('center_axis',(0.,0.,-1.));
#1160=DIRECTION('ref_axis',(1.,0.,0.));
#1161=DIRECTION('',(0.,0.,-1.));
#1162=DIRECTION('center_axis',(0.,0.,1.));
#1163=DIRECTION('ref_axis',(1.,0.,0.));
#1164=DIRECTION('center_axis',(0.,0.,-1.));
#1165=DIRECTION('ref_axis',(1.,0.,0.));
#1166=DIRECTION('',(0.,0.,-1.));
#1167=DIRECTION('center_axis',(0.,0.,1.));
#1168=DIRECTION('ref_axis',(1.,0.,0.));
#1169=DIRECTION('center_axis',(0.,0.,-1.));
#1170=DIRECTION('ref_axis',(1.,0.,0.));
#1171=DIRECTION('',(0.,0.,-1.));
#1172=DIRECTION('center_axis',(0.,0.,1.));
#1173=DIRECTION('ref_axis',(1.,0.,0.));
#1174=DIRECTION('center_axis',(0.,0.,-1.));
#1175=DIRECTION('ref_axis',(1.,0.,0.));
#1176=DIRECTION('',(0.,0.,-1.));
#1177=DIRECTION('center_axis',(0.,-1.,0.));
#1178=DIRECTION('ref_axis',(1.,0.,0.));
#1179=DIRECTION('',(0.,0.,1.));
#1180=DIRECTION('',(1.,0.,0.));
#1181=DIRECTION('center_axis',(0.,1.,0.));
#1182=DIRECTION('ref_axis',(-1.,0.,0.));
#1183=DIRECTION('',(-1.,0.,0.));
#1184=DIRECTION('',(0.,0.,1.));
#1185=DIRECTION('center_axis',(0.,0.,1.));
#1186=DIRECTION('ref_axis',(1.,0.,0.));
#1187=DIRECTION('center_axis',(0.,0.,1.));
#1188=DIRECTION('ref_axis',(1.,0.,0.));
#1189=DIRECTION('center_axis',(0.,0.,1.));
#1190=DIRECTION('ref_axis',(1.,0.,0.));
#1191=CARTESIAN_POINT('',(0.,0.,0.));
#1192=CARTESIAN_POINT('Origin',(-76.5,-9.5,1.75));
#1193=CARTESIAN_POINT('',(-77.5,-8.50000000000001,8.88178419700125E-15));
#1194=CARTESIAN_POINT('',(-75.5,-10.5,8.88178419700125E-15));
#1195=CARTESIAN_POINT('',(-60.4999999999998,-25.5,1.38777878078145E-16));
#1196=CARTESIAN_POINT('',(-75.5,-10.5,7.00000000000001));
#1197=CARTESIAN_POINT('',(-75.5,-10.5,1.75));
#1198=CARTESIAN_POINT('',(-77.5,-8.50000000000001,7.00000000000001));
#1199=CARTESIAN_POINT('',(-62.2499999999999,-23.75,7.00000000000001));
#1200=CARTESIAN_POINT('',(-77.5,-8.50000000000001,5.25000000000001));
#1201=CARTESIAN_POINT('Origin',(-3.,0.,0.));
#1202=CARTESIAN_POINT('',(-74.5,-5.50000000000001,8.88178419700125E-15));
#1203=CARTESIAN_POINT('',(-56.,13.,-5.55111512312578E-16));
#1204=CARTESIAN_POINT('',(-23.5,-5.50000000000001,8.88178419700125E-15));
#1205=CARTESIAN_POINT('',(-20.5,-5.50000000000001,8.88178419700125E-15));
#1206=CARTESIAN_POINT('',(-20.5,-2.5,8.88178419700125E-15));
#1207=CARTESIAN_POINT('Origin',(-23.5,-2.5,0.));
#1208=CARTESIAN_POINT('',(-20.5,10.5,8.88178419700125E-15));
#1209=CARTESIAN_POINT('',(-20.5,-10.5,8.88178419700125E-15));
#1210=CARTESIAN_POINT('',(3.79796021021672E-15,10.5,0.));
#1211=CARTESIAN_POINT('',(3.79796021021672E-15,10.5,0.));
#1212=CARTESIAN_POINT('',(6.42931888283904E-16,-10.5,0.));
#1213=CARTESIAN_POINT('Origin',(0.,0.,0.));
#1214=CARTESIAN_POINT('',(-16.5,-10.5,8.88178419700125E-15));
#1215=CARTESIAN_POINT('',(-1.75,7.,0.));
#1216=CARTESIAN_POINT('Origin',(4.16333634234434E-16,7.,0.));
#1217=CARTESIAN_POINT('',(-8.75,6.18354078618081E-16,0.));
#1218=CARTESIAN_POINT('Origin',(-7.,8.32667268468867E-16,0.));
#1219=CARTESIAN_POINT('',(-3.,-3.67394039744206E-16,0.));
#1220=CARTESIAN_POINT('Origin',(0.,0.,0.));
#1221=CARTESIAN_POINT('',(-1.75,-7.,0.));
#1222=CARTESIAN_POINT('Origin',(-1.31838984174237E-15,-7.,0.));
#1223=CARTESIAN_POINT('',(5.25,-1.87964772678852E-15,0.));
#1224=CARTESIAN_POINT('Origin',(7.,-1.66533453693773E-15,0.));
#1225=CARTESIAN_POINT('Origin',(-76.5,-9.5,20.75));
#1226=CARTESIAN_POINT('',(-75.5,-10.5,45.));
#1227=CARTESIAN_POINT('',(-77.5,-8.50000000000001,45.));
#1228=CARTESIAN_POINT('',(-60.4999999999998,-25.5,45.));
#1229=CARTESIAN_POINT('',(-77.5,-8.50000000000001,38.));
#1230=CARTESIAN_POINT('',(-77.5,-8.50000000000001,43.25));
#1231=CARTESIAN_POINT('',(-75.5,-10.5,38.));
#1232=CARTESIAN_POINT('',(-64.9578149576137,-21.0421850423862,38.));
#1233=CARTESIAN_POINT('',(-75.5,-10.5,20.75));
#1234=CARTESIAN_POINT('Origin',(-16.5,4.33125983045526,38.));
#1235=CARTESIAN_POINT('',(-74.5,-5.50000000000001,38.));
#1236=CARTESIAN_POINT('',(-58.2921850423862,10.7078149576138,38.));
#1237=CARTESIAN_POINT('',(-23.5,-5.50000000000001,38.));
#1238=CARTESIAN_POINT('',(-20.5,-5.50000000000001,38.));
#1239=CARTESIAN_POINT('',(-20.5,-2.5,38.));
#1240=CARTESIAN_POINT('Origin',(-23.5,-2.5,38.));
#1241=CARTESIAN_POINT('',(-20.5,4.33125983045526,38.));
#1242=CARTESIAN_POINT('',(-20.5,6.49999999999999,38.));
#1243=CARTESIAN_POINT('',(-16.5,4.33125983045526,38.));
#1244=CARTESIAN_POINT('',(-16.5,4.33125983045526,38.));
#1245=CARTESIAN_POINT('',(-16.5,-4.33125983045528,38.));
#1246=CARTESIAN_POINT('',(-16.5,6.49999999999999,38.));
#1247=CARTESIAN_POINT('',(-20.5,-4.33125983045528,38.));
#1248=CARTESIAN_POINT('',(-16.5,-4.33125983045528,38.));
#1249=CARTESIAN_POINT('',(-20.5,-10.5,38.));
#1250=CARTESIAN_POINT('',(-20.5,-2.75,38.));
#1251=CARTESIAN_POINT('',(-20.5,-10.5,38.));
#1252=CARTESIAN_POINT('Origin',(-76.,-7.00000000000001,5.25000000000001));
#1253=CARTESIAN_POINT('',(-74.5,-5.50000000000001,7.00000000000001));
#1254=CARTESIAN_POINT('',(-63.,5.99999999999999,7.00000000000001));
#1255=CARTESIAN_POINT('',(-74.5,-5.50000000000001,5.25000000000001));
#1256=CARTESIAN_POINT('Origin',(-20.5,-5.50000000000001,7.00000000000001));
#1257=CARTESIAN_POINT('',(-23.5,-5.50000000000001,7.00000000000001));
#1258=CARTESIAN_POINT('',(-20.5,-5.50000000000001,7.00000000000001));
#1259=CARTESIAN_POINT('',(-23.5,-5.50000000000001,14.75));
#1260=CARTESIAN_POINT('Origin',(-76.,-7.00000000000001,43.25));
#1261=CARTESIAN_POINT('',(-74.5,-5.50000000000001,45.));
#1262=CARTESIAN_POINT('',(-56.,13.,45.));
#1263=CARTESIAN_POINT('',(-74.5,-5.50000000000001,43.25));
#1264=CARTESIAN_POINT('Origin',(-3.,0.,45.));
#1265=CARTESIAN_POINT('',(6.42931888283904E-16,-10.5,45.));
#1266=CARTESIAN_POINT('',(6.42931888283904E-16,-10.5,45.));
#1267=CARTESIAN_POINT('',(3.79796021021672E-15,10.5,45.));
#1268=CARTESIAN_POINT('Origin',(0.,0.,45.));
#1269=CARTESIAN_POINT('',(-20.5,10.5,45.));
#1270=CARTESIAN_POINT('',(3.79796021021672E-15,10.5,45.));
#1271=CARTESIAN_POINT('',(-20.5,-2.5,45.));
#1272=CARTESIAN_POINT('',(-20.5,10.5,45.));
#1273=CARTESIAN_POINT('',(-23.5,-5.50000000000001,45.));
#1274=CARTESIAN_POINT('Origin',(-23.5,-2.5,45.));
#1275=CARTESIAN_POINT('',(-20.5,-5.50000000000001,45.));
#1276=CARTESIAN_POINT('',(5.25,-1.87964772678852E-15,45.));
#1277=CARTESIAN_POINT('Origin',(7.,-1.66533453693773E-15,45.));
#1278=CARTESIAN_POINT('',(-1.75,-7.,45.));
#1279=CARTESIAN_POINT('Origin',(-1.31838984174237E-15,-7.,45.));
#1280=CARTESIAN_POINT('',(-3.,-3.67394039744206E-16,45.));
#1281=CARTESIAN_POINT('Origin',(0.,0.,45.));
#1282=CARTESIAN_POINT('',(-8.75,6.18354078618081E-16,45.));
#1283=CARTESIAN_POINT('Origin',(-7.,8.32667268468867E-16,45.));
#1284=CARTESIAN_POINT('',(-1.75,7.,45.));
#1285=CARTESIAN_POINT('Origin',(4.16333634234434E-16,7.,45.));
#1286=CARTESIAN_POINT('Origin',(-23.5,-2.5,14.75));
#1287=CARTESIAN_POINT('',(-20.5,-2.5,7.00000000000001));
#1288=CARTESIAN_POINT('Origin',(-23.5,-2.5,7.00000000000001));
#1289=CARTESIAN_POINT('',(-20.5,-2.5,14.75));
#1290=CARTESIAN_POINT('Origin',(-23.5,-2.5,33.75));
#1291=CARTESIAN_POINT('',(-23.5,-5.50000000000001,33.75));
#1292=CARTESIAN_POINT('',(-20.5,-2.5,33.75));
#1293=CARTESIAN_POINT('Origin',(-20.5,-5.50000000000001,45.));
#1294=CARTESIAN_POINT('Origin',(-20.5,-10.5,7.00000000000001));
#1295=CARTESIAN_POINT('',(-20.5,-10.5,7.00000000000001));
#1296=CARTESIAN_POINT('',(-20.5,-10.5,7.00000000000001));
#1297=CARTESIAN_POINT('',(-20.5,-4.33125983045527,7.00000000000001));
#1298=CARTESIAN_POINT('',(-20.5,-5.25,7.00000000000001));
#1299=CARTESIAN_POINT('',(-16.5,-4.33125983045527,7.00000000000001));
#1300=CARTESIAN_POINT('',(-16.5,-4.33125983045527,7.00000000000001));
#1301=CARTESIAN_POINT('',(-16.5,4.33125983045527,7.00000000000001));
#1302=CARTESIAN_POINT('',(-16.5,-6.5,7.00000000000001));
#1303=CARTESIAN_POINT('',(-20.5,4.33125983045527,7.00000000000001));
#1304=CARTESIAN_POINT('',(-16.5,4.33125983045527,7.00000000000001));
#1305=CARTESIAN_POINT('',(-20.5,-6.5,7.00000000000001));
#1306=CARTESIAN_POINT('Origin',(-20.5,-4.44089209850063E-15,22.5));
#1307=CARTESIAN_POINT('',(-20.5,-10.5,45.));
#1308=CARTESIAN_POINT('',(-20.5,-6.66133814775094E-15,27.6716111735297));
#1309=CARTESIAN_POINT('',(-20.5,-4.33125983045528,38.));
#1310=CARTESIAN_POINT('',(-20.5,4.33125983045526,38.));
#1311=CARTESIAN_POINT('',(-20.5,10.5,8.88178419700125E-15));
#1312=CARTESIAN_POINT('',(-20.5,1.11022302462516E-15,17.3283888264703));
#1313=CARTESIAN_POINT('',(-20.5,-6.50000000000001,32.8283888264703));
#1314=CARTESIAN_POINT('',(-20.5,6.49999999999999,32.8283888264703));
#1315=CARTESIAN_POINT('',(-20.5,-2.16874016954473,22.5));
#1316=CARTESIAN_POINT('',(-20.5,-6.50000000000001,32.8283888264703));
#1317=CARTESIAN_POINT('',(-20.5,-6.50000000000001,32.8283888264703));
#1318=CARTESIAN_POINT('',(-20.5,-6.5,12.1716111735298));
#1319=CARTESIAN_POINT('',(-20.5,-6.50000000000001,38.));
#1320=CARTESIAN_POINT('',(-20.5,4.33125983045526,38.));
#1321=CARTESIAN_POINT('',(-20.5,6.49999999999999,32.8283888264703));
#1322=CARTESIAN_POINT('',(-20.5,2.16874016954472,22.5));
#1323=CARTESIAN_POINT('',(-20.5,6.49999999999999,32.8283888264703));
#1324=CARTESIAN_POINT('',(-20.5,6.49999999999999,12.1716111735298));
#1325=CARTESIAN_POINT('',(-20.5,-4.33125983045528,38.));
#1326=CARTESIAN_POINT('',(-20.5,6.5,7.00000000000001));
#1327=CARTESIAN_POINT('Origin',(-16.5,-7.21644966006352E-15,27.6716111735297));
#1328=CARTESIAN_POINT('',(-16.5,-7.21644966006352E-15,27.6716111735297));
#1329=CARTESIAN_POINT('',(-16.5,4.33125983045526,38.));
#1330=CARTESIAN_POINT('',(-16.5,-7.21644966006352E-15,27.6716111735297));
#1331=CARTESIAN_POINT('Origin',(-16.5,-4.33125983045528,38.));
#1332=CARTESIAN_POINT('',(-16.5,-4.33125983045528,38.));
#1333=CARTESIAN_POINT('Origin',(-16.5,-6.50000000000001,12.1716111735298));
#1334=CARTESIAN_POINT('',(-16.5,-6.5,12.1716111735298));
#1335=CARTESIAN_POINT('',(-16.5,-2.16874016954472,22.5));
#1336=CARTESIAN_POINT('',(-16.5,4.33125983045526,38.));
#1337=CARTESIAN_POINT('',(-16.5,-2.16874016954472,22.5));
#1338=CARTESIAN_POINT('',(-16.5,-6.5,12.1716111735298));
#1339=CARTESIAN_POINT('Origin',(-16.5,-6.50000000000001,32.8283888264703));
#1340=CARTESIAN_POINT('',(-16.5,-6.50000000000001,32.8283888264703));
#1341=CARTESIAN_POINT('',(-16.5,-6.50000000000001,38.));
#1342=CARTESIAN_POINT('',(-16.5,-6.50000000000001,32.8283888264703));
#1343=CARTESIAN_POINT('Origin',(-16.5,-2.16874016954473,22.5));
#1344=CARTESIAN_POINT('',(-16.5,-6.50000000000001,32.8283888264703));
#1345=CARTESIAN_POINT('Origin',(-16.5,4.44089209850063E-15,17.3283888264703));
#1346=CARTESIAN_POINT('',(-16.5,1.11022302462516E-15,17.3283888264703));
#1347=CARTESIAN_POINT('',(-16.5,6.49999999999999,32.8283888264703));
#1348=CARTESIAN_POINT('',(-16.5,1.11022302462516E-15,17.3283888264703));
#1349=CARTESIAN_POINT('Origin',(-16.5,4.33125983045527,7.00000000000002));
#1350=CARTESIAN_POINT('',(-16.5,-6.50000000000001,32.8283888264703));
#1351=CARTESIAN_POINT('Origin',(-16.5,6.49999999999999,12.1716111735298));
#1352=CARTESIAN_POINT('',(-16.5,6.49999999999999,12.1716111735298));
#1353=CARTESIAN_POINT('',(-16.5,6.49999999999999,32.8283888264703));
#1354=CARTESIAN_POINT('',(-16.5,6.5,7.00000000000001));
#1355=CARTESIAN_POINT('',(-16.5,6.49999999999999,32.8283888264703));
#1356=CARTESIAN_POINT('',(-16.5,6.49999999999999,12.1716111735298));
#1357=CARTESIAN_POINT('Origin',(-16.5,2.16874016954472,22.5));
#1358=CARTESIAN_POINT('',(-16.5,2.16874016954472,22.5));
#1359=CARTESIAN_POINT('',(-16.5,-4.33125983045528,38.));
#1360=CARTESIAN_POINT('',(-16.5,2.16874016954472,22.5));
#1361=CARTESIAN_POINT('Origin',(-16.5,6.49999999999999,32.8283888264703));
#1362=CARTESIAN_POINT('',(-16.5,6.49999999999999,32.8283888264703));
#1363=CARTESIAN_POINT('Origin',(-16.5,-4.44089209850063E-15,22.5));
#1364=CARTESIAN_POINT('',(-16.5,10.5,4.));
#1365=CARTESIAN_POINT('',(-16.5,-10.5,4.));
#1366=CARTESIAN_POINT('',(-16.5,10.5,4.));
#1367=CARTESIAN_POINT('',(-16.5,10.5,41.));
#1368=CARTESIAN_POINT('',(-16.5,10.5,8.88178419700125E-15));
#1369=CARTESIAN_POINT('',(-16.5,-10.5,41.));
#1370=CARTESIAN_POINT('',(-16.5,10.5,41.));
#1371=CARTESIAN_POINT('',(-16.5,-10.5,45.));
#1372=CARTESIAN_POINT('Origin',(7.,-1.66533453693773E-15,45.));
#1373=CARTESIAN_POINT('',(5.25,-2.22044604925031E-15,41.));
#1374=CARTESIAN_POINT('Origin',(7.,-1.66533453693773E-15,41.));
#1375=CARTESIAN_POINT('',(5.25,-1.87964772678852E-15,45.));
#1376=CARTESIAN_POINT('Origin',(-1.31838984174237E-15,-7.,45.));
#1377=CARTESIAN_POINT('',(-1.75,-7.,41.));
#1378=CARTESIAN_POINT('Origin',(-1.31838984174237E-15,-7.,41.));
#1379=CARTESIAN_POINT('',(-1.75,-7.,45.));
#1380=CARTESIAN_POINT('Origin',(0.,0.,45.));
#1381=CARTESIAN_POINT('',(-3.,0.,41.));
#1382=CARTESIAN_POINT('Origin',(0.,0.,41.));
#1383=CARTESIAN_POINT('',(-3.,-3.67394039744206E-16,45.));
#1384=CARTESIAN_POINT('Origin',(-7.,8.32667268468867E-16,45.));
#1385=CARTESIAN_POINT('',(-8.75,1.11022302462516E-15,41.));
#1386=CARTESIAN_POINT('Origin',(-7.,8.32667268468867E-16,41.));
#1387=CARTESIAN_POINT('',(-8.75,6.18354078618081E-16,45.));
#1388=CARTESIAN_POINT('Origin',(4.16333634234434E-16,7.,45.));
#1389=CARTESIAN_POINT('',(-1.75,7.,41.));
#1390=CARTESIAN_POINT('Origin',(4.16333634234434E-16,7.,41.));
#1391=CARTESIAN_POINT('',(-1.75,7.,45.));
#1392=CARTESIAN_POINT('Origin',(0.,0.,45.));
#1393=CARTESIAN_POINT('',(5.55111512312578E-16,-10.5,41.));
#1394=CARTESIAN_POINT('',(6.42931888283904E-16,-10.5,45.));
#1395=CARTESIAN_POINT('',(3.88578058618805E-15,10.5,41.));
#1396=CARTESIAN_POINT('Origin',(0.,0.,41.));
#1397=CARTESIAN_POINT('',(3.79796021021672E-15,10.5,45.));
#1398=CARTESIAN_POINT('Origin',(-3.,0.,41.));
#1399=CARTESIAN_POINT('',(6.42931888283904E-16,-10.5,41.));
#1400=CARTESIAN_POINT('',(3.79796021021672E-15,10.5,41.));
#1401=CARTESIAN_POINT('Origin',(7.,-1.66533453693773E-15,0.));
#1402=CARTESIAN_POINT('',(5.25,-2.22044604925031E-15,4.));
#1403=CARTESIAN_POINT('Origin',(7.,-1.66533453693773E-15,4.));
#1404=CARTESIAN_POINT('',(5.25,-1.87964772678852E-15,0.));
#1405=CARTESIAN_POINT('Origin',(-1.31838984174237E-15,-7.,0.));
#1406=CARTESIAN_POINT('',(-1.75,-7.,4.));
#1407=CARTESIAN_POINT('Origin',(-1.31838984174237E-15,-7.,4.));
#1408=CARTESIAN_POINT('',(-1.75,-7.,0.));
#1409=CARTESIAN_POINT('Origin',(0.,0.,0.));
#1410=CARTESIAN_POINT('',(-3.,0.,4.));
#1411=CARTESIAN_POINT('Origin',(0.,0.,4.));
#1412=CARTESIAN_POINT('',(-3.,-3.67394039744206E-16,0.));
#1413=CARTESIAN_POINT('Origin',(-7.,8.32667268468867E-16,0.));
#1414=CARTESIAN_POINT('',(-8.75,1.11022302462516E-15,4.));
#1415=CARTESIAN_POINT('Origin',(-7.,8.32667268468867E-16,4.));
#1416=CARTESIAN_POINT('',(-8.75,6.18354078618081E-16,0.));
#1417=CARTESIAN_POINT('Origin',(4.16333634234434E-16,7.,0.));
#1418=CARTESIAN_POINT('',(-1.75,7.,4.));
#1419=CARTESIAN_POINT('Origin',(4.16333634234434E-16,7.,4.));
#1420=CARTESIAN_POINT('',(-1.75,7.,0.));
#1421=CARTESIAN_POINT('Origin',(-16.5,-10.5,0.));
#1422=CARTESIAN_POINT('',(5.55111512312578E-16,-10.5,4.));
#1423=CARTESIAN_POINT('',(6.42931888283904E-16,-10.5,0.));
#1424=CARTESIAN_POINT('',(6.42931888283904E-16,-10.5,4.));
#1425=CARTESIAN_POINT('Origin',(3.79796021021672E-15,10.5,0.));
#1426=CARTESIAN_POINT('',(3.88578058618805E-15,10.5,4.));
#1427=CARTESIAN_POINT('',(3.79796021021672E-15,10.5,4.));
#1428=CARTESIAN_POINT('',(3.79796021021672E-15,10.5,0.));
#1429=CARTESIAN_POINT('Origin',(0.,0.,0.));
#1430=CARTESIAN_POINT('Origin',(0.,0.,4.));
#1431=CARTESIAN_POINT('Origin',(-3.,0.,4.));
#1432=UNCERTAINTY_MEASURE_WITH_UNIT(LENGTH_MEASURE(0.01),#1436,
'DISTANCE_ACCURACY_VALUE',
'Maximum model space distance between geometric entities at asserted c
onnectivities');
#1433=UNCERTAINTY_MEASURE_WITH_UNIT(LENGTH_MEASURE(0.01),#1436,
'DISTANCE_ACCURACY_VALUE',
'Maximum model space distance between geometric entities at asserted c
onnectivities');
#1434=(
GEOMETRIC_REPRESENTATION_CONTEXT(3)
GLOBAL_UNCERTAINTY_ASSIGNED_CONTEXT((#1432))
GLOBAL_UNIT_ASSIGNED_CONTEXT((#1436,#1438,#1439))
REPRESENTATION_CONTEXT('','3D')
);
#1435=(
GEOMETRIC_REPRESENTATION_CONTEXT(3)
GLOBAL_UNCERTAINTY_ASSIGNED_CONTEXT((#1433))
GLOBAL_UNIT_ASSIGNED_CONTEXT((#1436,#1438,#1439))
REPRESENTATION_CONTEXT('','3D')
);
#1436=(
LENGTH_UNIT()
NAMED_UNIT(*)
SI_UNIT(.MILLI.,.METRE.)
);
#1437=(
LENGTH_UNIT()
NAMED_UNIT(*)
SI_UNIT($,.METRE.)
);
#1438=(
NAMED_UNIT(*)
PLANE_ANGLE_UNIT()
SI_UNIT($,.RADIAN.)
);
#1439=(
NAMED_UNIT(*)
SI_UNIT($,.STERADIAN.)
SOLID_ANGLE_UNIT()
);
#1440=SHAPE_DEFINITION_REPRESENTATION(#1441,#1442);
#1441=PRODUCT_DEFINITION_SHAPE('',$,#1444);
#1442=SHAPE_REPRESENTATION('',(#892),#1434);
#1443=PRODUCT_DEFINITION_CONTEXT('part definition',#1448,'design');
#1444=PRODUCT_DEFINITION('2026-07-15-12-02-46-072','RoverFork',#1445,#1443);
#1445=PRODUCT_DEFINITION_FORMATION('',$,#1450);
#1446=PRODUCT_RELATED_PRODUCT_CATEGORY('RoverFork','RoverFork',(#1450));
#1447=APPLICATION_PROTOCOL_DEFINITION('international standard',
'automotive_design',2009,#1448);
#1448=APPLICATION_CONTEXT(
'Core Data for Automotive Mechanical Design Process');
#1449=PRODUCT_CONTEXT('part definition',#1448,'mechanical');
#1450=PRODUCT('2026-07-15-12-02-46-072','RoverFork',$,(#1449));
#1451=PRESENTATION_STYLE_ASSIGNMENT((#1452));
#1452=SURFACE_STYLE_USAGE(.BOTH.,#1453);
#1453=SURFACE_SIDE_STYLE('',(#1454));
#1454=SURFACE_STYLE_FILL_AREA(#1455);
#1455=FILL_AREA_STYLE('Steel - Satin',(#1456));
#1456=FILL_AREA_STYLE_COLOUR('Steel - Satin',#1457);
#1457=COLOUR_RGB('Steel - Satin',0.627450980392157,0.627450980392157,0.627450980392157);
ENDSEC;
END-ISO-10303-21;
