ISO-10303-21;
HEADER;
/* Generated by software containing ST-Developer
 * from STEP Tools, Inc. (www.steptools.com) 
 */

FILE_DESCRIPTION(
/* description */ (''),
/* implementation_level */ '2;1');

FILE_NAME(
/* name */ 'servo-box.step',
/* time_stamp */ '2026-07-22T07:52:11-04:00',
/* author */ (''),
/* organization */ (''),
/* preprocessor_version */ 'ST-DEVELOPER v20.1',
/* originating_system */ 'Autodesk Translation Framework v15.8.0.0',
/* authorisation */ '');

FILE_SCHEMA (('AUTOMOTIVE_DESIGN { 1 0 10303 214 3 1 1 }'));
ENDSEC;

DATA;
#10=MECHANICAL_DESIGN_GEOMETRIC_PRESENTATION_REPRESENTATION('',(#13),#729);
#11=SHAPE_REPRESENTATION_RELATIONSHIP('SRR','None',#736,#12);
#12=ADVANCED_BREP_SHAPE_REPRESENTATION('',(#14),#728);
#13=STYLED_ITEM('',(#745),#14);
#14=MANIFOLD_SOLID_BREP('Body1',#449);
#15=CYLINDRICAL_SURFACE('',#481,1.85);
#16=CYLINDRICAL_SURFACE('',#482,1.85);
#17=CYLINDRICAL_SURFACE('',#483,1.85);
#18=CYLINDRICAL_SURFACE('',#484,1.85);
#19=FACE_BOUND('',#62,.T.);
#20=FACE_BOUND('',#63,.T.);
#21=FACE_BOUND('',#65,.T.);
#22=FACE_BOUND('',#66,.T.);
#23=FACE_BOUND('',#70,.T.);
#24=FACE_BOUND('',#71,.T.);
#25=FACE_BOUND('',#73,.T.);
#26=FACE_BOUND('',#74,.T.);
#27=FACE_BOUND('',#86,.T.);
#28=CIRCLE('',#468,1.85);
#29=CIRCLE('',#469,1.85);
#30=CIRCLE('',#471,1.85);
#31=CIRCLE('',#472,1.85);
#32=CIRCLE('',#476,1.85);
#33=CIRCLE('',#477,1.85);
#34=CIRCLE('',#479,1.85);
#35=CIRCLE('',#480,1.85);
#36=FACE_OUTER_BOUND('',#57,.T.);
#37=FACE_OUTER_BOUND('',#58,.T.);
#38=FACE_OUTER_BOUND('',#59,.T.);
#39=FACE_OUTER_BOUND('',#60,.T.);
#40=FACE_OUTER_BOUND('',#61,.T.);
#41=FACE_OUTER_BOUND('',#64,.T.);
#42=FACE_OUTER_BOUND('',#67,.T.);
#43=FACE_OUTER_BOUND('',#68,.T.);
#44=FACE_OUTER_BOUND('',#69,.T.);
#45=FACE_OUTER_BOUND('',#72,.T.);
#46=FACE_OUTER_BOUND('',#75,.T.);
#47=FACE_OUTER_BOUND('',#76,.T.);
#48=FACE_OUTER_BOUND('',#77,.T.);
#49=FACE_OUTER_BOUND('',#78,.T.);
#50=FACE_OUTER_BOUND('',#79,.T.);
#51=FACE_OUTER_BOUND('',#80,.T.);
#52=FACE_OUTER_BOUND('',#81,.T.);
#53=FACE_OUTER_BOUND('',#82,.T.);
#54=FACE_OUTER_BOUND('',#83,.T.);
#55=FACE_OUTER_BOUND('',#84,.T.);
#56=FACE_OUTER_BOUND('',#85,.T.);
#57=EDGE_LOOP('',(#291,#292,#293,#294));
#58=EDGE_LOOP('',(#295,#296,#297,#298,#299,#300,#301,#302));
#59=EDGE_LOOP('',(#303,#304,#305,#306,#307,#308,#309,#310));
#60=EDGE_LOOP('',(#311,#312,#313,#314));
#61=EDGE_LOOP('',(#315,#316,#317,#318));
#62=EDGE_LOOP('',(#319));
#63=EDGE_LOOP('',(#320));
#64=EDGE_LOOP('',(#321,#322,#323,#324));
#65=EDGE_LOOP('',(#325));
#66=EDGE_LOOP('',(#326));
#67=EDGE_LOOP('',(#327,#328,#329,#330,#331,#332,#333,#334));
#68=EDGE_LOOP('',(#335,#336,#337,#338,#339,#340,#341,#342));
#69=EDGE_LOOP('',(#343,#344,#345,#346));
#70=EDGE_LOOP('',(#347));
#71=EDGE_LOOP('',(#348));
#72=EDGE_LOOP('',(#349,#350,#351,#352));
#73=EDGE_LOOP('',(#353));
#74=EDGE_LOOP('',(#354));
#75=EDGE_LOOP('',(#355,#356,#357,#358));
#76=EDGE_LOOP('',(#359,#360,#361,#362));
#77=EDGE_LOOP('',(#363,#364,#365,#366));
#78=EDGE_LOOP('',(#367,#368,#369,#370));
#79=EDGE_LOOP('',(#371,#372,#373,#374));
#80=EDGE_LOOP('',(#375,#376,#377,#378));
#81=EDGE_LOOP('',(#379,#380,#381,#382,#383,#384,#385,#386));
#82=EDGE_LOOP('',(#387,#388,#389,#390,#391,#392,#393,#394));
#83=EDGE_LOOP('',(#395,#396,#397,#398));
#84=EDGE_LOOP('',(#399,#400,#401,#402));
#85=EDGE_LOOP('',(#403,#404,#405,#406));
#86=EDGE_LOOP('',(#407,#408,#409,#410));
#87=LINE('',#608,#139);
#88=LINE('',#610,#140);
#89=LINE('',#612,#141);
#90=LINE('',#613,#142);
#91=LINE('',#617,#143);
#92=LINE('',#619,#144);
#93=LINE('',#621,#145);
#94=LINE('',#623,#146);
#95=LINE('',#624,#147);
#96=LINE('',#626,#148);
#97=LINE('',#627,#149);
#98=LINE('',#631,#150);
#99=LINE('',#633,#151);
#100=LINE('',#634,#152);
#101=LINE('',#636,#153);
#102=LINE('',#638,#154);
#103=LINE('',#640,#155);
#104=LINE('',#641,#156);
#105=LINE('',#643,#157);
#106=LINE('',#644,#158);
#107=LINE('',#647,#159);
#108=LINE('',#649,#160);
#109=LINE('',#650,#161);
#110=LINE('',#657,#162);
#111=LINE('',#659,#163);
#112=LINE('',#660,#164);
#113=LINE('',#667,#165);
#114=LINE('',#669,#166);
#115=LINE('',#670,#167);
#116=LINE('',#673,#168);
#117=LINE('',#675,#169);
#118=LINE('',#677,#170);
#119=LINE('',#679,#171);
#120=LINE('',#680,#172);
#121=LINE('',#683,#173);
#122=LINE('',#684,#174);
#123=LINE('',#691,#175);
#124=LINE('',#692,#176);
#125=LINE('',#698,#177);
#126=LINE('',#700,#178);
#127=LINE('',#702,#179);
#128=LINE('',#704,#180);
#129=LINE('',#707,#181);
#130=LINE('',#708,#182);
#131=LINE('',#711,#183);
#132=LINE('',#712,#184);
#133=LINE('',#714,#185);
#134=LINE('',#717,#186);
#135=LINE('',#719,#187);
#136=LINE('',#720,#188);
#137=LINE('',#722,#189);
#138=LINE('',#724,#190);
#139=VECTOR('',#496,10.);
#140=VECTOR('',#497,10.);
#141=VECTOR('',#498,10.);
#142=VECTOR('',#499,10.);
#143=VECTOR('',#502,10.);
#144=VECTOR('',#503,10.);
#145=VECTOR('',#504,10.);
#146=VECTOR('',#505,10.);
#147=VECTOR('',#506,10.);
#148=VECTOR('',#507,10.);
#149=VECTOR('',#508,10.);
#150=VECTOR('',#511,10.);
#151=VECTOR('',#512,10.);
#152=VECTOR('',#513,10.);
#153=VECTOR('',#514,10.);
#154=VECTOR('',#515,10.);
#155=VECTOR('',#516,10.);
#156=VECTOR('',#517,10.);
#157=VECTOR('',#520,10.);
#158=VECTOR('',#521,10.);
#159=VECTOR('',#524,10.);
#160=VECTOR('',#525,10.);
#161=VECTOR('',#526,10.);
#162=VECTOR('',#533,10.);
#163=VECTOR('',#534,10.);
#164=VECTOR('',#535,10.);
#165=VECTOR('',#542,10.);
#166=VECTOR('',#543,10.);
#167=VECTOR('',#544,10.);
#168=VECTOR('',#547,10.);
#169=VECTOR('',#548,10.);
#170=VECTOR('',#549,10.);
#171=VECTOR('',#550,10.);
#172=VECTOR('',#551,10.);
#173=VECTOR('',#554,10.);
#174=VECTOR('',#555,10.);
#175=VECTOR('',#562,10.);
#176=VECTOR('',#563,10.);
#177=VECTOR('',#570,1.85);
#178=VECTOR('',#573,1.85);
#179=VECTOR('',#576,1.85);
#180=VECTOR('',#579,1.85);
#181=VECTOR('',#582,10.);
#182=VECTOR('',#583,10.);
#183=VECTOR('',#586,10.);
#184=VECTOR('',#587,10.);
#185=VECTOR('',#590,10.);
#186=VECTOR('',#593,10.);
#187=VECTOR('',#594,10.);
#188=VECTOR('',#595,10.);
#189=VECTOR('',#598,10.);
#190=VECTOR('',#601,10.);
#191=VERTEX_POINT('',#606);
#192=VERTEX_POINT('',#607);
#193=VERTEX_POINT('',#609);
#194=VERTEX_POINT('',#611);
#195=VERTEX_POINT('',#615);
#196=VERTEX_POINT('',#616);
#197=VERTEX_POINT('',#618);
#198=VERTEX_POINT('',#620);
#199=VERTEX_POINT('',#622);
#200=VERTEX_POINT('',#625);
#201=VERTEX_POINT('',#629);
#202=VERTEX_POINT('',#630);
#203=VERTEX_POINT('',#632);
#204=VERTEX_POINT('',#635);
#205=VERTEX_POINT('',#637);
#206=VERTEX_POINT('',#639);
#207=VERTEX_POINT('',#646);
#208=VERTEX_POINT('',#648);
#209=VERTEX_POINT('',#651);
#210=VERTEX_POINT('',#653);
#211=VERTEX_POINT('',#656);
#212=VERTEX_POINT('',#658);
#213=VERTEX_POINT('',#661);
#214=VERTEX_POINT('',#663);
#215=VERTEX_POINT('',#666);
#216=VERTEX_POINT('',#668);
#217=VERTEX_POINT('',#672);
#218=VERTEX_POINT('',#674);
#219=VERTEX_POINT('',#676);
#220=VERTEX_POINT('',#678);
#221=VERTEX_POINT('',#682);
#222=VERTEX_POINT('',#685);
#223=VERTEX_POINT('',#687);
#224=VERTEX_POINT('',#690);
#225=VERTEX_POINT('',#693);
#226=VERTEX_POINT('',#695);
#227=VERTEX_POINT('',#706);
#228=VERTEX_POINT('',#710);
#229=VERTEX_POINT('',#716);
#230=VERTEX_POINT('',#718);
#231=EDGE_CURVE('',#191,#192,#87,.T.);
#232=EDGE_CURVE('',#193,#191,#88,.T.);
#233=EDGE_CURVE('',#194,#193,#89,.T.);
#234=EDGE_CURVE('',#194,#192,#90,.T.);
#235=EDGE_CURVE('',#195,#196,#91,.T.);
#236=EDGE_CURVE('',#197,#195,#92,.T.);
#237=EDGE_CURVE('',#198,#197,#93,.T.);
#238=EDGE_CURVE('',#199,#198,#94,.T.);
#239=EDGE_CURVE('',#192,#199,#95,.T.);
#240=EDGE_CURVE('',#200,#194,#96,.T.);
#241=EDGE_CURVE('',#196,#200,#97,.T.);
#242=EDGE_CURVE('',#201,#202,#98,.T.);
#243=EDGE_CURVE('',#203,#201,#99,.T.);
#244=EDGE_CURVE('',#193,#203,#100,.T.);
#245=EDGE_CURVE('',#204,#191,#101,.T.);
#246=EDGE_CURVE('',#205,#204,#102,.T.);
#247=EDGE_CURVE('',#206,#205,#103,.T.);
#248=EDGE_CURVE('',#206,#202,#104,.T.);
#249=EDGE_CURVE('',#202,#195,#105,.T.);
#250=EDGE_CURVE('',#197,#206,#106,.T.);
#251=EDGE_CURVE('',#201,#207,#107,.T.);
#252=EDGE_CURVE('',#207,#208,#108,.T.);
#253=EDGE_CURVE('',#208,#203,#109,.T.);
#254=EDGE_CURVE('',#209,#209,#28,.T.);
#255=EDGE_CURVE('',#210,#210,#29,.T.);
#256=EDGE_CURVE('',#200,#211,#110,.T.);
#257=EDGE_CURVE('',#211,#212,#111,.T.);
#258=EDGE_CURVE('',#212,#196,#112,.T.);
#259=EDGE_CURVE('',#213,#213,#30,.T.);
#260=EDGE_CURVE('',#214,#214,#31,.T.);
#261=EDGE_CURVE('',#208,#215,#113,.T.);
#262=EDGE_CURVE('',#216,#215,#114,.T.);
#263=EDGE_CURVE('',#211,#216,#115,.T.);
#264=EDGE_CURVE('',#199,#217,#116,.T.);
#265=EDGE_CURVE('',#217,#218,#117,.T.);
#266=EDGE_CURVE('',#219,#218,#118,.T.);
#267=EDGE_CURVE('',#220,#219,#119,.T.);
#268=EDGE_CURVE('',#220,#204,#120,.T.);
#269=EDGE_CURVE('',#221,#198,#121,.T.);
#270=EDGE_CURVE('',#217,#221,#122,.T.);
#271=EDGE_CURVE('',#222,#222,#32,.T.);
#272=EDGE_CURVE('',#223,#223,#33,.T.);
#273=EDGE_CURVE('',#224,#220,#123,.T.);
#274=EDGE_CURVE('',#205,#224,#124,.T.);
#275=EDGE_CURVE('',#225,#225,#34,.T.);
#276=EDGE_CURVE('',#226,#226,#35,.T.);
#277=EDGE_CURVE('',#209,#226,#125,.T.);
#278=EDGE_CURVE('',#214,#222,#126,.T.);
#279=EDGE_CURVE('',#210,#225,#127,.T.);
#280=EDGE_CURVE('',#213,#223,#128,.T.);
#281=EDGE_CURVE('',#221,#227,#129,.T.);
#282=EDGE_CURVE('',#218,#227,#130,.T.);
#283=EDGE_CURVE('',#228,#219,#131,.T.);
#284=EDGE_CURVE('',#224,#228,#132,.T.);
#285=EDGE_CURVE('',#227,#228,#133,.T.);
#286=EDGE_CURVE('',#212,#229,#134,.T.);
#287=EDGE_CURVE('',#230,#229,#135,.T.);
#288=EDGE_CURVE('',#207,#230,#136,.T.);
#289=EDGE_CURVE('',#215,#230,#137,.T.);
#290=EDGE_CURVE('',#229,#216,#138,.T.);
#291=ORIENTED_EDGE('',*,*,#231,.F.);
#292=ORIENTED_EDGE('',*,*,#232,.F.);
#293=ORIENTED_EDGE('',*,*,#233,.F.);
#294=ORIENTED_EDGE('',*,*,#234,.T.);
#295=ORIENTED_EDGE('',*,*,#235,.F.);
#296=ORIENTED_EDGE('',*,*,#236,.F.);
#297=ORIENTED_EDGE('',*,*,#237,.F.);
#298=ORIENTED_EDGE('',*,*,#238,.F.);
#299=ORIENTED_EDGE('',*,*,#239,.F.);
#300=ORIENTED_EDGE('',*,*,#234,.F.);
#301=ORIENTED_EDGE('',*,*,#240,.F.);
#302=ORIENTED_EDGE('',*,*,#241,.F.);
#303=ORIENTED_EDGE('',*,*,#242,.F.);
#304=ORIENTED_EDGE('',*,*,#243,.F.);
#305=ORIENTED_EDGE('',*,*,#244,.F.);
#306=ORIENTED_EDGE('',*,*,#232,.T.);
#307=ORIENTED_EDGE('',*,*,#245,.F.);
#308=ORIENTED_EDGE('',*,*,#246,.F.);
#309=ORIENTED_EDGE('',*,*,#247,.F.);
#310=ORIENTED_EDGE('',*,*,#248,.T.);
#311=ORIENTED_EDGE('',*,*,#249,.F.);
#312=ORIENTED_EDGE('',*,*,#248,.F.);
#313=ORIENTED_EDGE('',*,*,#250,.F.);
#314=ORIENTED_EDGE('',*,*,#236,.T.);
#315=ORIENTED_EDGE('',*,*,#243,.T.);
#316=ORIENTED_EDGE('',*,*,#251,.T.);
#317=ORIENTED_EDGE('',*,*,#252,.T.);
#318=ORIENTED_EDGE('',*,*,#253,.T.);
#319=ORIENTED_EDGE('',*,*,#254,.T.);
#320=ORIENTED_EDGE('',*,*,#255,.T.);
#321=ORIENTED_EDGE('',*,*,#241,.T.);
#322=ORIENTED_EDGE('',*,*,#256,.T.);
#323=ORIENTED_EDGE('',*,*,#257,.T.);
#324=ORIENTED_EDGE('',*,*,#258,.T.);
#325=ORIENTED_EDGE('',*,*,#259,.T.);
#326=ORIENTED_EDGE('',*,*,#260,.T.);
#327=ORIENTED_EDGE('',*,*,#240,.T.);
#328=ORIENTED_EDGE('',*,*,#233,.T.);
#329=ORIENTED_EDGE('',*,*,#244,.T.);
#330=ORIENTED_EDGE('',*,*,#253,.F.);
#331=ORIENTED_EDGE('',*,*,#261,.T.);
#332=ORIENTED_EDGE('',*,*,#262,.F.);
#333=ORIENTED_EDGE('',*,*,#263,.F.);
#334=ORIENTED_EDGE('',*,*,#256,.F.);
#335=ORIENTED_EDGE('',*,*,#245,.T.);
#336=ORIENTED_EDGE('',*,*,#231,.T.);
#337=ORIENTED_EDGE('',*,*,#239,.T.);
#338=ORIENTED_EDGE('',*,*,#264,.T.);
#339=ORIENTED_EDGE('',*,*,#265,.T.);
#340=ORIENTED_EDGE('',*,*,#266,.F.);
#341=ORIENTED_EDGE('',*,*,#267,.F.);
#342=ORIENTED_EDGE('',*,*,#268,.T.);
#343=ORIENTED_EDGE('',*,*,#238,.T.);
#344=ORIENTED_EDGE('',*,*,#269,.F.);
#345=ORIENTED_EDGE('',*,*,#270,.F.);
#346=ORIENTED_EDGE('',*,*,#264,.F.);
#347=ORIENTED_EDGE('',*,*,#271,.T.);
#348=ORIENTED_EDGE('',*,*,#272,.T.);
#349=ORIENTED_EDGE('',*,*,#246,.T.);
#350=ORIENTED_EDGE('',*,*,#268,.F.);
#351=ORIENTED_EDGE('',*,*,#273,.F.);
#352=ORIENTED_EDGE('',*,*,#274,.F.);
#353=ORIENTED_EDGE('',*,*,#275,.T.);
#354=ORIENTED_EDGE('',*,*,#276,.T.);
#355=ORIENTED_EDGE('',*,*,#254,.F.);
#356=ORIENTED_EDGE('',*,*,#277,.T.);
#357=ORIENTED_EDGE('',*,*,#276,.F.);
#358=ORIENTED_EDGE('',*,*,#277,.F.);
#359=ORIENTED_EDGE('',*,*,#260,.F.);
#360=ORIENTED_EDGE('',*,*,#278,.T.);
#361=ORIENTED_EDGE('',*,*,#271,.F.);
#362=ORIENTED_EDGE('',*,*,#278,.F.);
#363=ORIENTED_EDGE('',*,*,#255,.F.);
#364=ORIENTED_EDGE('',*,*,#279,.T.);
#365=ORIENTED_EDGE('',*,*,#275,.F.);
#366=ORIENTED_EDGE('',*,*,#279,.F.);
#367=ORIENTED_EDGE('',*,*,#259,.F.);
#368=ORIENTED_EDGE('',*,*,#280,.T.);
#369=ORIENTED_EDGE('',*,*,#272,.F.);
#370=ORIENTED_EDGE('',*,*,#280,.F.);
#371=ORIENTED_EDGE('',*,*,#270,.T.);
#372=ORIENTED_EDGE('',*,*,#281,.T.);
#373=ORIENTED_EDGE('',*,*,#282,.F.);
#374=ORIENTED_EDGE('',*,*,#265,.F.);
#375=ORIENTED_EDGE('',*,*,#273,.T.);
#376=ORIENTED_EDGE('',*,*,#267,.T.);
#377=ORIENTED_EDGE('',*,*,#283,.F.);
#378=ORIENTED_EDGE('',*,*,#284,.F.);
#379=ORIENTED_EDGE('',*,*,#247,.T.);
#380=ORIENTED_EDGE('',*,*,#274,.T.);
#381=ORIENTED_EDGE('',*,*,#284,.T.);
#382=ORIENTED_EDGE('',*,*,#285,.F.);
#383=ORIENTED_EDGE('',*,*,#281,.F.);
#384=ORIENTED_EDGE('',*,*,#269,.T.);
#385=ORIENTED_EDGE('',*,*,#237,.T.);
#386=ORIENTED_EDGE('',*,*,#250,.T.);
#387=ORIENTED_EDGE('',*,*,#235,.T.);
#388=ORIENTED_EDGE('',*,*,#258,.F.);
#389=ORIENTED_EDGE('',*,*,#286,.T.);
#390=ORIENTED_EDGE('',*,*,#287,.F.);
#391=ORIENTED_EDGE('',*,*,#288,.F.);
#392=ORIENTED_EDGE('',*,*,#251,.F.);
#393=ORIENTED_EDGE('',*,*,#242,.T.);
#394=ORIENTED_EDGE('',*,*,#249,.T.);
#395=ORIENTED_EDGE('',*,*,#252,.F.);
#396=ORIENTED_EDGE('',*,*,#288,.T.);
#397=ORIENTED_EDGE('',*,*,#289,.F.);
#398=ORIENTED_EDGE('',*,*,#261,.F.);
#399=ORIENTED_EDGE('',*,*,#257,.F.);
#400=ORIENTED_EDGE('',*,*,#263,.T.);
#401=ORIENTED_EDGE('',*,*,#290,.F.);
#402=ORIENTED_EDGE('',*,*,#286,.F.);
#403=ORIENTED_EDGE('',*,*,#290,.T.);
#404=ORIENTED_EDGE('',*,*,#262,.T.);
#405=ORIENTED_EDGE('',*,*,#289,.T.);
#406=ORIENTED_EDGE('',*,*,#287,.T.);
#407=ORIENTED_EDGE('',*,*,#285,.T.);
#408=ORIENTED_EDGE('',*,*,#283,.T.);
#409=ORIENTED_EDGE('',*,*,#266,.T.);
#410=ORIENTED_EDGE('',*,*,#282,.T.);
#411=PLANE('',#463);
#412=PLANE('',#464);
#413=PLANE('',#465);
#414=PLANE('',#466);
#415=PLANE('',#467);
#416=PLANE('',#470);
#417=PLANE('',#473);
#418=PLANE('',#474);
#419=PLANE('',#475);
#420=PLANE('',#478);
#421=PLANE('',#485);
#422=PLANE('',#486);
#423=PLANE('',#487);
#424=PLANE('',#488);
#425=PLANE('',#489);
#426=PLANE('',#490);
#427=PLANE('',#491);
#428=ADVANCED_FACE('',(#36),#411,.F.);
#429=ADVANCED_FACE('',(#37),#412,.F.);
#430=ADVANCED_FACE('',(#38),#413,.F.);
#431=ADVANCED_FACE('',(#39),#414,.F.);
#432=ADVANCED_FACE('',(#40,#19,#20),#415,.F.);
#433=ADVANCED_FACE('',(#41,#21,#22),#416,.F.);
#434=ADVANCED_FACE('',(#42),#417,.T.);
#435=ADVANCED_FACE('',(#43),#418,.T.);
#436=ADVANCED_FACE('',(#44,#23,#24),#419,.T.);
#437=ADVANCED_FACE('',(#45,#25,#26),#420,.T.);
#438=ADVANCED_FACE('',(#46),#15,.F.);
#439=ADVANCED_FACE('',(#47),#16,.F.);
#440=ADVANCED_FACE('',(#48),#17,.F.);
#441=ADVANCED_FACE('',(#49),#18,.F.);
#442=ADVANCED_FACE('',(#50),#421,.T.);
#443=ADVANCED_FACE('',(#51),#422,.T.);
#444=ADVANCED_FACE('',(#52),#423,.T.);
#445=ADVANCED_FACE('',(#53),#424,.T.);
#446=ADVANCED_FACE('',(#54),#425,.T.);
#447=ADVANCED_FACE('',(#55),#426,.T.);
#448=ADVANCED_FACE('',(#56,#27),#427,.T.);
#449=CLOSED_SHELL('',(#428,#429,#430,#431,#432,#433,#434,#435,#436,#437,
#438,#439,#440,#441,#442,#443,#444,#445,#446,#447,#448));
#450=DERIVED_UNIT_ELEMENT(#452,1.);
#451=DERIVED_UNIT_ELEMENT(#731,-3.);
#452=(
MASS_UNIT()
NAMED_UNIT(*)
SI_UNIT(.KILO.,.GRAM.)
);
#453=DERIVED_UNIT((#450,#451));
#454=MEASURE_REPRESENTATION_ITEM('density measure',
POSITIVE_RATIO_MEASURE(7850.),#453);
#455=PROPERTY_DEFINITION_REPRESENTATION(#460,#457);
#456=PROPERTY_DEFINITION_REPRESENTATION(#461,#458);
#457=REPRESENTATION('material name',(#459),#728);
#458=REPRESENTATION('density',(#454),#728);
#459=DESCRIPTIVE_REPRESENTATION_ITEM('Steel','Steel');
#460=PROPERTY_DEFINITION('material property','material name',#738);
#461=PROPERTY_DEFINITION('material property','density of part',#738);
#462=AXIS2_PLACEMENT_3D('',#604,#492,#493);
#463=AXIS2_PLACEMENT_3D('',#605,#494,#495);
#464=AXIS2_PLACEMENT_3D('',#614,#500,#501);
#465=AXIS2_PLACEMENT_3D('',#628,#509,#510);
#466=AXIS2_PLACEMENT_3D('',#642,#518,#519);
#467=AXIS2_PLACEMENT_3D('',#645,#522,#523);
#468=AXIS2_PLACEMENT_3D('',#652,#527,#528);
#469=AXIS2_PLACEMENT_3D('',#654,#529,#530);
#470=AXIS2_PLACEMENT_3D('',#655,#531,#532);
#471=AXIS2_PLACEMENT_3D('',#662,#536,#537);
#472=AXIS2_PLACEMENT_3D('',#664,#538,#539);
#473=AXIS2_PLACEMENT_3D('',#665,#540,#541);
#474=AXIS2_PLACEMENT_3D('',#671,#545,#546);
#475=AXIS2_PLACEMENT_3D('',#681,#552,#553);
#476=AXIS2_PLACEMENT_3D('',#686,#556,#557);
#477=AXIS2_PLACEMENT_3D('',#688,#558,#559);
#478=AXIS2_PLACEMENT_3D('',#689,#560,#561);
#479=AXIS2_PLACEMENT_3D('',#694,#564,#565);
#480=AXIS2_PLACEMENT_3D('',#696,#566,#567);
#481=AXIS2_PLACEMENT_3D('',#697,#568,#569);
#482=AXIS2_PLACEMENT_3D('',#699,#571,#572);
#483=AXIS2_PLACEMENT_3D('',#701,#574,#575);
#484=AXIS2_PLACEMENT_3D('',#703,#577,#578);
#485=AXIS2_PLACEMENT_3D('',#705,#580,#581);
#486=AXIS2_PLACEMENT_3D('',#709,#584,#585);
#487=AXIS2_PLACEMENT_3D('',#713,#588,#589);
#488=AXIS2_PLACEMENT_3D('',#715,#591,#592);
#489=AXIS2_PLACEMENT_3D('',#721,#596,#597);
#490=AXIS2_PLACEMENT_3D('',#723,#599,#600);
#491=AXIS2_PLACEMENT_3D('',#725,#602,#603);
#492=DIRECTION('axis',(0.,0.,1.));
#493=DIRECTION('refdir',(1.,0.,0.));
#494=DIRECTION('center_axis',(-1.48029736616687E-16,0.,1.));
#495=DIRECTION('ref_axis',(-1.,0.,-1.48029736616687E-16));
#496=DIRECTION('',(1.,-2.93315699689501E-33,1.48029736616687E-16));
#497=DIRECTION('',(0.,-1.,0.));
#498=DIRECTION('',(-1.,6.73270481883054E-17,-1.48029736616687E-16));
#499=DIRECTION('',(0.,-1.,0.));
#500=DIRECTION('center_axis',(1.,0.,0.));
#501=DIRECTION('ref_axis',(0.,0.,1.));
#502=DIRECTION('',(0.,0.,-1.));
#503=DIRECTION('',(0.,-1.,0.));
#504=DIRECTION('',(0.,0.,1.));
#505=DIRECTION('',(0.,-1.,0.));
#506=DIRECTION('',(0.,0.,-1.));
#507=DIRECTION('',(0.,0.,1.));
#508=DIRECTION('',(0.,1.,0.));
#509=DIRECTION('center_axis',(-1.,0.,-3.33066907387547E-16));
#510=DIRECTION('ref_axis',(3.33066907387547E-16,0.,-1.));
#511=DIRECTION('',(-3.33066907387547E-16,0.,1.));
#512=DIRECTION('',(0.,-1.,0.));
#513=DIRECTION('',(3.33066907387547E-16,-2.24244117236112E-32,-1.));
#514=DIRECTION('',(-3.33066907387547E-16,9.76937529837966E-49,1.));
#515=DIRECTION('',(0.,1.,0.));
#516=DIRECTION('',(3.33066907387547E-16,0.,-1.));
#517=DIRECTION('',(0.,-1.,0.));
#518=DIRECTION('center_axis',(-1.48029736616687E-16,0.,1.));
#519=DIRECTION('ref_axis',(-1.,0.,-1.48029736616687E-16));
#520=DIRECTION('',(1.,0.,1.48029736616687E-16));
#521=DIRECTION('',(-1.,0.,-1.48029736616687E-16));
#522=DIRECTION('center_axis',(0.,0.,1.));
#523=DIRECTION('ref_axis',(1.,0.,0.));
#524=DIRECTION('',(-1.,0.,0.));
#525=DIRECTION('',(0.,1.,0.));
#526=DIRECTION('',(1.,-6.73270481883054E-17,0.));
#527=DIRECTION('center_axis',(0.,0.,1.));
#528=DIRECTION('ref_axis',(1.,0.,0.));
#529=DIRECTION('center_axis',(0.,0.,1.));
#530=DIRECTION('ref_axis',(1.,0.,0.));
#531=DIRECTION('center_axis',(0.,0.,1.));
#532=DIRECTION('ref_axis',(1.,0.,0.));
#533=DIRECTION('',(1.,-6.73270481883054E-17,0.));
#534=DIRECTION('',(0.,-1.,0.));
#535=DIRECTION('',(-1.,0.,0.));
#536=DIRECTION('center_axis',(0.,0.,1.));
#537=DIRECTION('ref_axis',(1.,0.,0.));
#538=DIRECTION('center_axis',(0.,0.,1.));
#539=DIRECTION('ref_axis',(1.,0.,0.));
#540=DIRECTION('center_axis',(6.73270481883054E-17,1.,0.));
#541=DIRECTION('ref_axis',(-1.,6.73270481883054E-17,0.));
#542=DIRECTION('',(0.,0.,1.));
#543=DIRECTION('',(-1.,6.73270481883054E-17,0.));
#544=DIRECTION('',(0.,0.,1.));
#545=DIRECTION('center_axis',(-2.93315699689501E-33,-1.,0.));
#546=DIRECTION('ref_axis',(1.,-2.93315699689501E-33,0.));
#547=DIRECTION('',(1.,-2.93315699689501E-33,0.));
#548=DIRECTION('',(0.,0.,1.));
#549=DIRECTION('',(1.,-2.93315699689501E-33,0.));
#550=DIRECTION('',(0.,0.,1.));
#551=DIRECTION('',(1.,-2.93315699689501E-33,0.));
#552=DIRECTION('center_axis',(0.,0.,1.));
#553=DIRECTION('ref_axis',(1.,0.,0.));
#554=DIRECTION('',(-1.,0.,0.));
#555=DIRECTION('',(0.,-1.,0.));
#556=DIRECTION('center_axis',(0.,0.,-1.));
#557=DIRECTION('ref_axis',(1.,0.,0.));
#558=DIRECTION('center_axis',(0.,0.,-1.));
#559=DIRECTION('ref_axis',(1.,0.,0.));
#560=DIRECTION('center_axis',(0.,0.,1.));
#561=DIRECTION('ref_axis',(1.,0.,0.));
#562=DIRECTION('',(-3.52868622169468E-33,1.,0.));
#563=DIRECTION('',(-1.,0.,0.));
#564=DIRECTION('center_axis',(0.,0.,-1.));
#565=DIRECTION('ref_axis',(1.,0.,0.));
#566=DIRECTION('center_axis',(0.,0.,-1.));
#567=DIRECTION('ref_axis',(1.,0.,0.));
#568=DIRECTION('center_axis',(0.,0.,1.));
#569=DIRECTION('ref_axis',(1.,0.,0.));
#570=DIRECTION('',(0.,0.,1.));
#571=DIRECTION('center_axis',(0.,0.,1.));
#572=DIRECTION('ref_axis',(1.,0.,0.));
#573=DIRECTION('',(0.,0.,1.));
#574=DIRECTION('center_axis',(0.,0.,1.));
#575=DIRECTION('ref_axis',(1.,0.,0.));
#576=DIRECTION('',(0.,0.,1.));
#577=DIRECTION('center_axis',(0.,0.,1.));
#578=DIRECTION('ref_axis',(1.,0.,0.));
#579=DIRECTION('',(0.,0.,1.));
#580=DIRECTION('center_axis',(-1.,0.,0.));
#581=DIRECTION('ref_axis',(0.,-1.,0.));
#582=DIRECTION('',(0.,0.,1.));
#583=DIRECTION('',(0.,-1.,0.));
#584=DIRECTION('center_axis',(1.,3.52868622169468E-33,0.));
#585=DIRECTION('ref_axis',(-3.52868622169468E-33,1.,0.));
#586=DIRECTION('',(-3.52868622169468E-33,1.,0.));
#587=DIRECTION('',(0.,0.,1.));
#588=DIRECTION('center_axis',(0.,1.,0.));
#589=DIRECTION('ref_axis',(-1.,0.,0.));
#590=DIRECTION('',(-1.,0.,0.));
#591=DIRECTION('center_axis',(0.,-1.,0.));
#592=DIRECTION('ref_axis',(1.,0.,0.));
#593=DIRECTION('',(0.,0.,1.));
#594=DIRECTION('',(1.,0.,0.));
#595=DIRECTION('',(0.,0.,1.));
#596=DIRECTION('center_axis',(-1.,0.,0.));
#597=DIRECTION('ref_axis',(0.,-1.,0.));
#598=DIRECTION('',(0.,-1.,0.));
#599=DIRECTION('center_axis',(1.,0.,0.));
#600=DIRECTION('ref_axis',(0.,1.,0.));
#601=DIRECTION('',(0.,1.,0.));
#602=DIRECTION('center_axis',(0.,0.,1.));
#603=DIRECTION('ref_axis',(1.,0.,0.));
#604=CARTESIAN_POINT('',(0.,0.,0.));
#605=CARTESIAN_POINT('Origin',(30.235,2.,20.));
#606=CARTESIAN_POINT('',(15.235,0.,20.));
#607=CARTESIAN_POINT('',(30.235,0.,20.));
#608=CARTESIAN_POINT('',(15.1175,0.,20.));
#609=CARTESIAN_POINT('',(15.235,2.,20.));
#610=CARTESIAN_POINT('',(15.235,2.,20.));
#611=CARTESIAN_POINT('',(30.235,2.,20.));
#612=CARTESIAN_POINT('',(38.8525,2.,20.));
#613=CARTESIAN_POINT('',(30.235,2.,20.));
#614=CARTESIAN_POINT('Origin',(30.235,2.,2.79725830370328E-15));
#615=CARTESIAN_POINT('',(30.235,-26.97,20.));
#616=CARTESIAN_POINT('',(30.235,-26.97,2.79725830370328E-15));
#617=CARTESIAN_POINT('',(30.235,-26.97,1.39862915185164E-15));
#618=CARTESIAN_POINT('',(30.235,-24.97,20.));
#619=CARTESIAN_POINT('',(30.235,2.,20.));
#620=CARTESIAN_POINT('',(30.235,-24.97,2.));
#621=CARTESIAN_POINT('',(30.235,-24.97,1.39862915185164E-15));
#622=CARTESIAN_POINT('',(30.235,-5.53413396389166E-32,2.));
#623=CARTESIAN_POINT('',(30.235,-5.2425,2.));
#624=CARTESIAN_POINT('',(30.235,0.,1.39862915185164E-15));
#625=CARTESIAN_POINT('',(30.235,2.,2.79725830370328E-15));
#626=CARTESIAN_POINT('',(30.235,2.,1.39862915185164E-15));
#627=CARTESIAN_POINT('',(30.235,-5.2425,0.));
#628=CARTESIAN_POINT('Origin',(15.235,2.,20.));
#629=CARTESIAN_POINT('',(15.235,-26.97,4.18030056217388E-17));
#630=CARTESIAN_POINT('',(15.235,-26.97,20.));
#631=CARTESIAN_POINT('',(15.235,-26.97,10.));
#632=CARTESIAN_POINT('',(15.235,2.,4.18030056217388E-17));
#633=CARTESIAN_POINT('',(15.235,-5.2425,0.));
#634=CARTESIAN_POINT('',(15.235,2.,9.99999999999999));
#635=CARTESIAN_POINT('',(15.235,-1.13439846854915E-32,2.));
#636=CARTESIAN_POINT('',(15.235,0.,10.));
#637=CARTESIAN_POINT('',(15.235,-24.97,2.));
#638=CARTESIAN_POINT('',(15.235,-5.2425,2.));
#639=CARTESIAN_POINT('',(15.235,-24.97,20.));
#640=CARTESIAN_POINT('',(15.235,-24.97,9.99999999999999));
#641=CARTESIAN_POINT('',(15.235,2.,20.));
#642=CARTESIAN_POINT('Origin',(30.235,2.,20.));
#643=CARTESIAN_POINT('',(14.1175,-26.97,20.));
#644=CARTESIAN_POINT('',(37.8525,-24.97,20.));
#645=CARTESIAN_POINT('Origin',(22.735,-12.485,0.));
#646=CARTESIAN_POINT('',(-2.,-26.97,0.));
#647=CARTESIAN_POINT('',(47.47,-26.97,0.));
#648=CARTESIAN_POINT('',(-2.,2.,0.));
#649=CARTESIAN_POINT('',(-2.,-26.97,0.));
#650=CARTESIAN_POINT('',(-2.,2.,0.));
#651=CARTESIAN_POINT('',(2.15,-4.,0.));
#652=CARTESIAN_POINT('Origin',(4.,-4.,0.));
#653=CARTESIAN_POINT('',(2.15,-20.97,0.));
#654=CARTESIAN_POINT('Origin',(4.,-20.97,0.));
#655=CARTESIAN_POINT('Origin',(22.735,-12.485,0.));
#656=CARTESIAN_POINT('',(47.47,2.,0.));
#657=CARTESIAN_POINT('',(-2.,2.,0.));
#658=CARTESIAN_POINT('',(47.47,-26.97,0.));
#659=CARTESIAN_POINT('',(47.47,2.,0.));
#660=CARTESIAN_POINT('',(47.47,-26.97,0.));
#661=CARTESIAN_POINT('',(39.62,-4.,0.));
#662=CARTESIAN_POINT('Origin',(41.47,-4.,0.));
#663=CARTESIAN_POINT('',(39.62,-20.97,0.));
#664=CARTESIAN_POINT('Origin',(41.47,-20.97,0.));
#665=CARTESIAN_POINT('Origin',(47.47,2.,0.));
#666=CARTESIAN_POINT('',(-2.,2.,50.));
#667=CARTESIAN_POINT('',(-2.,2.,0.));
#668=CARTESIAN_POINT('',(47.47,2.,50.));
#669=CARTESIAN_POINT('',(-2.,2.,50.));
#670=CARTESIAN_POINT('',(47.47,2.,0.));
#671=CARTESIAN_POINT('Origin',(0.,0.,0.));
#672=CARTESIAN_POINT('',(45.47,0.,2.));
#673=CARTESIAN_POINT('',(11.3675,0.,2.));
#674=CARTESIAN_POINT('',(45.47,0.,50.));
#675=CARTESIAN_POINT('',(45.47,-1.33370648648816E-31,0.));
#676=CARTESIAN_POINT('',(0.,0.,50.));
#677=CARTESIAN_POINT('',(0.,0.,50.));
#678=CARTESIAN_POINT('',(0.,0.,2.));
#679=CARTESIAN_POINT('',(0.,0.,0.));
#680=CARTESIAN_POINT('',(11.3675,0.,2.));
#681=CARTESIAN_POINT('Origin',(22.735,-12.485,2.));
#682=CARTESIAN_POINT('',(45.47,-24.97,2.));
#683=CARTESIAN_POINT('',(34.1025,-24.97,2.));
#684=CARTESIAN_POINT('',(45.47,-6.2425,2.));
#685=CARTESIAN_POINT('',(39.62,-20.97,2.));
#686=CARTESIAN_POINT('Origin',(41.47,-20.97,2.));
#687=CARTESIAN_POINT('',(39.62,-4.,2.));
#688=CARTESIAN_POINT('Origin',(41.47,-4.,2.));
#689=CARTESIAN_POINT('Origin',(22.735,-12.485,2.));
#690=CARTESIAN_POINT('',(0.,-24.97,2.));
#691=CARTESIAN_POINT('',(0.,-18.7275,2.));
#692=CARTESIAN_POINT('',(34.1025,-24.97,2.));
#693=CARTESIAN_POINT('',(2.15,-20.97,2.));
#694=CARTESIAN_POINT('Origin',(4.,-20.97,2.));
#695=CARTESIAN_POINT('',(2.15,-4.,2.));
#696=CARTESIAN_POINT('Origin',(4.,-4.,2.));
#697=CARTESIAN_POINT('Origin',(4.,-4.,0.));
#698=CARTESIAN_POINT('',(2.15,-4.,0.));
#699=CARTESIAN_POINT('Origin',(41.47,-20.97,0.));
#700=CARTESIAN_POINT('',(39.62,-20.97,0.));
#701=CARTESIAN_POINT('Origin',(4.,-20.97,0.));
#702=CARTESIAN_POINT('',(2.15,-20.97,0.));
#703=CARTESIAN_POINT('Origin',(41.47,-4.,0.));
#704=CARTESIAN_POINT('',(39.62,-4.,0.));
#705=CARTESIAN_POINT('Origin',(45.47,-1.33370648648816E-31,0.));
#706=CARTESIAN_POINT('',(45.47,-24.97,50.));
#707=CARTESIAN_POINT('',(45.47,-24.97,0.));
#708=CARTESIAN_POINT('',(45.47,-1.33370648648816E-31,50.));
#709=CARTESIAN_POINT('Origin',(8.8111294955716E-32,-24.97,0.));
#710=CARTESIAN_POINT('',(0.,-24.97,50.));
#711=CARTESIAN_POINT('',(8.8111294955716E-32,-24.97,50.));
#712=CARTESIAN_POINT('',(8.8111294955716E-32,-24.97,0.));
#713=CARTESIAN_POINT('Origin',(45.47,-24.97,0.));
#714=CARTESIAN_POINT('',(45.47,-24.97,50.));
#715=CARTESIAN_POINT('Origin',(-2.,-26.97,0.));
#716=CARTESIAN_POINT('',(47.47,-26.97,50.));
#717=CARTESIAN_POINT('',(47.47,-26.97,0.));
#718=CARTESIAN_POINT('',(-2.,-26.97,50.));
#719=CARTESIAN_POINT('',(47.47,-26.97,50.));
#720=CARTESIAN_POINT('',(-2.,-26.97,0.));
#721=CARTESIAN_POINT('Origin',(-2.,2.,0.));
#722=CARTESIAN_POINT('',(-2.,-26.97,50.));
#723=CARTESIAN_POINT('Origin',(47.47,-26.97,0.));
#724=CARTESIAN_POINT('',(47.47,2.,50.));
#725=CARTESIAN_POINT('Origin',(22.735,-12.485,50.));
#726=UNCERTAINTY_MEASURE_WITH_UNIT(LENGTH_MEASURE(0.01),#730,
'DISTANCE_ACCURACY_VALUE',
'Maximum model space distance between geometric entities at asserted c
onnectivities');
#727=UNCERTAINTY_MEASURE_WITH_UNIT(LENGTH_MEASURE(0.01),#730,
'DISTANCE_ACCURACY_VALUE',
'Maximum model space distance between geometric entities at asserted c
onnectivities');
#728=(
GEOMETRIC_REPRESENTATION_CONTEXT(3)
GLOBAL_UNCERTAINTY_ASSIGNED_CONTEXT((#726))
GLOBAL_UNIT_ASSIGNED_CONTEXT((#730,#732,#733))
REPRESENTATION_CONTEXT('','3D')
);
#729=(
GEOMETRIC_REPRESENTATION_CONTEXT(3)
GLOBAL_UNCERTAINTY_ASSIGNED_CONTEXT((#727))
GLOBAL_UNIT_ASSIGNED_CONTEXT((#730,#732,#733))
REPRESENTATION_CONTEXT('','3D')
);
#730=(
LENGTH_UNIT()
NAMED_UNIT(*)
SI_UNIT(.MILLI.,.METRE.)
);
#731=(
LENGTH_UNIT()
NAMED_UNIT(*)
SI_UNIT($,.METRE.)
);
#732=(
NAMED_UNIT(*)
PLANE_ANGLE_UNIT()
SI_UNIT($,.RADIAN.)
);
#733=(
NAMED_UNIT(*)
SI_UNIT($,.STERADIAN.)
SOLID_ANGLE_UNIT()
);
#734=SHAPE_DEFINITION_REPRESENTATION(#735,#736);
#735=PRODUCT_DEFINITION_SHAPE('',$,#738);
#736=SHAPE_REPRESENTATION('',(#462),#728);
#737=PRODUCT_DEFINITION_CONTEXT('part definition',#742,'design');
#738=PRODUCT_DEFINITION('2026-06-22-18-37-01-797','Servo box v.1',#739,
#737);
#739=PRODUCT_DEFINITION_FORMATION('',$,#744);
#740=PRODUCT_RELATED_PRODUCT_CATEGORY('Servo box v.1','Servo box v.1',(#744));
#741=APPLICATION_PROTOCOL_DEFINITION('international standard',
'automotive_design',2009,#742);
#742=APPLICATION_CONTEXT(
'Core Data for Automotive Mechanical Design Process');
#743=PRODUCT_CONTEXT('part definition',#742,'mechanical');
#744=PRODUCT('2026-06-22-18-37-01-797','Servo box v.1',$,(#743));
#745=PRESENTATION_STYLE_ASSIGNMENT((#746));
#746=SURFACE_STYLE_USAGE(.BOTH.,#747);
#747=SURFACE_SIDE_STYLE('',(#748));
#748=SURFACE_STYLE_FILL_AREA(#749);
#749=FILL_AREA_STYLE('Steel - Satin',(#750));
#750=FILL_AREA_STYLE_COLOUR('Steel - Satin',#751);
#751=COLOUR_RGB('Steel - Satin',0.627450980392157,0.627450980392157,0.627450980392157);
ENDSEC;
END-ISO-10303-21;
