ISO-10303-21;
HEADER;
/* Generated by software containing ST-Developer
 * from STEP Tools, Inc. (www.steptools.com) 
 */

FILE_DESCRIPTION(
/* description */ (''),
/* implementation_level */ '2;1');

FILE_NAME(
/* name */ 'servo-bracket.step',
/* time_stamp */ '2026-07-21T09:21:46-04:00',
/* author */ (''),
/* organization */ (''),
/* preprocessor_version */ 'ST-DEVELOPER v20.1',
/* originating_system */ 'Autodesk Translation Framework v15.8.0.0',
/* authorisation */ '');

FILE_SCHEMA (('AUTOMOTIVE_DESIGN { 1 0 10303 214 3 1 1 }'));
ENDSEC;

DATA;
#10=MECHANICAL_DESIGN_GEOMETRIC_PRESENTATION_REPRESENTATION('',(#13),#1467);
#11=SHAPE_REPRESENTATION_RELATIONSHIP('SRR','None',#1474,#12);
#12=ADVANCED_BREP_SHAPE_REPRESENTATION('',(#14),#1466);
#13=STYLED_ITEM('',(#1483),#14);
#14=MANIFOLD_SOLID_BREP('Body1',#863);
#15=FACE_BOUND('',#101,.T.);
#16=FACE_BOUND('',#102,.T.);
#17=FACE_BOUND('',#106,.T.);
#18=FACE_BOUND('',#107,.T.);
#19=FACE_BOUND('',#111,.T.);
#20=FACE_BOUND('',#112,.T.);
#21=FACE_BOUND('',#118,.T.);
#22=FACE_BOUND('',#119,.T.);
#23=FACE_BOUND('',#148,.T.);
#24=FACE_BOUND('',#149,.T.);
#25=FACE_BOUND('',#150,.T.);
#26=FACE_BOUND('',#151,.T.);
#27=FACE_BOUND('',#152,.T.);
#28=FACE_BOUND('',#153,.T.);
#29=FACE_BOUND('',#154,.T.);
#30=FACE_BOUND('',#155,.T.);
#31=FACE_BOUND('',#157,.T.);
#32=FACE_BOUND('',#158,.T.);
#33=FACE_BOUND('',#159,.T.);
#34=FACE_BOUND('',#160,.T.);
#35=FACE_BOUND('',#161,.T.);
#36=FACE_BOUND('',#162,.T.);
#37=FACE_BOUND('',#163,.T.);
#38=FACE_BOUND('',#164,.T.);
#39=PLANE('',#880);
#40=PLANE('',#887);
#41=PLANE('',#893);
#42=PLANE('',#902);
#43=PLANE('',#903);
#44=PLANE('',#910);
#45=PLANE('',#913);
#46=PLANE('',#914);
#47=PLANE('',#921);
#48=PLANE('',#928);
#49=PLANE('',#931);
#50=PLANE('',#932);
#51=PLANE('',#935);
#52=PLANE('',#938);
#53=PLANE('',#939);
#54=PLANE('',#964);
#55=PLANE('',#965);
#56=PLANE('',#966);
#57=FACE_OUTER_BOUND('',#99,.T.);
#58=FACE_OUTER_BOUND('',#100,.T.);
#59=FACE_OUTER_BOUND('',#103,.T.);
#60=FACE_OUTER_BOUND('',#104,.T.);
#61=FACE_OUTER_BOUND('',#105,.T.);
#62=FACE_OUTER_BOUND('',#108,.T.);
#63=FACE_OUTER_BOUND('',#109,.T.);
#64=FACE_OUTER_BOUND('',#110,.T.);
#65=FACE_OUTER_BOUND('',#113,.T.);
#66=FACE_OUTER_BOUND('',#114,.T.);
#67=FACE_OUTER_BOUND('',#115,.T.);
#68=FACE_OUTER_BOUND('',#116,.T.);
#69=FACE_OUTER_BOUND('',#117,.T.);
#70=FACE_OUTER_BOUND('',#120,.T.);
#71=FACE_OUTER_BOUND('',#121,.T.);
#72=FACE_OUTER_BOUND('',#122,.T.);
#73=FACE_OUTER_BOUND('',#123,.T.);
#74=FACE_OUTER_BOUND('',#124,.T.);
#75=FACE_OUTER_BOUND('',#125,.T.);
#76=FACE_OUTER_BOUND('',#126,.T.);
#77=FACE_OUTER_BOUND('',#127,.T.);
#78=FACE_OUTER_BOUND('',#128,.T.);
#79=FACE_OUTER_BOUND('',#129,.T.);
#80=FACE_OUTER_BOUND('',#130,.T.);
#81=FACE_OUTER_BOUND('',#131,.T.);
#82=FACE_OUTER_BOUND('',#132,.T.);
#83=FACE_OUTER_BOUND('',#133,.T.);
#84=FACE_OUTER_BOUND('',#134,.T.);
#85=FACE_OUTER_BOUND('',#135,.T.);
#86=FACE_OUTER_BOUND('',#136,.T.);
#87=FACE_OUTER_BOUND('',#137,.T.);
#88=FACE_OUTER_BOUND('',#138,.T.);
#89=FACE_OUTER_BOUND('',#139,.T.);
#90=FACE_OUTER_BOUND('',#140,.T.);
#91=FACE_OUTER_BOUND('',#141,.T.);
#92=FACE_OUTER_BOUND('',#142,.T.);
#93=FACE_OUTER_BOUND('',#143,.T.);
#94=FACE_OUTER_BOUND('',#144,.T.);
#95=FACE_OUTER_BOUND('',#145,.T.);
#96=FACE_OUTER_BOUND('',#146,.T.);
#97=FACE_OUTER_BOUND('',#147,.T.);
#98=FACE_OUTER_BOUND('',#156,.T.);
#99=EDGE_LOOP('',(#557,#558,#559,#560));
#100=EDGE_LOOP('',(#561,#562,#563,#564,#565,#566,#567,#568,#569,#570,#571,
#572));
#101=EDGE_LOOP('',(#573));
#102=EDGE_LOOP('',(#574));
#103=EDGE_LOOP('',(#575,#576,#577,#578,#579,#580,#581,#582,#583,#584,#585,
#586));
#104=EDGE_LOOP('',(#587,#588,#589,#590));
#105=EDGE_LOOP('',(#591,#592,#593,#594,#595,#596,#597,#598,#599,#600,#601,
#602));
#106=EDGE_LOOP('',(#603));
#107=EDGE_LOOP('',(#604));
#108=EDGE_LOOP('',(#605,#606,#607,#608));
#109=EDGE_LOOP('',(#609,#610,#611,#612));
#110=EDGE_LOOP('',(#613,#614,#615,#616,#617,#618,#619,#620,#621,#622,#623,
#624));
#111=EDGE_LOOP('',(#625));
#112=EDGE_LOOP('',(#626));
#113=EDGE_LOOP('',(#627,#628,#629,#630));
#114=EDGE_LOOP('',(#631,#632,#633,#634));
#115=EDGE_LOOP('',(#635,#636,#637,#638));
#116=EDGE_LOOP('',(#639,#640,#641,#642));
#117=EDGE_LOOP('',(#643,#644,#645,#646,#647,#648,#649,#650,#651,#652,#653,
#654));
#118=EDGE_LOOP('',(#655));
#119=EDGE_LOOP('',(#656));
#120=EDGE_LOOP('',(#657,#658,#659,#660));
#121=EDGE_LOOP('',(#661,#662,#663,#664));
#122=EDGE_LOOP('',(#665,#666,#667,#668));
#123=EDGE_LOOP('',(#669,#670,#671,#672));
#124=EDGE_LOOP('',(#673,#674,#675,#676));
#125=EDGE_LOOP('',(#677,#678,#679,#680));
#126=EDGE_LOOP('',(#681,#682,#683,#684));
#127=EDGE_LOOP('',(#685,#686,#687,#688));
#128=EDGE_LOOP('',(#689,#690,#691,#692));
#129=EDGE_LOOP('',(#693,#694,#695,#696));
#130=EDGE_LOOP('',(#697,#698,#699,#700));
#131=EDGE_LOOP('',(#701,#702,#703,#704));
#132=EDGE_LOOP('',(#705,#706,#707,#708));
#133=EDGE_LOOP('',(#709,#710,#711,#712));
#134=EDGE_LOOP('',(#713,#714,#715,#716));
#135=EDGE_LOOP('',(#717,#718,#719,#720));
#136=EDGE_LOOP('',(#721,#722,#723,#724));
#137=EDGE_LOOP('',(#725,#726,#727,#728));
#138=EDGE_LOOP('',(#729,#730,#731,#732));
#139=EDGE_LOOP('',(#733,#734,#735,#736));
#140=EDGE_LOOP('',(#737,#738,#739,#740));
#141=EDGE_LOOP('',(#741,#742,#743,#744));
#142=EDGE_LOOP('',(#745,#746,#747,#748));
#143=EDGE_LOOP('',(#749,#750,#751,#752));
#144=EDGE_LOOP('',(#753,#754,#755,#756));
#145=EDGE_LOOP('',(#757,#758,#759,#760));
#146=EDGE_LOOP('',(#761,#762,#763,#764,#765,#766,#767,#768,#769,#770,#771,
#772));
#147=EDGE_LOOP('',(#773,#774,#775,#776));
#148=EDGE_LOOP('',(#777));
#149=EDGE_LOOP('',(#778));
#150=EDGE_LOOP('',(#779));
#151=EDGE_LOOP('',(#780));
#152=EDGE_LOOP('',(#781));
#153=EDGE_LOOP('',(#782));
#154=EDGE_LOOP('',(#783));
#155=EDGE_LOOP('',(#784));
#156=EDGE_LOOP('',(#785,#786,#787,#788));
#157=EDGE_LOOP('',(#789));
#158=EDGE_LOOP('',(#790));
#159=EDGE_LOOP('',(#791));
#160=EDGE_LOOP('',(#792));
#161=EDGE_LOOP('',(#793));
#162=EDGE_LOOP('',(#794));
#163=EDGE_LOOP('',(#795));
#164=EDGE_LOOP('',(#796));
#165=LINE('',#1227,#237);
#166=LINE('',#1230,#238);
#167=LINE('',#1233,#239);
#168=LINE('',#1235,#240);
#169=LINE('',#1239,#241);
#170=LINE('',#1243,#242);
#171=LINE('',#1247,#243);
#172=LINE('',#1251,#244);
#173=LINE('',#1252,#245);
#174=LINE('',#1259,#246);
#175=LINE('',#1263,#247);
#176=LINE('',#1265,#248);
#177=LINE('',#1267,#249);
#178=LINE('',#1271,#250);
#179=LINE('',#1275,#251);
#180=LINE('',#1276,#252);
#181=LINE('',#1279,#253);
#182=LINE('',#1282,#254);
#183=LINE('',#1285,#255);
#184=LINE('',#1287,#256);
#185=LINE('',#1291,#257);
#186=LINE('',#1295,#258);
#187=LINE('',#1299,#259);
#188=LINE('',#1302,#260);
#189=LINE('',#1309,#261);
#190=LINE('',#1312,#262);
#191=LINE('',#1315,#263);
#192=LINE('',#1316,#264);
#193=LINE('',#1319,#265);
#194=LINE('',#1321,#266);
#195=LINE('',#1322,#267);
#196=LINE('',#1324,#268);
#197=LINE('',#1328,#269);
#198=LINE('',#1332,#270);
#199=LINE('',#1339,#271);
#200=LINE('',#1340,#272);
#201=LINE('',#1344,#273);
#202=LINE('',#1347,#274);
#203=LINE('',#1350,#275);
#204=LINE('',#1351,#276);
#205=LINE('',#1353,#277);
#206=LINE('',#1355,#278);
#207=LINE('',#1357,#279);
#208=LINE('',#1359,#280);
#209=LINE('',#1363,#281);
#210=LINE('',#1367,#282);
#211=LINE('',#1374,#283);
#212=LINE('',#1375,#284);
#213=LINE('',#1377,#285);
#214=LINE('',#1381,#286);
#215=LINE('',#1385,#287);
#216=LINE('',#1387,#288);
#217=LINE('',#1389,#289);
#218=LINE('',#1390,#290);
#219=LINE('',#1392,#291);
#220=LINE('',#1395,#292);
#221=LINE('',#1396,#293);
#222=LINE('',#1400,#294);
#223=LINE('',#1402,#295);
#224=LINE('',#1405,#296);
#225=LINE('',#1407,#297);
#226=LINE('',#1410,#298);
#227=LINE('',#1415,#299);
#228=LINE('',#1421,#300);
#229=LINE('',#1427,#301);
#230=LINE('',#1433,#302);
#231=LINE('',#1439,#303);
#232=LINE('',#1445,#304);
#233=LINE('',#1451,#305);
#234=LINE('',#1457,#306);
#235=LINE('',#1460,#307);
#236=LINE('',#1461,#308);
#237=VECTOR('',#973,10.);
#238=VECTOR('',#976,10.);
#239=VECTOR('',#979,10.);
#240=VECTOR('',#980,10.);
#241=VECTOR('',#983,10.);
#242=VECTOR('',#986,10.);
#243=VECTOR('',#989,10.);
#244=VECTOR('',#992,10.);
#245=VECTOR('',#993,10.);
#246=VECTOR('',#1000,10.);
#247=VECTOR('',#1003,10.);
#248=VECTOR('',#1004,10.);
#249=VECTOR('',#1005,10.);
#250=VECTOR('',#1008,10.);
#251=VECTOR('',#1011,10.);
#252=VECTOR('',#1012,10.);
#253=VECTOR('',#1015,10.);
#254=VECTOR('',#1018,10.);
#255=VECTOR('',#1021,10.);
#256=VECTOR('',#1022,10.);
#257=VECTOR('',#1025,10.);
#258=VECTOR('',#1028,10.);
#259=VECTOR('',#1031,10.);
#260=VECTOR('',#1034,10.);
#261=VECTOR('',#1041,10.);
#262=VECTOR('',#1044,10.);
#263=VECTOR('',#1047,10.);
#264=VECTOR('',#1048,10.);
#265=VECTOR('',#1051,10.);
#266=VECTOR('',#1052,10.);
#267=VECTOR('',#1053,10.);
#268=VECTOR('',#1054,10.);
#269=VECTOR('',#1057,10.);
#270=VECTOR('',#1060,10.);
#271=VECTOR('',#1069,10.);
#272=VECTOR('',#1070,10.);
#273=VECTOR('',#1075,10.);
#274=VECTOR('',#1078,10.);
#275=VECTOR('',#1081,10.);
#276=VECTOR('',#1082,10.);
#277=VECTOR('',#1085,10.);
#278=VECTOR('',#1086,10.);
#279=VECTOR('',#1087,10.);
#280=VECTOR('',#1088,10.);
#281=VECTOR('',#1091,10.);
#282=VECTOR('',#1094,10.);
#283=VECTOR('',#1103,10.);
#284=VECTOR('',#1104,10.);
#285=VECTOR('',#1107,10.);
#286=VECTOR('',#1112,10.);
#287=VECTOR('',#1117,10.);
#288=VECTOR('',#1120,10.);
#289=VECTOR('',#1123,10.);
#290=VECTOR('',#1124,10.);
#291=VECTOR('',#1127,10.);
#292=VECTOR('',#1132,10.);
#293=VECTOR('',#1133,10.);
#294=VECTOR('',#1140,0.95);
#295=VECTOR('',#1143,0.950000000000002);
#296=VECTOR('',#1148,0.949999999999998);
#297=VECTOR('',#1151,0.95);
#298=VECTOR('',#1156,10.);
#299=VECTOR('',#1161,1.75);
#300=VECTOR('',#1168,1.75);
#301=VECTOR('',#1175,1.75);
#302=VECTOR('',#1182,1.75);
#303=VECTOR('',#1189,1.75);
#304=VECTOR('',#1196,1.75);
#305=VECTOR('',#1203,1.75);
#306=VECTOR('',#1210,1.75);
#307=VECTOR('',#1215,10.);
#308=VECTOR('',#1216,10.);
#309=CIRCLE('',#878,1.);
#310=CIRCLE('',#879,1.);
#311=CIRCLE('',#881,1.);
#312=CIRCLE('',#882,2.);
#313=CIRCLE('',#883,2.);
#314=CIRCLE('',#884,1.);
#315=CIRCLE('',#885,0.95);
#316=CIRCLE('',#886,0.949999999999998);
#317=CIRCLE('',#888,1.);
#318=CIRCLE('',#889,2.);
#319=CIRCLE('',#890,2.);
#320=CIRCLE('',#892,1.);
#321=CIRCLE('',#894,1.);
#322=CIRCLE('',#895,2.);
#323=CIRCLE('',#896,2.);
#324=CIRCLE('',#897,1.);
#325=CIRCLE('',#898,0.95);
#326=CIRCLE('',#899,0.950000000000002);
#327=CIRCLE('',#901,1.);
#328=CIRCLE('',#904,1.);
#329=CIRCLE('',#905,2.);
#330=CIRCLE('',#906,2.);
#331=CIRCLE('',#907,0.950000000000002);
#332=CIRCLE('',#908,0.95);
#333=CIRCLE('',#912,1.);
#334=CIRCLE('',#915,1.);
#335=CIRCLE('',#916,2.);
#336=CIRCLE('',#917,2.);
#337=CIRCLE('',#918,0.949999999999998);
#338=CIRCLE('',#919,0.95);
#339=CIRCLE('',#923,2.);
#340=CIRCLE('',#925,2.);
#341=CIRCLE('',#941,1.75);
#342=CIRCLE('',#942,1.75);
#343=CIRCLE('',#944,1.75);
#344=CIRCLE('',#945,1.75);
#345=CIRCLE('',#947,1.75);
#346=CIRCLE('',#948,1.75);
#347=CIRCLE('',#950,1.75);
#348=CIRCLE('',#951,1.75);
#349=CIRCLE('',#953,1.75);
#350=CIRCLE('',#954,1.75);
#351=CIRCLE('',#956,1.75);
#352=CIRCLE('',#957,1.75);
#353=CIRCLE('',#959,1.75);
#354=CIRCLE('',#960,1.75);
#355=CIRCLE('',#962,1.75);
#356=CIRCLE('',#963,1.75);
#357=VERTEX_POINT('',#1223);
#358=VERTEX_POINT('',#1224);
#359=VERTEX_POINT('',#1226);
#360=VERTEX_POINT('',#1228);
#361=VERTEX_POINT('',#1232);
#362=VERTEX_POINT('',#1234);
#363=VERTEX_POINT('',#1236);
#364=VERTEX_POINT('',#1238);
#365=VERTEX_POINT('',#1240);
#366=VERTEX_POINT('',#1242);
#367=VERTEX_POINT('',#1244);
#368=VERTEX_POINT('',#1246);
#369=VERTEX_POINT('',#1248);
#370=VERTEX_POINT('',#1250);
#371=VERTEX_POINT('',#1253);
#372=VERTEX_POINT('',#1255);
#373=VERTEX_POINT('',#1258);
#374=VERTEX_POINT('',#1260);
#375=VERTEX_POINT('',#1262);
#376=VERTEX_POINT('',#1264);
#377=VERTEX_POINT('',#1266);
#378=VERTEX_POINT('',#1268);
#379=VERTEX_POINT('',#1270);
#380=VERTEX_POINT('',#1272);
#381=VERTEX_POINT('',#1274);
#382=VERTEX_POINT('',#1278);
#383=VERTEX_POINT('',#1280);
#384=VERTEX_POINT('',#1284);
#385=VERTEX_POINT('',#1286);
#386=VERTEX_POINT('',#1288);
#387=VERTEX_POINT('',#1290);
#388=VERTEX_POINT('',#1292);
#389=VERTEX_POINT('',#1294);
#390=VERTEX_POINT('',#1296);
#391=VERTEX_POINT('',#1298);
#392=VERTEX_POINT('',#1300);
#393=VERTEX_POINT('',#1303);
#394=VERTEX_POINT('',#1305);
#395=VERTEX_POINT('',#1308);
#396=VERTEX_POINT('',#1310);
#397=VERTEX_POINT('',#1314);
#398=VERTEX_POINT('',#1318);
#399=VERTEX_POINT('',#1320);
#400=VERTEX_POINT('',#1323);
#401=VERTEX_POINT('',#1325);
#402=VERTEX_POINT('',#1327);
#403=VERTEX_POINT('',#1329);
#404=VERTEX_POINT('',#1331);
#405=VERTEX_POINT('',#1334);
#406=VERTEX_POINT('',#1336);
#407=VERTEX_POINT('',#1343);
#408=VERTEX_POINT('',#1345);
#409=VERTEX_POINT('',#1349);
#410=VERTEX_POINT('',#1354);
#411=VERTEX_POINT('',#1356);
#412=VERTEX_POINT('',#1358);
#413=VERTEX_POINT('',#1360);
#414=VERTEX_POINT('',#1362);
#415=VERTEX_POINT('',#1364);
#416=VERTEX_POINT('',#1366);
#417=VERTEX_POINT('',#1369);
#418=VERTEX_POINT('',#1371);
#419=VERTEX_POINT('',#1379);
#420=VERTEX_POINT('',#1383);
#421=VERTEX_POINT('',#1412);
#422=VERTEX_POINT('',#1414);
#423=VERTEX_POINT('',#1418);
#424=VERTEX_POINT('',#1420);
#425=VERTEX_POINT('',#1424);
#426=VERTEX_POINT('',#1426);
#427=VERTEX_POINT('',#1430);
#428=VERTEX_POINT('',#1432);
#429=VERTEX_POINT('',#1436);
#430=VERTEX_POINT('',#1438);
#431=VERTEX_POINT('',#1442);
#432=VERTEX_POINT('',#1444);
#433=VERTEX_POINT('',#1448);
#434=VERTEX_POINT('',#1450);
#435=VERTEX_POINT('',#1454);
#436=VERTEX_POINT('',#1456);
#437=EDGE_CURVE('',#357,#358,#309,.T.);
#438=EDGE_CURVE('',#358,#359,#165,.T.);
#439=EDGE_CURVE('',#359,#360,#310,.T.);
#440=EDGE_CURVE('',#360,#357,#166,.T.);
#441=EDGE_CURVE('',#360,#361,#167,.T.);
#442=EDGE_CURVE('',#362,#361,#168,.T.);
#443=EDGE_CURVE('',#363,#362,#311,.T.);
#444=EDGE_CURVE('',#363,#364,#169,.T.);
#445=EDGE_CURVE('',#365,#364,#312,.T.);
#446=EDGE_CURVE('',#365,#366,#170,.T.);
#447=EDGE_CURVE('',#367,#366,#313,.T.);
#448=EDGE_CURVE('',#367,#368,#171,.T.);
#449=EDGE_CURVE('',#369,#368,#314,.T.);
#450=EDGE_CURVE('',#370,#369,#172,.T.);
#451=EDGE_CURVE('',#357,#370,#173,.T.);
#452=EDGE_CURVE('',#371,#371,#315,.T.);
#453=EDGE_CURVE('',#372,#372,#316,.T.);
#454=EDGE_CURVE('',#373,#359,#174,.T.);
#455=EDGE_CURVE('',#374,#373,#317,.T.);
#456=EDGE_CURVE('',#374,#375,#175,.T.);
#457=EDGE_CURVE('',#376,#375,#176,.T.);
#458=EDGE_CURVE('',#377,#376,#177,.T.);
#459=EDGE_CURVE('',#378,#377,#318,.T.);
#460=EDGE_CURVE('',#379,#378,#178,.T.);
#461=EDGE_CURVE('',#380,#379,#319,.T.);
#462=EDGE_CURVE('',#380,#381,#179,.T.);
#463=EDGE_CURVE('',#361,#381,#180,.T.);
#464=EDGE_CURVE('',#373,#382,#181,.T.);
#465=EDGE_CURVE('',#382,#383,#320,.T.);
#466=EDGE_CURVE('',#383,#374,#182,.T.);
#467=EDGE_CURVE('',#383,#384,#183,.T.);
#468=EDGE_CURVE('',#385,#384,#184,.T.);
#469=EDGE_CURVE('',#386,#385,#321,.T.);
#470=EDGE_CURVE('',#386,#387,#185,.T.);
#471=EDGE_CURVE('',#388,#387,#322,.T.);
#472=EDGE_CURVE('',#388,#389,#186,.T.);
#473=EDGE_CURVE('',#390,#389,#323,.T.);
#474=EDGE_CURVE('',#390,#391,#187,.T.);
#475=EDGE_CURVE('',#392,#391,#324,.T.);
#476=EDGE_CURVE('',#375,#392,#188,.T.);
#477=EDGE_CURVE('',#393,#393,#325,.T.);
#478=EDGE_CURVE('',#394,#394,#326,.T.);
#479=EDGE_CURVE('',#385,#395,#189,.T.);
#480=EDGE_CURVE('',#395,#396,#327,.T.);
#481=EDGE_CURVE('',#396,#386,#190,.T.);
#482=EDGE_CURVE('',#397,#396,#191,.T.);
#483=EDGE_CURVE('',#387,#397,#192,.T.);
#484=EDGE_CURVE('',#398,#395,#193,.T.);
#485=EDGE_CURVE('',#399,#398,#194,.T.);
#486=EDGE_CURVE('',#377,#399,#195,.T.);
#487=EDGE_CURVE('',#400,#376,#196,.T.);
#488=EDGE_CURVE('',#401,#400,#328,.T.);
#489=EDGE_CURVE('',#401,#402,#197,.T.);
#490=EDGE_CURVE('',#403,#402,#329,.T.);
#491=EDGE_CURVE('',#403,#404,#198,.T.);
#492=EDGE_CURVE('',#397,#404,#330,.T.);
#493=EDGE_CURVE('',#405,#405,#331,.T.);
#494=EDGE_CURVE('',#406,#406,#332,.T.);
#495=EDGE_CURVE('',#400,#392,#199,.T.);
#496=EDGE_CURVE('',#391,#401,#200,.T.);
#497=EDGE_CURVE('',#362,#407,#201,.T.);
#498=EDGE_CURVE('',#407,#408,#333,.T.);
#499=EDGE_CURVE('',#408,#363,#202,.T.);
#500=EDGE_CURVE('',#409,#408,#203,.T.);
#501=EDGE_CURVE('',#364,#409,#204,.T.);
#502=EDGE_CURVE('',#381,#407,#205,.T.);
#503=EDGE_CURVE('',#410,#380,#206,.T.);
#504=EDGE_CURVE('',#410,#411,#207,.T.);
#505=EDGE_CURVE('',#412,#411,#208,.T.);
#506=EDGE_CURVE('',#413,#412,#334,.T.);
#507=EDGE_CURVE('',#413,#414,#209,.T.);
#508=EDGE_CURVE('',#415,#414,#335,.T.);
#509=EDGE_CURVE('',#415,#416,#210,.T.);
#510=EDGE_CURVE('',#409,#416,#336,.T.);
#511=EDGE_CURVE('',#417,#417,#337,.T.);
#512=EDGE_CURVE('',#418,#418,#338,.T.);
#513=EDGE_CURVE('',#412,#369,#211,.T.);
#514=EDGE_CURVE('',#368,#413,#212,.T.);
#515=EDGE_CURVE('',#411,#370,#213,.T.);
#516=EDGE_CURVE('',#399,#419,#339,.T.);
#517=EDGE_CURVE('',#419,#378,#214,.T.);
#518=EDGE_CURVE('',#420,#410,#340,.T.);
#519=EDGE_CURVE('',#379,#420,#215,.T.);
#520=EDGE_CURVE('',#404,#388,#216,.T.);
#521=EDGE_CURVE('',#366,#415,#217,.T.);
#522=EDGE_CURVE('',#414,#367,#218,.T.);
#523=EDGE_CURVE('',#416,#365,#219,.T.);
#524=EDGE_CURVE('',#389,#403,#220,.T.);
#525=EDGE_CURVE('',#402,#390,#221,.T.);
#526=EDGE_CURVE('',#393,#406,#222,.T.);
#527=EDGE_CURVE('',#394,#405,#223,.T.);
#528=EDGE_CURVE('',#372,#417,#224,.T.);
#529=EDGE_CURVE('',#371,#418,#225,.T.);
#530=EDGE_CURVE('',#384,#398,#226,.T.);
#531=EDGE_CURVE('',#421,#421,#341,.T.);
#532=EDGE_CURVE('',#421,#422,#227,.T.);
#533=EDGE_CURVE('',#422,#422,#342,.T.);
#534=EDGE_CURVE('',#423,#423,#343,.T.);
#535=EDGE_CURVE('',#423,#424,#228,.T.);
#536=EDGE_CURVE('',#424,#424,#344,.T.);
#537=EDGE_CURVE('',#425,#425,#345,.T.);
#538=EDGE_CURVE('',#425,#426,#229,.T.);
#539=EDGE_CURVE('',#426,#426,#346,.T.);
#540=EDGE_CURVE('',#427,#427,#347,.T.);
#541=EDGE_CURVE('',#427,#428,#230,.T.);
#542=EDGE_CURVE('',#428,#428,#348,.T.);
#543=EDGE_CURVE('',#429,#429,#349,.T.);
#544=EDGE_CURVE('',#429,#430,#231,.T.);
#545=EDGE_CURVE('',#430,#430,#350,.T.);
#546=EDGE_CURVE('',#431,#431,#351,.T.);
#547=EDGE_CURVE('',#431,#432,#232,.T.);
#548=EDGE_CURVE('',#432,#432,#352,.T.);
#549=EDGE_CURVE('',#433,#433,#353,.T.);
#550=EDGE_CURVE('',#433,#434,#233,.T.);
#551=EDGE_CURVE('',#434,#434,#354,.T.);
#552=EDGE_CURVE('',#435,#435,#355,.T.);
#553=EDGE_CURVE('',#435,#436,#234,.T.);
#554=EDGE_CURVE('',#436,#436,#356,.T.);
#555=EDGE_CURVE('',#419,#420,#235,.T.);
#556=EDGE_CURVE('',#358,#382,#236,.T.);
#557=ORIENTED_EDGE('',*,*,#437,.T.);
#558=ORIENTED_EDGE('',*,*,#438,.T.);
#559=ORIENTED_EDGE('',*,*,#439,.T.);
#560=ORIENTED_EDGE('',*,*,#440,.T.);
#561=ORIENTED_EDGE('',*,*,#440,.F.);
#562=ORIENTED_EDGE('',*,*,#441,.T.);
#563=ORIENTED_EDGE('',*,*,#442,.F.);
#564=ORIENTED_EDGE('',*,*,#443,.F.);
#565=ORIENTED_EDGE('',*,*,#444,.T.);
#566=ORIENTED_EDGE('',*,*,#445,.F.);
#567=ORIENTED_EDGE('',*,*,#446,.T.);
#568=ORIENTED_EDGE('',*,*,#447,.F.);
#569=ORIENTED_EDGE('',*,*,#448,.T.);
#570=ORIENTED_EDGE('',*,*,#449,.F.);
#571=ORIENTED_EDGE('',*,*,#450,.F.);
#572=ORIENTED_EDGE('',*,*,#451,.F.);
#573=ORIENTED_EDGE('',*,*,#452,.T.);
#574=ORIENTED_EDGE('',*,*,#453,.T.);
#575=ORIENTED_EDGE('',*,*,#439,.F.);
#576=ORIENTED_EDGE('',*,*,#454,.F.);
#577=ORIENTED_EDGE('',*,*,#455,.F.);
#578=ORIENTED_EDGE('',*,*,#456,.T.);
#579=ORIENTED_EDGE('',*,*,#457,.F.);
#580=ORIENTED_EDGE('',*,*,#458,.F.);
#581=ORIENTED_EDGE('',*,*,#459,.F.);
#582=ORIENTED_EDGE('',*,*,#460,.F.);
#583=ORIENTED_EDGE('',*,*,#461,.F.);
#584=ORIENTED_EDGE('',*,*,#462,.T.);
#585=ORIENTED_EDGE('',*,*,#463,.F.);
#586=ORIENTED_EDGE('',*,*,#441,.F.);
#587=ORIENTED_EDGE('',*,*,#455,.T.);
#588=ORIENTED_EDGE('',*,*,#464,.T.);
#589=ORIENTED_EDGE('',*,*,#465,.T.);
#590=ORIENTED_EDGE('',*,*,#466,.T.);
#591=ORIENTED_EDGE('',*,*,#466,.F.);
#592=ORIENTED_EDGE('',*,*,#467,.T.);
#593=ORIENTED_EDGE('',*,*,#468,.F.);
#594=ORIENTED_EDGE('',*,*,#469,.F.);
#595=ORIENTED_EDGE('',*,*,#470,.T.);
#596=ORIENTED_EDGE('',*,*,#471,.F.);
#597=ORIENTED_EDGE('',*,*,#472,.T.);
#598=ORIENTED_EDGE('',*,*,#473,.F.);
#599=ORIENTED_EDGE('',*,*,#474,.T.);
#600=ORIENTED_EDGE('',*,*,#475,.F.);
#601=ORIENTED_EDGE('',*,*,#476,.F.);
#602=ORIENTED_EDGE('',*,*,#456,.F.);
#603=ORIENTED_EDGE('',*,*,#477,.T.);
#604=ORIENTED_EDGE('',*,*,#478,.T.);
#605=ORIENTED_EDGE('',*,*,#469,.T.);
#606=ORIENTED_EDGE('',*,*,#479,.T.);
#607=ORIENTED_EDGE('',*,*,#480,.T.);
#608=ORIENTED_EDGE('',*,*,#481,.T.);
#609=ORIENTED_EDGE('',*,*,#481,.F.);
#610=ORIENTED_EDGE('',*,*,#482,.F.);
#611=ORIENTED_EDGE('',*,*,#483,.F.);
#612=ORIENTED_EDGE('',*,*,#470,.F.);
#613=ORIENTED_EDGE('',*,*,#480,.F.);
#614=ORIENTED_EDGE('',*,*,#484,.F.);
#615=ORIENTED_EDGE('',*,*,#485,.F.);
#616=ORIENTED_EDGE('',*,*,#486,.F.);
#617=ORIENTED_EDGE('',*,*,#458,.T.);
#618=ORIENTED_EDGE('',*,*,#487,.F.);
#619=ORIENTED_EDGE('',*,*,#488,.F.);
#620=ORIENTED_EDGE('',*,*,#489,.T.);
#621=ORIENTED_EDGE('',*,*,#490,.F.);
#622=ORIENTED_EDGE('',*,*,#491,.T.);
#623=ORIENTED_EDGE('',*,*,#492,.F.);
#624=ORIENTED_EDGE('',*,*,#482,.T.);
#625=ORIENTED_EDGE('',*,*,#493,.T.);
#626=ORIENTED_EDGE('',*,*,#494,.T.);
#627=ORIENTED_EDGE('',*,*,#488,.T.);
#628=ORIENTED_EDGE('',*,*,#495,.T.);
#629=ORIENTED_EDGE('',*,*,#475,.T.);
#630=ORIENTED_EDGE('',*,*,#496,.T.);
#631=ORIENTED_EDGE('',*,*,#495,.F.);
#632=ORIENTED_EDGE('',*,*,#487,.T.);
#633=ORIENTED_EDGE('',*,*,#457,.T.);
#634=ORIENTED_EDGE('',*,*,#476,.T.);
#635=ORIENTED_EDGE('',*,*,#443,.T.);
#636=ORIENTED_EDGE('',*,*,#497,.T.);
#637=ORIENTED_EDGE('',*,*,#498,.T.);
#638=ORIENTED_EDGE('',*,*,#499,.T.);
#639=ORIENTED_EDGE('',*,*,#499,.F.);
#640=ORIENTED_EDGE('',*,*,#500,.F.);
#641=ORIENTED_EDGE('',*,*,#501,.F.);
#642=ORIENTED_EDGE('',*,*,#444,.F.);
#643=ORIENTED_EDGE('',*,*,#498,.F.);
#644=ORIENTED_EDGE('',*,*,#502,.F.);
#645=ORIENTED_EDGE('',*,*,#462,.F.);
#646=ORIENTED_EDGE('',*,*,#503,.F.);
#647=ORIENTED_EDGE('',*,*,#504,.T.);
#648=ORIENTED_EDGE('',*,*,#505,.F.);
#649=ORIENTED_EDGE('',*,*,#506,.F.);
#650=ORIENTED_EDGE('',*,*,#507,.T.);
#651=ORIENTED_EDGE('',*,*,#508,.F.);
#652=ORIENTED_EDGE('',*,*,#509,.T.);
#653=ORIENTED_EDGE('',*,*,#510,.F.);
#654=ORIENTED_EDGE('',*,*,#500,.T.);
#655=ORIENTED_EDGE('',*,*,#511,.T.);
#656=ORIENTED_EDGE('',*,*,#512,.T.);
#657=ORIENTED_EDGE('',*,*,#506,.T.);
#658=ORIENTED_EDGE('',*,*,#513,.T.);
#659=ORIENTED_EDGE('',*,*,#449,.T.);
#660=ORIENTED_EDGE('',*,*,#514,.T.);
#661=ORIENTED_EDGE('',*,*,#513,.F.);
#662=ORIENTED_EDGE('',*,*,#505,.T.);
#663=ORIENTED_EDGE('',*,*,#515,.T.);
#664=ORIENTED_EDGE('',*,*,#450,.T.);
#665=ORIENTED_EDGE('',*,*,#459,.T.);
#666=ORIENTED_EDGE('',*,*,#486,.T.);
#667=ORIENTED_EDGE('',*,*,#516,.T.);
#668=ORIENTED_EDGE('',*,*,#517,.T.);
#669=ORIENTED_EDGE('',*,*,#518,.T.);
#670=ORIENTED_EDGE('',*,*,#503,.T.);
#671=ORIENTED_EDGE('',*,*,#461,.T.);
#672=ORIENTED_EDGE('',*,*,#519,.T.);
#673=ORIENTED_EDGE('',*,*,#471,.T.);
#674=ORIENTED_EDGE('',*,*,#483,.T.);
#675=ORIENTED_EDGE('',*,*,#492,.T.);
#676=ORIENTED_EDGE('',*,*,#520,.T.);
#677=ORIENTED_EDGE('',*,*,#447,.T.);
#678=ORIENTED_EDGE('',*,*,#521,.T.);
#679=ORIENTED_EDGE('',*,*,#508,.T.);
#680=ORIENTED_EDGE('',*,*,#522,.T.);
#681=ORIENTED_EDGE('',*,*,#521,.F.);
#682=ORIENTED_EDGE('',*,*,#446,.F.);
#683=ORIENTED_EDGE('',*,*,#523,.F.);
#684=ORIENTED_EDGE('',*,*,#509,.F.);
#685=ORIENTED_EDGE('',*,*,#445,.T.);
#686=ORIENTED_EDGE('',*,*,#501,.T.);
#687=ORIENTED_EDGE('',*,*,#510,.T.);
#688=ORIENTED_EDGE('',*,*,#523,.T.);
#689=ORIENTED_EDGE('',*,*,#473,.T.);
#690=ORIENTED_EDGE('',*,*,#524,.T.);
#691=ORIENTED_EDGE('',*,*,#490,.T.);
#692=ORIENTED_EDGE('',*,*,#525,.T.);
#693=ORIENTED_EDGE('',*,*,#520,.F.);
#694=ORIENTED_EDGE('',*,*,#491,.F.);
#695=ORIENTED_EDGE('',*,*,#524,.F.);
#696=ORIENTED_EDGE('',*,*,#472,.F.);
#697=ORIENTED_EDGE('',*,*,#496,.F.);
#698=ORIENTED_EDGE('',*,*,#474,.F.);
#699=ORIENTED_EDGE('',*,*,#525,.F.);
#700=ORIENTED_EDGE('',*,*,#489,.F.);
#701=ORIENTED_EDGE('',*,*,#477,.F.);
#702=ORIENTED_EDGE('',*,*,#526,.T.);
#703=ORIENTED_EDGE('',*,*,#494,.F.);
#704=ORIENTED_EDGE('',*,*,#526,.F.);
#705=ORIENTED_EDGE('',*,*,#478,.F.);
#706=ORIENTED_EDGE('',*,*,#527,.T.);
#707=ORIENTED_EDGE('',*,*,#493,.F.);
#708=ORIENTED_EDGE('',*,*,#527,.F.);
#709=ORIENTED_EDGE('',*,*,#514,.F.);
#710=ORIENTED_EDGE('',*,*,#448,.F.);
#711=ORIENTED_EDGE('',*,*,#522,.F.);
#712=ORIENTED_EDGE('',*,*,#507,.F.);
#713=ORIENTED_EDGE('',*,*,#453,.F.);
#714=ORIENTED_EDGE('',*,*,#528,.T.);
#715=ORIENTED_EDGE('',*,*,#511,.F.);
#716=ORIENTED_EDGE('',*,*,#528,.F.);
#717=ORIENTED_EDGE('',*,*,#452,.F.);
#718=ORIENTED_EDGE('',*,*,#529,.T.);
#719=ORIENTED_EDGE('',*,*,#512,.F.);
#720=ORIENTED_EDGE('',*,*,#529,.F.);
#721=ORIENTED_EDGE('',*,*,#497,.F.);
#722=ORIENTED_EDGE('',*,*,#442,.T.);
#723=ORIENTED_EDGE('',*,*,#463,.T.);
#724=ORIENTED_EDGE('',*,*,#502,.T.);
#725=ORIENTED_EDGE('',*,*,#479,.F.);
#726=ORIENTED_EDGE('',*,*,#468,.T.);
#727=ORIENTED_EDGE('',*,*,#530,.T.);
#728=ORIENTED_EDGE('',*,*,#484,.T.);
#729=ORIENTED_EDGE('',*,*,#531,.F.);
#730=ORIENTED_EDGE('',*,*,#532,.T.);
#731=ORIENTED_EDGE('',*,*,#533,.T.);
#732=ORIENTED_EDGE('',*,*,#532,.F.);
#733=ORIENTED_EDGE('',*,*,#534,.F.);
#734=ORIENTED_EDGE('',*,*,#535,.T.);
#735=ORIENTED_EDGE('',*,*,#536,.T.);
#736=ORIENTED_EDGE('',*,*,#535,.F.);
#737=ORIENTED_EDGE('',*,*,#537,.F.);
#738=ORIENTED_EDGE('',*,*,#538,.T.);
#739=ORIENTED_EDGE('',*,*,#539,.T.);
#740=ORIENTED_EDGE('',*,*,#538,.F.);
#741=ORIENTED_EDGE('',*,*,#540,.F.);
#742=ORIENTED_EDGE('',*,*,#541,.T.);
#743=ORIENTED_EDGE('',*,*,#542,.T.);
#744=ORIENTED_EDGE('',*,*,#541,.F.);
#745=ORIENTED_EDGE('',*,*,#543,.F.);
#746=ORIENTED_EDGE('',*,*,#544,.T.);
#747=ORIENTED_EDGE('',*,*,#545,.T.);
#748=ORIENTED_EDGE('',*,*,#544,.F.);
#749=ORIENTED_EDGE('',*,*,#546,.F.);
#750=ORIENTED_EDGE('',*,*,#547,.T.);
#751=ORIENTED_EDGE('',*,*,#548,.T.);
#752=ORIENTED_EDGE('',*,*,#547,.F.);
#753=ORIENTED_EDGE('',*,*,#549,.F.);
#754=ORIENTED_EDGE('',*,*,#550,.T.);
#755=ORIENTED_EDGE('',*,*,#551,.T.);
#756=ORIENTED_EDGE('',*,*,#550,.F.);
#757=ORIENTED_EDGE('',*,*,#552,.F.);
#758=ORIENTED_EDGE('',*,*,#553,.T.);
#759=ORIENTED_EDGE('',*,*,#554,.T.);
#760=ORIENTED_EDGE('',*,*,#553,.F.);
#761=ORIENTED_EDGE('',*,*,#437,.F.);
#762=ORIENTED_EDGE('',*,*,#451,.T.);
#763=ORIENTED_EDGE('',*,*,#515,.F.);
#764=ORIENTED_EDGE('',*,*,#504,.F.);
#765=ORIENTED_EDGE('',*,*,#518,.F.);
#766=ORIENTED_EDGE('',*,*,#555,.F.);
#767=ORIENTED_EDGE('',*,*,#516,.F.);
#768=ORIENTED_EDGE('',*,*,#485,.T.);
#769=ORIENTED_EDGE('',*,*,#530,.F.);
#770=ORIENTED_EDGE('',*,*,#467,.F.);
#771=ORIENTED_EDGE('',*,*,#465,.F.);
#772=ORIENTED_EDGE('',*,*,#556,.F.);
#773=ORIENTED_EDGE('',*,*,#517,.F.);
#774=ORIENTED_EDGE('',*,*,#555,.T.);
#775=ORIENTED_EDGE('',*,*,#519,.F.);
#776=ORIENTED_EDGE('',*,*,#460,.T.);
#777=ORIENTED_EDGE('',*,*,#552,.T.);
#778=ORIENTED_EDGE('',*,*,#549,.T.);
#779=ORIENTED_EDGE('',*,*,#546,.T.);
#780=ORIENTED_EDGE('',*,*,#543,.T.);
#781=ORIENTED_EDGE('',*,*,#540,.T.);
#782=ORIENTED_EDGE('',*,*,#537,.T.);
#783=ORIENTED_EDGE('',*,*,#534,.T.);
#784=ORIENTED_EDGE('',*,*,#531,.T.);
#785=ORIENTED_EDGE('',*,*,#438,.F.);
#786=ORIENTED_EDGE('',*,*,#556,.T.);
#787=ORIENTED_EDGE('',*,*,#464,.F.);
#788=ORIENTED_EDGE('',*,*,#454,.T.);
#789=ORIENTED_EDGE('',*,*,#554,.F.);
#790=ORIENTED_EDGE('',*,*,#551,.F.);
#791=ORIENTED_EDGE('',*,*,#548,.F.);
#792=ORIENTED_EDGE('',*,*,#545,.F.);
#793=ORIENTED_EDGE('',*,*,#542,.F.);
#794=ORIENTED_EDGE('',*,*,#539,.F.);
#795=ORIENTED_EDGE('',*,*,#536,.F.);
#796=ORIENTED_EDGE('',*,*,#533,.F.);
#797=CYLINDRICAL_SURFACE('',#877,1.);
#798=CYLINDRICAL_SURFACE('',#891,1.);
#799=CYLINDRICAL_SURFACE('',#900,1.);
#800=CYLINDRICAL_SURFACE('',#909,1.);
#801=CYLINDRICAL_SURFACE('',#911,1.);
#802=CYLINDRICAL_SURFACE('',#920,1.);
#803=CYLINDRICAL_SURFACE('',#922,2.);
#804=CYLINDRICAL_SURFACE('',#924,2.);
#805=CYLINDRICAL_SURFACE('',#926,2.);
#806=CYLINDRICAL_SURFACE('',#927,2.);
#807=CYLINDRICAL_SURFACE('',#929,2.);
#808=CYLINDRICAL_SURFACE('',#930,2.);
#809=CYLINDRICAL_SURFACE('',#933,0.95);
#810=CYLINDRICAL_SURFACE('',#934,0.950000000000002);
#811=CYLINDRICAL_SURFACE('',#936,0.949999999999998);
#812=CYLINDRICAL_SURFACE('',#937,0.95);
#813=CYLINDRICAL_SURFACE('',#940,1.75);
#814=CYLINDRICAL_SURFACE('',#943,1.75);
#815=CYLINDRICAL_SURFACE('',#946,1.75);
#816=CYLINDRICAL_SURFACE('',#949,1.75);
#817=CYLINDRICAL_SURFACE('',#952,1.75);
#818=CYLINDRICAL_SURFACE('',#955,1.75);
#819=CYLINDRICAL_SURFACE('',#958,1.75);
#820=CYLINDRICAL_SURFACE('',#961,1.75);
#821=ADVANCED_FACE('',(#57),#797,.T.);
#822=ADVANCED_FACE('',(#58,#15,#16),#39,.T.);
#823=ADVANCED_FACE('',(#59),#40,.T.);
#824=ADVANCED_FACE('',(#60),#798,.T.);
#825=ADVANCED_FACE('',(#61,#17,#18),#41,.T.);
#826=ADVANCED_FACE('',(#62),#799,.T.);
#827=ADVANCED_FACE('',(#63),#42,.F.);
#828=ADVANCED_FACE('',(#64,#19,#20),#43,.T.);
#829=ADVANCED_FACE('',(#65),#800,.T.);
#830=ADVANCED_FACE('',(#66),#44,.T.);
#831=ADVANCED_FACE('',(#67),#801,.T.);
#832=ADVANCED_FACE('',(#68),#45,.F.);
#833=ADVANCED_FACE('',(#69,#21,#22),#46,.T.);
#834=ADVANCED_FACE('',(#70),#802,.T.);
#835=ADVANCED_FACE('',(#71),#47,.T.);
#836=ADVANCED_FACE('',(#72),#803,.F.);
#837=ADVANCED_FACE('',(#73),#804,.F.);
#838=ADVANCED_FACE('',(#74),#805,.F.);
#839=ADVANCED_FACE('',(#75),#806,.F.);
#840=ADVANCED_FACE('',(#76),#48,.F.);
#841=ADVANCED_FACE('',(#77),#807,.F.);
#842=ADVANCED_FACE('',(#78),#808,.F.);
#843=ADVANCED_FACE('',(#79),#49,.F.);
#844=ADVANCED_FACE('',(#80),#50,.F.);
#845=ADVANCED_FACE('',(#81),#809,.F.);
#846=ADVANCED_FACE('',(#82),#810,.F.);
#847=ADVANCED_FACE('',(#83),#51,.F.);
#848=ADVANCED_FACE('',(#84),#811,.F.);
#849=ADVANCED_FACE('',(#85),#812,.F.);
#850=ADVANCED_FACE('',(#86),#52,.T.);
#851=ADVANCED_FACE('',(#87),#53,.T.);
#852=ADVANCED_FACE('',(#88),#813,.F.);
#853=ADVANCED_FACE('',(#89),#814,.F.);
#854=ADVANCED_FACE('',(#90),#815,.F.);
#855=ADVANCED_FACE('',(#91),#816,.F.);
#856=ADVANCED_FACE('',(#92),#817,.F.);
#857=ADVANCED_FACE('',(#93),#818,.F.);
#858=ADVANCED_FACE('',(#94),#819,.F.);
#859=ADVANCED_FACE('',(#95),#820,.F.);
#860=ADVANCED_FACE('',(#96),#54,.T.);
#861=ADVANCED_FACE('',(#97,#23,#24,#25,#26,#27,#28,#29,#30),#55,.T.);
#862=ADVANCED_FACE('',(#98,#31,#32,#33,#34,#35,#36,#37,#38),#56,.F.);
#863=CLOSED_SHELL('',(#821,#822,#823,#824,#825,#826,#827,#828,#829,#830,
#831,#832,#833,#834,#835,#836,#837,#838,#839,#840,#841,#842,#843,#844,#845,
#846,#847,#848,#849,#850,#851,#852,#853,#854,#855,#856,#857,#858,#859,#860,
#861,#862));
#864=DERIVED_UNIT_ELEMENT(#866,1.);
#865=DERIVED_UNIT_ELEMENT(#1469,-3.);
#866=(
MASS_UNIT()
NAMED_UNIT(*)
SI_UNIT(.KILO.,.GRAM.)
);
#867=DERIVED_UNIT((#864,#865));
#868=MEASURE_REPRESENTATION_ITEM('density measure',
POSITIVE_RATIO_MEASURE(7850.),#867);
#869=PROPERTY_DEFINITION_REPRESENTATION(#874,#871);
#870=PROPERTY_DEFINITION_REPRESENTATION(#875,#872);
#871=REPRESENTATION('material name',(#873),#1466);
#872=REPRESENTATION('density',(#868),#1466);
#873=DESCRIPTIVE_REPRESENTATION_ITEM('Steel','Steel');
#874=PROPERTY_DEFINITION('material property','material name',#1476);
#875=PROPERTY_DEFINITION('material property','density of part',#1476);
#876=AXIS2_PLACEMENT_3D('',#1221,#967,#968);
#877=AXIS2_PLACEMENT_3D('',#1222,#969,#970);
#878=AXIS2_PLACEMENT_3D('',#1225,#971,#972);
#879=AXIS2_PLACEMENT_3D('',#1229,#974,#975);
#880=AXIS2_PLACEMENT_3D('',#1231,#977,#978);
#881=AXIS2_PLACEMENT_3D('',#1237,#981,#982);
#882=AXIS2_PLACEMENT_3D('',#1241,#984,#985);
#883=AXIS2_PLACEMENT_3D('',#1245,#987,#988);
#884=AXIS2_PLACEMENT_3D('',#1249,#990,#991);
#885=AXIS2_PLACEMENT_3D('',#1254,#994,#995);
#886=AXIS2_PLACEMENT_3D('',#1256,#996,#997);
#887=AXIS2_PLACEMENT_3D('',#1257,#998,#999);
#888=AXIS2_PLACEMENT_3D('',#1261,#1001,#1002);
#889=AXIS2_PLACEMENT_3D('',#1269,#1006,#1007);
#890=AXIS2_PLACEMENT_3D('',#1273,#1009,#1010);
#891=AXIS2_PLACEMENT_3D('',#1277,#1013,#1014);
#892=AXIS2_PLACEMENT_3D('',#1281,#1016,#1017);
#893=AXIS2_PLACEMENT_3D('',#1283,#1019,#1020);
#894=AXIS2_PLACEMENT_3D('',#1289,#1023,#1024);
#895=AXIS2_PLACEMENT_3D('',#1293,#1026,#1027);
#896=AXIS2_PLACEMENT_3D('',#1297,#1029,#1030);
#897=AXIS2_PLACEMENT_3D('',#1301,#1032,#1033);
#898=AXIS2_PLACEMENT_3D('',#1304,#1035,#1036);
#899=AXIS2_PLACEMENT_3D('',#1306,#1037,#1038);
#900=AXIS2_PLACEMENT_3D('',#1307,#1039,#1040);
#901=AXIS2_PLACEMENT_3D('',#1311,#1042,#1043);
#902=AXIS2_PLACEMENT_3D('',#1313,#1045,#1046);
#903=AXIS2_PLACEMENT_3D('',#1317,#1049,#1050);
#904=AXIS2_PLACEMENT_3D('',#1326,#1055,#1056);
#905=AXIS2_PLACEMENT_3D('',#1330,#1058,#1059);
#906=AXIS2_PLACEMENT_3D('',#1333,#1061,#1062);
#907=AXIS2_PLACEMENT_3D('',#1335,#1063,#1064);
#908=AXIS2_PLACEMENT_3D('',#1337,#1065,#1066);
#909=AXIS2_PLACEMENT_3D('',#1338,#1067,#1068);
#910=AXIS2_PLACEMENT_3D('',#1341,#1071,#1072);
#911=AXIS2_PLACEMENT_3D('',#1342,#1073,#1074);
#912=AXIS2_PLACEMENT_3D('',#1346,#1076,#1077);
#913=AXIS2_PLACEMENT_3D('',#1348,#1079,#1080);
#914=AXIS2_PLACEMENT_3D('',#1352,#1083,#1084);
#915=AXIS2_PLACEMENT_3D('',#1361,#1089,#1090);
#916=AXIS2_PLACEMENT_3D('',#1365,#1092,#1093);
#917=AXIS2_PLACEMENT_3D('',#1368,#1095,#1096);
#918=AXIS2_PLACEMENT_3D('',#1370,#1097,#1098);
#919=AXIS2_PLACEMENT_3D('',#1372,#1099,#1100);
#920=AXIS2_PLACEMENT_3D('',#1373,#1101,#1102);
#921=AXIS2_PLACEMENT_3D('',#1376,#1105,#1106);
#922=AXIS2_PLACEMENT_3D('',#1378,#1108,#1109);
#923=AXIS2_PLACEMENT_3D('',#1380,#1110,#1111);
#924=AXIS2_PLACEMENT_3D('',#1382,#1113,#1114);
#925=AXIS2_PLACEMENT_3D('',#1384,#1115,#1116);
#926=AXIS2_PLACEMENT_3D('',#1386,#1118,#1119);
#927=AXIS2_PLACEMENT_3D('',#1388,#1121,#1122);
#928=AXIS2_PLACEMENT_3D('',#1391,#1125,#1126);
#929=AXIS2_PLACEMENT_3D('',#1393,#1128,#1129);
#930=AXIS2_PLACEMENT_3D('',#1394,#1130,#1131);
#931=AXIS2_PLACEMENT_3D('',#1397,#1134,#1135);
#932=AXIS2_PLACEMENT_3D('',#1398,#1136,#1137);
#933=AXIS2_PLACEMENT_3D('',#1399,#1138,#1139);
#934=AXIS2_PLACEMENT_3D('',#1401,#1141,#1142);
#935=AXIS2_PLACEMENT_3D('',#1403,#1144,#1145);
#936=AXIS2_PLACEMENT_3D('',#1404,#1146,#1147);
#937=AXIS2_PLACEMENT_3D('',#1406,#1149,#1150);
#938=AXIS2_PLACEMENT_3D('',#1408,#1152,#1153);
#939=AXIS2_PLACEMENT_3D('',#1409,#1154,#1155);
#940=AXIS2_PLACEMENT_3D('',#1411,#1157,#1158);
#941=AXIS2_PLACEMENT_3D('',#1413,#1159,#1160);
#942=AXIS2_PLACEMENT_3D('',#1416,#1162,#1163);
#943=AXIS2_PLACEMENT_3D('',#1417,#1164,#1165);
#944=AXIS2_PLACEMENT_3D('',#1419,#1166,#1167);
#945=AXIS2_PLACEMENT_3D('',#1422,#1169,#1170);
#946=AXIS2_PLACEMENT_3D('',#1423,#1171,#1172);
#947=AXIS2_PLACEMENT_3D('',#1425,#1173,#1174);
#948=AXIS2_PLACEMENT_3D('',#1428,#1176,#1177);
#949=AXIS2_PLACEMENT_3D('',#1429,#1178,#1179);
#950=AXIS2_PLACEMENT_3D('',#1431,#1180,#1181);
#951=AXIS2_PLACEMENT_3D('',#1434,#1183,#1184);
#952=AXIS2_PLACEMENT_3D('',#1435,#1185,#1186);
#953=AXIS2_PLACEMENT_3D('',#1437,#1187,#1188);
#954=AXIS2_PLACEMENT_3D('',#1440,#1190,#1191);
#955=AXIS2_PLACEMENT_3D('',#1441,#1192,#1193);
#956=AXIS2_PLACEMENT_3D('',#1443,#1194,#1195);
#957=AXIS2_PLACEMENT_3D('',#1446,#1197,#1198);
#958=AXIS2_PLACEMENT_3D('',#1447,#1199,#1200);
#959=AXIS2_PLACEMENT_3D('',#1449,#1201,#1202);
#960=AXIS2_PLACEMENT_3D('',#1452,#1204,#1205);
#961=AXIS2_PLACEMENT_3D('',#1453,#1206,#1207);
#962=AXIS2_PLACEMENT_3D('',#1455,#1208,#1209);
#963=AXIS2_PLACEMENT_3D('',#1458,#1211,#1212);
#964=AXIS2_PLACEMENT_3D('',#1459,#1213,#1214);
#965=AXIS2_PLACEMENT_3D('',#1462,#1217,#1218);
#966=AXIS2_PLACEMENT_3D('',#1463,#1219,#1220);
#967=DIRECTION('axis',(0.,0.,1.));
#968=DIRECTION('refdir',(1.,0.,0.));
#969=DIRECTION('center_axis',(-1.,0.,0.));
#970=DIRECTION('ref_axis',(0.,-0.707106781186546,-0.707106781186549));
#971=DIRECTION('center_axis',(1.,-1.44573829605476E-33,0.));
#972=DIRECTION('ref_axis',(0.,-0.707106781186546,-0.707106781186549));
#973=DIRECTION('',(1.,0.,0.));
#974=DIRECTION('center_axis',(-1.,0.,0.));
#975=DIRECTION('ref_axis',(0.,-0.707106781186546,-0.707106781186549));
#976=DIRECTION('',(-1.,0.,0.));
#977=DIRECTION('center_axis',(0.,-1.,0.));
#978=DIRECTION('ref_axis',(1.,0.,0.));
#979=DIRECTION('',(0.,0.,1.));
#980=DIRECTION('',(1.,0.,0.));
#981=DIRECTION('center_axis',(0.,1.,0.));
#982=DIRECTION('ref_axis',(-0.707106781186544,0.,0.707106781186551));
#983=DIRECTION('',(0.,0.,-1.));
#984=DIRECTION('center_axis',(0.,-1.,0.));
#985=DIRECTION('ref_axis',(0.707106781186547,0.,-0.707106781186548));
#986=DIRECTION('',(-1.,0.,0.));
#987=DIRECTION('center_axis',(0.,-1.,0.));
#988=DIRECTION('ref_axis',(-0.707106781186547,0.,-0.707106781186548));
#989=DIRECTION('',(0.,0.,1.));
#990=DIRECTION('center_axis',(0.,1.,0.));
#991=DIRECTION('ref_axis',(0.707106781186547,0.,0.707106781186548));
#992=DIRECTION('',(1.,0.,0.));
#993=DIRECTION('',(0.,0.,1.));
#994=DIRECTION('center_axis',(0.,1.,0.));
#995=DIRECTION('ref_axis',(1.,0.,0.));
#996=DIRECTION('center_axis',(0.,1.,0.));
#997=DIRECTION('ref_axis',(1.,0.,0.));
#998=DIRECTION('center_axis',(1.,0.,0.));
#999=DIRECTION('ref_axis',(0.,1.,0.));
#1000=DIRECTION('',(0.,-1.,0.));
#1001=DIRECTION('center_axis',(-1.,0.,0.));
#1002=DIRECTION('ref_axis',(0.,0.707106781186547,-0.707106781186548));
#1003=DIRECTION('',(0.,0.,1.));
#1004=DIRECTION('',(0.,1.,0.));
#1005=DIRECTION('',(0.,0.,1.));
#1006=DIRECTION('center_axis',(1.,0.,0.));
#1007=DIRECTION('ref_axis',(0.,0.707106781186548,-0.707106781186548));
#1008=DIRECTION('',(0.,1.,0.));
#1009=DIRECTION('center_axis',(1.,0.,0.));
#1010=DIRECTION('ref_axis',(0.,-0.707106781186548,-0.707106781186547));
#1011=DIRECTION('',(0.,0.,1.));
#1012=DIRECTION('',(0.,1.,0.));
#1013=DIRECTION('center_axis',(1.,0.,0.));
#1014=DIRECTION('ref_axis',(0.,0.707106781186547,-0.707106781186548));
#1015=DIRECTION('',(-1.,0.,0.));
#1016=DIRECTION('center_axis',(1.,-1.44573829605476E-33,0.));
#1017=DIRECTION('ref_axis',(0.,0.707106781186547,-0.707106781186548));
#1018=DIRECTION('',(1.,0.,0.));
#1019=DIRECTION('center_axis',(0.,1.,0.));
#1020=DIRECTION('ref_axis',(-1.,0.,0.));
#1021=DIRECTION('',(0.,0.,1.));
#1022=DIRECTION('',(-1.,0.,0.));
#1023=DIRECTION('center_axis',(0.,-1.,0.));
#1024=DIRECTION('ref_axis',(0.707106781186548,0.,0.707106781186548));
#1025=DIRECTION('',(0.,0.,-1.));
#1026=DIRECTION('center_axis',(0.,1.,0.));
#1027=DIRECTION('ref_axis',(-0.707106781186548,0.,-0.707106781186547));
#1028=DIRECTION('',(1.,0.,0.));
#1029=DIRECTION('center_axis',(0.,1.,0.));
#1030=DIRECTION('ref_axis',(0.707106781186547,0.,-0.707106781186548));
#1031=DIRECTION('',(0.,0.,1.));
#1032=DIRECTION('center_axis',(0.,-1.,0.));
#1033=DIRECTION('ref_axis',(-0.707106781186549,0.,0.707106781186546));
#1034=DIRECTION('',(-1.,0.,0.));
#1035=DIRECTION('center_axis',(0.,-1.,0.));
#1036=DIRECTION('ref_axis',(-1.,0.,0.));
#1037=DIRECTION('center_axis',(0.,-1.,0.));
#1038=DIRECTION('ref_axis',(-1.,0.,0.));
#1039=DIRECTION('center_axis',(0.,1.,0.));
#1040=DIRECTION('ref_axis',(0.707106781186548,0.,0.707106781186548));
#1041=DIRECTION('',(0.,-1.,0.));
#1042=DIRECTION('center_axis',(0.,1.,0.));
#1043=DIRECTION('ref_axis',(0.707106781186548,0.,0.707106781186548));
#1044=DIRECTION('',(0.,1.,0.));
#1045=DIRECTION('center_axis',(-1.,0.,0.));
#1046=DIRECTION('ref_axis',(0.,0.,-1.));
#1047=DIRECTION('',(0.,0.,1.));
#1048=DIRECTION('',(0.,-1.,0.));
#1049=DIRECTION('center_axis',(0.,-1.,0.));
#1050=DIRECTION('ref_axis',(1.,0.,0.));
#1051=DIRECTION('',(1.,0.,0.));
#1052=DIRECTION('',(0.,0.,1.));
#1053=DIRECTION('',(-1.,0.,0.));
#1054=DIRECTION('',(1.,0.,0.));
#1055=DIRECTION('center_axis',(0.,1.,0.));
#1056=DIRECTION('ref_axis',(-0.707106781186549,0.,0.707106781186546));
#1057=DIRECTION('',(0.,0.,-1.));
#1058=DIRECTION('center_axis',(0.,-1.,0.));
#1059=DIRECTION('ref_axis',(0.707106781186547,0.,-0.707106781186548));
#1060=DIRECTION('',(-1.,0.,0.));
#1061=DIRECTION('center_axis',(0.,-1.,0.));
#1062=DIRECTION('ref_axis',(-0.707106781186548,0.,-0.707106781186547));
#1063=DIRECTION('center_axis',(0.,1.,0.));
#1064=DIRECTION('ref_axis',(-1.,0.,0.));
#1065=DIRECTION('center_axis',(0.,1.,0.));
#1066=DIRECTION('ref_axis',(-1.,0.,0.));
#1067=DIRECTION('center_axis',(0.,-1.,0.));
#1068=DIRECTION('ref_axis',(-0.707106781186549,0.,0.707106781186546));
#1069=DIRECTION('',(0.,1.,0.));
#1070=DIRECTION('',(0.,-1.,0.));
#1071=DIRECTION('center_axis',(0.,0.,1.));
#1072=DIRECTION('ref_axis',(1.,0.,0.));
#1073=DIRECTION('center_axis',(0.,-1.,0.));
#1074=DIRECTION('ref_axis',(-0.707106781186544,0.,0.707106781186551));
#1075=DIRECTION('',(0.,1.,0.));
#1076=DIRECTION('center_axis',(0.,-1.,0.));
#1077=DIRECTION('ref_axis',(-0.707106781186544,0.,0.707106781186551));
#1078=DIRECTION('',(0.,-1.,0.));
#1079=DIRECTION('center_axis',(1.,0.,0.));
#1080=DIRECTION('ref_axis',(0.,0.,-1.));
#1081=DIRECTION('',(0.,0.,1.));
#1082=DIRECTION('',(0.,1.,0.));
#1083=DIRECTION('center_axis',(0.,1.,0.));
#1084=DIRECTION('ref_axis',(-1.,0.,0.));
#1085=DIRECTION('',(-1.,0.,0.));
#1086=DIRECTION('',(1.,0.,0.));
#1087=DIRECTION('',(0.,0.,1.));
#1088=DIRECTION('',(-1.,0.,0.));
#1089=DIRECTION('center_axis',(0.,-1.,0.));
#1090=DIRECTION('ref_axis',(0.707106781186547,0.,0.707106781186548));
#1091=DIRECTION('',(0.,0.,-1.));
#1092=DIRECTION('center_axis',(0.,1.,0.));
#1093=DIRECTION('ref_axis',(-0.707106781186547,0.,-0.707106781186548));
#1094=DIRECTION('',(1.,0.,0.));
#1095=DIRECTION('center_axis',(0.,1.,0.));
#1096=DIRECTION('ref_axis',(0.707106781186547,0.,-0.707106781186548));
#1097=DIRECTION('center_axis',(0.,-1.,0.));
#1098=DIRECTION('ref_axis',(1.,0.,0.));
#1099=DIRECTION('center_axis',(0.,-1.,0.));
#1100=DIRECTION('ref_axis',(1.,0.,0.));
#1101=DIRECTION('center_axis',(0.,1.,0.));
#1102=DIRECTION('ref_axis',(0.707106781186547,0.,0.707106781186548));
#1103=DIRECTION('',(0.,-1.,0.));
#1104=DIRECTION('',(0.,1.,0.));
#1105=DIRECTION('center_axis',(0.,0.,1.));
#1106=DIRECTION('ref_axis',(1.,0.,0.));
#1107=DIRECTION('',(-1.44573829605476E-33,-1.,0.));
#1108=DIRECTION('center_axis',(-1.,0.,0.));
#1109=DIRECTION('ref_axis',(0.,0.707106781186548,-0.707106781186548));
#1110=DIRECTION('center_axis',(-1.,1.44573829605476E-33,0.));
#1111=DIRECTION('ref_axis',(0.,0.707106781186548,-0.707106781186548));
#1112=DIRECTION('',(1.,0.,0.));
#1113=DIRECTION('center_axis',(1.,0.,0.));
#1114=DIRECTION('ref_axis',(0.,-0.707106781186548,-0.707106781186547));
#1115=DIRECTION('center_axis',(-1.,1.44573829605476E-33,0.));
#1116=DIRECTION('ref_axis',(0.,-0.707106781186548,-0.707106781186547));
#1117=DIRECTION('',(-1.,0.,0.));
#1118=DIRECTION('center_axis',(0.,-1.,0.));
#1119=DIRECTION('ref_axis',(-0.707106781186548,0.,-0.707106781186547));
#1120=DIRECTION('',(0.,1.,0.));
#1121=DIRECTION('center_axis',(0.,1.,0.));
#1122=DIRECTION('ref_axis',(-0.707106781186547,0.,-0.707106781186548));
#1123=DIRECTION('',(0.,1.,0.));
#1124=DIRECTION('',(0.,-1.,0.));
#1125=DIRECTION('center_axis',(0.,0.,-1.));
#1126=DIRECTION('ref_axis',(-1.,0.,0.));
#1127=DIRECTION('',(0.,-1.,0.));
#1128=DIRECTION('center_axis',(0.,1.,0.));
#1129=DIRECTION('ref_axis',(0.707106781186547,0.,-0.707106781186548));
#1130=DIRECTION('center_axis',(0.,-1.,0.));
#1131=DIRECTION('ref_axis',(0.707106781186547,0.,-0.707106781186548));
#1132=DIRECTION('',(0.,-1.,0.));
#1133=DIRECTION('',(0.,1.,0.));
#1134=DIRECTION('center_axis',(0.,0.,-1.));
#1135=DIRECTION('ref_axis',(1.,0.,0.));
#1136=DIRECTION('center_axis',(1.,0.,0.));
#1137=DIRECTION('ref_axis',(0.,0.,1.));
#1138=DIRECTION('center_axis',(0.,-1.,0.));
#1139=DIRECTION('ref_axis',(-1.,0.,0.));
#1140=DIRECTION('',(0.,-1.,0.));
#1141=DIRECTION('center_axis',(0.,-1.,0.));
#1142=DIRECTION('ref_axis',(-1.,0.,0.));
#1143=DIRECTION('',(0.,-1.,0.));
#1144=DIRECTION('center_axis',(-1.,0.,0.));
#1145=DIRECTION('ref_axis',(0.,0.,1.));
#1146=DIRECTION('center_axis',(0.,1.,0.));
#1147=DIRECTION('ref_axis',(1.,0.,0.));
#1148=DIRECTION('',(0.,1.,0.));
#1149=DIRECTION('center_axis',(0.,1.,0.));
#1150=DIRECTION('ref_axis',(1.,0.,0.));
#1151=DIRECTION('',(0.,1.,0.));
#1152=DIRECTION('center_axis',(0.,0.,1.));
#1153=DIRECTION('ref_axis',(1.,0.,0.));
#1154=DIRECTION('center_axis',(0.,0.,1.));
#1155=DIRECTION('ref_axis',(1.,0.,0.));
#1156=DIRECTION('',(-1.44573829605476E-33,-1.,0.));
#1157=DIRECTION('center_axis',(0.,0.,1.));
#1158=DIRECTION('ref_axis',(1.,0.,0.));
#1159=DIRECTION('center_axis',(0.,0.,-1.));
#1160=DIRECTION('ref_axis',(1.,0.,0.));
#1161=DIRECTION('',(0.,0.,-1.));
#1162=DIRECTION('center_axis',(0.,0.,-1.));
#1163=DIRECTION('ref_axis',(1.,0.,0.));
#1164=DIRECTION('center_axis',(0.,0.,1.));
#1165=DIRECTION('ref_axis',(1.,0.,0.));
#1166=DIRECTION('center_axis',(0.,0.,-1.));
#1167=DIRECTION('ref_axis',(1.,0.,0.));
#1168=DIRECTION('',(0.,0.,-1.));
#1169=DIRECTION('center_axis',(0.,0.,-1.));
#1170=DIRECTION('ref_axis',(1.,0.,0.));
#1171=DIRECTION('center_axis',(0.,0.,1.));
#1172=DIRECTION('ref_axis',(1.,0.,0.));
#1173=DIRECTION('center_axis',(0.,0.,-1.));
#1174=DIRECTION('ref_axis',(1.,0.,0.));
#1175=DIRECTION('',(0.,0.,-1.));
#1176=DIRECTION('center_axis',(0.,0.,-1.));
#1177=DIRECTION('ref_axis',(1.,0.,0.));
#1178=DIRECTION('center_axis',(0.,0.,1.));
#1179=DIRECTION('ref_axis',(1.,0.,0.));
#1180=DIRECTION('center_axis',(0.,0.,-1.));
#1181=DIRECTION('ref_axis',(1.,0.,0.));
#1182=DIRECTION('',(0.,0.,-1.));
#1183=DIRECTION('center_axis',(0.,0.,-1.));
#1184=DIRECTION('ref_axis',(1.,0.,0.));
#1185=DIRECTION('center_axis',(0.,0.,1.));
#1186=DIRECTION('ref_axis',(1.,0.,0.));
#1187=DIRECTION('center_axis',(0.,0.,-1.));
#1188=DIRECTION('ref_axis',(1.,0.,0.));
#1189=DIRECTION('',(0.,0.,-1.));
#1190=DIRECTION('center_axis',(0.,0.,-1.));
#1191=DIRECTION('ref_axis',(1.,0.,0.));
#1192=DIRECTION('center_axis',(0.,0.,1.));
#1193=DIRECTION('ref_axis',(1.,0.,0.));
#1194=DIRECTION('center_axis',(0.,0.,-1.));
#1195=DIRECTION('ref_axis',(1.,0.,0.));
#1196=DIRECTION('',(0.,0.,-1.));
#1197=DIRECTION('center_axis',(0.,0.,-1.));
#1198=DIRECTION('ref_axis',(1.,0.,0.));
#1199=DIRECTION('center_axis',(0.,0.,1.));
#1200=DIRECTION('ref_axis',(1.,0.,0.));
#1201=DIRECTION('center_axis',(0.,0.,-1.));
#1202=DIRECTION('ref_axis',(1.,0.,0.));
#1203=DIRECTION('',(0.,0.,-1.));
#1204=DIRECTION('center_axis',(0.,0.,-1.));
#1205=DIRECTION('ref_axis',(1.,0.,0.));
#1206=DIRECTION('center_axis',(0.,0.,1.));
#1207=DIRECTION('ref_axis',(1.,0.,0.));
#1208=DIRECTION('center_axis',(0.,0.,-1.));
#1209=DIRECTION('ref_axis',(1.,0.,0.));
#1210=DIRECTION('',(0.,0.,-1.));
#1211=DIRECTION('center_axis',(0.,0.,-1.));
#1212=DIRECTION('ref_axis',(1.,0.,0.));
#1213=DIRECTION('center_axis',(-1.,1.44573829605476E-33,0.));
#1214=DIRECTION('ref_axis',(-1.44573829605476E-33,-1.,0.));
#1215=DIRECTION('',(-1.44573829605476E-33,-1.,0.));
#1216=DIRECTION('',(1.44573829605476E-33,1.,0.));
#1217=DIRECTION('center_axis',(0.,0.,1.));
#1218=DIRECTION('ref_axis',(1.,0.,0.));
#1219=DIRECTION('center_axis',(0.,0.,1.));
#1220=DIRECTION('ref_axis',(1.,0.,0.));
#1221=CARTESIAN_POINT('',(0.,0.,0.));
#1222=CARTESIAN_POINT('Origin',(6.305,-36.3,1.));
#1223=CARTESIAN_POINT('',(-5.39260384428426E-32,-37.3,1.));
#1224=CARTESIAN_POINT('',(-5.24803001467878E-32,-36.3,0.));
#1225=CARTESIAN_POINT('Origin',(0.,-36.3,1.));
#1226=CARTESIAN_POINT('',(25.22,-36.3,0.));
#1227=CARTESIAN_POINT('',(6.305,-36.3,0.));
#1228=CARTESIAN_POINT('',(25.22,-37.3,1.));
#1229=CARTESIAN_POINT('Origin',(25.22,-36.3,1.));
#1230=CARTESIAN_POINT('',(6.305,-37.3,1.));
#1231=CARTESIAN_POINT('Origin',(0.,-37.3,0.));
#1232=CARTESIAN_POINT('',(25.22,-37.3,11.2));
#1233=CARTESIAN_POINT('',(25.22,-37.3,0.));
#1234=CARTESIAN_POINT('',(20.61,-37.3,11.2));
#1235=CARTESIAN_POINT('',(25.22,-37.3,11.2));
#1236=CARTESIAN_POINT('',(19.61,-37.3,10.2));
#1237=CARTESIAN_POINT('Origin',(20.61,-37.3,10.2));
#1238=CARTESIAN_POINT('',(19.61,-37.3,8.2));
#1239=CARTESIAN_POINT('',(19.61,-37.3,5.6));
#1240=CARTESIAN_POINT('',(17.61,-37.3,6.2));
#1241=CARTESIAN_POINT('Origin',(17.61,-37.3,8.2));
#1242=CARTESIAN_POINT('',(7.61,-37.3,6.2));
#1243=CARTESIAN_POINT('',(9.805,-37.3,6.2));
#1244=CARTESIAN_POINT('',(5.61,-37.3,8.2));
#1245=CARTESIAN_POINT('Origin',(7.61,-37.3,8.2));
#1246=CARTESIAN_POINT('',(5.61,-37.3,10.2));
#1247=CARTESIAN_POINT('',(5.61,-37.3,3.1));
#1248=CARTESIAN_POINT('',(4.61,-37.3,11.2));
#1249=CARTESIAN_POINT('Origin',(4.61,-37.3,10.2));
#1250=CARTESIAN_POINT('',(-5.39260384428426E-32,-37.3,11.2));
#1251=CARTESIAN_POINT('',(25.22,-37.3,11.2));
#1252=CARTESIAN_POINT('',(-5.39260384428426E-32,-37.3,0.));
#1253=CARTESIAN_POINT('',(1.2,-37.3,9.5));
#1254=CARTESIAN_POINT('Origin',(2.15,-37.3,9.5));
#1255=CARTESIAN_POINT('',(22.12,-37.3,9.5));
#1256=CARTESIAN_POINT('Origin',(23.07,-37.3,9.5));
#1257=CARTESIAN_POINT('Origin',(25.22,-34.8,0.));
#1258=CARTESIAN_POINT('',(25.22,-1.,0.));
#1259=CARTESIAN_POINT('',(25.22,0.,0.));
#1260=CARTESIAN_POINT('',(25.22,0.,1.));
#1261=CARTESIAN_POINT('Origin',(25.22,-1.,1.));
#1262=CARTESIAN_POINT('',(25.22,0.,16.));
#1263=CARTESIAN_POINT('',(25.22,0.,0.));
#1264=CARTESIAN_POINT('',(25.22,-2.5,16.));
#1265=CARTESIAN_POINT('',(25.22,0.,16.));
#1266=CARTESIAN_POINT('',(25.22,-2.5,4.));
#1267=CARTESIAN_POINT('',(25.22,-2.5,0.));
#1268=CARTESIAN_POINT('',(25.22,-4.5,2.));
#1269=CARTESIAN_POINT('Origin',(25.22,-4.5,4.));
#1270=CARTESIAN_POINT('',(25.22,-32.8,2.));
#1271=CARTESIAN_POINT('',(25.22,0.,2.));
#1272=CARTESIAN_POINT('',(25.22,-34.8,4.));
#1273=CARTESIAN_POINT('Origin',(25.22,-32.8,4.));
#1274=CARTESIAN_POINT('',(25.22,-34.8,11.2));
#1275=CARTESIAN_POINT('',(25.22,-34.8,0.));
#1276=CARTESIAN_POINT('',(25.22,0.,11.2));
#1277=CARTESIAN_POINT('Origin',(18.915,-1.,1.));
#1278=CARTESIAN_POINT('',(-1.44573829605477E-33,-1.,0.));
#1279=CARTESIAN_POINT('',(18.915,-1.,0.));
#1280=CARTESIAN_POINT('',(0.,0.,1.));
#1281=CARTESIAN_POINT('Origin',(0.,-1.,1.));
#1282=CARTESIAN_POINT('',(18.915,0.,1.));
#1283=CARTESIAN_POINT('Origin',(25.22,0.,0.));
#1284=CARTESIAN_POINT('',(0.,0.,16.));
#1285=CARTESIAN_POINT('',(0.,0.,0.));
#1286=CARTESIAN_POINT('',(4.61,0.,16.));
#1287=CARTESIAN_POINT('',(0.,0.,16.));
#1288=CARTESIAN_POINT('',(5.61,0.,15.));
#1289=CARTESIAN_POINT('Origin',(4.61,0.,15.));
#1290=CARTESIAN_POINT('',(5.61,0.,8.));
#1291=CARTESIAN_POINT('',(5.61,0.,8.));
#1292=CARTESIAN_POINT('',(7.61,0.,6.));
#1293=CARTESIAN_POINT('Origin',(7.61,0.,8.));
#1294=CARTESIAN_POINT('',(17.61,0.,6.));
#1295=CARTESIAN_POINT('',(15.415,0.,6.));
#1296=CARTESIAN_POINT('',(19.61,0.,8.));
#1297=CARTESIAN_POINT('Origin',(17.61,0.,8.));
#1298=CARTESIAN_POINT('',(19.61,0.,15.));
#1299=CARTESIAN_POINT('',(19.61,0.,3.));
#1300=CARTESIAN_POINT('',(20.61,0.,16.));
#1301=CARTESIAN_POINT('Origin',(20.61,0.,15.));
#1302=CARTESIAN_POINT('',(0.,0.,16.));
#1303=CARTESIAN_POINT('',(3.15,0.,13.3));
#1304=CARTESIAN_POINT('Origin',(2.2,0.,13.3));
#1305=CARTESIAN_POINT('',(23.97,0.,13.3));
#1306=CARTESIAN_POINT('Origin',(23.02,0.,13.3));
#1307=CARTESIAN_POINT('Origin',(4.61,-0.625,15.));
#1308=CARTESIAN_POINT('',(4.61,-2.5,16.));
#1309=CARTESIAN_POINT('',(4.61,-0.625,16.));
#1310=CARTESIAN_POINT('',(5.61,-2.5,15.));
#1311=CARTESIAN_POINT('Origin',(4.61,-2.5,15.));
#1312=CARTESIAN_POINT('',(5.61,-0.625,15.));
#1313=CARTESIAN_POINT('Origin',(5.61,0.,16.));
#1314=CARTESIAN_POINT('',(5.61,-2.5,8.));
#1315=CARTESIAN_POINT('',(5.61,-2.5,8.));
#1316=CARTESIAN_POINT('',(5.61,0.,8.));
#1317=CARTESIAN_POINT('Origin',(0.,-2.5,0.));
#1318=CARTESIAN_POINT('',(0.,-2.5,16.));
#1319=CARTESIAN_POINT('',(0.,-2.5,16.));
#1320=CARTESIAN_POINT('',(0.,-2.5,4.));
#1321=CARTESIAN_POINT('',(0.,-2.5,0.));
#1322=CARTESIAN_POINT('',(6.305,-2.5,4.));
#1323=CARTESIAN_POINT('',(20.61,-2.5,16.));
#1324=CARTESIAN_POINT('',(0.,-2.5,16.));
#1325=CARTESIAN_POINT('',(19.61,-2.5,15.));
#1326=CARTESIAN_POINT('Origin',(20.61,-2.5,15.));
#1327=CARTESIAN_POINT('',(19.61,-2.5,8.));
#1328=CARTESIAN_POINT('',(19.61,-2.5,3.));
#1329=CARTESIAN_POINT('',(17.61,-2.5,6.));
#1330=CARTESIAN_POINT('Origin',(17.61,-2.5,8.));
#1331=CARTESIAN_POINT('',(7.61,-2.5,6.));
#1332=CARTESIAN_POINT('',(2.805,-2.5,6.));
#1333=CARTESIAN_POINT('Origin',(7.61,-2.5,8.));
#1334=CARTESIAN_POINT('',(23.97,-2.5,13.3));
#1335=CARTESIAN_POINT('Origin',(23.02,-2.5,13.3));
#1336=CARTESIAN_POINT('',(3.15,-2.5,13.3));
#1337=CARTESIAN_POINT('Origin',(2.2,-2.5,13.3));
#1338=CARTESIAN_POINT('Origin',(20.61,-0.625,15.));
#1339=CARTESIAN_POINT('',(20.61,-0.625,16.));
#1340=CARTESIAN_POINT('',(19.61,-0.625,15.));
#1341=CARTESIAN_POINT('Origin',(12.61,-1.25,16.));
#1342=CARTESIAN_POINT('Origin',(20.61,-36.675,10.2));
#1343=CARTESIAN_POINT('',(20.61,-34.8,11.2));
#1344=CARTESIAN_POINT('',(20.61,-36.675,11.2));
#1345=CARTESIAN_POINT('',(19.61,-34.8,10.2));
#1346=CARTESIAN_POINT('Origin',(20.61,-34.8,10.2));
#1347=CARTESIAN_POINT('',(19.61,-36.675,10.2));
#1348=CARTESIAN_POINT('Origin',(19.61,-37.3,11.2));
#1349=CARTESIAN_POINT('',(19.61,-34.8,8.2));
#1350=CARTESIAN_POINT('',(19.61,-34.8,5.6));
#1351=CARTESIAN_POINT('',(19.61,-37.3,8.2));
#1352=CARTESIAN_POINT('Origin',(25.22,-34.8,0.));
#1353=CARTESIAN_POINT('',(0.,-34.8,11.2));
#1354=CARTESIAN_POINT('',(0.,-34.8,4.));
#1355=CARTESIAN_POINT('',(18.915,-34.8,4.));
#1356=CARTESIAN_POINT('',(0.,-34.8,11.2));
#1357=CARTESIAN_POINT('',(0.,-34.8,0.));
#1358=CARTESIAN_POINT('',(4.61,-34.8,11.2));
#1359=CARTESIAN_POINT('',(0.,-34.8,11.2));
#1360=CARTESIAN_POINT('',(5.61,-34.8,10.2));
#1361=CARTESIAN_POINT('Origin',(4.61,-34.8,10.2));
#1362=CARTESIAN_POINT('',(5.61,-34.8,8.2));
#1363=CARTESIAN_POINT('',(5.61,-34.8,3.1));
#1364=CARTESIAN_POINT('',(7.61,-34.8,6.2));
#1365=CARTESIAN_POINT('Origin',(7.61,-34.8,8.2));
#1366=CARTESIAN_POINT('',(17.61,-34.8,6.2));
#1367=CARTESIAN_POINT('',(22.415,-34.8,6.2));
#1368=CARTESIAN_POINT('Origin',(17.61,-34.8,8.2));
#1369=CARTESIAN_POINT('',(22.12,-34.8,9.5));
#1370=CARTESIAN_POINT('Origin',(23.07,-34.8,9.5));
#1371=CARTESIAN_POINT('',(1.2,-34.8,9.5));
#1372=CARTESIAN_POINT('Origin',(2.15,-34.8,9.5));
#1373=CARTESIAN_POINT('Origin',(4.61,-36.675,10.2));
#1374=CARTESIAN_POINT('',(4.61,-36.675,11.2));
#1375=CARTESIAN_POINT('',(5.61,-36.675,10.2));
#1376=CARTESIAN_POINT('Origin',(12.61,-36.05,11.2));
#1377=CARTESIAN_POINT('',(-5.39260384428426E-32,-37.3,11.2));
#1378=CARTESIAN_POINT('Origin',(6.305,-4.5,4.));
#1379=CARTESIAN_POINT('',(-6.50582233224642E-33,-4.5,2.));
#1380=CARTESIAN_POINT('Origin',(0.,-4.5,4.));
#1381=CARTESIAN_POINT('',(6.305,-4.5,2.));
#1382=CARTESIAN_POINT('Origin',(18.915,-32.8,4.));
#1383=CARTESIAN_POINT('',(-4.74202161105962E-32,-32.8,2.));
#1384=CARTESIAN_POINT('Origin',(0.,-32.8,4.));
#1385=CARTESIAN_POINT('',(18.915,-32.8,2.));
#1386=CARTESIAN_POINT('Origin',(7.61,0.,8.));
#1387=CARTESIAN_POINT('',(7.61,0.,6.));
#1388=CARTESIAN_POINT('Origin',(7.61,-37.3,8.2));
#1389=CARTESIAN_POINT('',(7.61,-37.3,6.2));
#1390=CARTESIAN_POINT('',(5.61,-37.3,8.2));
#1391=CARTESIAN_POINT('Origin',(19.61,-37.3,6.2));
#1392=CARTESIAN_POINT('',(17.61,-37.3,6.2));
#1393=CARTESIAN_POINT('Origin',(17.61,-37.3,8.2));
#1394=CARTESIAN_POINT('Origin',(17.61,0.,8.));
#1395=CARTESIAN_POINT('',(17.61,0.,6.));
#1396=CARTESIAN_POINT('',(19.61,0.,8.));
#1397=CARTESIAN_POINT('Origin',(5.61,0.,6.));
#1398=CARTESIAN_POINT('Origin',(19.61,0.,6.));
#1399=CARTESIAN_POINT('Origin',(2.2,0.,13.3));
#1400=CARTESIAN_POINT('',(3.15,0.,13.3));
#1401=CARTESIAN_POINT('Origin',(23.02,0.,13.3));
#1402=CARTESIAN_POINT('',(23.97,0.,13.3));
#1403=CARTESIAN_POINT('Origin',(5.61,-37.3,6.2));
#1404=CARTESIAN_POINT('Origin',(23.07,-37.3,9.5));
#1405=CARTESIAN_POINT('',(22.12,-37.3,9.5));
#1406=CARTESIAN_POINT('Origin',(2.15,-37.3,9.5));
#1407=CARTESIAN_POINT('',(1.2,-37.3,9.5));
#1408=CARTESIAN_POINT('Origin',(12.61,-36.05,11.2));
#1409=CARTESIAN_POINT('Origin',(12.61,-1.25,16.));
#1410=CARTESIAN_POINT('',(-5.39260384428426E-32,-37.3,16.));
#1411=CARTESIAN_POINT('Origin',(19.61,-18.65,0.));
#1412=CARTESIAN_POINT('',(17.86,-18.65,2.));
#1413=CARTESIAN_POINT('Origin',(19.61,-18.65,2.));
#1414=CARTESIAN_POINT('',(17.86,-18.65,0.));
#1415=CARTESIAN_POINT('',(17.86,-18.65,0.));
#1416=CARTESIAN_POINT('Origin',(19.61,-18.65,0.));
#1417=CARTESIAN_POINT('Origin',(4.61,-24.65,0.));
#1418=CARTESIAN_POINT('',(2.86,-24.65,2.));
#1419=CARTESIAN_POINT('Origin',(4.61,-24.65,2.));
#1420=CARTESIAN_POINT('',(2.86,-24.65,0.));
#1421=CARTESIAN_POINT('',(2.86,-24.65,0.));
#1422=CARTESIAN_POINT('Origin',(4.61,-24.65,0.));
#1423=CARTESIAN_POINT('Origin',(12.61,-25.65,0.));
#1424=CARTESIAN_POINT('',(10.86,-25.65,2.));
#1425=CARTESIAN_POINT('Origin',(12.61,-25.65,2.));
#1426=CARTESIAN_POINT('',(10.86,-25.65,0.));
#1427=CARTESIAN_POINT('',(10.86,-25.65,0.));
#1428=CARTESIAN_POINT('Origin',(12.61,-25.65,0.));
#1429=CARTESIAN_POINT('Origin',(12.61,-11.65,0.));
#1430=CARTESIAN_POINT('',(10.86,-11.65,2.));
#1431=CARTESIAN_POINT('Origin',(12.61,-11.65,2.));
#1432=CARTESIAN_POINT('',(10.86,-11.65,0.));
#1433=CARTESIAN_POINT('',(10.86,-11.65,0.));
#1434=CARTESIAN_POINT('Origin',(12.61,-11.65,0.));
#1435=CARTESIAN_POINT('Origin',(4.61,-12.65,0.));
#1436=CARTESIAN_POINT('',(2.86,-12.65,2.));
#1437=CARTESIAN_POINT('Origin',(4.61,-12.65,2.));
#1438=CARTESIAN_POINT('',(2.86,-12.65,0.));
#1439=CARTESIAN_POINT('',(2.86,-12.65,0.));
#1440=CARTESIAN_POINT('Origin',(4.61,-12.65,0.));
#1441=CARTESIAN_POINT('Origin',(20.61,-12.65,0.));
#1442=CARTESIAN_POINT('',(18.86,-12.65,2.));
#1443=CARTESIAN_POINT('Origin',(20.61,-12.65,2.));
#1444=CARTESIAN_POINT('',(18.86,-12.65,0.));
#1445=CARTESIAN_POINT('',(18.86,-12.65,0.));
#1446=CARTESIAN_POINT('Origin',(20.61,-12.65,0.));
#1447=CARTESIAN_POINT('Origin',(20.61,-24.65,0.));
#1448=CARTESIAN_POINT('',(18.86,-24.65,2.));
#1449=CARTESIAN_POINT('Origin',(20.61,-24.65,2.));
#1450=CARTESIAN_POINT('',(18.86,-24.65,0.));
#1451=CARTESIAN_POINT('',(18.86,-24.65,0.));
#1452=CARTESIAN_POINT('Origin',(20.61,-24.65,0.));
#1453=CARTESIAN_POINT('Origin',(5.61,-18.65,0.));
#1454=CARTESIAN_POINT('',(3.86,-18.65,2.));
#1455=CARTESIAN_POINT('Origin',(5.61,-18.65,2.));
#1456=CARTESIAN_POINT('',(3.86,-18.65,0.));
#1457=CARTESIAN_POINT('',(3.86,-18.65,0.));
#1458=CARTESIAN_POINT('Origin',(5.61,-18.65,0.));
#1459=CARTESIAN_POINT('Origin',(-3.6143457401369E-33,-2.5,0.));
#1460=CARTESIAN_POINT('',(-5.39260384428426E-32,-37.3,2.));
#1461=CARTESIAN_POINT('',(-5.39260384428426E-32,-37.3,0.));
#1462=CARTESIAN_POINT('Origin',(12.61,-18.65,2.));
#1463=CARTESIAN_POINT('Origin',(12.61,-18.65,0.));
#1464=UNCERTAINTY_MEASURE_WITH_UNIT(LENGTH_MEASURE(0.01),#1468,
'DISTANCE_ACCURACY_VALUE',
'Maximum model space distance between geometric entities at asserted c
onnectivities');
#1465=UNCERTAINTY_MEASURE_WITH_UNIT(LENGTH_MEASURE(0.01),#1468,
'DISTANCE_ACCURACY_VALUE',
'Maximum model space distance between geometric entities at asserted c
onnectivities');
#1466=(
GEOMETRIC_REPRESENTATION_CONTEXT(3)
GLOBAL_UNCERTAINTY_ASSIGNED_CONTEXT((#1464))
GLOBAL_UNIT_ASSIGNED_CONTEXT((#1468,#1470,#1471))
REPRESENTATION_CONTEXT('','3D')
);
#1467=(
GEOMETRIC_REPRESENTATION_CONTEXT(3)
GLOBAL_UNCERTAINTY_ASSIGNED_CONTEXT((#1465))
GLOBAL_UNIT_ASSIGNED_CONTEXT((#1468,#1470,#1471))
REPRESENTATION_CONTEXT('','3D')
);
#1468=(
LENGTH_UNIT()
NAMED_UNIT(*)
SI_UNIT(.MILLI.,.METRE.)
);
#1469=(
LENGTH_UNIT()
NAMED_UNIT(*)
SI_UNIT($,.METRE.)
);
#1470=(
NAMED_UNIT(*)
PLANE_ANGLE_UNIT()
SI_UNIT($,.RADIAN.)
);
#1471=(
NAMED_UNIT(*)
SI_UNIT($,.STERADIAN.)
SOLID_ANGLE_UNIT()
);
#1472=SHAPE_DEFINITION_REPRESENTATION(#1473,#1474);
#1473=PRODUCT_DEFINITION_SHAPE('',$,#1476);
#1474=SHAPE_REPRESENTATION('',(#876),#1466);
#1475=PRODUCT_DEFINITION_CONTEXT('part definition',#1480,'design');
#1476=PRODUCT_DEFINITION('2026-07-15-17-01-50-805','ServoMountBracket',
#1477,#1475);
#1477=PRODUCT_DEFINITION_FORMATION('',$,#1482);
#1478=PRODUCT_RELATED_PRODUCT_CATEGORY('ServoMountBracket',
'ServoMountBracket',(#1482));
#1479=APPLICATION_PROTOCOL_DEFINITION('international standard',
'automotive_design',2009,#1480);
#1480=APPLICATION_CONTEXT(
'Core Data for Automotive Mechanical Design Process');
#1481=PRODUCT_CONTEXT('part definition',#1480,'mechanical');
#1482=PRODUCT('2026-07-15-17-01-50-805','ServoMountBracket',$,(#1481));
#1483=PRESENTATION_STYLE_ASSIGNMENT((#1484));
#1484=SURFACE_STYLE_USAGE(.BOTH.,#1485);
#1485=SURFACE_SIDE_STYLE('',(#1486));
#1486=SURFACE_STYLE_FILL_AREA(#1487);
#1487=FILL_AREA_STYLE('Steel - Satin',(#1488));
#1488=FILL_AREA_STYLE_COLOUR('Steel - Satin',#1489);
#1489=COLOUR_RGB('Steel - Satin',0.627450980392157,0.627450980392157,0.627450980392157);
ENDSEC;
END-ISO-10303-21;
