ISO-10303-21;
HEADER;
/* Generated by software containing ST-Developer
 * from STEP Tools, Inc. (www.steptools.com) 
 */

FILE_DESCRIPTION(
/* description */ (''),
/* implementation_level */ '2;1');

FILE_NAME(
/* name */ 'shoulder-yaw-bearing.step',
/* time_stamp */ '2026-07-21T07:44:11-04:00',
/* author */ (''),
/* organization */ (''),
/* preprocessor_version */ 'ST-DEVELOPER v20.1',
/* originating_system */ 'Autodesk Translation Framework v15.8.0.0',
/* authorisation */ '');

FILE_SCHEMA (('AUTOMOTIVE_DESIGN { 1 0 10303 214 3 1 1 }'));
ENDSEC;

DATA;
#10=MECHANICAL_DESIGN_GEOMETRIC_PRESENTATION_REPRESENTATION('',(#13,#14),
#220);
#11=SHAPE_REPRESENTATION_RELATIONSHIP('SRR','None',#227,#12);
#12=ADVANCED_BREP_SHAPE_REPRESENTATION('',(#15,#16),#219);
#13=STYLED_ITEM('',(#236),#15);
#14=STYLED_ITEM('',(#236),#16);
#15=MANIFOLD_SOLID_BREP('Body1',#115);
#16=MANIFOLD_SOLID_BREP('Body2',#116);
#17=LINE('',#202,#19);
#18=LINE('',#207,#20);
#19=VECTOR('',#168,70.);
#20=VECTOR('',#173,58.25);
#21=CYLINDRICAL_SURFACE('',#138,70.);
#22=CYLINDRICAL_SURFACE('',#139,58.25);
#23=TOROIDAL_SURFACE('',#133,63.3542486889359,4.);
#24=TOROIDAL_SURFACE('',#144,64.8957513110646,4.);
#25=FACE_BOUND('',#38,.T.);
#26=FACE_BOUND('',#41,.T.);
#27=FACE_BOUND('',#45,.T.);
#28=FACE_BOUND('',#48,.T.);
#29=FACE_OUTER_BOUND('',#37,.T.);
#30=FACE_OUTER_BOUND('',#39,.T.);
#31=FACE_OUTER_BOUND('',#40,.T.);
#32=FACE_OUTER_BOUND('',#42,.T.);
#33=FACE_OUTER_BOUND('',#43,.T.);
#34=FACE_OUTER_BOUND('',#44,.T.);
#35=FACE_OUTER_BOUND('',#46,.T.);
#36=FACE_OUTER_BOUND('',#47,.T.);
#37=EDGE_LOOP('',(#79));
#38=EDGE_LOOP('',(#80));
#39=EDGE_LOOP('',(#81,#82,#83,#84));
#40=EDGE_LOOP('',(#85));
#41=EDGE_LOOP('',(#86));
#42=EDGE_LOOP('',(#87,#88,#89,#90));
#43=EDGE_LOOP('',(#91,#92,#93,#94));
#44=EDGE_LOOP('',(#95));
#45=EDGE_LOOP('',(#96));
#46=EDGE_LOOP('',(#97,#98,#99,#100));
#47=EDGE_LOOP('',(#101));
#48=EDGE_LOOP('',(#102));
#49=CIRCLE('',#131,69.9999999999999);
#50=CIRCLE('',#132,65.9999999999999);
#51=CIRCLE('',#134,4.);
#52=CIRCLE('',#135,65.9999999999999);
#53=CIRCLE('',#137,70.0000000000001);
#54=CIRCLE('',#140,58.2499999999999);
#55=CIRCLE('',#141,58.2500000000001);
#56=CIRCLE('',#143,62.2500000000001);
#57=CIRCLE('',#145,4.);
#58=CIRCLE('',#146,62.2499999999999);
#59=VERTEX_POINT('',#190);
#60=VERTEX_POINT('',#192);
#61=VERTEX_POINT('',#195);
#62=VERTEX_POINT('',#199);
#63=VERTEX_POINT('',#204);
#64=VERTEX_POINT('',#206);
#65=VERTEX_POINT('',#210);
#66=VERTEX_POINT('',#213);
#67=EDGE_CURVE('',#59,#59,#49,.T.);
#68=EDGE_CURVE('',#60,#60,#50,.T.);
#69=EDGE_CURVE('',#60,#61,#51,.T.);
#70=EDGE_CURVE('',#61,#61,#52,.T.);
#71=EDGE_CURVE('',#62,#62,#53,.T.);
#72=EDGE_CURVE('',#59,#62,#17,.T.);
#73=EDGE_CURVE('',#63,#63,#54,.T.);
#74=EDGE_CURVE('',#63,#64,#18,.T.);
#75=EDGE_CURVE('',#64,#64,#55,.T.);
#76=EDGE_CURVE('',#65,#65,#56,.T.);
#77=EDGE_CURVE('',#65,#66,#57,.T.);
#78=EDGE_CURVE('',#66,#66,#58,.T.);
#79=ORIENTED_EDGE('',*,*,#67,.T.);
#80=ORIENTED_EDGE('',*,*,#68,.F.);
#81=ORIENTED_EDGE('',*,*,#68,.T.);
#82=ORIENTED_EDGE('',*,*,#69,.T.);
#83=ORIENTED_EDGE('',*,*,#70,.F.);
#84=ORIENTED_EDGE('',*,*,#69,.F.);
#85=ORIENTED_EDGE('',*,*,#71,.F.);
#86=ORIENTED_EDGE('',*,*,#70,.T.);
#87=ORIENTED_EDGE('',*,*,#67,.F.);
#88=ORIENTED_EDGE('',*,*,#72,.T.);
#89=ORIENTED_EDGE('',*,*,#71,.T.);
#90=ORIENTED_EDGE('',*,*,#72,.F.);
#91=ORIENTED_EDGE('',*,*,#73,.T.);
#92=ORIENTED_EDGE('',*,*,#74,.T.);
#93=ORIENTED_EDGE('',*,*,#75,.F.);
#94=ORIENTED_EDGE('',*,*,#74,.F.);
#95=ORIENTED_EDGE('',*,*,#76,.F.);
#96=ORIENTED_EDGE('',*,*,#75,.T.);
#97=ORIENTED_EDGE('',*,*,#76,.T.);
#98=ORIENTED_EDGE('',*,*,#77,.T.);
#99=ORIENTED_EDGE('',*,*,#78,.F.);
#100=ORIENTED_EDGE('',*,*,#77,.F.);
#101=ORIENTED_EDGE('',*,*,#78,.T.);
#102=ORIENTED_EDGE('',*,*,#73,.F.);
#103=PLANE('',#130);
#104=PLANE('',#136);
#105=PLANE('',#142);
#106=PLANE('',#147);
#107=ADVANCED_FACE('',(#29,#25),#103,.T.);
#108=ADVANCED_FACE('',(#30),#23,.F.);
#109=ADVANCED_FACE('',(#31,#26),#104,.T.);
#110=ADVANCED_FACE('',(#32),#21,.T.);
#111=ADVANCED_FACE('',(#33),#22,.F.);
#112=ADVANCED_FACE('',(#34,#27),#105,.T.);
#113=ADVANCED_FACE('',(#35),#24,.F.);
#114=ADVANCED_FACE('',(#36,#28),#106,.T.);
#115=CLOSED_SHELL('',(#107,#108,#109,#110));
#116=CLOSED_SHELL('',(#111,#112,#113,#114));
#117=DERIVED_UNIT_ELEMENT(#119,1.);
#118=DERIVED_UNIT_ELEMENT(#222,-3.);
#119=(
MASS_UNIT()
NAMED_UNIT(*)
SI_UNIT(.KILO.,.GRAM.)
);
#120=DERIVED_UNIT((#117,#118));
#121=MEASURE_REPRESENTATION_ITEM('density measure',
POSITIVE_RATIO_MEASURE(7850.),#120);
#122=PROPERTY_DEFINITION_REPRESENTATION(#127,#124);
#123=PROPERTY_DEFINITION_REPRESENTATION(#128,#125);
#124=REPRESENTATION('material name',(#126),#219);
#125=REPRESENTATION('density',(#121),#219);
#126=DESCRIPTIVE_REPRESENTATION_ITEM('Steel','Steel');
#127=PROPERTY_DEFINITION('material property','material name',#229);
#128=PROPERTY_DEFINITION('material property','density of part',#229);
#129=AXIS2_PLACEMENT_3D('',#188,#148,#149);
#130=AXIS2_PLACEMENT_3D('',#189,#150,#151);
#131=AXIS2_PLACEMENT_3D('',#191,#152,#153);
#132=AXIS2_PLACEMENT_3D('',#193,#154,#155);
#133=AXIS2_PLACEMENT_3D('',#194,#156,#157);
#134=AXIS2_PLACEMENT_3D('',#196,#158,#159);
#135=AXIS2_PLACEMENT_3D('',#197,#160,#161);
#136=AXIS2_PLACEMENT_3D('',#198,#162,#163);
#137=AXIS2_PLACEMENT_3D('',#200,#164,#165);
#138=AXIS2_PLACEMENT_3D('',#201,#166,#167);
#139=AXIS2_PLACEMENT_3D('',#203,#169,#170);
#140=AXIS2_PLACEMENT_3D('',#205,#171,#172);
#141=AXIS2_PLACEMENT_3D('',#208,#174,#175);
#142=AXIS2_PLACEMENT_3D('',#209,#176,#177);
#143=AXIS2_PLACEMENT_3D('',#211,#178,#179);
#144=AXIS2_PLACEMENT_3D('',#212,#180,#181);
#145=AXIS2_PLACEMENT_3D('',#214,#182,#183);
#146=AXIS2_PLACEMENT_3D('',#215,#184,#185);
#147=AXIS2_PLACEMENT_3D('',#216,#186,#187);
#148=DIRECTION('axis',(0.,0.,1.));
#149=DIRECTION('refdir',(1.,0.,0.));
#150=DIRECTION('center_axis',(0.,2.75335310107039E-14,-1.));
#151=DIRECTION('ref_axis',(-1.,0.,0.));
#152=DIRECTION('center_axis',(0.,2.75335310107039E-14,-1.));
#153=DIRECTION('ref_axis',(1.,0.,0.));
#154=DIRECTION('center_axis',(0.,2.75335310107039E-14,-1.));
#155=DIRECTION('ref_axis',(1.,0.,0.));
#156=DIRECTION('center_axis',(0.,2.75335310107039E-14,-1.));
#157=DIRECTION('ref_axis',(-1.,0.,0.));
#158=DIRECTION('center_axis',(-1.31866725112179E-16,-1.,-2.75335310107039E-14));
#159=DIRECTION('ref_axis',(1.,-1.31866725112179E-16,0.));
#160=DIRECTION('center_axis',(0.,2.75335310107039E-14,-1.));
#161=DIRECTION('ref_axis',(1.,0.,0.));
#162=DIRECTION('center_axis',(0.,-2.75335310107039E-14,1.));
#163=DIRECTION('ref_axis',(1.,0.,0.));
#164=DIRECTION('center_axis',(0.,2.75335310107039E-14,-1.));
#165=DIRECTION('ref_axis',(1.,0.,0.));
#166=DIRECTION('center_axis',(0.,2.75335310107039E-14,-1.));
#167=DIRECTION('ref_axis',(0.,1.,2.75335310107039E-14));
#168=DIRECTION('',(0.,-2.75335310107039E-14,1.));
#169=DIRECTION('center_axis',(0.,2.75335310107039E-14,-1.));
#170=DIRECTION('ref_axis',(0.,1.,2.75347002180072E-14));
#171=DIRECTION('center_axis',(0.,2.75335310107039E-14,-1.));
#172=DIRECTION('ref_axis',(1.,0.,0.));
#173=DIRECTION('',(0.,-2.75335310107039E-14,1.));
#174=DIRECTION('center_axis',(0.,2.75335310107039E-14,-1.));
#175=DIRECTION('ref_axis',(1.,0.,0.));
#176=DIRECTION('center_axis',(0.,-2.75335310107039E-14,1.));
#177=DIRECTION('ref_axis',(1.,0.,0.));
#178=DIRECTION('center_axis',(0.,2.75335310107039E-14,-1.));
#179=DIRECTION('ref_axis',(1.,0.,0.));
#180=DIRECTION('center_axis',(0.,2.75335310107039E-14,-1.));
#181=DIRECTION('ref_axis',(-1.,0.,0.));
#182=DIRECTION('center_axis',(-1.28916283340898E-16,-1.,-2.75335310107039E-14));
#183=DIRECTION('ref_axis',(1.,-1.28916283340898E-16,0.));
#184=DIRECTION('center_axis',(0.,2.75335310107039E-14,-1.));
#185=DIRECTION('ref_axis',(1.,0.,0.));
#186=DIRECTION('center_axis',(0.,2.75335310107039E-14,-1.));
#187=DIRECTION('ref_axis',(-1.,0.,0.));
#188=CARTESIAN_POINT('',(0.,0.,0.));
#189=CARTESIAN_POINT('Origin',(0.,-4.,4.03076770159303E-15));
#190=CARTESIAN_POINT('',(-8.57252759403147E-15,-140.,-3.85469434149854E-12));
#191=CARTESIAN_POINT('Origin',(0.,-69.9999999999999,-1.92734717074927E-12));
#192=CARTESIAN_POINT('',(65.9999999999999,-69.9999999999999,-1.81410442223751E-12));
#193=CARTESIAN_POINT('Origin',(0.,-69.9999999999999,-1.81410442223751E-12));
#194=CARTESIAN_POINT('Origin',(0.,-70.,2.99999999999871));
#195=CARTESIAN_POINT('',(65.9999999999999,-70.0000000000001,5.99999999999921));
#196=CARTESIAN_POINT('Origin',(63.3542486889359,-70.,2.99999999999871));
#197=CARTESIAN_POINT('Origin',(0.,-70.0000000000001,5.99999999999921));
#198=CARTESIAN_POINT('Origin',(0.,0.,6.));
#199=CARTESIAN_POINT('',(-8.57252759403147E-15,-140.,5.99999999999615));
#200=CARTESIAN_POINT('Origin',(0.,-70.0000000000001,5.99999999999807));
#201=CARTESIAN_POINT('Origin',(0.,-70.,2.99999999999807));
#202=CARTESIAN_POINT('',(-8.57252759403147E-15,-140.,2.99999999999615));
#203=CARTESIAN_POINT('Origin',(0.,-70.,2.99999999999807));
#204=CARTESIAN_POINT('',(-7.13356760503333E-15,-128.25,-3.52884388377106E-12));
#205=CARTESIAN_POINT('Origin',(0.,-69.9999999999999,-1.92523774700248E-12));
#206=CARTESIAN_POINT('',(-7.13356760503333E-15,-128.25,5.99999999999647));
#207=CARTESIAN_POINT('',(-7.13356760503333E-15,-128.25,2.99999999999647));
#208=CARTESIAN_POINT('Origin',(0.,-70.0000000000001,5.99999999999807));
#209=CARTESIAN_POINT('Origin',(0.,-7.75,5.99999999999982));
#210=CARTESIAN_POINT('',(62.2500000000001,-70.0000000000001,5.9999999999981));
#211=CARTESIAN_POINT('Origin',(0.,-70.0000000000001,5.9999999999981));
#212=CARTESIAN_POINT('Origin',(0.,-70.,2.99999999999803));
#213=CARTESIAN_POINT('',(62.2499999999999,-69.9999999999999,-1.89959159513364E-12));
#214=CARTESIAN_POINT('Origin',(64.8957513110646,-70.,2.99999999999803));
#215=CARTESIAN_POINT('Origin',(0.,-69.9999999999999,-1.89936955052872E-12));
#216=CARTESIAN_POINT('Origin',(0.,-11.75,-3.21409565628983E-13));
#217=UNCERTAINTY_MEASURE_WITH_UNIT(LENGTH_MEASURE(0.01),#221,
'DISTANCE_ACCURACY_VALUE',
'Maximum model space distance between geometric entities at asserted c
onnectivities');
#218=UNCERTAINTY_MEASURE_WITH_UNIT(LENGTH_MEASURE(0.01),#221,
'DISTANCE_ACCURACY_VALUE',
'Maximum model space distance between geometric entities at asserted c
onnectivities');
#219=(
GEOMETRIC_REPRESENTATION_CONTEXT(3)
GLOBAL_UNCERTAINTY_ASSIGNED_CONTEXT((#217))
GLOBAL_UNIT_ASSIGNED_CONTEXT((#221,#223,#224))
REPRESENTATION_CONTEXT('','3D')
);
#220=(
GEOMETRIC_REPRESENTATION_CONTEXT(3)
GLOBAL_UNCERTAINTY_ASSIGNED_CONTEXT((#218))
GLOBAL_UNIT_ASSIGNED_CONTEXT((#221,#223,#224))
REPRESENTATION_CONTEXT('','3D')
);
#221=(
LENGTH_UNIT()
NAMED_UNIT(*)
SI_UNIT(.MILLI.,.METRE.)
);
#222=(
LENGTH_UNIT()
NAMED_UNIT(*)
SI_UNIT($,.METRE.)
);
#223=(
NAMED_UNIT(*)
PLANE_ANGLE_UNIT()
SI_UNIT($,.RADIAN.)
);
#224=(
NAMED_UNIT(*)
SI_UNIT($,.STERADIAN.)
SOLID_ANGLE_UNIT()
);
#225=SHAPE_DEFINITION_REPRESENTATION(#226,#227);
#226=PRODUCT_DEFINITION_SHAPE('',$,#229);
#227=SHAPE_REPRESENTATION('',(#129),#219);
#228=PRODUCT_DEFINITION_CONTEXT('part definition',#233,'design');
#229=PRODUCT_DEFINITION('2026-06-22-13-50-08-102','Rover Yaw Bearing',#230,
#228);
#230=PRODUCT_DEFINITION_FORMATION('',$,#235);
#231=PRODUCT_RELATED_PRODUCT_CATEGORY('Rover Yaw Bearing',
'Rover Yaw Bearing',(#235));
#232=APPLICATION_PROTOCOL_DEFINITION('international standard',
'automotive_design',2009,#233);
#233=APPLICATION_CONTEXT(
'Core Data for Automotive Mechanical Design Process');
#234=PRODUCT_CONTEXT('part definition',#233,'mechanical');
#235=PRODUCT('2026-06-22-13-50-08-102','Rover Yaw Bearing',$,(#234));
#236=PRESENTATION_STYLE_ASSIGNMENT((#237));
#237=SURFACE_STYLE_USAGE(.BOTH.,#238);
#238=SURFACE_SIDE_STYLE('',(#239));
#239=SURFACE_STYLE_FILL_AREA(#240);
#240=FILL_AREA_STYLE('Steel - Satin',(#241));
#241=FILL_AREA_STYLE_COLOUR('Steel - Satin',#242);
#242=COLOUR_RGB('Steel - Satin',0.627450980392157,0.627450980392157,0.627450980392157);
ENDSEC;
END-ISO-10303-21;
