ISO-10303-21;
HEADER;
/* Generated by software containing ST-Developer
 * from STEP Tools, Inc. (www.steptools.com) 
 */

FILE_DESCRIPTION(
/* description */ (''),
/* implementation_level */ '2;1');

FILE_NAME(
/* name */ 'shoulder-bearing-spacer.step',
/* time_stamp */ '2026-07-22T07:51:28-04:00',
/* author */ (''),
/* organization */ (''),
/* preprocessor_version */ 'ST-DEVELOPER v20.1',
/* originating_system */ 'Autodesk Translation Framework v15.8.0.0',
/* authorisation */ '');

FILE_SCHEMA (('AUTOMOTIVE_DESIGN { 1 0 10303 214 3 1 1 }'));
ENDSEC;

DATA;
#10=MECHANICAL_DESIGN_GEOMETRIC_PRESENTATION_REPRESENTATION('',(#13),#447);
#11=SHAPE_REPRESENTATION_RELATIONSHIP('SRR','None',#454,#12);
#12=ADVANCED_BREP_SHAPE_REPRESENTATION('',(#14),#446);
#13=STYLED_ITEM('',(#463),#14);
#14=MANIFOLD_SOLID_BREP('Body1',#232);
#15=LINE('',#406,#19);
#16=LINE('',#425,#20);
#17=LINE('',#438,#21);
#18=LINE('',#442,#22);
#19=VECTOR('',#324,2.85);
#20=VECTOR('',#349,3.2);
#21=VECTOR('',#370,1.75);
#22=VECTOR('',#375,9.);
#23=CYLINDRICAL_SURFACE('',#262,2.85);
#24=CYLINDRICAL_SURFACE('',#273,3.2);
#25=CYLINDRICAL_SURFACE('',#284,1.75);
#26=CYLINDRICAL_SURFACE('',#285,9.);
#27=FACE_BOUND('',#56,.T.);
#28=FACE_BOUND('',#60,.T.);
#29=FACE_BOUND('',#63,.T.);
#30=FACE_BOUND('',#69,.T.);
#31=FACE_BOUND('',#73,.T.);
#32=PLANE('',#255);
#33=PLANE('',#264);
#34=PLANE('',#271);
#35=PLANE('',#282);
#36=PLANE('',#287);
#37=FACE_OUTER_BOUND('',#53,.T.);
#38=FACE_OUTER_BOUND('',#54,.T.);
#39=FACE_OUTER_BOUND('',#55,.T.);
#40=FACE_OUTER_BOUND('',#57,.T.);
#41=FACE_OUTER_BOUND('',#58,.T.);
#42=FACE_OUTER_BOUND('',#59,.T.);
#43=FACE_OUTER_BOUND('',#61,.T.);
#44=FACE_OUTER_BOUND('',#62,.T.);
#45=FACE_OUTER_BOUND('',#64,.T.);
#46=FACE_OUTER_BOUND('',#65,.T.);
#47=FACE_OUTER_BOUND('',#66,.T.);
#48=FACE_OUTER_BOUND('',#67,.T.);
#49=FACE_OUTER_BOUND('',#68,.T.);
#50=FACE_OUTER_BOUND('',#70,.T.);
#51=FACE_OUTER_BOUND('',#71,.T.);
#52=FACE_OUTER_BOUND('',#72,.T.);
#53=EDGE_LOOP('',(#149,#150,#151,#152,#153));
#54=EDGE_LOOP('',(#154,#155,#156,#157));
#55=EDGE_LOOP('',(#158));
#56=EDGE_LOOP('',(#159));
#57=EDGE_LOOP('',(#160,#161,#162,#163,#164));
#58=EDGE_LOOP('',(#165,#166,#167,#168,#169));
#59=EDGE_LOOP('',(#170));
#60=EDGE_LOOP('',(#171));
#61=EDGE_LOOP('',(#172,#173,#174,#175,#176));
#62=EDGE_LOOP('',(#177));
#63=EDGE_LOOP('',(#178));
#64=EDGE_LOOP('',(#179,#180,#181,#182,#183));
#65=EDGE_LOOP('',(#184,#185,#186,#187));
#66=EDGE_LOOP('',(#188,#189,#190,#191));
#67=EDGE_LOOP('',(#192,#193,#194,#195,#196));
#68=EDGE_LOOP('',(#197));
#69=EDGE_LOOP('',(#198));
#70=EDGE_LOOP('',(#199,#200,#201,#202));
#71=EDGE_LOOP('',(#203,#204,#205,#206));
#72=EDGE_LOOP('',(#207));
#73=EDGE_LOOP('',(#208));
#74=CIRCLE('',#247,5.43430043356868);
#75=CIRCLE('',#248,1.);
#76=CIRCLE('',#249,5.8998156592445);
#77=CIRCLE('',#250,5.8998156592445);
#78=CIRCLE('',#252,3.61893132732144);
#79=CIRCLE('',#253,1.);
#80=CIRCLE('',#254,4.36621139412115);
#81=CIRCLE('',#256,3.1);
#82=CIRCLE('',#258,2.6);
#83=CIRCLE('',#259,0.25);
#84=CIRCLE('',#260,2.85);
#85=CIRCLE('',#261,2.85);
#86=CIRCLE('',#263,2.85);
#87=CIRCLE('',#265,1.75);
#88=CIRCLE('',#267,3.2);
#89=CIRCLE('',#268,0.25);
#90=CIRCLE('',#269,2.95);
#91=CIRCLE('',#270,3.2);
#92=CIRCLE('',#272,1.75);
#93=CIRCLE('',#274,3.2);
#94=CIRCLE('',#276,0.25);
#95=CIRCLE('',#278,2.);
#96=CIRCLE('',#280,7.93606797749979);
#97=CIRCLE('',#281,3.);
#98=CIRCLE('',#283,9.);
#99=CIRCLE('',#286,9.);
#100=VERTEX_POINT('',#380);
#101=VERTEX_POINT('',#382);
#102=VERTEX_POINT('',#384);
#103=VERTEX_POINT('',#388);
#104=VERTEX_POINT('',#390);
#105=VERTEX_POINT('',#394);
#106=VERTEX_POINT('',#397);
#107=VERTEX_POINT('',#399);
#108=VERTEX_POINT('',#401);
#109=VERTEX_POINT('',#405);
#110=VERTEX_POINT('',#409);
#111=VERTEX_POINT('',#412);
#112=VERTEX_POINT('',#413);
#113=VERTEX_POINT('',#415);
#114=VERTEX_POINT('',#420);
#115=VERTEX_POINT('',#423);
#116=VERTEX_POINT('',#431);
#117=VERTEX_POINT('',#435);
#118=VERTEX_POINT('',#440);
#119=EDGE_CURVE('',#100,#100,#74,.T.);
#120=EDGE_CURVE('',#100,#101,#75,.T.);
#121=EDGE_CURVE('',#101,#102,#76,.T.);
#122=EDGE_CURVE('',#102,#101,#77,.T.);
#123=EDGE_CURVE('',#103,#103,#78,.T.);
#124=EDGE_CURVE('',#103,#104,#79,.T.);
#125=EDGE_CURVE('',#104,#104,#80,.T.);
#126=EDGE_CURVE('',#105,#105,#81,.T.);
#127=EDGE_CURVE('',#106,#106,#82,.T.);
#128=EDGE_CURVE('',#106,#107,#83,.T.);
#129=EDGE_CURVE('',#107,#108,#84,.T.);
#130=EDGE_CURVE('',#108,#107,#85,.T.);
#131=EDGE_CURVE('',#108,#109,#15,.T.);
#132=EDGE_CURVE('',#109,#109,#86,.T.);
#133=EDGE_CURVE('',#110,#110,#87,.T.);
#134=EDGE_CURVE('',#111,#112,#88,.T.);
#135=EDGE_CURVE('',#112,#113,#89,.T.);
#136=EDGE_CURVE('',#113,#113,#90,.T.);
#137=EDGE_CURVE('',#112,#111,#91,.T.);
#138=EDGE_CURVE('',#114,#114,#92,.T.);
#139=EDGE_CURVE('',#115,#115,#93,.T.);
#140=EDGE_CURVE('',#115,#111,#16,.T.);
#141=EDGE_CURVE('',#109,#105,#94,.T.);
#142=EDGE_CURVE('',#104,#100,#95,.T.);
#143=EDGE_CURVE('',#116,#116,#96,.T.);
#144=EDGE_CURVE('',#116,#102,#97,.T.);
#145=EDGE_CURVE('',#117,#117,#98,.T.);
#146=EDGE_CURVE('',#110,#114,#17,.T.);
#147=EDGE_CURVE('',#118,#118,#99,.T.);
#148=EDGE_CURVE('',#118,#117,#18,.T.);
#149=ORIENTED_EDGE('',*,*,#119,.T.);
#150=ORIENTED_EDGE('',*,*,#120,.T.);
#151=ORIENTED_EDGE('',*,*,#121,.T.);
#152=ORIENTED_EDGE('',*,*,#122,.T.);
#153=ORIENTED_EDGE('',*,*,#120,.F.);
#154=ORIENTED_EDGE('',*,*,#123,.T.);
#155=ORIENTED_EDGE('',*,*,#124,.T.);
#156=ORIENTED_EDGE('',*,*,#125,.T.);
#157=ORIENTED_EDGE('',*,*,#124,.F.);
#158=ORIENTED_EDGE('',*,*,#123,.F.);
#159=ORIENTED_EDGE('',*,*,#126,.F.);
#160=ORIENTED_EDGE('',*,*,#127,.T.);
#161=ORIENTED_EDGE('',*,*,#128,.T.);
#162=ORIENTED_EDGE('',*,*,#129,.T.);
#163=ORIENTED_EDGE('',*,*,#130,.T.);
#164=ORIENTED_EDGE('',*,*,#128,.F.);
#165=ORIENTED_EDGE('',*,*,#130,.F.);
#166=ORIENTED_EDGE('',*,*,#131,.T.);
#167=ORIENTED_EDGE('',*,*,#132,.F.);
#168=ORIENTED_EDGE('',*,*,#131,.F.);
#169=ORIENTED_EDGE('',*,*,#129,.F.);
#170=ORIENTED_EDGE('',*,*,#127,.F.);
#171=ORIENTED_EDGE('',*,*,#133,.T.);
#172=ORIENTED_EDGE('',*,*,#134,.T.);
#173=ORIENTED_EDGE('',*,*,#135,.T.);
#174=ORIENTED_EDGE('',*,*,#136,.T.);
#175=ORIENTED_EDGE('',*,*,#135,.F.);
#176=ORIENTED_EDGE('',*,*,#137,.T.);
#177=ORIENTED_EDGE('',*,*,#136,.F.);
#178=ORIENTED_EDGE('',*,*,#138,.F.);
#179=ORIENTED_EDGE('',*,*,#139,.F.);
#180=ORIENTED_EDGE('',*,*,#140,.T.);
#181=ORIENTED_EDGE('',*,*,#137,.F.);
#182=ORIENTED_EDGE('',*,*,#134,.F.);
#183=ORIENTED_EDGE('',*,*,#140,.F.);
#184=ORIENTED_EDGE('',*,*,#132,.T.);
#185=ORIENTED_EDGE('',*,*,#141,.T.);
#186=ORIENTED_EDGE('',*,*,#126,.T.);
#187=ORIENTED_EDGE('',*,*,#141,.F.);
#188=ORIENTED_EDGE('',*,*,#125,.F.);
#189=ORIENTED_EDGE('',*,*,#142,.T.);
#190=ORIENTED_EDGE('',*,*,#119,.F.);
#191=ORIENTED_EDGE('',*,*,#142,.F.);
#192=ORIENTED_EDGE('',*,*,#143,.T.);
#193=ORIENTED_EDGE('',*,*,#144,.T.);
#194=ORIENTED_EDGE('',*,*,#121,.F.);
#195=ORIENTED_EDGE('',*,*,#122,.F.);
#196=ORIENTED_EDGE('',*,*,#144,.F.);
#197=ORIENTED_EDGE('',*,*,#145,.T.);
#198=ORIENTED_EDGE('',*,*,#143,.F.);
#199=ORIENTED_EDGE('',*,*,#133,.F.);
#200=ORIENTED_EDGE('',*,*,#146,.T.);
#201=ORIENTED_EDGE('',*,*,#138,.T.);
#202=ORIENTED_EDGE('',*,*,#146,.F.);
#203=ORIENTED_EDGE('',*,*,#147,.F.);
#204=ORIENTED_EDGE('',*,*,#148,.T.);
#205=ORIENTED_EDGE('',*,*,#145,.F.);
#206=ORIENTED_EDGE('',*,*,#148,.F.);
#207=ORIENTED_EDGE('',*,*,#147,.T.);
#208=ORIENTED_EDGE('',*,*,#139,.T.);
#209=TOROIDAL_SURFACE('',#246,5.22106488649273,1.);
#210=TOROIDAL_SURFACE('',#251,3.61893132732144,1.);
#211=TOROIDAL_SURFACE('',#257,2.6,0.25);
#212=TOROIDAL_SURFACE('',#266,2.95,0.25);
#213=TOROIDAL_SURFACE('',#275,3.1,0.25);
#214=TOROIDAL_SURFACE('',#277,5.86077152772057,2.);
#215=TOROIDAL_SURFACE('',#279,7.93606797749979,3.);
#216=ADVANCED_FACE('',(#37),#209,.T.);
#217=ADVANCED_FACE('',(#38),#210,.T.);
#218=ADVANCED_FACE('',(#39,#27),#32,.T.);
#219=ADVANCED_FACE('',(#40),#211,.T.);
#220=ADVANCED_FACE('',(#41),#23,.T.);
#221=ADVANCED_FACE('',(#42,#28),#33,.T.);
#222=ADVANCED_FACE('',(#43),#212,.F.);
#223=ADVANCED_FACE('',(#44,#29),#34,.F.);
#224=ADVANCED_FACE('',(#45),#24,.F.);
#225=ADVANCED_FACE('',(#46),#213,.F.);
#226=ADVANCED_FACE('',(#47),#214,.F.);
#227=ADVANCED_FACE('',(#48),#215,.F.);
#228=ADVANCED_FACE('',(#49,#30),#35,.T.);
#229=ADVANCED_FACE('',(#50),#25,.F.);
#230=ADVANCED_FACE('',(#51),#26,.T.);
#231=ADVANCED_FACE('',(#52,#31),#36,.F.);
#232=CLOSED_SHELL('',(#216,#217,#218,#219,#220,#221,#222,#223,#224,#225,
#226,#227,#228,#229,#230,#231));
#233=DERIVED_UNIT_ELEMENT(#235,1.);
#234=DERIVED_UNIT_ELEMENT(#449,-3.);
#235=(
MASS_UNIT()
NAMED_UNIT(*)
SI_UNIT(.KILO.,.GRAM.)
);
#236=DERIVED_UNIT((#233,#234));
#237=MEASURE_REPRESENTATION_ITEM('density measure',
POSITIVE_RATIO_MEASURE(7850.),#236);
#238=PROPERTY_DEFINITION_REPRESENTATION(#243,#240);
#239=PROPERTY_DEFINITION_REPRESENTATION(#244,#241);
#240=REPRESENTATION('material name',(#242),#446);
#241=REPRESENTATION('density',(#237),#446);
#242=DESCRIPTIVE_REPRESENTATION_ITEM('Steel','Steel');
#243=PROPERTY_DEFINITION('material property','material name',#456);
#244=PROPERTY_DEFINITION('material property','density of part',#456);
#245=AXIS2_PLACEMENT_3D('',#378,#288,#289);
#246=AXIS2_PLACEMENT_3D('',#379,#290,#291);
#247=AXIS2_PLACEMENT_3D('',#381,#292,#293);
#248=AXIS2_PLACEMENT_3D('',#383,#294,#295);
#249=AXIS2_PLACEMENT_3D('',#385,#296,#297);
#250=AXIS2_PLACEMENT_3D('',#386,#298,#299);
#251=AXIS2_PLACEMENT_3D('',#387,#300,#301);
#252=AXIS2_PLACEMENT_3D('',#389,#302,#303);
#253=AXIS2_PLACEMENT_3D('',#391,#304,#305);
#254=AXIS2_PLACEMENT_3D('',#392,#306,#307);
#255=AXIS2_PLACEMENT_3D('',#393,#308,#309);
#256=AXIS2_PLACEMENT_3D('',#395,#310,#311);
#257=AXIS2_PLACEMENT_3D('',#396,#312,#313);
#258=AXIS2_PLACEMENT_3D('',#398,#314,#315);
#259=AXIS2_PLACEMENT_3D('',#400,#316,#317);
#260=AXIS2_PLACEMENT_3D('',#402,#318,#319);
#261=AXIS2_PLACEMENT_3D('',#403,#320,#321);
#262=AXIS2_PLACEMENT_3D('',#404,#322,#323);
#263=AXIS2_PLACEMENT_3D('',#407,#325,#326);
#264=AXIS2_PLACEMENT_3D('',#408,#327,#328);
#265=AXIS2_PLACEMENT_3D('',#410,#329,#330);
#266=AXIS2_PLACEMENT_3D('',#411,#331,#332);
#267=AXIS2_PLACEMENT_3D('',#414,#333,#334);
#268=AXIS2_PLACEMENT_3D('',#416,#335,#336);
#269=AXIS2_PLACEMENT_3D('',#417,#337,#338);
#270=AXIS2_PLACEMENT_3D('',#418,#339,#340);
#271=AXIS2_PLACEMENT_3D('',#419,#341,#342);
#272=AXIS2_PLACEMENT_3D('',#421,#343,#344);
#273=AXIS2_PLACEMENT_3D('',#422,#345,#346);
#274=AXIS2_PLACEMENT_3D('',#424,#347,#348);
#275=AXIS2_PLACEMENT_3D('',#426,#350,#351);
#276=AXIS2_PLACEMENT_3D('',#427,#352,#353);
#277=AXIS2_PLACEMENT_3D('',#428,#354,#355);
#278=AXIS2_PLACEMENT_3D('',#429,#356,#357);
#279=AXIS2_PLACEMENT_3D('',#430,#358,#359);
#280=AXIS2_PLACEMENT_3D('',#432,#360,#361);
#281=AXIS2_PLACEMENT_3D('',#433,#362,#363);
#282=AXIS2_PLACEMENT_3D('',#434,#364,#365);
#283=AXIS2_PLACEMENT_3D('',#436,#366,#367);
#284=AXIS2_PLACEMENT_3D('',#437,#368,#369);
#285=AXIS2_PLACEMENT_3D('',#439,#371,#372);
#286=AXIS2_PLACEMENT_3D('',#441,#373,#374);
#287=AXIS2_PLACEMENT_3D('',#443,#376,#377);
#288=DIRECTION('axis',(0.,0.,1.));
#289=DIRECTION('refdir',(1.,0.,0.));
#290=DIRECTION('center_axis',(0.,0.,1.));
#291=DIRECTION('ref_axis',(1.,0.,0.));
#292=DIRECTION('center_axis',(0.,0.,-1.));
#293=DIRECTION('ref_axis',(1.,0.,0.));
#294=DIRECTION('center_axis',(1.22464679914735E-16,-1.,0.));
#295=DIRECTION('ref_axis',(-1.,-1.22464679914735E-16,0.));
#296=DIRECTION('center_axis',(0.,0.,1.));
#297=DIRECTION('ref_axis',(1.,0.,0.));
#298=DIRECTION('center_axis',(0.,0.,1.));
#299=DIRECTION('ref_axis',(1.,0.,0.));
#300=DIRECTION('center_axis',(0.,0.,1.));
#301=DIRECTION('ref_axis',(1.,0.,0.));
#302=DIRECTION('center_axis',(0.,0.,-1.));
#303=DIRECTION('ref_axis',(-1.,0.,0.));
#304=DIRECTION('center_axis',(1.22464679914735E-16,-1.,0.));
#305=DIRECTION('ref_axis',(-1.,-1.22464679914735E-16,0.));
#306=DIRECTION('center_axis',(0.,0.,1.));
#307=DIRECTION('ref_axis',(-1.,0.,0.));
#308=DIRECTION('center_axis',(0.,0.,1.));
#309=DIRECTION('ref_axis',(-1.,0.,0.));
#310=DIRECTION('center_axis',(0.,0.,1.));
#311=DIRECTION('ref_axis',(-1.,0.,0.));
#312=DIRECTION('center_axis',(0.,0.,1.));
#313=DIRECTION('ref_axis',(1.,0.,0.));
#314=DIRECTION('center_axis',(0.,0.,-1.));
#315=DIRECTION('ref_axis',(-1.,0.,0.));
#316=DIRECTION('center_axis',(1.22464679914735E-16,-1.,0.));
#317=DIRECTION('ref_axis',(-1.,-1.22464679914735E-16,0.));
#318=DIRECTION('center_axis',(0.,0.,1.));
#319=DIRECTION('ref_axis',(-1.,0.,0.));
#320=DIRECTION('center_axis',(0.,0.,1.));
#321=DIRECTION('ref_axis',(-1.,0.,0.));
#322=DIRECTION('center_axis',(0.,0.,1.));
#323=DIRECTION('ref_axis',(-1.,0.,0.));
#324=DIRECTION('',(0.,0.,-1.));
#325=DIRECTION('center_axis',(0.,0.,-1.));
#326=DIRECTION('ref_axis',(-1.,0.,0.));
#327=DIRECTION('center_axis',(0.,0.,1.));
#328=DIRECTION('ref_axis',(-1.,0.,0.));
#329=DIRECTION('center_axis',(0.,0.,-1.));
#330=DIRECTION('ref_axis',(-1.,0.,0.));
#331=DIRECTION('center_axis',(0.,0.,-1.));
#332=DIRECTION('ref_axis',(-1.,0.,0.));
#333=DIRECTION('center_axis',(0.,0.,-1.));
#334=DIRECTION('ref_axis',(1.,0.,0.));
#335=DIRECTION('center_axis',(-1.22464679914735E-16,-1.,0.));
#336=DIRECTION('ref_axis',(1.,-1.22464679914735E-16,0.));
#337=DIRECTION('center_axis',(0.,0.,1.));
#338=DIRECTION('ref_axis',(1.,0.,0.));
#339=DIRECTION('center_axis',(0.,0.,-1.));
#340=DIRECTION('ref_axis',(1.,0.,0.));
#341=DIRECTION('center_axis',(0.,0.,1.));
#342=DIRECTION('ref_axis',(1.,0.,0.));
#343=DIRECTION('center_axis',(0.,0.,-1.));
#344=DIRECTION('ref_axis',(1.,0.,0.));
#345=DIRECTION('center_axis',(0.,0.,-1.));
#346=DIRECTION('ref_axis',(1.,0.,0.));
#347=DIRECTION('center_axis',(0.,0.,1.));
#348=DIRECTION('ref_axis',(1.,0.,0.));
#349=DIRECTION('',(0.,0.,1.));
#350=DIRECTION('center_axis',(0.,0.,-1.));
#351=DIRECTION('ref_axis',(-1.,0.,0.));
#352=DIRECTION('center_axis',(-1.22464679914735E-16,-1.,0.));
#353=DIRECTION('ref_axis',(1.,-1.22464679914735E-16,0.));
#354=DIRECTION('center_axis',(0.,0.,-1.));
#355=DIRECTION('ref_axis',(1.,1.22464679914735E-16,0.));
#356=DIRECTION('center_axis',(2.46519032881566E-32,1.,0.));
#357=DIRECTION('ref_axis',(-1.,2.46519032881566E-32,0.));
#358=DIRECTION('center_axis',(0.,0.,1.));
#359=DIRECTION('ref_axis',(-1.,0.,0.));
#360=DIRECTION('center_axis',(0.,0.,1.));
#361=DIRECTION('ref_axis',(-1.,0.,0.));
#362=DIRECTION('center_axis',(-1.22464679914735E-16,1.,0.));
#363=DIRECTION('ref_axis',(1.,1.22464679914735E-16,0.));
#364=DIRECTION('center_axis',(0.,0.,1.));
#365=DIRECTION('ref_axis',(1.,0.,0.));
#366=DIRECTION('center_axis',(0.,0.,1.));
#367=DIRECTION('ref_axis',(1.,0.,0.));
#368=DIRECTION('center_axis',(0.,0.,1.));
#369=DIRECTION('ref_axis',(1.,0.,0.));
#370=DIRECTION('',(0.,0.,-1.));
#371=DIRECTION('center_axis',(0.,0.,-1.));
#372=DIRECTION('ref_axis',(1.,0.,0.));
#373=DIRECTION('center_axis',(0.,0.,-1.));
#374=DIRECTION('ref_axis',(1.,0.,0.));
#375=DIRECTION('',(0.,0.,1.));
#376=DIRECTION('center_axis',(0.,0.,1.));
#377=DIRECTION('ref_axis',(1.,0.,0.));
#378=CARTESIAN_POINT('',(0.,0.,0.));
#379=CARTESIAN_POINT('Origin',(0.,0.,0.0625251974149432));
#380=CARTESIAN_POINT('',(-5.43430043356868,6.65509863157496E-16,1.0395260169966));
#381=CARTESIAN_POINT('Origin',(0.,0.,1.0395260169966));
#382=CARTESIAN_POINT('',(-5.8998156592445,-7.2251903626532E-16,0.796893898061208));
#383=CARTESIAN_POINT('Origin',(-5.22106488649273,-6.39396040138396E-16,
0.0625251974149432));
#384=CARTESIAN_POINT('',(5.8998156592445,7.2251903626532E-16,0.796893898061208));
#385=CARTESIAN_POINT('Origin',(0.,0.,0.796893898061208));
#386=CARTESIAN_POINT('Origin',(0.,0.,0.796893898061208));
#387=CARTESIAN_POINT('Origin',(0.,0.,1.));
#388=CARTESIAN_POINT('',(-3.61893132732144,-4.43191266633829E-16,2.));
#389=CARTESIAN_POINT('Origin',(0.,0.,2.));
#390=CARTESIAN_POINT('',(-4.36621139412115,-5.34706680821117E-16,1.66450921871997));
#391=CARTESIAN_POINT('Origin',(-3.61893132732144,-4.43191266633829E-16,
1.));
#392=CARTESIAN_POINT('Origin',(0.,0.,1.66450921871997));
#393=CARTESIAN_POINT('Origin',(0.,0.,2.));
#394=CARTESIAN_POINT('',(3.1,3.7964050773568E-16,2.));
#395=CARTESIAN_POINT('Origin',(0.,0.,2.));
#396=CARTESIAN_POINT('Origin',(0.,0.,6.55));
#397=CARTESIAN_POINT('',(-2.6,-3.18408167778312E-16,6.8));
#398=CARTESIAN_POINT('Origin',(0.,0.,6.8));
#399=CARTESIAN_POINT('',(-2.85,-3.49024337756996E-16,6.55));
#400=CARTESIAN_POINT('Origin',(-2.6,-3.18408167778312E-16,6.55));
#401=CARTESIAN_POINT('',(2.85,3.49024337756996E-16,6.55));
#402=CARTESIAN_POINT('Origin',(0.,0.,6.55));
#403=CARTESIAN_POINT('Origin',(0.,0.,6.55));
#404=CARTESIAN_POINT('Origin',(0.,0.,1.));
#405=CARTESIAN_POINT('',(2.85,-3.49024337756996E-16,2.25));
#406=CARTESIAN_POINT('',(2.85,3.49024337756996E-16,1.));
#407=CARTESIAN_POINT('Origin',(0.,0.,2.25));
#408=CARTESIAN_POINT('Origin',(0.,0.,6.8));
#409=CARTESIAN_POINT('',(-1.75,-2.14313189850787E-16,6.8));
#410=CARTESIAN_POINT('Origin',(0.,0.,6.8));
#411=CARTESIAN_POINT('Origin',(0.,0.,-0.25));
#412=CARTESIAN_POINT('',(-3.2,3.91886975727153E-16,-0.25));
#413=CARTESIAN_POINT('',(3.2,-3.91886975727153E-16,-0.25));
#414=CARTESIAN_POINT('Origin',(0.,0.,-0.25));
#415=CARTESIAN_POINT('',(2.95,-3.61270805748469E-16,0.));
#416=CARTESIAN_POINT('Origin',(2.95,-3.61270805748469E-16,-0.25));
#417=CARTESIAN_POINT('Origin',(0.,0.,0.));
#418=CARTESIAN_POINT('Origin',(0.,0.,-0.25));
#419=CARTESIAN_POINT('Origin',(0.,0.,0.));
#420=CARTESIAN_POINT('',(-1.75,-2.14313189850787E-16,0.));
#421=CARTESIAN_POINT('Origin',(0.,0.,0.));
#422=CARTESIAN_POINT('Origin',(0.,0.,0.));
#423=CARTESIAN_POINT('',(-3.2,-3.91886975727153E-16,-4.));
#424=CARTESIAN_POINT('Origin',(0.,0.,-4.));
#425=CARTESIAN_POINT('',(-3.2,3.91886975727153E-16,0.));
#426=CARTESIAN_POINT('Origin',(0.,0.,2.25));
#427=CARTESIAN_POINT('Origin',(3.1,-3.7964050773568E-16,2.25));
#428=CARTESIAN_POINT('Origin',(0.,0.,2.9935276561599));
#429=CARTESIAN_POINT('Origin',(-5.86077152772057,1.4447917289535E-31,2.9935276561599));
#430=CARTESIAN_POINT('Origin',(0.,0.,3.));
#431=CARTESIAN_POINT('',(7.93606797749979,9.71888024646093E-16,0.));
#432=CARTESIAN_POINT('Origin',(0.,0.,0.));
#433=CARTESIAN_POINT('Origin',(7.93606797749979,9.71888024646093E-16,3.));
#434=CARTESIAN_POINT('Origin',(0.,0.,0.));
#435=CARTESIAN_POINT('',(-9.,-1.10218211923262E-15,0.));
#436=CARTESIAN_POINT('Origin',(0.,0.,0.));
#437=CARTESIAN_POINT('Origin',(0.,0.,0.));
#438=CARTESIAN_POINT('',(-1.75,-2.14313189850787E-16,0.));
#439=CARTESIAN_POINT('Origin',(0.,0.,0.));
#440=CARTESIAN_POINT('',(-9.,-1.10218211923262E-15,-4.));
#441=CARTESIAN_POINT('Origin',(0.,0.,-4.));
#442=CARTESIAN_POINT('',(-9.,1.10218211923262E-15,0.));
#443=CARTESIAN_POINT('Origin',(0.,0.,-4.));
#444=UNCERTAINTY_MEASURE_WITH_UNIT(LENGTH_MEASURE(0.01),#448,
'DISTANCE_ACCURACY_VALUE',
'Maximum model space distance between geometric entities at asserted c
onnectivities');
#445=UNCERTAINTY_MEASURE_WITH_UNIT(LENGTH_MEASURE(0.01),#448,
'DISTANCE_ACCURACY_VALUE',
'Maximum model space distance between geometric entities at asserted c
onnectivities');
#446=(
GEOMETRIC_REPRESENTATION_CONTEXT(3)
GLOBAL_UNCERTAINTY_ASSIGNED_CONTEXT((#444))
GLOBAL_UNIT_ASSIGNED_CONTEXT((#448,#450,#451))
REPRESENTATION_CONTEXT('','3D')
);
#447=(
GEOMETRIC_REPRESENTATION_CONTEXT(3)
GLOBAL_UNCERTAINTY_ASSIGNED_CONTEXT((#445))
GLOBAL_UNIT_ASSIGNED_CONTEXT((#448,#450,#451))
REPRESENTATION_CONTEXT('','3D')
);
#448=(
LENGTH_UNIT()
NAMED_UNIT(*)
SI_UNIT(.MILLI.,.METRE.)
);
#449=(
LENGTH_UNIT()
NAMED_UNIT(*)
SI_UNIT($,.METRE.)
);
#450=(
NAMED_UNIT(*)
PLANE_ANGLE_UNIT()
SI_UNIT($,.RADIAN.)
);
#451=(
NAMED_UNIT(*)
SI_UNIT($,.STERADIAN.)
SOLID_ANGLE_UNIT()
);
#452=SHAPE_DEFINITION_REPRESENTATION(#453,#454);
#453=PRODUCT_DEFINITION_SHAPE('',$,#456);
#454=SHAPE_REPRESENTATION('',(#245),#446);
#455=PRODUCT_DEFINITION_CONTEXT('part definition',#460,'design');
#456=PRODUCT_DEFINITION('2026-06-23-11-18-40-676',
'Shouler Axis Bearing Spacer',#457,#455);
#457=PRODUCT_DEFINITION_FORMATION('',$,#462);
#458=PRODUCT_RELATED_PRODUCT_CATEGORY('Shouler Axis Bearing Spacer',
'Shouler Axis Bearing Spacer',(#462));
#459=APPLICATION_PROTOCOL_DEFINITION('international standard',
'automotive_design',2009,#460);
#460=APPLICATION_CONTEXT(
'Core Data for Automotive Mechanical Design Process');
#461=PRODUCT_CONTEXT('part definition',#460,'mechanical');
#462=PRODUCT('2026-06-23-11-18-40-676','Shouler Axis Bearing Spacer',$,
(#461));
#463=PRESENTATION_STYLE_ASSIGNMENT((#464));
#464=SURFACE_STYLE_USAGE(.BOTH.,#465);
#465=SURFACE_SIDE_STYLE('',(#466));
#466=SURFACE_STYLE_FILL_AREA(#467);
#467=FILL_AREA_STYLE('Steel - Satin',(#468));
#468=FILL_AREA_STYLE_COLOUR('Steel - Satin',#469);
#469=COLOUR_RGB('Steel - Satin',0.627450980392157,0.627450980392157,0.627450980392157);
ENDSEC;
END-ISO-10303-21;
