ISO-10303-21;
HEADER;
/* Generated by software containing ST-Developer
 * from STEP Tools, Inc. (www.steptools.com) 
 */

FILE_DESCRIPTION(
/* description */ (''),
/* implementation_level */ '2;1');

FILE_NAME(
/* name */ 'shoulder-elbow-servo-link.step',
/* time_stamp */ '2026-07-29T23:10:44-04:00',
/* author */ (''),
/* organization */ (''),
/* preprocessor_version */ 'ST-DEVELOPER v20.1',
/* originating_system */ 'Autodesk Translation Framework v15.8.0.0',
/* authorisation */ '');

FILE_SCHEMA (('AUTOMOTIVE_DESIGN { 1 0 10303 214 3 1 1 }'));
ENDSEC;

DATA;
#10=MECHANICAL_DESIGN_GEOMETRIC_PRESENTATION_REPRESENTATION('',(#13),#954);
#11=SHAPE_REPRESENTATION_RELATIONSHIP('SRR','None',#961,#12);
#12=ADVANCED_BREP_SHAPE_REPRESENTATION('',(#14),#953);
#13=STYLED_ITEM('',(#970),#14);
#14=MANIFOLD_SOLID_BREP('Body2',#582);
#15=FACE_BOUND('',#113,.T.);
#16=FACE_BOUND('',#114,.T.);
#17=FACE_BOUND('',#115,.T.);
#18=FACE_BOUND('',#116,.T.);
#19=FACE_BOUND('',#117,.T.);
#20=FACE_BOUND('',#118,.T.);
#21=FACE_BOUND('',#119,.T.);
#22=FACE_BOUND('',#120,.T.);
#23=FACE_BOUND('',#121,.T.);
#24=FACE_BOUND('',#122,.T.);
#25=FACE_BOUND('',#123,.T.);
#26=FACE_BOUND('',#124,.T.);
#27=FACE_BOUND('',#126,.T.);
#28=FACE_BOUND('',#127,.T.);
#29=FACE_BOUND('',#128,.T.);
#30=FACE_BOUND('',#129,.T.);
#31=FACE_BOUND('',#130,.T.);
#32=FACE_BOUND('',#131,.T.);
#33=FACE_BOUND('',#132,.T.);
#34=FACE_BOUND('',#133,.T.);
#35=FACE_BOUND('',#134,.T.);
#36=FACE_BOUND('',#135,.T.);
#37=FACE_BOUND('',#136,.T.);
#38=FACE_BOUND('',#137,.T.);
#39=FACE_BOUND('',#138,.T.);
#40=PLANE('',#599);
#41=PLANE('',#621);
#42=PLANE('',#622);
#43=PLANE('',#623);
#44=PLANE('',#627);
#45=PLANE('',#628);
#46=PLANE('',#629);
#47=PLANE('',#630);
#48=PLANE('',#631);
#49=PLANE('',#632);
#50=PLANE('',#633);
#51=PLANE('',#634);
#52=PLANE('',#635);
#53=PLANE('',#636);
#54=PLANE('',#637);
#55=PLANE('',#638);
#56=PLANE('',#642);
#57=PLANE('',#643);
#58=FACE_OUTER_BOUND('',#86,.T.);
#59=FACE_OUTER_BOUND('',#87,.T.);
#60=FACE_OUTER_BOUND('',#88,.T.);
#61=FACE_OUTER_BOUND('',#89,.T.);
#62=FACE_OUTER_BOUND('',#90,.T.);
#63=FACE_OUTER_BOUND('',#91,.T.);
#64=FACE_OUTER_BOUND('',#92,.T.);
#65=FACE_OUTER_BOUND('',#93,.T.);
#66=FACE_OUTER_BOUND('',#94,.T.);
#67=FACE_OUTER_BOUND('',#95,.T.);
#68=FACE_OUTER_BOUND('',#96,.T.);
#69=FACE_OUTER_BOUND('',#97,.T.);
#70=FACE_OUTER_BOUND('',#98,.T.);
#71=FACE_OUTER_BOUND('',#99,.T.);
#72=FACE_OUTER_BOUND('',#100,.T.);
#73=FACE_OUTER_BOUND('',#101,.T.);
#74=FACE_OUTER_BOUND('',#102,.T.);
#75=FACE_OUTER_BOUND('',#103,.T.);
#76=FACE_OUTER_BOUND('',#104,.T.);
#77=FACE_OUTER_BOUND('',#105,.T.);
#78=FACE_OUTER_BOUND('',#106,.T.);
#79=FACE_OUTER_BOUND('',#107,.T.);
#80=FACE_OUTER_BOUND('',#108,.T.);
#81=FACE_OUTER_BOUND('',#109,.T.);
#82=FACE_OUTER_BOUND('',#110,.T.);
#83=FACE_OUTER_BOUND('',#111,.T.);
#84=FACE_OUTER_BOUND('',#112,.T.);
#85=FACE_OUTER_BOUND('',#125,.T.);
#86=EDGE_LOOP('',(#394,#395,#396,#397));
#87=EDGE_LOOP('',(#398));
#88=EDGE_LOOP('',(#399,#400,#401,#402));
#89=EDGE_LOOP('',(#403,#404,#405,#406));
#90=EDGE_LOOP('',(#407,#408,#409,#410));
#91=EDGE_LOOP('',(#411,#412,#413,#414));
#92=EDGE_LOOP('',(#415,#416,#417,#418));
#93=EDGE_LOOP('',(#419,#420,#421,#422));
#94=EDGE_LOOP('',(#423,#424,#425,#426));
#95=EDGE_LOOP('',(#427,#428,#429,#430));
#96=EDGE_LOOP('',(#431,#432,#433,#434));
#97=EDGE_LOOP('',(#435,#436,#437,#438));
#98=EDGE_LOOP('',(#439,#440,#441,#442));
#99=EDGE_LOOP('',(#443,#444,#445,#446));
#100=EDGE_LOOP('',(#447,#448,#449,#450));
#101=EDGE_LOOP('',(#451,#452,#453,#454));
#102=EDGE_LOOP('',(#455,#456,#457,#458));
#103=EDGE_LOOP('',(#459,#460,#461,#462));
#104=EDGE_LOOP('',(#463,#464,#465,#466));
#105=EDGE_LOOP('',(#467,#468,#469,#470));
#106=EDGE_LOOP('',(#471,#472,#473,#474));
#107=EDGE_LOOP('',(#475,#476,#477,#478));
#108=EDGE_LOOP('',(#479,#480,#481,#482));
#109=EDGE_LOOP('',(#483,#484,#485,#486));
#110=EDGE_LOOP('',(#487,#488,#489,#490));
#111=EDGE_LOOP('',(#491,#492,#493,#494));
#112=EDGE_LOOP('',(#495,#496,#497,#498));
#113=EDGE_LOOP('',(#499));
#114=EDGE_LOOP('',(#500));
#115=EDGE_LOOP('',(#501));
#116=EDGE_LOOP('',(#502,#503,#504));
#117=EDGE_LOOP('',(#505));
#118=EDGE_LOOP('',(#506,#507,#508));
#119=EDGE_LOOP('',(#509,#510,#511));
#120=EDGE_LOOP('',(#512,#513,#514));
#121=EDGE_LOOP('',(#515));
#122=EDGE_LOOP('',(#516));
#123=EDGE_LOOP('',(#517));
#124=EDGE_LOOP('',(#518));
#125=EDGE_LOOP('',(#519,#520,#521,#522));
#126=EDGE_LOOP('',(#523));
#127=EDGE_LOOP('',(#524));
#128=EDGE_LOOP('',(#525));
#129=EDGE_LOOP('',(#526));
#130=EDGE_LOOP('',(#527,#528,#529));
#131=EDGE_LOOP('',(#530,#531,#532));
#132=EDGE_LOOP('',(#533,#534,#535));
#133=EDGE_LOOP('',(#536));
#134=EDGE_LOOP('',(#537,#538,#539));
#135=EDGE_LOOP('',(#540));
#136=EDGE_LOOP('',(#541));
#137=EDGE_LOOP('',(#542));
#138=EDGE_LOOP('',(#543));
#139=LINE('',#802,#194);
#140=LINE('',#809,#195);
#141=LINE('',#815,#196);
#142=LINE('',#821,#197);
#143=LINE('',#827,#198);
#144=LINE('',#833,#199);
#145=LINE('',#839,#200);
#146=LINE('',#845,#201);
#147=LINE('',#850,#202);
#148=LINE('',#852,#203);
#149=LINE('',#854,#204);
#150=LINE('',#855,#205);
#151=LINE('',#858,#206);
#152=LINE('',#860,#207);
#153=LINE('',#861,#208);
#154=LINE('',#863,#209);
#155=LINE('',#864,#210);
#156=LINE('',#869,#211);
#157=LINE('',#874,#212);
#158=LINE('',#876,#213);
#159=LINE('',#878,#214);
#160=LINE('',#879,#215);
#161=LINE('',#882,#216);
#162=LINE('',#884,#217);
#163=LINE('',#885,#218);
#164=LINE('',#887,#219);
#165=LINE('',#888,#220);
#166=LINE('',#892,#221);
#167=LINE('',#894,#222);
#168=LINE('',#896,#223);
#169=LINE('',#897,#224);
#170=LINE('',#900,#225);
#171=LINE('',#902,#226);
#172=LINE('',#903,#227);
#173=LINE('',#905,#228);
#174=LINE('',#906,#229);
#175=LINE('',#910,#230);
#176=LINE('',#912,#231);
#177=LINE('',#914,#232);
#178=LINE('',#915,#233);
#179=LINE('',#918,#234);
#180=LINE('',#920,#235);
#181=LINE('',#921,#236);
#182=LINE('',#923,#237);
#183=LINE('',#924,#238);
#184=LINE('',#928,#239);
#185=LINE('',#930,#240);
#186=LINE('',#932,#241);
#187=LINE('',#933,#242);
#188=LINE('',#936,#243);
#189=LINE('',#938,#244);
#190=LINE('',#939,#245);
#191=LINE('',#942,#246);
#192=LINE('',#944,#247);
#193=LINE('',#945,#248);
#194=VECTOR('',#650,3.);
#195=VECTOR('',#659,1.75);
#196=VECTOR('',#666,1.75);
#197=VECTOR('',#673,1.75);
#198=VECTOR('',#680,1.74999999999999);
#199=VECTOR('',#687,1.75);
#200=VECTOR('',#694,1.75);
#201=VECTOR('',#701,1.75);
#202=VECTOR('',#706,10.);
#203=VECTOR('',#707,10.);
#204=VECTOR('',#708,10.);
#205=VECTOR('',#709,10.);
#206=VECTOR('',#712,10.);
#207=VECTOR('',#713,10.);
#208=VECTOR('',#714,10.);
#209=VECTOR('',#717,10.);
#210=VECTOR('',#718,10.);
#211=VECTOR('',#723,1.75);
#212=VECTOR('',#728,10.);
#213=VECTOR('',#729,10.);
#214=VECTOR('',#730,10.);
#215=VECTOR('',#731,10.);
#216=VECTOR('',#734,10.);
#217=VECTOR('',#735,10.);
#218=VECTOR('',#736,10.);
#219=VECTOR('',#739,10.);
#220=VECTOR('',#740,10.);
#221=VECTOR('',#743,10.);
#222=VECTOR('',#744,10.);
#223=VECTOR('',#745,10.);
#224=VECTOR('',#746,10.);
#225=VECTOR('',#749,10.);
#226=VECTOR('',#750,10.);
#227=VECTOR('',#751,10.);
#228=VECTOR('',#754,10.);
#229=VECTOR('',#755,10.);
#230=VECTOR('',#758,10.);
#231=VECTOR('',#759,10.);
#232=VECTOR('',#760,10.);
#233=VECTOR('',#761,10.);
#234=VECTOR('',#764,10.);
#235=VECTOR('',#765,10.);
#236=VECTOR('',#766,10.);
#237=VECTOR('',#769,10.);
#238=VECTOR('',#770,10.);
#239=VECTOR('',#773,10.);
#240=VECTOR('',#774,10.);
#241=VECTOR('',#775,10.);
#242=VECTOR('',#776,10.);
#243=VECTOR('',#779,10.);
#244=VECTOR('',#780,10.);
#245=VECTOR('',#781,10.);
#246=VECTOR('',#784,10.);
#247=VECTOR('',#785,10.);
#248=VECTOR('',#786,10.);
#249=CIRCLE('',#597,3.);
#250=CIRCLE('',#598,3.);
#251=CIRCLE('',#601,1.75);
#252=CIRCLE('',#602,1.75);
#253=CIRCLE('',#604,1.75);
#254=CIRCLE('',#605,1.75);
#255=CIRCLE('',#607,1.75);
#256=CIRCLE('',#608,1.75);
#257=CIRCLE('',#610,1.74999999999999);
#258=CIRCLE('',#611,1.74999999999999);
#259=CIRCLE('',#613,1.75);
#260=CIRCLE('',#614,1.75);
#261=CIRCLE('',#616,1.75);
#262=CIRCLE('',#617,1.75);
#263=CIRCLE('',#619,1.75);
#264=CIRCLE('',#620,1.75);
#265=CIRCLE('',#625,1.75);
#266=CIRCLE('',#626,1.75);
#267=CIRCLE('',#640,17.5);
#268=CIRCLE('',#641,17.5);
#269=VERTEX_POINT('',#799);
#270=VERTEX_POINT('',#801);
#271=VERTEX_POINT('',#806);
#272=VERTEX_POINT('',#808);
#273=VERTEX_POINT('',#812);
#274=VERTEX_POINT('',#814);
#275=VERTEX_POINT('',#818);
#276=VERTEX_POINT('',#820);
#277=VERTEX_POINT('',#824);
#278=VERTEX_POINT('',#826);
#279=VERTEX_POINT('',#830);
#280=VERTEX_POINT('',#832);
#281=VERTEX_POINT('',#836);
#282=VERTEX_POINT('',#838);
#283=VERTEX_POINT('',#842);
#284=VERTEX_POINT('',#844);
#285=VERTEX_POINT('',#848);
#286=VERTEX_POINT('',#849);
#287=VERTEX_POINT('',#851);
#288=VERTEX_POINT('',#853);
#289=VERTEX_POINT('',#857);
#290=VERTEX_POINT('',#859);
#291=VERTEX_POINT('',#866);
#292=VERTEX_POINT('',#868);
#293=VERTEX_POINT('',#872);
#294=VERTEX_POINT('',#873);
#295=VERTEX_POINT('',#875);
#296=VERTEX_POINT('',#877);
#297=VERTEX_POINT('',#881);
#298=VERTEX_POINT('',#883);
#299=VERTEX_POINT('',#890);
#300=VERTEX_POINT('',#891);
#301=VERTEX_POINT('',#893);
#302=VERTEX_POINT('',#895);
#303=VERTEX_POINT('',#899);
#304=VERTEX_POINT('',#901);
#305=VERTEX_POINT('',#908);
#306=VERTEX_POINT('',#909);
#307=VERTEX_POINT('',#911);
#308=VERTEX_POINT('',#913);
#309=VERTEX_POINT('',#917);
#310=VERTEX_POINT('',#919);
#311=VERTEX_POINT('',#926);
#312=VERTEX_POINT('',#927);
#313=VERTEX_POINT('',#929);
#314=VERTEX_POINT('',#931);
#315=VERTEX_POINT('',#935);
#316=VERTEX_POINT('',#937);
#317=VERTEX_POINT('',#941);
#318=VERTEX_POINT('',#943);
#319=EDGE_CURVE('',#269,#269,#249,.T.);
#320=EDGE_CURVE('',#269,#270,#139,.T.);
#321=EDGE_CURVE('',#270,#270,#250,.T.);
#322=EDGE_CURVE('',#271,#271,#251,.T.);
#323=EDGE_CURVE('',#271,#272,#140,.T.);
#324=EDGE_CURVE('',#272,#272,#252,.T.);
#325=EDGE_CURVE('',#273,#273,#253,.T.);
#326=EDGE_CURVE('',#273,#274,#141,.T.);
#327=EDGE_CURVE('',#274,#274,#254,.T.);
#328=EDGE_CURVE('',#275,#275,#255,.T.);
#329=EDGE_CURVE('',#275,#276,#142,.T.);
#330=EDGE_CURVE('',#276,#276,#256,.T.);
#331=EDGE_CURVE('',#277,#277,#257,.T.);
#332=EDGE_CURVE('',#277,#278,#143,.T.);
#333=EDGE_CURVE('',#278,#278,#258,.T.);
#334=EDGE_CURVE('',#279,#279,#259,.T.);
#335=EDGE_CURVE('',#279,#280,#144,.T.);
#336=EDGE_CURVE('',#280,#280,#260,.T.);
#337=EDGE_CURVE('',#281,#281,#261,.T.);
#338=EDGE_CURVE('',#281,#282,#145,.T.);
#339=EDGE_CURVE('',#282,#282,#262,.T.);
#340=EDGE_CURVE('',#283,#283,#263,.T.);
#341=EDGE_CURVE('',#283,#284,#146,.T.);
#342=EDGE_CURVE('',#284,#284,#264,.T.);
#343=EDGE_CURVE('',#285,#286,#147,.T.);
#344=EDGE_CURVE('',#286,#287,#148,.T.);
#345=EDGE_CURVE('',#288,#287,#149,.T.);
#346=EDGE_CURVE('',#285,#288,#150,.T.);
#347=EDGE_CURVE('',#289,#285,#151,.T.);
#348=EDGE_CURVE('',#290,#288,#152,.T.);
#349=EDGE_CURVE('',#289,#290,#153,.T.);
#350=EDGE_CURVE('',#286,#289,#154,.T.);
#351=EDGE_CURVE('',#287,#290,#155,.T.);
#352=EDGE_CURVE('',#291,#291,#265,.T.);
#353=EDGE_CURVE('',#291,#292,#156,.T.);
#354=EDGE_CURVE('',#292,#292,#266,.T.);
#355=EDGE_CURVE('',#293,#294,#157,.T.);
#356=EDGE_CURVE('',#294,#295,#158,.T.);
#357=EDGE_CURVE('',#296,#295,#159,.T.);
#358=EDGE_CURVE('',#293,#296,#160,.T.);
#359=EDGE_CURVE('',#297,#293,#161,.T.);
#360=EDGE_CURVE('',#298,#296,#162,.T.);
#361=EDGE_CURVE('',#297,#298,#163,.T.);
#362=EDGE_CURVE('',#294,#297,#164,.T.);
#363=EDGE_CURVE('',#295,#298,#165,.T.);
#364=EDGE_CURVE('',#299,#300,#166,.T.);
#365=EDGE_CURVE('',#300,#301,#167,.T.);
#366=EDGE_CURVE('',#302,#301,#168,.T.);
#367=EDGE_CURVE('',#299,#302,#169,.T.);
#368=EDGE_CURVE('',#303,#299,#170,.T.);
#369=EDGE_CURVE('',#304,#302,#171,.T.);
#370=EDGE_CURVE('',#303,#304,#172,.T.);
#371=EDGE_CURVE('',#300,#303,#173,.T.);
#372=EDGE_CURVE('',#301,#304,#174,.T.);
#373=EDGE_CURVE('',#305,#306,#175,.T.);
#374=EDGE_CURVE('',#306,#307,#176,.T.);
#375=EDGE_CURVE('',#308,#307,#177,.T.);
#376=EDGE_CURVE('',#305,#308,#178,.T.);
#377=EDGE_CURVE('',#309,#305,#179,.T.);
#378=EDGE_CURVE('',#310,#308,#180,.T.);
#379=EDGE_CURVE('',#309,#310,#181,.T.);
#380=EDGE_CURVE('',#306,#309,#182,.T.);
#381=EDGE_CURVE('',#307,#310,#183,.T.);
#382=EDGE_CURVE('',#311,#312,#184,.T.);
#383=EDGE_CURVE('',#311,#313,#185,.T.);
#384=EDGE_CURVE('',#314,#313,#186,.T.);
#385=EDGE_CURVE('',#312,#314,#187,.T.);
#386=EDGE_CURVE('',#315,#312,#188,.T.);
#387=EDGE_CURVE('',#316,#314,#189,.T.);
#388=EDGE_CURVE('',#315,#316,#190,.T.);
#389=EDGE_CURVE('',#315,#317,#191,.T.);
#390=EDGE_CURVE('',#318,#316,#192,.T.);
#391=EDGE_CURVE('',#317,#318,#193,.T.);
#392=EDGE_CURVE('',#311,#317,#267,.T.);
#393=EDGE_CURVE('',#313,#318,#268,.T.);
#394=ORIENTED_EDGE('',*,*,#319,.F.);
#395=ORIENTED_EDGE('',*,*,#320,.T.);
#396=ORIENTED_EDGE('',*,*,#321,.T.);
#397=ORIENTED_EDGE('',*,*,#320,.F.);
#398=ORIENTED_EDGE('',*,*,#321,.F.);
#399=ORIENTED_EDGE('',*,*,#322,.F.);
#400=ORIENTED_EDGE('',*,*,#323,.T.);
#401=ORIENTED_EDGE('',*,*,#324,.F.);
#402=ORIENTED_EDGE('',*,*,#323,.F.);
#403=ORIENTED_EDGE('',*,*,#325,.F.);
#404=ORIENTED_EDGE('',*,*,#326,.T.);
#405=ORIENTED_EDGE('',*,*,#327,.F.);
#406=ORIENTED_EDGE('',*,*,#326,.F.);
#407=ORIENTED_EDGE('',*,*,#328,.F.);
#408=ORIENTED_EDGE('',*,*,#329,.T.);
#409=ORIENTED_EDGE('',*,*,#330,.F.);
#410=ORIENTED_EDGE('',*,*,#329,.F.);
#411=ORIENTED_EDGE('',*,*,#331,.F.);
#412=ORIENTED_EDGE('',*,*,#332,.T.);
#413=ORIENTED_EDGE('',*,*,#333,.F.);
#414=ORIENTED_EDGE('',*,*,#332,.F.);
#415=ORIENTED_EDGE('',*,*,#334,.F.);
#416=ORIENTED_EDGE('',*,*,#335,.T.);
#417=ORIENTED_EDGE('',*,*,#336,.T.);
#418=ORIENTED_EDGE('',*,*,#335,.F.);
#419=ORIENTED_EDGE('',*,*,#337,.F.);
#420=ORIENTED_EDGE('',*,*,#338,.T.);
#421=ORIENTED_EDGE('',*,*,#339,.T.);
#422=ORIENTED_EDGE('',*,*,#338,.F.);
#423=ORIENTED_EDGE('',*,*,#340,.F.);
#424=ORIENTED_EDGE('',*,*,#341,.T.);
#425=ORIENTED_EDGE('',*,*,#342,.T.);
#426=ORIENTED_EDGE('',*,*,#341,.F.);
#427=ORIENTED_EDGE('',*,*,#343,.T.);
#428=ORIENTED_EDGE('',*,*,#344,.T.);
#429=ORIENTED_EDGE('',*,*,#345,.F.);
#430=ORIENTED_EDGE('',*,*,#346,.F.);
#431=ORIENTED_EDGE('',*,*,#347,.T.);
#432=ORIENTED_EDGE('',*,*,#346,.T.);
#433=ORIENTED_EDGE('',*,*,#348,.F.);
#434=ORIENTED_EDGE('',*,*,#349,.F.);
#435=ORIENTED_EDGE('',*,*,#350,.T.);
#436=ORIENTED_EDGE('',*,*,#349,.T.);
#437=ORIENTED_EDGE('',*,*,#351,.F.);
#438=ORIENTED_EDGE('',*,*,#344,.F.);
#439=ORIENTED_EDGE('',*,*,#352,.F.);
#440=ORIENTED_EDGE('',*,*,#353,.T.);
#441=ORIENTED_EDGE('',*,*,#354,.T.);
#442=ORIENTED_EDGE('',*,*,#353,.F.);
#443=ORIENTED_EDGE('',*,*,#355,.T.);
#444=ORIENTED_EDGE('',*,*,#356,.T.);
#445=ORIENTED_EDGE('',*,*,#357,.F.);
#446=ORIENTED_EDGE('',*,*,#358,.F.);
#447=ORIENTED_EDGE('',*,*,#359,.T.);
#448=ORIENTED_EDGE('',*,*,#358,.T.);
#449=ORIENTED_EDGE('',*,*,#360,.F.);
#450=ORIENTED_EDGE('',*,*,#361,.F.);
#451=ORIENTED_EDGE('',*,*,#362,.T.);
#452=ORIENTED_EDGE('',*,*,#361,.T.);
#453=ORIENTED_EDGE('',*,*,#363,.F.);
#454=ORIENTED_EDGE('',*,*,#356,.F.);
#455=ORIENTED_EDGE('',*,*,#364,.T.);
#456=ORIENTED_EDGE('',*,*,#365,.T.);
#457=ORIENTED_EDGE('',*,*,#366,.F.);
#458=ORIENTED_EDGE('',*,*,#367,.F.);
#459=ORIENTED_EDGE('',*,*,#368,.T.);
#460=ORIENTED_EDGE('',*,*,#367,.T.);
#461=ORIENTED_EDGE('',*,*,#369,.F.);
#462=ORIENTED_EDGE('',*,*,#370,.F.);
#463=ORIENTED_EDGE('',*,*,#371,.T.);
#464=ORIENTED_EDGE('',*,*,#370,.T.);
#465=ORIENTED_EDGE('',*,*,#372,.F.);
#466=ORIENTED_EDGE('',*,*,#365,.F.);
#467=ORIENTED_EDGE('',*,*,#373,.T.);
#468=ORIENTED_EDGE('',*,*,#374,.T.);
#469=ORIENTED_EDGE('',*,*,#375,.F.);
#470=ORIENTED_EDGE('',*,*,#376,.F.);
#471=ORIENTED_EDGE('',*,*,#377,.T.);
#472=ORIENTED_EDGE('',*,*,#376,.T.);
#473=ORIENTED_EDGE('',*,*,#378,.F.);
#474=ORIENTED_EDGE('',*,*,#379,.F.);
#475=ORIENTED_EDGE('',*,*,#380,.T.);
#476=ORIENTED_EDGE('',*,*,#379,.T.);
#477=ORIENTED_EDGE('',*,*,#381,.F.);
#478=ORIENTED_EDGE('',*,*,#374,.F.);
#479=ORIENTED_EDGE('',*,*,#382,.F.);
#480=ORIENTED_EDGE('',*,*,#383,.T.);
#481=ORIENTED_EDGE('',*,*,#384,.F.);
#482=ORIENTED_EDGE('',*,*,#385,.F.);
#483=ORIENTED_EDGE('',*,*,#386,.T.);
#484=ORIENTED_EDGE('',*,*,#385,.T.);
#485=ORIENTED_EDGE('',*,*,#387,.F.);
#486=ORIENTED_EDGE('',*,*,#388,.F.);
#487=ORIENTED_EDGE('',*,*,#389,.F.);
#488=ORIENTED_EDGE('',*,*,#388,.T.);
#489=ORIENTED_EDGE('',*,*,#390,.F.);
#490=ORIENTED_EDGE('',*,*,#391,.F.);
#491=ORIENTED_EDGE('',*,*,#392,.T.);
#492=ORIENTED_EDGE('',*,*,#391,.T.);
#493=ORIENTED_EDGE('',*,*,#393,.F.);
#494=ORIENTED_EDGE('',*,*,#383,.F.);
#495=ORIENTED_EDGE('',*,*,#393,.T.);
#496=ORIENTED_EDGE('',*,*,#390,.T.);
#497=ORIENTED_EDGE('',*,*,#387,.T.);
#498=ORIENTED_EDGE('',*,*,#384,.T.);
#499=ORIENTED_EDGE('',*,*,#334,.T.);
#500=ORIENTED_EDGE('',*,*,#337,.T.);
#501=ORIENTED_EDGE('',*,*,#340,.T.);
#502=ORIENTED_EDGE('',*,*,#351,.T.);
#503=ORIENTED_EDGE('',*,*,#348,.T.);
#504=ORIENTED_EDGE('',*,*,#345,.T.);
#505=ORIENTED_EDGE('',*,*,#352,.T.);
#506=ORIENTED_EDGE('',*,*,#363,.T.);
#507=ORIENTED_EDGE('',*,*,#360,.T.);
#508=ORIENTED_EDGE('',*,*,#357,.T.);
#509=ORIENTED_EDGE('',*,*,#372,.T.);
#510=ORIENTED_EDGE('',*,*,#369,.T.);
#511=ORIENTED_EDGE('',*,*,#366,.T.);
#512=ORIENTED_EDGE('',*,*,#381,.T.);
#513=ORIENTED_EDGE('',*,*,#378,.T.);
#514=ORIENTED_EDGE('',*,*,#375,.T.);
#515=ORIENTED_EDGE('',*,*,#333,.T.);
#516=ORIENTED_EDGE('',*,*,#330,.T.);
#517=ORIENTED_EDGE('',*,*,#327,.T.);
#518=ORIENTED_EDGE('',*,*,#324,.T.);
#519=ORIENTED_EDGE('',*,*,#392,.F.);
#520=ORIENTED_EDGE('',*,*,#382,.T.);
#521=ORIENTED_EDGE('',*,*,#386,.F.);
#522=ORIENTED_EDGE('',*,*,#389,.T.);
#523=ORIENTED_EDGE('',*,*,#322,.T.);
#524=ORIENTED_EDGE('',*,*,#325,.T.);
#525=ORIENTED_EDGE('',*,*,#328,.T.);
#526=ORIENTED_EDGE('',*,*,#331,.T.);
#527=ORIENTED_EDGE('',*,*,#380,.F.);
#528=ORIENTED_EDGE('',*,*,#373,.F.);
#529=ORIENTED_EDGE('',*,*,#377,.F.);
#530=ORIENTED_EDGE('',*,*,#371,.F.);
#531=ORIENTED_EDGE('',*,*,#364,.F.);
#532=ORIENTED_EDGE('',*,*,#368,.F.);
#533=ORIENTED_EDGE('',*,*,#362,.F.);
#534=ORIENTED_EDGE('',*,*,#355,.F.);
#535=ORIENTED_EDGE('',*,*,#359,.F.);
#536=ORIENTED_EDGE('',*,*,#354,.F.);
#537=ORIENTED_EDGE('',*,*,#350,.F.);
#538=ORIENTED_EDGE('',*,*,#343,.F.);
#539=ORIENTED_EDGE('',*,*,#347,.F.);
#540=ORIENTED_EDGE('',*,*,#342,.F.);
#541=ORIENTED_EDGE('',*,*,#339,.F.);
#542=ORIENTED_EDGE('',*,*,#336,.F.);
#543=ORIENTED_EDGE('',*,*,#319,.T.);
#544=CYLINDRICAL_SURFACE('',#596,3.);
#545=CYLINDRICAL_SURFACE('',#600,1.75);
#546=CYLINDRICAL_SURFACE('',#603,1.75);
#547=CYLINDRICAL_SURFACE('',#606,1.75);
#548=CYLINDRICAL_SURFACE('',#609,1.74999999999999);
#549=CYLINDRICAL_SURFACE('',#612,1.75);
#550=CYLINDRICAL_SURFACE('',#615,1.75);
#551=CYLINDRICAL_SURFACE('',#618,1.75);
#552=CYLINDRICAL_SURFACE('',#624,1.75);
#553=CYLINDRICAL_SURFACE('',#639,17.5);
#554=ADVANCED_FACE('',(#58),#544,.F.);
#555=ADVANCED_FACE('',(#59),#40,.F.);
#556=ADVANCED_FACE('',(#60),#545,.F.);
#557=ADVANCED_FACE('',(#61),#546,.F.);
#558=ADVANCED_FACE('',(#62),#547,.F.);
#559=ADVANCED_FACE('',(#63),#548,.F.);
#560=ADVANCED_FACE('',(#64),#549,.F.);
#561=ADVANCED_FACE('',(#65),#550,.F.);
#562=ADVANCED_FACE('',(#66),#551,.F.);
#563=ADVANCED_FACE('',(#67),#41,.T.);
#564=ADVANCED_FACE('',(#68),#42,.T.);
#565=ADVANCED_FACE('',(#69),#43,.T.);
#566=ADVANCED_FACE('',(#70),#552,.F.);
#567=ADVANCED_FACE('',(#71),#44,.T.);
#568=ADVANCED_FACE('',(#72),#45,.T.);
#569=ADVANCED_FACE('',(#73),#46,.T.);
#570=ADVANCED_FACE('',(#74),#47,.T.);
#571=ADVANCED_FACE('',(#75),#48,.T.);
#572=ADVANCED_FACE('',(#76),#49,.T.);
#573=ADVANCED_FACE('',(#77),#50,.T.);
#574=ADVANCED_FACE('',(#78),#51,.T.);
#575=ADVANCED_FACE('',(#79),#52,.T.);
#576=ADVANCED_FACE('',(#80),#53,.T.);
#577=ADVANCED_FACE('',(#81),#54,.T.);
#578=ADVANCED_FACE('',(#82),#55,.T.);
#579=ADVANCED_FACE('',(#83),#553,.T.);
#580=ADVANCED_FACE('',(#84,#15,#16,#17,#18,#19,#20,#21,#22,#23,#24,#25,
#26),#56,.T.);
#581=ADVANCED_FACE('',(#85,#27,#28,#29,#30,#31,#32,#33,#34,#35,#36,#37,
#38,#39),#57,.F.);
#582=CLOSED_SHELL('',(#554,#555,#556,#557,#558,#559,#560,#561,#562,#563,
#564,#565,#566,#567,#568,#569,#570,#571,#572,#573,#574,#575,#576,#577,#578,
#579,#580,#581));
#583=DERIVED_UNIT_ELEMENT(#585,1.);
#584=DERIVED_UNIT_ELEMENT(#956,-3.);
#585=(
MASS_UNIT()
NAMED_UNIT(*)
SI_UNIT(.KILO.,.GRAM.)
);
#586=DERIVED_UNIT((#583,#584));
#587=MEASURE_REPRESENTATION_ITEM('density measure',
POSITIVE_RATIO_MEASURE(7850.),#586);
#588=PROPERTY_DEFINITION_REPRESENTATION(#593,#590);
#589=PROPERTY_DEFINITION_REPRESENTATION(#594,#591);
#590=REPRESENTATION('material name',(#592),#953);
#591=REPRESENTATION('density',(#587),#953);
#592=DESCRIPTIVE_REPRESENTATION_ITEM('Steel','Steel');
#593=PROPERTY_DEFINITION('material property','material name',#963);
#594=PROPERTY_DEFINITION('material property','density of part',#963);
#595=AXIS2_PLACEMENT_3D('',#797,#644,#645);
#596=AXIS2_PLACEMENT_3D('',#798,#646,#647);
#597=AXIS2_PLACEMENT_3D('',#800,#648,#649);
#598=AXIS2_PLACEMENT_3D('',#803,#651,#652);
#599=AXIS2_PLACEMENT_3D('',#804,#653,#654);
#600=AXIS2_PLACEMENT_3D('',#805,#655,#656);
#601=AXIS2_PLACEMENT_3D('',#807,#657,#658);
#602=AXIS2_PLACEMENT_3D('',#810,#660,#661);
#603=AXIS2_PLACEMENT_3D('',#811,#662,#663);
#604=AXIS2_PLACEMENT_3D('',#813,#664,#665);
#605=AXIS2_PLACEMENT_3D('',#816,#667,#668);
#606=AXIS2_PLACEMENT_3D('',#817,#669,#670);
#607=AXIS2_PLACEMENT_3D('',#819,#671,#672);
#608=AXIS2_PLACEMENT_3D('',#822,#674,#675);
#609=AXIS2_PLACEMENT_3D('',#823,#676,#677);
#610=AXIS2_PLACEMENT_3D('',#825,#678,#679);
#611=AXIS2_PLACEMENT_3D('',#828,#681,#682);
#612=AXIS2_PLACEMENT_3D('',#829,#683,#684);
#613=AXIS2_PLACEMENT_3D('',#831,#685,#686);
#614=AXIS2_PLACEMENT_3D('',#834,#688,#689);
#615=AXIS2_PLACEMENT_3D('',#835,#690,#691);
#616=AXIS2_PLACEMENT_3D('',#837,#692,#693);
#617=AXIS2_PLACEMENT_3D('',#840,#695,#696);
#618=AXIS2_PLACEMENT_3D('',#841,#697,#698);
#619=AXIS2_PLACEMENT_3D('',#843,#699,#700);
#620=AXIS2_PLACEMENT_3D('',#846,#702,#703);
#621=AXIS2_PLACEMENT_3D('',#847,#704,#705);
#622=AXIS2_PLACEMENT_3D('',#856,#710,#711);
#623=AXIS2_PLACEMENT_3D('',#862,#715,#716);
#624=AXIS2_PLACEMENT_3D('',#865,#719,#720);
#625=AXIS2_PLACEMENT_3D('',#867,#721,#722);
#626=AXIS2_PLACEMENT_3D('',#870,#724,#725);
#627=AXIS2_PLACEMENT_3D('',#871,#726,#727);
#628=AXIS2_PLACEMENT_3D('',#880,#732,#733);
#629=AXIS2_PLACEMENT_3D('',#886,#737,#738);
#630=AXIS2_PLACEMENT_3D('',#889,#741,#742);
#631=AXIS2_PLACEMENT_3D('',#898,#747,#748);
#632=AXIS2_PLACEMENT_3D('',#904,#752,#753);
#633=AXIS2_PLACEMENT_3D('',#907,#756,#757);
#634=AXIS2_PLACEMENT_3D('',#916,#762,#763);
#635=AXIS2_PLACEMENT_3D('',#922,#767,#768);
#636=AXIS2_PLACEMENT_3D('',#925,#771,#772);
#637=AXIS2_PLACEMENT_3D('',#934,#777,#778);
#638=AXIS2_PLACEMENT_3D('',#940,#782,#783);
#639=AXIS2_PLACEMENT_3D('',#946,#787,#788);
#640=AXIS2_PLACEMENT_3D('',#947,#789,#790);
#641=AXIS2_PLACEMENT_3D('',#948,#791,#792);
#642=AXIS2_PLACEMENT_3D('',#949,#793,#794);
#643=AXIS2_PLACEMENT_3D('',#950,#795,#796);
#644=DIRECTION('axis',(0.,0.,1.));
#645=DIRECTION('refdir',(1.,0.,0.));
#646=DIRECTION('center_axis',(0.,0.,1.));
#647=DIRECTION('ref_axis',(1.,0.,0.));
#648=DIRECTION('center_axis',(0.,0.,1.));
#649=DIRECTION('ref_axis',(1.,0.,0.));
#650=DIRECTION('',(0.,0.,1.));
#651=DIRECTION('center_axis',(0.,0.,1.));
#652=DIRECTION('ref_axis',(1.,0.,0.));
#653=DIRECTION('center_axis',(0.,0.,1.));
#654=DIRECTION('ref_axis',(1.,0.,0.));
#655=DIRECTION('center_axis',(0.,0.,1.));
#656=DIRECTION('ref_axis',(1.,0.,0.));
#657=DIRECTION('center_axis',(0.,0.,1.));
#658=DIRECTION('ref_axis',(1.,0.,0.));
#659=DIRECTION('',(0.,0.,1.));
#660=DIRECTION('center_axis',(0.,0.,-1.));
#661=DIRECTION('ref_axis',(1.,0.,0.));
#662=DIRECTION('center_axis',(0.,0.,1.));
#663=DIRECTION('ref_axis',(1.,0.,0.));
#664=DIRECTION('center_axis',(0.,0.,1.));
#665=DIRECTION('ref_axis',(1.,0.,0.));
#666=DIRECTION('',(0.,0.,1.));
#667=DIRECTION('center_axis',(0.,0.,-1.));
#668=DIRECTION('ref_axis',(1.,0.,0.));
#669=DIRECTION('center_axis',(0.,0.,1.));
#670=DIRECTION('ref_axis',(1.,0.,0.));
#671=DIRECTION('center_axis',(0.,0.,1.));
#672=DIRECTION('ref_axis',(1.,0.,0.));
#673=DIRECTION('',(0.,0.,1.));
#674=DIRECTION('center_axis',(0.,0.,-1.));
#675=DIRECTION('ref_axis',(1.,0.,0.));
#676=DIRECTION('center_axis',(0.,0.,1.));
#677=DIRECTION('ref_axis',(1.,0.,0.));
#678=DIRECTION('center_axis',(0.,0.,1.));
#679=DIRECTION('ref_axis',(1.,0.,0.));
#680=DIRECTION('',(0.,0.,1.));
#681=DIRECTION('center_axis',(0.,0.,-1.));
#682=DIRECTION('ref_axis',(1.,0.,0.));
#683=DIRECTION('center_axis',(0.,0.,1.));
#684=DIRECTION('ref_axis',(1.,0.,0.));
#685=DIRECTION('center_axis',(0.,0.,-1.));
#686=DIRECTION('ref_axis',(1.,0.,0.));
#687=DIRECTION('',(0.,0.,-1.));
#688=DIRECTION('center_axis',(0.,0.,-1.));
#689=DIRECTION('ref_axis',(1.,0.,0.));
#690=DIRECTION('center_axis',(0.,0.,1.));
#691=DIRECTION('ref_axis',(1.,0.,0.));
#692=DIRECTION('center_axis',(0.,0.,-1.));
#693=DIRECTION('ref_axis',(1.,0.,0.));
#694=DIRECTION('',(0.,0.,-1.));
#695=DIRECTION('center_axis',(0.,0.,-1.));
#696=DIRECTION('ref_axis',(1.,0.,0.));
#697=DIRECTION('center_axis',(0.,0.,1.));
#698=DIRECTION('ref_axis',(1.,0.,0.));
#699=DIRECTION('center_axis',(0.,0.,-1.));
#700=DIRECTION('ref_axis',(1.,0.,0.));
#701=DIRECTION('',(0.,0.,-1.));
#702=DIRECTION('center_axis',(0.,0.,-1.));
#703=DIRECTION('ref_axis',(1.,0.,0.));
#704=DIRECTION('center_axis',(0.,1.,0.));
#705=DIRECTION('ref_axis',(-1.,0.,0.));
#706=DIRECTION('',(-1.,0.,0.));
#707=DIRECTION('',(0.,0.,1.));
#708=DIRECTION('',(-1.,0.,0.));
#709=DIRECTION('',(0.,0.,1.));
#710=DIRECTION('center_axis',(-0.915644030191285,-0.401990062035198,0.));
#711=DIRECTION('ref_axis',(0.401990062035197,-0.915644030191284,0.));
#712=DIRECTION('',(0.401990062035197,-0.915644030191284,0.));
#713=DIRECTION('',(0.401990062035197,-0.915644030191284,0.));
#714=DIRECTION('',(0.,0.,1.));
#715=DIRECTION('center_axis',(0.915644030191284,-0.401990062035198,0.));
#716=DIRECTION('ref_axis',(0.401990062035198,0.915644030191284,0.));
#717=DIRECTION('',(0.401990062035198,0.915644030191284,0.));
#718=DIRECTION('',(0.401990062035198,0.915644030191284,0.));
#719=DIRECTION('center_axis',(0.,0.,1.));
#720=DIRECTION('ref_axis',(1.,0.,0.));
#721=DIRECTION('center_axis',(0.,0.,-1.));
#722=DIRECTION('ref_axis',(1.,0.,0.));
#723=DIRECTION('',(0.,0.,-1.));
#724=DIRECTION('center_axis',(0.,0.,-1.));
#725=DIRECTION('ref_axis',(1.,0.,0.));
#726=DIRECTION('center_axis',(-0.915644030191284,0.401990062035198,0.));
#727=DIRECTION('ref_axis',(-0.401990062035198,-0.915644030191284,0.));
#728=DIRECTION('',(-0.401990062035198,-0.915644030191284,0.));
#729=DIRECTION('',(0.,0.,1.));
#730=DIRECTION('',(-0.401990062035198,-0.915644030191284,0.));
#731=DIRECTION('',(0.,0.,1.));
#732=DIRECTION('center_axis',(1.26882631385732E-16,-1.,0.));
#733=DIRECTION('ref_axis',(1.,1.26882631385732E-16,0.));
#734=DIRECTION('',(1.,1.26882631385732E-16,0.));
#735=DIRECTION('',(1.,1.26882631385732E-16,0.));
#736=DIRECTION('',(0.,0.,1.));
#737=DIRECTION('center_axis',(0.915644030191284,0.401990062035198,0.));
#738=DIRECTION('ref_axis',(-0.401990062035198,0.915644030191284,0.));
#739=DIRECTION('',(-0.401990062035198,0.915644030191284,0.));
#740=DIRECTION('',(-0.401990062035198,0.915644030191284,0.));
#741=DIRECTION('center_axis',(0.915644030191284,0.401990062035198,0.));
#742=DIRECTION('ref_axis',(-0.401990062035198,0.915644030191284,0.));
#743=DIRECTION('',(-0.401990062035198,0.915644030191284,0.));
#744=DIRECTION('',(0.,0.,1.));
#745=DIRECTION('',(-0.401990062035198,0.915644030191284,0.));
#746=DIRECTION('',(0.,0.,1.));
#747=DIRECTION('center_axis',(-1.,-7.22096276178964E-17,0.));
#748=DIRECTION('ref_axis',(7.22096276178964E-17,-1.,0.));
#749=DIRECTION('',(7.22096276178964E-17,-1.,0.));
#750=DIRECTION('',(7.22096276178964E-17,-1.,0.));
#751=DIRECTION('',(0.,0.,1.));
#752=DIRECTION('center_axis',(0.915644030191284,-0.401990062035198,0.));
#753=DIRECTION('ref_axis',(0.401990062035198,0.915644030191284,0.));
#754=DIRECTION('',(0.401990062035198,0.915644030191284,0.));
#755=DIRECTION('',(0.401990062035198,0.915644030191284,0.));
#756=DIRECTION('center_axis',(-0.915644030191284,0.401990062035198,0.));
#757=DIRECTION('ref_axis',(-0.401990062035198,-0.915644030191284,0.));
#758=DIRECTION('',(-0.401990062035198,-0.915644030191284,0.));
#759=DIRECTION('',(0.,0.,1.));
#760=DIRECTION('',(-0.401990062035198,-0.915644030191284,0.));
#761=DIRECTION('',(0.,0.,1.));
#762=DIRECTION('center_axis',(-0.915644030191285,-0.401990062035198,0.));
#763=DIRECTION('ref_axis',(0.401990062035197,-0.915644030191284,0.));
#764=DIRECTION('',(0.401990062035197,-0.915644030191284,0.));
#765=DIRECTION('',(0.401990062035197,-0.915644030191284,0.));
#766=DIRECTION('',(0.,0.,1.));
#767=DIRECTION('center_axis',(1.,-6.31834241656593E-17,0.));
#768=DIRECTION('ref_axis',(6.31834241656593E-17,1.,0.));
#769=DIRECTION('',(6.31834241656593E-17,1.,0.));
#770=DIRECTION('',(6.31834241656593E-17,1.,0.));
#771=DIRECTION('center_axis',(1.,-3.70074341541751E-15,0.));
#772=DIRECTION('ref_axis',(3.70074341541751E-15,1.,0.));
#773=DIRECTION('',(-3.70074341541751E-15,-1.,0.));
#774=DIRECTION('',(0.,0.,1.));
#775=DIRECTION('',(3.70074341541751E-15,1.,0.));
#776=DIRECTION('',(0.,0.,1.));
#777=DIRECTION('center_axis',(0.,-1.,0.));
#778=DIRECTION('ref_axis',(1.,0.,0.));
#779=DIRECTION('',(1.,0.,0.));
#780=DIRECTION('',(1.,0.,0.));
#781=DIRECTION('',(0.,0.,1.));
#782=DIRECTION('center_axis',(-1.,-3.50169080797679E-33,0.));
#783=DIRECTION('ref_axis',(3.50169080797679E-33,-1.,0.));
#784=DIRECTION('',(-3.50169080797679E-33,1.,0.));
#785=DIRECTION('',(3.50169080797679E-33,-1.,0.));
#786=DIRECTION('',(0.,0.,1.));
#787=DIRECTION('center_axis',(0.,0.,1.));
#788=DIRECTION('ref_axis',(1.,0.,0.));
#789=DIRECTION('center_axis',(0.,0.,1.));
#790=DIRECTION('ref_axis',(1.,0.,0.));
#791=DIRECTION('center_axis',(0.,0.,1.));
#792=DIRECTION('ref_axis',(1.,0.,0.));
#793=DIRECTION('center_axis',(0.,0.,1.));
#794=DIRECTION('ref_axis',(1.,0.,0.));
#795=DIRECTION('center_axis',(0.,0.,1.));
#796=DIRECTION('ref_axis',(1.,0.,0.));
#797=CARTESIAN_POINT('',(0.,0.,0.));
#798=CARTESIAN_POINT('Origin',(17.5,0.,0.));
#799=CARTESIAN_POINT('',(14.5,-3.67394039744206E-16,0.));
#800=CARTESIAN_POINT('Origin',(17.5,0.,0.));
#801=CARTESIAN_POINT('',(14.5,-3.67394039744206E-16,3.5));
#802=CARTESIAN_POINT('',(14.5,-3.67394039744206E-16,0.));
#803=CARTESIAN_POINT('Origin',(17.5,0.,3.5));
#804=CARTESIAN_POINT('Origin',(17.5,0.,3.5));
#805=CARTESIAN_POINT('Origin',(3.,-20.3654118544163,0.));
#806=CARTESIAN_POINT('',(1.25,-20.3654118544163,0.));
#807=CARTESIAN_POINT('Origin',(3.,-20.3654118544163,0.));
#808=CARTESIAN_POINT('',(1.25,-20.3654118544163,5.));
#809=CARTESIAN_POINT('',(1.25,-20.3654118544163,0.));
#810=CARTESIAN_POINT('Origin',(3.,-20.3654118544163,5.));
#811=CARTESIAN_POINT('Origin',(32.,-85.,0.));
#812=CARTESIAN_POINT('',(30.25,-85.,0.));
#813=CARTESIAN_POINT('Origin',(32.,-85.,0.));
#814=CARTESIAN_POINT('',(30.25,-85.,5.));
#815=CARTESIAN_POINT('',(30.25,-85.,0.));
#816=CARTESIAN_POINT('Origin',(32.,-85.,5.));
#817=CARTESIAN_POINT('Origin',(32.,-20.3654118544163,0.));
#818=CARTESIAN_POINT('',(30.25,-20.3654118544163,0.));
#819=CARTESIAN_POINT('Origin',(32.,-20.3654118544163,0.));
#820=CARTESIAN_POINT('',(30.25,-20.3654118544163,5.));
#821=CARTESIAN_POINT('',(30.25,-20.3654118544163,0.));
#822=CARTESIAN_POINT('Origin',(32.,-20.3654118544163,5.));
#823=CARTESIAN_POINT('Origin',(3.,-85.,0.));
#824=CARTESIAN_POINT('',(1.25,-85.,0.));
#825=CARTESIAN_POINT('Origin',(3.,-85.,0.));
#826=CARTESIAN_POINT('',(1.25,-85.,5.));
#827=CARTESIAN_POINT('',(1.25,-85.,0.));
#828=CARTESIAN_POINT('Origin',(3.,-85.,5.));
#829=CARTESIAN_POINT('Origin',(17.5000000000003,6.9999999999999,0.));
#830=CARTESIAN_POINT('',(15.7500000000003,6.9999999999999,5.));
#831=CARTESIAN_POINT('Origin',(17.5000000000003,6.9999999999999,5.));
#832=CARTESIAN_POINT('',(15.7500000000003,6.9999999999999,0.));
#833=CARTESIAN_POINT('',(15.7500000000003,6.9999999999999,0.));
#834=CARTESIAN_POINT('Origin',(17.5000000000003,6.9999999999999,0.));
#835=CARTESIAN_POINT('Origin',(10.5000000000002,1.10265911966785E-15,0.));
#836=CARTESIAN_POINT('',(8.7500000000002,8.88345929817062E-16,5.));
#837=CARTESIAN_POINT('Origin',(10.5000000000002,1.10265911966785E-15,5.));
#838=CARTESIAN_POINT('',(8.7500000000002,8.88345929817062E-16,0.));
#839=CARTESIAN_POINT('',(8.7500000000002,8.88345929817062E-16,0.));
#840=CARTESIAN_POINT('Origin',(10.5000000000002,1.10265911966785E-15,0.));
#841=CARTESIAN_POINT('Origin',(17.4999999999999,-7.0000000000001,0.));
#842=CARTESIAN_POINT('',(15.7499999999999,-7.0000000000001,5.));
#843=CARTESIAN_POINT('Origin',(17.4999999999999,-7.0000000000001,5.));
#844=CARTESIAN_POINT('',(15.7499999999999,-7.0000000000001,0.));
#845=CARTESIAN_POINT('',(15.7499999999999,-7.0000000000001,0.));
#846=CARTESIAN_POINT('Origin',(17.4999999999999,-7.0000000000001,0.));
#847=CARTESIAN_POINT('Origin',(28.8157450558792,-84.,0.));
#848=CARTESIAN_POINT('',(28.8157450558792,-84.,0.));
#849=CARTESIAN_POINT('',(6.18425494412078,-84.,0.));
#850=CARTESIAN_POINT('',(-4.18019041820437E-15,-84.,0.));
#851=CARTESIAN_POINT('',(6.18425494412078,-84.,5.));
#852=CARTESIAN_POINT('',(6.18425494412078,-84.,0.));
#853=CARTESIAN_POINT('',(28.8157450558792,-84.,5.));
#854=CARTESIAN_POINT('',(-4.18019041820437E-15,-84.,5.));
#855=CARTESIAN_POINT('',(28.8157450558792,-84.,0.));
#856=CARTESIAN_POINT('Origin',(17.5,-58.2252473727196,0.));
#857=CARTESIAN_POINT('',(17.5,-58.2252473727196,0.));
#858=CARTESIAN_POINT('',(4.,-27.4752473727196,0.));
#859=CARTESIAN_POINT('',(17.5,-58.2252473727196,5.));
#860=CARTESIAN_POINT('',(4.,-27.4752473727196,5.));
#861=CARTESIAN_POINT('',(17.5,-58.2252473727196,0.));
#862=CARTESIAN_POINT('Origin',(6.18425494412078,-84.,0.));
#863=CARTESIAN_POINT('',(31.,-27.4752473727196,0.));
#864=CARTESIAN_POINT('',(31.,-27.4752473727196,5.));
#865=CARTESIAN_POINT('Origin',(24.5000000000002,-2.0346330840912E-13,0.));
#866=CARTESIAN_POINT('',(22.7500000000002,-2.03677621598971E-13,5.));
#867=CARTESIAN_POINT('Origin',(24.5000000000002,-2.0346330840912E-13,5.));
#868=CARTESIAN_POINT('',(22.7500000000002,-2.03677621598971E-13,0.));
#869=CARTESIAN_POINT('',(22.7500000000002,-2.03677621598971E-13,0.));
#870=CARTESIAN_POINT('Origin',(24.5000000000002,-2.0346330840912E-13,0.));
#871=CARTESIAN_POINT('Origin',(28.8157450558792,-22.5,0.));
#872=CARTESIAN_POINT('',(28.8157450558792,-22.5,0.));
#873=CARTESIAN_POINT('',(17.5,-48.2747526272804,0.));
#874=CARTESIAN_POINT('',(28.8157450558792,-22.5,0.));
#875=CARTESIAN_POINT('',(17.5,-48.2747526272804,5.));
#876=CARTESIAN_POINT('',(17.5,-48.2747526272804,0.));
#877=CARTESIAN_POINT('',(28.8157450558792,-22.5,5.));
#878=CARTESIAN_POINT('',(28.8157450558792,-22.5,5.));
#879=CARTESIAN_POINT('',(28.8157450558792,-22.5,0.));
#880=CARTESIAN_POINT('Origin',(6.18425494412079,-22.5,0.));
#881=CARTESIAN_POINT('',(6.18425494412079,-22.5,0.));
#882=CARTESIAN_POINT('',(35.,-22.5,0.));
#883=CARTESIAN_POINT('',(6.18425494412079,-22.5,5.));
#884=CARTESIAN_POINT('',(35.,-22.5,5.));
#885=CARTESIAN_POINT('',(6.18425494412079,-22.5,0.));
#886=CARTESIAN_POINT('Origin',(17.5,-48.2747526272804,0.));
#887=CARTESIAN_POINT('',(6.18425494412079,-22.5,0.));
#888=CARTESIAN_POINT('',(6.18425494412079,-22.5,5.));
#889=CARTESIAN_POINT('Origin',(31.,-79.0247526272804,0.));
#890=CARTESIAN_POINT('',(31.,-79.0247526272804,0.));
#891=CARTESIAN_POINT('',(19.6842549441208,-53.25,0.));
#892=CARTESIAN_POINT('',(6.18425494412079,-22.5,0.));
#893=CARTESIAN_POINT('',(19.6842549441208,-53.25,5.));
#894=CARTESIAN_POINT('',(19.6842549441208,-53.25,0.));
#895=CARTESIAN_POINT('',(31.,-79.0247526272804,5.));
#896=CARTESIAN_POINT('',(6.18425494412079,-22.5,5.));
#897=CARTESIAN_POINT('',(31.,-79.0247526272804,0.));
#898=CARTESIAN_POINT('Origin',(31.,-27.4752473727196,0.));
#899=CARTESIAN_POINT('',(31.,-27.4752473727196,0.));
#900=CARTESIAN_POINT('',(31.,-22.5,0.));
#901=CARTESIAN_POINT('',(31.,-27.4752473727196,5.));
#902=CARTESIAN_POINT('',(31.,-22.5,5.));
#903=CARTESIAN_POINT('',(31.,-27.4752473727196,0.));
#904=CARTESIAN_POINT('Origin',(19.6842549441208,-53.25,0.));
#905=CARTESIAN_POINT('',(31.,-27.4752473727196,0.));
#906=CARTESIAN_POINT('',(31.,-27.4752473727196,5.));
#907=CARTESIAN_POINT('Origin',(15.3157450558792,-53.25,0.));
#908=CARTESIAN_POINT('',(15.3157450558792,-53.25,0.));
#909=CARTESIAN_POINT('',(3.99999999999999,-79.0247526272804,0.));
#910=CARTESIAN_POINT('',(28.8157450558792,-22.5,0.));
#911=CARTESIAN_POINT('',(3.99999999999999,-79.0247526272804,5.));
#912=CARTESIAN_POINT('',(3.99999999999999,-79.0247526272804,0.));
#913=CARTESIAN_POINT('',(15.3157450558792,-53.25,5.));
#914=CARTESIAN_POINT('',(28.8157450558792,-22.5,5.));
#915=CARTESIAN_POINT('',(15.3157450558792,-53.25,0.));
#916=CARTESIAN_POINT('Origin',(4.,-27.4752473727196,0.));
#917=CARTESIAN_POINT('',(4.,-27.4752473727196,0.));
#918=CARTESIAN_POINT('',(4.,-27.4752473727196,0.));
#919=CARTESIAN_POINT('',(4.,-27.4752473727196,5.));
#920=CARTESIAN_POINT('',(4.,-27.4752473727196,5.));
#921=CARTESIAN_POINT('',(4.,-27.4752473727196,0.));
#922=CARTESIAN_POINT('Origin',(4.,-79.0247526272804,0.));
#923=CARTESIAN_POINT('',(4.,-22.5,0.));
#924=CARTESIAN_POINT('',(4.,-22.5,5.));
#925=CARTESIAN_POINT('Origin',(35.,-88.,0.));
#926=CARTESIAN_POINT('',(35.,0.,0.));
#927=CARTESIAN_POINT('',(35.,-88.,0.));
#928=CARTESIAN_POINT('',(35.,-82.0000000000005,0.));
#929=CARTESIAN_POINT('',(35.,0.,5.));
#930=CARTESIAN_POINT('',(35.,0.,0.));
#931=CARTESIAN_POINT('',(35.,-88.,5.));
#932=CARTESIAN_POINT('',(35.,-82.0000000000005,5.));
#933=CARTESIAN_POINT('',(35.,-88.,0.));
#934=CARTESIAN_POINT('Origin',(-2.22044604925031E-14,-88.,0.));
#935=CARTESIAN_POINT('',(-2.22044604925031E-14,-88.,0.));
#936=CARTESIAN_POINT('',(-2.22044604925031E-14,-88.,0.));
#937=CARTESIAN_POINT('',(-2.22044604925031E-14,-88.,5.));
#938=CARTESIAN_POINT('',(-2.22044604925031E-14,-88.,5.));
#939=CARTESIAN_POINT('',(-2.22044604925031E-14,-88.,0.));
#940=CARTESIAN_POINT('Origin',(0.,0.,0.));
#941=CARTESIAN_POINT('',(0.,2.14313189850787E-15,0.));
#942=CARTESIAN_POINT('',(3.08148791101958E-31,-88.,0.));
#943=CARTESIAN_POINT('',(0.,2.14313189850787E-15,5.));
#944=CARTESIAN_POINT('',(3.08148791101958E-31,-88.,5.));
#945=CARTESIAN_POINT('',(0.,2.14313189850787E-15,0.));
#946=CARTESIAN_POINT('Origin',(17.5,0.,0.));
#947=CARTESIAN_POINT('Origin',(17.5,0.,0.));
#948=CARTESIAN_POINT('Origin',(17.5,0.,5.));
#949=CARTESIAN_POINT('Origin',(17.5,-35.25,5.));
#950=CARTESIAN_POINT('Origin',(17.5,-35.25,0.));
#951=UNCERTAINTY_MEASURE_WITH_UNIT(LENGTH_MEASURE(0.01),#955,
'DISTANCE_ACCURACY_VALUE',
'Maximum model space distance between geometric entities at asserted c
onnectivities');
#952=UNCERTAINTY_MEASURE_WITH_UNIT(LENGTH_MEASURE(0.01),#955,
'DISTANCE_ACCURACY_VALUE',
'Maximum model space distance between geometric entities at asserted c
onnectivities');
#953=(
GEOMETRIC_REPRESENTATION_CONTEXT(3)
GLOBAL_UNCERTAINTY_ASSIGNED_CONTEXT((#951))
GLOBAL_UNIT_ASSIGNED_CONTEXT((#955,#957,#958))
REPRESENTATION_CONTEXT('','3D')
);
#954=(
GEOMETRIC_REPRESENTATION_CONTEXT(3)
GLOBAL_UNCERTAINTY_ASSIGNED_CONTEXT((#952))
GLOBAL_UNIT_ASSIGNED_CONTEXT((#955,#957,#958))
REPRESENTATION_CONTEXT('','3D')
);
#955=(
LENGTH_UNIT()
NAMED_UNIT(*)
SI_UNIT(.MILLI.,.METRE.)
);
#956=(
LENGTH_UNIT()
NAMED_UNIT(*)
SI_UNIT($,.METRE.)
);
#957=(
NAMED_UNIT(*)
PLANE_ANGLE_UNIT()
SI_UNIT($,.RADIAN.)
);
#958=(
NAMED_UNIT(*)
SI_UNIT($,.STERADIAN.)
SOLID_ANGLE_UNIT()
);
#959=SHAPE_DEFINITION_REPRESENTATION(#960,#961);
#960=PRODUCT_DEFINITION_SHAPE('',$,#963);
#961=SHAPE_REPRESENTATION('',(#595),#953);
#962=PRODUCT_DEFINITION_CONTEXT('part definition',#967,'design');
#963=PRODUCT_DEFINITION('2026-06-26-14-04-22-736',
'Rover Shoulder-Elbow Link Servo',#964,#962);
#964=PRODUCT_DEFINITION_FORMATION('',$,#969);
#965=PRODUCT_RELATED_PRODUCT_CATEGORY('Rover Shoulder-Elbow Link Servo',
'Rover Shoulder-Elbow Link Servo',(#969));
#966=APPLICATION_PROTOCOL_DEFINITION('international standard',
'automotive_design',2009,#967);
#967=APPLICATION_CONTEXT(
'Core Data for Automotive Mechanical Design Process');
#968=PRODUCT_CONTEXT('part definition',#967,'mechanical');
#969=PRODUCT('2026-06-26-14-04-22-736',
'Rover Shoulder-Elbow Link Servo',$,(#968));
#970=PRESENTATION_STYLE_ASSIGNMENT((#971));
#971=SURFACE_STYLE_USAGE(.BOTH.,#972);
#972=SURFACE_SIDE_STYLE('',(#973));
#973=SURFACE_STYLE_FILL_AREA(#974);
#974=FILL_AREA_STYLE('Steel - Satin',(#975));
#975=FILL_AREA_STYLE_COLOUR('Steel - Satin',#976);
#976=COLOUR_RGB('Steel - Satin',0.627450980392157,0.627450980392157,0.627450980392157);
ENDSEC;
END-ISO-10303-21;
