ISO-10303-21;
HEADER;
/* Generated by software containing ST-Developer
 * from STEP Tools, Inc. (www.steptools.com) 
 */

FILE_DESCRIPTION(
/* description */ (''),
/* implementation_level */ '2;1');

FILE_NAME(
/* name */ 'shoulder-elbow-link.step',
/* time_stamp */ '2026-07-21T09:07:08-04:00',
/* author */ (''),
/* organization */ (''),
/* preprocessor_version */ 'ST-DEVELOPER v20.1',
/* originating_system */ 'Autodesk Translation Framework v15.8.0.0',
/* authorisation */ '');

FILE_SCHEMA (('AUTOMOTIVE_DESIGN { 1 0 10303 214 3 1 1 }'));
ENDSEC;

DATA;
#10=MECHANICAL_DESIGN_GEOMETRIC_PRESENTATION_REPRESENTATION('',(#13,#14,
#15,#16),#1802);
#11=SHAPE_REPRESENTATION_RELATIONSHIP('SRR','None',#1809,#12);
#12=ADVANCED_BREP_SHAPE_REPRESENTATION('',(#17,#18,#19,#20),#1801);
#13=STYLED_ITEM('',(#1818),#17);
#14=STYLED_ITEM('',(#1818),#18);
#15=STYLED_ITEM('',(#1818),#19);
#16=STYLED_ITEM('',(#1818),#20);
#17=MANIFOLD_SOLID_BREP('Body2',#1087);
#18=MANIFOLD_SOLID_BREP('Body4',#1088);
#19=MANIFOLD_SOLID_BREP('Body5',#1089);
#20=MANIFOLD_SOLID_BREP('Body8',#1090);
#21=FACE_BOUND('',#179,.T.);
#22=FACE_BOUND('',#180,.T.);
#23=FACE_BOUND('',#181,.T.);
#24=FACE_BOUND('',#182,.T.);
#25=FACE_BOUND('',#183,.T.);
#26=FACE_BOUND('',#185,.T.);
#27=FACE_BOUND('',#186,.T.);
#28=FACE_BOUND('',#187,.T.);
#29=FACE_BOUND('',#188,.T.);
#30=FACE_BOUND('',#189,.T.);
#31=FACE_BOUND('',#201,.T.);
#32=FACE_BOUND('',#202,.T.);
#33=FACE_BOUND('',#203,.T.);
#34=FACE_BOUND('',#204,.T.);
#35=FACE_BOUND('',#209,.T.);
#36=FACE_BOUND('',#210,.T.);
#37=FACE_BOUND('',#211,.T.);
#38=FACE_BOUND('',#212,.T.);
#39=FACE_BOUND('',#216,.T.);
#40=FACE_BOUND('',#217,.T.);
#41=FACE_BOUND('',#226,.T.);
#42=FACE_BOUND('',#235,.T.);
#43=CIRCLE('',#1117,1.75);
#44=CIRCLE('',#1118,1.75);
#45=CIRCLE('',#1120,8.525);
#46=CIRCLE('',#1121,8.525);
#47=CIRCLE('',#1123,1.75);
#48=CIRCLE('',#1124,1.75);
#49=CIRCLE('',#1126,8.525);
#50=CIRCLE('',#1127,8.525);
#51=CIRCLE('',#1129,1.75);
#52=CIRCLE('',#1130,1.75);
#53=CIRCLE('',#1132,8.525);
#54=CIRCLE('',#1133,8.525);
#55=CIRCLE('',#1135,1.75);
#56=CIRCLE('',#1136,1.75);
#57=CIRCLE('',#1138,8.525);
#58=CIRCLE('',#1139,8.525);
#59=CIRCLE('',#1144,17.5);
#60=CIRCLE('',#1145,17.5);
#61=CIRCLE('',#1149,1.75);
#62=CIRCLE('',#1150,1.75);
#63=CIRCLE('',#1152,1.75);
#64=CIRCLE('',#1153,1.75);
#65=CIRCLE('',#1155,1.75);
#66=CIRCLE('',#1156,1.75);
#67=CIRCLE('',#1158,1.75);
#68=CIRCLE('',#1159,1.75);
#69=CIRCLE('',#1161,2.);
#70=CIRCLE('',#1162,2.);
#71=CIRCLE('',#1165,2.);
#72=CIRCLE('',#1166,2.);
#73=CIRCLE('',#1179,2.);
#74=CIRCLE('',#1180,2.);
#75=CIRCLE('',#1189,2.);
#76=CIRCLE('',#1190,2.);
#77=CYLINDRICAL_SURFACE('',#1116,1.75);
#78=CYLINDRICAL_SURFACE('',#1119,8.525);
#79=CYLINDRICAL_SURFACE('',#1122,1.75);
#80=CYLINDRICAL_SURFACE('',#1125,8.525);
#81=CYLINDRICAL_SURFACE('',#1128,1.75);
#82=CYLINDRICAL_SURFACE('',#1131,8.525);
#83=CYLINDRICAL_SURFACE('',#1134,1.75);
#84=CYLINDRICAL_SURFACE('',#1137,8.525);
#85=CYLINDRICAL_SURFACE('',#1143,17.5);
#86=CYLINDRICAL_SURFACE('',#1148,1.75);
#87=CYLINDRICAL_SURFACE('',#1151,1.75);
#88=CYLINDRICAL_SURFACE('',#1154,1.75);
#89=CYLINDRICAL_SURFACE('',#1157,1.75);
#90=CYLINDRICAL_SURFACE('',#1160,2.);
#91=CYLINDRICAL_SURFACE('',#1164,2.);
#92=CYLINDRICAL_SURFACE('',#1178,2.);
#93=CYLINDRICAL_SURFACE('',#1188,2.);
#94=FACE_OUTER_BOUND('',#154,.T.);
#95=FACE_OUTER_BOUND('',#155,.T.);
#96=FACE_OUTER_BOUND('',#156,.T.);
#97=FACE_OUTER_BOUND('',#157,.T.);
#98=FACE_OUTER_BOUND('',#158,.T.);
#99=FACE_OUTER_BOUND('',#159,.T.);
#100=FACE_OUTER_BOUND('',#160,.T.);
#101=FACE_OUTER_BOUND('',#161,.T.);
#102=FACE_OUTER_BOUND('',#162,.T.);
#103=FACE_OUTER_BOUND('',#163,.T.);
#104=FACE_OUTER_BOUND('',#164,.T.);
#105=FACE_OUTER_BOUND('',#165,.T.);
#106=FACE_OUTER_BOUND('',#166,.T.);
#107=FACE_OUTER_BOUND('',#167,.T.);
#108=FACE_OUTER_BOUND('',#168,.T.);
#109=FACE_OUTER_BOUND('',#169,.T.);
#110=FACE_OUTER_BOUND('',#170,.T.);
#111=FACE_OUTER_BOUND('',#171,.T.);
#112=FACE_OUTER_BOUND('',#172,.T.);
#113=FACE_OUTER_BOUND('',#173,.T.);
#114=FACE_OUTER_BOUND('',#174,.T.);
#115=FACE_OUTER_BOUND('',#175,.T.);
#116=FACE_OUTER_BOUND('',#176,.T.);
#117=FACE_OUTER_BOUND('',#177,.T.);
#118=FACE_OUTER_BOUND('',#178,.T.);
#119=FACE_OUTER_BOUND('',#184,.T.);
#120=FACE_OUTER_BOUND('',#190,.T.);
#121=FACE_OUTER_BOUND('',#191,.T.);
#122=FACE_OUTER_BOUND('',#192,.T.);
#123=FACE_OUTER_BOUND('',#193,.T.);
#124=FACE_OUTER_BOUND('',#194,.T.);
#125=FACE_OUTER_BOUND('',#195,.T.);
#126=FACE_OUTER_BOUND('',#196,.T.);
#127=FACE_OUTER_BOUND('',#197,.T.);
#128=FACE_OUTER_BOUND('',#198,.T.);
#129=FACE_OUTER_BOUND('',#199,.T.);
#130=FACE_OUTER_BOUND('',#200,.T.);
#131=FACE_OUTER_BOUND('',#205,.T.);
#132=FACE_OUTER_BOUND('',#206,.T.);
#133=FACE_OUTER_BOUND('',#207,.T.);
#134=FACE_OUTER_BOUND('',#208,.T.);
#135=FACE_OUTER_BOUND('',#213,.T.);
#136=FACE_OUTER_BOUND('',#214,.T.);
#137=FACE_OUTER_BOUND('',#215,.T.);
#138=FACE_OUTER_BOUND('',#218,.T.);
#139=FACE_OUTER_BOUND('',#219,.T.);
#140=FACE_OUTER_BOUND('',#220,.T.);
#141=FACE_OUTER_BOUND('',#221,.T.);
#142=FACE_OUTER_BOUND('',#222,.T.);
#143=FACE_OUTER_BOUND('',#223,.T.);
#144=FACE_OUTER_BOUND('',#224,.T.);
#145=FACE_OUTER_BOUND('',#225,.T.);
#146=FACE_OUTER_BOUND('',#227,.T.);
#147=FACE_OUTER_BOUND('',#228,.T.);
#148=FACE_OUTER_BOUND('',#229,.T.);
#149=FACE_OUTER_BOUND('',#230,.T.);
#150=FACE_OUTER_BOUND('',#231,.T.);
#151=FACE_OUTER_BOUND('',#232,.T.);
#152=FACE_OUTER_BOUND('',#233,.T.);
#153=FACE_OUTER_BOUND('',#234,.T.);
#154=EDGE_LOOP('',(#696,#697,#698,#699));
#155=EDGE_LOOP('',(#700,#701,#702,#703));
#156=EDGE_LOOP('',(#704,#705,#706,#707));
#157=EDGE_LOOP('',(#708,#709,#710,#711));
#158=EDGE_LOOP('',(#712,#713,#714,#715));
#159=EDGE_LOOP('',(#716,#717,#718,#719));
#160=EDGE_LOOP('',(#720,#721,#722,#723));
#161=EDGE_LOOP('',(#724,#725,#726,#727));
#162=EDGE_LOOP('',(#728,#729,#730,#731));
#163=EDGE_LOOP('',(#732,#733,#734,#735));
#164=EDGE_LOOP('',(#736,#737,#738,#739));
#165=EDGE_LOOP('',(#740,#741,#742,#743));
#166=EDGE_LOOP('',(#744,#745,#746,#747));
#167=EDGE_LOOP('',(#748,#749,#750,#751));
#168=EDGE_LOOP('',(#752,#753,#754,#755));
#169=EDGE_LOOP('',(#756,#757,#758,#759));
#170=EDGE_LOOP('',(#760,#761,#762,#763));
#171=EDGE_LOOP('',(#764,#765,#766,#767));
#172=EDGE_LOOP('',(#768,#769,#770,#771));
#173=EDGE_LOOP('',(#772,#773,#774,#775));
#174=EDGE_LOOP('',(#776,#777,#778,#779));
#175=EDGE_LOOP('',(#780,#781,#782,#783));
#176=EDGE_LOOP('',(#784,#785,#786,#787));
#177=EDGE_LOOP('',(#788,#789,#790,#791));
#178=EDGE_LOOP('',(#792,#793,#794,#795));
#179=EDGE_LOOP('',(#796,#797,#798,#799,#800,#801,#802,#803));
#180=EDGE_LOOP('',(#804,#805,#806));
#181=EDGE_LOOP('',(#807,#808,#809));
#182=EDGE_LOOP('',(#810,#811,#812));
#183=EDGE_LOOP('',(#813,#814,#815));
#184=EDGE_LOOP('',(#816,#817,#818,#819));
#185=EDGE_LOOP('',(#820,#821,#822,#823,#824,#825,#826,#827));
#186=EDGE_LOOP('',(#828,#829,#830));
#187=EDGE_LOOP('',(#831,#832,#833));
#188=EDGE_LOOP('',(#834,#835,#836));
#189=EDGE_LOOP('',(#837,#838,#839));
#190=EDGE_LOOP('',(#840,#841,#842,#843));
#191=EDGE_LOOP('',(#844,#845,#846,#847));
#192=EDGE_LOOP('',(#848,#849,#850,#851));
#193=EDGE_LOOP('',(#852,#853,#854,#855));
#194=EDGE_LOOP('',(#856,#857,#858,#859));
#195=EDGE_LOOP('',(#860));
#196=EDGE_LOOP('',(#861,#862,#863,#864));
#197=EDGE_LOOP('',(#865));
#198=EDGE_LOOP('',(#866,#867,#868,#869));
#199=EDGE_LOOP('',(#870,#871,#872,#873));
#200=EDGE_LOOP('',(#874,#875,#876,#877));
#201=EDGE_LOOP('',(#878));
#202=EDGE_LOOP('',(#879));
#203=EDGE_LOOP('',(#880));
#204=EDGE_LOOP('',(#881));
#205=EDGE_LOOP('',(#882,#883,#884,#885));
#206=EDGE_LOOP('',(#886,#887,#888,#889));
#207=EDGE_LOOP('',(#890,#891,#892,#893));
#208=EDGE_LOOP('',(#894,#895,#896,#897));
#209=EDGE_LOOP('',(#898));
#210=EDGE_LOOP('',(#899));
#211=EDGE_LOOP('',(#900));
#212=EDGE_LOOP('',(#901));
#213=EDGE_LOOP('',(#902,#903,#904,#905));
#214=EDGE_LOOP('',(#906,#907,#908,#909,#910,#911,#912,#913));
#215=EDGE_LOOP('',(#914,#915,#916,#917,#918,#919,#920,#921));
#216=EDGE_LOOP('',(#922));
#217=EDGE_LOOP('',(#923));
#218=EDGE_LOOP('',(#924,#925,#926,#927));
#219=EDGE_LOOP('',(#928));
#220=EDGE_LOOP('',(#929,#930,#931,#932));
#221=EDGE_LOOP('',(#933,#934,#935,#936));
#222=EDGE_LOOP('',(#937,#938,#939,#940));
#223=EDGE_LOOP('',(#941,#942,#943,#944));
#224=EDGE_LOOP('',(#945,#946,#947,#948));
#225=EDGE_LOOP('',(#949,#950,#951,#952));
#226=EDGE_LOOP('',(#953));
#227=EDGE_LOOP('',(#954,#955,#956,#957));
#228=EDGE_LOOP('',(#958));
#229=EDGE_LOOP('',(#959,#960,#961,#962));
#230=EDGE_LOOP('',(#963,#964,#965,#966));
#231=EDGE_LOOP('',(#967,#968,#969,#970));
#232=EDGE_LOOP('',(#971,#972,#973,#974));
#233=EDGE_LOOP('',(#975,#976,#977,#978));
#234=EDGE_LOOP('',(#979,#980,#981,#982));
#235=EDGE_LOOP('',(#983));
#236=LINE('',#1502,#346);
#237=LINE('',#1504,#347);
#238=LINE('',#1506,#348);
#239=LINE('',#1507,#349);
#240=LINE('',#1510,#350);
#241=LINE('',#1512,#351);
#242=LINE('',#1513,#352);
#243=LINE('',#1515,#353);
#244=LINE('',#1516,#354);
#245=LINE('',#1520,#355);
#246=LINE('',#1522,#356);
#247=LINE('',#1524,#357);
#248=LINE('',#1525,#358);
#249=LINE('',#1528,#359);
#250=LINE('',#1530,#360);
#251=LINE('',#1531,#361);
#252=LINE('',#1533,#362);
#253=LINE('',#1534,#363);
#254=LINE('',#1538,#364);
#255=LINE('',#1540,#365);
#256=LINE('',#1542,#366);
#257=LINE('',#1543,#367);
#258=LINE('',#1546,#368);
#259=LINE('',#1548,#369);
#260=LINE('',#1549,#370);
#261=LINE('',#1551,#371);
#262=LINE('',#1552,#372);
#263=LINE('',#1556,#373);
#264=LINE('',#1558,#374);
#265=LINE('',#1560,#375);
#266=LINE('',#1561,#376);
#267=LINE('',#1564,#377);
#268=LINE('',#1566,#378);
#269=LINE('',#1567,#379);
#270=LINE('',#1569,#380);
#271=LINE('',#1570,#381);
#272=LINE('',#1576,#382);
#273=LINE('',#1579,#383);
#274=LINE('',#1585,#384);
#275=LINE('',#1591,#385);
#276=LINE('',#1597,#386);
#277=LINE('',#1603,#387);
#278=LINE('',#1609,#388);
#279=LINE('',#1615,#389);
#280=LINE('',#1622,#390);
#281=LINE('',#1624,#391);
#282=LINE('',#1626,#392);
#283=LINE('',#1627,#393);
#284=LINE('',#1630,#394);
#285=LINE('',#1632,#395);
#286=LINE('',#1633,#396);
#287=LINE('',#1636,#397);
#288=LINE('',#1638,#398);
#289=LINE('',#1639,#399);
#290=LINE('',#1649,#400);
#291=LINE('',#1655,#401);
#292=LINE('',#1661,#402);
#293=LINE('',#1667,#403);
#294=LINE('',#1673,#404);
#295=LINE('',#1680,#405);
#296=LINE('',#1686,#406);
#297=LINE('',#1688,#407);
#298=LINE('',#1690,#408);
#299=LINE('',#1691,#409);
#300=LINE('',#1694,#410);
#301=LINE('',#1696,#411);
#302=LINE('',#1697,#412);
#303=LINE('',#1700,#413);
#304=LINE('',#1702,#414);
#305=LINE('',#1703,#415);
#306=LINE('',#1706,#416);
#307=LINE('',#1708,#417);
#308=LINE('',#1709,#418);
#309=LINE('',#1712,#419);
#310=LINE('',#1714,#420);
#311=LINE('',#1715,#421);
#312=LINE('',#1718,#422);
#313=LINE('',#1720,#423);
#314=LINE('',#1721,#424);
#315=LINE('',#1724,#425);
#316=LINE('',#1726,#426);
#317=LINE('',#1727,#427);
#318=LINE('',#1729,#428);
#319=LINE('',#1730,#429);
#320=LINE('',#1737,#430);
#321=LINE('',#1743,#431);
#322=LINE('',#1745,#432);
#323=LINE('',#1747,#433);
#324=LINE('',#1748,#434);
#325=LINE('',#1751,#435);
#326=LINE('',#1753,#436);
#327=LINE('',#1754,#437);
#328=LINE('',#1757,#438);
#329=LINE('',#1759,#439);
#330=LINE('',#1760,#440);
#331=LINE('',#1762,#441);
#332=LINE('',#1763,#442);
#333=LINE('',#1770,#443);
#334=LINE('',#1776,#444);
#335=LINE('',#1778,#445);
#336=LINE('',#1780,#446);
#337=LINE('',#1781,#447);
#338=LINE('',#1784,#448);
#339=LINE('',#1786,#449);
#340=LINE('',#1787,#450);
#341=LINE('',#1790,#451);
#342=LINE('',#1792,#452);
#343=LINE('',#1793,#453);
#344=LINE('',#1795,#454);
#345=LINE('',#1796,#455);
#346=VECTOR('',#1202,10.);
#347=VECTOR('',#1203,10.);
#348=VECTOR('',#1204,10.);
#349=VECTOR('',#1205,10.);
#350=VECTOR('',#1208,10.);
#351=VECTOR('',#1209,10.);
#352=VECTOR('',#1210,10.);
#353=VECTOR('',#1213,10.);
#354=VECTOR('',#1214,10.);
#355=VECTOR('',#1217,10.);
#356=VECTOR('',#1218,10.);
#357=VECTOR('',#1219,10.);
#358=VECTOR('',#1220,10.);
#359=VECTOR('',#1223,10.);
#360=VECTOR('',#1224,10.);
#361=VECTOR('',#1225,10.);
#362=VECTOR('',#1228,10.);
#363=VECTOR('',#1229,10.);
#364=VECTOR('',#1232,10.);
#365=VECTOR('',#1233,10.);
#366=VECTOR('',#1234,10.);
#367=VECTOR('',#1235,10.);
#368=VECTOR('',#1238,10.);
#369=VECTOR('',#1239,10.);
#370=VECTOR('',#1240,10.);
#371=VECTOR('',#1243,10.);
#372=VECTOR('',#1244,10.);
#373=VECTOR('',#1247,10.);
#374=VECTOR('',#1248,10.);
#375=VECTOR('',#1249,10.);
#376=VECTOR('',#1250,10.);
#377=VECTOR('',#1253,10.);
#378=VECTOR('',#1254,10.);
#379=VECTOR('',#1255,10.);
#380=VECTOR('',#1258,10.);
#381=VECTOR('',#1259,10.);
#382=VECTOR('',#1264,10.);
#383=VECTOR('',#1267,10.);
#384=VECTOR('',#1274,10.);
#385=VECTOR('',#1281,10.);
#386=VECTOR('',#1288,10.);
#387=VECTOR('',#1295,10.);
#388=VECTOR('',#1302,10.);
#389=VECTOR('',#1309,10.);
#390=VECTOR('',#1318,10.);
#391=VECTOR('',#1319,10.);
#392=VECTOR('',#1320,10.);
#393=VECTOR('',#1321,10.);
#394=VECTOR('',#1324,10.);
#395=VECTOR('',#1325,10.);
#396=VECTOR('',#1326,10.);
#397=VECTOR('',#1329,10.);
#398=VECTOR('',#1330,10.);
#399=VECTOR('',#1331,10.);
#400=VECTOR('',#1346,1.75);
#401=VECTOR('',#1353,1.75);
#402=VECTOR('',#1360,1.75);
#403=VECTOR('',#1367,1.75);
#404=VECTOR('',#1374,2.);
#405=VECTOR('',#1383,2.);
#406=VECTOR('',#1390,10.);
#407=VECTOR('',#1391,10.);
#408=VECTOR('',#1392,10.);
#409=VECTOR('',#1393,10.);
#410=VECTOR('',#1396,10.);
#411=VECTOR('',#1397,10.);
#412=VECTOR('',#1398,10.);
#413=VECTOR('',#1401,10.);
#414=VECTOR('',#1402,10.);
#415=VECTOR('',#1403,10.);
#416=VECTOR('',#1406,10.);
#417=VECTOR('',#1407,10.);
#418=VECTOR('',#1408,10.);
#419=VECTOR('',#1411,10.);
#420=VECTOR('',#1412,10.);
#421=VECTOR('',#1413,10.);
#422=VECTOR('',#1416,10.);
#423=VECTOR('',#1417,10.);
#424=VECTOR('',#1418,10.);
#425=VECTOR('',#1421,10.);
#426=VECTOR('',#1422,10.);
#427=VECTOR('',#1423,10.);
#428=VECTOR('',#1426,10.);
#429=VECTOR('',#1427,10.);
#430=VECTOR('',#1436,2.);
#431=VECTOR('',#1443,10.);
#432=VECTOR('',#1444,10.);
#433=VECTOR('',#1445,10.);
#434=VECTOR('',#1446,10.);
#435=VECTOR('',#1449,10.);
#436=VECTOR('',#1450,10.);
#437=VECTOR('',#1451,10.);
#438=VECTOR('',#1454,10.);
#439=VECTOR('',#1455,10.);
#440=VECTOR('',#1456,10.);
#441=VECTOR('',#1459,10.);
#442=VECTOR('',#1460,10.);
#443=VECTOR('',#1469,2.);
#444=VECTOR('',#1476,10.);
#445=VECTOR('',#1477,10.);
#446=VECTOR('',#1478,10.);
#447=VECTOR('',#1479,10.);
#448=VECTOR('',#1482,10.);
#449=VECTOR('',#1483,10.);
#450=VECTOR('',#1484,10.);
#451=VECTOR('',#1487,10.);
#452=VECTOR('',#1488,10.);
#453=VECTOR('',#1489,10.);
#454=VECTOR('',#1492,10.);
#455=VECTOR('',#1493,10.);
#456=VERTEX_POINT('',#1500);
#457=VERTEX_POINT('',#1501);
#458=VERTEX_POINT('',#1503);
#459=VERTEX_POINT('',#1505);
#460=VERTEX_POINT('',#1509);
#461=VERTEX_POINT('',#1511);
#462=VERTEX_POINT('',#1518);
#463=VERTEX_POINT('',#1519);
#464=VERTEX_POINT('',#1521);
#465=VERTEX_POINT('',#1523);
#466=VERTEX_POINT('',#1527);
#467=VERTEX_POINT('',#1529);
#468=VERTEX_POINT('',#1536);
#469=VERTEX_POINT('',#1537);
#470=VERTEX_POINT('',#1539);
#471=VERTEX_POINT('',#1541);
#472=VERTEX_POINT('',#1545);
#473=VERTEX_POINT('',#1547);
#474=VERTEX_POINT('',#1554);
#475=VERTEX_POINT('',#1555);
#476=VERTEX_POINT('',#1557);
#477=VERTEX_POINT('',#1559);
#478=VERTEX_POINT('',#1563);
#479=VERTEX_POINT('',#1565);
#480=VERTEX_POINT('',#1572);
#481=VERTEX_POINT('',#1573);
#482=VERTEX_POINT('',#1575);
#483=VERTEX_POINT('',#1577);
#484=VERTEX_POINT('',#1581);
#485=VERTEX_POINT('',#1583);
#486=VERTEX_POINT('',#1587);
#487=VERTEX_POINT('',#1589);
#488=VERTEX_POINT('',#1593);
#489=VERTEX_POINT('',#1595);
#490=VERTEX_POINT('',#1599);
#491=VERTEX_POINT('',#1601);
#492=VERTEX_POINT('',#1605);
#493=VERTEX_POINT('',#1607);
#494=VERTEX_POINT('',#1611);
#495=VERTEX_POINT('',#1613);
#496=VERTEX_POINT('',#1620);
#497=VERTEX_POINT('',#1621);
#498=VERTEX_POINT('',#1623);
#499=VERTEX_POINT('',#1625);
#500=VERTEX_POINT('',#1629);
#501=VERTEX_POINT('',#1631);
#502=VERTEX_POINT('',#1635);
#503=VERTEX_POINT('',#1637);
#504=VERTEX_POINT('',#1646);
#505=VERTEX_POINT('',#1648);
#506=VERTEX_POINT('',#1652);
#507=VERTEX_POINT('',#1654);
#508=VERTEX_POINT('',#1658);
#509=VERTEX_POINT('',#1660);
#510=VERTEX_POINT('',#1664);
#511=VERTEX_POINT('',#1666);
#512=VERTEX_POINT('',#1670);
#513=VERTEX_POINT('',#1672);
#514=VERTEX_POINT('',#1677);
#515=VERTEX_POINT('',#1679);
#516=VERTEX_POINT('',#1684);
#517=VERTEX_POINT('',#1685);
#518=VERTEX_POINT('',#1687);
#519=VERTEX_POINT('',#1689);
#520=VERTEX_POINT('',#1693);
#521=VERTEX_POINT('',#1695);
#522=VERTEX_POINT('',#1699);
#523=VERTEX_POINT('',#1701);
#524=VERTEX_POINT('',#1705);
#525=VERTEX_POINT('',#1707);
#526=VERTEX_POINT('',#1711);
#527=VERTEX_POINT('',#1713);
#528=VERTEX_POINT('',#1717);
#529=VERTEX_POINT('',#1719);
#530=VERTEX_POINT('',#1723);
#531=VERTEX_POINT('',#1725);
#532=VERTEX_POINT('',#1734);
#533=VERTEX_POINT('',#1736);
#534=VERTEX_POINT('',#1741);
#535=VERTEX_POINT('',#1742);
#536=VERTEX_POINT('',#1744);
#537=VERTEX_POINT('',#1746);
#538=VERTEX_POINT('',#1750);
#539=VERTEX_POINT('',#1752);
#540=VERTEX_POINT('',#1756);
#541=VERTEX_POINT('',#1758);
#542=VERTEX_POINT('',#1767);
#543=VERTEX_POINT('',#1769);
#544=VERTEX_POINT('',#1774);
#545=VERTEX_POINT('',#1775);
#546=VERTEX_POINT('',#1777);
#547=VERTEX_POINT('',#1779);
#548=VERTEX_POINT('',#1783);
#549=VERTEX_POINT('',#1785);
#550=VERTEX_POINT('',#1789);
#551=VERTEX_POINT('',#1791);
#552=EDGE_CURVE('',#456,#457,#236,.T.);
#553=EDGE_CURVE('',#457,#458,#237,.T.);
#554=EDGE_CURVE('',#459,#458,#238,.T.);
#555=EDGE_CURVE('',#456,#459,#239,.T.);
#556=EDGE_CURVE('',#460,#456,#240,.T.);
#557=EDGE_CURVE('',#461,#459,#241,.T.);
#558=EDGE_CURVE('',#460,#461,#242,.T.);
#559=EDGE_CURVE('',#457,#460,#243,.T.);
#560=EDGE_CURVE('',#458,#461,#244,.T.);
#561=EDGE_CURVE('',#462,#463,#245,.T.);
#562=EDGE_CURVE('',#463,#464,#246,.T.);
#563=EDGE_CURVE('',#465,#464,#247,.T.);
#564=EDGE_CURVE('',#462,#465,#248,.T.);
#565=EDGE_CURVE('',#466,#462,#249,.T.);
#566=EDGE_CURVE('',#467,#465,#250,.T.);
#567=EDGE_CURVE('',#466,#467,#251,.T.);
#568=EDGE_CURVE('',#463,#466,#252,.T.);
#569=EDGE_CURVE('',#464,#467,#253,.T.);
#570=EDGE_CURVE('',#468,#469,#254,.T.);
#571=EDGE_CURVE('',#469,#470,#255,.T.);
#572=EDGE_CURVE('',#471,#470,#256,.T.);
#573=EDGE_CURVE('',#468,#471,#257,.T.);
#574=EDGE_CURVE('',#472,#468,#258,.T.);
#575=EDGE_CURVE('',#473,#471,#259,.T.);
#576=EDGE_CURVE('',#472,#473,#260,.T.);
#577=EDGE_CURVE('',#469,#472,#261,.T.);
#578=EDGE_CURVE('',#470,#473,#262,.T.);
#579=EDGE_CURVE('',#474,#475,#263,.T.);
#580=EDGE_CURVE('',#475,#476,#264,.T.);
#581=EDGE_CURVE('',#477,#476,#265,.T.);
#582=EDGE_CURVE('',#474,#477,#266,.T.);
#583=EDGE_CURVE('',#478,#474,#267,.T.);
#584=EDGE_CURVE('',#479,#477,#268,.T.);
#585=EDGE_CURVE('',#478,#479,#269,.T.);
#586=EDGE_CURVE('',#475,#478,#270,.T.);
#587=EDGE_CURVE('',#476,#479,#271,.T.);
#588=EDGE_CURVE('',#480,#481,#43,.T.);
#589=EDGE_CURVE('',#481,#482,#272,.T.);
#590=EDGE_CURVE('',#483,#482,#44,.T.);
#591=EDGE_CURVE('',#480,#483,#273,.T.);
#592=EDGE_CURVE('',#484,#480,#45,.T.);
#593=EDGE_CURVE('',#485,#483,#46,.T.);
#594=EDGE_CURVE('',#484,#485,#274,.T.);
#595=EDGE_CURVE('',#486,#484,#47,.T.);
#596=EDGE_CURVE('',#487,#485,#48,.T.);
#597=EDGE_CURVE('',#486,#487,#275,.T.);
#598=EDGE_CURVE('',#488,#486,#49,.T.);
#599=EDGE_CURVE('',#489,#487,#50,.T.);
#600=EDGE_CURVE('',#488,#489,#276,.T.);
#601=EDGE_CURVE('',#490,#488,#51,.T.);
#602=EDGE_CURVE('',#491,#489,#52,.T.);
#603=EDGE_CURVE('',#490,#491,#277,.T.);
#604=EDGE_CURVE('',#492,#490,#53,.T.);
#605=EDGE_CURVE('',#493,#491,#54,.T.);
#606=EDGE_CURVE('',#492,#493,#278,.T.);
#607=EDGE_CURVE('',#494,#492,#55,.T.);
#608=EDGE_CURVE('',#495,#493,#56,.T.);
#609=EDGE_CURVE('',#494,#495,#279,.T.);
#610=EDGE_CURVE('',#481,#494,#57,.T.);
#611=EDGE_CURVE('',#482,#495,#58,.T.);
#612=EDGE_CURVE('',#496,#497,#280,.T.);
#613=EDGE_CURVE('',#496,#498,#281,.T.);
#614=EDGE_CURVE('',#499,#498,#282,.T.);
#615=EDGE_CURVE('',#497,#499,#283,.T.);
#616=EDGE_CURVE('',#500,#497,#284,.T.);
#617=EDGE_CURVE('',#501,#499,#285,.T.);
#618=EDGE_CURVE('',#500,#501,#286,.T.);
#619=EDGE_CURVE('',#500,#502,#287,.T.);
#620=EDGE_CURVE('',#503,#501,#288,.T.);
#621=EDGE_CURVE('',#502,#503,#289,.T.);
#622=EDGE_CURVE('',#496,#502,#59,.T.);
#623=EDGE_CURVE('',#498,#503,#60,.T.);
#624=EDGE_CURVE('',#504,#504,#61,.T.);
#625=EDGE_CURVE('',#504,#505,#290,.T.);
#626=EDGE_CURVE('',#505,#505,#62,.T.);
#627=EDGE_CURVE('',#506,#506,#63,.T.);
#628=EDGE_CURVE('',#506,#507,#291,.T.);
#629=EDGE_CURVE('',#507,#507,#64,.T.);
#630=EDGE_CURVE('',#508,#508,#65,.T.);
#631=EDGE_CURVE('',#508,#509,#292,.T.);
#632=EDGE_CURVE('',#509,#509,#66,.T.);
#633=EDGE_CURVE('',#510,#510,#67,.T.);
#634=EDGE_CURVE('',#510,#511,#293,.T.);
#635=EDGE_CURVE('',#511,#511,#68,.T.);
#636=EDGE_CURVE('',#512,#512,#69,.T.);
#637=EDGE_CURVE('',#512,#513,#294,.T.);
#638=EDGE_CURVE('',#513,#513,#70,.T.);
#639=EDGE_CURVE('',#514,#514,#71,.T.);
#640=EDGE_CURVE('',#514,#515,#295,.T.);
#641=EDGE_CURVE('',#515,#515,#72,.T.);
#642=EDGE_CURVE('',#516,#517,#296,.T.);
#643=EDGE_CURVE('',#516,#518,#297,.T.);
#644=EDGE_CURVE('',#519,#518,#298,.T.);
#645=EDGE_CURVE('',#517,#519,#299,.T.);
#646=EDGE_CURVE('',#517,#520,#300,.T.);
#647=EDGE_CURVE('',#521,#519,#301,.T.);
#648=EDGE_CURVE('',#520,#521,#302,.T.);
#649=EDGE_CURVE('',#520,#522,#303,.T.);
#650=EDGE_CURVE('',#523,#521,#304,.T.);
#651=EDGE_CURVE('',#522,#523,#305,.T.);
#652=EDGE_CURVE('',#524,#522,#306,.T.);
#653=EDGE_CURVE('',#525,#523,#307,.T.);
#654=EDGE_CURVE('',#524,#525,#308,.T.);
#655=EDGE_CURVE('',#526,#524,#309,.T.);
#656=EDGE_CURVE('',#527,#525,#310,.T.);
#657=EDGE_CURVE('',#526,#527,#311,.T.);
#658=EDGE_CURVE('',#528,#526,#312,.T.);
#659=EDGE_CURVE('',#529,#527,#313,.T.);
#660=EDGE_CURVE('',#528,#529,#314,.T.);
#661=EDGE_CURVE('',#530,#528,#315,.T.);
#662=EDGE_CURVE('',#531,#529,#316,.T.);
#663=EDGE_CURVE('',#530,#531,#317,.T.);
#664=EDGE_CURVE('',#530,#516,#318,.T.);
#665=EDGE_CURVE('',#518,#531,#319,.T.);
#666=EDGE_CURVE('',#532,#532,#73,.T.);
#667=EDGE_CURVE('',#532,#533,#320,.T.);
#668=EDGE_CURVE('',#533,#533,#74,.T.);
#669=EDGE_CURVE('',#534,#535,#321,.T.);
#670=EDGE_CURVE('',#534,#536,#322,.T.);
#671=EDGE_CURVE('',#537,#536,#323,.T.);
#672=EDGE_CURVE('',#535,#537,#324,.T.);
#673=EDGE_CURVE('',#535,#538,#325,.T.);
#674=EDGE_CURVE('',#539,#537,#326,.T.);
#675=EDGE_CURVE('',#538,#539,#327,.T.);
#676=EDGE_CURVE('',#540,#538,#328,.T.);
#677=EDGE_CURVE('',#541,#539,#329,.T.);
#678=EDGE_CURVE('',#540,#541,#330,.T.);
#679=EDGE_CURVE('',#540,#534,#331,.T.);
#680=EDGE_CURVE('',#536,#541,#332,.T.);
#681=EDGE_CURVE('',#542,#542,#75,.T.);
#682=EDGE_CURVE('',#542,#543,#333,.T.);
#683=EDGE_CURVE('',#543,#543,#76,.T.);
#684=EDGE_CURVE('',#544,#545,#334,.T.);
#685=EDGE_CURVE('',#545,#546,#335,.T.);
#686=EDGE_CURVE('',#547,#546,#336,.T.);
#687=EDGE_CURVE('',#544,#547,#337,.T.);
#688=EDGE_CURVE('',#548,#544,#338,.T.);
#689=EDGE_CURVE('',#549,#547,#339,.T.);
#690=EDGE_CURVE('',#548,#549,#340,.T.);
#691=EDGE_CURVE('',#550,#548,#341,.T.);
#692=EDGE_CURVE('',#551,#549,#342,.T.);
#693=EDGE_CURVE('',#550,#551,#343,.T.);
#694=EDGE_CURVE('',#545,#550,#344,.T.);
#695=EDGE_CURVE('',#546,#551,#345,.T.);
#696=ORIENTED_EDGE('',*,*,#552,.T.);
#697=ORIENTED_EDGE('',*,*,#553,.T.);
#698=ORIENTED_EDGE('',*,*,#554,.F.);
#699=ORIENTED_EDGE('',*,*,#555,.F.);
#700=ORIENTED_EDGE('',*,*,#556,.T.);
#701=ORIENTED_EDGE('',*,*,#555,.T.);
#702=ORIENTED_EDGE('',*,*,#557,.F.);
#703=ORIENTED_EDGE('',*,*,#558,.F.);
#704=ORIENTED_EDGE('',*,*,#559,.T.);
#705=ORIENTED_EDGE('',*,*,#558,.T.);
#706=ORIENTED_EDGE('',*,*,#560,.F.);
#707=ORIENTED_EDGE('',*,*,#553,.F.);
#708=ORIENTED_EDGE('',*,*,#561,.T.);
#709=ORIENTED_EDGE('',*,*,#562,.T.);
#710=ORIENTED_EDGE('',*,*,#563,.F.);
#711=ORIENTED_EDGE('',*,*,#564,.F.);
#712=ORIENTED_EDGE('',*,*,#565,.T.);
#713=ORIENTED_EDGE('',*,*,#564,.T.);
#714=ORIENTED_EDGE('',*,*,#566,.F.);
#715=ORIENTED_EDGE('',*,*,#567,.F.);
#716=ORIENTED_EDGE('',*,*,#568,.T.);
#717=ORIENTED_EDGE('',*,*,#567,.T.);
#718=ORIENTED_EDGE('',*,*,#569,.F.);
#719=ORIENTED_EDGE('',*,*,#562,.F.);
#720=ORIENTED_EDGE('',*,*,#570,.T.);
#721=ORIENTED_EDGE('',*,*,#571,.T.);
#722=ORIENTED_EDGE('',*,*,#572,.F.);
#723=ORIENTED_EDGE('',*,*,#573,.F.);
#724=ORIENTED_EDGE('',*,*,#574,.T.);
#725=ORIENTED_EDGE('',*,*,#573,.T.);
#726=ORIENTED_EDGE('',*,*,#575,.F.);
#727=ORIENTED_EDGE('',*,*,#576,.F.);
#728=ORIENTED_EDGE('',*,*,#577,.T.);
#729=ORIENTED_EDGE('',*,*,#576,.T.);
#730=ORIENTED_EDGE('',*,*,#578,.F.);
#731=ORIENTED_EDGE('',*,*,#571,.F.);
#732=ORIENTED_EDGE('',*,*,#579,.T.);
#733=ORIENTED_EDGE('',*,*,#580,.T.);
#734=ORIENTED_EDGE('',*,*,#581,.F.);
#735=ORIENTED_EDGE('',*,*,#582,.F.);
#736=ORIENTED_EDGE('',*,*,#583,.T.);
#737=ORIENTED_EDGE('',*,*,#582,.T.);
#738=ORIENTED_EDGE('',*,*,#584,.F.);
#739=ORIENTED_EDGE('',*,*,#585,.F.);
#740=ORIENTED_EDGE('',*,*,#586,.T.);
#741=ORIENTED_EDGE('',*,*,#585,.T.);
#742=ORIENTED_EDGE('',*,*,#587,.F.);
#743=ORIENTED_EDGE('',*,*,#580,.F.);
#744=ORIENTED_EDGE('',*,*,#588,.T.);
#745=ORIENTED_EDGE('',*,*,#589,.T.);
#746=ORIENTED_EDGE('',*,*,#590,.F.);
#747=ORIENTED_EDGE('',*,*,#591,.F.);
#748=ORIENTED_EDGE('',*,*,#592,.T.);
#749=ORIENTED_EDGE('',*,*,#591,.T.);
#750=ORIENTED_EDGE('',*,*,#593,.F.);
#751=ORIENTED_EDGE('',*,*,#594,.F.);
#752=ORIENTED_EDGE('',*,*,#595,.T.);
#753=ORIENTED_EDGE('',*,*,#594,.T.);
#754=ORIENTED_EDGE('',*,*,#596,.F.);
#755=ORIENTED_EDGE('',*,*,#597,.F.);
#756=ORIENTED_EDGE('',*,*,#598,.T.);
#757=ORIENTED_EDGE('',*,*,#597,.T.);
#758=ORIENTED_EDGE('',*,*,#599,.F.);
#759=ORIENTED_EDGE('',*,*,#600,.F.);
#760=ORIENTED_EDGE('',*,*,#601,.T.);
#761=ORIENTED_EDGE('',*,*,#600,.T.);
#762=ORIENTED_EDGE('',*,*,#602,.F.);
#763=ORIENTED_EDGE('',*,*,#603,.F.);
#764=ORIENTED_EDGE('',*,*,#604,.T.);
#765=ORIENTED_EDGE('',*,*,#603,.T.);
#766=ORIENTED_EDGE('',*,*,#605,.F.);
#767=ORIENTED_EDGE('',*,*,#606,.F.);
#768=ORIENTED_EDGE('',*,*,#607,.T.);
#769=ORIENTED_EDGE('',*,*,#606,.T.);
#770=ORIENTED_EDGE('',*,*,#608,.F.);
#771=ORIENTED_EDGE('',*,*,#609,.F.);
#772=ORIENTED_EDGE('',*,*,#610,.T.);
#773=ORIENTED_EDGE('',*,*,#609,.T.);
#774=ORIENTED_EDGE('',*,*,#611,.F.);
#775=ORIENTED_EDGE('',*,*,#589,.F.);
#776=ORIENTED_EDGE('',*,*,#612,.F.);
#777=ORIENTED_EDGE('',*,*,#613,.T.);
#778=ORIENTED_EDGE('',*,*,#614,.F.);
#779=ORIENTED_EDGE('',*,*,#615,.F.);
#780=ORIENTED_EDGE('',*,*,#616,.T.);
#781=ORIENTED_EDGE('',*,*,#615,.T.);
#782=ORIENTED_EDGE('',*,*,#617,.F.);
#783=ORIENTED_EDGE('',*,*,#618,.F.);
#784=ORIENTED_EDGE('',*,*,#619,.F.);
#785=ORIENTED_EDGE('',*,*,#618,.T.);
#786=ORIENTED_EDGE('',*,*,#620,.F.);
#787=ORIENTED_EDGE('',*,*,#621,.F.);
#788=ORIENTED_EDGE('',*,*,#622,.T.);
#789=ORIENTED_EDGE('',*,*,#621,.T.);
#790=ORIENTED_EDGE('',*,*,#623,.F.);
#791=ORIENTED_EDGE('',*,*,#613,.F.);
#792=ORIENTED_EDGE('',*,*,#623,.T.);
#793=ORIENTED_EDGE('',*,*,#620,.T.);
#794=ORIENTED_EDGE('',*,*,#617,.T.);
#795=ORIENTED_EDGE('',*,*,#614,.T.);
#796=ORIENTED_EDGE('',*,*,#611,.T.);
#797=ORIENTED_EDGE('',*,*,#608,.T.);
#798=ORIENTED_EDGE('',*,*,#605,.T.);
#799=ORIENTED_EDGE('',*,*,#602,.T.);
#800=ORIENTED_EDGE('',*,*,#599,.T.);
#801=ORIENTED_EDGE('',*,*,#596,.T.);
#802=ORIENTED_EDGE('',*,*,#593,.T.);
#803=ORIENTED_EDGE('',*,*,#590,.T.);
#804=ORIENTED_EDGE('',*,*,#587,.T.);
#805=ORIENTED_EDGE('',*,*,#584,.T.);
#806=ORIENTED_EDGE('',*,*,#581,.T.);
#807=ORIENTED_EDGE('',*,*,#578,.T.);
#808=ORIENTED_EDGE('',*,*,#575,.T.);
#809=ORIENTED_EDGE('',*,*,#572,.T.);
#810=ORIENTED_EDGE('',*,*,#569,.T.);
#811=ORIENTED_EDGE('',*,*,#566,.T.);
#812=ORIENTED_EDGE('',*,*,#563,.T.);
#813=ORIENTED_EDGE('',*,*,#560,.T.);
#814=ORIENTED_EDGE('',*,*,#557,.T.);
#815=ORIENTED_EDGE('',*,*,#554,.T.);
#816=ORIENTED_EDGE('',*,*,#622,.F.);
#817=ORIENTED_EDGE('',*,*,#612,.T.);
#818=ORIENTED_EDGE('',*,*,#616,.F.);
#819=ORIENTED_EDGE('',*,*,#619,.T.);
#820=ORIENTED_EDGE('',*,*,#610,.F.);
#821=ORIENTED_EDGE('',*,*,#588,.F.);
#822=ORIENTED_EDGE('',*,*,#592,.F.);
#823=ORIENTED_EDGE('',*,*,#595,.F.);
#824=ORIENTED_EDGE('',*,*,#598,.F.);
#825=ORIENTED_EDGE('',*,*,#601,.F.);
#826=ORIENTED_EDGE('',*,*,#604,.F.);
#827=ORIENTED_EDGE('',*,*,#607,.F.);
#828=ORIENTED_EDGE('',*,*,#586,.F.);
#829=ORIENTED_EDGE('',*,*,#579,.F.);
#830=ORIENTED_EDGE('',*,*,#583,.F.);
#831=ORIENTED_EDGE('',*,*,#577,.F.);
#832=ORIENTED_EDGE('',*,*,#570,.F.);
#833=ORIENTED_EDGE('',*,*,#574,.F.);
#834=ORIENTED_EDGE('',*,*,#568,.F.);
#835=ORIENTED_EDGE('',*,*,#561,.F.);
#836=ORIENTED_EDGE('',*,*,#565,.F.);
#837=ORIENTED_EDGE('',*,*,#559,.F.);
#838=ORIENTED_EDGE('',*,*,#552,.F.);
#839=ORIENTED_EDGE('',*,*,#556,.F.);
#840=ORIENTED_EDGE('',*,*,#624,.F.);
#841=ORIENTED_EDGE('',*,*,#625,.T.);
#842=ORIENTED_EDGE('',*,*,#626,.F.);
#843=ORIENTED_EDGE('',*,*,#625,.F.);
#844=ORIENTED_EDGE('',*,*,#627,.F.);
#845=ORIENTED_EDGE('',*,*,#628,.T.);
#846=ORIENTED_EDGE('',*,*,#629,.F.);
#847=ORIENTED_EDGE('',*,*,#628,.F.);
#848=ORIENTED_EDGE('',*,*,#630,.F.);
#849=ORIENTED_EDGE('',*,*,#631,.T.);
#850=ORIENTED_EDGE('',*,*,#632,.F.);
#851=ORIENTED_EDGE('',*,*,#631,.F.);
#852=ORIENTED_EDGE('',*,*,#633,.F.);
#853=ORIENTED_EDGE('',*,*,#634,.T.);
#854=ORIENTED_EDGE('',*,*,#635,.F.);
#855=ORIENTED_EDGE('',*,*,#634,.F.);
#856=ORIENTED_EDGE('',*,*,#636,.F.);
#857=ORIENTED_EDGE('',*,*,#637,.T.);
#858=ORIENTED_EDGE('',*,*,#638,.T.);
#859=ORIENTED_EDGE('',*,*,#637,.F.);
#860=ORIENTED_EDGE('',*,*,#638,.F.);
#861=ORIENTED_EDGE('',*,*,#639,.F.);
#862=ORIENTED_EDGE('',*,*,#640,.T.);
#863=ORIENTED_EDGE('',*,*,#641,.T.);
#864=ORIENTED_EDGE('',*,*,#640,.F.);
#865=ORIENTED_EDGE('',*,*,#641,.F.);
#866=ORIENTED_EDGE('',*,*,#642,.F.);
#867=ORIENTED_EDGE('',*,*,#643,.T.);
#868=ORIENTED_EDGE('',*,*,#644,.F.);
#869=ORIENTED_EDGE('',*,*,#645,.F.);
#870=ORIENTED_EDGE('',*,*,#646,.F.);
#871=ORIENTED_EDGE('',*,*,#645,.T.);
#872=ORIENTED_EDGE('',*,*,#647,.F.);
#873=ORIENTED_EDGE('',*,*,#648,.F.);
#874=ORIENTED_EDGE('',*,*,#649,.F.);
#875=ORIENTED_EDGE('',*,*,#648,.T.);
#876=ORIENTED_EDGE('',*,*,#650,.F.);
#877=ORIENTED_EDGE('',*,*,#651,.F.);
#878=ORIENTED_EDGE('',*,*,#624,.T.);
#879=ORIENTED_EDGE('',*,*,#627,.T.);
#880=ORIENTED_EDGE('',*,*,#630,.T.);
#881=ORIENTED_EDGE('',*,*,#633,.T.);
#882=ORIENTED_EDGE('',*,*,#652,.T.);
#883=ORIENTED_EDGE('',*,*,#651,.T.);
#884=ORIENTED_EDGE('',*,*,#653,.F.);
#885=ORIENTED_EDGE('',*,*,#654,.F.);
#886=ORIENTED_EDGE('',*,*,#655,.T.);
#887=ORIENTED_EDGE('',*,*,#654,.T.);
#888=ORIENTED_EDGE('',*,*,#656,.F.);
#889=ORIENTED_EDGE('',*,*,#657,.F.);
#890=ORIENTED_EDGE('',*,*,#658,.T.);
#891=ORIENTED_EDGE('',*,*,#657,.T.);
#892=ORIENTED_EDGE('',*,*,#659,.F.);
#893=ORIENTED_EDGE('',*,*,#660,.F.);
#894=ORIENTED_EDGE('',*,*,#661,.T.);
#895=ORIENTED_EDGE('',*,*,#660,.T.);
#896=ORIENTED_EDGE('',*,*,#662,.F.);
#897=ORIENTED_EDGE('',*,*,#663,.F.);
#898=ORIENTED_EDGE('',*,*,#626,.T.);
#899=ORIENTED_EDGE('',*,*,#629,.T.);
#900=ORIENTED_EDGE('',*,*,#632,.T.);
#901=ORIENTED_EDGE('',*,*,#635,.T.);
#902=ORIENTED_EDGE('',*,*,#664,.F.);
#903=ORIENTED_EDGE('',*,*,#663,.T.);
#904=ORIENTED_EDGE('',*,*,#665,.F.);
#905=ORIENTED_EDGE('',*,*,#643,.F.);
#906=ORIENTED_EDGE('',*,*,#664,.T.);
#907=ORIENTED_EDGE('',*,*,#642,.T.);
#908=ORIENTED_EDGE('',*,*,#646,.T.);
#909=ORIENTED_EDGE('',*,*,#649,.T.);
#910=ORIENTED_EDGE('',*,*,#652,.F.);
#911=ORIENTED_EDGE('',*,*,#655,.F.);
#912=ORIENTED_EDGE('',*,*,#658,.F.);
#913=ORIENTED_EDGE('',*,*,#661,.F.);
#914=ORIENTED_EDGE('',*,*,#665,.T.);
#915=ORIENTED_EDGE('',*,*,#662,.T.);
#916=ORIENTED_EDGE('',*,*,#659,.T.);
#917=ORIENTED_EDGE('',*,*,#656,.T.);
#918=ORIENTED_EDGE('',*,*,#653,.T.);
#919=ORIENTED_EDGE('',*,*,#650,.T.);
#920=ORIENTED_EDGE('',*,*,#647,.T.);
#921=ORIENTED_EDGE('',*,*,#644,.T.);
#922=ORIENTED_EDGE('',*,*,#636,.T.);
#923=ORIENTED_EDGE('',*,*,#639,.T.);
#924=ORIENTED_EDGE('',*,*,#666,.F.);
#925=ORIENTED_EDGE('',*,*,#667,.T.);
#926=ORIENTED_EDGE('',*,*,#668,.T.);
#927=ORIENTED_EDGE('',*,*,#667,.F.);
#928=ORIENTED_EDGE('',*,*,#668,.F.);
#929=ORIENTED_EDGE('',*,*,#669,.F.);
#930=ORIENTED_EDGE('',*,*,#670,.T.);
#931=ORIENTED_EDGE('',*,*,#671,.F.);
#932=ORIENTED_EDGE('',*,*,#672,.F.);
#933=ORIENTED_EDGE('',*,*,#673,.F.);
#934=ORIENTED_EDGE('',*,*,#672,.T.);
#935=ORIENTED_EDGE('',*,*,#674,.F.);
#936=ORIENTED_EDGE('',*,*,#675,.F.);
#937=ORIENTED_EDGE('',*,*,#676,.T.);
#938=ORIENTED_EDGE('',*,*,#675,.T.);
#939=ORIENTED_EDGE('',*,*,#677,.F.);
#940=ORIENTED_EDGE('',*,*,#678,.F.);
#941=ORIENTED_EDGE('',*,*,#679,.F.);
#942=ORIENTED_EDGE('',*,*,#678,.T.);
#943=ORIENTED_EDGE('',*,*,#680,.F.);
#944=ORIENTED_EDGE('',*,*,#670,.F.);
#945=ORIENTED_EDGE('',*,*,#679,.T.);
#946=ORIENTED_EDGE('',*,*,#669,.T.);
#947=ORIENTED_EDGE('',*,*,#673,.T.);
#948=ORIENTED_EDGE('',*,*,#676,.F.);
#949=ORIENTED_EDGE('',*,*,#680,.T.);
#950=ORIENTED_EDGE('',*,*,#677,.T.);
#951=ORIENTED_EDGE('',*,*,#674,.T.);
#952=ORIENTED_EDGE('',*,*,#671,.T.);
#953=ORIENTED_EDGE('',*,*,#666,.T.);
#954=ORIENTED_EDGE('',*,*,#681,.F.);
#955=ORIENTED_EDGE('',*,*,#682,.T.);
#956=ORIENTED_EDGE('',*,*,#683,.T.);
#957=ORIENTED_EDGE('',*,*,#682,.F.);
#958=ORIENTED_EDGE('',*,*,#683,.F.);
#959=ORIENTED_EDGE('',*,*,#684,.T.);
#960=ORIENTED_EDGE('',*,*,#685,.T.);
#961=ORIENTED_EDGE('',*,*,#686,.F.);
#962=ORIENTED_EDGE('',*,*,#687,.F.);
#963=ORIENTED_EDGE('',*,*,#688,.T.);
#964=ORIENTED_EDGE('',*,*,#687,.T.);
#965=ORIENTED_EDGE('',*,*,#689,.F.);
#966=ORIENTED_EDGE('',*,*,#690,.F.);
#967=ORIENTED_EDGE('',*,*,#691,.T.);
#968=ORIENTED_EDGE('',*,*,#690,.T.);
#969=ORIENTED_EDGE('',*,*,#692,.F.);
#970=ORIENTED_EDGE('',*,*,#693,.F.);
#971=ORIENTED_EDGE('',*,*,#694,.T.);
#972=ORIENTED_EDGE('',*,*,#693,.T.);
#973=ORIENTED_EDGE('',*,*,#695,.F.);
#974=ORIENTED_EDGE('',*,*,#685,.F.);
#975=ORIENTED_EDGE('',*,*,#694,.F.);
#976=ORIENTED_EDGE('',*,*,#684,.F.);
#977=ORIENTED_EDGE('',*,*,#688,.F.);
#978=ORIENTED_EDGE('',*,*,#691,.F.);
#979=ORIENTED_EDGE('',*,*,#695,.T.);
#980=ORIENTED_EDGE('',*,*,#692,.T.);
#981=ORIENTED_EDGE('',*,*,#689,.T.);
#982=ORIENTED_EDGE('',*,*,#686,.T.);
#983=ORIENTED_EDGE('',*,*,#681,.T.);
#984=PLANE('',#1104);
#985=PLANE('',#1105);
#986=PLANE('',#1106);
#987=PLANE('',#1107);
#988=PLANE('',#1108);
#989=PLANE('',#1109);
#990=PLANE('',#1110);
#991=PLANE('',#1111);
#992=PLANE('',#1112);
#993=PLANE('',#1113);
#994=PLANE('',#1114);
#995=PLANE('',#1115);
#996=PLANE('',#1140);
#997=PLANE('',#1141);
#998=PLANE('',#1142);
#999=PLANE('',#1146);
#1000=PLANE('',#1147);
#1001=PLANE('',#1163);
#1002=PLANE('',#1167);
#1003=PLANE('',#1168);
#1004=PLANE('',#1169);
#1005=PLANE('',#1170);
#1006=PLANE('',#1171);
#1007=PLANE('',#1172);
#1008=PLANE('',#1173);
#1009=PLANE('',#1174);
#1010=PLANE('',#1175);
#1011=PLANE('',#1176);
#1012=PLANE('',#1177);
#1013=PLANE('',#1181);
#1014=PLANE('',#1182);
#1015=PLANE('',#1183);
#1016=PLANE('',#1184);
#1017=PLANE('',#1185);
#1018=PLANE('',#1186);
#1019=PLANE('',#1187);
#1020=PLANE('',#1191);
#1021=PLANE('',#1192);
#1022=PLANE('',#1193);
#1023=PLANE('',#1194);
#1024=PLANE('',#1195);
#1025=PLANE('',#1196);
#1026=PLANE('',#1197);
#1027=ADVANCED_FACE('',(#94),#984,.T.);
#1028=ADVANCED_FACE('',(#95),#985,.T.);
#1029=ADVANCED_FACE('',(#96),#986,.T.);
#1030=ADVANCED_FACE('',(#97),#987,.T.);
#1031=ADVANCED_FACE('',(#98),#988,.T.);
#1032=ADVANCED_FACE('',(#99),#989,.T.);
#1033=ADVANCED_FACE('',(#100),#990,.T.);
#1034=ADVANCED_FACE('',(#101),#991,.T.);
#1035=ADVANCED_FACE('',(#102),#992,.T.);
#1036=ADVANCED_FACE('',(#103),#993,.T.);
#1037=ADVANCED_FACE('',(#104),#994,.T.);
#1038=ADVANCED_FACE('',(#105),#995,.T.);
#1039=ADVANCED_FACE('',(#106),#77,.F.);
#1040=ADVANCED_FACE('',(#107),#78,.F.);
#1041=ADVANCED_FACE('',(#108),#79,.F.);
#1042=ADVANCED_FACE('',(#109),#80,.F.);
#1043=ADVANCED_FACE('',(#110),#81,.F.);
#1044=ADVANCED_FACE('',(#111),#82,.F.);
#1045=ADVANCED_FACE('',(#112),#83,.F.);
#1046=ADVANCED_FACE('',(#113),#84,.F.);
#1047=ADVANCED_FACE('',(#114),#996,.T.);
#1048=ADVANCED_FACE('',(#115),#997,.T.);
#1049=ADVANCED_FACE('',(#116),#998,.T.);
#1050=ADVANCED_FACE('',(#117),#85,.T.);
#1051=ADVANCED_FACE('',(#118,#21,#22,#23,#24,#25),#999,.T.);
#1052=ADVANCED_FACE('',(#119,#26,#27,#28,#29,#30),#1000,.F.);
#1053=ADVANCED_FACE('',(#120),#86,.F.);
#1054=ADVANCED_FACE('',(#121),#87,.F.);
#1055=ADVANCED_FACE('',(#122),#88,.F.);
#1056=ADVANCED_FACE('',(#123),#89,.F.);
#1057=ADVANCED_FACE('',(#124),#90,.F.);
#1058=ADVANCED_FACE('',(#125),#1001,.T.);
#1059=ADVANCED_FACE('',(#126),#91,.F.);
#1060=ADVANCED_FACE('',(#127),#1002,.T.);
#1061=ADVANCED_FACE('',(#128),#1003,.T.);
#1062=ADVANCED_FACE('',(#129),#1004,.T.);
#1063=ADVANCED_FACE('',(#130,#31,#32,#33,#34),#1005,.T.);
#1064=ADVANCED_FACE('',(#131),#1006,.T.);
#1065=ADVANCED_FACE('',(#132),#1007,.T.);
#1066=ADVANCED_FACE('',(#133),#1008,.T.);
#1067=ADVANCED_FACE('',(#134,#35,#36,#37,#38),#1009,.T.);
#1068=ADVANCED_FACE('',(#135),#1010,.T.);
#1069=ADVANCED_FACE('',(#136),#1011,.T.);
#1070=ADVANCED_FACE('',(#137,#39,#40),#1012,.T.);
#1071=ADVANCED_FACE('',(#138),#92,.F.);
#1072=ADVANCED_FACE('',(#139),#1013,.T.);
#1073=ADVANCED_FACE('',(#140),#1014,.T.);
#1074=ADVANCED_FACE('',(#141),#1015,.T.);
#1075=ADVANCED_FACE('',(#142),#1016,.T.);
#1076=ADVANCED_FACE('',(#143),#1017,.T.);
#1077=ADVANCED_FACE('',(#144),#1018,.T.);
#1078=ADVANCED_FACE('',(#145,#41),#1019,.T.);
#1079=ADVANCED_FACE('',(#146),#93,.F.);
#1080=ADVANCED_FACE('',(#147),#1020,.T.);
#1081=ADVANCED_FACE('',(#148),#1021,.T.);
#1082=ADVANCED_FACE('',(#149),#1022,.T.);
#1083=ADVANCED_FACE('',(#150),#1023,.T.);
#1084=ADVANCED_FACE('',(#151),#1024,.T.);
#1085=ADVANCED_FACE('',(#152),#1025,.T.);
#1086=ADVANCED_FACE('',(#153,#42),#1026,.T.);
#1087=CLOSED_SHELL('',(#1027,#1028,#1029,#1030,#1031,#1032,#1033,#1034,
#1035,#1036,#1037,#1038,#1039,#1040,#1041,#1042,#1043,#1044,#1045,#1046,
#1047,#1048,#1049,#1050,#1051,#1052));
#1088=CLOSED_SHELL('',(#1053,#1054,#1055,#1056,#1057,#1058,#1059,#1060,
#1061,#1062,#1063,#1064,#1065,#1066,#1067,#1068,#1069,#1070));
#1089=CLOSED_SHELL('',(#1071,#1072,#1073,#1074,#1075,#1076,#1077,#1078));
#1090=CLOSED_SHELL('',(#1079,#1080,#1081,#1082,#1083,#1084,#1085,#1086));
#1091=DERIVED_UNIT_ELEMENT(#1093,1.);
#1092=DERIVED_UNIT_ELEMENT(#1804,-3.);
#1093=(
MASS_UNIT()
NAMED_UNIT(*)
SI_UNIT(.KILO.,.GRAM.)
);
#1094=DERIVED_UNIT((#1091,#1092));
#1095=MEASURE_REPRESENTATION_ITEM('density measure',
POSITIVE_RATIO_MEASURE(7850.),#1094);
#1096=PROPERTY_DEFINITION_REPRESENTATION(#1101,#1098);
#1097=PROPERTY_DEFINITION_REPRESENTATION(#1102,#1099);
#1098=REPRESENTATION('material name',(#1100),#1801);
#1099=REPRESENTATION('density',(#1095),#1801);
#1100=DESCRIPTIVE_REPRESENTATION_ITEM('Steel','Steel');
#1101=PROPERTY_DEFINITION('material property','material name',#1811);
#1102=PROPERTY_DEFINITION('material property','density of part',#1811);
#1103=AXIS2_PLACEMENT_3D('',#1498,#1198,#1199);
#1104=AXIS2_PLACEMENT_3D('',#1499,#1200,#1201);
#1105=AXIS2_PLACEMENT_3D('',#1508,#1206,#1207);
#1106=AXIS2_PLACEMENT_3D('',#1514,#1211,#1212);
#1107=AXIS2_PLACEMENT_3D('',#1517,#1215,#1216);
#1108=AXIS2_PLACEMENT_3D('',#1526,#1221,#1222);
#1109=AXIS2_PLACEMENT_3D('',#1532,#1226,#1227);
#1110=AXIS2_PLACEMENT_3D('',#1535,#1230,#1231);
#1111=AXIS2_PLACEMENT_3D('',#1544,#1236,#1237);
#1112=AXIS2_PLACEMENT_3D('',#1550,#1241,#1242);
#1113=AXIS2_PLACEMENT_3D('',#1553,#1245,#1246);
#1114=AXIS2_PLACEMENT_3D('',#1562,#1251,#1252);
#1115=AXIS2_PLACEMENT_3D('',#1568,#1256,#1257);
#1116=AXIS2_PLACEMENT_3D('',#1571,#1260,#1261);
#1117=AXIS2_PLACEMENT_3D('',#1574,#1262,#1263);
#1118=AXIS2_PLACEMENT_3D('',#1578,#1265,#1266);
#1119=AXIS2_PLACEMENT_3D('',#1580,#1268,#1269);
#1120=AXIS2_PLACEMENT_3D('',#1582,#1270,#1271);
#1121=AXIS2_PLACEMENT_3D('',#1584,#1272,#1273);
#1122=AXIS2_PLACEMENT_3D('',#1586,#1275,#1276);
#1123=AXIS2_PLACEMENT_3D('',#1588,#1277,#1278);
#1124=AXIS2_PLACEMENT_3D('',#1590,#1279,#1280);
#1125=AXIS2_PLACEMENT_3D('',#1592,#1282,#1283);
#1126=AXIS2_PLACEMENT_3D('',#1594,#1284,#1285);
#1127=AXIS2_PLACEMENT_3D('',#1596,#1286,#1287);
#1128=AXIS2_PLACEMENT_3D('',#1598,#1289,#1290);
#1129=AXIS2_PLACEMENT_3D('',#1600,#1291,#1292);
#1130=AXIS2_PLACEMENT_3D('',#1602,#1293,#1294);
#1131=AXIS2_PLACEMENT_3D('',#1604,#1296,#1297);
#1132=AXIS2_PLACEMENT_3D('',#1606,#1298,#1299);
#1133=AXIS2_PLACEMENT_3D('',#1608,#1300,#1301);
#1134=AXIS2_PLACEMENT_3D('',#1610,#1303,#1304);
#1135=AXIS2_PLACEMENT_3D('',#1612,#1305,#1306);
#1136=AXIS2_PLACEMENT_3D('',#1614,#1307,#1308);
#1137=AXIS2_PLACEMENT_3D('',#1616,#1310,#1311);
#1138=AXIS2_PLACEMENT_3D('',#1617,#1312,#1313);
#1139=AXIS2_PLACEMENT_3D('',#1618,#1314,#1315);
#1140=AXIS2_PLACEMENT_3D('',#1619,#1316,#1317);
#1141=AXIS2_PLACEMENT_3D('',#1628,#1322,#1323);
#1142=AXIS2_PLACEMENT_3D('',#1634,#1327,#1328);
#1143=AXIS2_PLACEMENT_3D('',#1640,#1332,#1333);
#1144=AXIS2_PLACEMENT_3D('',#1641,#1334,#1335);
#1145=AXIS2_PLACEMENT_3D('',#1642,#1336,#1337);
#1146=AXIS2_PLACEMENT_3D('',#1643,#1338,#1339);
#1147=AXIS2_PLACEMENT_3D('',#1644,#1340,#1341);
#1148=AXIS2_PLACEMENT_3D('',#1645,#1342,#1343);
#1149=AXIS2_PLACEMENT_3D('',#1647,#1344,#1345);
#1150=AXIS2_PLACEMENT_3D('',#1650,#1347,#1348);
#1151=AXIS2_PLACEMENT_3D('',#1651,#1349,#1350);
#1152=AXIS2_PLACEMENT_3D('',#1653,#1351,#1352);
#1153=AXIS2_PLACEMENT_3D('',#1656,#1354,#1355);
#1154=AXIS2_PLACEMENT_3D('',#1657,#1356,#1357);
#1155=AXIS2_PLACEMENT_3D('',#1659,#1358,#1359);
#1156=AXIS2_PLACEMENT_3D('',#1662,#1361,#1362);
#1157=AXIS2_PLACEMENT_3D('',#1663,#1363,#1364);
#1158=AXIS2_PLACEMENT_3D('',#1665,#1365,#1366);
#1159=AXIS2_PLACEMENT_3D('',#1668,#1368,#1369);
#1160=AXIS2_PLACEMENT_3D('',#1669,#1370,#1371);
#1161=AXIS2_PLACEMENT_3D('',#1671,#1372,#1373);
#1162=AXIS2_PLACEMENT_3D('',#1674,#1375,#1376);
#1163=AXIS2_PLACEMENT_3D('',#1675,#1377,#1378);
#1164=AXIS2_PLACEMENT_3D('',#1676,#1379,#1380);
#1165=AXIS2_PLACEMENT_3D('',#1678,#1381,#1382);
#1166=AXIS2_PLACEMENT_3D('',#1681,#1384,#1385);
#1167=AXIS2_PLACEMENT_3D('',#1682,#1386,#1387);
#1168=AXIS2_PLACEMENT_3D('',#1683,#1388,#1389);
#1169=AXIS2_PLACEMENT_3D('',#1692,#1394,#1395);
#1170=AXIS2_PLACEMENT_3D('',#1698,#1399,#1400);
#1171=AXIS2_PLACEMENT_3D('',#1704,#1404,#1405);
#1172=AXIS2_PLACEMENT_3D('',#1710,#1409,#1410);
#1173=AXIS2_PLACEMENT_3D('',#1716,#1414,#1415);
#1174=AXIS2_PLACEMENT_3D('',#1722,#1419,#1420);
#1175=AXIS2_PLACEMENT_3D('',#1728,#1424,#1425);
#1176=AXIS2_PLACEMENT_3D('',#1731,#1428,#1429);
#1177=AXIS2_PLACEMENT_3D('',#1732,#1430,#1431);
#1178=AXIS2_PLACEMENT_3D('',#1733,#1432,#1433);
#1179=AXIS2_PLACEMENT_3D('',#1735,#1434,#1435);
#1180=AXIS2_PLACEMENT_3D('',#1738,#1437,#1438);
#1181=AXIS2_PLACEMENT_3D('',#1739,#1439,#1440);
#1182=AXIS2_PLACEMENT_3D('',#1740,#1441,#1442);
#1183=AXIS2_PLACEMENT_3D('',#1749,#1447,#1448);
#1184=AXIS2_PLACEMENT_3D('',#1755,#1452,#1453);
#1185=AXIS2_PLACEMENT_3D('',#1761,#1457,#1458);
#1186=AXIS2_PLACEMENT_3D('',#1764,#1461,#1462);
#1187=AXIS2_PLACEMENT_3D('',#1765,#1463,#1464);
#1188=AXIS2_PLACEMENT_3D('',#1766,#1465,#1466);
#1189=AXIS2_PLACEMENT_3D('',#1768,#1467,#1468);
#1190=AXIS2_PLACEMENT_3D('',#1771,#1470,#1471);
#1191=AXIS2_PLACEMENT_3D('',#1772,#1472,#1473);
#1192=AXIS2_PLACEMENT_3D('',#1773,#1474,#1475);
#1193=AXIS2_PLACEMENT_3D('',#1782,#1480,#1481);
#1194=AXIS2_PLACEMENT_3D('',#1788,#1485,#1486);
#1195=AXIS2_PLACEMENT_3D('',#1794,#1490,#1491);
#1196=AXIS2_PLACEMENT_3D('',#1797,#1494,#1495);
#1197=AXIS2_PLACEMENT_3D('',#1798,#1496,#1497);
#1198=DIRECTION('axis',(0.,0.,1.));
#1199=DIRECTION('refdir',(1.,0.,0.));
#1200=DIRECTION('center_axis',(0.,1.,0.));
#1201=DIRECTION('ref_axis',(-1.,0.,0.));
#1202=DIRECTION('',(-1.,0.,0.));
#1203=DIRECTION('',(0.,0.,1.));
#1204=DIRECTION('',(-1.,0.,0.));
#1205=DIRECTION('',(0.,0.,1.));
#1206=DIRECTION('center_axis',(-0.915644030191285,-0.401990062035198,0.));
#1207=DIRECTION('ref_axis',(0.401990062035197,-0.915644030191284,0.));
#1208=DIRECTION('',(0.401990062035197,-0.915644030191284,0.));
#1209=DIRECTION('',(0.401990062035197,-0.915644030191284,0.));
#1210=DIRECTION('',(0.,0.,1.));
#1211=DIRECTION('center_axis',(0.915644030191284,-0.401990062035198,0.));
#1212=DIRECTION('ref_axis',(0.401990062035198,0.915644030191284,0.));
#1213=DIRECTION('',(0.401990062035198,0.915644030191284,0.));
#1214=DIRECTION('',(0.401990062035198,0.915644030191284,0.));
#1215=DIRECTION('center_axis',(0.915644030191284,0.401990062035198,0.));
#1216=DIRECTION('ref_axis',(-0.401990062035198,0.915644030191284,0.));
#1217=DIRECTION('',(-0.401990062035198,0.915644030191284,0.));
#1218=DIRECTION('',(0.,0.,1.));
#1219=DIRECTION('',(-0.401990062035198,0.915644030191284,0.));
#1220=DIRECTION('',(0.,0.,1.));
#1221=DIRECTION('center_axis',(-1.,-7.22096276178964E-17,0.));
#1222=DIRECTION('ref_axis',(7.22096276178964E-17,-1.,0.));
#1223=DIRECTION('',(7.22096276178964E-17,-1.,0.));
#1224=DIRECTION('',(7.22096276178964E-17,-1.,0.));
#1225=DIRECTION('',(0.,0.,1.));
#1226=DIRECTION('center_axis',(0.915644030191284,-0.401990062035198,0.));
#1227=DIRECTION('ref_axis',(0.401990062035198,0.915644030191284,0.));
#1228=DIRECTION('',(0.401990062035198,0.915644030191284,0.));
#1229=DIRECTION('',(0.401990062035198,0.915644030191284,0.));
#1230=DIRECTION('center_axis',(-0.915644030191284,0.401990062035198,0.));
#1231=DIRECTION('ref_axis',(-0.401990062035198,-0.915644030191284,0.));
#1232=DIRECTION('',(-0.401990062035198,-0.915644030191284,0.));
#1233=DIRECTION('',(0.,0.,1.));
#1234=DIRECTION('',(-0.401990062035198,-0.915644030191284,0.));
#1235=DIRECTION('',(0.,0.,1.));
#1236=DIRECTION('center_axis',(-0.915644030191285,-0.401990062035198,0.));
#1237=DIRECTION('ref_axis',(0.401990062035197,-0.915644030191284,0.));
#1238=DIRECTION('',(0.401990062035197,-0.915644030191284,0.));
#1239=DIRECTION('',(0.401990062035197,-0.915644030191284,0.));
#1240=DIRECTION('',(0.,0.,1.));
#1241=DIRECTION('center_axis',(1.,-6.31834241656593E-17,0.));
#1242=DIRECTION('ref_axis',(6.31834241656593E-17,1.,0.));
#1243=DIRECTION('',(6.31834241656593E-17,1.,0.));
#1244=DIRECTION('',(6.31834241656593E-17,1.,0.));
#1245=DIRECTION('center_axis',(-0.915644030191284,0.401990062035198,0.));
#1246=DIRECTION('ref_axis',(-0.401990062035198,-0.915644030191284,0.));
#1247=DIRECTION('',(-0.401990062035198,-0.915644030191284,0.));
#1248=DIRECTION('',(0.,0.,1.));
#1249=DIRECTION('',(-0.401990062035198,-0.915644030191284,0.));
#1250=DIRECTION('',(0.,0.,1.));
#1251=DIRECTION('center_axis',(1.26882631385732E-16,-1.,0.));
#1252=DIRECTION('ref_axis',(1.,1.26882631385732E-16,0.));
#1253=DIRECTION('',(1.,1.26882631385732E-16,0.));
#1254=DIRECTION('',(1.,1.26882631385732E-16,0.));
#1255=DIRECTION('',(0.,0.,1.));
#1256=DIRECTION('center_axis',(0.915644030191284,0.401990062035198,0.));
#1257=DIRECTION('ref_axis',(-0.401990062035198,0.915644030191284,0.));
#1258=DIRECTION('',(-0.401990062035198,0.915644030191284,0.));
#1259=DIRECTION('',(-0.401990062035198,0.915644030191284,0.));
#1260=DIRECTION('center_axis',(0.,0.,1.));
#1261=DIRECTION('ref_axis',(-1.,1.22464679914735E-16,0.));
#1262=DIRECTION('center_axis',(0.,0.,-1.));
#1263=DIRECTION('ref_axis',(1.,0.,0.));
#1264=DIRECTION('',(0.,0.,1.));
#1265=DIRECTION('center_axis',(0.,0.,-1.));
#1266=DIRECTION('ref_axis',(1.,0.,0.));
#1267=DIRECTION('',(0.,0.,1.));
#1268=DIRECTION('center_axis',(0.,0.,1.));
#1269=DIRECTION('ref_axis',(1.,0.,0.));
#1270=DIRECTION('center_axis',(0.,0.,-1.));
#1271=DIRECTION('ref_axis',(1.,0.,0.));
#1272=DIRECTION('center_axis',(0.,0.,-1.));
#1273=DIRECTION('ref_axis',(1.,0.,0.));
#1274=DIRECTION('',(0.,0.,1.));
#1275=DIRECTION('center_axis',(0.,0.,1.));
#1276=DIRECTION('ref_axis',(1.,0.,0.));
#1277=DIRECTION('center_axis',(0.,0.,-1.));
#1278=DIRECTION('ref_axis',(1.,0.,0.));
#1279=DIRECTION('center_axis',(0.,0.,-1.));
#1280=DIRECTION('ref_axis',(1.,0.,0.));
#1281=DIRECTION('',(0.,0.,1.));
#1282=DIRECTION('center_axis',(0.,0.,1.));
#1283=DIRECTION('ref_axis',(1.,0.,0.));
#1284=DIRECTION('center_axis',(0.,0.,-1.));
#1285=DIRECTION('ref_axis',(1.,0.,0.));
#1286=DIRECTION('center_axis',(0.,0.,-1.));
#1287=DIRECTION('ref_axis',(1.,0.,0.));
#1288=DIRECTION('',(0.,0.,1.));
#1289=DIRECTION('center_axis',(0.,0.,1.));
#1290=DIRECTION('ref_axis',(1.,0.,0.));
#1291=DIRECTION('center_axis',(0.,0.,-1.));
#1292=DIRECTION('ref_axis',(1.,0.,0.));
#1293=DIRECTION('center_axis',(0.,0.,-1.));
#1294=DIRECTION('ref_axis',(1.,0.,0.));
#1295=DIRECTION('',(0.,0.,1.));
#1296=DIRECTION('center_axis',(0.,0.,1.));
#1297=DIRECTION('ref_axis',(1.,0.,0.));
#1298=DIRECTION('center_axis',(0.,0.,-1.));
#1299=DIRECTION('ref_axis',(1.,0.,0.));
#1300=DIRECTION('center_axis',(0.,0.,-1.));
#1301=DIRECTION('ref_axis',(1.,0.,0.));
#1302=DIRECTION('',(0.,0.,1.));
#1303=DIRECTION('center_axis',(0.,0.,1.));
#1304=DIRECTION('ref_axis',(1.,0.,0.));
#1305=DIRECTION('center_axis',(0.,0.,-1.));
#1306=DIRECTION('ref_axis',(1.,0.,0.));
#1307=DIRECTION('center_axis',(0.,0.,-1.));
#1308=DIRECTION('ref_axis',(1.,0.,0.));
#1309=DIRECTION('',(0.,0.,1.));
#1310=DIRECTION('center_axis',(0.,0.,1.));
#1311=DIRECTION('ref_axis',(1.,0.,0.));
#1312=DIRECTION('center_axis',(0.,0.,-1.));
#1313=DIRECTION('ref_axis',(1.,0.,0.));
#1314=DIRECTION('center_axis',(0.,0.,-1.));
#1315=DIRECTION('ref_axis',(1.,0.,0.));
#1316=DIRECTION('center_axis',(1.,-3.70074341542221E-15,0.));
#1317=DIRECTION('ref_axis',(3.70074341542221E-15,1.,0.));
#1318=DIRECTION('',(-3.70074341542221E-15,-1.,0.));
#1319=DIRECTION('',(0.,0.,1.));
#1320=DIRECTION('',(3.70074341542221E-15,1.,0.));
#1321=DIRECTION('',(0.,0.,1.));
#1322=DIRECTION('center_axis',(0.,-1.,0.));
#1323=DIRECTION('ref_axis',(1.,0.,0.));
#1324=DIRECTION('',(1.,0.,0.));
#1325=DIRECTION('',(1.,0.,0.));
#1326=DIRECTION('',(0.,0.,1.));
#1327=DIRECTION('center_axis',(-1.,-3.50169080797679E-33,0.));
#1328=DIRECTION('ref_axis',(3.50169080797679E-33,-1.,0.));
#1329=DIRECTION('',(-3.50169080797679E-33,1.,0.));
#1330=DIRECTION('',(3.50169080797679E-33,-1.,0.));
#1331=DIRECTION('',(0.,0.,1.));
#1332=DIRECTION('center_axis',(0.,0.,1.));
#1333=DIRECTION('ref_axis',(1.,0.,0.));
#1334=DIRECTION('center_axis',(0.,0.,1.));
#1335=DIRECTION('ref_axis',(1.,0.,0.));
#1336=DIRECTION('center_axis',(0.,0.,1.));
#1337=DIRECTION('ref_axis',(1.,0.,0.));
#1338=DIRECTION('center_axis',(0.,0.,1.));
#1339=DIRECTION('ref_axis',(1.,0.,0.));
#1340=DIRECTION('center_axis',(0.,0.,1.));
#1341=DIRECTION('ref_axis',(1.,0.,0.));
#1342=DIRECTION('center_axis',(0.,1.,0.));
#1343=DIRECTION('ref_axis',(1.,0.,0.));
#1344=DIRECTION('center_axis',(0.,1.,0.));
#1345=DIRECTION('ref_axis',(1.,0.,0.));
#1346=DIRECTION('',(0.,1.,0.));
#1347=DIRECTION('center_axis',(0.,-1.,0.));
#1348=DIRECTION('ref_axis',(1.,0.,0.));
#1349=DIRECTION('center_axis',(0.,1.,0.));
#1350=DIRECTION('ref_axis',(1.,0.,0.));
#1351=DIRECTION('center_axis',(0.,1.,0.));
#1352=DIRECTION('ref_axis',(1.,0.,0.));
#1353=DIRECTION('',(0.,1.,0.));
#1354=DIRECTION('center_axis',(0.,-1.,0.));
#1355=DIRECTION('ref_axis',(1.,0.,0.));
#1356=DIRECTION('center_axis',(0.,1.,0.));
#1357=DIRECTION('ref_axis',(1.,0.,0.));
#1358=DIRECTION('center_axis',(0.,1.,0.));
#1359=DIRECTION('ref_axis',(1.,0.,0.));
#1360=DIRECTION('',(0.,1.,0.));
#1361=DIRECTION('center_axis',(0.,-1.,0.));
#1362=DIRECTION('ref_axis',(1.,0.,0.));
#1363=DIRECTION('center_axis',(0.,1.,0.));
#1364=DIRECTION('ref_axis',(1.,0.,0.));
#1365=DIRECTION('center_axis',(0.,1.,0.));
#1366=DIRECTION('ref_axis',(1.,0.,0.));
#1367=DIRECTION('',(0.,1.,0.));
#1368=DIRECTION('center_axis',(0.,-1.,0.));
#1369=DIRECTION('ref_axis',(1.,0.,0.));
#1370=DIRECTION('center_axis',(0.,0.,1.));
#1371=DIRECTION('ref_axis',(1.,0.,0.));
#1372=DIRECTION('center_axis',(0.,0.,1.));
#1373=DIRECTION('ref_axis',(1.,0.,0.));
#1374=DIRECTION('',(0.,0.,1.));
#1375=DIRECTION('center_axis',(0.,0.,1.));
#1376=DIRECTION('ref_axis',(1.,0.,0.));
#1377=DIRECTION('center_axis',(0.,0.,-1.));
#1378=DIRECTION('ref_axis',(1.,0.,0.));
#1379=DIRECTION('center_axis',(0.,0.,1.));
#1380=DIRECTION('ref_axis',(1.,0.,0.));
#1381=DIRECTION('center_axis',(0.,0.,1.));
#1382=DIRECTION('ref_axis',(1.,0.,0.));
#1383=DIRECTION('',(0.,0.,1.));
#1384=DIRECTION('center_axis',(0.,0.,1.));
#1385=DIRECTION('ref_axis',(1.,0.,0.));
#1386=DIRECTION('center_axis',(0.,0.,-1.));
#1387=DIRECTION('ref_axis',(1.,0.,0.));
#1388=DIRECTION('center_axis',(-2.7326289379403E-12,1.,0.));
#1389=DIRECTION('ref_axis',(1.,2.7326289379403E-12,0.));
#1390=DIRECTION('',(-1.,-2.7326289379403E-12,0.));
#1391=DIRECTION('',(0.,0.,-1.));
#1392=DIRECTION('',(1.,2.7326289379403E-12,0.));
#1393=DIRECTION('',(0.,0.,-1.));
#1394=DIRECTION('center_axis',(-1.,-1.20822208953576E-16,0.));
#1395=DIRECTION('ref_axis',(-1.20822208953576E-16,1.,0.));
#1396=DIRECTION('',(1.20822208953576E-16,-1.,0.));
#1397=DIRECTION('',(-1.20822208953576E-16,1.,0.));
#1398=DIRECTION('',(0.,0.,-1.));
#1399=DIRECTION('center_axis',(0.,-1.,0.));
#1400=DIRECTION('ref_axis',(-1.,0.,0.));
#1401=DIRECTION('',(1.,0.,0.));
#1402=DIRECTION('',(-1.,0.,0.));
#1403=DIRECTION('',(0.,0.,-1.));
#1404=DIRECTION('center_axis',(1.,-3.70074341542221E-15,0.));
#1405=DIRECTION('ref_axis',(-3.70074341542221E-15,-1.,0.));
#1406=DIRECTION('',(-3.70074341542221E-15,-1.,0.));
#1407=DIRECTION('',(-3.70074341542221E-15,-1.,0.));
#1408=DIRECTION('',(0.,0.,-1.));
#1409=DIRECTION('center_axis',(2.73262893794031E-12,1.,0.));
#1410=DIRECTION('ref_axis',(1.,-2.73262893794031E-12,0.));
#1411=DIRECTION('',(1.,-2.73262893794031E-12,0.));
#1412=DIRECTION('',(1.,-2.73262893794031E-12,0.));
#1413=DIRECTION('',(0.,0.,-1.));
#1414=DIRECTION('center_axis',(-1.,-1.48029736616484E-15,0.));
#1415=DIRECTION('ref_axis',(-1.48029736616484E-15,1.,0.));
#1416=DIRECTION('',(-1.48029736616484E-15,1.,0.));
#1417=DIRECTION('',(-1.48029736616484E-15,1.,0.));
#1418=DIRECTION('',(0.,0.,-1.));
#1419=DIRECTION('center_axis',(0.,1.,0.));
#1420=DIRECTION('ref_axis',(1.,0.,0.));
#1421=DIRECTION('',(1.,0.,0.));
#1422=DIRECTION('',(1.,0.,0.));
#1423=DIRECTION('',(0.,0.,-1.));
#1424=DIRECTION('center_axis',(1.,-3.33066907387089E-15,0.));
#1425=DIRECTION('ref_axis',(-3.33066907387089E-15,-1.,0.));
#1426=DIRECTION('',(3.33066907387089E-15,1.,0.));
#1427=DIRECTION('',(-3.33066907387089E-15,-1.,0.));
#1428=DIRECTION('center_axis',(0.,0.,1.));
#1429=DIRECTION('ref_axis',(1.,0.,0.));
#1430=DIRECTION('center_axis',(0.,0.,-1.));
#1431=DIRECTION('ref_axis',(-1.,0.,0.));
#1432=DIRECTION('center_axis',(0.,0.,1.));
#1433=DIRECTION('ref_axis',(1.,0.,0.));
#1434=DIRECTION('center_axis',(0.,0.,1.));
#1435=DIRECTION('ref_axis',(1.,0.,0.));
#1436=DIRECTION('',(0.,0.,1.));
#1437=DIRECTION('center_axis',(0.,0.,1.));
#1438=DIRECTION('ref_axis',(1.,0.,0.));
#1439=DIRECTION('center_axis',(0.,0.,-1.));
#1440=DIRECTION('ref_axis',(1.,0.,0.));
#1441=DIRECTION('center_axis',(1.,-3.33066907387532E-15,0.));
#1442=DIRECTION('ref_axis',(-3.33066907387532E-15,-1.,0.));
#1443=DIRECTION('',(3.33066907387532E-15,1.,0.));
#1444=DIRECTION('',(0.,0.,-1.));
#1445=DIRECTION('',(-3.33066907387532E-15,-1.,0.));
#1446=DIRECTION('',(0.,0.,-1.));
#1447=DIRECTION('center_axis',(-4.87757982151987E-13,1.,0.));
#1448=DIRECTION('ref_axis',(1.,4.87757982151987E-13,0.));
#1449=DIRECTION('',(-1.,-4.87757982151987E-13,0.));
#1450=DIRECTION('',(1.,4.87757982151987E-13,0.));
#1451=DIRECTION('',(0.,0.,-1.));
#1452=DIRECTION('center_axis',(-1.,-3.50169080797679E-33,0.));
#1453=DIRECTION('ref_axis',(-3.50169080797679E-33,1.,0.));
#1454=DIRECTION('',(-3.50169080797679E-33,1.,0.));
#1455=DIRECTION('',(-3.50169080797679E-33,1.,0.));
#1456=DIRECTION('',(0.,0.,-1.));
#1457=DIRECTION('center_axis',(-7.40148683083442E-16,-1.,0.));
#1458=DIRECTION('ref_axis',(-1.,7.40148683083442E-16,0.));
#1459=DIRECTION('',(1.,-7.40148683083442E-16,0.));
#1460=DIRECTION('',(-1.,7.40148683083442E-16,0.));
#1461=DIRECTION('center_axis',(0.,0.,1.));
#1462=DIRECTION('ref_axis',(1.,0.,0.));
#1463=DIRECTION('center_axis',(0.,0.,-1.));
#1464=DIRECTION('ref_axis',(-1.,0.,0.));
#1465=DIRECTION('center_axis',(0.,0.,1.));
#1466=DIRECTION('ref_axis',(1.,0.,0.));
#1467=DIRECTION('center_axis',(0.,0.,1.));
#1468=DIRECTION('ref_axis',(1.,0.,0.));
#1469=DIRECTION('',(0.,0.,1.));
#1470=DIRECTION('center_axis',(0.,0.,1.));
#1471=DIRECTION('ref_axis',(1.,0.,0.));
#1472=DIRECTION('center_axis',(0.,0.,-1.));
#1473=DIRECTION('ref_axis',(1.,0.,0.));
#1474=DIRECTION('center_axis',(-1.,-2.96059473233375E-15,0.));
#1475=DIRECTION('ref_axis',(-2.96059473233375E-15,1.,0.));
#1476=DIRECTION('',(-2.96059473233375E-15,1.,0.));
#1477=DIRECTION('',(0.,0.,-1.));
#1478=DIRECTION('',(-2.96059473233375E-15,1.,0.));
#1479=DIRECTION('',(0.,0.,-1.));
#1480=DIRECTION('center_axis',(-7.40148683083441E-16,-1.,0.));
#1481=DIRECTION('ref_axis',(-1.,7.40148683083441E-16,0.));
#1482=DIRECTION('',(-1.,7.40148683083441E-16,0.));
#1483=DIRECTION('',(-1.,7.40148683083441E-16,0.));
#1484=DIRECTION('',(0.,0.,-1.));
#1485=DIRECTION('center_axis',(1.,0.,0.));
#1486=DIRECTION('ref_axis',(0.,-1.,0.));
#1487=DIRECTION('',(0.,-1.,0.));
#1488=DIRECTION('',(0.,-1.,0.));
#1489=DIRECTION('',(0.,0.,-1.));
#1490=DIRECTION('center_axis',(-7.40148683083439E-16,1.,0.));
#1491=DIRECTION('ref_axis',(1.,7.40148683083439E-16,0.));
#1492=DIRECTION('',(1.,7.40148683083439E-16,0.));
#1493=DIRECTION('',(1.,7.40148683083439E-16,0.));
#1494=DIRECTION('center_axis',(0.,0.,1.));
#1495=DIRECTION('ref_axis',(1.,0.,0.));
#1496=DIRECTION('center_axis',(0.,0.,-1.));
#1497=DIRECTION('ref_axis',(-1.,0.,0.));
#1498=CARTESIAN_POINT('',(0.,0.,0.));
#1499=CARTESIAN_POINT('Origin',(28.8157450558792,-84.,0.));
#1500=CARTESIAN_POINT('',(28.8157450558792,-84.,0.));
#1501=CARTESIAN_POINT('',(6.18425494412078,-84.,0.));
#1502=CARTESIAN_POINT('',(-4.18019041820437E-15,-84.,0.));
#1503=CARTESIAN_POINT('',(6.18425494412078,-84.,5.));
#1504=CARTESIAN_POINT('',(6.18425494412078,-84.,0.));
#1505=CARTESIAN_POINT('',(28.8157450558792,-84.,5.));
#1506=CARTESIAN_POINT('',(-4.18019041820437E-15,-84.,5.));
#1507=CARTESIAN_POINT('',(28.8157450558792,-84.,0.));
#1508=CARTESIAN_POINT('Origin',(17.5,-58.2252473727196,0.));
#1509=CARTESIAN_POINT('',(17.5,-58.2252473727196,0.));
#1510=CARTESIAN_POINT('',(4.,-27.4752473727196,0.));
#1511=CARTESIAN_POINT('',(17.5,-58.2252473727196,5.));
#1512=CARTESIAN_POINT('',(4.,-27.4752473727196,5.));
#1513=CARTESIAN_POINT('',(17.5,-58.2252473727196,0.));
#1514=CARTESIAN_POINT('Origin',(6.18425494412078,-84.,0.));
#1515=CARTESIAN_POINT('',(31.,-27.4752473727196,0.));
#1516=CARTESIAN_POINT('',(31.,-27.4752473727196,5.));
#1517=CARTESIAN_POINT('Origin',(31.,-79.0247526272804,0.));
#1518=CARTESIAN_POINT('',(31.,-79.0247526272804,0.));
#1519=CARTESIAN_POINT('',(19.6842549441208,-53.25,0.));
#1520=CARTESIAN_POINT('',(6.18425494412079,-22.5,0.));
#1521=CARTESIAN_POINT('',(19.6842549441208,-53.25,5.));
#1522=CARTESIAN_POINT('',(19.6842549441208,-53.25,0.));
#1523=CARTESIAN_POINT('',(31.,-79.0247526272804,5.));
#1524=CARTESIAN_POINT('',(6.18425494412079,-22.5,5.));
#1525=CARTESIAN_POINT('',(31.,-79.0247526272804,0.));
#1526=CARTESIAN_POINT('Origin',(31.,-27.4752473727196,0.));
#1527=CARTESIAN_POINT('',(31.,-27.4752473727196,0.));
#1528=CARTESIAN_POINT('',(31.,-22.5,0.));
#1529=CARTESIAN_POINT('',(31.,-27.4752473727196,5.));
#1530=CARTESIAN_POINT('',(31.,-22.5,5.));
#1531=CARTESIAN_POINT('',(31.,-27.4752473727196,0.));
#1532=CARTESIAN_POINT('Origin',(19.6842549441208,-53.25,0.));
#1533=CARTESIAN_POINT('',(31.,-27.4752473727196,0.));
#1534=CARTESIAN_POINT('',(31.,-27.4752473727196,5.));
#1535=CARTESIAN_POINT('Origin',(15.3157450558792,-53.25,0.));
#1536=CARTESIAN_POINT('',(15.3157450558792,-53.25,0.));
#1537=CARTESIAN_POINT('',(3.99999999999999,-79.0247526272804,0.));
#1538=CARTESIAN_POINT('',(28.8157450558792,-22.5,0.));
#1539=CARTESIAN_POINT('',(3.99999999999999,-79.0247526272804,5.));
#1540=CARTESIAN_POINT('',(3.99999999999999,-79.0247526272804,0.));
#1541=CARTESIAN_POINT('',(15.3157450558792,-53.25,5.));
#1542=CARTESIAN_POINT('',(28.8157450558792,-22.5,5.));
#1543=CARTESIAN_POINT('',(15.3157450558792,-53.25,0.));
#1544=CARTESIAN_POINT('Origin',(4.,-27.4752473727196,0.));
#1545=CARTESIAN_POINT('',(4.,-27.4752473727196,0.));
#1546=CARTESIAN_POINT('',(4.,-27.4752473727196,0.));
#1547=CARTESIAN_POINT('',(4.,-27.4752473727196,5.));
#1548=CARTESIAN_POINT('',(4.,-27.4752473727196,5.));
#1549=CARTESIAN_POINT('',(4.,-27.4752473727196,0.));
#1550=CARTESIAN_POINT('Origin',(4.,-79.0247526272804,0.));
#1551=CARTESIAN_POINT('',(4.,-22.5,0.));
#1552=CARTESIAN_POINT('',(4.,-22.5,5.));
#1553=CARTESIAN_POINT('Origin',(28.8157450558792,-22.5,0.));
#1554=CARTESIAN_POINT('',(28.8157450558792,-22.5,0.));
#1555=CARTESIAN_POINT('',(17.5,-48.2747526272804,0.));
#1556=CARTESIAN_POINT('',(28.8157450558792,-22.5,0.));
#1557=CARTESIAN_POINT('',(17.5,-48.2747526272804,5.));
#1558=CARTESIAN_POINT('',(17.5,-48.2747526272804,0.));
#1559=CARTESIAN_POINT('',(28.8157450558792,-22.5,5.));
#1560=CARTESIAN_POINT('',(28.8157450558792,-22.5,5.));
#1561=CARTESIAN_POINT('',(28.8157450558792,-22.5,0.));
#1562=CARTESIAN_POINT('Origin',(6.18425494412079,-22.5,0.));
#1563=CARTESIAN_POINT('',(6.18425494412079,-22.5,0.));
#1564=CARTESIAN_POINT('',(35.,-22.5,0.));
#1565=CARTESIAN_POINT('',(6.18425494412079,-22.5,5.));
#1566=CARTESIAN_POINT('',(35.,-22.5,5.));
#1567=CARTESIAN_POINT('',(6.18425494412079,-22.5,0.));
#1568=CARTESIAN_POINT('Origin',(17.5,-48.2747526272804,0.));
#1569=CARTESIAN_POINT('',(6.18425494412079,-22.5,0.));
#1570=CARTESIAN_POINT('',(6.18425494412079,-22.5,5.));
#1571=CARTESIAN_POINT('Origin',(10.5000000000002,1.10265911966785E-15,0.));
#1572=CARTESIAN_POINT('',(9.02763392857139,-0.945853134321222,0.));
#1573=CARTESIAN_POINT('',(9.02763392857139,0.945853134321223,0.));
#1574=CARTESIAN_POINT('Origin',(10.5000000000002,1.10265911966785E-15,0.));
#1575=CARTESIAN_POINT('',(9.02763392857139,0.945853134321223,5.));
#1576=CARTESIAN_POINT('',(9.02763392857139,0.945853134321223,0.));
#1577=CARTESIAN_POINT('',(9.02763392857139,-0.945853134321222,5.));
#1578=CARTESIAN_POINT('Origin',(10.5000000000002,1.10265911966785E-15,5.));
#1579=CARTESIAN_POINT('',(9.02763392857139,-0.945853134321222,0.));
#1580=CARTESIAN_POINT('Origin',(17.5,0.,0.));
#1581=CARTESIAN_POINT('',(16.5541468656781,-8.47236607142854,0.));
#1582=CARTESIAN_POINT('Origin',(17.5,0.,0.));
#1583=CARTESIAN_POINT('',(16.5541468656781,-8.47236607142854,5.));
#1584=CARTESIAN_POINT('Origin',(17.5,0.,5.));
#1585=CARTESIAN_POINT('',(16.5541468656781,-8.47236607142854,0.));
#1586=CARTESIAN_POINT('Origin',(17.4999999999999,-7.0000000000001,0.));
#1587=CARTESIAN_POINT('',(18.4458531343217,-8.47236607142856,0.));
#1588=CARTESIAN_POINT('Origin',(17.4999999999999,-7.0000000000001,0.));
#1589=CARTESIAN_POINT('',(18.4458531343217,-8.47236607142856,5.));
#1590=CARTESIAN_POINT('Origin',(17.4999999999999,-7.0000000000001,5.));
#1591=CARTESIAN_POINT('',(18.4458531343217,-8.47236607142856,0.));
#1592=CARTESIAN_POINT('Origin',(17.5,0.,0.));
#1593=CARTESIAN_POINT('',(25.9723660714285,-0.94585313432223,0.));
#1594=CARTESIAN_POINT('Origin',(17.5,0.,0.));
#1595=CARTESIAN_POINT('',(25.9723660714285,-0.94585313432223,5.));
#1596=CARTESIAN_POINT('Origin',(17.5,0.,5.));
#1597=CARTESIAN_POINT('',(25.9723660714285,-0.94585313432223,0.));
#1598=CARTESIAN_POINT('Origin',(24.5000000000002,-2.0346330840912E-13,0.));
#1599=CARTESIAN_POINT('',(25.9723660714286,0.945853134321739,0.));
#1600=CARTESIAN_POINT('Origin',(24.5000000000002,-2.0346330840912E-13,0.));
#1601=CARTESIAN_POINT('',(25.9723660714286,0.945853134321739,5.));
#1602=CARTESIAN_POINT('Origin',(24.5000000000002,-2.0346330840912E-13,5.));
#1603=CARTESIAN_POINT('',(25.9723660714286,0.945853134321739,0.));
#1604=CARTESIAN_POINT('Origin',(17.5,0.,0.));
#1605=CARTESIAN_POINT('',(18.4458531343218,8.47236607142855,0.));
#1606=CARTESIAN_POINT('Origin',(17.5,0.,0.));
#1607=CARTESIAN_POINT('',(18.4458531343218,8.47236607142855,5.));
#1608=CARTESIAN_POINT('Origin',(17.5,0.,5.));
#1609=CARTESIAN_POINT('',(18.4458531343218,8.47236607142855,0.));
#1610=CARTESIAN_POINT('Origin',(17.5000000000003,6.9999999999999,0.));
#1611=CARTESIAN_POINT('',(16.554146865679,8.47236607142863,0.));
#1612=CARTESIAN_POINT('Origin',(17.5000000000003,6.9999999999999,0.));
#1613=CARTESIAN_POINT('',(16.554146865679,8.47236607142863,5.));
#1614=CARTESIAN_POINT('Origin',(17.5000000000003,6.9999999999999,5.));
#1615=CARTESIAN_POINT('',(16.554146865679,8.47236607142863,0.));
#1616=CARTESIAN_POINT('Origin',(17.5,0.,0.));
#1617=CARTESIAN_POINT('Origin',(17.5,0.,0.));
#1618=CARTESIAN_POINT('Origin',(17.5,0.,5.));
#1619=CARTESIAN_POINT('Origin',(35.,-88.,0.));
#1620=CARTESIAN_POINT('',(35.,0.,0.));
#1621=CARTESIAN_POINT('',(35.,-88.,0.));
#1622=CARTESIAN_POINT('',(35.,-82.0000000000081,0.));
#1623=CARTESIAN_POINT('',(35.,0.,5.));
#1624=CARTESIAN_POINT('',(35.,0.,0.));
#1625=CARTESIAN_POINT('',(35.,-88.,5.));
#1626=CARTESIAN_POINT('',(35.,-82.0000000000081,5.));
#1627=CARTESIAN_POINT('',(35.,-88.,0.));
#1628=CARTESIAN_POINT('Origin',(-2.22044604925031E-14,-88.,0.));
#1629=CARTESIAN_POINT('',(-2.22044604925031E-14,-88.,0.));
#1630=CARTESIAN_POINT('',(-2.22044604925031E-14,-88.,0.));
#1631=CARTESIAN_POINT('',(-2.22044604925031E-14,-88.,5.));
#1632=CARTESIAN_POINT('',(-2.22044604925031E-14,-88.,5.));
#1633=CARTESIAN_POINT('',(-2.22044604925031E-14,-88.,0.));
#1634=CARTESIAN_POINT('Origin',(0.,0.,0.));
#1635=CARTESIAN_POINT('',(0.,2.14313189850787E-15,0.));
#1636=CARTESIAN_POINT('',(3.08148791101958E-31,-88.,0.));
#1637=CARTESIAN_POINT('',(0.,2.08166817117217E-15,5.));
#1638=CARTESIAN_POINT('',(3.08148791101958E-31,-88.,5.));
#1639=CARTESIAN_POINT('',(0.,2.14313189850787E-15,0.));
#1640=CARTESIAN_POINT('Origin',(17.5,0.,0.));
#1641=CARTESIAN_POINT('Origin',(17.5,0.,0.));
#1642=CARTESIAN_POINT('Origin',(17.5,0.,5.));
#1643=CARTESIAN_POINT('Origin',(17.5,-35.25,5.));
#1644=CARTESIAN_POINT('Origin',(17.5,-35.25,0.));
#1645=CARTESIAN_POINT('Origin',(9.50000000000651,-88.,-26.));
#1646=CARTESIAN_POINT('',(7.75000000000651,-88.,-26.));
#1647=CARTESIAN_POINT('Origin',(9.50000000000651,-88.,-26.));
#1648=CARTESIAN_POINT('',(7.75000000000651,-84.,-26.));
#1649=CARTESIAN_POINT('',(7.75000000000651,-88.,-26.));
#1650=CARTESIAN_POINT('Origin',(9.50000000000651,-84.,-26.));
#1651=CARTESIAN_POINT('Origin',(9.50000000000651,-88.,-14.));
#1652=CARTESIAN_POINT('',(7.75000000000651,-88.,-14.));
#1653=CARTESIAN_POINT('Origin',(9.50000000000651,-88.,-14.));
#1654=CARTESIAN_POINT('',(7.75000000000651,-84.,-14.));
#1655=CARTESIAN_POINT('',(7.75000000000651,-88.,-14.));
#1656=CARTESIAN_POINT('Origin',(9.50000000000651,-84.,-14.));
#1657=CARTESIAN_POINT('Origin',(25.5000000000065,-88.,-26.));
#1658=CARTESIAN_POINT('',(23.7500000000065,-88.,-26.));
#1659=CARTESIAN_POINT('Origin',(25.5000000000065,-88.,-26.));
#1660=CARTESIAN_POINT('',(23.7500000000065,-84.,-26.));
#1661=CARTESIAN_POINT('',(23.7500000000065,-88.,-26.));
#1662=CARTESIAN_POINT('Origin',(25.5000000000065,-84.,-26.));
#1663=CARTESIAN_POINT('Origin',(25.5000000000065,-88.,-14.));
#1664=CARTESIAN_POINT('',(23.7500000000065,-88.,-14.));
#1665=CARTESIAN_POINT('Origin',(25.5000000000065,-88.,-14.));
#1666=CARTESIAN_POINT('',(23.7500000000065,-84.,-14.));
#1667=CARTESIAN_POINT('',(23.7500000000065,-88.,-14.));
#1668=CARTESIAN_POINT('Origin',(25.5000000000065,-84.,-14.));
#1669=CARTESIAN_POINT('Origin',(31.9999999999959,-84.9999999999959,-40.));
#1670=CARTESIAN_POINT('',(29.9999999999959,-84.9999999999959,-40.));
#1671=CARTESIAN_POINT('Origin',(31.9999999999959,-84.9999999999959,-40.));
#1672=CARTESIAN_POINT('',(29.9999999999959,-84.9999999999959,-33.));
#1673=CARTESIAN_POINT('',(29.9999999999959,-84.9999999999959,-40.));
#1674=CARTESIAN_POINT('Origin',(31.9999999999959,-84.9999999999959,-33.));
#1675=CARTESIAN_POINT('Origin',(31.9999999999959,-84.9999999999959,-33.));
#1676=CARTESIAN_POINT('Origin',(3.00000000001062,-84.9999999999959,-40.));
#1677=CARTESIAN_POINT('',(1.00000000001062,-84.9999999999959,-40.));
#1678=CARTESIAN_POINT('Origin',(3.00000000001062,-84.9999999999959,-40.));
#1679=CARTESIAN_POINT('',(1.00000000001062,-84.9999999999959,-33.));
#1680=CARTESIAN_POINT('',(1.00000000001062,-84.9999999999959,-40.));
#1681=CARTESIAN_POINT('Origin',(3.00000000001062,-84.9999999999959,-33.));
#1682=CARTESIAN_POINT('Origin',(3.00000000001062,-84.9999999999959,-33.));
#1683=CARTESIAN_POINT('Origin',(-2.33146835171283E-14,-82.0000000000081,
0.));
#1684=CARTESIAN_POINT('',(6.00000000000821,-81.9999999999918,0.));
#1685=CARTESIAN_POINT('',(-2.29293937462236E-14,-82.0000000000081,0.));
#1686=CARTESIAN_POINT('',(6.00000000000821,-81.9999999999918,0.));
#1687=CARTESIAN_POINT('',(6.00000000000821,-81.9999999999918,-40.));
#1688=CARTESIAN_POINT('',(6.00000000000821,-81.9999999999918,0.));
#1689=CARTESIAN_POINT('',(-2.33146835171283E-14,-82.0000000000081,-40.));
#1690=CARTESIAN_POINT('',(6.00000000000821,-81.9999999999918,-40.));
#1691=CARTESIAN_POINT('',(-2.29293937462236E-14,-82.0000000000081,0.));
#1692=CARTESIAN_POINT('Origin',(-2.22044604925031E-14,-88.,0.));
#1693=CARTESIAN_POINT('',(-2.22044604925031E-14,-88.,0.));
#1694=CARTESIAN_POINT('',(-2.29293937462236E-14,-82.0000000000081,0.));
#1695=CARTESIAN_POINT('',(-2.22044604925031E-14,-88.,-40.));
#1696=CARTESIAN_POINT('',(-2.29293937462236E-14,-82.0000000000081,-40.));
#1697=CARTESIAN_POINT('',(-2.22044604925031E-14,-88.,0.));
#1698=CARTESIAN_POINT('Origin',(35.,-88.,0.));
#1699=CARTESIAN_POINT('',(35.,-88.,0.));
#1700=CARTESIAN_POINT('',(-2.22044604925031E-14,-88.,0.));
#1701=CARTESIAN_POINT('',(35.,-88.,-40.));
#1702=CARTESIAN_POINT('',(-2.22044604925031E-14,-88.,-40.));
#1703=CARTESIAN_POINT('',(35.,-88.,0.));
#1704=CARTESIAN_POINT('Origin',(35.,-82.0000000000081,0.));
#1705=CARTESIAN_POINT('',(35.,-82.0000000000081,0.));
#1706=CARTESIAN_POINT('',(35.,-82.0000000000081,0.));
#1707=CARTESIAN_POINT('',(35.,-82.0000000000081,-40.));
#1708=CARTESIAN_POINT('',(35.,-82.0000000000081,-40.));
#1709=CARTESIAN_POINT('',(35.,-82.0000000000081,0.));
#1710=CARTESIAN_POINT('Origin',(28.9999999999918,-81.9999999999918,0.));
#1711=CARTESIAN_POINT('',(28.9999999999918,-81.9999999999918,0.));
#1712=CARTESIAN_POINT('',(28.9999999999918,-81.9999999999918,0.));
#1713=CARTESIAN_POINT('',(28.9999999999918,-81.9999999999918,-40.));
#1714=CARTESIAN_POINT('',(28.9999999999918,-81.9999999999918,-40.));
#1715=CARTESIAN_POINT('',(28.9999999999918,-81.9999999999918,0.));
#1716=CARTESIAN_POINT('Origin',(28.9999999999918,-84.,0.));
#1717=CARTESIAN_POINT('',(28.9999999999918,-84.,0.));
#1718=CARTESIAN_POINT('',(28.9999999999918,-88.,0.));
#1719=CARTESIAN_POINT('',(28.9999999999918,-84.,-40.));
#1720=CARTESIAN_POINT('',(28.9999999999918,-88.,-40.));
#1721=CARTESIAN_POINT('',(28.9999999999918,-84.,0.));
#1722=CARTESIAN_POINT('Origin',(6.0000000000082,-84.,0.));
#1723=CARTESIAN_POINT('',(6.0000000000082,-84.,0.));
#1724=CARTESIAN_POINT('',(-4.18019041820437E-15,-84.,0.));
#1725=CARTESIAN_POINT('',(6.0000000000082,-84.,-40.));
#1726=CARTESIAN_POINT('',(-4.18019041820437E-15,-84.,-40.));
#1727=CARTESIAN_POINT('',(6.0000000000082,-84.,0.));
#1728=CARTESIAN_POINT('Origin',(6.00000000000821,-81.9999999999918,0.));
#1729=CARTESIAN_POINT('',(6.00000000000819,-88.,0.));
#1730=CARTESIAN_POINT('',(6.00000000000819,-88.,-40.));
#1731=CARTESIAN_POINT('Origin',(17.5,-84.9999999999959,0.));
#1732=CARTESIAN_POINT('Origin',(17.5,-84.9999999999959,-40.));
#1733=CARTESIAN_POINT('Origin',(3.00000000001062,-20.3654118543223,-40.));
#1734=CARTESIAN_POINT('',(1.00000000001062,-20.3654118543223,-40.));
#1735=CARTESIAN_POINT('Origin',(3.00000000001062,-20.3654118543223,-40.));
#1736=CARTESIAN_POINT('',(1.00000000001062,-20.3654118543223,-33.));
#1737=CARTESIAN_POINT('',(1.00000000001062,-20.3654118543223,-40.));
#1738=CARTESIAN_POINT('Origin',(3.00000000001062,-20.3654118543223,-33.));
#1739=CARTESIAN_POINT('Origin',(3.00000000001062,-20.3654118543223,-33.));
#1740=CARTESIAN_POINT('Origin',(5.99999999999998,-17.3654118544163,0.));
#1741=CARTESIAN_POINT('',(5.99999999999996,-23.3654118544166,0.));
#1742=CARTESIAN_POINT('',(5.99999999999998,-17.3654118544163,0.));
#1743=CARTESIAN_POINT('',(5.99999999999996,-23.3654118544166,0.));
#1744=CARTESIAN_POINT('',(5.99999999999996,-23.3654118544166,-40.));
#1745=CARTESIAN_POINT('',(5.99999999999996,-23.3654118544166,0.));
#1746=CARTESIAN_POINT('',(5.99999999999998,-17.3654118544163,-40.));
#1747=CARTESIAN_POINT('',(5.99999999999996,-23.3654118544166,-40.));
#1748=CARTESIAN_POINT('',(5.99999999999998,-17.3654118544163,0.));
#1749=CARTESIAN_POINT('Origin',(-1.11022302462516E-15,-17.3654118544193,
0.));
#1750=CARTESIAN_POINT('',(-1.11022302462516E-15,-17.3654118544193,0.));
#1751=CARTESIAN_POINT('',(5.99999999999998,-17.3654118544163,0.));
#1752=CARTESIAN_POINT('',(-1.11022302462516E-15,-17.3654118544193,-40.));
#1753=CARTESIAN_POINT('',(5.99999999999998,-17.3654118544163,-40.));
#1754=CARTESIAN_POINT('',(-1.11022302462516E-15,-17.3654118544193,0.));
#1755=CARTESIAN_POINT('Origin',(8.18184479152026E-32,-23.3654118544166,
0.));
#1756=CARTESIAN_POINT('',(-6.92307248629972E-15,-23.3654118544166,0.));
#1757=CARTESIAN_POINT('',(3.08148791101958E-31,-88.,0.));
#1758=CARTESIAN_POINT('',(-6.92307248629972E-15,-23.3654118544166,-40.));
#1759=CARTESIAN_POINT('',(3.08148791101958E-31,-88.,-40.));
#1760=CARTESIAN_POINT('',(-6.92307248629972E-15,-23.3654118544166,0.));
#1761=CARTESIAN_POINT('Origin',(5.99999999999996,-23.3654118544166,0.));
#1762=CARTESIAN_POINT('',(-6.92307248629972E-15,-23.3654118544166,0.));
#1763=CARTESIAN_POINT('',(-6.92307248629972E-15,-23.3654118544166,-40.));
#1764=CARTESIAN_POINT('Origin',(2.99999999999999,-20.3654118544165,0.));
#1765=CARTESIAN_POINT('Origin',(2.99999999999999,-20.3654118544165,-40.));
#1766=CARTESIAN_POINT('Origin',(31.9999999999959,-20.3654118543223,-40.));
#1767=CARTESIAN_POINT('',(29.9999999999959,-20.3654118543223,-40.));
#1768=CARTESIAN_POINT('Origin',(31.9999999999959,-20.3654118543223,-40.));
#1769=CARTESIAN_POINT('',(29.9999999999959,-20.3654118543223,-33.));
#1770=CARTESIAN_POINT('',(29.9999999999959,-20.3654118543223,-40.));
#1771=CARTESIAN_POINT('Origin',(31.9999999999959,-20.3654118543223,-33.));
#1772=CARTESIAN_POINT('Origin',(31.9999999999959,-20.3654118543223,-33.));
#1773=CARTESIAN_POINT('Origin',(29.,-23.3654118544163,0.));
#1774=CARTESIAN_POINT('',(29.,-23.3654118544163,0.));
#1775=CARTESIAN_POINT('',(29.,-17.3654118544163,0.));
#1776=CARTESIAN_POINT('',(29.,-23.3654118544163,0.));
#1777=CARTESIAN_POINT('',(29.,-17.3654118544163,-40.));
#1778=CARTESIAN_POINT('',(29.,-17.3654118544163,0.));
#1779=CARTESIAN_POINT('',(29.,-23.3654118544163,-40.));
#1780=CARTESIAN_POINT('',(29.,-23.3654118544163,-40.));
#1781=CARTESIAN_POINT('',(29.,-23.3654118544163,0.));
#1782=CARTESIAN_POINT('Origin',(35.,-23.3654118544163,0.));
#1783=CARTESIAN_POINT('',(35.,-23.3654118544163,0.));
#1784=CARTESIAN_POINT('',(35.,-23.3654118544163,0.));
#1785=CARTESIAN_POINT('',(35.,-23.3654118544163,-40.));
#1786=CARTESIAN_POINT('',(35.,-23.3654118544163,-40.));
#1787=CARTESIAN_POINT('',(35.,-23.3654118544163,0.));
#1788=CARTESIAN_POINT('Origin',(35.,-17.3654118544163,0.));
#1789=CARTESIAN_POINT('',(35.,-17.3654118544163,0.));
#1790=CARTESIAN_POINT('',(35.,-17.3654118544163,0.));
#1791=CARTESIAN_POINT('',(35.,-17.3654118544163,-40.));
#1792=CARTESIAN_POINT('',(35.,-17.3654118544163,-40.));
#1793=CARTESIAN_POINT('',(35.,-17.3654118544163,0.));
#1794=CARTESIAN_POINT('Origin',(29.,-17.3654118544163,0.));
#1795=CARTESIAN_POINT('',(29.,-17.3654118544163,0.));
#1796=CARTESIAN_POINT('',(29.,-17.3654118544163,-40.));
#1797=CARTESIAN_POINT('Origin',(32.,-20.3654118544163,0.));
#1798=CARTESIAN_POINT('Origin',(32.,-20.3654118544163,-40.));
#1799=UNCERTAINTY_MEASURE_WITH_UNIT(LENGTH_MEASURE(0.01),#1803,
'DISTANCE_ACCURACY_VALUE',
'Maximum model space distance between geometric entities at asserted c
onnectivities');
#1800=UNCERTAINTY_MEASURE_WITH_UNIT(LENGTH_MEASURE(0.01),#1803,
'DISTANCE_ACCURACY_VALUE',
'Maximum model space distance between geometric entities at asserted c
onnectivities');
#1801=(
GEOMETRIC_REPRESENTATION_CONTEXT(3)
GLOBAL_UNCERTAINTY_ASSIGNED_CONTEXT((#1799))
GLOBAL_UNIT_ASSIGNED_CONTEXT((#1803,#1805,#1806))
REPRESENTATION_CONTEXT('','3D')
);
#1802=(
GEOMETRIC_REPRESENTATION_CONTEXT(3)
GLOBAL_UNCERTAINTY_ASSIGNED_CONTEXT((#1800))
GLOBAL_UNIT_ASSIGNED_CONTEXT((#1803,#1805,#1806))
REPRESENTATION_CONTEXT('','3D')
);
#1803=(
LENGTH_UNIT()
NAMED_UNIT(*)
SI_UNIT(.MILLI.,.METRE.)
);
#1804=(
LENGTH_UNIT()
NAMED_UNIT(*)
SI_UNIT($,.METRE.)
);
#1805=(
NAMED_UNIT(*)
PLANE_ANGLE_UNIT()
SI_UNIT($,.RADIAN.)
);
#1806=(
NAMED_UNIT(*)
SI_UNIT($,.STERADIAN.)
SOLID_ANGLE_UNIT()
);
#1807=SHAPE_DEFINITION_REPRESENTATION(#1808,#1809);
#1808=PRODUCT_DEFINITION_SHAPE('',$,#1811);
#1809=SHAPE_REPRESENTATION('',(#1103),#1801);
#1810=PRODUCT_DEFINITION_CONTEXT('part definition',#1815,'design');
#1811=PRODUCT_DEFINITION('2026-06-26-14-04-22-736',
'Rover Shoulder-Elbow Link',#1812,#1810);
#1812=PRODUCT_DEFINITION_FORMATION('',$,#1817);
#1813=PRODUCT_RELATED_PRODUCT_CATEGORY('Rover Shoulder-Elbow Link',
'Rover Shoulder-Elbow Link',(#1817));
#1814=APPLICATION_PROTOCOL_DEFINITION('international standard',
'automotive_design',2009,#1815);
#1815=APPLICATION_CONTEXT(
'Core Data for Automotive Mechanical Design Process');
#1816=PRODUCT_CONTEXT('part definition',#1815,'mechanical');
#1817=PRODUCT('2026-06-26-14-04-22-736','Rover Shoulder-Elbow Link',$,(#1816));
#1818=PRESENTATION_STYLE_ASSIGNMENT((#1819));
#1819=SURFACE_STYLE_USAGE(.BOTH.,#1820);
#1820=SURFACE_SIDE_STYLE('',(#1821));
#1821=SURFACE_STYLE_FILL_AREA(#1822);
#1822=FILL_AREA_STYLE('Steel - Satin',(#1823));
#1823=FILL_AREA_STYLE_COLOUR('Steel - Satin',#1824);
#1824=COLOUR_RGB('Steel - Satin',0.627450980392157,0.627450980392157,0.627450980392157);
ENDSEC;
END-ISO-10303-21;
