ISO-10303-21;
HEADER;
/* Generated by software containing ST-Developer
 * from STEP Tools, Inc. (www.steptools.com) 
 */

FILE_DESCRIPTION(
/* description */ (''),
/* implementation_level */ '2;1');

FILE_NAME(
/* name */ 'top-plate.step',
/* time_stamp */ '2026-07-29T22:56:40-04:00',
/* author */ (''),
/* organization */ (''),
/* preprocessor_version */ 'ST-DEVELOPER v20.1',
/* originating_system */ 'Autodesk Translation Framework v15.8.0.0',
/* authorisation */ '');

FILE_SCHEMA (('AUTOMOTIVE_DESIGN { 1 0 10303 214 3 1 1 }'));
ENDSEC;

DATA;
#10=MECHANICAL_DESIGN_GEOMETRIC_PRESENTATION_REPRESENTATION('',(#13),#594);
#11=SHAPE_REPRESENTATION_RELATIONSHIP('SRR','None',#601,#12);
#12=ADVANCED_BREP_SHAPE_REPRESENTATION('',(#14),#593);
#13=STYLED_ITEM('',(#610),#14);
#14=MANIFOLD_SOLID_BREP('Body2',#354);
#15=FACE_BOUND('',#72,.T.);
#16=FACE_BOUND('',#73,.T.);
#17=FACE_BOUND('',#74,.T.);
#18=FACE_BOUND('',#75,.T.);
#19=FACE_BOUND('',#76,.T.);
#20=FACE_BOUND('',#77,.T.);
#21=FACE_BOUND('',#90,.T.);
#22=FACE_BOUND('',#92,.T.);
#23=FACE_BOUND('',#93,.T.);
#24=FACE_BOUND('',#94,.T.);
#25=FACE_BOUND('',#95,.T.);
#26=FACE_BOUND('',#96,.T.);
#27=FACE_BOUND('',#97,.T.);
#28=CIRCLE('',#370,70.);
#29=CIRCLE('',#371,70.);
#30=CIRCLE('',#375,1.75);
#31=CIRCLE('',#376,2.5);
#32=CIRCLE('',#377,1.75000000000001);
#33=CIRCLE('',#378,1.75000000000001);
#34=CIRCLE('',#379,1.75);
#35=CIRCLE('',#382,2.5);
#36=CIRCLE('',#384,1.75000000000001);
#37=CIRCLE('',#386,1.75000000000001);
#38=CIRCLE('',#388,66.5);
#39=CIRCLE('',#389,66.5);
#40=CIRCLE('',#391,1.75);
#41=CIRCLE('',#393,1.75);
#42=CYLINDRICAL_SURFACE('',#369,70.);
#43=CYLINDRICAL_SURFACE('',#381,2.5);
#44=CYLINDRICAL_SURFACE('',#383,1.75000000000001);
#45=CYLINDRICAL_SURFACE('',#385,1.75000000000001);
#46=CYLINDRICAL_SURFACE('',#387,66.5);
#47=CYLINDRICAL_SURFACE('',#390,1.75);
#48=CYLINDRICAL_SURFACE('',#392,1.75);
#49=FACE_OUTER_BOUND('',#67,.T.);
#50=FACE_OUTER_BOUND('',#68,.T.);
#51=FACE_OUTER_BOUND('',#69,.T.);
#52=FACE_OUTER_BOUND('',#70,.T.);
#53=FACE_OUTER_BOUND('',#71,.T.);
#54=FACE_OUTER_BOUND('',#78,.T.);
#55=FACE_OUTER_BOUND('',#79,.T.);
#56=FACE_OUTER_BOUND('',#80,.T.);
#57=FACE_OUTER_BOUND('',#81,.T.);
#58=FACE_OUTER_BOUND('',#82,.T.);
#59=FACE_OUTER_BOUND('',#83,.T.);
#60=FACE_OUTER_BOUND('',#84,.T.);
#61=FACE_OUTER_BOUND('',#85,.T.);
#62=FACE_OUTER_BOUND('',#86,.T.);
#63=FACE_OUTER_BOUND('',#87,.T.);
#64=FACE_OUTER_BOUND('',#88,.T.);
#65=FACE_OUTER_BOUND('',#89,.T.);
#66=FACE_OUTER_BOUND('',#91,.T.);
#67=EDGE_LOOP('',(#235,#236,#237,#238));
#68=EDGE_LOOP('',(#239,#240,#241,#242));
#69=EDGE_LOOP('',(#243,#244,#245,#246));
#70=EDGE_LOOP('',(#247,#248,#249,#250));
#71=EDGE_LOOP('',(#251,#252,#253,#254));
#72=EDGE_LOOP('',(#255));
#73=EDGE_LOOP('',(#256));
#74=EDGE_LOOP('',(#257));
#75=EDGE_LOOP('',(#258));
#76=EDGE_LOOP('',(#259));
#77=EDGE_LOOP('',(#260));
#78=EDGE_LOOP('',(#261,#262,#263,#264));
#79=EDGE_LOOP('',(#265,#266,#267,#268));
#80=EDGE_LOOP('',(#269,#270,#271,#272));
#81=EDGE_LOOP('',(#273,#274,#275,#276));
#82=EDGE_LOOP('',(#277,#278,#279,#280));
#83=EDGE_LOOP('',(#281,#282,#283,#284));
#84=EDGE_LOOP('',(#285,#286,#287,#288));
#85=EDGE_LOOP('',(#289,#290,#291,#292));
#86=EDGE_LOOP('',(#293,#294,#295,#296,#297,#298,#299,#300));
#87=EDGE_LOOP('',(#301,#302,#303,#304));
#88=EDGE_LOOP('',(#305,#306,#307,#308,#309,#310,#311,#312));
#89=EDGE_LOOP('',(#313));
#90=EDGE_LOOP('',(#314));
#91=EDGE_LOOP('',(#315,#316,#317,#318));
#92=EDGE_LOOP('',(#319));
#93=EDGE_LOOP('',(#320));
#94=EDGE_LOOP('',(#321));
#95=EDGE_LOOP('',(#322));
#96=EDGE_LOOP('',(#323));
#97=EDGE_LOOP('',(#324));
#98=LINE('',#501,#129);
#99=LINE('',#503,#130);
#100=LINE('',#505,#131);
#101=LINE('',#506,#132);
#102=LINE('',#511,#133);
#103=LINE('',#515,#134);
#104=LINE('',#517,#135);
#105=LINE('',#518,#136);
#106=LINE('',#522,#137);
#107=LINE('',#524,#138);
#108=LINE('',#526,#139);
#109=LINE('',#527,#140);
#110=LINE('',#529,#141);
#111=LINE('',#530,#142);
#112=LINE('',#544,#143);
#113=LINE('',#545,#144);
#114=LINE('',#546,#145);
#115=LINE('',#550,#146);
#116=LINE('',#554,#147);
#117=LINE('',#558,#148);
#118=LINE('',#563,#149);
#119=LINE('',#568,#150);
#120=LINE('',#572,#151);
#121=LINE('',#575,#152);
#122=LINE('',#577,#153);
#123=LINE('',#578,#154);
#124=LINE('',#581,#155);
#125=LINE('',#582,#156);
#126=LINE('',#585,#157);
#127=LINE('',#586,#158);
#128=LINE('',#588,#159);
#129=VECTOR('',#404,10.);
#130=VECTOR('',#405,10.);
#131=VECTOR('',#406,10.);
#132=VECTOR('',#407,10.);
#133=VECTOR('',#412,70.);
#134=VECTOR('',#417,10.);
#135=VECTOR('',#418,10.);
#136=VECTOR('',#419,10.);
#137=VECTOR('',#422,10.);
#138=VECTOR('',#423,10.);
#139=VECTOR('',#424,10.);
#140=VECTOR('',#425,10.);
#141=VECTOR('',#428,10.);
#142=VECTOR('',#429,10.);
#143=VECTOR('',#442,10.);
#144=VECTOR('',#443,10.);
#145=VECTOR('',#444,10.);
#146=VECTOR('',#449,2.5);
#147=VECTOR('',#454,1.75000000000001);
#148=VECTOR('',#459,1.75000000000001);
#149=VECTOR('',#464,66.5);
#150=VECTOR('',#471,1.75);
#151=VECTOR('',#476,1.75);
#152=VECTOR('',#479,10.);
#153=VECTOR('',#480,10.);
#154=VECTOR('',#481,10.);
#155=VECTOR('',#484,10.);
#156=VECTOR('',#485,10.);
#157=VECTOR('',#488,10.);
#158=VECTOR('',#489,10.);
#159=VECTOR('',#492,10.);
#160=VERTEX_POINT('',#499);
#161=VERTEX_POINT('',#500);
#162=VERTEX_POINT('',#502);
#163=VERTEX_POINT('',#504);
#164=VERTEX_POINT('',#508);
#165=VERTEX_POINT('',#510);
#166=VERTEX_POINT('',#514);
#167=VERTEX_POINT('',#516);
#168=VERTEX_POINT('',#520);
#169=VERTEX_POINT('',#521);
#170=VERTEX_POINT('',#523);
#171=VERTEX_POINT('',#525);
#172=VERTEX_POINT('',#531);
#173=VERTEX_POINT('',#533);
#174=VERTEX_POINT('',#535);
#175=VERTEX_POINT('',#537);
#176=VERTEX_POINT('',#539);
#177=VERTEX_POINT('',#542);
#178=VERTEX_POINT('',#543);
#179=VERTEX_POINT('',#548);
#180=VERTEX_POINT('',#552);
#181=VERTEX_POINT('',#556);
#182=VERTEX_POINT('',#560);
#183=VERTEX_POINT('',#562);
#184=VERTEX_POINT('',#566);
#185=VERTEX_POINT('',#570);
#186=VERTEX_POINT('',#574);
#187=VERTEX_POINT('',#576);
#188=VERTEX_POINT('',#580);
#189=VERTEX_POINT('',#584);
#190=EDGE_CURVE('',#160,#161,#98,.T.);
#191=EDGE_CURVE('',#160,#162,#99,.T.);
#192=EDGE_CURVE('',#163,#162,#100,.T.);
#193=EDGE_CURVE('',#163,#161,#101,.T.);
#194=EDGE_CURVE('',#164,#164,#28,.T.);
#195=EDGE_CURVE('',#164,#165,#102,.T.);
#196=EDGE_CURVE('',#165,#165,#29,.T.);
#197=EDGE_CURVE('',#162,#166,#103,.T.);
#198=EDGE_CURVE('',#167,#166,#104,.T.);
#199=EDGE_CURVE('',#163,#167,#105,.T.);
#200=EDGE_CURVE('',#168,#169,#106,.T.);
#201=EDGE_CURVE('',#168,#170,#107,.T.);
#202=EDGE_CURVE('',#171,#170,#108,.T.);
#203=EDGE_CURVE('',#169,#171,#109,.T.);
#204=EDGE_CURVE('',#166,#171,#110,.T.);
#205=EDGE_CURVE('',#170,#167,#111,.T.);
#206=EDGE_CURVE('',#172,#172,#30,.T.);
#207=EDGE_CURVE('',#173,#173,#31,.T.);
#208=EDGE_CURVE('',#174,#174,#32,.T.);
#209=EDGE_CURVE('',#175,#175,#33,.T.);
#210=EDGE_CURVE('',#176,#176,#34,.T.);
#211=EDGE_CURVE('',#177,#178,#112,.T.);
#212=EDGE_CURVE('',#177,#168,#113,.T.);
#213=EDGE_CURVE('',#169,#178,#114,.T.);
#214=EDGE_CURVE('',#179,#179,#35,.T.);
#215=EDGE_CURVE('',#179,#173,#115,.T.);
#216=EDGE_CURVE('',#180,#180,#36,.T.);
#217=EDGE_CURVE('',#180,#175,#116,.T.);
#218=EDGE_CURVE('',#181,#181,#37,.T.);
#219=EDGE_CURVE('',#181,#174,#117,.T.);
#220=EDGE_CURVE('',#182,#182,#38,.T.);
#221=EDGE_CURVE('',#182,#183,#118,.T.);
#222=EDGE_CURVE('',#183,#183,#39,.T.);
#223=EDGE_CURVE('',#184,#184,#40,.T.);
#224=EDGE_CURVE('',#184,#172,#119,.T.);
#225=EDGE_CURVE('',#185,#185,#41,.T.);
#226=EDGE_CURVE('',#185,#176,#120,.T.);
#227=EDGE_CURVE('',#178,#186,#121,.T.);
#228=EDGE_CURVE('',#187,#186,#122,.T.);
#229=EDGE_CURVE('',#177,#187,#123,.T.);
#230=EDGE_CURVE('',#188,#187,#124,.T.);
#231=EDGE_CURVE('',#161,#188,#125,.T.);
#232=EDGE_CURVE('',#189,#188,#126,.T.);
#233=EDGE_CURVE('',#160,#189,#127,.T.);
#234=EDGE_CURVE('',#186,#189,#128,.T.);
#235=ORIENTED_EDGE('',*,*,#190,.F.);
#236=ORIENTED_EDGE('',*,*,#191,.T.);
#237=ORIENTED_EDGE('',*,*,#192,.F.);
#238=ORIENTED_EDGE('',*,*,#193,.T.);
#239=ORIENTED_EDGE('',*,*,#194,.F.);
#240=ORIENTED_EDGE('',*,*,#195,.T.);
#241=ORIENTED_EDGE('',*,*,#196,.F.);
#242=ORIENTED_EDGE('',*,*,#195,.F.);
#243=ORIENTED_EDGE('',*,*,#192,.T.);
#244=ORIENTED_EDGE('',*,*,#197,.T.);
#245=ORIENTED_EDGE('',*,*,#198,.F.);
#246=ORIENTED_EDGE('',*,*,#199,.F.);
#247=ORIENTED_EDGE('',*,*,#200,.F.);
#248=ORIENTED_EDGE('',*,*,#201,.T.);
#249=ORIENTED_EDGE('',*,*,#202,.F.);
#250=ORIENTED_EDGE('',*,*,#203,.F.);
#251=ORIENTED_EDGE('',*,*,#204,.T.);
#252=ORIENTED_EDGE('',*,*,#202,.T.);
#253=ORIENTED_EDGE('',*,*,#205,.T.);
#254=ORIENTED_EDGE('',*,*,#198,.T.);
#255=ORIENTED_EDGE('',*,*,#206,.T.);
#256=ORIENTED_EDGE('',*,*,#207,.T.);
#257=ORIENTED_EDGE('',*,*,#194,.T.);
#258=ORIENTED_EDGE('',*,*,#208,.T.);
#259=ORIENTED_EDGE('',*,*,#209,.T.);
#260=ORIENTED_EDGE('',*,*,#210,.T.);
#261=ORIENTED_EDGE('',*,*,#211,.F.);
#262=ORIENTED_EDGE('',*,*,#212,.T.);
#263=ORIENTED_EDGE('',*,*,#200,.T.);
#264=ORIENTED_EDGE('',*,*,#213,.T.);
#265=ORIENTED_EDGE('',*,*,#214,.F.);
#266=ORIENTED_EDGE('',*,*,#215,.T.);
#267=ORIENTED_EDGE('',*,*,#207,.F.);
#268=ORIENTED_EDGE('',*,*,#215,.F.);
#269=ORIENTED_EDGE('',*,*,#216,.F.);
#270=ORIENTED_EDGE('',*,*,#217,.T.);
#271=ORIENTED_EDGE('',*,*,#209,.F.);
#272=ORIENTED_EDGE('',*,*,#217,.F.);
#273=ORIENTED_EDGE('',*,*,#218,.F.);
#274=ORIENTED_EDGE('',*,*,#219,.T.);
#275=ORIENTED_EDGE('',*,*,#208,.F.);
#276=ORIENTED_EDGE('',*,*,#219,.F.);
#277=ORIENTED_EDGE('',*,*,#220,.F.);
#278=ORIENTED_EDGE('',*,*,#221,.T.);
#279=ORIENTED_EDGE('',*,*,#222,.F.);
#280=ORIENTED_EDGE('',*,*,#221,.F.);
#281=ORIENTED_EDGE('',*,*,#223,.F.);
#282=ORIENTED_EDGE('',*,*,#224,.T.);
#283=ORIENTED_EDGE('',*,*,#206,.F.);
#284=ORIENTED_EDGE('',*,*,#224,.F.);
#285=ORIENTED_EDGE('',*,*,#225,.F.);
#286=ORIENTED_EDGE('',*,*,#226,.T.);
#287=ORIENTED_EDGE('',*,*,#210,.F.);
#288=ORIENTED_EDGE('',*,*,#226,.F.);
#289=ORIENTED_EDGE('',*,*,#211,.T.);
#290=ORIENTED_EDGE('',*,*,#227,.T.);
#291=ORIENTED_EDGE('',*,*,#228,.F.);
#292=ORIENTED_EDGE('',*,*,#229,.F.);
#293=ORIENTED_EDGE('',*,*,#229,.T.);
#294=ORIENTED_EDGE('',*,*,#230,.F.);
#295=ORIENTED_EDGE('',*,*,#231,.F.);
#296=ORIENTED_EDGE('',*,*,#193,.F.);
#297=ORIENTED_EDGE('',*,*,#199,.T.);
#298=ORIENTED_EDGE('',*,*,#205,.F.);
#299=ORIENTED_EDGE('',*,*,#201,.F.);
#300=ORIENTED_EDGE('',*,*,#212,.F.);
#301=ORIENTED_EDGE('',*,*,#190,.T.);
#302=ORIENTED_EDGE('',*,*,#231,.T.);
#303=ORIENTED_EDGE('',*,*,#232,.F.);
#304=ORIENTED_EDGE('',*,*,#233,.F.);
#305=ORIENTED_EDGE('',*,*,#233,.T.);
#306=ORIENTED_EDGE('',*,*,#234,.F.);
#307=ORIENTED_EDGE('',*,*,#227,.F.);
#308=ORIENTED_EDGE('',*,*,#213,.F.);
#309=ORIENTED_EDGE('',*,*,#203,.T.);
#310=ORIENTED_EDGE('',*,*,#204,.F.);
#311=ORIENTED_EDGE('',*,*,#197,.F.);
#312=ORIENTED_EDGE('',*,*,#191,.F.);
#313=ORIENTED_EDGE('',*,*,#196,.T.);
#314=ORIENTED_EDGE('',*,*,#222,.T.);
#315=ORIENTED_EDGE('',*,*,#234,.T.);
#316=ORIENTED_EDGE('',*,*,#232,.T.);
#317=ORIENTED_EDGE('',*,*,#230,.T.);
#318=ORIENTED_EDGE('',*,*,#228,.T.);
#319=ORIENTED_EDGE('',*,*,#225,.T.);
#320=ORIENTED_EDGE('',*,*,#223,.T.);
#321=ORIENTED_EDGE('',*,*,#220,.T.);
#322=ORIENTED_EDGE('',*,*,#218,.T.);
#323=ORIENTED_EDGE('',*,*,#216,.T.);
#324=ORIENTED_EDGE('',*,*,#214,.T.);
#325=PLANE('',#368);
#326=PLANE('',#372);
#327=PLANE('',#373);
#328=PLANE('',#374);
#329=PLANE('',#380);
#330=PLANE('',#394);
#331=PLANE('',#395);
#332=PLANE('',#396);
#333=PLANE('',#397);
#334=PLANE('',#398);
#335=PLANE('',#399);
#336=ADVANCED_FACE('',(#49),#325,.F.);
#337=ADVANCED_FACE('',(#50),#42,.F.);
#338=ADVANCED_FACE('',(#51),#326,.T.);
#339=ADVANCED_FACE('',(#52),#327,.T.);
#340=ADVANCED_FACE('',(#53,#15,#16,#17,#18,#19,#20),#328,.T.);
#341=ADVANCED_FACE('',(#54),#329,.F.);
#342=ADVANCED_FACE('',(#55),#43,.F.);
#343=ADVANCED_FACE('',(#56),#44,.F.);
#344=ADVANCED_FACE('',(#57),#45,.F.);
#345=ADVANCED_FACE('',(#58),#46,.F.);
#346=ADVANCED_FACE('',(#59),#47,.F.);
#347=ADVANCED_FACE('',(#60),#48,.F.);
#348=ADVANCED_FACE('',(#61),#330,.T.);
#349=ADVANCED_FACE('',(#62),#331,.T.);
#350=ADVANCED_FACE('',(#63),#332,.T.);
#351=ADVANCED_FACE('',(#64),#333,.T.);
#352=ADVANCED_FACE('',(#65,#21),#334,.T.);
#353=ADVANCED_FACE('',(#66,#22,#23,#24,#25,#26,#27),#335,.F.);
#354=CLOSED_SHELL('',(#336,#337,#338,#339,#340,#341,#342,#343,#344,#345,
#346,#347,#348,#349,#350,#351,#352,#353));
#355=DERIVED_UNIT_ELEMENT(#357,1.);
#356=DERIVED_UNIT_ELEMENT(#596,-3.);
#357=(
MASS_UNIT()
NAMED_UNIT(*)
SI_UNIT(.KILO.,.GRAM.)
);
#358=DERIVED_UNIT((#355,#356));
#359=MEASURE_REPRESENTATION_ITEM('density measure',
POSITIVE_RATIO_MEASURE(7850.),#358);
#360=PROPERTY_DEFINITION_REPRESENTATION(#365,#362);
#361=PROPERTY_DEFINITION_REPRESENTATION(#366,#363);
#362=REPRESENTATION('material name',(#364),#593);
#363=REPRESENTATION('density',(#359),#593);
#364=DESCRIPTIVE_REPRESENTATION_ITEM('Steel','Steel');
#365=PROPERTY_DEFINITION('material property','material name',#603);
#366=PROPERTY_DEFINITION('material property','density of part',#603);
#367=AXIS2_PLACEMENT_3D('',#497,#400,#401);
#368=AXIS2_PLACEMENT_3D('',#498,#402,#403);
#369=AXIS2_PLACEMENT_3D('',#507,#408,#409);
#370=AXIS2_PLACEMENT_3D('',#509,#410,#411);
#371=AXIS2_PLACEMENT_3D('',#512,#413,#414);
#372=AXIS2_PLACEMENT_3D('',#513,#415,#416);
#373=AXIS2_PLACEMENT_3D('',#519,#420,#421);
#374=AXIS2_PLACEMENT_3D('',#528,#426,#427);
#375=AXIS2_PLACEMENT_3D('',#532,#430,#431);
#376=AXIS2_PLACEMENT_3D('',#534,#432,#433);
#377=AXIS2_PLACEMENT_3D('',#536,#434,#435);
#378=AXIS2_PLACEMENT_3D('',#538,#436,#437);
#379=AXIS2_PLACEMENT_3D('',#540,#438,#439);
#380=AXIS2_PLACEMENT_3D('',#541,#440,#441);
#381=AXIS2_PLACEMENT_3D('',#547,#445,#446);
#382=AXIS2_PLACEMENT_3D('',#549,#447,#448);
#383=AXIS2_PLACEMENT_3D('',#551,#450,#451);
#384=AXIS2_PLACEMENT_3D('',#553,#452,#453);
#385=AXIS2_PLACEMENT_3D('',#555,#455,#456);
#386=AXIS2_PLACEMENT_3D('',#557,#457,#458);
#387=AXIS2_PLACEMENT_3D('',#559,#460,#461);
#388=AXIS2_PLACEMENT_3D('',#561,#462,#463);
#389=AXIS2_PLACEMENT_3D('',#564,#465,#466);
#390=AXIS2_PLACEMENT_3D('',#565,#467,#468);
#391=AXIS2_PLACEMENT_3D('',#567,#469,#470);
#392=AXIS2_PLACEMENT_3D('',#569,#472,#473);
#393=AXIS2_PLACEMENT_3D('',#571,#474,#475);
#394=AXIS2_PLACEMENT_3D('',#573,#477,#478);
#395=AXIS2_PLACEMENT_3D('',#579,#482,#483);
#396=AXIS2_PLACEMENT_3D('',#583,#486,#487);
#397=AXIS2_PLACEMENT_3D('',#587,#490,#491);
#398=AXIS2_PLACEMENT_3D('',#589,#493,#494);
#399=AXIS2_PLACEMENT_3D('',#590,#495,#496);
#400=DIRECTION('axis',(0.,0.,1.));
#401=DIRECTION('refdir',(1.,0.,0.));
#402=DIRECTION('center_axis',(0.,0.,1.));
#403=DIRECTION('ref_axis',(1.,0.,0.));
#404=DIRECTION('',(0.,1.,0.));
#405=DIRECTION('',(-1.,0.,0.));
#406=DIRECTION('',(0.,-1.,0.));
#407=DIRECTION('',(1.,0.,0.));
#408=DIRECTION('center_axis',(0.,0.,1.));
#409=DIRECTION('ref_axis',(1.,0.,0.));
#410=DIRECTION('center_axis',(0.,0.,-1.));
#411=DIRECTION('ref_axis',(1.,0.,0.));
#412=DIRECTION('',(0.,0.,-1.));
#413=DIRECTION('center_axis',(0.,0.,1.));
#414=DIRECTION('ref_axis',(1.,0.,0.));
#415=DIRECTION('center_axis',(-1.,0.,0.));
#416=DIRECTION('ref_axis',(0.,-1.,0.));
#417=DIRECTION('',(0.,0.,1.));
#418=DIRECTION('',(0.,-1.,0.));
#419=DIRECTION('',(0.,0.,1.));
#420=DIRECTION('center_axis',(1.,0.,0.));
#421=DIRECTION('ref_axis',(0.,1.,0.));
#422=DIRECTION('',(0.,-1.,0.));
#423=DIRECTION('',(0.,0.,1.));
#424=DIRECTION('',(0.,1.,0.));
#425=DIRECTION('',(0.,0.,1.));
#426=DIRECTION('center_axis',(0.,0.,1.));
#427=DIRECTION('ref_axis',(1.,0.,0.));
#428=DIRECTION('',(1.,0.,0.));
#429=DIRECTION('',(-1.,0.,0.));
#430=DIRECTION('center_axis',(0.,0.,-1.));
#431=DIRECTION('ref_axis',(1.,0.,0.));
#432=DIRECTION('center_axis',(0.,0.,-1.));
#433=DIRECTION('ref_axis',(1.,0.,0.));
#434=DIRECTION('center_axis',(0.,0.,-1.));
#435=DIRECTION('ref_axis',(1.,0.,0.));
#436=DIRECTION('center_axis',(0.,0.,-1.));
#437=DIRECTION('ref_axis',(1.,0.,0.));
#438=DIRECTION('center_axis',(0.,0.,-1.));
#439=DIRECTION('ref_axis',(1.,0.,0.));
#440=DIRECTION('center_axis',(0.,0.,1.));
#441=DIRECTION('ref_axis',(1.,0.,0.));
#442=DIRECTION('',(0.,-1.,0.));
#443=DIRECTION('',(1.,0.,0.));
#444=DIRECTION('',(-1.,0.,0.));
#445=DIRECTION('center_axis',(0.,0.,-1.));
#446=DIRECTION('ref_axis',(1.,0.,0.));
#447=DIRECTION('center_axis',(0.,0.,1.));
#448=DIRECTION('ref_axis',(1.,0.,0.));
#449=DIRECTION('',(0.,0.,1.));
#450=DIRECTION('center_axis',(0.,0.,-1.));
#451=DIRECTION('ref_axis',(1.,0.,0.));
#452=DIRECTION('center_axis',(0.,0.,1.));
#453=DIRECTION('ref_axis',(1.,0.,0.));
#454=DIRECTION('',(0.,0.,1.));
#455=DIRECTION('center_axis',(0.,0.,-1.));
#456=DIRECTION('ref_axis',(1.,0.,0.));
#457=DIRECTION('center_axis',(0.,0.,1.));
#458=DIRECTION('ref_axis',(1.,0.,0.));
#459=DIRECTION('',(0.,0.,1.));
#460=DIRECTION('center_axis',(0.,0.,-1.));
#461=DIRECTION('ref_axis',(1.,0.,0.));
#462=DIRECTION('center_axis',(0.,0.,1.));
#463=DIRECTION('ref_axis',(1.,0.,0.));
#464=DIRECTION('',(0.,0.,1.));
#465=DIRECTION('center_axis',(0.,0.,-1.));
#466=DIRECTION('ref_axis',(1.,0.,0.));
#467=DIRECTION('center_axis',(0.,0.,-1.));
#468=DIRECTION('ref_axis',(1.,0.,0.));
#469=DIRECTION('center_axis',(0.,0.,1.));
#470=DIRECTION('ref_axis',(1.,0.,0.));
#471=DIRECTION('',(0.,0.,1.));
#472=DIRECTION('center_axis',(0.,0.,-1.));
#473=DIRECTION('ref_axis',(1.,0.,0.));
#474=DIRECTION('center_axis',(0.,0.,1.));
#475=DIRECTION('ref_axis',(1.,0.,0.));
#476=DIRECTION('',(0.,0.,1.));
#477=DIRECTION('center_axis',(1.,0.,0.));
#478=DIRECTION('ref_axis',(0.,-1.,0.));
#479=DIRECTION('',(0.,0.,-1.));
#480=DIRECTION('',(0.,-1.,0.));
#481=DIRECTION('',(0.,0.,-1.));
#482=DIRECTION('center_axis',(0.,1.,0.));
#483=DIRECTION('ref_axis',(1.,0.,0.));
#484=DIRECTION('',(1.,0.,0.));
#485=DIRECTION('',(0.,0.,-1.));
#486=DIRECTION('center_axis',(-1.,0.,0.));
#487=DIRECTION('ref_axis',(0.,1.,0.));
#488=DIRECTION('',(0.,1.,0.));
#489=DIRECTION('',(0.,0.,-1.));
#490=DIRECTION('center_axis',(0.,-1.,0.));
#491=DIRECTION('ref_axis',(-1.,0.,0.));
#492=DIRECTION('',(-1.,0.,0.));
#493=DIRECTION('center_axis',(0.,0.,1.));
#494=DIRECTION('ref_axis',(1.,0.,0.));
#495=DIRECTION('center_axis',(0.,0.,1.));
#496=DIRECTION('ref_axis',(1.,0.,0.));
#497=CARTESIAN_POINT('',(0.,0.,0.));
#498=CARTESIAN_POINT('Origin',(77.,-80.,0.));
#499=CARTESIAN_POINT('',(0.,-160.,0.));
#500=CARTESIAN_POINT('',(0.,0.,0.));
#501=CARTESIAN_POINT('',(0.,-160.,0.));
#502=CARTESIAN_POINT('',(-3.,-160.,0.));
#503=CARTESIAN_POINT('',(0.,-160.,0.));
#504=CARTESIAN_POINT('',(-3.,0.,0.));
#505=CARTESIAN_POINT('',(-3.,0.,0.));
#506=CARTESIAN_POINT('',(154.,0.,0.));
#507=CARTESIAN_POINT('Origin',(77.,-80.,0.));
#508=CARTESIAN_POINT('',(6.99999999999998,-80.,3.));
#509=CARTESIAN_POINT('Origin',(77.,-80.,3.));
#510=CARTESIAN_POINT('',(6.99999999999998,-80.,0.));
#511=CARTESIAN_POINT('',(6.99999999999998,-80.,0.));
#512=CARTESIAN_POINT('Origin',(77.,-80.,0.));
#513=CARTESIAN_POINT('Origin',(-3.,0.,0.));
#514=CARTESIAN_POINT('',(-3.,-160.,3.));
#515=CARTESIAN_POINT('',(-3.,-160.,0.));
#516=CARTESIAN_POINT('',(-3.,0.,3.));
#517=CARTESIAN_POINT('',(-3.,0.,3.));
#518=CARTESIAN_POINT('',(-3.,0.,0.));
#519=CARTESIAN_POINT('Origin',(157.,-160.,0.));
#520=CARTESIAN_POINT('',(157.,0.,0.));
#521=CARTESIAN_POINT('',(157.,-160.,0.));
#522=CARTESIAN_POINT('',(157.,0.,0.));
#523=CARTESIAN_POINT('',(157.,0.,3.));
#524=CARTESIAN_POINT('',(157.,0.,0.));
#525=CARTESIAN_POINT('',(157.,-160.,3.));
#526=CARTESIAN_POINT('',(157.,0.,3.));
#527=CARTESIAN_POINT('',(157.,-160.,0.));
#528=CARTESIAN_POINT('Origin',(77.,-80.,3.));
#529=CARTESIAN_POINT('',(0.,-160.,3.));
#530=CARTESIAN_POINT('',(154.,0.,3.));
#531=CARTESIAN_POINT('',(2.25,-4.,3.));
#532=CARTESIAN_POINT('Origin',(4.,-4.,3.));
#533=CARTESIAN_POINT('',(111.5,-151.,3.));
#534=CARTESIAN_POINT('Origin',(114.,-151.,3.));
#535=CARTESIAN_POINT('',(148.25,-156.,3.));
#536=CARTESIAN_POINT('Origin',(150.,-156.,3.));
#537=CARTESIAN_POINT('',(148.25,-4.,3.));
#538=CARTESIAN_POINT('Origin',(150.,-4.,3.));
#539=CARTESIAN_POINT('',(2.25,-156.,3.));
#540=CARTESIAN_POINT('Origin',(4.,-156.,3.));
#541=CARTESIAN_POINT('Origin',(77.,-80.,0.));
#542=CARTESIAN_POINT('',(154.,0.,0.));
#543=CARTESIAN_POINT('',(154.,-160.,0.));
#544=CARTESIAN_POINT('',(154.,0.,0.));
#545=CARTESIAN_POINT('',(154.,0.,0.));
#546=CARTESIAN_POINT('',(0.,-160.,0.));
#547=CARTESIAN_POINT('Origin',(114.,-151.,0.));
#548=CARTESIAN_POINT('',(111.5,-151.,-2.));
#549=CARTESIAN_POINT('Origin',(114.,-151.,-2.));
#550=CARTESIAN_POINT('',(111.5,-151.,0.));
#551=CARTESIAN_POINT('Origin',(150.,-4.,0.));
#552=CARTESIAN_POINT('',(148.25,-4.,-2.));
#553=CARTESIAN_POINT('Origin',(150.,-4.,-2.));
#554=CARTESIAN_POINT('',(148.25,-4.,0.));
#555=CARTESIAN_POINT('Origin',(150.,-156.,0.));
#556=CARTESIAN_POINT('',(148.25,-156.,-2.));
#557=CARTESIAN_POINT('Origin',(150.,-156.,-2.));
#558=CARTESIAN_POINT('',(148.25,-156.,0.));
#559=CARTESIAN_POINT('Origin',(77.,-80.,0.));
#560=CARTESIAN_POINT('',(10.5,-80.,-2.));
#561=CARTESIAN_POINT('Origin',(77.,-80.,-2.));
#562=CARTESIAN_POINT('',(10.5,-80.,0.));
#563=CARTESIAN_POINT('',(10.5,-80.,0.));
#564=CARTESIAN_POINT('Origin',(77.,-80.,0.));
#565=CARTESIAN_POINT('Origin',(4.,-4.,0.));
#566=CARTESIAN_POINT('',(2.25,-4.,-2.));
#567=CARTESIAN_POINT('Origin',(4.,-4.,-2.));
#568=CARTESIAN_POINT('',(2.25,-4.,0.));
#569=CARTESIAN_POINT('Origin',(4.,-156.,0.));
#570=CARTESIAN_POINT('',(2.25,-156.,-2.));
#571=CARTESIAN_POINT('Origin',(4.,-156.,-2.));
#572=CARTESIAN_POINT('',(2.25,-156.,0.));
#573=CARTESIAN_POINT('Origin',(154.,0.,0.));
#574=CARTESIAN_POINT('',(154.,-160.,-2.));
#575=CARTESIAN_POINT('',(154.,-160.,0.));
#576=CARTESIAN_POINT('',(154.,0.,-2.));
#577=CARTESIAN_POINT('',(154.,0.,-2.));
#578=CARTESIAN_POINT('',(154.,0.,0.));
#579=CARTESIAN_POINT('Origin',(0.,0.,0.));
#580=CARTESIAN_POINT('',(0.,0.,-2.));
#581=CARTESIAN_POINT('',(0.,0.,-2.));
#582=CARTESIAN_POINT('',(0.,0.,0.));
#583=CARTESIAN_POINT('Origin',(0.,-160.,0.));
#584=CARTESIAN_POINT('',(0.,-160.,-2.));
#585=CARTESIAN_POINT('',(0.,-160.,-2.));
#586=CARTESIAN_POINT('',(0.,-160.,0.));
#587=CARTESIAN_POINT('Origin',(154.,-160.,0.));
#588=CARTESIAN_POINT('',(154.,-160.,-2.));
#589=CARTESIAN_POINT('Origin',(77.,-80.,0.));
#590=CARTESIAN_POINT('Origin',(77.,-80.,-2.));
#591=UNCERTAINTY_MEASURE_WITH_UNIT(LENGTH_MEASURE(0.01),#595,
'DISTANCE_ACCURACY_VALUE',
'Maximum model space distance between geometric entities at asserted c
onnectivities');
#592=UNCERTAINTY_MEASURE_WITH_UNIT(LENGTH_MEASURE(0.01),#595,
'DISTANCE_ACCURACY_VALUE',
'Maximum model space distance between geometric entities at asserted c
onnectivities');
#593=(
GEOMETRIC_REPRESENTATION_CONTEXT(3)
GLOBAL_UNCERTAINTY_ASSIGNED_CONTEXT((#591))
GLOBAL_UNIT_ASSIGNED_CONTEXT((#595,#597,#598))
REPRESENTATION_CONTEXT('','3D')
);
#594=(
GEOMETRIC_REPRESENTATION_CONTEXT(3)
GLOBAL_UNCERTAINTY_ASSIGNED_CONTEXT((#592))
GLOBAL_UNIT_ASSIGNED_CONTEXT((#595,#597,#598))
REPRESENTATION_CONTEXT('','3D')
);
#595=(
LENGTH_UNIT()
NAMED_UNIT(*)
SI_UNIT(.MILLI.,.METRE.)
);
#596=(
LENGTH_UNIT()
NAMED_UNIT(*)
SI_UNIT($,.METRE.)
);
#597=(
NAMED_UNIT(*)
PLANE_ANGLE_UNIT()
SI_UNIT($,.RADIAN.)
);
#598=(
NAMED_UNIT(*)
SI_UNIT($,.STERADIAN.)
SOLID_ANGLE_UNIT()
);
#599=SHAPE_DEFINITION_REPRESENTATION(#600,#601);
#600=PRODUCT_DEFINITION_SHAPE('',$,#603);
#601=SHAPE_REPRESENTATION('',(#367),#593);
#602=PRODUCT_DEFINITION_CONTEXT('part definition',#607,'design');
#603=PRODUCT_DEFINITION('2026-06-22-12-40-41-599','Rover Top v.1',#604,
#602);
#604=PRODUCT_DEFINITION_FORMATION('',$,#609);
#605=PRODUCT_RELATED_PRODUCT_CATEGORY('Rover Top v.1','Rover Top v.1',(#609));
#606=APPLICATION_PROTOCOL_DEFINITION('international standard',
'automotive_design',2009,#607);
#607=APPLICATION_CONTEXT(
'Core Data for Automotive Mechanical Design Process');
#608=PRODUCT_CONTEXT('part definition',#607,'mechanical');
#609=PRODUCT('2026-06-22-12-40-41-599','Rover Top v.1',$,(#608));
#610=PRESENTATION_STYLE_ASSIGNMENT((#611));
#611=SURFACE_STYLE_USAGE(.BOTH.,#612);
#612=SURFACE_SIDE_STYLE('',(#613));
#613=SURFACE_STYLE_FILL_AREA(#614);
#614=FILL_AREA_STYLE('Steel - Satin',(#615));
#615=FILL_AREA_STYLE_COLOUR('Steel - Satin',#616);
#616=COLOUR_RGB('Steel - Satin',0.627450980392157,0.627450980392157,0.627450980392157);
ENDSEC;
END-ISO-10303-21;
