ISO-10303-21;
HEADER;
/* Generated by software containing ST-Developer
 * from STEP Tools, Inc. (www.steptools.com) 
 */

FILE_DESCRIPTION(
/* description */ (''),
/* implementation_level */ '2;1');

FILE_NAME(
/* name */ 'USB-holder.step',
/* time_stamp */ '2026-07-22T08:04:48-04:00',
/* author */ (''),
/* organization */ (''),
/* preprocessor_version */ 'ST-DEVELOPER v20.1',
/* originating_system */ 'Autodesk Translation Framework v15.8.0.0',
/* authorisation */ '');

FILE_SCHEMA (('AUTOMOTIVE_DESIGN { 1 0 10303 214 3 1 1 }'));
ENDSEC;

DATA;
#10=MECHANICAL_DESIGN_GEOMETRIC_PRESENTATION_REPRESENTATION('',(#13),#1761);
#11=SHAPE_REPRESENTATION_RELATIONSHIP('SRR','None',#1768,#12);
#12=ADVANCED_BREP_SHAPE_REPRESENTATION('',(#14),#1760);
#13=STYLED_ITEM('',(#1777),#14);
#14=MANIFOLD_SOLID_BREP('Body1',#1087);
#15=FACE_BOUND('',#132,.T.);
#16=FACE_BOUND('',#139,.T.);
#17=FACE_BOUND('',#140,.T.);
#18=FACE_BOUND('',#147,.T.);
#19=FACE_BOUND('',#150,.T.);
#20=FACE_BOUND('',#153,.T.);
#21=FACE_BOUND('',#155,.T.);
#22=FACE_BOUND('',#158,.T.);
#23=FACE_BOUND('',#166,.T.);
#24=FACE_BOUND('',#169,.T.);
#25=FACE_BOUND('',#171,.T.);
#26=FACE_BOUND('',#174,.T.);
#27=FACE_BOUND('',#192,.T.);
#28=FACE_BOUND('',#194,.T.);
#29=PLANE('',#1113);
#30=PLANE('',#1115);
#31=PLANE('',#1118);
#32=PLANE('',#1119);
#33=PLANE('',#1120);
#34=PLANE('',#1121);
#35=PLANE('',#1125);
#36=PLANE('',#1126);
#37=PLANE('',#1127);
#38=PLANE('',#1128);
#39=PLANE('',#1129);
#40=PLANE('',#1130);
#41=PLANE('',#1131);
#42=PLANE('',#1132);
#43=PLANE('',#1133);
#44=PLANE('',#1134);
#45=PLANE('',#1135);
#46=PLANE('',#1136);
#47=PLANE('',#1137);
#48=PLANE('',#1138);
#49=PLANE('',#1139);
#50=PLANE('',#1140);
#51=PLANE('',#1141);
#52=PLANE('',#1142);
#53=PLANE('',#1143);
#54=PLANE('',#1144);
#55=PLANE('',#1145);
#56=PLANE('',#1146);
#57=PLANE('',#1147);
#58=PLANE('',#1148);
#59=PLANE('',#1149);
#60=PLANE('',#1150);
#61=PLANE('',#1151);
#62=PLANE('',#1152);
#63=PLANE('',#1153);
#64=PLANE('',#1157);
#65=PLANE('',#1161);
#66=PLANE('',#1165);
#67=PLANE('',#1169);
#68=PLANE('',#1170);
#69=PLANE('',#1171);
#70=PLANE('',#1172);
#71=PLANE('',#1173);
#72=PLANE('',#1174);
#73=FACE_OUTER_BOUND('',#127,.T.);
#74=FACE_OUTER_BOUND('',#128,.T.);
#75=FACE_OUTER_BOUND('',#129,.T.);
#76=FACE_OUTER_BOUND('',#130,.T.);
#77=FACE_OUTER_BOUND('',#131,.T.);
#78=FACE_OUTER_BOUND('',#133,.T.);
#79=FACE_OUTER_BOUND('',#134,.T.);
#80=FACE_OUTER_BOUND('',#135,.T.);
#81=FACE_OUTER_BOUND('',#136,.T.);
#82=FACE_OUTER_BOUND('',#137,.T.);
#83=FACE_OUTER_BOUND('',#138,.T.);
#84=FACE_OUTER_BOUND('',#141,.T.);
#85=FACE_OUTER_BOUND('',#142,.T.);
#86=FACE_OUTER_BOUND('',#143,.T.);
#87=FACE_OUTER_BOUND('',#144,.T.);
#88=FACE_OUTER_BOUND('',#145,.T.);
#89=FACE_OUTER_BOUND('',#146,.T.);
#90=FACE_OUTER_BOUND('',#148,.T.);
#91=FACE_OUTER_BOUND('',#149,.T.);
#92=FACE_OUTER_BOUND('',#151,.T.);
#93=FACE_OUTER_BOUND('',#152,.T.);
#94=FACE_OUTER_BOUND('',#154,.T.);
#95=FACE_OUTER_BOUND('',#156,.T.);
#96=FACE_OUTER_BOUND('',#157,.T.);
#97=FACE_OUTER_BOUND('',#159,.T.);
#98=FACE_OUTER_BOUND('',#160,.T.);
#99=FACE_OUTER_BOUND('',#161,.T.);
#100=FACE_OUTER_BOUND('',#162,.T.);
#101=FACE_OUTER_BOUND('',#163,.T.);
#102=FACE_OUTER_BOUND('',#164,.T.);
#103=FACE_OUTER_BOUND('',#165,.T.);
#104=FACE_OUTER_BOUND('',#167,.T.);
#105=FACE_OUTER_BOUND('',#168,.T.);
#106=FACE_OUTER_BOUND('',#170,.T.);
#107=FACE_OUTER_BOUND('',#172,.T.);
#108=FACE_OUTER_BOUND('',#173,.T.);
#109=FACE_OUTER_BOUND('',#175,.T.);
#110=FACE_OUTER_BOUND('',#176,.T.);
#111=FACE_OUTER_BOUND('',#177,.T.);
#112=FACE_OUTER_BOUND('',#178,.T.);
#113=FACE_OUTER_BOUND('',#179,.T.);
#114=FACE_OUTER_BOUND('',#180,.T.);
#115=FACE_OUTER_BOUND('',#181,.T.);
#116=FACE_OUTER_BOUND('',#182,.T.);
#117=FACE_OUTER_BOUND('',#183,.T.);
#118=FACE_OUTER_BOUND('',#184,.T.);
#119=FACE_OUTER_BOUND('',#185,.T.);
#120=FACE_OUTER_BOUND('',#186,.T.);
#121=FACE_OUTER_BOUND('',#187,.T.);
#122=FACE_OUTER_BOUND('',#188,.T.);
#123=FACE_OUTER_BOUND('',#189,.T.);
#124=FACE_OUTER_BOUND('',#190,.T.);
#125=FACE_OUTER_BOUND('',#191,.T.);
#126=FACE_OUTER_BOUND('',#193,.T.);
#127=EDGE_LOOP('',(#723,#724,#725,#726));
#128=EDGE_LOOP('',(#727,#728,#729,#730));
#129=EDGE_LOOP('',(#731,#732,#733,#734));
#130=EDGE_LOOP('',(#735,#736,#737,#738));
#131=EDGE_LOOP('',(#739,#740,#741,#742,#743,#744,#745));
#132=EDGE_LOOP('',(#746));
#133=EDGE_LOOP('',(#747,#748,#749,#750));
#134=EDGE_LOOP('',(#751,#752,#753,#754));
#135=EDGE_LOOP('',(#755,#756,#757,#758));
#136=EDGE_LOOP('',(#759,#760,#761,#762));
#137=EDGE_LOOP('',(#763,#764,#765,#766));
#138=EDGE_LOOP('',(#767,#768,#769,#770,#771,#772,#773,#774,#775,#776,#777,
#778,#779,#780,#781,#782));
#139=EDGE_LOOP('',(#783));
#140=EDGE_LOOP('',(#784));
#141=EDGE_LOOP('',(#785,#786,#787,#788));
#142=EDGE_LOOP('',(#789,#790,#791,#792));
#143=EDGE_LOOP('',(#793,#794,#795,#796));
#144=EDGE_LOOP('',(#797,#798,#799,#800));
#145=EDGE_LOOP('',(#801,#802,#803,#804));
#146=EDGE_LOOP('',(#805,#806,#807,#808,#809,#810,#811));
#147=EDGE_LOOP('',(#812));
#148=EDGE_LOOP('',(#813,#814,#815,#816));
#149=EDGE_LOOP('',(#817,#818,#819,#820,#821));
#150=EDGE_LOOP('',(#822));
#151=EDGE_LOOP('',(#823,#824,#825,#826,#827));
#152=EDGE_LOOP('',(#828,#829,#830,#831));
#153=EDGE_LOOP('',(#832));
#154=EDGE_LOOP('',(#833,#834,#835,#836));
#155=EDGE_LOOP('',(#837));
#156=EDGE_LOOP('',(#838,#839,#840,#841,#842));
#157=EDGE_LOOP('',(#843,#844,#845,#846,#847));
#158=EDGE_LOOP('',(#848));
#159=EDGE_LOOP('',(#849,#850,#851,#852));
#160=EDGE_LOOP('',(#853,#854,#855,#856));
#161=EDGE_LOOP('',(#857,#858,#859,#860));
#162=EDGE_LOOP('',(#861,#862,#863,#864));
#163=EDGE_LOOP('',(#865,#866,#867,#868));
#164=EDGE_LOOP('',(#869,#870,#871,#872));
#165=EDGE_LOOP('',(#873,#874,#875,#876,#877));
#166=EDGE_LOOP('',(#878));
#167=EDGE_LOOP('',(#879,#880,#881,#882));
#168=EDGE_LOOP('',(#883,#884,#885,#886));
#169=EDGE_LOOP('',(#887));
#170=EDGE_LOOP('',(#888,#889,#890,#891));
#171=EDGE_LOOP('',(#892));
#172=EDGE_LOOP('',(#893,#894,#895,#896));
#173=EDGE_LOOP('',(#897,#898,#899,#900,#901));
#174=EDGE_LOOP('',(#902));
#175=EDGE_LOOP('',(#903,#904,#905,#906));
#176=EDGE_LOOP('',(#907,#908,#909,#910));
#177=EDGE_LOOP('',(#911,#912,#913,#914));
#178=EDGE_LOOP('',(#915,#916,#917,#918,#919,#920,#921,#922,#923,#924,#925,
#926));
#179=EDGE_LOOP('',(#927,#928,#929,#930));
#180=EDGE_LOOP('',(#931,#932,#933,#934));
#181=EDGE_LOOP('',(#935,#936,#937,#938));
#182=EDGE_LOOP('',(#939,#940,#941,#942));
#183=EDGE_LOOP('',(#943,#944,#945,#946));
#184=EDGE_LOOP('',(#947,#948,#949,#950));
#185=EDGE_LOOP('',(#951,#952,#953,#954));
#186=EDGE_LOOP('',(#955,#956,#957,#958));
#187=EDGE_LOOP('',(#959,#960,#961,#962,#963,#964,#965,#966,#967,#968));
#188=EDGE_LOOP('',(#969,#970,#971,#972));
#189=EDGE_LOOP('',(#973,#974,#975,#976,#977,#978,#979,#980,#981,#982));
#190=EDGE_LOOP('',(#983,#984,#985,#986,#987,#988,#989,#990));
#191=EDGE_LOOP('',(#991,#992,#993,#994));
#192=EDGE_LOOP('',(#995,#996,#997,#998,#999,#1000,#1001,#1002));
#193=EDGE_LOOP('',(#1003,#1004,#1005,#1006,#1007,#1008,#1009,#1010,#1011,
#1012,#1013,#1014));
#194=EDGE_LOOP('',(#1015,#1016,#1017,#1018,#1019,#1020,#1021,#1022));
#195=LINE('',#1460,#325);
#196=LINE('',#1466,#326);
#197=LINE('',#1472,#327);
#198=LINE('',#1478,#328);
#199=LINE('',#1483,#329);
#200=LINE('',#1485,#330);
#201=LINE('',#1487,#331);
#202=LINE('',#1489,#332);
#203=LINE('',#1491,#333);
#204=LINE('',#1493,#334);
#205=LINE('',#1494,#335);
#206=LINE('',#1499,#336);
#207=LINE('',#1501,#337);
#208=LINE('',#1502,#338);
#209=LINE('',#1505,#339);
#210=LINE('',#1510,#340);
#211=LINE('',#1511,#341);
#212=LINE('',#1512,#342);
#213=LINE('',#1514,#343);
#214=LINE('',#1517,#344);
#215=LINE('',#1518,#345);
#216=LINE('',#1521,#346);
#217=LINE('',#1523,#347);
#218=LINE('',#1525,#348);
#219=LINE('',#1527,#349);
#220=LINE('',#1529,#350);
#221=LINE('',#1531,#351);
#222=LINE('',#1533,#352);
#223=LINE('',#1535,#353);
#224=LINE('',#1537,#354);
#225=LINE('',#1539,#355);
#226=LINE('',#1541,#356);
#227=LINE('',#1542,#357);
#228=LINE('',#1548,#358);
#229=LINE('',#1551,#359);
#230=LINE('',#1553,#360);
#231=LINE('',#1554,#361);
#232=LINE('',#1557,#362);
#233=LINE('',#1558,#363);
#234=LINE('',#1561,#364);
#235=LINE('',#1562,#365);
#236=LINE('',#1565,#366);
#237=LINE('',#1566,#367);
#238=LINE('',#1570,#368);
#239=LINE('',#1571,#369);
#240=LINE('',#1572,#370);
#241=LINE('',#1576,#371);
#242=LINE('',#1578,#372);
#243=LINE('',#1580,#373);
#244=LINE('',#1581,#374);
#245=LINE('',#1585,#375);
#246=LINE('',#1586,#376);
#247=LINE('',#1588,#377);
#248=LINE('',#1589,#378);
#249=LINE('',#1592,#379);
#250=LINE('',#1593,#380);
#251=LINE('',#1596,#381);
#252=LINE('',#1597,#382);
#253=LINE('',#1599,#383);
#254=LINE('',#1600,#384);
#255=LINE('',#1602,#385);
#256=LINE('',#1605,#386);
#257=LINE('',#1606,#387);
#258=LINE('',#1609,#388);
#259=LINE('',#1610,#389);
#260=LINE('',#1613,#390);
#261=LINE('',#1614,#391);
#262=LINE('',#1616,#392);
#263=LINE('',#1618,#393);
#264=LINE('',#1622,#394);
#265=LINE('',#1624,#395);
#266=LINE('',#1626,#396);
#267=LINE('',#1627,#397);
#268=LINE('',#1631,#398);
#269=LINE('',#1633,#399);
#270=LINE('',#1635,#400);
#271=LINE('',#1636,#401);
#272=LINE('',#1639,#402);
#273=LINE('',#1641,#403);
#274=LINE('',#1643,#404);
#275=LINE('',#1644,#405);
#276=LINE('',#1647,#406);
#277=LINE('',#1649,#407);
#278=LINE('',#1650,#408);
#279=LINE('',#1653,#409);
#280=LINE('',#1655,#410);
#281=LINE('',#1656,#411);
#282=LINE('',#1659,#412);
#283=LINE('',#1661,#413);
#284=LINE('',#1662,#414);
#285=LINE('',#1665,#415);
#286=LINE('',#1666,#416);
#287=LINE('',#1669,#417);
#288=LINE('',#1671,#418);
#289=LINE('',#1672,#419);
#290=LINE('',#1675,#420);
#291=LINE('',#1677,#421);
#292=LINE('',#1678,#422);
#293=LINE('',#1680,#423);
#294=LINE('',#1681,#424);
#295=LINE('',#1683,#425);
#296=LINE('',#1686,#426);
#297=LINE('',#1688,#427);
#298=LINE('',#1689,#428);
#299=LINE('',#1693,#429);
#300=LINE('',#1695,#430);
#301=LINE('',#1697,#431);
#302=LINE('',#1698,#432);
#303=LINE('',#1704,#433);
#304=LINE('',#1707,#434);
#305=LINE('',#1709,#435);
#306=LINE('',#1710,#436);
#307=LINE('',#1716,#437);
#308=LINE('',#1719,#438);
#309=LINE('',#1721,#439);
#310=LINE('',#1722,#440);
#311=LINE('',#1728,#441);
#312=LINE('',#1731,#442);
#313=LINE('',#1733,#443);
#314=LINE('',#1734,#444);
#315=LINE('',#1740,#445);
#316=LINE('',#1742,#446);
#317=LINE('',#1743,#447);
#318=LINE('',#1744,#448);
#319=LINE('',#1747,#449);
#320=LINE('',#1748,#450);
#321=LINE('',#1750,#451);
#322=LINE('',#1752,#452);
#323=LINE('',#1753,#453);
#324=LINE('',#1755,#454);
#325=VECTOR('',#1181,1.75);
#326=VECTOR('',#1188,1.75);
#327=VECTOR('',#1195,1.75);
#328=VECTOR('',#1202,1.75);
#329=VECTOR('',#1207,10.);
#330=VECTOR('',#1208,10.);
#331=VECTOR('',#1209,10.);
#332=VECTOR('',#1210,10.);
#333=VECTOR('',#1211,10.);
#334=VECTOR('',#1212,10.);
#335=VECTOR('',#1213,10.);
#336=VECTOR('',#1218,10.);
#337=VECTOR('',#1219,10.);
#338=VECTOR('',#1220,10.);
#339=VECTOR('',#1223,2.1);
#340=VECTOR('',#1228,10.);
#341=VECTOR('',#1229,10.);
#342=VECTOR('',#1230,10.);
#343=VECTOR('',#1233,10.);
#344=VECTOR('',#1236,10.);
#345=VECTOR('',#1237,10.);
#346=VECTOR('',#1240,10.);
#347=VECTOR('',#1241,10.);
#348=VECTOR('',#1242,10.);
#349=VECTOR('',#1243,10.);
#350=VECTOR('',#1244,10.);
#351=VECTOR('',#1245,10.);
#352=VECTOR('',#1246,10.);
#353=VECTOR('',#1247,10.);
#354=VECTOR('',#1248,10.);
#355=VECTOR('',#1249,10.);
#356=VECTOR('',#1250,10.);
#357=VECTOR('',#1251,10.);
#358=VECTOR('',#1258,2.1);
#359=VECTOR('',#1261,10.);
#360=VECTOR('',#1262,10.);
#361=VECTOR('',#1263,10.);
#362=VECTOR('',#1266,10.);
#363=VECTOR('',#1267,10.);
#364=VECTOR('',#1270,10.);
#365=VECTOR('',#1271,10.);
#366=VECTOR('',#1274,10.);
#367=VECTOR('',#1275,10.);
#368=VECTOR('',#1278,10.);
#369=VECTOR('',#1279,10.);
#370=VECTOR('',#1280,10.);
#371=VECTOR('',#1283,10.);
#372=VECTOR('',#1284,10.);
#373=VECTOR('',#1285,10.);
#374=VECTOR('',#1286,10.);
#375=VECTOR('',#1289,10.);
#376=VECTOR('',#1290,10.);
#377=VECTOR('',#1291,10.);
#378=VECTOR('',#1292,10.);
#379=VECTOR('',#1295,10.);
#380=VECTOR('',#1296,10.);
#381=VECTOR('',#1299,10.);
#382=VECTOR('',#1300,10.);
#383=VECTOR('',#1303,10.);
#384=VECTOR('',#1304,10.);
#385=VECTOR('',#1307,10.);
#386=VECTOR('',#1310,10.);
#387=VECTOR('',#1311,10.);
#388=VECTOR('',#1314,10.);
#389=VECTOR('',#1315,10.);
#390=VECTOR('',#1318,10.);
#391=VECTOR('',#1319,10.);
#392=VECTOR('',#1322,10.);
#393=VECTOR('',#1325,10.);
#394=VECTOR('',#1328,10.);
#395=VECTOR('',#1329,10.);
#396=VECTOR('',#1330,10.);
#397=VECTOR('',#1331,10.);
#398=VECTOR('',#1334,10.);
#399=VECTOR('',#1335,10.);
#400=VECTOR('',#1336,10.);
#401=VECTOR('',#1337,10.);
#402=VECTOR('',#1340,10.);
#403=VECTOR('',#1341,10.);
#404=VECTOR('',#1342,10.);
#405=VECTOR('',#1343,10.);
#406=VECTOR('',#1346,10.);
#407=VECTOR('',#1347,10.);
#408=VECTOR('',#1348,10.);
#409=VECTOR('',#1351,10.);
#410=VECTOR('',#1352,10.);
#411=VECTOR('',#1353,10.);
#412=VECTOR('',#1356,10.);
#413=VECTOR('',#1357,10.);
#414=VECTOR('',#1358,10.);
#415=VECTOR('',#1361,10.);
#416=VECTOR('',#1362,10.);
#417=VECTOR('',#1365,10.);
#418=VECTOR('',#1366,10.);
#419=VECTOR('',#1367,10.);
#420=VECTOR('',#1370,10.);
#421=VECTOR('',#1371,10.);
#422=VECTOR('',#1372,10.);
#423=VECTOR('',#1375,10.);
#424=VECTOR('',#1376,10.);
#425=VECTOR('',#1379,10.);
#426=VECTOR('',#1382,10.);
#427=VECTOR('',#1383,10.);
#428=VECTOR('',#1384,10.);
#429=VECTOR('',#1387,10.);
#430=VECTOR('',#1388,10.);
#431=VECTOR('',#1389,10.);
#432=VECTOR('',#1390,10.);
#433=VECTOR('',#1397,10.);
#434=VECTOR('',#1400,10.);
#435=VECTOR('',#1401,10.);
#436=VECTOR('',#1402,10.);
#437=VECTOR('',#1409,10.);
#438=VECTOR('',#1412,10.);
#439=VECTOR('',#1413,10.);
#440=VECTOR('',#1414,10.);
#441=VECTOR('',#1421,10.);
#442=VECTOR('',#1424,10.);
#443=VECTOR('',#1425,10.);
#444=VECTOR('',#1426,10.);
#445=VECTOR('',#1435,10.);
#446=VECTOR('',#1436,10.);
#447=VECTOR('',#1437,10.);
#448=VECTOR('',#1438,10.);
#449=VECTOR('',#1441,10.);
#450=VECTOR('',#1442,10.);
#451=VECTOR('',#1445,10.);
#452=VECTOR('',#1446,10.);
#453=VECTOR('',#1447,10.);
#454=VECTOR('',#1450,10.);
#455=CIRCLE('',#1102,1.75);
#456=CIRCLE('',#1103,1.75);
#457=CIRCLE('',#1105,1.75);
#458=CIRCLE('',#1106,1.75);
#459=CIRCLE('',#1108,1.75);
#460=CIRCLE('',#1109,1.75);
#461=CIRCLE('',#1111,1.75);
#462=CIRCLE('',#1112,1.75);
#463=CIRCLE('',#1114,2.1);
#464=CIRCLE('',#1117,2.1);
#465=CIRCLE('',#1122,2.1);
#466=CIRCLE('',#1124,2.1);
#467=CIRCLE('',#1155,0.999999999999999);
#468=CIRCLE('',#1156,0.999999999999999);
#469=CIRCLE('',#1159,0.999999999999999);
#470=CIRCLE('',#1160,0.999999999999999);
#471=CIRCLE('',#1163,1.);
#472=CIRCLE('',#1164,1.);
#473=CIRCLE('',#1167,1.);
#474=CIRCLE('',#1168,1.);
#475=VERTEX_POINT('',#1457);
#476=VERTEX_POINT('',#1459);
#477=VERTEX_POINT('',#1463);
#478=VERTEX_POINT('',#1465);
#479=VERTEX_POINT('',#1469);
#480=VERTEX_POINT('',#1471);
#481=VERTEX_POINT('',#1475);
#482=VERTEX_POINT('',#1477);
#483=VERTEX_POINT('',#1481);
#484=VERTEX_POINT('',#1482);
#485=VERTEX_POINT('',#1484);
#486=VERTEX_POINT('',#1486);
#487=VERTEX_POINT('',#1488);
#488=VERTEX_POINT('',#1490);
#489=VERTEX_POINT('',#1492);
#490=VERTEX_POINT('',#1495);
#491=VERTEX_POINT('',#1498);
#492=VERTEX_POINT('',#1500);
#493=VERTEX_POINT('',#1504);
#494=VERTEX_POINT('',#1508);
#495=VERTEX_POINT('',#1509);
#496=VERTEX_POINT('',#1516);
#497=VERTEX_POINT('',#1520);
#498=VERTEX_POINT('',#1522);
#499=VERTEX_POINT('',#1524);
#500=VERTEX_POINT('',#1526);
#501=VERTEX_POINT('',#1528);
#502=VERTEX_POINT('',#1530);
#503=VERTEX_POINT('',#1532);
#504=VERTEX_POINT('',#1534);
#505=VERTEX_POINT('',#1536);
#506=VERTEX_POINT('',#1538);
#507=VERTEX_POINT('',#1540);
#508=VERTEX_POINT('',#1543);
#509=VERTEX_POINT('',#1546);
#510=VERTEX_POINT('',#1550);
#511=VERTEX_POINT('',#1552);
#512=VERTEX_POINT('',#1556);
#513=VERTEX_POINT('',#1560);
#514=VERTEX_POINT('',#1564);
#515=VERTEX_POINT('',#1568);
#516=VERTEX_POINT('',#1569);
#517=VERTEX_POINT('',#1574);
#518=VERTEX_POINT('',#1575);
#519=VERTEX_POINT('',#1577);
#520=VERTEX_POINT('',#1579);
#521=VERTEX_POINT('',#1583);
#522=VERTEX_POINT('',#1584);
#523=VERTEX_POINT('',#1587);
#524=VERTEX_POINT('',#1591);
#525=VERTEX_POINT('',#1595);
#526=VERTEX_POINT('',#1604);
#527=VERTEX_POINT('',#1608);
#528=VERTEX_POINT('',#1612);
#529=VERTEX_POINT('',#1620);
#530=VERTEX_POINT('',#1621);
#531=VERTEX_POINT('',#1623);
#532=VERTEX_POINT('',#1625);
#533=VERTEX_POINT('',#1629);
#534=VERTEX_POINT('',#1630);
#535=VERTEX_POINT('',#1632);
#536=VERTEX_POINT('',#1634);
#537=VERTEX_POINT('',#1638);
#538=VERTEX_POINT('',#1640);
#539=VERTEX_POINT('',#1642);
#540=VERTEX_POINT('',#1646);
#541=VERTEX_POINT('',#1648);
#542=VERTEX_POINT('',#1652);
#543=VERTEX_POINT('',#1654);
#544=VERTEX_POINT('',#1658);
#545=VERTEX_POINT('',#1660);
#546=VERTEX_POINT('',#1664);
#547=VERTEX_POINT('',#1668);
#548=VERTEX_POINT('',#1670);
#549=VERTEX_POINT('',#1674);
#550=VERTEX_POINT('',#1676);
#551=VERTEX_POINT('',#1685);
#552=VERTEX_POINT('',#1687);
#553=VERTEX_POINT('',#1691);
#554=VERTEX_POINT('',#1692);
#555=VERTEX_POINT('',#1694);
#556=VERTEX_POINT('',#1696);
#557=VERTEX_POINT('',#1700);
#558=VERTEX_POINT('',#1702);
#559=VERTEX_POINT('',#1706);
#560=VERTEX_POINT('',#1708);
#561=VERTEX_POINT('',#1712);
#562=VERTEX_POINT('',#1714);
#563=VERTEX_POINT('',#1718);
#564=VERTEX_POINT('',#1720);
#565=VERTEX_POINT('',#1724);
#566=VERTEX_POINT('',#1726);
#567=VERTEX_POINT('',#1730);
#568=VERTEX_POINT('',#1732);
#569=VERTEX_POINT('',#1739);
#570=VERTEX_POINT('',#1741);
#571=VERTEX_POINT('',#1746);
#572=VERTEX_POINT('',#1751);
#573=EDGE_CURVE('',#475,#475,#455,.T.);
#574=EDGE_CURVE('',#475,#476,#195,.T.);
#575=EDGE_CURVE('',#476,#476,#456,.T.);
#576=EDGE_CURVE('',#477,#477,#457,.T.);
#577=EDGE_CURVE('',#477,#478,#196,.T.);
#578=EDGE_CURVE('',#478,#478,#458,.T.);
#579=EDGE_CURVE('',#479,#479,#459,.T.);
#580=EDGE_CURVE('',#479,#480,#197,.T.);
#581=EDGE_CURVE('',#480,#480,#460,.T.);
#582=EDGE_CURVE('',#481,#481,#461,.T.);
#583=EDGE_CURVE('',#481,#482,#198,.T.);
#584=EDGE_CURVE('',#482,#482,#462,.T.);
#585=EDGE_CURVE('',#483,#484,#199,.T.);
#586=EDGE_CURVE('',#485,#483,#200,.T.);
#587=EDGE_CURVE('',#486,#485,#201,.T.);
#588=EDGE_CURVE('',#486,#487,#202,.T.);
#589=EDGE_CURVE('',#487,#488,#203,.T.);
#590=EDGE_CURVE('',#488,#489,#204,.T.);
#591=EDGE_CURVE('',#489,#484,#205,.T.);
#592=EDGE_CURVE('',#490,#490,#463,.T.);
#593=EDGE_CURVE('',#486,#491,#206,.T.);
#594=EDGE_CURVE('',#492,#491,#207,.T.);
#595=EDGE_CURVE('',#492,#487,#208,.T.);
#596=EDGE_CURVE('',#490,#493,#209,.T.);
#597=EDGE_CURVE('',#493,#493,#464,.T.);
#598=EDGE_CURVE('',#494,#495,#210,.T.);
#599=EDGE_CURVE('',#494,#489,#211,.T.);
#600=EDGE_CURVE('',#495,#488,#212,.T.);
#601=EDGE_CURVE('',#495,#492,#213,.T.);
#602=EDGE_CURVE('',#484,#496,#214,.T.);
#603=EDGE_CURVE('',#496,#494,#215,.T.);
#604=EDGE_CURVE('',#491,#497,#216,.T.);
#605=EDGE_CURVE('',#497,#498,#217,.T.);
#606=EDGE_CURVE('',#498,#499,#218,.T.);
#607=EDGE_CURVE('',#499,#500,#219,.T.);
#608=EDGE_CURVE('',#500,#501,#220,.T.);
#609=EDGE_CURVE('',#501,#502,#221,.T.);
#610=EDGE_CURVE('',#502,#503,#222,.T.);
#611=EDGE_CURVE('',#504,#503,#223,.T.);
#612=EDGE_CURVE('',#505,#504,#224,.T.);
#613=EDGE_CURVE('',#506,#505,#225,.T.);
#614=EDGE_CURVE('',#507,#506,#226,.T.);
#615=EDGE_CURVE('',#507,#496,#227,.T.);
#616=EDGE_CURVE('',#508,#508,#465,.T.);
#617=EDGE_CURVE('',#509,#509,#466,.T.);
#618=EDGE_CURVE('',#509,#508,#228,.T.);
#619=EDGE_CURVE('',#510,#503,#229,.T.);
#620=EDGE_CURVE('',#511,#510,#230,.T.);
#621=EDGE_CURVE('',#504,#511,#231,.T.);
#622=EDGE_CURVE('',#512,#511,#232,.T.);
#623=EDGE_CURVE('',#505,#512,#233,.T.);
#624=EDGE_CURVE('',#513,#512,#234,.T.);
#625=EDGE_CURVE('',#506,#513,#235,.T.);
#626=EDGE_CURVE('',#514,#513,#236,.T.);
#627=EDGE_CURVE('',#507,#514,#237,.T.);
#628=EDGE_CURVE('',#515,#516,#238,.T.);
#629=EDGE_CURVE('',#514,#515,#239,.T.);
#630=EDGE_CURVE('',#516,#510,#240,.T.);
#631=EDGE_CURVE('',#517,#518,#241,.T.);
#632=EDGE_CURVE('',#518,#519,#242,.T.);
#633=EDGE_CURVE('',#519,#520,#243,.T.);
#634=EDGE_CURVE('',#517,#520,#244,.T.);
#635=EDGE_CURVE('',#521,#522,#245,.T.);
#636=EDGE_CURVE('',#521,#498,#246,.T.);
#637=EDGE_CURVE('',#523,#497,#247,.T.);
#638=EDGE_CURVE('',#522,#523,#248,.T.);
#639=EDGE_CURVE('',#524,#523,#249,.T.);
#640=EDGE_CURVE('',#524,#486,#250,.T.);
#641=EDGE_CURVE('',#525,#485,#251,.T.);
#642=EDGE_CURVE('',#525,#524,#252,.T.);
#643=EDGE_CURVE('',#519,#510,#253,.T.);
#644=EDGE_CURVE('',#518,#516,#254,.T.);
#645=EDGE_CURVE('',#520,#502,#255,.T.);
#646=EDGE_CURVE('',#517,#526,#256,.T.);
#647=EDGE_CURVE('',#526,#501,#257,.T.);
#648=EDGE_CURVE('',#526,#527,#258,.T.);
#649=EDGE_CURVE('',#527,#500,#259,.T.);
#650=EDGE_CURVE('',#527,#528,#260,.T.);
#651=EDGE_CURVE('',#528,#499,#261,.T.);
#652=EDGE_CURVE('',#528,#521,#262,.T.);
#653=EDGE_CURVE('',#525,#522,#263,.T.);
#654=EDGE_CURVE('',#529,#530,#264,.T.);
#655=EDGE_CURVE('',#530,#531,#265,.T.);
#656=EDGE_CURVE('',#531,#532,#266,.T.);
#657=EDGE_CURVE('',#529,#532,#267,.T.);
#658=EDGE_CURVE('',#533,#534,#268,.T.);
#659=EDGE_CURVE('',#533,#535,#269,.T.);
#660=EDGE_CURVE('',#536,#535,#270,.T.);
#661=EDGE_CURVE('',#534,#536,#271,.T.);
#662=EDGE_CURVE('',#534,#537,#272,.T.);
#663=EDGE_CURVE('',#538,#536,#273,.T.);
#664=EDGE_CURVE('',#539,#538,#274,.T.);
#665=EDGE_CURVE('',#537,#539,#275,.T.);
#666=EDGE_CURVE('',#540,#539,#276,.T.);
#667=EDGE_CURVE('',#541,#538,#277,.T.);
#668=EDGE_CURVE('',#540,#541,#278,.T.);
#669=EDGE_CURVE('',#542,#540,#279,.T.);
#670=EDGE_CURVE('',#543,#541,#280,.T.);
#671=EDGE_CURVE('',#542,#543,#281,.T.);
#672=EDGE_CURVE('',#530,#544,#282,.T.);
#673=EDGE_CURVE('',#545,#544,#283,.T.);
#674=EDGE_CURVE('',#531,#545,#284,.T.);
#675=EDGE_CURVE('',#546,#545,#285,.T.);
#676=EDGE_CURVE('',#532,#546,#286,.T.);
#677=EDGE_CURVE('',#529,#547,#287,.T.);
#678=EDGE_CURVE('',#548,#546,#288,.T.);
#679=EDGE_CURVE('',#547,#548,#289,.T.);
#680=EDGE_CURVE('',#547,#549,#290,.T.);
#681=EDGE_CURVE('',#550,#548,#291,.T.);
#682=EDGE_CURVE('',#549,#550,#292,.T.);
#683=EDGE_CURVE('',#549,#533,#293,.T.);
#684=EDGE_CURVE('',#535,#550,#294,.T.);
#685=EDGE_CURVE('',#542,#537,#295,.T.);
#686=EDGE_CURVE('',#544,#551,#296,.T.);
#687=EDGE_CURVE('',#551,#552,#297,.T.);
#688=EDGE_CURVE('',#552,#543,#298,.T.);
#689=EDGE_CURVE('',#553,#554,#299,.T.);
#690=EDGE_CURVE('',#554,#555,#300,.T.);
#691=EDGE_CURVE('',#556,#555,#301,.T.);
#692=EDGE_CURVE('',#553,#556,#302,.T.);
#693=EDGE_CURVE('',#557,#553,#467,.T.);
#694=EDGE_CURVE('',#558,#556,#468,.T.);
#695=EDGE_CURVE('',#557,#558,#303,.T.);
#696=EDGE_CURVE('',#559,#557,#304,.T.);
#697=EDGE_CURVE('',#560,#558,#305,.T.);
#698=EDGE_CURVE('',#559,#560,#306,.T.);
#699=EDGE_CURVE('',#561,#559,#469,.T.);
#700=EDGE_CURVE('',#562,#560,#470,.T.);
#701=EDGE_CURVE('',#561,#562,#307,.T.);
#702=EDGE_CURVE('',#563,#561,#308,.T.);
#703=EDGE_CURVE('',#564,#562,#309,.T.);
#704=EDGE_CURVE('',#563,#564,#310,.T.);
#705=EDGE_CURVE('',#565,#563,#471,.T.);
#706=EDGE_CURVE('',#566,#564,#472,.T.);
#707=EDGE_CURVE('',#565,#566,#311,.T.);
#708=EDGE_CURVE('',#567,#565,#312,.T.);
#709=EDGE_CURVE('',#568,#566,#313,.T.);
#710=EDGE_CURVE('',#567,#568,#314,.T.);
#711=EDGE_CURVE('',#554,#567,#473,.T.);
#712=EDGE_CURVE('',#555,#568,#474,.T.);
#713=EDGE_CURVE('',#569,#483,#315,.T.);
#714=EDGE_CURVE('',#570,#569,#316,.T.);
#715=EDGE_CURVE('',#551,#570,#317,.T.);
#716=EDGE_CURVE('',#522,#529,#318,.T.);
#717=EDGE_CURVE('',#571,#570,#319,.T.);
#718=EDGE_CURVE('',#552,#571,#320,.T.);
#719=EDGE_CURVE('',#537,#517,#321,.T.);
#720=EDGE_CURVE('',#572,#571,#322,.T.);
#721=EDGE_CURVE('',#515,#572,#323,.T.);
#722=EDGE_CURVE('',#569,#572,#324,.T.);
#723=ORIENTED_EDGE('',*,*,#573,.F.);
#724=ORIENTED_EDGE('',*,*,#574,.T.);
#725=ORIENTED_EDGE('',*,*,#575,.F.);
#726=ORIENTED_EDGE('',*,*,#574,.F.);
#727=ORIENTED_EDGE('',*,*,#576,.F.);
#728=ORIENTED_EDGE('',*,*,#577,.T.);
#729=ORIENTED_EDGE('',*,*,#578,.F.);
#730=ORIENTED_EDGE('',*,*,#577,.F.);
#731=ORIENTED_EDGE('',*,*,#579,.F.);
#732=ORIENTED_EDGE('',*,*,#580,.T.);
#733=ORIENTED_EDGE('',*,*,#581,.F.);
#734=ORIENTED_EDGE('',*,*,#580,.F.);
#735=ORIENTED_EDGE('',*,*,#582,.F.);
#736=ORIENTED_EDGE('',*,*,#583,.T.);
#737=ORIENTED_EDGE('',*,*,#584,.F.);
#738=ORIENTED_EDGE('',*,*,#583,.F.);
#739=ORIENTED_EDGE('',*,*,#585,.F.);
#740=ORIENTED_EDGE('',*,*,#586,.F.);
#741=ORIENTED_EDGE('',*,*,#587,.F.);
#742=ORIENTED_EDGE('',*,*,#588,.T.);
#743=ORIENTED_EDGE('',*,*,#589,.T.);
#744=ORIENTED_EDGE('',*,*,#590,.T.);
#745=ORIENTED_EDGE('',*,*,#591,.T.);
#746=ORIENTED_EDGE('',*,*,#592,.T.);
#747=ORIENTED_EDGE('',*,*,#593,.T.);
#748=ORIENTED_EDGE('',*,*,#594,.F.);
#749=ORIENTED_EDGE('',*,*,#595,.T.);
#750=ORIENTED_EDGE('',*,*,#588,.F.);
#751=ORIENTED_EDGE('',*,*,#592,.F.);
#752=ORIENTED_EDGE('',*,*,#596,.T.);
#753=ORIENTED_EDGE('',*,*,#597,.F.);
#754=ORIENTED_EDGE('',*,*,#596,.F.);
#755=ORIENTED_EDGE('',*,*,#598,.F.);
#756=ORIENTED_EDGE('',*,*,#599,.T.);
#757=ORIENTED_EDGE('',*,*,#590,.F.);
#758=ORIENTED_EDGE('',*,*,#600,.F.);
#759=ORIENTED_EDGE('',*,*,#601,.F.);
#760=ORIENTED_EDGE('',*,*,#600,.T.);
#761=ORIENTED_EDGE('',*,*,#589,.F.);
#762=ORIENTED_EDGE('',*,*,#595,.F.);
#763=ORIENTED_EDGE('',*,*,#602,.F.);
#764=ORIENTED_EDGE('',*,*,#591,.F.);
#765=ORIENTED_EDGE('',*,*,#599,.F.);
#766=ORIENTED_EDGE('',*,*,#603,.F.);
#767=ORIENTED_EDGE('',*,*,#604,.T.);
#768=ORIENTED_EDGE('',*,*,#605,.T.);
#769=ORIENTED_EDGE('',*,*,#606,.T.);
#770=ORIENTED_EDGE('',*,*,#607,.T.);
#771=ORIENTED_EDGE('',*,*,#608,.T.);
#772=ORIENTED_EDGE('',*,*,#609,.T.);
#773=ORIENTED_EDGE('',*,*,#610,.T.);
#774=ORIENTED_EDGE('',*,*,#611,.F.);
#775=ORIENTED_EDGE('',*,*,#612,.F.);
#776=ORIENTED_EDGE('',*,*,#613,.F.);
#777=ORIENTED_EDGE('',*,*,#614,.F.);
#778=ORIENTED_EDGE('',*,*,#615,.T.);
#779=ORIENTED_EDGE('',*,*,#603,.T.);
#780=ORIENTED_EDGE('',*,*,#598,.T.);
#781=ORIENTED_EDGE('',*,*,#601,.T.);
#782=ORIENTED_EDGE('',*,*,#594,.T.);
#783=ORIENTED_EDGE('',*,*,#597,.T.);
#784=ORIENTED_EDGE('',*,*,#616,.T.);
#785=ORIENTED_EDGE('',*,*,#617,.F.);
#786=ORIENTED_EDGE('',*,*,#618,.T.);
#787=ORIENTED_EDGE('',*,*,#616,.F.);
#788=ORIENTED_EDGE('',*,*,#618,.F.);
#789=ORIENTED_EDGE('',*,*,#619,.F.);
#790=ORIENTED_EDGE('',*,*,#620,.F.);
#791=ORIENTED_EDGE('',*,*,#621,.F.);
#792=ORIENTED_EDGE('',*,*,#611,.T.);
#793=ORIENTED_EDGE('',*,*,#612,.T.);
#794=ORIENTED_EDGE('',*,*,#621,.T.);
#795=ORIENTED_EDGE('',*,*,#622,.F.);
#796=ORIENTED_EDGE('',*,*,#623,.F.);
#797=ORIENTED_EDGE('',*,*,#613,.T.);
#798=ORIENTED_EDGE('',*,*,#623,.T.);
#799=ORIENTED_EDGE('',*,*,#624,.F.);
#800=ORIENTED_EDGE('',*,*,#625,.F.);
#801=ORIENTED_EDGE('',*,*,#614,.T.);
#802=ORIENTED_EDGE('',*,*,#625,.T.);
#803=ORIENTED_EDGE('',*,*,#626,.F.);
#804=ORIENTED_EDGE('',*,*,#627,.F.);
#805=ORIENTED_EDGE('',*,*,#628,.F.);
#806=ORIENTED_EDGE('',*,*,#629,.F.);
#807=ORIENTED_EDGE('',*,*,#626,.T.);
#808=ORIENTED_EDGE('',*,*,#624,.T.);
#809=ORIENTED_EDGE('',*,*,#622,.T.);
#810=ORIENTED_EDGE('',*,*,#620,.T.);
#811=ORIENTED_EDGE('',*,*,#630,.F.);
#812=ORIENTED_EDGE('',*,*,#617,.T.);
#813=ORIENTED_EDGE('',*,*,#631,.T.);
#814=ORIENTED_EDGE('',*,*,#632,.T.);
#815=ORIENTED_EDGE('',*,*,#633,.T.);
#816=ORIENTED_EDGE('',*,*,#634,.F.);
#817=ORIENTED_EDGE('',*,*,#635,.F.);
#818=ORIENTED_EDGE('',*,*,#636,.T.);
#819=ORIENTED_EDGE('',*,*,#605,.F.);
#820=ORIENTED_EDGE('',*,*,#637,.F.);
#821=ORIENTED_EDGE('',*,*,#638,.F.);
#822=ORIENTED_EDGE('',*,*,#584,.T.);
#823=ORIENTED_EDGE('',*,*,#639,.T.);
#824=ORIENTED_EDGE('',*,*,#637,.T.);
#825=ORIENTED_EDGE('',*,*,#604,.F.);
#826=ORIENTED_EDGE('',*,*,#593,.F.);
#827=ORIENTED_EDGE('',*,*,#640,.F.);
#828=ORIENTED_EDGE('',*,*,#587,.T.);
#829=ORIENTED_EDGE('',*,*,#641,.F.);
#830=ORIENTED_EDGE('',*,*,#642,.T.);
#831=ORIENTED_EDGE('',*,*,#640,.T.);
#832=ORIENTED_EDGE('',*,*,#582,.T.);
#833=ORIENTED_EDGE('',*,*,#630,.T.);
#834=ORIENTED_EDGE('',*,*,#643,.F.);
#835=ORIENTED_EDGE('',*,*,#632,.F.);
#836=ORIENTED_EDGE('',*,*,#644,.T.);
#837=ORIENTED_EDGE('',*,*,#576,.T.);
#838=ORIENTED_EDGE('',*,*,#633,.F.);
#839=ORIENTED_EDGE('',*,*,#643,.T.);
#840=ORIENTED_EDGE('',*,*,#619,.T.);
#841=ORIENTED_EDGE('',*,*,#610,.F.);
#842=ORIENTED_EDGE('',*,*,#645,.F.);
#843=ORIENTED_EDGE('',*,*,#646,.F.);
#844=ORIENTED_EDGE('',*,*,#634,.T.);
#845=ORIENTED_EDGE('',*,*,#645,.T.);
#846=ORIENTED_EDGE('',*,*,#609,.F.);
#847=ORIENTED_EDGE('',*,*,#647,.F.);
#848=ORIENTED_EDGE('',*,*,#578,.T.);
#849=ORIENTED_EDGE('',*,*,#648,.F.);
#850=ORIENTED_EDGE('',*,*,#647,.T.);
#851=ORIENTED_EDGE('',*,*,#608,.F.);
#852=ORIENTED_EDGE('',*,*,#649,.F.);
#853=ORIENTED_EDGE('',*,*,#650,.F.);
#854=ORIENTED_EDGE('',*,*,#649,.T.);
#855=ORIENTED_EDGE('',*,*,#607,.F.);
#856=ORIENTED_EDGE('',*,*,#651,.F.);
#857=ORIENTED_EDGE('',*,*,#652,.F.);
#858=ORIENTED_EDGE('',*,*,#651,.T.);
#859=ORIENTED_EDGE('',*,*,#606,.F.);
#860=ORIENTED_EDGE('',*,*,#636,.F.);
#861=ORIENTED_EDGE('',*,*,#653,.T.);
#862=ORIENTED_EDGE('',*,*,#638,.T.);
#863=ORIENTED_EDGE('',*,*,#639,.F.);
#864=ORIENTED_EDGE('',*,*,#642,.F.);
#865=ORIENTED_EDGE('',*,*,#654,.T.);
#866=ORIENTED_EDGE('',*,*,#655,.T.);
#867=ORIENTED_EDGE('',*,*,#656,.T.);
#868=ORIENTED_EDGE('',*,*,#657,.F.);
#869=ORIENTED_EDGE('',*,*,#658,.F.);
#870=ORIENTED_EDGE('',*,*,#659,.T.);
#871=ORIENTED_EDGE('',*,*,#660,.F.);
#872=ORIENTED_EDGE('',*,*,#661,.F.);
#873=ORIENTED_EDGE('',*,*,#662,.F.);
#874=ORIENTED_EDGE('',*,*,#661,.T.);
#875=ORIENTED_EDGE('',*,*,#663,.F.);
#876=ORIENTED_EDGE('',*,*,#664,.F.);
#877=ORIENTED_EDGE('',*,*,#665,.F.);
#878=ORIENTED_EDGE('',*,*,#573,.T.);
#879=ORIENTED_EDGE('',*,*,#666,.T.);
#880=ORIENTED_EDGE('',*,*,#664,.T.);
#881=ORIENTED_EDGE('',*,*,#667,.F.);
#882=ORIENTED_EDGE('',*,*,#668,.F.);
#883=ORIENTED_EDGE('',*,*,#669,.T.);
#884=ORIENTED_EDGE('',*,*,#668,.T.);
#885=ORIENTED_EDGE('',*,*,#670,.F.);
#886=ORIENTED_EDGE('',*,*,#671,.F.);
#887=ORIENTED_EDGE('',*,*,#575,.T.);
#888=ORIENTED_EDGE('',*,*,#655,.F.);
#889=ORIENTED_EDGE('',*,*,#672,.T.);
#890=ORIENTED_EDGE('',*,*,#673,.F.);
#891=ORIENTED_EDGE('',*,*,#674,.F.);
#892=ORIENTED_EDGE('',*,*,#581,.T.);
#893=ORIENTED_EDGE('',*,*,#656,.F.);
#894=ORIENTED_EDGE('',*,*,#674,.T.);
#895=ORIENTED_EDGE('',*,*,#675,.F.);
#896=ORIENTED_EDGE('',*,*,#676,.F.);
#897=ORIENTED_EDGE('',*,*,#677,.F.);
#898=ORIENTED_EDGE('',*,*,#657,.T.);
#899=ORIENTED_EDGE('',*,*,#676,.T.);
#900=ORIENTED_EDGE('',*,*,#678,.F.);
#901=ORIENTED_EDGE('',*,*,#679,.F.);
#902=ORIENTED_EDGE('',*,*,#579,.T.);
#903=ORIENTED_EDGE('',*,*,#680,.F.);
#904=ORIENTED_EDGE('',*,*,#679,.T.);
#905=ORIENTED_EDGE('',*,*,#681,.F.);
#906=ORIENTED_EDGE('',*,*,#682,.F.);
#907=ORIENTED_EDGE('',*,*,#683,.F.);
#908=ORIENTED_EDGE('',*,*,#682,.T.);
#909=ORIENTED_EDGE('',*,*,#684,.F.);
#910=ORIENTED_EDGE('',*,*,#659,.F.);
#911=ORIENTED_EDGE('',*,*,#685,.T.);
#912=ORIENTED_EDGE('',*,*,#665,.T.);
#913=ORIENTED_EDGE('',*,*,#666,.F.);
#914=ORIENTED_EDGE('',*,*,#669,.F.);
#915=ORIENTED_EDGE('',*,*,#684,.T.);
#916=ORIENTED_EDGE('',*,*,#681,.T.);
#917=ORIENTED_EDGE('',*,*,#678,.T.);
#918=ORIENTED_EDGE('',*,*,#675,.T.);
#919=ORIENTED_EDGE('',*,*,#673,.T.);
#920=ORIENTED_EDGE('',*,*,#686,.T.);
#921=ORIENTED_EDGE('',*,*,#687,.T.);
#922=ORIENTED_EDGE('',*,*,#688,.T.);
#923=ORIENTED_EDGE('',*,*,#670,.T.);
#924=ORIENTED_EDGE('',*,*,#667,.T.);
#925=ORIENTED_EDGE('',*,*,#663,.T.);
#926=ORIENTED_EDGE('',*,*,#660,.T.);
#927=ORIENTED_EDGE('',*,*,#689,.T.);
#928=ORIENTED_EDGE('',*,*,#690,.T.);
#929=ORIENTED_EDGE('',*,*,#691,.F.);
#930=ORIENTED_EDGE('',*,*,#692,.F.);
#931=ORIENTED_EDGE('',*,*,#693,.T.);
#932=ORIENTED_EDGE('',*,*,#692,.T.);
#933=ORIENTED_EDGE('',*,*,#694,.F.);
#934=ORIENTED_EDGE('',*,*,#695,.F.);
#935=ORIENTED_EDGE('',*,*,#696,.T.);
#936=ORIENTED_EDGE('',*,*,#695,.T.);
#937=ORIENTED_EDGE('',*,*,#697,.F.);
#938=ORIENTED_EDGE('',*,*,#698,.F.);
#939=ORIENTED_EDGE('',*,*,#699,.T.);
#940=ORIENTED_EDGE('',*,*,#698,.T.);
#941=ORIENTED_EDGE('',*,*,#700,.F.);
#942=ORIENTED_EDGE('',*,*,#701,.F.);
#943=ORIENTED_EDGE('',*,*,#702,.T.);
#944=ORIENTED_EDGE('',*,*,#701,.T.);
#945=ORIENTED_EDGE('',*,*,#703,.F.);
#946=ORIENTED_EDGE('',*,*,#704,.F.);
#947=ORIENTED_EDGE('',*,*,#705,.T.);
#948=ORIENTED_EDGE('',*,*,#704,.T.);
#949=ORIENTED_EDGE('',*,*,#706,.F.);
#950=ORIENTED_EDGE('',*,*,#707,.F.);
#951=ORIENTED_EDGE('',*,*,#708,.T.);
#952=ORIENTED_EDGE('',*,*,#707,.T.);
#953=ORIENTED_EDGE('',*,*,#709,.F.);
#954=ORIENTED_EDGE('',*,*,#710,.F.);
#955=ORIENTED_EDGE('',*,*,#711,.T.);
#956=ORIENTED_EDGE('',*,*,#710,.T.);
#957=ORIENTED_EDGE('',*,*,#712,.F.);
#958=ORIENTED_EDGE('',*,*,#690,.F.);
#959=ORIENTED_EDGE('',*,*,#586,.T.);
#960=ORIENTED_EDGE('',*,*,#713,.F.);
#961=ORIENTED_EDGE('',*,*,#714,.F.);
#962=ORIENTED_EDGE('',*,*,#715,.F.);
#963=ORIENTED_EDGE('',*,*,#686,.F.);
#964=ORIENTED_EDGE('',*,*,#672,.F.);
#965=ORIENTED_EDGE('',*,*,#654,.F.);
#966=ORIENTED_EDGE('',*,*,#716,.F.);
#967=ORIENTED_EDGE('',*,*,#653,.F.);
#968=ORIENTED_EDGE('',*,*,#641,.T.);
#969=ORIENTED_EDGE('',*,*,#715,.T.);
#970=ORIENTED_EDGE('',*,*,#717,.F.);
#971=ORIENTED_EDGE('',*,*,#718,.F.);
#972=ORIENTED_EDGE('',*,*,#687,.F.);
#973=ORIENTED_EDGE('',*,*,#628,.T.);
#974=ORIENTED_EDGE('',*,*,#644,.F.);
#975=ORIENTED_EDGE('',*,*,#631,.F.);
#976=ORIENTED_EDGE('',*,*,#719,.F.);
#977=ORIENTED_EDGE('',*,*,#685,.F.);
#978=ORIENTED_EDGE('',*,*,#671,.T.);
#979=ORIENTED_EDGE('',*,*,#688,.F.);
#980=ORIENTED_EDGE('',*,*,#718,.T.);
#981=ORIENTED_EDGE('',*,*,#720,.F.);
#982=ORIENTED_EDGE('',*,*,#721,.F.);
#983=ORIENTED_EDGE('',*,*,#602,.T.);
#984=ORIENTED_EDGE('',*,*,#615,.F.);
#985=ORIENTED_EDGE('',*,*,#627,.T.);
#986=ORIENTED_EDGE('',*,*,#629,.T.);
#987=ORIENTED_EDGE('',*,*,#721,.T.);
#988=ORIENTED_EDGE('',*,*,#722,.F.);
#989=ORIENTED_EDGE('',*,*,#713,.T.);
#990=ORIENTED_EDGE('',*,*,#585,.T.);
#991=ORIENTED_EDGE('',*,*,#722,.T.);
#992=ORIENTED_EDGE('',*,*,#720,.T.);
#993=ORIENTED_EDGE('',*,*,#717,.T.);
#994=ORIENTED_EDGE('',*,*,#714,.T.);
#995=ORIENTED_EDGE('',*,*,#712,.T.);
#996=ORIENTED_EDGE('',*,*,#709,.T.);
#997=ORIENTED_EDGE('',*,*,#706,.T.);
#998=ORIENTED_EDGE('',*,*,#703,.T.);
#999=ORIENTED_EDGE('',*,*,#700,.T.);
#1000=ORIENTED_EDGE('',*,*,#697,.T.);
#1001=ORIENTED_EDGE('',*,*,#694,.T.);
#1002=ORIENTED_EDGE('',*,*,#691,.T.);
#1003=ORIENTED_EDGE('',*,*,#635,.T.);
#1004=ORIENTED_EDGE('',*,*,#716,.T.);
#1005=ORIENTED_EDGE('',*,*,#677,.T.);
#1006=ORIENTED_EDGE('',*,*,#680,.T.);
#1007=ORIENTED_EDGE('',*,*,#683,.T.);
#1008=ORIENTED_EDGE('',*,*,#658,.T.);
#1009=ORIENTED_EDGE('',*,*,#662,.T.);
#1010=ORIENTED_EDGE('',*,*,#719,.T.);
#1011=ORIENTED_EDGE('',*,*,#646,.T.);
#1012=ORIENTED_EDGE('',*,*,#648,.T.);
#1013=ORIENTED_EDGE('',*,*,#650,.T.);
#1014=ORIENTED_EDGE('',*,*,#652,.T.);
#1015=ORIENTED_EDGE('',*,*,#711,.F.);
#1016=ORIENTED_EDGE('',*,*,#689,.F.);
#1017=ORIENTED_EDGE('',*,*,#693,.F.);
#1018=ORIENTED_EDGE('',*,*,#696,.F.);
#1019=ORIENTED_EDGE('',*,*,#699,.F.);
#1020=ORIENTED_EDGE('',*,*,#702,.F.);
#1021=ORIENTED_EDGE('',*,*,#705,.F.);
#1022=ORIENTED_EDGE('',*,*,#708,.F.);
#1023=CYLINDRICAL_SURFACE('',#1101,1.75);
#1024=CYLINDRICAL_SURFACE('',#1104,1.75);
#1025=CYLINDRICAL_SURFACE('',#1107,1.75);
#1026=CYLINDRICAL_SURFACE('',#1110,1.75);
#1027=CYLINDRICAL_SURFACE('',#1116,2.1);
#1028=CYLINDRICAL_SURFACE('',#1123,2.1);
#1029=CYLINDRICAL_SURFACE('',#1154,0.999999999999999);
#1030=CYLINDRICAL_SURFACE('',#1158,0.999999999999999);
#1031=CYLINDRICAL_SURFACE('',#1162,1.);
#1032=CYLINDRICAL_SURFACE('',#1166,1.);
#1033=ADVANCED_FACE('',(#73),#1023,.F.);
#1034=ADVANCED_FACE('',(#74),#1024,.F.);
#1035=ADVANCED_FACE('',(#75),#1025,.F.);
#1036=ADVANCED_FACE('',(#76),#1026,.F.);
#1037=ADVANCED_FACE('',(#77,#15),#29,.F.);
#1038=ADVANCED_FACE('',(#78),#30,.T.);
#1039=ADVANCED_FACE('',(#79),#1027,.F.);
#1040=ADVANCED_FACE('',(#80),#31,.T.);
#1041=ADVANCED_FACE('',(#81),#32,.T.);
#1042=ADVANCED_FACE('',(#82),#33,.T.);
#1043=ADVANCED_FACE('',(#83,#16,#17),#34,.T.);
#1044=ADVANCED_FACE('',(#84),#1028,.F.);
#1045=ADVANCED_FACE('',(#85),#35,.T.);
#1046=ADVANCED_FACE('',(#86),#36,.T.);
#1047=ADVANCED_FACE('',(#87),#37,.T.);
#1048=ADVANCED_FACE('',(#88),#38,.T.);
#1049=ADVANCED_FACE('',(#89,#18),#39,.F.);
#1050=ADVANCED_FACE('',(#90),#40,.T.);
#1051=ADVANCED_FACE('',(#91,#19),#41,.T.);
#1052=ADVANCED_FACE('',(#92),#42,.T.);
#1053=ADVANCED_FACE('',(#93,#20),#43,.T.);
#1054=ADVANCED_FACE('',(#94,#21),#44,.T.);
#1055=ADVANCED_FACE('',(#95),#45,.T.);
#1056=ADVANCED_FACE('',(#96,#22),#46,.T.);
#1057=ADVANCED_FACE('',(#97),#47,.T.);
#1058=ADVANCED_FACE('',(#98),#48,.T.);
#1059=ADVANCED_FACE('',(#99),#49,.T.);
#1060=ADVANCED_FACE('',(#100),#50,.T.);
#1061=ADVANCED_FACE('',(#101),#51,.T.);
#1062=ADVANCED_FACE('',(#102),#52,.T.);
#1063=ADVANCED_FACE('',(#103,#23),#53,.T.);
#1064=ADVANCED_FACE('',(#104),#54,.T.);
#1065=ADVANCED_FACE('',(#105,#24),#55,.T.);
#1066=ADVANCED_FACE('',(#106,#25),#56,.T.);
#1067=ADVANCED_FACE('',(#107),#57,.T.);
#1068=ADVANCED_FACE('',(#108,#26),#58,.T.);
#1069=ADVANCED_FACE('',(#109),#59,.T.);
#1070=ADVANCED_FACE('',(#110),#60,.T.);
#1071=ADVANCED_FACE('',(#111),#61,.T.);
#1072=ADVANCED_FACE('',(#112),#62,.T.);
#1073=ADVANCED_FACE('',(#113),#63,.T.);
#1074=ADVANCED_FACE('',(#114),#1029,.F.);
#1075=ADVANCED_FACE('',(#115),#64,.T.);
#1076=ADVANCED_FACE('',(#116),#1030,.F.);
#1077=ADVANCED_FACE('',(#117),#65,.T.);
#1078=ADVANCED_FACE('',(#118),#1031,.F.);
#1079=ADVANCED_FACE('',(#119),#66,.T.);
#1080=ADVANCED_FACE('',(#120),#1032,.F.);
#1081=ADVANCED_FACE('',(#121),#67,.T.);
#1082=ADVANCED_FACE('',(#122),#68,.T.);
#1083=ADVANCED_FACE('',(#123),#69,.T.);
#1084=ADVANCED_FACE('',(#124),#70,.T.);
#1085=ADVANCED_FACE('',(#125,#27),#71,.T.);
#1086=ADVANCED_FACE('',(#126,#28),#72,.F.);
#1087=CLOSED_SHELL('',(#1033,#1034,#1035,#1036,#1037,#1038,#1039,#1040,
#1041,#1042,#1043,#1044,#1045,#1046,#1047,#1048,#1049,#1050,#1051,#1052,
#1053,#1054,#1055,#1056,#1057,#1058,#1059,#1060,#1061,#1062,#1063,#1064,
#1065,#1066,#1067,#1068,#1069,#1070,#1071,#1072,#1073,#1074,#1075,#1076,
#1077,#1078,#1079,#1080,#1081,#1082,#1083,#1084,#1085,#1086));
#1088=DERIVED_UNIT_ELEMENT(#1090,1.);
#1089=DERIVED_UNIT_ELEMENT(#1763,-3.);
#1090=(
MASS_UNIT()
NAMED_UNIT(*)
SI_UNIT(.KILO.,.GRAM.)
);
#1091=DERIVED_UNIT((#1088,#1089));
#1092=MEASURE_REPRESENTATION_ITEM('density measure',
POSITIVE_RATIO_MEASURE(7850.),#1091);
#1093=PROPERTY_DEFINITION_REPRESENTATION(#1098,#1095);
#1094=PROPERTY_DEFINITION_REPRESENTATION(#1099,#1096);
#1095=REPRESENTATION('material name',(#1097),#1760);
#1096=REPRESENTATION('density',(#1092),#1760);
#1097=DESCRIPTIVE_REPRESENTATION_ITEM('Steel','Steel');
#1098=PROPERTY_DEFINITION('material property','material name',#1770);
#1099=PROPERTY_DEFINITION('material property','density of part',#1770);
#1100=AXIS2_PLACEMENT_3D('',#1455,#1175,#1176);
#1101=AXIS2_PLACEMENT_3D('',#1456,#1177,#1178);
#1102=AXIS2_PLACEMENT_3D('',#1458,#1179,#1180);
#1103=AXIS2_PLACEMENT_3D('',#1461,#1182,#1183);
#1104=AXIS2_PLACEMENT_3D('',#1462,#1184,#1185);
#1105=AXIS2_PLACEMENT_3D('',#1464,#1186,#1187);
#1106=AXIS2_PLACEMENT_3D('',#1467,#1189,#1190);
#1107=AXIS2_PLACEMENT_3D('',#1468,#1191,#1192);
#1108=AXIS2_PLACEMENT_3D('',#1470,#1193,#1194);
#1109=AXIS2_PLACEMENT_3D('',#1473,#1196,#1197);
#1110=AXIS2_PLACEMENT_3D('',#1474,#1198,#1199);
#1111=AXIS2_PLACEMENT_3D('',#1476,#1200,#1201);
#1112=AXIS2_PLACEMENT_3D('',#1479,#1203,#1204);
#1113=AXIS2_PLACEMENT_3D('',#1480,#1205,#1206);
#1114=AXIS2_PLACEMENT_3D('',#1496,#1214,#1215);
#1115=AXIS2_PLACEMENT_3D('',#1497,#1216,#1217);
#1116=AXIS2_PLACEMENT_3D('',#1503,#1221,#1222);
#1117=AXIS2_PLACEMENT_3D('',#1506,#1224,#1225);
#1118=AXIS2_PLACEMENT_3D('',#1507,#1226,#1227);
#1119=AXIS2_PLACEMENT_3D('',#1513,#1231,#1232);
#1120=AXIS2_PLACEMENT_3D('',#1515,#1234,#1235);
#1121=AXIS2_PLACEMENT_3D('',#1519,#1238,#1239);
#1122=AXIS2_PLACEMENT_3D('',#1544,#1252,#1253);
#1123=AXIS2_PLACEMENT_3D('',#1545,#1254,#1255);
#1124=AXIS2_PLACEMENT_3D('',#1547,#1256,#1257);
#1125=AXIS2_PLACEMENT_3D('',#1549,#1259,#1260);
#1126=AXIS2_PLACEMENT_3D('',#1555,#1264,#1265);
#1127=AXIS2_PLACEMENT_3D('',#1559,#1268,#1269);
#1128=AXIS2_PLACEMENT_3D('',#1563,#1272,#1273);
#1129=AXIS2_PLACEMENT_3D('',#1567,#1276,#1277);
#1130=AXIS2_PLACEMENT_3D('',#1573,#1281,#1282);
#1131=AXIS2_PLACEMENT_3D('',#1582,#1287,#1288);
#1132=AXIS2_PLACEMENT_3D('',#1590,#1293,#1294);
#1133=AXIS2_PLACEMENT_3D('',#1594,#1297,#1298);
#1134=AXIS2_PLACEMENT_3D('',#1598,#1301,#1302);
#1135=AXIS2_PLACEMENT_3D('',#1601,#1305,#1306);
#1136=AXIS2_PLACEMENT_3D('',#1603,#1308,#1309);
#1137=AXIS2_PLACEMENT_3D('',#1607,#1312,#1313);
#1138=AXIS2_PLACEMENT_3D('',#1611,#1316,#1317);
#1139=AXIS2_PLACEMENT_3D('',#1615,#1320,#1321);
#1140=AXIS2_PLACEMENT_3D('',#1617,#1323,#1324);
#1141=AXIS2_PLACEMENT_3D('',#1619,#1326,#1327);
#1142=AXIS2_PLACEMENT_3D('',#1628,#1332,#1333);
#1143=AXIS2_PLACEMENT_3D('',#1637,#1338,#1339);
#1144=AXIS2_PLACEMENT_3D('',#1645,#1344,#1345);
#1145=AXIS2_PLACEMENT_3D('',#1651,#1349,#1350);
#1146=AXIS2_PLACEMENT_3D('',#1657,#1354,#1355);
#1147=AXIS2_PLACEMENT_3D('',#1663,#1359,#1360);
#1148=AXIS2_PLACEMENT_3D('',#1667,#1363,#1364);
#1149=AXIS2_PLACEMENT_3D('',#1673,#1368,#1369);
#1150=AXIS2_PLACEMENT_3D('',#1679,#1373,#1374);
#1151=AXIS2_PLACEMENT_3D('',#1682,#1377,#1378);
#1152=AXIS2_PLACEMENT_3D('',#1684,#1380,#1381);
#1153=AXIS2_PLACEMENT_3D('',#1690,#1385,#1386);
#1154=AXIS2_PLACEMENT_3D('',#1699,#1391,#1392);
#1155=AXIS2_PLACEMENT_3D('',#1701,#1393,#1394);
#1156=AXIS2_PLACEMENT_3D('',#1703,#1395,#1396);
#1157=AXIS2_PLACEMENT_3D('',#1705,#1398,#1399);
#1158=AXIS2_PLACEMENT_3D('',#1711,#1403,#1404);
#1159=AXIS2_PLACEMENT_3D('',#1713,#1405,#1406);
#1160=AXIS2_PLACEMENT_3D('',#1715,#1407,#1408);
#1161=AXIS2_PLACEMENT_3D('',#1717,#1410,#1411);
#1162=AXIS2_PLACEMENT_3D('',#1723,#1415,#1416);
#1163=AXIS2_PLACEMENT_3D('',#1725,#1417,#1418);
#1164=AXIS2_PLACEMENT_3D('',#1727,#1419,#1420);
#1165=AXIS2_PLACEMENT_3D('',#1729,#1422,#1423);
#1166=AXIS2_PLACEMENT_3D('',#1735,#1427,#1428);
#1167=AXIS2_PLACEMENT_3D('',#1736,#1429,#1430);
#1168=AXIS2_PLACEMENT_3D('',#1737,#1431,#1432);
#1169=AXIS2_PLACEMENT_3D('',#1738,#1433,#1434);
#1170=AXIS2_PLACEMENT_3D('',#1745,#1439,#1440);
#1171=AXIS2_PLACEMENT_3D('',#1749,#1443,#1444);
#1172=AXIS2_PLACEMENT_3D('',#1754,#1448,#1449);
#1173=AXIS2_PLACEMENT_3D('',#1756,#1451,#1452);
#1174=AXIS2_PLACEMENT_3D('',#1757,#1453,#1454);
#1175=DIRECTION('axis',(0.,0.,1.));
#1176=DIRECTION('refdir',(1.,0.,0.));
#1177=DIRECTION('center_axis',(-1.,4.88498130835069E-15,0.));
#1178=DIRECTION('ref_axis',(4.88498130835069E-15,1.,0.));
#1179=DIRECTION('center_axis',(-1.,-1.09039761347114E-16,0.));
#1180=DIRECTION('ref_axis',(4.88498130835069E-15,1.,0.));
#1181=DIRECTION('',(-1.,4.88498130835069E-15,0.));
#1182=DIRECTION('center_axis',(1.,1.09039761347114E-14,0.));
#1183=DIRECTION('ref_axis',(4.88498130835069E-15,1.,0.));
#1184=DIRECTION('center_axis',(-1.,4.88498130835069E-15,0.));
#1185=DIRECTION('ref_axis',(4.88498130835069E-15,1.,0.));
#1186=DIRECTION('center_axis',(-1.,-2.2997476938664E-14,0.));
#1187=DIRECTION('ref_axis',(4.88498130835069E-15,1.,0.));
#1188=DIRECTION('',(-1.,4.88498130835069E-15,0.));
#1189=DIRECTION('center_axis',(1.,5.07530525542933E-15,0.));
#1190=DIRECTION('ref_axis',(4.88498130835069E-15,1.,0.));
#1191=DIRECTION('center_axis',(-1.,4.88498130835069E-15,0.));
#1192=DIRECTION('ref_axis',(4.88498130835069E-15,1.,0.));
#1193=DIRECTION('center_axis',(-1.,-1.28865172501134E-16,0.));
#1194=DIRECTION('ref_axis',(4.88498130835069E-15,1.,0.));
#1195=DIRECTION('',(-1.,4.88498130835069E-15,0.));
#1196=DIRECTION('center_axis',(1.,-1.06660712008631E-14,0.));
#1197=DIRECTION('ref_axis',(4.88498130835069E-15,1.,0.));
#1198=DIRECTION('center_axis',(-1.,4.88498130835069E-15,0.));
#1199=DIRECTION('ref_axis',(4.88498130835069E-15,1.,0.));
#1200=DIRECTION('center_axis',(-1.,2.27595720048157E-14,0.));
#1201=DIRECTION('ref_axis',(4.88498130835069E-15,1.,0.));
#1202=DIRECTION('',(-1.,4.88498130835069E-15,0.));
#1203=DIRECTION('center_axis',(1.,-4.8572257327351E-15,0.));
#1204=DIRECTION('ref_axis',(4.88498130835069E-15,1.,0.));
#1205=DIRECTION('center_axis',(0.,0.,-1.));
#1206=DIRECTION('ref_axis',(1.,0.,0.));
#1207=DIRECTION('',(0.,1.,0.));
#1208=DIRECTION('',(1.,1.70803542250024E-16,0.));
#1209=DIRECTION('',(2.27595720048157E-14,1.,0.));
#1210=DIRECTION('',(1.00929365875014E-16,-1.,0.));
#1211=DIRECTION('',(1.,8.07438946146424E-16,0.));
#1212=DIRECTION('',(0.,1.,0.));
#1213=DIRECTION('',(-0.999995022352675,-0.00315519727966991,0.));
#1214=DIRECTION('center_axis',(0.,0.,-1.));
#1215=DIRECTION('ref_axis',(1.,0.,0.));
#1216=DIRECTION('center_axis',(-1.,-1.00929365875014E-16,0.));
#1217=DIRECTION('ref_axis',(1.00929365875014E-16,-1.,0.));
#1218=DIRECTION('',(0.,0.,-1.));
#1219=DIRECTION('',(-1.00929365875014E-16,1.,0.));
#1220=DIRECTION('',(0.,0.,1.));
#1221=DIRECTION('center_axis',(0.,0.,1.));
#1222=DIRECTION('ref_axis',(1.,0.,0.));
#1223=DIRECTION('',(0.,0.,-1.));
#1224=DIRECTION('center_axis',(0.,0.,1.));
#1225=DIRECTION('ref_axis',(1.,0.,0.));
#1226=DIRECTION('center_axis',(1.,0.,0.));
#1227=DIRECTION('ref_axis',(0.,1.,0.));
#1228=DIRECTION('',(0.,-1.,0.));
#1229=DIRECTION('',(0.,0.,1.));
#1230=DIRECTION('',(0.,0.,1.));
#1231=DIRECTION('center_axis',(8.07438946146424E-16,-1.,0.));
#1232=DIRECTION('ref_axis',(1.,8.07438946146424E-16,0.));
#1233=DIRECTION('',(-1.,-8.07438946146424E-16,0.));
#1234=DIRECTION('center_axis',(-0.00315519727966991,0.999995022352675,0.));
#1235=DIRECTION('ref_axis',(-0.999995022352675,-0.00315519727966991,0.));
#1236=DIRECTION('',(0.,0.,-1.));
#1237=DIRECTION('',(0.999995022352675,0.00315519727966991,0.));
#1238=DIRECTION('center_axis',(0.,0.,-1.));
#1239=DIRECTION('ref_axis',(-1.,0.,0.));
#1240=DIRECTION('',(-1.,3.9968028886509E-14,0.));
#1241=DIRECTION('',(4.8572257327351E-15,1.,0.));
#1242=DIRECTION('',(1.,0.,0.));
#1243=DIRECTION('',(0.,1.,0.));
#1244=DIRECTION('',(-1.,-2.46716227694479E-16,0.));
#1245=DIRECTION('',(-5.07530525542933E-15,1.,0.));
#1246=DIRECTION('',(1.,3.9968028886509E-14,0.));
#1247=DIRECTION('',(0.,-1.,0.));
#1248=DIRECTION('',(-1.,8.07446094460536E-16,0.));
#1249=DIRECTION('',(-2.00802635872326E-16,1.,0.));
#1250=DIRECTION('',(0.999986169404374,-0.00525937258300574,0.));
#1251=DIRECTION('',(0.,-1.,0.));
#1252=DIRECTION('center_axis',(0.,0.,1.));
#1253=DIRECTION('ref_axis',(1.,0.,0.));
#1254=DIRECTION('center_axis',(0.,0.,1.));
#1255=DIRECTION('ref_axis',(1.,0.,0.));
#1256=DIRECTION('center_axis',(0.,0.,-1.));
#1257=DIRECTION('ref_axis',(1.,0.,0.));
#1258=DIRECTION('',(0.,0.,-1.));
#1259=DIRECTION('center_axis',(-1.,0.,0.));
#1260=DIRECTION('ref_axis',(0.,-1.,0.));
#1261=DIRECTION('',(0.,0.,-1.));
#1262=DIRECTION('',(0.,-1.,0.));
#1263=DIRECTION('',(0.,0.,1.));
#1264=DIRECTION('center_axis',(8.07446094460536E-16,1.,0.));
#1265=DIRECTION('ref_axis',(-1.,8.07446094460536E-16,0.));
#1266=DIRECTION('',(-1.,8.07446094460536E-16,0.));
#1267=DIRECTION('',(0.,0.,1.));
#1268=DIRECTION('center_axis',(1.,2.00802635872326E-16,0.));
#1269=DIRECTION('ref_axis',(-2.00802635872326E-16,1.,0.));
#1270=DIRECTION('',(-2.00802635872326E-16,1.,0.));
#1271=DIRECTION('',(0.,0.,1.));
#1272=DIRECTION('center_axis',(-0.00525937258300574,-0.999986169404374,
0.));
#1273=DIRECTION('ref_axis',(0.999986169404374,-0.00525937258300574,0.));
#1274=DIRECTION('',(0.999986169404374,-0.00525937258300574,0.));
#1275=DIRECTION('',(0.,0.,1.));
#1276=DIRECTION('center_axis',(0.,0.,-1.));
#1277=DIRECTION('ref_axis',(1.,0.,0.));
#1278=DIRECTION('',(-1.,-1.70803542250024E-16,0.));
#1279=DIRECTION('',(0.,1.,0.));
#1280=DIRECTION('',(-2.29974769386639E-14,1.,0.));
#1281=DIRECTION('center_axis',(0.,0.,1.));
#1282=DIRECTION('ref_axis',(1.,0.,0.));
#1283=DIRECTION('',(1.,1.70803542250024E-16,0.));
#1284=DIRECTION('',(-2.29974769386639E-14,1.,0.));
#1285=DIRECTION('',(-1.,-3.9968028886509E-14,0.));
#1286=DIRECTION('',(-5.07530525542933E-15,1.,0.));
#1287=DIRECTION('center_axis',(-1.,4.8572257327351E-15,0.));
#1288=DIRECTION('ref_axis',(4.8572257327351E-15,1.,0.));
#1289=DIRECTION('',(-4.8572257327351E-15,-1.,0.));
#1290=DIRECTION('',(0.,0.,-1.));
#1291=DIRECTION('',(0.,0.,-1.));
#1292=DIRECTION('',(-4.8572257327351E-15,-1.,0.));
#1293=DIRECTION('center_axis',(-3.9968028886509E-14,-1.,0.));
#1294=DIRECTION('ref_axis',(-1.,3.9968028886509E-14,0.));
#1295=DIRECTION('',(-1.,3.9968028886509E-14,0.));
#1296=DIRECTION('',(0.,0.,-1.));
#1297=DIRECTION('center_axis',(1.,-2.27595720048157E-14,0.));
#1298=DIRECTION('ref_axis',(-2.27595720048157E-14,-1.,0.));
#1299=DIRECTION('',(0.,0.,-1.));
#1300=DIRECTION('',(-2.27595720048157E-14,-1.,0.));
#1301=DIRECTION('center_axis',(1.,2.2997476938664E-14,0.));
#1302=DIRECTION('ref_axis',(2.29974769386639E-14,-1.,0.));
#1303=DIRECTION('',(0.,0.,-1.));
#1304=DIRECTION('',(0.,0.,-1.));
#1305=DIRECTION('center_axis',(-3.9968028886509E-14,1.,0.));
#1306=DIRECTION('ref_axis',(1.,3.9968028886509E-14,0.));
#1307=DIRECTION('',(0.,0.,-1.));
#1308=DIRECTION('center_axis',(-1.,-5.07530525542933E-15,0.));
#1309=DIRECTION('ref_axis',(-5.07530525542933E-15,1.,0.));
#1310=DIRECTION('',(5.07530525542933E-15,-1.,0.));
#1311=DIRECTION('',(0.,0.,-1.));
#1312=DIRECTION('center_axis',(2.46716227694479E-16,-1.,0.));
#1313=DIRECTION('ref_axis',(-1.,-2.46716227694479E-16,0.));
#1314=DIRECTION('',(1.,2.46716227694479E-16,0.));
#1315=DIRECTION('',(0.,0.,-1.));
#1316=DIRECTION('center_axis',(-1.,0.,0.));
#1317=DIRECTION('ref_axis',(0.,1.,0.));
#1318=DIRECTION('',(0.,-1.,0.));
#1319=DIRECTION('',(0.,0.,-1.));
#1320=DIRECTION('center_axis',(0.,1.,0.));
#1321=DIRECTION('ref_axis',(1.,0.,0.));
#1322=DIRECTION('',(-1.,0.,0.));
#1323=DIRECTION('center_axis',(0.,0.,1.));
#1324=DIRECTION('ref_axis',(1.,0.,0.));
#1325=DIRECTION('',(-1.,-1.70803542250024E-16,0.));
#1326=DIRECTION('center_axis',(0.,0.,1.));
#1327=DIRECTION('ref_axis',(1.,0.,0.));
#1328=DIRECTION('',(-1.,-1.70803542250024E-16,0.));
#1329=DIRECTION('',(-1.06660712008631E-14,-1.,0.));
#1330=DIRECTION('',(1.,0.,0.));
#1331=DIRECTION('',(1.28865172501134E-16,-1.,0.));
#1332=DIRECTION('center_axis',(2.46716227694479E-16,-1.,0.));
#1333=DIRECTION('ref_axis',(-1.,-2.46716227694479E-16,0.));
#1334=DIRECTION('',(1.,2.46716227694479E-16,0.));
#1335=DIRECTION('',(0.,0.,-1.));
#1336=DIRECTION('',(-1.,-2.46716227694479E-16,0.));
#1337=DIRECTION('',(0.,0.,-1.));
#1338=DIRECTION('center_axis',(1.,1.09039761347114E-16,0.));
#1339=DIRECTION('ref_axis',(1.09039761347114E-16,-1.,0.));
#1340=DIRECTION('',(-1.09039761347114E-16,1.,0.));
#1341=DIRECTION('',(1.09039761347114E-16,-1.,0.));
#1342=DIRECTION('',(0.,0.,-1.));
#1343=DIRECTION('',(-1.09039761347114E-16,1.,0.));
#1344=DIRECTION('center_axis',(0.,1.,0.));
#1345=DIRECTION('ref_axis',(1.,0.,0.));
#1346=DIRECTION('',(1.,0.,0.));
#1347=DIRECTION('',(1.,0.,0.));
#1348=DIRECTION('',(0.,0.,-1.));
#1349=DIRECTION('center_axis',(-1.,-1.09039761347114E-14,0.));
#1350=DIRECTION('ref_axis',(-1.09039761347114E-14,1.,0.));
#1351=DIRECTION('',(-1.09039761347114E-14,1.,0.));
#1352=DIRECTION('',(-1.09039761347114E-14,1.,0.));
#1353=DIRECTION('',(0.,0.,-1.));
#1354=DIRECTION('center_axis',(-1.,1.06660712008631E-14,0.));
#1355=DIRECTION('ref_axis',(1.06660712008631E-14,1.,0.));
#1356=DIRECTION('',(0.,0.,-1.));
#1357=DIRECTION('',(1.06660712008631E-14,1.,0.));
#1358=DIRECTION('',(0.,0.,-1.));
#1359=DIRECTION('center_axis',(0.,-1.,0.));
#1360=DIRECTION('ref_axis',(-1.,0.,0.));
#1361=DIRECTION('',(-1.,0.,0.));
#1362=DIRECTION('',(0.,0.,-1.));
#1363=DIRECTION('center_axis',(1.,1.28865172501134E-16,0.));
#1364=DIRECTION('ref_axis',(1.28865172501134E-16,-1.,0.));
#1365=DIRECTION('',(-1.28865172501134E-16,1.,0.));
#1366=DIRECTION('',(1.28865172501134E-16,-1.,0.));
#1367=DIRECTION('',(0.,0.,-1.));
#1368=DIRECTION('center_axis',(0.,1.,0.));
#1369=DIRECTION('ref_axis',(1.,0.,0.));
#1370=DIRECTION('',(-1.,0.,0.));
#1371=DIRECTION('',(1.,0.,0.));
#1372=DIRECTION('',(0.,0.,-1.));
#1373=DIRECTION('center_axis',(1.,3.36431219583381E-17,0.));
#1374=DIRECTION('ref_axis',(3.36431219583381E-17,-1.,0.));
#1375=DIRECTION('',(-3.36431219583381E-17,1.,0.));
#1376=DIRECTION('',(3.36431219583381E-17,-1.,0.));
#1377=DIRECTION('center_axis',(0.,0.,1.));
#1378=DIRECTION('ref_axis',(1.,0.,0.));
#1379=DIRECTION('',(1.,1.70803542250024E-16,0.));
#1380=DIRECTION('center_axis',(0.,0.,-1.));
#1381=DIRECTION('ref_axis',(-1.,0.,0.));
#1382=DIRECTION('',(-1.,-1.70803542250024E-16,0.));
#1383=DIRECTION('',(-5.41572207134223E-17,1.,0.));
#1384=DIRECTION('',(1.,1.70803542250024E-16,0.));
#1385=DIRECTION('center_axis',(0.,1.,0.));
#1386=DIRECTION('ref_axis',(-1.,0.,0.));
#1387=DIRECTION('',(-1.,0.,0.));
#1388=DIRECTION('',(0.,0.,1.));
#1389=DIRECTION('',(-1.,0.,0.));
#1390=DIRECTION('',(0.,0.,1.));
#1391=DIRECTION('center_axis',(0.,0.,1.));
#1392=DIRECTION('ref_axis',(-1.11022302462516E-15,-1.,0.));
#1393=DIRECTION('center_axis',(0.,0.,-1.));
#1394=DIRECTION('ref_axis',(-1.11022302462516E-15,-1.,0.));
#1395=DIRECTION('center_axis',(0.,0.,-1.));
#1396=DIRECTION('ref_axis',(-1.11022302462516E-15,-1.,0.));
#1397=DIRECTION('',(0.,0.,1.));
#1398=DIRECTION('center_axis',(-1.,-5.55111512312578E-17,0.));
#1399=DIRECTION('ref_axis',(5.55111512312578E-17,-1.,0.));
#1400=DIRECTION('',(5.55111512312578E-17,-1.,0.));
#1401=DIRECTION('',(5.55111512312578E-17,-1.,0.));
#1402=DIRECTION('',(0.,0.,1.));
#1403=DIRECTION('center_axis',(0.,0.,1.));
#1404=DIRECTION('ref_axis',(1.,0.,0.));
#1405=DIRECTION('center_axis',(0.,0.,-1.));
#1406=DIRECTION('ref_axis',(1.,0.,0.));
#1407=DIRECTION('center_axis',(0.,0.,-1.));
#1408=DIRECTION('ref_axis',(1.,0.,0.));
#1409=DIRECTION('',(0.,0.,1.));
#1410=DIRECTION('center_axis',(0.,-1.,0.));
#1411=DIRECTION('ref_axis',(1.,0.,0.));
#1412=DIRECTION('',(1.,0.,0.));
#1413=DIRECTION('',(1.,0.,0.));
#1414=DIRECTION('',(0.,0.,1.));
#1415=DIRECTION('center_axis',(0.,0.,1.));
#1416=DIRECTION('ref_axis',(-5.55111512312578E-16,1.,0.));
#1417=DIRECTION('center_axis',(0.,0.,-1.));
#1418=DIRECTION('ref_axis',(-5.55111512312578E-16,1.,0.));
#1419=DIRECTION('center_axis',(0.,0.,-1.));
#1420=DIRECTION('ref_axis',(-5.55111512312578E-16,1.,0.));
#1421=DIRECTION('',(0.,0.,1.));
#1422=DIRECTION('center_axis',(1.,-5.55111512312578E-17,0.));
#1423=DIRECTION('ref_axis',(5.55111512312578E-17,1.,0.));
#1424=DIRECTION('',(5.55111512312578E-17,1.,0.));
#1425=DIRECTION('',(5.55111512312578E-17,1.,0.));
#1426=DIRECTION('',(0.,0.,1.));
#1427=DIRECTION('center_axis',(0.,0.,1.));
#1428=DIRECTION('ref_axis',(-1.,0.,0.));
#1429=DIRECTION('center_axis',(0.,0.,-1.));
#1430=DIRECTION('ref_axis',(-1.,0.,0.));
#1431=DIRECTION('center_axis',(0.,0.,-1.));
#1432=DIRECTION('ref_axis',(-1.,0.,0.));
#1433=DIRECTION('center_axis',(1.70803542250024E-16,-1.,0.));
#1434=DIRECTION('ref_axis',(1.,1.70803542250024E-16,0.));
#1435=DIRECTION('',(0.,0.,-1.));
#1436=DIRECTION('',(1.,1.70803542250024E-16,0.));
#1437=DIRECTION('',(0.,0.,1.));
#1438=DIRECTION('',(-1.,-1.70803542250024E-16,0.));
#1439=DIRECTION('center_axis',(-1.,-5.41572207134223E-17,0.));
#1440=DIRECTION('ref_axis',(5.41572207134223E-17,-1.,0.));
#1441=DIRECTION('',(5.41572207134223E-17,-1.,0.));
#1442=DIRECTION('',(0.,0.,1.));
#1443=DIRECTION('center_axis',(-1.70803542250024E-16,1.,0.));
#1444=DIRECTION('ref_axis',(-1.,-1.70803542250024E-16,0.));
#1445=DIRECTION('',(1.,1.70803542250024E-16,0.));
#1446=DIRECTION('',(-1.,-1.70803542250024E-16,0.));
#1447=DIRECTION('',(0.,0.,1.));
#1448=DIRECTION('center_axis',(1.,0.,0.));
#1449=DIRECTION('ref_axis',(0.,1.,0.));
#1450=DIRECTION('',(0.,1.,0.));
#1451=DIRECTION('center_axis',(0.,0.,1.));
#1452=DIRECTION('ref_axis',(1.,0.,0.));
#1453=DIRECTION('center_axis',(0.,0.,1.));
#1454=DIRECTION('ref_axis',(1.,0.,0.));
#1455=CARTESIAN_POINT('',(0.,0.,0.));
#1456=CARTESIAN_POINT('Origin',(0.999999999999975,12.75,-12.75));
#1457=CARTESIAN_POINT('',(-0.50000000000002,11.,-12.75));
#1458=CARTESIAN_POINT('Origin',(-0.500000000000012,12.75,-12.75));
#1459=CARTESIAN_POINT('',(-2.00000000000002,11.,-12.75));
#1460=CARTESIAN_POINT('',(0.999999999999966,11.,-12.75));
#1461=CARTESIAN_POINT('Origin',(-2.00000000000001,12.75,-12.75));
#1462=CARTESIAN_POINT('Origin',(0.999999999999975,12.75,-12.75));
#1463=CARTESIAN_POINT('',(2.49999999999982,11.,-12.75));
#1464=CARTESIAN_POINT('Origin',(2.49999999999983,12.75,-12.75));
#1465=CARTESIAN_POINT('',(1.00000000000001,11.,-12.75));
#1466=CARTESIAN_POINT('',(0.999999999999966,11.,-12.75));
#1467=CARTESIAN_POINT('Origin',(1.00000000000002,12.75,-12.75));
#1468=CARTESIAN_POINT('Origin',(0.999999999999979,-12.75,-12.75));
#1469=CARTESIAN_POINT('',(-0.500000000000027,-14.5,-12.75));
#1470=CARTESIAN_POINT('Origin',(-0.500000000000019,-12.75,-12.75));
#1471=CARTESIAN_POINT('',(-2.00000000000007,-14.5,-12.75));
#1472=CARTESIAN_POINT('',(0.99999999999997,-14.5,-12.75));
#1473=CARTESIAN_POINT('Origin',(-2.00000000000006,-12.75,-12.75));
#1474=CARTESIAN_POINT('Origin',(0.999999999999979,-12.75,-12.75));
#1475=CARTESIAN_POINT('',(2.49999999999994,-14.5,-12.75));
#1476=CARTESIAN_POINT('Origin',(2.49999999999994,-12.75,-12.75));
#1477=CARTESIAN_POINT('',(0.999999999999972,-14.5,-12.75));
#1478=CARTESIAN_POINT('',(0.99999999999997,-14.5,-12.75));
#1479=CARTESIAN_POINT('Origin',(0.99999999999998,-12.75,-12.75));
#1480=CARTESIAN_POINT('Origin',(5.24998631146981,-12.9913232074809,-18.5));
#1481=CARTESIAN_POINT('',(6.5,-10.25,-18.5));
#1482=CARTESIAN_POINT('',(6.5,-10.2373791480592,-18.5));
#1483=CARTESIAN_POINT('',(6.5,-11.6206616037405,-18.5));
#1484=CARTESIAN_POINT('',(2.49999999999996,-10.25,-18.5));
#1485=CARTESIAN_POINT('',(-0.625006844265093,-10.25,-18.5));
#1486=CARTESIAN_POINT('',(2.49999999999996,-15.25,-18.5));
#1487=CARTESIAN_POINT('',(2.49999999999993,-11.6206616037404,-18.5));
#1488=CARTESIAN_POINT('',(2.49999999999996,-15.75,-18.5));
#1489=CARTESIAN_POINT('',(2.49999999999996,-15.75,-18.5));
#1490=CARTESIAN_POINT('',(7.99997262293967,-15.75,-18.5));
#1491=CARTESIAN_POINT('',(7.99997262293967,-15.75,-18.5));
#1492=CARTESIAN_POINT('',(7.99997262293967,-10.2326464149618,-18.5));
#1493=CARTESIAN_POINT('',(7.99997262293967,-10.2326464149618,-18.5));
#1494=CARTESIAN_POINT('',(2.49999999999996,-10.25,-18.5));
#1495=CARTESIAN_POINT('',(3.14998631146985,-12.9999999999999,-18.5));
#1496=CARTESIAN_POINT('Origin',(5.24998631146985,-12.9999999999999,-18.5));
#1497=CARTESIAN_POINT('Origin',(2.49999999999996,-10.25,-25.5));
#1498=CARTESIAN_POINT('',(2.49999999999984,-15.25,-25.5));
#1499=CARTESIAN_POINT('',(2.49999999999984,-15.25,0.));
#1500=CARTESIAN_POINT('',(2.49999999999996,-15.75,-25.5));
#1501=CARTESIAN_POINT('',(2.49999999999996,-15.75,-25.5));
#1502=CARTESIAN_POINT('',(2.49999999999996,-15.75,-25.5));
#1503=CARTESIAN_POINT('Origin',(5.24998631146985,-12.9999999999999,-25.5));
#1504=CARTESIAN_POINT('',(3.14998631146985,-12.9999999999999,-25.5));
#1505=CARTESIAN_POINT('',(3.14998631146985,-12.9999999999999,-25.5));
#1506=CARTESIAN_POINT('Origin',(5.24998631146985,-12.9999999999999,-25.5));
#1507=CARTESIAN_POINT('Origin',(7.99997262293967,-15.75,-25.5));
#1508=CARTESIAN_POINT('',(7.99997262293967,-10.2326464149618,-25.5));
#1509=CARTESIAN_POINT('',(7.99997262293967,-15.75,-25.5));
#1510=CARTESIAN_POINT('',(7.99997262293967,-10.2326464149618,-25.5));
#1511=CARTESIAN_POINT('',(7.99997262293967,-10.2326464149618,-25.5));
#1512=CARTESIAN_POINT('',(7.99997262293967,-15.75,-25.5));
#1513=CARTESIAN_POINT('Origin',(2.49999999999996,-15.75,-25.5));
#1514=CARTESIAN_POINT('',(7.99997262293967,-15.75,-25.5));
#1515=CARTESIAN_POINT('Origin',(7.99997262293967,-10.2326464149618,-25.5));
#1516=CARTESIAN_POINT('',(6.5,-10.2373791480592,-25.5));
#1517=CARTESIAN_POINT('',(6.5,-10.2373791480592,-12.75));
#1518=CARTESIAN_POINT('',(2.49999999999996,-10.25,-25.5));
#1519=CARTESIAN_POINT('Origin',(3.74999999999998,0.,-25.5));
#1520=CARTESIAN_POINT('',(0.999999999999968,-15.2499999999999,-25.5));
#1521=CARTESIAN_POINT('',(2.49999999999984,-15.25,-25.5));
#1522=CARTESIAN_POINT('',(1.,-8.25,-25.5));
#1523=CARTESIAN_POINT('',(1.,-8.25,-25.5));
#1524=CARTESIAN_POINT('',(4.5,-8.25,-25.5));
#1525=CARTESIAN_POINT('',(-4.5,-8.25,-25.5));
#1526=CARTESIAN_POINT('',(4.5,8.25,-25.5));
#1527=CARTESIAN_POINT('',(4.5,8.25,-25.5));
#1528=CARTESIAN_POINT('',(1.,8.25,-25.5));
#1529=CARTESIAN_POINT('',(-4.5,8.25,-25.5));
#1530=CARTESIAN_POINT('',(0.999999999999964,15.2499999999999,-25.5));
#1531=CARTESIAN_POINT('',(1.,8.25,-25.5));
#1532=CARTESIAN_POINT('',(2.49999999999984,15.25,-25.5));
#1533=CARTESIAN_POINT('',(2.49999999999984,15.25,-25.5));
#1534=CARTESIAN_POINT('',(2.49999999999995,15.75,-25.5));
#1535=CARTESIAN_POINT('',(2.49999999999995,15.75,-25.5));
#1536=CARTESIAN_POINT('',(7.99992393172401,15.75,-25.5));
#1537=CARTESIAN_POINT('',(7.99992393172401,15.75,-25.5));
#1538=CARTESIAN_POINT('',(7.99992393172401,10.2210734507935,-25.5));
#1539=CARTESIAN_POINT('',(7.99992393172401,10.2210734507935,-25.5));
#1540=CARTESIAN_POINT('',(6.5,10.2289622187029,-25.5));
#1541=CARTESIAN_POINT('',(2.49999999999995,10.25,-25.5));
#1542=CARTESIAN_POINT('',(6.5,10.25,-25.5));
#1543=CARTESIAN_POINT('',(3.14996196586198,13.,-25.5));
#1544=CARTESIAN_POINT('Origin',(5.24996196586199,13.,-25.5));
#1545=CARTESIAN_POINT('Origin',(5.24996196586199,13.,-25.5));
#1546=CARTESIAN_POINT('',(3.14996196586198,13.,-18.5));
#1547=CARTESIAN_POINT('Origin',(5.24996196586199,13.,-18.5));
#1548=CARTESIAN_POINT('',(3.14996196586198,13.,-25.5));
#1549=CARTESIAN_POINT('Origin',(2.49999999999995,15.75,-25.5));
#1550=CARTESIAN_POINT('',(2.49999999999995,15.25,-18.5));
#1551=CARTESIAN_POINT('',(2.49999999999984,15.25,0.));
#1552=CARTESIAN_POINT('',(2.49999999999995,15.75,-18.5));
#1553=CARTESIAN_POINT('',(2.49999999999995,15.75,-18.5));
#1554=CARTESIAN_POINT('',(2.49999999999995,15.75,-25.5));
#1555=CARTESIAN_POINT('Origin',(7.99992393172401,15.75,-25.5));
#1556=CARTESIAN_POINT('',(7.99992393172401,15.75,-18.5));
#1557=CARTESIAN_POINT('',(7.99992393172401,15.75,-18.5));
#1558=CARTESIAN_POINT('',(7.99992393172401,15.75,-25.5));
#1559=CARTESIAN_POINT('Origin',(7.99992393172401,10.2210734507935,-25.5));
#1560=CARTESIAN_POINT('',(7.99992393172401,10.2210734507935,-18.5));
#1561=CARTESIAN_POINT('',(7.99992393172401,10.2210734507935,-18.5));
#1562=CARTESIAN_POINT('',(7.99992393172401,10.2210734507935,-25.5));
#1563=CARTESIAN_POINT('Origin',(6.5,10.2289622187029,-25.5));
#1564=CARTESIAN_POINT('',(6.5,10.2289622187029,-18.5));
#1565=CARTESIAN_POINT('',(2.49999999999995,10.25,-18.5));
#1566=CARTESIAN_POINT('',(6.5,10.2289622187029,-12.75));
#1567=CARTESIAN_POINT('Origin',(5.24996196586198,12.9855367253967,-18.5));
#1568=CARTESIAN_POINT('',(6.5,10.25,-18.5));
#1569=CARTESIAN_POINT('',(2.49999999999995,10.25,-18.5));
#1570=CARTESIAN_POINT('',(5.87498098293099,10.25,-18.5));
#1571=CARTESIAN_POINT('',(6.5,1.36776836269837,-18.5));
#1572=CARTESIAN_POINT('',(2.49999999999986,14.1177683626983,-18.5));
#1573=CARTESIAN_POINT('Origin',(3.74999999999998,0.,0.));
#1574=CARTESIAN_POINT('',(0.99999999999999,10.25,0.));
#1575=CARTESIAN_POINT('',(2.49999999999995,10.25,0.));
#1576=CARTESIAN_POINT('',(-6.5,10.25,0.));
#1577=CARTESIAN_POINT('',(2.49999999999984,15.25,0.));
#1578=CARTESIAN_POINT('',(2.5,8.25,0.));
#1579=CARTESIAN_POINT('',(0.999999999999964,15.2499999999999,0.));
#1580=CARTESIAN_POINT('',(2.49999999999984,15.25,0.));
#1581=CARTESIAN_POINT('',(1.,8.25,0.));
#1582=CARTESIAN_POINT('Origin',(0.999999999999968,-15.2499999999999,0.));
#1583=CARTESIAN_POINT('',(1.,-8.25,0.));
#1584=CARTESIAN_POINT('',(0.999999999999992,-10.25,0.));
#1585=CARTESIAN_POINT('',(1.00000000000001,-7.62499999999997,0.));
#1586=CARTESIAN_POINT('',(1.,-8.25,0.));
#1587=CARTESIAN_POINT('',(0.999999999999968,-15.2499999999999,0.));
#1588=CARTESIAN_POINT('',(0.999999999999968,-15.2499999999999,0.));
#1589=CARTESIAN_POINT('',(1.,-8.25,0.));
#1590=CARTESIAN_POINT('Origin',(2.49999999999984,-15.25,0.));
#1591=CARTESIAN_POINT('',(2.49999999999984,-15.25,0.));
#1592=CARTESIAN_POINT('',(2.49999999999984,-15.25,0.));
#1593=CARTESIAN_POINT('',(2.49999999999984,-15.25,0.));
#1594=CARTESIAN_POINT('Origin',(2.49999999999996,-10.25,0.));
#1595=CARTESIAN_POINT('',(2.49999999999996,-10.25,0.));
#1596=CARTESIAN_POINT('',(2.49999999999996,-10.25,0.));
#1597=CARTESIAN_POINT('',(2.5,-8.25,0.));
#1598=CARTESIAN_POINT('Origin',(2.49999999999984,15.25,0.));
#1599=CARTESIAN_POINT('',(2.49999999999984,15.25,0.));
#1600=CARTESIAN_POINT('',(2.49999999999995,10.25,0.));
#1601=CARTESIAN_POINT('Origin',(0.999999999999964,15.2499999999999,0.));
#1602=CARTESIAN_POINT('',(0.999999999999964,15.2499999999999,0.));
#1603=CARTESIAN_POINT('Origin',(1.,8.25,0.));
#1604=CARTESIAN_POINT('',(1.,8.25,0.));
#1605=CARTESIAN_POINT('',(1.00000000000002,4.125,0.));
#1606=CARTESIAN_POINT('',(1.,8.25,0.));
#1607=CARTESIAN_POINT('Origin',(4.5,8.25,0.));
#1608=CARTESIAN_POINT('',(4.5,8.25,0.));
#1609=CARTESIAN_POINT('',(2.25,8.25,0.));
#1610=CARTESIAN_POINT('',(4.5,8.25,0.));
#1611=CARTESIAN_POINT('Origin',(4.5,-8.25,0.));
#1612=CARTESIAN_POINT('',(4.5,-8.25,0.));
#1613=CARTESIAN_POINT('',(4.5,-4.125,0.));
#1614=CARTESIAN_POINT('',(4.5,-8.25,0.));
#1615=CARTESIAN_POINT('Origin',(1.,-8.25,0.));
#1616=CARTESIAN_POINT('',(0.500000000000001,-8.25,0.));
#1617=CARTESIAN_POINT('Origin',(3.74999999999998,0.,0.));
#1618=CARTESIAN_POINT('',(6.5,-10.25,0.));
#1619=CARTESIAN_POINT('Origin',(-3.5,0.,0.));
#1620=CARTESIAN_POINT('',(-0.499999999999997,-10.25,0.));
#1621=CARTESIAN_POINT('',(-2.00000000000002,-10.25,0.));
#1622=CARTESIAN_POINT('',(6.5,-10.25,0.));
#1623=CARTESIAN_POINT('',(-2.00000000000007,-15.25,0.));
#1624=CARTESIAN_POINT('',(-2.,-8.25,0.));
#1625=CARTESIAN_POINT('',(-0.499999999999996,-15.25,0.));
#1626=CARTESIAN_POINT('',(-2.00000000000007,-15.25,0.));
#1627=CARTESIAN_POINT('',(-0.499999999999997,-8.25,0.));
#1628=CARTESIAN_POINT('Origin',(-0.499999999999999,8.25,0.));
#1629=CARTESIAN_POINT('',(-4.5,8.25,0.));
#1630=CARTESIAN_POINT('',(-0.499999999999999,8.25,0.));
#1631=CARTESIAN_POINT('',(-0.25,8.25,0.));
#1632=CARTESIAN_POINT('',(-4.5,8.25,-25.5));
#1633=CARTESIAN_POINT('',(-4.5,8.25,0.));
#1634=CARTESIAN_POINT('',(-0.499999999999999,8.25,-25.5));
#1635=CARTESIAN_POINT('',(-4.5,8.25,-25.5));
#1636=CARTESIAN_POINT('',(-0.499999999999999,8.25,0.));
#1637=CARTESIAN_POINT('Origin',(-0.5,15.25,0.));
#1638=CARTESIAN_POINT('',(-0.499999999999999,10.25,0.));
#1639=CARTESIAN_POINT('',(-0.499999999999999,7.625,0.));
#1640=CARTESIAN_POINT('',(-0.499999999999999,15.25,-25.5));
#1641=CARTESIAN_POINT('',(-0.499999999999999,8.25,-25.5));
#1642=CARTESIAN_POINT('',(-0.5,15.25,0.));
#1643=CARTESIAN_POINT('',(-0.5,15.25,0.));
#1644=CARTESIAN_POINT('',(-0.499999999999999,8.25,0.));
#1645=CARTESIAN_POINT('Origin',(-2.00000000000008,15.25,0.));
#1646=CARTESIAN_POINT('',(-2.00000000000008,15.25,0.));
#1647=CARTESIAN_POINT('',(-2.00000000000008,15.25,0.));
#1648=CARTESIAN_POINT('',(-2.00000000000008,15.25,-25.5));
#1649=CARTESIAN_POINT('',(-2.00000000000008,15.25,-25.5));
#1650=CARTESIAN_POINT('',(-2.00000000000008,15.25,0.));
#1651=CARTESIAN_POINT('Origin',(-2.00000000000002,10.25,0.));
#1652=CARTESIAN_POINT('',(-2.00000000000002,10.25,0.));
#1653=CARTESIAN_POINT('',(-2.,8.25,0.));
#1654=CARTESIAN_POINT('',(-2.00000000000002,10.25,-25.5));
#1655=CARTESIAN_POINT('',(-2.,8.25,-25.5));
#1656=CARTESIAN_POINT('',(-2.00000000000002,10.25,0.));
#1657=CARTESIAN_POINT('Origin',(-2.00000000000007,-15.25,0.));
#1658=CARTESIAN_POINT('',(-2.00000000000002,-10.25,-25.5));
#1659=CARTESIAN_POINT('',(-2.00000000000002,-10.25,0.));
#1660=CARTESIAN_POINT('',(-2.00000000000007,-15.25,-25.5));
#1661=CARTESIAN_POINT('',(-2.,-8.25,-25.5));
#1662=CARTESIAN_POINT('',(-2.00000000000007,-15.25,0.));
#1663=CARTESIAN_POINT('Origin',(-0.499999999999996,-15.25,0.));
#1664=CARTESIAN_POINT('',(-0.499999999999996,-15.25,-25.5));
#1665=CARTESIAN_POINT('',(-2.00000000000007,-15.25,-25.5));
#1666=CARTESIAN_POINT('',(-0.499999999999996,-15.25,0.));
#1667=CARTESIAN_POINT('Origin',(-0.499999999999997,-8.25,0.));
#1668=CARTESIAN_POINT('',(-0.499999999999997,-8.25,0.));
#1669=CARTESIAN_POINT('',(-0.499999999999997,-4.125,0.));
#1670=CARTESIAN_POINT('',(-0.499999999999997,-8.25,-25.5));
#1671=CARTESIAN_POINT('',(-0.499999999999997,-8.25,-25.5));
#1672=CARTESIAN_POINT('',(-0.499999999999997,-8.25,0.));
#1673=CARTESIAN_POINT('Origin',(-4.5,-8.25,0.));
#1674=CARTESIAN_POINT('',(-4.5,-8.25,0.));
#1675=CARTESIAN_POINT('',(-2.25,-8.25,0.));
#1676=CARTESIAN_POINT('',(-4.5,-8.25,-25.5));
#1677=CARTESIAN_POINT('',(-4.5,-8.25,-25.5));
#1678=CARTESIAN_POINT('',(-4.5,-8.25,0.));
#1679=CARTESIAN_POINT('Origin',(-4.5,8.25,0.));
#1680=CARTESIAN_POINT('',(-4.5,4.125,0.));
#1681=CARTESIAN_POINT('',(-4.5,-8.25,-25.5));
#1682=CARTESIAN_POINT('Origin',(-3.5,0.,0.));
#1683=CARTESIAN_POINT('',(-6.5,10.25,0.));
#1684=CARTESIAN_POINT('Origin',(-3.5,0.,-25.5));
#1685=CARTESIAN_POINT('',(-6.5,-10.25,-25.5));
#1686=CARTESIAN_POINT('',(6.5,-10.25,-25.5));
#1687=CARTESIAN_POINT('',(-6.5,10.25,-25.5));
#1688=CARTESIAN_POINT('',(-6.5,-10.25,-25.5));
#1689=CARTESIAN_POINT('',(-6.5,10.25,-25.5));
#1690=CARTESIAN_POINT('Origin',(2.5,-6.,0.));
#1691=CARTESIAN_POINT('',(2.5,-6.,0.));
#1692=CARTESIAN_POINT('',(-2.5,-6.,0.));
#1693=CARTESIAN_POINT('',(2.5,-6.,0.));
#1694=CARTESIAN_POINT('',(-2.5,-6.,2.));
#1695=CARTESIAN_POINT('',(-2.5,-6.,0.));
#1696=CARTESIAN_POINT('',(2.5,-6.,2.));
#1697=CARTESIAN_POINT('',(2.5,-6.,2.));
#1698=CARTESIAN_POINT('',(2.5,-6.,0.));
#1699=CARTESIAN_POINT('Origin',(2.5,-5.,0.));
#1700=CARTESIAN_POINT('',(3.5,-5.,0.));
#1701=CARTESIAN_POINT('Origin',(2.5,-5.,0.));
#1702=CARTESIAN_POINT('',(3.5,-5.,2.));
#1703=CARTESIAN_POINT('Origin',(2.5,-5.,2.));
#1704=CARTESIAN_POINT('',(3.5,-5.,0.));
#1705=CARTESIAN_POINT('Origin',(3.5,5.,0.));
#1706=CARTESIAN_POINT('',(3.5,5.,0.));
#1707=CARTESIAN_POINT('',(3.5,5.,0.));
#1708=CARTESIAN_POINT('',(3.5,5.,2.));
#1709=CARTESIAN_POINT('',(3.5,5.,2.));
#1710=CARTESIAN_POINT('',(3.5,5.,0.));
#1711=CARTESIAN_POINT('Origin',(2.5,5.,0.));
#1712=CARTESIAN_POINT('',(2.5,6.,0.));
#1713=CARTESIAN_POINT('Origin',(2.5,5.,0.));
#1714=CARTESIAN_POINT('',(2.5,6.,2.));
#1715=CARTESIAN_POINT('Origin',(2.5,5.,2.));
#1716=CARTESIAN_POINT('',(2.5,6.,0.));
#1717=CARTESIAN_POINT('Origin',(-2.5,6.,0.));
#1718=CARTESIAN_POINT('',(-2.5,6.,0.));
#1719=CARTESIAN_POINT('',(-2.5,6.,0.));
#1720=CARTESIAN_POINT('',(-2.5,6.,2.));
#1721=CARTESIAN_POINT('',(-2.5,6.,2.));
#1722=CARTESIAN_POINT('',(-2.5,6.,0.));
#1723=CARTESIAN_POINT('Origin',(-2.5,5.,0.));
#1724=CARTESIAN_POINT('',(-3.5,5.,0.));
#1725=CARTESIAN_POINT('Origin',(-2.5,5.,0.));
#1726=CARTESIAN_POINT('',(-3.5,5.,2.));
#1727=CARTESIAN_POINT('Origin',(-2.5,5.,2.));
#1728=CARTESIAN_POINT('',(-3.5,5.,0.));
#1729=CARTESIAN_POINT('Origin',(-3.5,-5.,0.));
#1730=CARTESIAN_POINT('',(-3.5,-5.,0.));
#1731=CARTESIAN_POINT('',(-3.5,-5.,0.));
#1732=CARTESIAN_POINT('',(-3.5,-5.,2.));
#1733=CARTESIAN_POINT('',(-3.5,-5.,2.));
#1734=CARTESIAN_POINT('',(-3.5,-5.,0.));
#1735=CARTESIAN_POINT('Origin',(-2.5,-5.,0.));
#1736=CARTESIAN_POINT('Origin',(-2.5,-5.,0.));
#1737=CARTESIAN_POINT('Origin',(-2.5,-5.,2.));
#1738=CARTESIAN_POINT('Origin',(-6.5,-10.25,0.));
#1739=CARTESIAN_POINT('',(6.5,-10.25,2.));
#1740=CARTESIAN_POINT('',(6.5,-10.25,0.));
#1741=CARTESIAN_POINT('',(-6.5,-10.25,2.));
#1742=CARTESIAN_POINT('',(6.5,-10.25,2.));
#1743=CARTESIAN_POINT('',(-6.5,-10.25,0.));
#1744=CARTESIAN_POINT('',(6.5,-10.25,0.));
#1745=CARTESIAN_POINT('Origin',(-6.5,10.25,0.));
#1746=CARTESIAN_POINT('',(-6.5,10.25,2.));
#1747=CARTESIAN_POINT('',(-6.5,-10.25,2.));
#1748=CARTESIAN_POINT('',(-6.5,10.25,0.));
#1749=CARTESIAN_POINT('Origin',(6.5,10.25,0.));
#1750=CARTESIAN_POINT('',(-6.5,10.25,0.));
#1751=CARTESIAN_POINT('',(6.5,10.25,2.));
#1752=CARTESIAN_POINT('',(-6.5,10.25,2.));
#1753=CARTESIAN_POINT('',(6.5,10.25,0.));
#1754=CARTESIAN_POINT('Origin',(6.5,-10.25,0.));
#1755=CARTESIAN_POINT('',(6.5,10.25,2.));
#1756=CARTESIAN_POINT('Origin',(0.,0.,2.));
#1757=CARTESIAN_POINT('Origin',(0.,0.,0.));
#1758=UNCERTAINTY_MEASURE_WITH_UNIT(LENGTH_MEASURE(0.01),#1762,
'DISTANCE_ACCURACY_VALUE',
'Maximum model space distance between geometric entities at asserted c
onnectivities');
#1759=UNCERTAINTY_MEASURE_WITH_UNIT(LENGTH_MEASURE(0.01),#1762,
'DISTANCE_ACCURACY_VALUE',
'Maximum model space distance between geometric entities at asserted c
onnectivities');
#1760=(
GEOMETRIC_REPRESENTATION_CONTEXT(3)
GLOBAL_UNCERTAINTY_ASSIGNED_CONTEXT((#1758))
GLOBAL_UNIT_ASSIGNED_CONTEXT((#1762,#1764,#1765))
REPRESENTATION_CONTEXT('','3D')
);
#1761=(
GEOMETRIC_REPRESENTATION_CONTEXT(3)
GLOBAL_UNCERTAINTY_ASSIGNED_CONTEXT((#1759))
GLOBAL_UNIT_ASSIGNED_CONTEXT((#1762,#1764,#1765))
REPRESENTATION_CONTEXT('','3D')
);
#1762=(
LENGTH_UNIT()
NAMED_UNIT(*)
SI_UNIT(.MILLI.,.METRE.)
);
#1763=(
LENGTH_UNIT()
NAMED_UNIT(*)
SI_UNIT($,.METRE.)
);
#1764=(
NAMED_UNIT(*)
PLANE_ANGLE_UNIT()
SI_UNIT($,.RADIAN.)
);
#1765=(
NAMED_UNIT(*)
SI_UNIT($,.STERADIAN.)
SOLID_ANGLE_UNIT()
);
#1766=SHAPE_DEFINITION_REPRESENTATION(#1767,#1768);
#1767=PRODUCT_DEFINITION_SHAPE('',$,#1770);
#1768=SHAPE_REPRESENTATION('',(#1100),#1760);
#1769=PRODUCT_DEFINITION_CONTEXT('part definition',#1774,'design');
#1770=PRODUCT_DEFINITION('2026-07-15-17-48-09-956','RoverUSBHolder',#1771,
#1769);
#1771=PRODUCT_DEFINITION_FORMATION('',$,#1776);
#1772=PRODUCT_RELATED_PRODUCT_CATEGORY('RoverUSBHolder',
'RoverUSBHolder',(#1776));
#1773=APPLICATION_PROTOCOL_DEFINITION('international standard',
'automotive_design',2009,#1774);
#1774=APPLICATION_CONTEXT(
'Core Data for Automotive Mechanical Design Process');
#1775=PRODUCT_CONTEXT('part definition',#1774,'mechanical');
#1776=PRODUCT('2026-07-15-17-48-09-956','RoverUSBHolder',$,(#1775));
#1777=PRESENTATION_STYLE_ASSIGNMENT((#1778));
#1778=SURFACE_STYLE_USAGE(.BOTH.,#1779);
#1779=SURFACE_SIDE_STYLE('',(#1780));
#1780=SURFACE_STYLE_FILL_AREA(#1781);
#1781=FILL_AREA_STYLE('Steel - Satin',(#1782));
#1782=FILL_AREA_STYLE_COLOUR('Steel - Satin',#1783);
#1783=COLOUR_RGB('Steel - Satin',0.627450980392157,0.627450980392157,0.627450980392157);
ENDSEC;
END-ISO-10303-21;
