ISO-10303-21;
HEADER;
/* Generated by software containing ST-Developer
 * from STEP Tools, Inc. (www.steptools.com) 
 */

FILE_DESCRIPTION(
/* description */ (''),
/* implementation_level */ '2;1');

FILE_NAME(
/* name */ 'yaw-plate.step',
/* time_stamp */ '2026-07-29T22:56:13-04:00',
/* author */ (''),
/* organization */ (''),
/* preprocessor_version */ 'ST-DEVELOPER v20.1',
/* originating_system */ 'Autodesk Translation Framework v15.8.0.0',
/* authorisation */ '');

FILE_SCHEMA (('AUTOMOTIVE_DESIGN { 1 0 10303 214 3 1 1 }'));
ENDSEC;

DATA;
#10=MECHANICAL_DESIGN_GEOMETRIC_PRESENTATION_REPRESENTATION('',(#13),#648);
#11=SHAPE_REPRESENTATION_RELATIONSHIP('SRR','None',#655,#12);
#12=ADVANCED_BREP_SHAPE_REPRESENTATION('',(#14),#647);
#13=STYLED_ITEM('',(#664),#14);
#14=MANIFOLD_SOLID_BREP('Body1',#372);
#15=FACE_BOUND('',#77,.T.);
#16=FACE_BOUND('',#80,.T.);
#17=FACE_BOUND('',#81,.T.);
#18=FACE_BOUND('',#82,.T.);
#19=FACE_BOUND('',#83,.T.);
#20=FACE_BOUND('',#84,.T.);
#21=FACE_BOUND('',#85,.T.);
#22=FACE_BOUND('',#86,.T.);
#23=FACE_BOUND('',#87,.T.);
#24=FACE_BOUND('',#88,.T.);
#25=FACE_BOUND('',#89,.T.);
#26=FACE_BOUND('',#100,.T.);
#27=FACE_BOUND('',#101,.T.);
#28=FACE_BOUND('',#102,.T.);
#29=FACE_BOUND('',#103,.T.);
#30=FACE_BOUND('',#104,.T.);
#31=PLANE('',#389);
#32=PLANE('',#393);
#33=PLANE('',#397);
#34=PLANE('',#401);
#35=PLANE('',#405);
#36=PLANE('',#406);
#37=PLANE('',#411);
#38=PLANE('',#416);
#39=PLANE('',#417);
#40=PLANE('',#418);
#41=PLANE('',#419);
#42=PLANE('',#430);
#43=FACE_OUTER_BOUND('',#66,.T.);
#44=FACE_OUTER_BOUND('',#67,.T.);
#45=FACE_OUTER_BOUND('',#68,.T.);
#46=FACE_OUTER_BOUND('',#69,.T.);
#47=FACE_OUTER_BOUND('',#70,.T.);
#48=FACE_OUTER_BOUND('',#71,.T.);
#49=FACE_OUTER_BOUND('',#72,.T.);
#50=FACE_OUTER_BOUND('',#73,.T.);
#51=FACE_OUTER_BOUND('',#74,.T.);
#52=FACE_OUTER_BOUND('',#75,.T.);
#53=FACE_OUTER_BOUND('',#76,.T.);
#54=FACE_OUTER_BOUND('',#78,.T.);
#55=FACE_OUTER_BOUND('',#79,.T.);
#56=FACE_OUTER_BOUND('',#90,.T.);
#57=FACE_OUTER_BOUND('',#91,.T.);
#58=FACE_OUTER_BOUND('',#92,.T.);
#59=FACE_OUTER_BOUND('',#93,.T.);
#60=FACE_OUTER_BOUND('',#94,.T.);
#61=FACE_OUTER_BOUND('',#95,.T.);
#62=FACE_OUTER_BOUND('',#96,.T.);
#63=FACE_OUTER_BOUND('',#97,.T.);
#64=FACE_OUTER_BOUND('',#98,.T.);
#65=FACE_OUTER_BOUND('',#99,.T.);
#66=EDGE_LOOP('',(#248,#249,#250,#251));
#67=EDGE_LOOP('',(#252));
#68=EDGE_LOOP('',(#253,#254,#255,#256));
#69=EDGE_LOOP('',(#257));
#70=EDGE_LOOP('',(#258,#259,#260,#261));
#71=EDGE_LOOP('',(#262));
#72=EDGE_LOOP('',(#263,#264,#265,#266));
#73=EDGE_LOOP('',(#267));
#74=EDGE_LOOP('',(#268,#269,#270,#271));
#75=EDGE_LOOP('',(#272));
#76=EDGE_LOOP('',(#273));
#77=EDGE_LOOP('',(#274));
#78=EDGE_LOOP('',(#275,#276,#277,#278));
#79=EDGE_LOOP('',(#279));
#80=EDGE_LOOP('',(#280));
#81=EDGE_LOOP('',(#281));
#82=EDGE_LOOP('',(#282,#283,#284,#285));
#83=EDGE_LOOP('',(#286));
#84=EDGE_LOOP('',(#287));
#85=EDGE_LOOP('',(#288));
#86=EDGE_LOOP('',(#289));
#87=EDGE_LOOP('',(#290));
#88=EDGE_LOOP('',(#291));
#89=EDGE_LOOP('',(#292));
#90=EDGE_LOOP('',(#293,#294,#295,#296));
#91=EDGE_LOOP('',(#297,#298,#299,#300));
#92=EDGE_LOOP('',(#301,#302,#303,#304));
#93=EDGE_LOOP('',(#305,#306,#307,#308));
#94=EDGE_LOOP('',(#309,#310,#311,#312));
#95=EDGE_LOOP('',(#313,#314,#315,#316));
#96=EDGE_LOOP('',(#317,#318,#319,#320));
#97=EDGE_LOOP('',(#321,#322,#323,#324));
#98=EDGE_LOOP('',(#325,#326,#327,#328));
#99=EDGE_LOOP('',(#329));
#100=EDGE_LOOP('',(#330));
#101=EDGE_LOOP('',(#331));
#102=EDGE_LOOP('',(#332));
#103=EDGE_LOOP('',(#333));
#104=EDGE_LOOP('',(#334,#335,#336,#337));
#105=LINE('',#551,#128);
#106=LINE('',#558,#129);
#107=LINE('',#565,#130);
#108=LINE('',#572,#131);
#109=LINE('',#579,#132);
#110=LINE('',#590,#133);
#111=LINE('',#598,#134);
#112=LINE('',#600,#135);
#113=LINE('',#602,#136);
#114=LINE('',#603,#137);
#115=LINE('',#611,#138);
#116=LINE('',#612,#139);
#117=LINE('',#613,#140);
#118=LINE('',#616,#141);
#119=LINE('',#617,#142);
#120=LINE('',#620,#143);
#121=LINE('',#621,#144);
#122=LINE('',#623,#145);
#123=LINE('',#626,#146);
#124=LINE('',#630,#147);
#125=LINE('',#634,#148);
#126=LINE('',#638,#149);
#127=LINE('',#642,#150);
#128=VECTOR('',#437,2.1);
#129=VECTOR('',#446,2.1);
#130=VECTOR('',#455,2.1);
#131=VECTOR('',#464,2.1);
#132=VECTOR('',#473,2.1);
#133=VECTOR('',#488,61.45);
#134=VECTOR('',#495,10.);
#135=VECTOR('',#496,10.);
#136=VECTOR('',#497,10.);
#137=VECTOR('',#498,10.);
#138=VECTOR('',#505,10.);
#139=VECTOR('',#506,10.);
#140=VECTOR('',#507,10.);
#141=VECTOR('',#510,10.);
#142=VECTOR('',#511,10.);
#143=VECTOR('',#514,10.);
#144=VECTOR('',#515,10.);
#145=VECTOR('',#518,10.);
#146=VECTOR('',#521,1.8);
#147=VECTOR('',#526,1.8);
#148=VECTOR('',#531,1.8);
#149=VECTOR('',#536,1.8);
#150=VECTOR('',#541,58.95);
#151=CIRCLE('',#387,2.1);
#152=CIRCLE('',#388,2.1);
#153=CIRCLE('',#391,2.1);
#154=CIRCLE('',#392,2.1);
#155=CIRCLE('',#395,2.1);
#156=CIRCLE('',#396,2.1);
#157=CIRCLE('',#399,2.1);
#158=CIRCLE('',#400,2.1);
#159=CIRCLE('',#403,2.1);
#160=CIRCLE('',#404,2.1);
#161=CIRCLE('',#407,61.45);
#162=CIRCLE('',#408,58.95);
#163=CIRCLE('',#410,61.45);
#164=CIRCLE('',#412,1.8);
#165=CIRCLE('',#413,1.8);
#166=CIRCLE('',#414,1.8);
#167=CIRCLE('',#415,1.8);
#168=CIRCLE('',#421,1.8);
#169=CIRCLE('',#423,1.8);
#170=CIRCLE('',#425,1.8);
#171=CIRCLE('',#427,1.8);
#172=CIRCLE('',#429,58.95);
#173=VERTEX_POINT('',#548);
#174=VERTEX_POINT('',#550);
#175=VERTEX_POINT('',#555);
#176=VERTEX_POINT('',#557);
#177=VERTEX_POINT('',#562);
#178=VERTEX_POINT('',#564);
#179=VERTEX_POINT('',#569);
#180=VERTEX_POINT('',#571);
#181=VERTEX_POINT('',#576);
#182=VERTEX_POINT('',#578);
#183=VERTEX_POINT('',#583);
#184=VERTEX_POINT('',#585);
#185=VERTEX_POINT('',#588);
#186=VERTEX_POINT('',#592);
#187=VERTEX_POINT('',#594);
#188=VERTEX_POINT('',#596);
#189=VERTEX_POINT('',#597);
#190=VERTEX_POINT('',#599);
#191=VERTEX_POINT('',#601);
#192=VERTEX_POINT('',#604);
#193=VERTEX_POINT('',#606);
#194=VERTEX_POINT('',#609);
#195=VERTEX_POINT('',#610);
#196=VERTEX_POINT('',#615);
#197=VERTEX_POINT('',#619);
#198=VERTEX_POINT('',#625);
#199=VERTEX_POINT('',#629);
#200=VERTEX_POINT('',#633);
#201=VERTEX_POINT('',#637);
#202=VERTEX_POINT('',#641);
#203=EDGE_CURVE('',#173,#173,#151,.T.);
#204=EDGE_CURVE('',#173,#174,#105,.T.);
#205=EDGE_CURVE('',#174,#174,#152,.T.);
#206=EDGE_CURVE('',#175,#175,#153,.T.);
#207=EDGE_CURVE('',#175,#176,#106,.T.);
#208=EDGE_CURVE('',#176,#176,#154,.T.);
#209=EDGE_CURVE('',#177,#177,#155,.T.);
#210=EDGE_CURVE('',#177,#178,#107,.T.);
#211=EDGE_CURVE('',#178,#178,#156,.T.);
#212=EDGE_CURVE('',#179,#179,#157,.T.);
#213=EDGE_CURVE('',#179,#180,#108,.T.);
#214=EDGE_CURVE('',#180,#180,#158,.T.);
#215=EDGE_CURVE('',#181,#181,#159,.T.);
#216=EDGE_CURVE('',#181,#182,#109,.T.);
#217=EDGE_CURVE('',#182,#182,#160,.T.);
#218=EDGE_CURVE('',#183,#183,#161,.T.);
#219=EDGE_CURVE('',#184,#184,#162,.T.);
#220=EDGE_CURVE('',#185,#185,#163,.T.);
#221=EDGE_CURVE('',#185,#183,#110,.T.);
#222=EDGE_CURVE('',#186,#186,#164,.T.);
#223=EDGE_CURVE('',#187,#187,#165,.T.);
#224=EDGE_CURVE('',#188,#189,#111,.T.);
#225=EDGE_CURVE('',#189,#190,#112,.T.);
#226=EDGE_CURVE('',#190,#191,#113,.T.);
#227=EDGE_CURVE('',#191,#188,#114,.T.);
#228=EDGE_CURVE('',#192,#192,#166,.T.);
#229=EDGE_CURVE('',#193,#193,#167,.T.);
#230=EDGE_CURVE('',#194,#195,#115,.T.);
#231=EDGE_CURVE('',#195,#190,#116,.T.);
#232=EDGE_CURVE('',#194,#189,#117,.T.);
#233=EDGE_CURVE('',#196,#194,#118,.T.);
#234=EDGE_CURVE('',#196,#188,#119,.T.);
#235=EDGE_CURVE('',#197,#196,#120,.T.);
#236=EDGE_CURVE('',#197,#191,#121,.T.);
#237=EDGE_CURVE('',#195,#197,#122,.T.);
#238=EDGE_CURVE('',#192,#198,#123,.T.);
#239=EDGE_CURVE('',#198,#198,#168,.T.);
#240=EDGE_CURVE('',#193,#199,#124,.T.);
#241=EDGE_CURVE('',#199,#199,#169,.T.);
#242=EDGE_CURVE('',#187,#200,#125,.T.);
#243=EDGE_CURVE('',#200,#200,#170,.T.);
#244=EDGE_CURVE('',#186,#201,#126,.T.);
#245=EDGE_CURVE('',#201,#201,#171,.T.);
#246=EDGE_CURVE('',#184,#202,#127,.T.);
#247=EDGE_CURVE('',#202,#202,#172,.T.);
#248=ORIENTED_EDGE('',*,*,#203,.F.);
#249=ORIENTED_EDGE('',*,*,#204,.T.);
#250=ORIENTED_EDGE('',*,*,#205,.T.);
#251=ORIENTED_EDGE('',*,*,#204,.F.);
#252=ORIENTED_EDGE('',*,*,#205,.F.);
#253=ORIENTED_EDGE('',*,*,#206,.F.);
#254=ORIENTED_EDGE('',*,*,#207,.T.);
#255=ORIENTED_EDGE('',*,*,#208,.T.);
#256=ORIENTED_EDGE('',*,*,#207,.F.);
#257=ORIENTED_EDGE('',*,*,#208,.F.);
#258=ORIENTED_EDGE('',*,*,#209,.F.);
#259=ORIENTED_EDGE('',*,*,#210,.T.);
#260=ORIENTED_EDGE('',*,*,#211,.T.);
#261=ORIENTED_EDGE('',*,*,#210,.F.);
#262=ORIENTED_EDGE('',*,*,#211,.F.);
#263=ORIENTED_EDGE('',*,*,#212,.F.);
#264=ORIENTED_EDGE('',*,*,#213,.T.);
#265=ORIENTED_EDGE('',*,*,#214,.T.);
#266=ORIENTED_EDGE('',*,*,#213,.F.);
#267=ORIENTED_EDGE('',*,*,#214,.F.);
#268=ORIENTED_EDGE('',*,*,#215,.F.);
#269=ORIENTED_EDGE('',*,*,#216,.T.);
#270=ORIENTED_EDGE('',*,*,#217,.T.);
#271=ORIENTED_EDGE('',*,*,#216,.F.);
#272=ORIENTED_EDGE('',*,*,#217,.F.);
#273=ORIENTED_EDGE('',*,*,#218,.F.);
#274=ORIENTED_EDGE('',*,*,#219,.T.);
#275=ORIENTED_EDGE('',*,*,#220,.F.);
#276=ORIENTED_EDGE('',*,*,#221,.T.);
#277=ORIENTED_EDGE('',*,*,#218,.T.);
#278=ORIENTED_EDGE('',*,*,#221,.F.);
#279=ORIENTED_EDGE('',*,*,#220,.T.);
#280=ORIENTED_EDGE('',*,*,#222,.T.);
#281=ORIENTED_EDGE('',*,*,#223,.T.);
#282=ORIENTED_EDGE('',*,*,#224,.T.);
#283=ORIENTED_EDGE('',*,*,#225,.T.);
#284=ORIENTED_EDGE('',*,*,#226,.T.);
#285=ORIENTED_EDGE('',*,*,#227,.T.);
#286=ORIENTED_EDGE('',*,*,#228,.T.);
#287=ORIENTED_EDGE('',*,*,#229,.T.);
#288=ORIENTED_EDGE('',*,*,#215,.T.);
#289=ORIENTED_EDGE('',*,*,#212,.T.);
#290=ORIENTED_EDGE('',*,*,#209,.T.);
#291=ORIENTED_EDGE('',*,*,#206,.T.);
#292=ORIENTED_EDGE('',*,*,#203,.T.);
#293=ORIENTED_EDGE('',*,*,#230,.T.);
#294=ORIENTED_EDGE('',*,*,#231,.T.);
#295=ORIENTED_EDGE('',*,*,#225,.F.);
#296=ORIENTED_EDGE('',*,*,#232,.F.);
#297=ORIENTED_EDGE('',*,*,#233,.T.);
#298=ORIENTED_EDGE('',*,*,#232,.T.);
#299=ORIENTED_EDGE('',*,*,#224,.F.);
#300=ORIENTED_EDGE('',*,*,#234,.F.);
#301=ORIENTED_EDGE('',*,*,#235,.T.);
#302=ORIENTED_EDGE('',*,*,#234,.T.);
#303=ORIENTED_EDGE('',*,*,#227,.F.);
#304=ORIENTED_EDGE('',*,*,#236,.F.);
#305=ORIENTED_EDGE('',*,*,#237,.T.);
#306=ORIENTED_EDGE('',*,*,#236,.T.);
#307=ORIENTED_EDGE('',*,*,#226,.F.);
#308=ORIENTED_EDGE('',*,*,#231,.F.);
#309=ORIENTED_EDGE('',*,*,#228,.F.);
#310=ORIENTED_EDGE('',*,*,#238,.T.);
#311=ORIENTED_EDGE('',*,*,#239,.T.);
#312=ORIENTED_EDGE('',*,*,#238,.F.);
#313=ORIENTED_EDGE('',*,*,#229,.F.);
#314=ORIENTED_EDGE('',*,*,#240,.T.);
#315=ORIENTED_EDGE('',*,*,#241,.T.);
#316=ORIENTED_EDGE('',*,*,#240,.F.);
#317=ORIENTED_EDGE('',*,*,#223,.F.);
#318=ORIENTED_EDGE('',*,*,#242,.T.);
#319=ORIENTED_EDGE('',*,*,#243,.T.);
#320=ORIENTED_EDGE('',*,*,#242,.F.);
#321=ORIENTED_EDGE('',*,*,#222,.F.);
#322=ORIENTED_EDGE('',*,*,#244,.T.);
#323=ORIENTED_EDGE('',*,*,#245,.T.);
#324=ORIENTED_EDGE('',*,*,#244,.F.);
#325=ORIENTED_EDGE('',*,*,#219,.F.);
#326=ORIENTED_EDGE('',*,*,#246,.T.);
#327=ORIENTED_EDGE('',*,*,#247,.T.);
#328=ORIENTED_EDGE('',*,*,#246,.F.);
#329=ORIENTED_EDGE('',*,*,#247,.F.);
#330=ORIENTED_EDGE('',*,*,#245,.F.);
#331=ORIENTED_EDGE('',*,*,#243,.F.);
#332=ORIENTED_EDGE('',*,*,#241,.F.);
#333=ORIENTED_EDGE('',*,*,#239,.F.);
#334=ORIENTED_EDGE('',*,*,#237,.F.);
#335=ORIENTED_EDGE('',*,*,#230,.F.);
#336=ORIENTED_EDGE('',*,*,#233,.F.);
#337=ORIENTED_EDGE('',*,*,#235,.F.);
#338=CYLINDRICAL_SURFACE('',#386,2.1);
#339=CYLINDRICAL_SURFACE('',#390,2.1);
#340=CYLINDRICAL_SURFACE('',#394,2.1);
#341=CYLINDRICAL_SURFACE('',#398,2.1);
#342=CYLINDRICAL_SURFACE('',#402,2.1);
#343=CYLINDRICAL_SURFACE('',#409,61.45);
#344=CYLINDRICAL_SURFACE('',#420,1.8);
#345=CYLINDRICAL_SURFACE('',#422,1.8);
#346=CYLINDRICAL_SURFACE('',#424,1.8);
#347=CYLINDRICAL_SURFACE('',#426,1.8);
#348=CYLINDRICAL_SURFACE('',#428,58.95);
#349=ADVANCED_FACE('',(#43),#338,.F.);
#350=ADVANCED_FACE('',(#44),#31,.T.);
#351=ADVANCED_FACE('',(#45),#339,.F.);
#352=ADVANCED_FACE('',(#46),#32,.T.);
#353=ADVANCED_FACE('',(#47),#340,.F.);
#354=ADVANCED_FACE('',(#48),#33,.T.);
#355=ADVANCED_FACE('',(#49),#341,.F.);
#356=ADVANCED_FACE('',(#50),#34,.T.);
#357=ADVANCED_FACE('',(#51),#342,.F.);
#358=ADVANCED_FACE('',(#52),#35,.T.);
#359=ADVANCED_FACE('',(#53,#15),#36,.F.);
#360=ADVANCED_FACE('',(#54),#343,.T.);
#361=ADVANCED_FACE('',(#55,#16,#17,#18,#19,#20,#21,#22,#23,#24,#25),#37,
 .T.);
#362=ADVANCED_FACE('',(#56),#38,.T.);
#363=ADVANCED_FACE('',(#57),#39,.T.);
#364=ADVANCED_FACE('',(#58),#40,.T.);
#365=ADVANCED_FACE('',(#59),#41,.T.);
#366=ADVANCED_FACE('',(#60),#344,.F.);
#367=ADVANCED_FACE('',(#61),#345,.F.);
#368=ADVANCED_FACE('',(#62),#346,.F.);
#369=ADVANCED_FACE('',(#63),#347,.F.);
#370=ADVANCED_FACE('',(#64),#348,.T.);
#371=ADVANCED_FACE('',(#65,#26,#27,#28,#29,#30),#42,.F.);
#372=CLOSED_SHELL('',(#349,#350,#351,#352,#353,#354,#355,#356,#357,#358,
#359,#360,#361,#362,#363,#364,#365,#366,#367,#368,#369,#370,#371));
#373=DERIVED_UNIT_ELEMENT(#375,1.);
#374=DERIVED_UNIT_ELEMENT(#650,-3.);
#375=(
MASS_UNIT()
NAMED_UNIT(*)
SI_UNIT(.KILO.,.GRAM.)
);
#376=DERIVED_UNIT((#373,#374));
#377=MEASURE_REPRESENTATION_ITEM('density measure',
POSITIVE_RATIO_MEASURE(7850.),#376);
#378=PROPERTY_DEFINITION_REPRESENTATION(#383,#380);
#379=PROPERTY_DEFINITION_REPRESENTATION(#384,#381);
#380=REPRESENTATION('material name',(#382),#647);
#381=REPRESENTATION('density',(#377),#647);
#382=DESCRIPTIVE_REPRESENTATION_ITEM('Steel','Steel');
#383=PROPERTY_DEFINITION('material property','material name',#657);
#384=PROPERTY_DEFINITION('material property','density of part',#657);
#385=AXIS2_PLACEMENT_3D('',#546,#431,#432);
#386=AXIS2_PLACEMENT_3D('',#547,#433,#434);
#387=AXIS2_PLACEMENT_3D('',#549,#435,#436);
#388=AXIS2_PLACEMENT_3D('',#552,#438,#439);
#389=AXIS2_PLACEMENT_3D('',#553,#440,#441);
#390=AXIS2_PLACEMENT_3D('',#554,#442,#443);
#391=AXIS2_PLACEMENT_3D('',#556,#444,#445);
#392=AXIS2_PLACEMENT_3D('',#559,#447,#448);
#393=AXIS2_PLACEMENT_3D('',#560,#449,#450);
#394=AXIS2_PLACEMENT_3D('',#561,#451,#452);
#395=AXIS2_PLACEMENT_3D('',#563,#453,#454);
#396=AXIS2_PLACEMENT_3D('',#566,#456,#457);
#397=AXIS2_PLACEMENT_3D('',#567,#458,#459);
#398=AXIS2_PLACEMENT_3D('',#568,#460,#461);
#399=AXIS2_PLACEMENT_3D('',#570,#462,#463);
#400=AXIS2_PLACEMENT_3D('',#573,#465,#466);
#401=AXIS2_PLACEMENT_3D('',#574,#467,#468);
#402=AXIS2_PLACEMENT_3D('',#575,#469,#470);
#403=AXIS2_PLACEMENT_3D('',#577,#471,#472);
#404=AXIS2_PLACEMENT_3D('',#580,#474,#475);
#405=AXIS2_PLACEMENT_3D('',#581,#476,#477);
#406=AXIS2_PLACEMENT_3D('',#582,#478,#479);
#407=AXIS2_PLACEMENT_3D('',#584,#480,#481);
#408=AXIS2_PLACEMENT_3D('',#586,#482,#483);
#409=AXIS2_PLACEMENT_3D('',#587,#484,#485);
#410=AXIS2_PLACEMENT_3D('',#589,#486,#487);
#411=AXIS2_PLACEMENT_3D('',#591,#489,#490);
#412=AXIS2_PLACEMENT_3D('',#593,#491,#492);
#413=AXIS2_PLACEMENT_3D('',#595,#493,#494);
#414=AXIS2_PLACEMENT_3D('',#605,#499,#500);
#415=AXIS2_PLACEMENT_3D('',#607,#501,#502);
#416=AXIS2_PLACEMENT_3D('',#608,#503,#504);
#417=AXIS2_PLACEMENT_3D('',#614,#508,#509);
#418=AXIS2_PLACEMENT_3D('',#618,#512,#513);
#419=AXIS2_PLACEMENT_3D('',#622,#516,#517);
#420=AXIS2_PLACEMENT_3D('',#624,#519,#520);
#421=AXIS2_PLACEMENT_3D('',#627,#522,#523);
#422=AXIS2_PLACEMENT_3D('',#628,#524,#525);
#423=AXIS2_PLACEMENT_3D('',#631,#527,#528);
#424=AXIS2_PLACEMENT_3D('',#632,#529,#530);
#425=AXIS2_PLACEMENT_3D('',#635,#532,#533);
#426=AXIS2_PLACEMENT_3D('',#636,#534,#535);
#427=AXIS2_PLACEMENT_3D('',#639,#537,#538);
#428=AXIS2_PLACEMENT_3D('',#640,#539,#540);
#429=AXIS2_PLACEMENT_3D('',#643,#542,#543);
#430=AXIS2_PLACEMENT_3D('',#644,#544,#545);
#431=DIRECTION('axis',(0.,0.,1.));
#432=DIRECTION('refdir',(1.,0.,0.));
#433=DIRECTION('center_axis',(0.,0.,-1.));
#434=DIRECTION('ref_axis',(-1.,0.,0.));
#435=DIRECTION('center_axis',(0.,0.,-1.));
#436=DIRECTION('ref_axis',(-1.,0.,0.));
#437=DIRECTION('',(0.,0.,-1.));
#438=DIRECTION('center_axis',(0.,0.,-1.));
#439=DIRECTION('ref_axis',(-1.,0.,0.));
#440=DIRECTION('center_axis',(0.,0.,1.));
#441=DIRECTION('ref_axis',(-1.,0.,0.));
#442=DIRECTION('center_axis',(0.,0.,-1.));
#443=DIRECTION('ref_axis',(-1.,0.,0.));
#444=DIRECTION('center_axis',(0.,0.,-1.));
#445=DIRECTION('ref_axis',(-1.,0.,0.));
#446=DIRECTION('',(0.,0.,-1.));
#447=DIRECTION('center_axis',(0.,0.,-1.));
#448=DIRECTION('ref_axis',(-1.,0.,0.));
#449=DIRECTION('center_axis',(0.,0.,1.));
#450=DIRECTION('ref_axis',(-1.,0.,0.));
#451=DIRECTION('center_axis',(0.,0.,-1.));
#452=DIRECTION('ref_axis',(-1.,0.,0.));
#453=DIRECTION('center_axis',(0.,0.,-1.));
#454=DIRECTION('ref_axis',(-1.,0.,0.));
#455=DIRECTION('',(0.,0.,-1.));
#456=DIRECTION('center_axis',(0.,0.,-1.));
#457=DIRECTION('ref_axis',(-1.,0.,0.));
#458=DIRECTION('center_axis',(0.,0.,1.));
#459=DIRECTION('ref_axis',(-1.,0.,0.));
#460=DIRECTION('center_axis',(0.,0.,-1.));
#461=DIRECTION('ref_axis',(-1.,0.,0.));
#462=DIRECTION('center_axis',(0.,0.,-1.));
#463=DIRECTION('ref_axis',(-1.,0.,0.));
#464=DIRECTION('',(0.,0.,-1.));
#465=DIRECTION('center_axis',(0.,0.,-1.));
#466=DIRECTION('ref_axis',(-1.,0.,0.));
#467=DIRECTION('center_axis',(0.,0.,1.));
#468=DIRECTION('ref_axis',(-1.,0.,0.));
#469=DIRECTION('center_axis',(0.,0.,-1.));
#470=DIRECTION('ref_axis',(-1.,0.,0.));
#471=DIRECTION('center_axis',(0.,0.,-1.));
#472=DIRECTION('ref_axis',(-1.,0.,0.));
#473=DIRECTION('',(0.,0.,-1.));
#474=DIRECTION('center_axis',(0.,0.,-1.));
#475=DIRECTION('ref_axis',(-1.,0.,0.));
#476=DIRECTION('center_axis',(0.,0.,1.));
#477=DIRECTION('ref_axis',(-1.,0.,0.));
#478=DIRECTION('center_axis',(0.,0.,1.));
#479=DIRECTION('ref_axis',(-1.,0.,0.));
#480=DIRECTION('center_axis',(0.,0.,1.));
#481=DIRECTION('ref_axis',(-1.,0.,0.));
#482=DIRECTION('center_axis',(0.,0.,1.));
#483=DIRECTION('ref_axis',(1.,0.,0.));
#484=DIRECTION('center_axis',(0.,0.,1.));
#485=DIRECTION('ref_axis',(-1.,0.,0.));
#486=DIRECTION('center_axis',(0.,0.,1.));
#487=DIRECTION('ref_axis',(-1.,0.,0.));
#488=DIRECTION('',(0.,0.,-1.));
#489=DIRECTION('center_axis',(0.,0.,1.));
#490=DIRECTION('ref_axis',(-1.,0.,0.));
#491=DIRECTION('center_axis',(0.,0.,-1.));
#492=DIRECTION('ref_axis',(-1.,0.,0.));
#493=DIRECTION('center_axis',(0.,0.,-1.));
#494=DIRECTION('ref_axis',(-1.,0.,0.));
#495=DIRECTION('',(0.,-1.,0.));
#496=DIRECTION('',(-1.,0.,0.));
#497=DIRECTION('',(0.,1.,0.));
#498=DIRECTION('',(1.,0.,0.));
#499=DIRECTION('center_axis',(0.,0.,-1.));
#500=DIRECTION('ref_axis',(-1.,0.,0.));
#501=DIRECTION('center_axis',(0.,0.,-1.));
#502=DIRECTION('ref_axis',(-1.,0.,0.));
#503=DIRECTION('center_axis',(0.,1.,0.));
#504=DIRECTION('ref_axis',(-1.,0.,0.));
#505=DIRECTION('',(-1.,0.,0.));
#506=DIRECTION('',(0.,0.,1.));
#507=DIRECTION('',(0.,0.,1.));
#508=DIRECTION('center_axis',(-1.,0.,0.));
#509=DIRECTION('ref_axis',(0.,-1.,0.));
#510=DIRECTION('',(0.,-1.,0.));
#511=DIRECTION('',(0.,0.,1.));
#512=DIRECTION('center_axis',(0.,-1.,0.));
#513=DIRECTION('ref_axis',(1.,0.,0.));
#514=DIRECTION('',(1.,0.,0.));
#515=DIRECTION('',(0.,0.,1.));
#516=DIRECTION('center_axis',(1.,0.,0.));
#517=DIRECTION('ref_axis',(0.,1.,0.));
#518=DIRECTION('',(0.,1.,0.));
#519=DIRECTION('center_axis',(0.,0.,1.));
#520=DIRECTION('ref_axis',(1.,0.,0.));
#521=DIRECTION('',(0.,0.,-1.));
#522=DIRECTION('center_axis',(0.,0.,-1.));
#523=DIRECTION('ref_axis',(1.,0.,0.));
#524=DIRECTION('center_axis',(0.,0.,1.));
#525=DIRECTION('ref_axis',(1.,0.,0.));
#526=DIRECTION('',(0.,0.,-1.));
#527=DIRECTION('center_axis',(0.,0.,-1.));
#528=DIRECTION('ref_axis',(1.,0.,0.));
#529=DIRECTION('center_axis',(0.,0.,1.));
#530=DIRECTION('ref_axis',(1.,0.,0.));
#531=DIRECTION('',(0.,0.,-1.));
#532=DIRECTION('center_axis',(0.,0.,-1.));
#533=DIRECTION('ref_axis',(1.,0.,0.));
#534=DIRECTION('center_axis',(0.,0.,1.));
#535=DIRECTION('ref_axis',(1.,0.,0.));
#536=DIRECTION('',(0.,0.,-1.));
#537=DIRECTION('center_axis',(0.,0.,-1.));
#538=DIRECTION('ref_axis',(1.,0.,0.));
#539=DIRECTION('center_axis',(0.,0.,1.));
#540=DIRECTION('ref_axis',(1.,0.,0.));
#541=DIRECTION('',(0.,0.,-1.));
#542=DIRECTION('center_axis',(0.,0.,1.));
#543=DIRECTION('ref_axis',(1.,0.,0.));
#544=DIRECTION('center_axis',(0.,0.,1.));
#545=DIRECTION('ref_axis',(1.,0.,0.));
#546=CARTESIAN_POINT('',(0.,0.,0.));
#547=CARTESIAN_POINT('Origin',(17.5,-47.5,9.));
#548=CARTESIAN_POINT('',(19.6,-47.5,9.));
#549=CARTESIAN_POINT('Origin',(17.5,-47.5,9.));
#550=CARTESIAN_POINT('',(19.6,-47.5,2.));
#551=CARTESIAN_POINT('',(19.6,-47.5,9.));
#552=CARTESIAN_POINT('Origin',(17.5,-47.5,2.));
#553=CARTESIAN_POINT('Origin',(17.5,-47.5,2.));
#554=CARTESIAN_POINT('Origin',(-17.5,-47.5,9.));
#555=CARTESIAN_POINT('',(-15.4,-47.5,9.));
#556=CARTESIAN_POINT('Origin',(-17.5,-47.5,9.));
#557=CARTESIAN_POINT('',(-15.4,-47.5,2.));
#558=CARTESIAN_POINT('',(-15.4,-47.5,9.));
#559=CARTESIAN_POINT('Origin',(-17.5,-47.5,2.));
#560=CARTESIAN_POINT('Origin',(-17.5,-47.5,2.));
#561=CARTESIAN_POINT('Origin',(17.5,-22.5,9.));
#562=CARTESIAN_POINT('',(19.6,-22.5,9.));
#563=CARTESIAN_POINT('Origin',(17.5,-22.5,9.));
#564=CARTESIAN_POINT('',(19.6,-22.5,2.));
#565=CARTESIAN_POINT('',(19.6,-22.5,9.));
#566=CARTESIAN_POINT('Origin',(17.5,-22.5,2.));
#567=CARTESIAN_POINT('Origin',(17.5,-22.5,2.));
#568=CARTESIAN_POINT('Origin',(-17.5,-22.5,9.));
#569=CARTESIAN_POINT('',(-15.4,-22.5,9.));
#570=CARTESIAN_POINT('Origin',(-17.5,-22.5,9.));
#571=CARTESIAN_POINT('',(-15.4,-22.5,2.));
#572=CARTESIAN_POINT('',(-15.4,-22.5,9.));
#573=CARTESIAN_POINT('Origin',(-17.5,-22.5,2.));
#574=CARTESIAN_POINT('Origin',(-17.5,-22.5,2.));
#575=CARTESIAN_POINT('Origin',(1.11022302462516E-14,-22.5,9.));
#576=CARTESIAN_POINT('',(2.10000000000001,-22.5,9.));
#577=CARTESIAN_POINT('Origin',(1.11022302462516E-14,-22.5,9.));
#578=CARTESIAN_POINT('',(2.10000000000001,-22.5,2.));
#579=CARTESIAN_POINT('',(2.10000000000001,-22.5,9.));
#580=CARTESIAN_POINT('Origin',(1.11022302462516E-14,-22.5,2.));
#581=CARTESIAN_POINT('Origin',(1.11022302462516E-14,-22.5,2.));
#582=CARTESIAN_POINT('Origin',(0.,0.,6.));
#583=CARTESIAN_POINT('',(61.45,7.52545458076049E-15,6.));
#584=CARTESIAN_POINT('Origin',(0.,0.,6.));
#585=CARTESIAN_POINT('',(-58.95,-7.7715611723761E-15,6.));
#586=CARTESIAN_POINT('Origin',(0.,0.,6.));
#587=CARTESIAN_POINT('Origin',(0.,0.,6.));
#588=CARTESIAN_POINT('',(61.45,7.52545458076049E-15,9.));
#589=CARTESIAN_POINT('Origin',(0.,0.,9.));
#590=CARTESIAN_POINT('',(61.45,7.52545458076049E-15,6.));
#591=CARTESIAN_POINT('Origin',(0.,0.,9.));
#592=CARTESIAN_POINT('',(-1.8,7.,9.));
#593=CARTESIAN_POINT('Origin',(9.0205620750794E-16,7.,9.));
#594=CARTESIAN_POINT('',(-8.8,6.81619783661416E-16,9.));
#595=CARTESIAN_POINT('Origin',(-7.,9.0205620750794E-16,9.));
#596=CARTESIAN_POINT('',(44.,6.,9.));
#597=CARTESIAN_POINT('',(44.,-6.00000000000001,9.));
#598=CARTESIAN_POINT('',(44.,6.,9.));
#599=CARTESIAN_POINT('',(36.,-6.00000000000001,9.));
#600=CARTESIAN_POINT('',(44.,-6.00000000000001,9.));
#601=CARTESIAN_POINT('',(36.,6.,9.));
#602=CARTESIAN_POINT('',(36.,-6.00000000000001,9.));
#603=CARTESIAN_POINT('',(36.,6.,9.));
#604=CARTESIAN_POINT('',(-1.8,-7.,9.));
#605=CARTESIAN_POINT('Origin',(-9.0205620750794E-16,-7.,9.));
#606=CARTESIAN_POINT('',(5.2,5.71193323097655E-17,9.));
#607=CARTESIAN_POINT('Origin',(7.,2.77555756156289E-16,9.));
#608=CARTESIAN_POINT('Origin',(44.,-6.00000000000001,0.));
#609=CARTESIAN_POINT('',(44.,-6.00000000000001,0.));
#610=CARTESIAN_POINT('',(36.,-6.00000000000001,0.));
#611=CARTESIAN_POINT('',(36.,-6.00000000000001,0.));
#612=CARTESIAN_POINT('',(36.,-6.00000000000001,0.));
#613=CARTESIAN_POINT('',(44.,-6.00000000000001,0.));
#614=CARTESIAN_POINT('Origin',(44.,6.,0.));
#615=CARTESIAN_POINT('',(44.,6.,0.));
#616=CARTESIAN_POINT('',(44.,-6.00000000000001,0.));
#617=CARTESIAN_POINT('',(44.,6.,0.));
#618=CARTESIAN_POINT('Origin',(36.,6.,0.));
#619=CARTESIAN_POINT('',(36.,6.,0.));
#620=CARTESIAN_POINT('',(44.,6.,0.));
#621=CARTESIAN_POINT('',(36.,6.,0.));
#622=CARTESIAN_POINT('Origin',(36.,-6.00000000000001,0.));
#623=CARTESIAN_POINT('',(36.,6.,0.));
#624=CARTESIAN_POINT('Origin',(-9.0205620750794E-16,-7.,0.));
#625=CARTESIAN_POINT('',(-1.8,-7.,0.));
#626=CARTESIAN_POINT('',(-1.8,-7.,0.));
#627=CARTESIAN_POINT('Origin',(-9.0205620750794E-16,-7.,0.));
#628=CARTESIAN_POINT('Origin',(7.,2.77555756156289E-16,0.));
#629=CARTESIAN_POINT('',(5.2,5.71193323097655E-17,0.));
#630=CARTESIAN_POINT('',(5.2,5.71193323097655E-17,0.));
#631=CARTESIAN_POINT('Origin',(7.,2.77555756156289E-16,0.));
#632=CARTESIAN_POINT('Origin',(-7.,9.0205620750794E-16,0.));
#633=CARTESIAN_POINT('',(-8.8,6.81619783661416E-16,0.));
#634=CARTESIAN_POINT('',(-8.8,6.81619783661416E-16,0.));
#635=CARTESIAN_POINT('Origin',(-7.,9.0205620750794E-16,0.));
#636=CARTESIAN_POINT('Origin',(9.0205620750794E-16,7.,0.));
#637=CARTESIAN_POINT('',(-1.8,7.,0.));
#638=CARTESIAN_POINT('',(-1.8,7.,0.));
#639=CARTESIAN_POINT('Origin',(9.0205620750794E-16,7.,0.));
#640=CARTESIAN_POINT('Origin',(0.,0.,0.));
#641=CARTESIAN_POINT('',(-58.95,-7.21929288097365E-15,0.));
#642=CARTESIAN_POINT('',(-58.95,-7.21929288097365E-15,0.));
#643=CARTESIAN_POINT('Origin',(0.,0.,0.));
#644=CARTESIAN_POINT('Origin',(0.,0.,0.));
#645=UNCERTAINTY_MEASURE_WITH_UNIT(LENGTH_MEASURE(0.01),#649,
'DISTANCE_ACCURACY_VALUE',
'Maximum model space distance between geometric entities at asserted c
onnectivities');
#646=UNCERTAINTY_MEASURE_WITH_UNIT(LENGTH_MEASURE(0.01),#649,
'DISTANCE_ACCURACY_VALUE',
'Maximum model space distance between geometric entities at asserted c
onnectivities');
#647=(
GEOMETRIC_REPRESENTATION_CONTEXT(3)
GLOBAL_UNCERTAINTY_ASSIGNED_CONTEXT((#645))
GLOBAL_UNIT_ASSIGNED_CONTEXT((#649,#651,#652))
REPRESENTATION_CONTEXT('','3D')
);
#648=(
GEOMETRIC_REPRESENTATION_CONTEXT(3)
GLOBAL_UNCERTAINTY_ASSIGNED_CONTEXT((#646))
GLOBAL_UNIT_ASSIGNED_CONTEXT((#649,#651,#652))
REPRESENTATION_CONTEXT('','3D')
);
#649=(
LENGTH_UNIT()
NAMED_UNIT(*)
SI_UNIT(.MILLI.,.METRE.)
);
#650=(
LENGTH_UNIT()
NAMED_UNIT(*)
SI_UNIT($,.METRE.)
);
#651=(
NAMED_UNIT(*)
PLANE_ANGLE_UNIT()
SI_UNIT($,.RADIAN.)
);
#652=(
NAMED_UNIT(*)
SI_UNIT($,.STERADIAN.)
SOLID_ANGLE_UNIT()
);
#653=SHAPE_DEFINITION_REPRESENTATION(#654,#655);
#654=PRODUCT_DEFINITION_SHAPE('',$,#657);
#655=SHAPE_REPRESENTATION('',(#385),#647);
#656=PRODUCT_DEFINITION_CONTEXT('part definition',#661,'design');
#657=PRODUCT_DEFINITION('2026-06-23-11-40-43-523','Rover Yaw Plate',#658,
#656);
#658=PRODUCT_DEFINITION_FORMATION('',$,#663);
#659=PRODUCT_RELATED_PRODUCT_CATEGORY('Rover Yaw Plate',
'Rover Yaw Plate',(#663));
#660=APPLICATION_PROTOCOL_DEFINITION('international standard',
'automotive_design',2009,#661);
#661=APPLICATION_CONTEXT(
'Core Data for Automotive Mechanical Design Process');
#662=PRODUCT_CONTEXT('part definition',#661,'mechanical');
#663=PRODUCT('2026-06-23-11-40-43-523','Rover Yaw Plate',$,(#662));
#664=PRESENTATION_STYLE_ASSIGNMENT((#665));
#665=SURFACE_STYLE_USAGE(.BOTH.,#666);
#666=SURFACE_SIDE_STYLE('',(#667));
#667=SURFACE_STYLE_FILL_AREA(#668);
#668=FILL_AREA_STYLE('Steel - Satin',(#669));
#669=FILL_AREA_STYLE_COLOUR('Steel - Satin',#670);
#670=COLOUR_RGB('Steel - Satin',0.627450980392157,0.627450980392157,0.627450980392157);
ENDSEC;
END-ISO-10303-21;
